<?xml version="1.0" encoding="UTF-8" standalone="no"?>
<svg width="56px" height="14px" viewBox="0 0 56 14" version="1.1" xmlns="http://www.w3.org/2000/svg" xmlns:xlink="http://www.w3.org/1999/xlink">
    <!-- Generator: Sketch 49.2 (51160) - http://www.bohemiancoding.com/sketch -->
    <title>Webmoney Copy</title>
    <desc>Created with Sketch.</desc>
    <defs></defs>
    <g id="Symbols" stroke="none" stroke-width="1" fill="none" fill-rule="evenodd">
        <g id="футер-1" transform="translate(-562.000000, -1254.000000)" fill="#485661">
            <g id="футер">
                <g id="Group-2" transform="translate(370.000000, 1248.000000)">
                    <g id="Webmoney-Copy" transform="translate(192.000000, 6.000000)">
                        <g id="Group">
                            <path d="M48.32,0.245 C49.3602795,0.246650934 50.386416,0.486082797 51.32,0.945 C51.4633333,1.01166667 51.6066667,1.08666667 51.75,1.17 L51.115,1.735 L50.165,0.735 L48.56,2.165 L47.605,1.125 L44.605,3.82 L46.52,5.935 L45.765,6.6 L47.655,8.715 L46.905,9.375 L49.605,12.375 L51.205,10.9 L52.62,12.5 C52.3335607,12.7220695 52.0310665,12.9226182 51.715,13.1 C49.2063892,14.5229171 46.0763344,14.2288426 43.8766548,12.3635729 C41.6769752,10.4983032 40.875318,7.45839071 41.8691289,4.75096368 C42.8629398,2.04353664 45.4409368,0.244188348 48.325,0.245 L48.32,0.245 Z" id="Shape"></path>
                            <polygon id="Shape" points="47.07 6.685 48.705 5.215 50.175 6.85 48.54 8.32 47.07 6.685"></polygon>
                            <polygon id="Shape" points="48.23 9.51 49.865 8.04 51.34 9.675 49.705 11.15 48.23 9.51"></polygon>
                            <polygon id="Shape" points="45.9 3.895 47.535 2.42 49.005 4.06 47.37 5.53 45.9 3.895"></polygon>
                            <polygon id="Shape" points="48.9 3.1 50.125 2 51.23 3.225 50.005 4.33 48.9 3.1"></polygon>
                            <polygon id="Shape" points="51.08 8.16 52.305 7.055 53.41 8.28 52.185 9.385 51.08 8.16"></polygon>
                            <polygon id="Shape" points="52.155 10.635 53.385 9.53 54.485 10.76 53.26 11.865 52.155 10.635"></polygon>
                            <polygon id="Shape" points="52.65 4.96 53.47 4.225 54.205 5.04 53.39 5.775 52.65 4.96"></polygon>
                            <polygon id="Shape" points="51.605 2.53 52.425 1.795 53.16 2.61 52.345 3.35 51.605 2.53"></polygon>
                            <polygon id="Shape" points="53.695 7.39 54.515 6.65 55.25 7.47 54.43 8.205 53.695 7.39"></polygon>
                            <polygon id="Shape" points="50.03 5.57 51.255 4.465 52.36 5.69 51.135 6.795 50.03 5.57"></polygon>
                            <polygon id="Shape" fill-rule="nonzero" points="3.46 5.935 3.405 5.935 2.37 9.85 1.5 9.85 0.25 4.29 1.13 4.29 2 8.44 2.055 8.44 3.055 4.29 3.755 4.29 4.845 8.44 4.9 8.44 5.7 4.29 6.62 4.29 5.375 9.85 4.525 9.85"></polygon>
                            <path d="M10.12,9 L10.12,9.595 C9.69645238,9.83530961 9.21695079,9.95949707 8.73,9.955 C7.41,9.955 6.87,9.14 6.87,7.9 C6.87,6.66 7.475,5.845 8.65,5.845 C9.65,5.845 10.235,6.48 10.235,7.76 L10.235,8.05 L7.68,8.05 C7.68,8.99 8.065,9.405 8.875,9.405 C9.31956028,9.38825066 9.75066922,9.2480104 10.12,9 Z M7.695,7.5 L9.5,7.5 C9.46,6.675 9.06,6.345 8.635,6.345 C8.21,6.345 7.785,6.73 7.695,7.5 Z" id="Shape" fill-rule="nonzero"></path>
                            <path d="M11.77,6.125 C12.0955901,5.94626763 12.4587691,5.84690732 12.83,5.835 C13.805,5.835 14.33,6.51 14.33,7.765 C14.33,9.23 13.625,9.945 12.485,9.945 C11.9529643,9.93022647 11.4306636,9.79879786 10.955,9.56 L10.955,4.06 L11.77,3.865 L11.77,6.125 Z M11.77,9.27 C11.9990806,9.35991633 12.2440172,9.40244004 12.49,9.395 C13.07,9.395 13.49,9.035 13.49,7.765 C13.49,6.765 13.13,6.445 12.605,6.445 C12.3014268,6.45084834 12.0054368,6.540857 11.75,6.705 L11.77,9.27 Z" id="Shape" fill-rule="nonzero"></path>
                            <polygon id="Shape" fill-rule="nonzero" points="17.895 8.675 17.935 8.675 19.615 4.29 20.59 4.29 20.59 9.85 19.74 9.85 19.74 5.82 19.67 5.82 18.07 9.855 17.57 9.855 15.97 5.915 15.9 5.915 15.9 9.85 15.19 9.85 15.19 4.29 16.14 4.29"></polygon>
                            <path d="M21.45,7.89 C21.45,6.515 22.205,5.835 23.24,5.835 C24.275,5.835 25.03,6.515 25.03,7.89 C25.03,9.265 24.315,9.945 23.24,9.945 C22.165,9.945 21.45,9.23 21.45,7.89 Z M24.205,7.89 C24.205,6.83 23.775,6.39 23.24,6.39 C22.705,6.39 22.275,6.835 22.275,7.89 C22.275,8.945 22.685,9.39 23.24,9.39 C23.795,9.39 24.205,8.965 24.205,7.89 Z" id="Shape" fill-rule="nonzero"></path>
                            <path d="M25.77,6.415 C26.373767,6.04848039 27.0638183,5.84836552 27.77,5.835 C28.71,5.835 29.065,6.205 29.065,7.01 L29.065,9.85 L28.25,9.85 L28.25,7.19 C28.25,6.57 27.945,6.46 27.545,6.46 C27.2092429,6.47790913 26.8822718,6.57377501 26.59,6.74 L26.59,9.85 L25.77,9.85 L25.77,6.415 Z" id="Shape" fill-rule="nonzero"></path>
                            <path d="M33.045,9 L33.045,9.595 C32.6214524,9.83530961 32.1419508,9.95949707 31.655,9.955 C30.335,9.955 29.795,9.14 29.795,7.9 C29.795,6.66 30.4,5.845 31.575,5.845 C32.575,5.845 33.16,6.48 33.16,7.76 L33.16,8.05 L30.605,8.05 C30.605,8.99 30.99,9.405 31.795,9.405 C32.2412755,9.38917337 32.6742382,9.24889345 33.045,9 Z M30.62,7.5 L32.415,7.5 C32.375,6.675 31.975,6.345 31.55,6.345 C31.125,6.345 30.705,6.73 30.62,7.5 Z" id="Shape" fill-rule="nonzero"></path>
                            <path d="M36.215,5.965 L37.055,5.965 L35.635,9.89 C35.245,10.975 34.765,11.535 33.86,11.535 L33.86,10.895 C34.395,10.895 34.725,10.47 34.91,9.895 L33.41,5.97 L34.275,5.97 L35.275,8.855 L35.32,8.855 L36.215,5.965 Z" id="Shape" fill-rule="nonzero"></path>
                        </g>
                    </g>
                </g>
            </g>
        </g>
    </g>
</svg>