<svg width="44" height="15" viewBox="0 0 44 15" fill="none" xmlns="http://www.w3.org/2000/svg">
<g style="mix-blend-mode:luminosity">
<path fill-rule="evenodd" clip-rule="evenodd" d="M30.955 9.36523C30.955 7.22656 29.1873 6.29785 27.7742 5.55469C26.8251 5.05566 26.0359 4.64062 26.05 4C26.05 3.5 26.525 3 27.55 2.86523C28.7351 2.75195 29.9287 2.96094 31.0049 3.46973L31.61 0.599609C30.5626 0.207031 29.4536 0.00390625 28.335 0C24.875 0 22.435 1.83984 22.415 4.5C22.415 6.4502 24.155 7.53516 25.48 8.18457C26.805 8.83496 27.3 9.27539 27.295 9.87012C27.295 10.7803 26.205 11.1797 25.2 11.1953C23.9466 11.2227 22.707 10.9287 21.6 10.3398L20.97 13.2803C22.2115 13.7627 23.533 14.0068 24.865 14C28.545 14 30.95 12.1846 30.965 9.36523H30.955ZM16.455 0.245117L10.78 13.7852H7.07501L4.28497 2.98047C4.23132 2.4668 3.91785 2.01758 3.45502 1.79004C2.35565 1.26465 1.19501 0.87793 0 0.640625L0.085022 0.245117H6.03998C6.85101 0.235352 7.54565 0.824219 7.66998 1.625L9.16998 9.45996L12.815 0.245117H16.455ZM43.35 13.7852H40.11L39.6851 11.7852H35.1851L34.455 13.7852H30.78L36.02 1.24512C36.2656 0.633789 36.8615 0.237305 37.52 0.245117H40.52L43.35 13.7852ZM36.2 8.98535L38.045 3.90039L39.105 8.98535H36.2ZM18.56 13.7852L21.46 0.245117H17.96L15.06 13.7852H18.56Z" transform="translate(0.329956 0.399414)" fill="url(#paint0_linear)"/>
</g>
<defs>
<linearGradient id="paint0_linear" x2="1" gradientUnits="userSpaceOnUse" gradientTransform="translate(-75.3573 7) scale(118.702 38.3356)">
<stop stop-color="#27235B"/>
<stop offset="1" stop-color="#2C4E9A"/>
</linearGradient>
</defs>
</svg>
