<?xml version="1.0" encoding="UTF-8" standalone="no"?>
<svg width="50px" height="15px" viewBox="0 0 50 15" version="1.1" xmlns="http://www.w3.org/2000/svg" xmlns:xlink="http://www.w3.org/1999/xlink">
    <!-- Generator: Sketch 49.2 (51160) - http://www.bohemiancoding.com/sketch -->
    <title>method3 copy</title>
    <desc>Created with Sketch.</desc>
    <defs></defs>
    <g id="Symbols" stroke="none" stroke-width="1" fill="none" fill-rule="evenodd">
        <g id="футер-1" transform="translate(-815.000000, -1254.000000)" fill-rule="nonzero">
            <g id="футер">
                <g id="Group-2" transform="translate(370.000000, 1248.000000)">
                    <g id="method3-copy" transform="translate(445.000000, 6.000000)">
                        <path d="M27.815,1.875 L24.68,8.67 L24.36,8.67 L24.36,0.395 L19.91,0.395 L19.91,14.395 L23.69,14.395 C24.6874083,14.3908574 25.5904602,13.8044601 26,12.895 L29.135,6.1 L29.455,6.1 L29.455,14.395 L33.91,14.395 L33.91,0.395 L30.13,0.395 C29.1325917,0.399142577 28.2295398,0.985539922 27.82,1.895" id="Shape" fill="#7B8C97"></path>
                        <path d="M11.105,2.235 L9.25,8.67 L8.93,8.67 L7.075,2.235 C6.76089606,1.14548081 5.76389299,0.395179935 4.63,0.395 L0.18,0.395 L0.18,14.395 L4.635,14.395 L4.635,6.125 L4.955,6.125 L7.5,14.395 L10.68,14.395 L13.225,6.12 L13.545,6.12 L13.545,14.395 L18,14.395 L18,0.395 L13.55,0.395 C12.416107,0.395179935 11.4191039,1.14548081 11.105,2.235" id="Shape" fill="#7B8C97"></path>
                        <path d="M35.82,6.76 L35.82,14.395 L40.265,14.395 L40.265,9.94 L45.045,9.94 C47.0674727,9.94118744 48.8708427,8.66680603 49.545,6.76 L35.82,6.76 Z" id="Shape" fill="#7B8C97"></path>
                        <path d="M45.045,0.395 L35.18,0.395 C35.7943982,3.71174225 38.686832,6.1186003 42.06,6.12 L49.72,6.12 C49.783162,5.80559034 49.8149844,5.48569124 49.815,5.165 C49.8122441,2.53174412 47.6782559,0.397755895 45.045,0.395" id="Shape" fill="#7D8D97"></path>
                    </g>
                </g>
            </g>
        </g>
    </g>
</svg>