<?xml version="1.0" encoding="UTF-8" standalone="no"?>
<svg width="56px" height="22px" viewBox="0 0 56 22" version="1.1" xmlns="http://www.w3.org/2000/svg" xmlns:xlink="http://www.w3.org/1999/xlink">
    <!-- Generator: Sketch 49.2 (51160) - http://www.bohemiancoding.com/sketch -->
    <title>method12 copy</title>
    <desc>Created with Sketch.</desc>
    <defs></defs>
    <g id="Symbols" stroke="none" stroke-width="1" fill="none" fill-rule="evenodd">
        <g id="футер-1" transform="translate(-466.000000, -1250.000000)" fill="#8E9DA5" fill-rule="nonzero">
            <g id="футер">
                <g id="Group-2" transform="translate(370.000000, 1248.000000)">
                    <g id="method12-copy" transform="translate(96.000000, 2.000000)">
                        <path d="M27.34,10.15 C28.44,10.15 29.1,9.195 29.1,7.65 C29.1,6.105 28.44,5.15 27.34,5.15 C26.24,5.15 25.57,6.07 25.57,7.65 C25.57,9.23 26.26,10.15 27.34,10.15 Z M30.405,13.625 C30.3793524,13.6549224 30.3419101,13.6721436 30.3025,13.6721436 C30.2630899,13.6721436 30.2256476,13.6549224 30.2,13.625 L29.655,12.9 C29.1298835,12.1534444 28.2499852,11.739151 27.34,11.81 C25.115,11.81 23.72,10.21 23.72,7.665 C23.72,5.12 25.115,3.5 27.34,3.5 C29.565,3.5 30.95,5.1 30.95,7.655 C30.95,8.95 30.495,10.265 29.735,10.72 C29.6,10.8 29.6,10.835 29.735,10.88 C30.2710906,11.0601923 30.7331202,11.4115456 31.05,11.88 L31.55,12.57 C31.5799224,12.5956476 31.5971436,12.6330899 31.5971436,12.6725 C31.5971436,12.7119101 31.5799224,12.7493524 31.55,12.775 L30.405,13.625 Z" id="Shape"></path>
                        <path d="M32.36,3.61 L33.905,3.61 C33.9878427,3.61 34.055,3.67715729 34.055,3.76 L34.055,11.5 C34.055,11.5828427 33.9878427,11.65 33.905,11.65 L32.36,11.65 C32.2799187,11.65 32.215,11.5850813 32.215,11.505 L32.215,3.755 C32.2175917,3.67601712 32.2810171,3.61259167 32.36,3.61 Z" id="Shape"></path>
                        <path d="M44.565,9.22 C44.36,10.005 44.19,10.755 44.065,11.525 C44.062495,11.5644388 44.0440014,11.6011466 44.0137979,11.6266308 C43.9835944,11.652115 43.9442979,11.6641676 43.905,11.66 L41.805,11.66 C41.7657021,11.6641676 41.7264056,11.652115 41.6962021,11.6266308 C41.6659986,11.6011466 41.647505,11.5644388 41.645,11.525 C41.52,10.865 41.395,10.265 41.235,9.64 L40.885,8.14 C40.815,7.845 40.725,7.37 40.66,6.97 C40.66,6.81 40.5,6.81 40.48,6.97 C40.41,7.365 40.32,7.835 40.255,8.14 L39.905,9.64 C39.755,10.265 39.63,10.865 39.495,11.525 C39.492495,11.5644388 39.4740014,11.6011466 39.4437979,11.6266308 C39.4135944,11.652115 39.3742979,11.6641676 39.335,11.66 L37.255,11.66 C37.2157021,11.6641676 37.1764056,11.652115 37.1462021,11.6266308 C37.1159986,11.6011466 37.097505,11.5644388 37.095,11.525 C36.945,10.755 36.775,10.025 36.595,9.22 L35.2,3.77 C35.165,3.68 35.2,3.61 35.325,3.61 L36.89,3.61 C36.9700057,3.60310219 37.0427306,3.6565764 37.06,3.735 L37.83,6.8 C38.0279051,7.62256491 38.168245,8.45792187 38.25,9.3 C38.25,9.45 38.43,9.46 38.455,9.3 C38.5711946,8.45736228 38.7381651,7.62250968 38.955,6.8 L39.785,3.735 C39.8016789,3.66049588 39.8686741,3.60815591 39.945,3.61 L41.24,3.61 C41.3163259,3.60815591 41.3833211,3.66049588 41.4,3.735 L42.24,6.8 C42.4567402,7.6225316 42.6237096,8.45737845 42.74,9.3 C42.74,9.46 42.92,9.45 42.935,9.3 C43.0112651,8.45720425 43.1516719,7.62144917 43.355,6.8 L44.125,3.735 C44.1422694,3.6565764 44.2149943,3.60310219 44.295,3.61 L45.86,3.61 C45.96,3.61 46.02,3.68 45.985,3.77 L44.565,9.22 Z" id="Shape"></path>
                        <path d="M47.235,3.61 L48.78,3.61 C48.8628427,3.61 48.93,3.67715729 48.93,3.76 L48.93,11.5 C48.93,11.5828427 48.8628427,11.65 48.78,11.65 L47.235,11.65 C47.1549187,11.65 47.09,11.5850813 47.09,11.505 L47.09,3.755 C47.09,3.67491871 47.1549187,3.61 47.235,3.61 Z" id="Shape"></path>
                        <path d="M20.63,21.19 C20.82,21.425 20.53,21.69 20.315,21.475 C18.155,19.565 16.34,19.02 14.545,18.945 C13.5796511,18.9290138 12.6142835,18.975779 11.655,19.085 L11.055,19.135 L10.79,19.135 C10.4379942,19.1739453 10.0841522,19.1939741 9.73,19.195 C8.07654562,19.2122109 6.44686943,18.8004851 5,18 C3.5608977,17.2032433 2.36767948,16.0273181 1.55,14.6 C0.724521719,13.1682438 0.294825328,11.5426454 0.305,9.89 C0.297243928,8.2313359 0.726657878,6.59990781 1.55,5.16 C3.19115248,2.25732754 6.26550466,0.460454615 9.6,0.455 C11.2779248,0.442477499 12.9302885,0.866337231 14.395,1.685 C15.8366384,2.4863169 17.0327845,3.66517765 17.855,5.095 C18.688298,6.52968274 19.1232878,8.16089438 19.115,9.82 C19.114936,10.4613809 19.0512915,11.1011758 18.925,11.73 C18.925,11.82 18.885,11.93 18.855,12.055 C18.825,12.18 18.805,12.26 18.775,12.36 C18.5106907,13.1535488 18.1549667,13.9136573 17.715,14.625 C17.655,14.725 17.62,14.625 17.61,14.59 C17.4920347,13.2770131 16.7789925,12.0904519 15.675,11.37 L15.62,11.335 C15.4337791,11.220347 15.2400017,11.1184468 15.04,11.03 C14.7629691,10.9085922 14.4771543,10.8083063 14.185,10.73 C14,10.68 13.58,10.7 13.73,10.55 C14.3945054,10.4740831 15.0654946,10.4740831 15.73,10.55 L15.79,10.55 C15.81,10.3333333 15.82,10.11 15.82,9.88 C15.8601308,8.20782479 15.2004229,6.59480268 14,5.43 C12.8625478,4.25244235 11.2869383,3.60046601 9.65,3.63 C8.01277937,3.58331916 6.43359785,4.23827924 5.31,5.43 C4.1507713,6.60259724 3.51893322,8.19663445 3.56,9.845 C3.52021993,11.4960385 4.17076315,13.0888728 5.355,14.24 C6.4739274,15.4107787 8.03073355,16.0614114 9.65,16.035 L9.89,16.035 L9.89,15.975 C9.795,14.74 9.775,13.72 10.025,14.13 C10.115,14.275 10.205,14.415 10.29,14.545 C10.5855765,14.9874095 10.9202516,15.4024066 11.29,15.785 L11.34,15.835 C12.535,17.045 13.71,17.335 14.96,17.65 L15.04,17.65 L15.66,17.805 C17.16,18.2 18.755,18.84 20.63,21.165 M16.5,13.735 C16.315,13.68 16.18,13.735 16.11,13.845 C16.0257869,14.1518369 16.0926207,14.4804361 16.29,14.73 C16.5,15.06 16.68,15.23 16.82,15.23 C16.868456,15.2293267 16.9141661,15.2073859 16.945,15.17 C17.0292576,15.0176896 17.0541911,14.8395932 17.015,14.67 C16.988158,14.3085191 16.8057246,13.9764904 16.515,13.76 M14.435,15.295 C14.2678228,15.2864962 14.1058722,15.3545891 13.995,15.48 C13.7630162,15.8765014 13.8688873,16.3842506 14.24,16.655 C14.4199121,16.8040812 14.6463478,16.8854565 14.88,16.885 C15.0957805,16.8953506 15.3036418,16.8025554 15.44,16.635 C15.66,16.34 15.535,15.92 15.115,15.565 C14.9286339,15.3986133 14.6897043,15.3030414 14.44,15.295" id="Shape"></path>
                        <path d="M34,13.465 L32.905,14.73 L32.905,13.465 L32.18,13.465 L32.18,16.65 L32.92,16.65 L32.92,15.34 C33.3285314,15.3140639 33.6987241,15.5796824 33.805,15.975 C33.8819028,16.1911201 33.9772543,16.4002243 34.09,16.6 L34.12,16.65 L34.92,16.65 L34.84,16.5 C34.738501,16.3077961 34.6499702,16.1090192 34.575,15.905 L34.525,15.78 C34.3918135,15.3468648 34.0618655,15.0020876 33.635,14.85 L34.97,13.465 L34,13.465 Z" id="Shape"></path>
                        <path d="M36.575,13.395 C36.1365488,13.3909059 35.7164891,13.5709332 35.4170759,13.8912579 C35.1176626,14.2115825 34.9663602,14.6428221 35,15.08 C34.9613857,15.5059225 35.1064132,15.9280751 35.3986279,16.2403436 C35.6908425,16.5526122 36.1024547,16.7253002 36.53,16.715 C36.9701801,16.7219263 37.392921,16.5431355 37.6945532,16.2224729 C37.9961854,15.9018103 38.1488105,15.4689343 38.115,15.03 C38.1538552,14.6022956 38.0075194,14.1784508 37.7130595,13.8658262 C37.4185996,13.5532016 37.0042624,13.3817863 36.575,13.395 Z M37.35,15.05 C37.35,15.66 37.015,16.1 36.55,16.1 C36.085,16.1 35.75,15.665 35.75,15.06 C35.75,14.56 36,14.01 36.56,14.01 C37.12,14.01 37.35,14.69 37.35,15.05 Z" id="Shape"></path>
                        <polygon id="Shape" points="41.71 16.015 40.88 16.015 40.88 13.465 40.145 13.465 40.145 16.015 39.31 16.015 39.31 13.465 38.575 13.465 38.575 16.645 42.455 16.645 42.455 13.465 41.71 13.465"></polygon>
                        <path d="M44.53,13.395 C43.645,13.395 43.03,14.095 43.03,15.105 C42.9995669,15.5322375 43.153228,15.952106 43.4522505,16.2587713 C43.751273,16.5654366 44.1671306,16.7296431 44.595,16.71 C44.9482561,16.7185224 45.2993059,16.6520615 45.625,16.515 L45.705,16.48 L45.565,15.89 L45.45,15.94 C45.2020502,16.0450404 44.9341128,16.094532 44.665,16.085 C44.4332974,16.1029263 44.2044395,16.0246349 44.0322672,15.8685447 C43.8600949,15.7124544 43.7598081,15.4923453 43.755,15.26 L45.83,15.26 L45.83,15.14 C45.8347611,15.061739 45.8347611,14.983261 45.83,14.905 C45.8719631,14.5293385 45.7556878,14.1531595 45.5090657,13.8666984 C45.2624435,13.5802373 44.9077258,13.4093399 44.53,13.395 Z M45.13,14.66 L43.78,14.66 C43.8281513,14.2944865 44.1316867,14.0162458 44.5,14 C44.6630932,13.9922998 44.8221847,14.0519591 44.94,14.165 C45.0571037,14.305941 45.1239521,14.4818578 45.13,14.665 L45.13,14.66 Z" id="Shape"></path>
                        <path d="M46.645,14.765 C46.645,15.445 46.605,15.8 46.375,15.97 C46.3022185,16.0219276 46.2183305,16.0561676 46.13,16.07 L46.03,16.07 L46.11,16.685 L46.2,16.685 C46.4320707,16.6981916 46.6611045,16.6271734 46.845,16.485 C47.275,16.205 47.345,15.615 47.345,14.75 L47.345,14.095 L48.16,14.095 L48.16,16.645 L48.9,16.645 L48.9,13.465 L46.625,13.465 L46.645,14.765 Z" id="Shape"></path>
                        <path d="M51,13.395 C50.115,13.395 49.5,14.095 49.5,15.105 C49.4695669,15.5322375 49.623228,15.952106 49.9222505,16.2587713 C50.221273,16.5654366 50.6371306,16.7296431 51.065,16.71 C51.4182561,16.7185224 51.7693059,16.6520615 52.095,16.515 L52.175,16.48 L52.035,15.89 L51.92,15.94 C51.6720972,16.0451966 51.4041248,16.0946947 51.135,16.085 C50.9032974,16.1029263 50.6744395,16.0246349 50.5022672,15.8685447 C50.3300949,15.7124544 50.2298081,15.4923453 50.225,15.26 L52.3,15.26 L52.3,15.145 C52.3049151,15.0650755 52.3049151,14.9849245 52.3,14.905 C52.3419631,14.5293385 52.2256878,14.1531595 51.9790657,13.8666984 C51.7324435,13.5802373 51.3777258,13.4093399 51,13.395 Z M51.6,14.66 L50.25,14.66 C50.2974349,14.2980296 50.5955348,14.0209226 50.96,14 C51.1230932,13.9922998 51.2821847,14.0519591 51.4,14.165 C51.522866,14.3037158 51.5951252,14.4799578 51.605,14.665 L51.6,14.66 Z" id="Shape"></path>
                        <path d="M55.315,15.905 L55.265,15.78 C55.1318135,15.3468648 54.8018655,15.0020876 54.375,14.85 L55.71,13.465 L54.76,13.465 L53.665,14.73 L53.665,13.465 L52.925,13.465 L52.925,16.65 L53.665,16.65 L53.665,15.34 C54.0735314,15.3140639 54.4437241,15.5796824 54.55,15.975 C54.6270844,16.1910465 54.7224289,16.4001354 54.835,16.6 L54.865,16.65 L55.665,16.65 L55.58,16.495 C55.4787562,16.3043906 55.3902297,16.1072938 55.315,15.905 Z" id="Shape"></path>
                        <rect id="Rectangle-path" x="50.45" y="12.58" width="1" height="1"></rect>
                        <rect id="Rectangle-path" x="51.235" y="12.58" width="1" height="1"></rect>
                    </g>
                </g>
            </g>
        </g>
    </g>
</svg>