<svg width="56" height="22" viewBox="0 0 56 22" fill="none" xmlns="http://www.w3.org/2000/svg">
<g style="mix-blend-mode:luminosity">
<path fill-rule="evenodd" clip-rule="evenodd" d="M6.58249 10.1719C6.62192 10.1719 6.65936 10.1553 6.685 10.125L7.82999 9.27539C7.85992 9.24902 7.87714 9.21191 7.87714 9.17285C7.87714 9.13281 7.85992 9.0957 7.82999 9.07031L7.32999 8.37988C7.01312 7.91113 6.55109 7.56055 6.01501 7.37988C5.88 7.33496 5.88 7.2998 6.01501 7.21973C6.77499 6.76465 7.23001 5.4502 7.23001 4.15527C7.23001 1.59961 5.845 0 3.62 0C1.39499 0 0 1.62012 0 4.16504C0 6.70996 1.39499 8.30957 3.62 8.30957C4.53 8.23926 5.40988 8.65332 5.935 9.40039L6.48001 10.125C6.50565 10.1553 6.54309 10.1719 6.58249 10.1719ZM5.38 4.15039C5.38 5.69531 4.72 6.65039 3.62 6.65039C2.54001 6.65039 1.85001 5.73047 1.85001 4.15039C1.85001 2.57031 2.52002 1.65039 3.62 1.65039C4.72 1.65039 5.38 2.60547 5.38 4.15039Z" transform="translate(23.72 3.5)" fill="#E48A20"/>
<path d="M0.145 0H1.69C1.77284 0 1.84 0.0671573 1.84 0.15V7.89C1.84 7.97284 1.77284 8.04 1.69 8.04H0.145C0.0649187 8.04 0 7.97508 0 7.895V0.145C0.00259167 0.0660171 0.0660171 0.00259167 0.145 0V0Z" transform="translate(32.215 3.60938)" fill="#E48A20"/>
<path d="M9.37783 5.6106C9.17283 6.3956 9.00283 7.1456 8.87783 7.9156C8.87532 7.95504 8.85683 7.99174 8.82663 8.01723C8.79642 8.04271 8.75713 8.05477 8.71783 8.0506H6.61783C6.57853 8.05477 6.53923 8.04271 6.50903 8.01723C6.47883 7.99174 6.46033 7.95504 6.45783 7.9156C6.33283 7.2556 6.20783 6.6556 6.04783 6.0306L5.69783 4.5306C5.62783 4.2356 5.53783 3.7606 5.47283 3.3606C5.47283 3.2006 5.31283 3.2006 5.29283 3.3606C5.22283 3.7556 5.13283 4.2256 5.06783 4.5306L4.71783 6.0306C4.56783 6.6556 4.44283 7.2556 4.30783 7.9156C4.30532 7.95504 4.28683 7.99174 4.25663 8.01723C4.22642 8.04271 4.18713 8.05477 4.14783 8.0506H2.06783C2.02853 8.05477 1.98923 8.04271 1.95903 8.01723C1.92883 7.99174 1.91033 7.95504 1.90783 7.9156C1.75783 7.1456 1.58783 6.4156 1.40783 5.6106L0.0128281 0.160598C-0.0221719 0.0705979 0.0128281 0.000597859 0.137828 0.000597859H1.70283C1.78283 -0.00629995 1.85556 0.0471743 1.87283 0.125598L2.64283 3.1906C2.84073 4.01316 2.98107 4.84852 3.06283 5.6906C3.06283 5.8406 3.24283 5.8506 3.26783 5.6906C3.38402 4.84796 3.55099 4.01311 3.76783 3.1906L4.59783 0.125598C4.61451 0.0510937 4.6815 -0.00124623 4.75783 0.000597859H6.05283C6.12915 -0.00124623 6.19615 0.0510937 6.21283 0.125598L7.05283 3.1906C7.26957 4.01313 7.43654 4.84798 7.55283 5.6906C7.55283 5.8506 7.73283 5.8406 7.74783 5.6906C7.82409 4.8478 7.9645 4.01205 8.16783 3.1906L8.93783 0.125598C8.9551 0.0471743 9.02782 -0.00629995 9.10783 0.000597859H10.6728C10.7728 0.000597859 10.8328 0.0705979 10.7978 0.160598L9.37783 5.6106Z" transform="translate(35.1872 3.60938)" fill="#E48A20"/>
<path d="M0.145 0H1.69C1.77284 0 1.84 0.0671573 1.84 0.15V7.89C1.84 7.97284 1.77284 8.04 1.69 8.04H0.145C0.0649187 8.04 0 7.97508 0 7.895V0.145C0 0.0649187 0.0649187 0 0.145 0Z" transform="translate(47.09 3.60938)" fill="#E48A20"/>
<path fill-rule="evenodd" clip-rule="evenodd" d="M20.3252 20.7356C20.5152 20.971 20.2252 21.2356 20.0102 21.0208C17.8502 19.1106 16.0352 18.5657 14.2402 18.4905C13.2748 18.4749 12.3094 18.5218 11.3502 18.6302L10.7502 18.6809H10.4852C10.1332 18.719 9.77932 18.7395 9.42517 18.7405C7.77172 18.7581 6.14205 18.346 4.69518 17.5452C3.25607 16.7483 2.06286 15.5725 1.24517 14.1458C0.419702 12.7141 -0.0100157 11.0882 0.000177198 9.43582C-0.00757427 7.77664 0.421839 6.14578 1.24517 4.70536C2.88632 1.80301 5.96069 0.00613641 9.29516 0.000277037C10.9731 -0.0124183 12.6255 0.41141 14.0902 1.23075C15.5318 2.03153 16.728 3.21024 17.5502 4.6409C18.3835 6.07547 18.8184 7.70633 18.8102 9.36551C18.8101 10.0071 18.7465 10.6468 18.6202 11.2757C18.6202 11.3391 18.5999 11.4134 18.5775 11.4964L18.5502 11.6009C18.5202 11.7259 18.5002 11.8059 18.4702 11.9056C18.2059 12.6995 17.8502 13.4593 17.4102 14.1702C17.3502 14.2708 17.3152 14.1702 17.3052 14.136C17.1872 12.8225 16.4742 11.636 15.3702 10.9153L15.3152 10.8802C15.129 10.7659 14.9352 10.6643 14.7352 10.5755C14.4582 10.4544 14.1723 10.3538 13.8802 10.2757C13.8263 10.261 13.7525 10.2522 13.6786 10.2434C13.4989 10.2229 13.3189 10.2014 13.4252 10.096C14.0897 10.0198 14.7607 10.0198 15.4252 10.096H15.4852C15.5052 9.87918 15.5152 9.65555 15.5152 9.42508C15.5553 7.75321 14.8956 6.13993 13.6952 4.97586C12.5577 3.79813 10.9821 3.14578 9.34518 3.17508C7.70794 3.12918 6.12878 3.78348 5.00518 4.97586C3.84594 6.14774 3.21411 7.74246 3.25518 9.3909C3.21539 11.0413 3.86593 12.6341 5.05017 13.7854C6.16909 14.9563 7.72592 15.6067 9.34518 15.5804H9.58517V15.5208C9.49017 14.2854 9.47018 13.2659 9.72018 13.6751C9.81017 13.8206 9.90017 13.9602 9.98516 14.0901C10.2808 14.5325 10.6154 14.9475 10.9852 15.3304L11.0352 15.3802C12.2218 16.5813 13.3887 16.8763 14.6288 17.1888L14.6552 17.1956H14.7352L15.3552 17.3509C16.8552 17.7454 18.4502 18.386 20.3252 20.7102V20.7356ZM16.1952 13.2806C16.0102 13.2259 15.8752 13.2806 15.8052 13.3909C15.7209 13.6975 15.7878 14.0257 15.9852 14.2757C16.1952 14.6057 16.3752 14.7757 16.5152 14.7757C16.5636 14.7747 16.6093 14.7532 16.6402 14.7161C16.7244 14.5638 16.7494 14.385 16.7102 14.2161C16.6833 13.8538 16.5009 13.5218 16.2102 13.3059L16.1952 13.2806ZM13.6902 15.0257C13.4582 15.4222 13.5641 15.93 13.9352 16.2005L13.6902 15.0257ZM13.9352 16.2005C14.1151 16.3499 14.3415 16.4309 14.5752 16.4309L13.9352 16.2005ZM14.5752 16.4309C14.7909 16.4407 14.9988 16.3479 15.1352 16.1809L14.5752 16.4309ZM15.1352 16.1809C15.3552 15.886 15.2302 15.4661 14.8102 15.1106L15.1352 16.1809ZM14.8102 15.1106C14.6238 14.9446 14.3849 14.8489 14.1302 14.8411L14.8102 15.1106Z" transform="translate(0.30484 0.454102)" fill="#E48A20"/>
<path d="M1.82 0L0.725 1.265V0H0V3.185H0.74V1.875C1.14853 1.84906 1.51872 2.11468 1.625 2.51C1.7019 2.72612 1.79725 2.93522 1.91 3.135L1.94 3.185H2.74L2.66 3.035C2.5585 2.8428 2.46997 2.64402 2.395 2.44L2.345 2.315C2.21181 1.88186 1.88187 1.53709 1.455 1.385L2.79 0H1.82Z" transform="translate(32.18 13.4648)" fill="#DC9435"/>
<path fill-rule="evenodd" clip-rule="evenodd" d="M0.423214 0.496852C0.722622 0.176539 1.14267 -0.00314844 1.58114 0.000757813C2.0104 -0.0129141 2.42474 0.158961 2.71917 0.471461C3.01364 0.783961 3.15997 1.20779 3.12112 1.63552C3.15493 2.074 3.00232 2.50759 2.70068 2.82791C2.39904 3.14822 1.97631 3.32791 1.53613 3.32009C1.10858 3.33084 0.696957 3.15798 0.404751 2.84548C0.112545 2.53396 -0.0324746 2.11111 0.00613013 1.68533C-0.0275002 1.24783 0.123806 0.817164 0.423214 0.496852ZM1.55612 2.70486C2.02114 2.70486 2.35614 2.26541 2.35614 1.65505C2.35614 1.2947 2.12613 0.615016 1.56613 0.615016C1.00613 0.615016 0.75613 1.16482 0.75613 1.66482C0.75613 2.27029 1.09112 2.70486 1.55612 2.70486Z" transform="translate(34.9939 13.3945)" fill="#DC9435"/>
<path d="M3.135 2.55H2.305V0H1.57V2.55H0.735V0H0V3.18H3.88V0H3.135V2.55Z" transform="translate(38.575 13.4648)" fill="#DC9435"/>
<path fill-rule="evenodd" clip-rule="evenodd" d="M0.00379386 1.70996C0.00379386 0.700195 0.618815 0 1.50379 0C1.88154 0.0146484 2.23625 0.185547 2.48286 0.47168C2.7295 0.757812 2.84577 1.13477 2.80381 1.50977C2.80857 1.58789 2.80857 1.66699 2.80381 1.74512V1.86523H0.7288C0.733622 2.09766 0.833902 2.31738 1.00608 2.47363C1.17823 2.62988 1.40711 2.70801 1.6388 2.69043C1.90791 2.69922 2.17585 2.65039 2.42381 2.54492L2.5388 2.49512L2.67881 3.08496L2.5988 3.12012C2.27311 3.25684 1.92207 3.32324 1.5688 3.31543C1.14094 3.33496 0.725077 3.1709 0.426066 2.86426C0.127024 2.55664 -0.0266322 2.1377 0.00379386 1.70996ZM0.753794 1.26562H2.1038C2.09776 1.08691 2.03089 0.911133 1.9138 0.770508C1.79597 0.657227 1.63688 0.597656 1.4738 0.605469C1.10548 0.621094 0.801951 0.899414 0.753794 1.26562Z" transform="translate(43.0262 13.3945)" fill="#DC9435"/>
<path d="M0.615 1.3C0.615 1.98 0.575 2.335 0.345 2.505C0.272218 2.55693 0.188331 2.59117 0.1 2.605H0L0.08 3.22H0.17C0.402071 3.23319 0.631105 3.16217 0.815 3.02C1.245 2.74 1.315 2.15 1.315 1.285V0.63H2.13V3.18H2.87V0H0.595L0.615 1.3Z" transform="translate(46.03 13.4648)" fill="#DC9435"/>
<path fill-rule="evenodd" clip-rule="evenodd" d="M0.00379386 1.70996C0.00379386 0.700195 0.618815 0 1.50379 0C1.88154 0.0146484 2.23625 0.185547 2.48286 0.47168C2.7295 0.757812 2.84577 1.13477 2.80381 1.50977C2.80873 1.58984 2.80873 1.66992 2.80381 1.75V1.86523H0.7288C0.733622 2.09766 0.833902 2.31738 1.00608 2.47363C1.17823 2.62988 1.40711 2.70801 1.6388 2.69043C1.90794 2.69922 2.17591 2.65039 2.42381 2.54492L2.5388 2.49512L2.67881 3.08496L2.5988 3.12012C2.27311 3.25684 1.92207 3.32324 1.5688 3.31543C1.14094 3.33496 0.725077 3.1709 0.426066 2.86426C0.127024 2.55664 -0.0266322 2.1377 0.00379386 1.70996ZM0.753794 1.26562H2.1038C2.09892 1.08496 2.02665 0.90918 1.90379 0.770508C1.78599 0.657227 1.6269 0.597656 1.46379 0.605469C1.09931 0.625977 0.801218 0.90332 0.753794 1.26562Z" transform="translate(49.4962 13.3945)" fill="#DC9435"/>
<path d="M2.39 2.44L2.34 2.315C2.20681 1.88186 1.87687 1.53709 1.45 1.385L2.785 0H1.835L0.74 1.265V0H0V3.185H0.74V1.875C1.14853 1.84906 1.51872 2.11468 1.625 2.51C1.70208 2.72605 1.79743 2.93514 1.91 3.135L1.94 3.185H2.74L2.655 3.03C2.55376 2.83939 2.46523 2.64229 2.39 2.44Z" transform="translate(52.925 13.4648)" fill="#DC9435"/>
<path d="M0 0H0.335V0.5H0V0Z" transform="translate(50.45 12.5801)" fill="#E48A20"/>
<path d="M0 0H0.335V0.5H0V0Z" transform="translate(51.235 12.5801)" fill="#E48A20"/>
</g>
</svg>
