<?xml version="1.0" encoding="UTF-8" standalone="no"?>
<svg width="44px" height="15px" viewBox="0 0 44 15" version="1.1" xmlns="http://www.w3.org/2000/svg" xmlns:xlink="http://www.w3.org/1999/xlink">
    <!-- Generator: Sketch 49.2 (51160) - http://www.bohemiancoding.com/sketch -->
    <title>method1 copy</title>
    <desc>Created with Sketch.</desc>
    <defs></defs>
    <g id="Symbols" stroke="none" stroke-width="1" fill="none" fill-rule="evenodd">
        <g id="футер-1" transform="translate(-731.000000, -1254.000000)" fill="#35454F" fill-rule="nonzero">
            <g id="футер">
                <g id="Group-2" transform="translate(370.000000, 1248.000000)">
                    <g id="method1-copy" transform="translate(361.000000, 6.000000)">
                        <path d="M16.785,0.644884463 L11.11,14.185 L7.405,14.185 L4.615,3.38 C4.56132902,2.86701444 4.24786087,2.41758421 3.785,2.19 C2.68564045,1.66447388 1.52501059,1.27815714 0.33,1.04 L0.415,0.645 L6.37,0.645 C7.18099398,0.635412585 7.8756624,1.22353677 8,2.025 L9.5,9.86 L13.145,0.645 L16.785,0.644884463 Z M31.285,9.765 C31.285,6.19 26.345,5.995 26.38,4.4 C26.38,3.9 26.855,3.4 27.88,3.265 C29.0651254,3.15209712 30.2587555,3.36111196 31.335,3.87 L31.94,1 C30.8926754,0.606924263 29.7836524,0.403744472 28.665,0.4 C25.205,0.4 22.765,2.24 22.745,4.9 C22.745,6.85 24.485,7.935 25.81,8.585 C27.135,9.235 27.63,9.675 27.625,10.27 C27.625,11.18 26.535,11.58 25.53,11.595 C24.2766049,11.6227733 23.0370584,11.328381 21.93,10.74 L21.3,13.68 C22.5415934,14.1624869 23.8629706,14.4067466 25.195,14.4 C28.875,14.4 31.28,12.585 31.295,9.765 L31.285,9.765 Z M40.44,14.185 L43.68,14.185 L40.85,0.645 L37.85,0.645 C37.1915039,0.636707533 36.5956132,1.033968 36.35,1.645 L31.11,14.185 L34.785,14.185 L35.515,12.185 L40.015,12.185 L40.44,14.185 Z M36.53,9.385 L38.375,4.3 L39.435,9.385 L36.53,9.385 Z M21.79,0.645 L18.89,14.185 L15.39,14.185 L18.29,0.645 L21.79,0.645 Z" id="Shape"></path>
                    </g>
                </g>
            </g>
        </g>
    </g>
</svg>