<?xml version="1.0" encoding="UTF-8" standalone="no"?>
<svg width="33px" height="26px" viewBox="0 0 33 26" version="1.1" xmlns="http://www.w3.org/2000/svg" xmlns:xlink="http://www.w3.org/1999/xlink">
    <!-- Generator: Sketch 49.2 (51160) - http://www.bohemiancoding.com/sketch -->
    <title>method2 copy</title>
    <desc>Created with Sketch.</desc>
    <defs></defs>
    <g id="Symbols" stroke="none" stroke-width="1" fill="none" fill-rule="evenodd">
        <g id="футер-1" transform="translate(-658.000000, -1248.000000)" fill-rule="nonzero">
            <g id="футер">
                <g id="Group-2" transform="translate(370.000000, 1248.000000)">
                    <g id="method2-copy" transform="translate(288.000000, 0.000000)">
                        <g id="g3110">
                            <path d="M32.79,10.435 C32.8244444,14.5074036 30.3978001,18.198005 26.645231,19.7803714 C22.8926619,21.3627377 18.5561106,20.5240102 15.6641798,17.6565385 C12.772249,14.7890667 11.8967192,10.4597955 13.4471562,6.69392205 C14.9975931,2.92804855 18.6674507,0.470145663 22.74,0.47 C25.3947629,0.456709875 27.945856,1.4996061 29.8310356,3.3688414 C31.7162152,5.23807671 32.7807415,7.78021996 32.79,10.435 Z" id="path2997" fill="#97A8B2"></path>
                            <path d="M20.39,10.435 C20.4244444,14.5074036 17.9978001,18.198005 14.245231,19.7803714 C10.4926619,21.3627377 6.1561106,20.5240102 3.26417978,17.6565385 C0.372248961,14.7890667 -0.503280764,10.4597955 1.04715616,6.69392205 C2.59759309,2.92804855 6.2674507,0.470145663 10.34,0.47 C12.9947629,0.456709875 15.545856,1.4996061 17.4310356,3.3688414 C19.3162152,5.23807671 20.3807415,7.78021996 20.39,10.435 Z" id="path2995" fill="#34434C"></path>
                            <path d="M16.54,2.595 C14.110684,4.47257685 12.6882664,7.36967897 12.6882664,10.44 C12.6882664,13.510321 14.110684,16.4074231 16.54,18.285 C18.969316,16.4074231 20.3917336,13.510321 20.3917336,10.44 C20.3917336,7.36967897 18.969316,4.47257685 16.54,2.595 Z" id="path2999" fill="#71808A"></path>
                        </g>
                        <g id="g3081" transform="translate(1.500000, 21.500000)" fill="#FFFFFF">
                            <path d="M1.025,3.83 L0.455,3.83 L0.455,1.195 L1,1.195 L1,1.5 C1.2268243,1.31029206 1.49613514,1.17820967 1.785,1.115 C2.14527307,1.14129212 2.47597437,1.32400002 2.69,1.615 C2.88185704,1.3048404 3.22029805,1.11576721 3.585,1.115 C4.09585046,1.08213444 4.54903199,1.44036366 4.635,1.945 L4.635,3.805 L4.1,3.805 L4.1,2.18 C4.10275298,2.02916147 4.03725264,1.88514394 3.92175473,1.78808687 C3.80625682,1.6910298 3.65311067,1.65131079 3.505,1.68 C3.18461318,1.64337034 2.89106391,1.86243696 2.835,2.18 L2.835,3.82 L2.265,3.82 L2.265,2.17 C2.22736439,1.88392533 1.9835397,1.67004402 1.695,1.67 C1.025,1.67 1.015,2.2 1.015,2.2 L1.025,3.83 Z" id="path3006"></path>
                            <path d="M18.37,1.13 C18.0811351,1.19320967 17.8118243,1.32529206 17.585,1.515 L17.585,1.195 L17.03,1.195 L17.03,3.83 L17.6,3.83 L17.6,2.18 C17.6,2.18 17.6,1.65 18.28,1.65 C18.3833428,1.64754278 18.4853792,1.67348424 18.575,1.725 L18.76,1.225 C18.6374451,1.16818628 18.5049538,1.13591276 18.37,1.13 Z" id="path3008"></path>
                            <path d="M26.405,1.13 C26.1161351,1.19320967 25.8468243,1.32529206 25.62,1.515 L25.62,1.195 L25.06,1.195 L25.06,3.83 L25.63,3.83 L25.63,2.18 C25.63,2.18 25.63,1.65 26.31,1.65 C26.4133428,1.64754278 26.5153792,1.67348424 26.605,1.725 L26.79,1.225 C26.667958,1.17397574 26.5372664,1.14681905 26.405,1.145 L26.405,1.13 Z" id="path3013"></path>
                            <path d="M6.5,1.12 C5.7563055,1.13909812 5.16822283,1.75624953 5.185,2.5 C5.17044357,3.24894813 5.75199402,3.87472294 6.5,3.915 C6.81995295,3.89431173 7.12485864,3.77164852 7.37,3.565 L7.37,3.835 L7.93,3.835 L7.93,1.195 L7.385,1.195 L7.385,1.525 C7.15205824,1.28262024 6.8356954,1.13784403 6.5,1.12 Z M6.61,1.655 C6.96977238,1.63452578 7.30567194,1.83546556 7.45777039,2.16214802 C7.60986883,2.48883047 7.54742665,2.87523218 7.30017377,3.13737981 C7.0529209,3.39952744 6.67082781,3.48444023 6.33581644,3.35168956 C6.00080506,3.21893889 5.78058211,2.89535402 5.78,2.535 C5.7659573,2.06460966 6.13468256,1.67130271 6.605,1.655 L6.61,1.655 Z" id="path3015"></path>
                            <path d="M22.865,1.12 C22.123277,1.14179604 21.53819,1.75814723 21.555,2.5 C21.5489166,3.24870896 22.1369631,3.86770527 22.885,3.9 C23.2049529,3.87931173 23.5098586,3.75664852 23.755,3.55 L23.755,3.82 L24.315,3.82 L24.315,1.195 L23.755,1.195 L23.755,1.525 C23.5216255,1.27962487 23.2031592,1.13291568 22.865,1.115 L22.865,1.12 Z M22.975,1.655 C23.3347724,1.63452578 23.6706719,1.83546556 23.8227704,2.16214802 C23.9748688,2.48883047 23.9124266,2.87523218 23.6651738,3.13737981 C23.4179209,3.39952744 23.0358278,3.48444023 22.7008164,3.35168956 C22.3658051,3.21893889 22.1455821,2.89535402 22.145,2.535 C22.1382718,2.30821303 22.2219602,2.08805109 22.3776358,1.92299744 C22.5333114,1.75794379 22.7482074,1.66153433 22.975,1.655 Z" id="path3020"></path>
                            <path d="M28.255,1.12 C27.5152496,1.14447995 26.9331472,1.76003659 26.95,2.5 C26.9439166,3.24870896 27.5319631,3.86770527 28.28,3.9 C28.5999529,3.87931173 28.9048586,3.75664852 29.15,3.55 L29.15,3.82 L29.71,3.82 L29.71,0.155 L29.145,0.155 L29.145,1.53 C28.9116255,1.28462487 28.5931592,1.13791568 28.255,1.12 Z M28.365,1.655 C28.7247724,1.63452578 29.0606719,1.83546556 29.2127704,2.16214802 C29.3648688,2.48883047 29.3024266,2.87523218 29.0551738,3.13737981 C28.8079209,3.39952744 28.4258278,3.48444023 28.0908164,3.35168956 C27.7558051,3.21893889 27.5355821,2.89535402 27.535,2.535 C27.5282718,2.30821303 27.6119602,2.08805109 27.7676358,1.92299744 C27.9233114,1.75794379 28.1382074,1.66153433 28.365,1.655 Z" id="path3022"></path>
                            <path d="M9.66,3.92 C9.26243106,3.89950384 8.87678425,3.77726757 8.54,3.565 L8.785,3.19 C9.05989854,3.31533684 9.35407585,3.39310785 9.655,3.42 C9.89,3.42 10.29,3.345 10.29,3.11 C10.29,2.875 9.625,2.79 9.625,2.79 C9.625,2.79 8.625,2.79 8.625,1.96 C8.625,1.46 9.125,1.12 9.765,1.12 C10.1326013,1.17191105 10.4900809,1.27982942 10.825,1.44 L10.545,1.87 C10.2832044,1.76405338 10.0095478,1.69018288 9.73,1.65 C9.49,1.65 9.205,1.755 9.205,1.96 C9.205,2.52 10.87,1.915 10.87,3.045 C10.87,3.785 10.19,3.92 9.65,3.92 L9.66,3.92 Z" id="path3024"></path>
                            <path d="M11.805,0.435 L11.805,1.2 L11.305,1.2 L11.305,1.755 L11.805,1.755 L11.805,3.08 C11.7924357,3.32724014 11.8876503,3.56778914 12.0660255,3.7394512 C12.2444006,3.91111327 12.4884234,3.99703476 12.735,3.975 C13.0070937,3.94340009 13.2741666,3.87789164 13.53,3.78 L13.305,3.205 C13.1785399,3.30758317 13.0226458,3.36713824 12.86,3.375 C12.41,3.375 12.425,3.08 12.425,3.08 L12.425,1.755 L13.35,1.755 L13.35,1.2 L12.42,1.2 L12.42,0.435 L11.805,0.435 Z" id="path3026"></path>
                            <path d="M15.18,1.15 C14.4040399,1.16518785 13.7873122,1.80653994 13.8025,2.5825 C13.8176879,3.35846006 14.4590399,3.97518781 15.235,3.96 C15.6029231,3.91076231 15.9559265,3.78286253 16.27,3.585 L16.01,3.135 C15.7802879,3.29553649 15.5136713,3.39530273 15.235,3.425 C14.8291183,3.43663661 14.4867239,3.12516816 14.46,2.72 L16.405,2.72 C16.405,2.72 16.555,1.15 15.18,1.15 Z M15.095,1.65 L15.165,1.65 C15.3419369,1.63741994 15.5160702,1.69942166 15.6452409,1.82099407 C15.7744116,1.94256648 15.8468434,2.11262605 15.845,2.29 L14.465,2.29 C14.4635494,2.12250096 14.5304834,1.96165719 14.6503346,1.84463706 C14.7701859,1.72761694 14.9325835,1.66454639 15.1,1.67 L15.095,1.65 Z" id="path3034"></path>
                            <path d="M20.97,3.13 L21.23,3.63 C20.9638041,3.79134702 20.6610265,3.88252438 20.35,3.895 C19.9640386,3.9168286 19.5858603,3.78035598 19.30278,3.51709135 C19.0196998,3.25382671 18.8561892,2.88652864 18.85,2.5 C18.836233,2.1224182 18.9837103,1.75680142 19.2556058,1.49444604 C19.5275014,1.23209067 19.8981505,1.09776106 20.275,1.125 C20.6200141,1.13753247 20.955909,1.23916221 21.25,1.42 L20.955,1.92 C20.7180958,1.64740988 20.3354654,1.55306994 19.9989988,1.6842919 C19.6625323,1.81551386 19.4448019,2.14399453 19.455,2.505 C19.4398922,2.72792867 19.5169731,2.94728342 19.6682137,3.11175752 C19.8194543,3.27623162 20.031589,3.37139895 20.255,3.375 C20.5106141,3.35823959 20.7541572,3.2601215 20.95,3.095 L20.97,3.13 Z" id="path3037"></path>
                        </g>
                    </g>
                </g>
            </g>
        </g>
    </g>
</svg>