<svg width="56" height="12" viewBox="0 0 56 12" fill="none" xmlns="http://www.w3.org/2000/svg">
<g style="mix-blend-mode:luminosity">
<path fill-rule="evenodd" clip-rule="evenodd" d="M1.12 8.98047L2.64999 5.54004H3.45001V9H4.41501V0H2.97C1.55499 0 0.359985 0.94043 0.359985 2.8252C0.359985 4.16992 0.890015 4.90039 1.67999 5.2998L0 8.98047H1.12ZM2.95499 0.820312H3.45499L3.44 4.74023H2.94C2.095 4.74023 1.42499 4.32031 1.42499 2.82031C1.42499 1.32031 2.17499 0.820312 2.95499 0.820312Z" transform="translate(0.5 0.759766)" fill="#DA0100"/>
<path fill-rule="evenodd" clip-rule="evenodd" d="M11.16 6.5C9.85498 6.5 9.04999 5.45996 9.04999 3.5C9.04999 1.46484 9.61499 0 10.96 0C12.015 0 12.705 0.790039 12.705 2.94043V3.48047H10.065C10.065 4.91016 10.465 5.66504 11.245 5.66504C11.6937 5.6543 12.1282 5.50586 12.49 5.24023L12.715 5.99512C12.2665 6.33398 11.717 6.51172 11.16 6.5ZM3.42499 0.0849609V6.41016H2.45499V3.5752H1V6.41016H0V0.0849609H1V2.76953H2.45499V0.0849609H3.42499ZM8.45499 7.66992H7.57999V6.41016H4.845V7.66992H3.98999V5.61035H4.38C4.95499 4.26465 5.01999 2.30957 5.01999 0.610352V0.0849609H7.95999V5.58496H8.45999L8.45499 7.66992ZM5.89499 0.875H6.98999L6.98499 5.61035H5.30499C5.82999 4.26465 5.89499 2.32031 5.89499 0.990234V0.875ZM11.695 2.66992H10.075C10.14 1.54004 10.39 0.799805 10.955 0.799805C11.52 0.799805 11.695 1.58984 11.695 2.66992ZM14.685 3.25977V6.41016H13.685V0.0849609H14.685V3.00977L16.185 0.0849609H17.185L15.615 3.08496L17.41 6.43457H16.345L14.685 3.25977ZM19.79 0.00976562C18.31 0.00976562 17.545 1.25977 17.545 3.25C17.545 5.40527 18.345 6.5 19.74 6.53516C20.2276 6.54297 20.6997 6.36426 21.06 6.03516L20.835 5.30566C20.5396 5.56055 20.1607 5.69922 19.77 5.69531C18.975 5.69531 18.6 4.79004 18.6 3.19531C18.6 1.60059 19.1 0.810547 19.805 0.810547C20.1922 0.832031 20.5597 0.987305 20.845 1.25L20.96 0.334961C20.6131 0.108398 20.2043 -0.00488281 19.79 0.00976562Z" transform="translate(6.155 3.33008)" fill="white"/>
<path fill-rule="evenodd" clip-rule="evenodd" d="M0.589996 8.96484H4.44L4.5 10.4502H5V8.4502H4.38501V0H1.245C1.20999 2.5 1.17001 4.53516 1.04501 5.81543C0.920013 7.09473 0.704987 8.09961 0.265015 8.46484H0V10.4648H0.5L0.589996 8.96484ZM1.83002 0.504883H3.77499V8.45508H0.975006C1.315 8.04004 1.53 7.10449 1.63 5.80469C1.73001 4.50488 1.79001 2.77441 1.83002 0.504883Z" transform="translate(29.41 0.774414)" fill="white"/>
<path fill-rule="evenodd" clip-rule="evenodd" d="M3.26999 5.36523C2.97473 5.78125 2.50012 6.0332 1.98999 6.04492C1.07001 6.04492 0.619995 5.10547 0.595001 3.375H3.45999C3.66 1.125 2.91 0 1.845 0C0.779999 0 0 1.21973 0 3.29004C0 5.36035 0.61499 6.58008 1.95999 6.58008C2.54562 6.5957 3.10327 6.33008 3.45999 5.86523L3.26999 5.36523ZM2.90997 2.90918H0.609985C0.659973 1.32422 1.22998 0.474609 1.87 0.474609C2.50998 0.474609 3.00998 1.22949 2.90997 2.90918Z" transform="translate(35.04 3.30469)" fill="white"/>
<path d="M2.75 3.275H0.59V6.325H0V0H0.59V2.8H2.75V0H3.34V6.325H2.75V3.275Z" transform="translate(39.615 3.41504)" fill="white"/>
<path fill-rule="evenodd" clip-rule="evenodd" d="M0.589996 0H0L0.0549927 6.32031H1.05499C1.59872 6.36816 2.13577 6.17285 2.52176 5.78711C2.90771 5.40039 3.10297 4.86328 3.05499 4.32031C3.05499 3.00488 2.26001 2.34961 1.05499 2.34961H0.589996V0ZM0.589996 5.85938V2.80957L1.035 2.8291C1.94 2.8291 2.465 3.23926 2.465 4.3291C2.465 5.41992 1.85501 5.85938 0.964996 5.85938H0.589996Z" transform="translate(44.35 3.41504)" fill="white"/>
<path d="M0.575 0.49V6.325H0V0H2.675V0.5L0.575 0.49Z" transform="translate(48.425 3.41504)" fill="white"/>
<path d="M2.89 1.92C2.89212 1.63101 2.90881 1.34231 2.94 1.055H2.9C2.80826 1.33518 2.69457 1.60769 2.56 1.87L0.5 6.325H0V0H0.55V4.395C0.55 4.735 0.525 5.01 0.5 5.285H0.54C0.634791 4.99785 0.748369 4.71724 0.88 4.445L2.955 0H3.455V6.325H2.89V1.92Z" transform="translate(52.045 3.41504)" fill="white"/>
</g>
</svg>
