<svg width="33" height="26" viewBox="0 0 33 26" fill="none" xmlns="http://www.w3.org/2000/svg">
<g style="mix-blend-mode:luminosity">
<path d="M20.0999 9.96513C20.1344 14.0375 17.7077 17.7281 13.9552 19.3105C10.2026 20.8929 5.86605 20.0541 2.97412 17.1867C0.0821929 14.3192 -0.793337 9.98992 0.7571 6.22405C2.30754 2.45817 5.97739 0.000271144 10.0499 0.000125481C12.7047 -0.0131646 15.2558 1.02973 17.141 2.89897C19.0262 4.7682 20.0907 7.31034 20.0999 9.96513Z" transform="translate(12.6901 0.469727)" fill="#DF9B2F"/>
<path d="M20.0999 9.96513C20.1344 14.0375 17.7077 17.7281 13.9552 19.3105C10.2026 20.8929 5.86605 20.0541 2.97412 17.1867C0.0821929 14.3192 -0.793337 9.98992 0.7571 6.22405C2.30754 2.45817 5.97739 0.000271144 10.0499 0.000125481C12.7047 -0.0131646 15.2558 1.02973 17.141 2.89897C19.0262 4.7682 20.0907 7.31034 20.0999 9.96513Z" transform="translate(0.290039 0.469727)" fill="#C50120"/>
<path d="M3.85173 0C1.42242 1.87758 0 4.77468 0 7.845C0 10.9153 1.42242 13.8124 3.85173 15.69C6.28105 13.8124 7.70347 10.9153 7.70347 7.845C7.70347 4.77468 6.28105 1.87758 3.85173 0V0Z" transform="translate(12.6882 2.59473)" fill="#DC5F17"/>
<path d="M0.57 2.71709H0V0.0820899H0.545V0.38709C0.771824 0.197382 1.04114 0.0652996 1.33 0.00208991C1.69027 0.028382 2.02097 0.21109 2.235 0.50209C2.42686 0.19193 2.7653 0.00285712 3.13 0.00208991C3.64085 -0.0307756 4.09403 0.327454 4.18 0.83209V2.69209H3.645V1.06709C3.64775 0.916251 3.58225 0.772234 3.46675 0.675177C3.35126 0.57812 3.19811 0.538401 3.05 0.56709C2.72961 0.53046 2.43606 0.749527 2.38 1.06709V2.70709H1.81V1.05709C1.77236 0.771015 1.52854 0.557134 1.24 0.55709C0.57 0.55709 0.56 1.08709 0.56 1.08709L0.57 2.71709Z" transform="translate(1.95496 22.6133)" fill="white"/>
<path d="M1.34 0C1.05114 0.0632097 0.781824 0.195292 0.555 0.385V0.065H0V2.7H0.57V1.05C0.57 1.05 0.57 0.52 1.25 0.52C1.35334 0.517543 1.45538 0.543484 1.545 0.595L1.73 0.095C1.60745 0.0381863 1.47495 0.00591276 1.34 0V0Z" transform="translate(18.53 22.6299)" fill="white"/>
<path d="M1.345 0C1.05614 0.0632097 0.786824 0.195292 0.56 0.385V0.065H0V2.7H0.57V1.05C0.57 1.05 0.57 0.52 1.25 0.52C1.35334 0.517543 1.45538 0.543484 1.545 0.595L1.73 0.095C1.60796 0.0439757 1.47727 0.016819 1.345 0.015V0Z" transform="translate(26.5599 22.6299)" fill="white"/>
<path fill-rule="evenodd" clip-rule="evenodd" d="M0.000350537 1.37988C-0.0164341 0.636719 0.57164 0.0195312 1.31535 0C1.65105 0.0175781 1.96739 0.163086 2.20036 0.405273V0.0751953H2.74535V2.71484H2.18535V2.44531C1.94017 2.65137 1.6353 2.77441 1.31535 2.79492C0.567306 2.75488 -0.0142369 2.12891 0.000350537 1.37988ZM2.27312 1.04199C2.42522 1.36816 2.36278 1.75488 2.11552 2.0166L2.27312 1.04199ZM2.11552 2.0166C1.86827 2.2793 1.48619 2.36426 1.15117 2.23145L2.11552 2.0166ZM1.15117 2.23145C0.816146 2.09863 0.595932 1.77539 0.595321 1.41504L1.15117 2.23145ZM0.595321 1.41504C0.581283 0.944336 0.949997 0.550781 1.42534 0.53418L0.595321 1.41504Z" transform="translate(6.68463 22.6201)" fill="white"/>
<path fill-rule="evenodd" clip-rule="evenodd" d="M0.000354815 1.37988C-0.0164909 0.638672 0.568592 0.0214844 1.31035 0C1.64849 0.0126953 1.96697 0.160156 2.20037 0.405273V0.0751953H2.76036V2.7002H2.20037V2.42969C1.95519 2.63672 1.65032 2.75977 1.33037 2.78027C0.582325 2.74805 -0.0057487 2.12891 0.000354815 1.37988ZM2.26812 1.04199C2.11602 0.714844 1.78008 0.513672 1.42034 0.53418C1.19353 0.541016 0.978626 0.637695 0.822987 0.802734C0.667286 0.967773 0.583607 1.1875 0.590321 1.41504C0.590931 1.77539 0.811146 2.09863 1.14617 2.23145C1.48113 2.36426 1.86327 2.2793 2.11052 2.0166C2.35778 1.75488 2.42022 1.36816 2.26812 1.04199Z" transform="translate(23.0546 22.6201)" fill="white"/>
<path fill-rule="evenodd" clip-rule="evenodd" d="M0.000356588 2.34473C-0.0164891 1.60547 0.565603 0.989258 1.30535 0.964844C1.64348 0.983398 1.96197 1.12988 2.19536 1.375V0H2.76037V3.66504H2.20037V3.39453C1.95519 3.60156 1.65032 3.72461 1.33037 3.74512C0.582327 3.71289 -0.00574693 3.09375 0.000356588 2.34473ZM2.26311 2.00781C2.11101 1.68066 1.77508 1.47949 1.41533 1.5C1.18853 1.50684 0.973623 1.60352 0.817984 1.76855C0.662283 1.93359 0.578604 2.15332 0.585318 2.38086C0.585928 2.74121 0.806143 3.06445 1.14116 3.19727C1.47613 3.33008 1.85827 3.24512 2.10552 2.98242C2.35277 2.7207 2.41521 2.33398 2.26311 2.00781Z" transform="translate(28.4496 21.6553)" fill="white"/>
<path d="M1.12 2.8C0.722431 2.7795 0.336784 2.65727 0 2.445L0.245 2.07C0.519899 2.19534 0.814076 2.27311 1.115 2.3C1.35 2.3 1.75 2.225 1.75 1.99C1.75 1.755 1.085 1.67 1.085 1.67C1.085 1.67 0.085 1.67 0.085 0.84C0.085 0.34 0.585 0 1.225 0C1.5926 0.051911 1.95008 0.159829 2.285 0.32L2.005 0.75C1.7432 0.644053 1.46955 0.570183 1.19 0.53C0.95 0.53 0.665 0.635 0.665 0.84C0.665 1.4 2.33 0.795 2.33 1.925C2.33 2.665 1.65 2.8 1.11 2.8H1.12Z" transform="translate(10.04 22.6201)" fill="white"/>
<path d="M0.5 0V0.765H0V1.32H0.5V2.645C0.487436 2.89224 0.58265 3.13279 0.761025 3.30445C0.939401 3.47611 1.18342 3.56203 1.43 3.54C1.70209 3.5084 1.96917 3.44289 2.225 3.345L2 2.77C1.87354 2.87258 1.71765 2.93214 1.555 2.94C1.105 2.94 1.12 2.645 1.12 2.645V1.32H2.045V0.765H1.115V0H0.5Z" transform="translate(12.8049 21.9355)" fill="white"/>
<path fill-rule="evenodd" clip-rule="evenodd" d="M0.000272787 1.43262C-0.0148639 0.65625 0.601835 0.015625 1.37778 0C2.75278 0 2.60281 1.57031 2.60281 1.57031H0.657805C0.684538 1.97559 1.02695 2.28711 1.43283 2.27539C1.71145 2.24512 1.97812 2.14551 2.20779 1.98535L2.4678 2.43457C2.15372 2.63281 1.80075 2.76074 1.43283 2.80957C0.656828 2.8252 0.0154705 2.20801 0.000272787 1.43262ZM1.36282 0.5H1.29281L1.29782 0.519531C1.1304 0.514648 0.968046 0.577148 0.848173 0.694336C0.7283 0.811523 0.661406 0.97168 0.662809 1.13965H2.04281C2.04471 0.961914 1.97226 0.791992 1.84305 0.670898C1.7139 0.548828 1.53976 0.487305 1.36282 0.5Z" transform="translate(15.3022 22.6504)" fill="white"/>
<path d="M2.12088 2.00846L2.38088 2.50846C2.11469 2.66981 1.81191 2.76099 1.50088 2.77346C1.11492 2.79529 0.736745 2.65882 0.453664 2.39556C0.170584 2.13229 0.00707362 1.76499 0.000884448 1.37846C-0.0128825 1.00088 0.134595 0.635266 0.40649 0.372911C0.678386 0.110555 1.04903 -0.0237744 1.42588 0.00346453C1.7709 0.015997 2.10679 0.117627 2.40088 0.298465L2.10588 0.798465C1.86898 0.525874 1.48635 0.431534 1.14988 0.562756C0.813417 0.693978 0.595686 1.02246 0.605884 1.38346C0.590777 1.60639 0.667858 1.82575 0.819098 1.99022C0.970339 2.1547 1.18247 2.24986 1.40588 2.25346C1.6615 2.2367 1.90504 2.13859 2.10088 1.97346L2.12088 2.00846Z" transform="translate(20.3491 22.6221)" fill="white"/>
</g>
</svg>
