<?xml version="1.0" encoding="UTF-8" standalone="no"?>
<svg width="56px" height="12px" viewBox="0 0 56 12" version="1.1" xmlns="http://www.w3.org/2000/svg" xmlns:xlink="http://www.w3.org/1999/xlink">
    <!-- Generator: Sketch 49.2 (51160) - http://www.bohemiancoding.com/sketch -->
    <title>method15 copy</title>
    <desc>Created with Sketch.</desc>
    <defs></defs>
    <g id="Symbols" stroke="none" stroke-width="1" fill="none" fill-rule="evenodd">
        <g id="футер-1" transform="translate(-370.000000, -1255.000000)" fill-rule="nonzero">
            <g id="футер">
                <g id="Group-2" transform="translate(370.000000, 1248.000000)">
                    <g id="method15-copy" transform="translate(0.000000, 7.000000)">
                        <path d="M3.15,6.3 L1.62,9.74 L0.5,9.74 L2.18,6.06 C1.39,5.66 0.86,4.93 0.86,3.585 C0.86,1.7 2.055,0.76 3.47,0.76 L4.915,0.76 L4.915,9.76 L3.95,9.76 L3.95,6.3 L3.15,6.3 Z M3.955,1.58 L3.455,1.58 C2.675,1.58 1.925,2.08 1.925,3.58 C1.925,5.08 2.595,5.5 3.44,5.5 L3.94,5.5 L3.955,1.58 Z" id="Shape" fill="#34434B"></path>
                        <path d="M9.58,3.415 L9.58,9.74 L8.61,9.74 L8.61,6.905 L7.155,6.905 L7.155,9.74 L6.155,9.74 L6.155,3.415 L7.155,3.415 L7.155,6.1 L8.61,6.1 L8.61,3.415 L9.58,3.415 Z M14.61,11 L13.735,11 L13.735,9.74 L11,9.74 L11,11 L10.145,11 L10.145,8.94 L10.535,8.94 C11.11,7.595 11.175,5.64 11.175,3.94 L11.175,3.415 L14.115,3.415 L14.115,8.915 L14.615,8.915 L14.61,11 Z M13.145,4.205 L12.05,4.205 L12.05,4.32 C12.05,5.65 11.985,7.595 11.46,8.94 L13.14,8.94 L13.145,4.205 Z M17.315,9.83 C16.01,9.83 15.205,8.79 15.205,6.83 C15.205,4.795 15.77,3.33 17.115,3.33 C18.17,3.33 18.86,4.12 18.86,6.27 L18.86,6.81 L16.22,6.81 C16.22,8.24 16.62,8.995 17.4,8.995 C17.8486912,8.98395211 18.2832116,8.83562183 18.645,8.57 L18.87,9.325 C18.4215605,9.66392486 17.8719858,9.84183202 17.31,9.83 L17.315,9.83 Z M16.23,6 L17.85,6 C17.85,4.92 17.675,4.13 17.11,4.13 C16.545,4.13 16.295,4.87 16.23,6 Z M20.84,6.59 L20.84,9.74 L19.84,9.74 L19.84,3.415 L20.84,3.415 L20.84,6.34 L22.34,3.415 L23.34,3.415 L21.77,6.415 L23.565,9.765 L22.5,9.765 L20.84,6.59 Z M23.7,6.59 C23.7,4.59 24.465,3.34 25.945,3.34 C26.3592571,3.32445986 26.768107,3.43802926 27.115,3.665 L27,4.58 C26.7147139,4.3173745 26.3471462,4.16186508 25.96,4.14 C25.255,4.14 24.755,4.93 24.755,6.525 C24.755,8.12 25.13,9.025 25.925,9.025 C26.3157119,9.02940315 26.6945302,8.89068099 26.99,8.635 L27.215,9.365 C26.8547153,9.69366166 26.382614,9.87248791 25.895,9.865 C24.5,9.83 23.7,8.735 23.7,6.58 L23.7,6.59 Z" id="Shape" fill="#FFFFFF"></path>
                        <path d="M33.85,9.74 L30,9.74 L29.91,11.24 L29.41,11.24 L29.41,9.24 L29.675,9.24 C30.115,8.875 30.33,7.87 30.455,6.59 C30.58,5.31 30.62,3.275 30.655,0.775 L33.795,0.775 L33.795,9.225 L34.41,9.225 L34.41,11.225 L33.91,11.225 L33.85,9.74 Z M33.185,1.28 L31.24,1.28 C31.2,3.55 31.14,5.28 31.04,6.58 C30.94,7.88 30.725,8.815 30.385,9.23 L33.185,9.23 L33.185,1.28 Z" id="Shape" fill="#FFFFFF"></path>
                        <path d="M37.03,9.35 C37.5401328,9.33827265 38.0147167,9.08614993 38.31,8.67 L38.5,9.17 C38.1432667,9.63468774 37.585622,9.90049837 37,9.885 C35.655,9.885 35.04,8.665 35.04,6.595 C35.04,4.525 35.82,3.305 36.885,3.305 C37.95,3.305 38.7,4.43 38.5,6.68 L35.635,6.68 C35.66,8.41 36.11,9.35 37.03,9.35 Z M35.65,6.215 L37.95,6.215 C38.05,4.535 37.55,3.78 36.91,3.78 C36.27,3.78 35.7,4.63 35.65,6.215 Z" id="Shape" fill="#FFFFFF"></path>
                        <polygon id="Shape" fill="#FFFFFF" points="42.365 6.69 40.205 6.69 40.205 9.74 39.615 9.74 39.615 3.415 40.205 3.415 40.205 6.215 42.365 6.215 42.365 3.415 42.955 3.415 42.955 9.74 42.365 9.74"></polygon>
                        <path d="M44.35,3.415 L44.94,3.415 L44.94,5.765 L45.405,5.765 C46.61,5.765 47.405,6.42 47.405,7.735 C47.4529681,8.27872604 47.2577158,8.81578451 46.8717501,9.20175015 C46.4857845,9.58771578 45.948726,9.78296809 45.405,9.735 L44.405,9.735 L44.35,3.415 Z M44.94,6.225 L44.94,9.275 L45.315,9.275 C46.205,9.275 46.815,8.835 46.815,7.745 C46.815,6.655 46.29,6.245 45.385,6.245 L44.94,6.225 Z" id="Shape" fill="#FFFFFF"></path>
                        <polygon id="Shape" fill="#FFFFFF" points="49 3.905 49 9.74 48.425 9.74 48.425 3.415 51.1 3.415 51.1 3.915"></polygon>
                        <path d="M54.935,5.335 C54.9371222,5.04600971 54.95381,4.75731007 54.985,4.47 L54.945,4.47 C54.8532576,4.75017847 54.7395722,5.02268918 54.605,5.285 L52.545,9.74 L52.045,9.74 L52.045,3.415 L52.595,3.415 L52.595,7.81 C52.595,8.15 52.57,8.425 52.545,8.7 L52.585,8.7 C52.6797908,8.41284726 52.7933694,8.13224138 52.925,7.86 L55,3.415 L55.5,3.415 L55.5,9.74 L54.935,9.74 L54.935,5.335 Z" id="Shape" fill="#FFFFFF"></path>
                    </g>
                </g>
            </g>
        </g>
    </g>
</svg>