<svg width="13" height="16" viewBox="0 0 13 16" fill="none" xmlns="http://www.w3.org/2000/svg">
<path fill-rule="evenodd" clip-rule="evenodd" d="M3.29994 5.21078C2.24647 5.21078 1.3894 4.3537 1.3894 3.30023C1.3894 2.24676 2.24647 1.38965 3.29994 1.38965C4.35341 1.38965 5.21048 2.24676 5.21048 3.30023C5.21048 4.3537 4.35341 5.21078 3.29994 5.21078ZM3.3 0C1.48039 0 0 1.4804 0 3.30002C0 5.11964 1.48039 6.6 3.3 6.6C5.11961 6.6 6.6 5.11964 6.6 3.30002C6.6 1.4804 5.11965 0 3.3 0Z" transform="translate(3.19995 3.2002)" fill="#1EACF6"/>
<mask id="mask0" mask-type="alpha" maskUnits="userSpaceOnUse" x="0" y="0" width="13" height="16">
<path fill-rule="evenodd" clip-rule="evenodd" d="M0 0H12.776V16H0V0Z" fill="white"/>
</mask>
<g mask="url(#mask0)">
<path fill-rule="evenodd" clip-rule="evenodd" d="M11.5295 6.58683C11.5295 9.60761 7.65054 13.2643 6.38792 14.3744C5.12496 13.264 1.24634 9.60739 1.24634 6.58683V6.40964C1.24634 3.56489 3.55286 1.25049 6.38792 1.25049C9.22298 1.25049 11.5295 3.56489 11.5295 6.40964V6.58683ZM6.38801 0C2.86564 0 0 2.87547 0 6.40984V6.58703C0 8.37453 1.02132 10.4575 3.03569 12.7781C4.49595 14.4603 5.93581 15.6333 5.99635 15.6824L6.38801 16L6.77967 15.6825C6.84028 15.6333 8.2801 14.4603 9.74033 12.7781C11.7547 10.4575 12.776 8.37456 12.776 6.58706V6.40987C12.776 2.87547 9.91038 0 6.38801 0Z" fill="#1EACF6"/>
</g>
</svg>
