<?xml version="1.0" encoding="UTF-8"?>
<!DOCTYPE svg PUBLIC "-//W3C//DTD SVG 1.1//EN" "http://www.w3.org/Graphics/SVG/1.1/DTD/svg11.dtd">
<!-- Creator: CorelDRAW 2018 (64-Bit) -->
<svg xmlns="http://www.w3.org/2000/svg" xml:space="preserve" width="170mm" height="167.566mm" version="1.1" style="shape-rendering:geometricPrecision; text-rendering:geometricPrecision; image-rendering:optimizeQuality; fill-rule:evenodd; clip-rule:evenodd"
viewBox="0 0 1271.88 1253.66"
 xmlns:xlink="http://www.w3.org/1999/xlink">
 <defs>
  <style type="text/css">
   <![CDATA[
    .fil0 {fill:#FEFEFE}
   ]]>
  </style>
 </defs>
 <g id="Слой_x0020_1">
  <metadata id="CorelCorpID_0Corel-Layer"/>
  <path class="fil0" d="M434.92 736.77c3.07,0.4 6.25,1.5 9.52,1.12 127.24,-14.91 226.02,-27.03 307.61,-40.31 -2.21,-1.87 -4.35,-3.9 -6.43,-6.11 -18.35,-19.51 -24.86,-46.19 -28.52,-71.95 -0.87,-6.16 -1.52,-12.39 -2.21,-18.63 -26.68,1.7 -45.18,-0.44 -46.18,-6.34 -1.02,-5.95 15.98,-14.19 42.05,-21.48 -3.77,-17.52 -8.3,-34.82 -10.58,-52.63 -2.06,-16.1 -2.13,-32.79 3.65,-47.85 -92.07,14.02 -182.6,17.45 -268.9,19.68l0 7.74c4.58,0.68 9.26,1.29 13.64,1.53 18.13,1 34.95,2.69 50.6,12.43 25.54,15.88 31.1,43.54 28.5,70.45 -1.71,17.68 0.33,34.18 2.28,51.69 1.96,17.57 3.52,35.9 -5.18,52.24 -5.78,10.87 -15.01,18.81 -26.41,24.36 -19.62,9.56 -41.14,15.5 -63.43,18.77l0 5.29zm595.85 -115.61c70.82,-31.86 139.86,-75.01 230.71,-137.82 -6.51,4.02 -14.24,5.76 -21.84,5.01 -28.19,-2.79 -55.46,-37.71 -69.5,-58.43 -18.22,-26.9 -50.24,-45.44 -38.7,-82.92 2.53,-8.22 4.21,-16.3 6.49,-24.49 2.29,-8.26 5.65,-15.73 9.6,-23.4 1.92,-3.72 1.88,-4.6 1.88,-8.57 -0,-2.71 0.14,-5.26 0.43,-7.7 -67.36,54.26 -136.23,94.12 -205.52,123.54 0.24,0.59 0.46,1.19 0.67,1.81 5.2,15.66 -3.31,32.63 -18.97,37.83 -29.18,9.69 -58.53,18.89 -88.04,27.54 -24.01,7.04 -48.23,14.18 -72.88,18.63 -1.11,0.2 -4.2,0.86 -5.3,1.64 -1.86,3.64 -0.72,15.3 -0.24,19.01 2.08,16.24 6.43,32.29 9.87,48.29 41.69,-5.78 74.34,-4.6 75.69,3.29 1.36,7.94 -29.4,19.97 -70.98,28.37 0.69,6.11 1.37,12.22 2.24,18.32 1.6,11.26 4.8,30.79 12.85,39.35 8.89,9.45 29.62,5.26 40.59,2.47 55.7,-14.13 111.26,-28.93 166.25,-45.63 13.62,-4.14 27.96,1.96 34.72,13.85zm-595.85 -97.43c5.06,0.67 9.24,1.13 12.17,1.29 22.52,1.24 60.94,2.49 55.64,57.26 -5.3,54.77 19.87,92.12 -15.9,109.55 -14.08,6.86 -31.2,12.42 -51.91,15.8l0 -183.9zm-207.35 -191.58c0.31,-7.06 0.32,-14.42 -0.05,-22.18 -22.19,-464.75 155.75,-222.86 580.23,-307.48 63.51,-12.66 83.46,26.14 139.1,43.57 55.64,17.43 34.44,27.39 119.22,59.75 84.78,32.37 165.59,11.2 176.19,70.96 10.6,59.75 21.79,108.92 25.13,141.29 3.35,32.37 8.16,85.19 0,103.95 -8.16,18.75 -12.55,44.19 -25.13,42.95 -12.59,-1.24 -33.12,-21.27 -51,-47.67 -17.88,-26.4 -43.05,-40.09 -35.77,-63.74 7.29,-23.65 4.64,-24.9 14.57,-44.19 9.93,-19.3 -2.65,-20.54 13.25,-43.57 15.9,-23.03 7.95,-26.76 -8.61,-34.23 -16.56,-7.47 -78.82,-0.62 -124.52,-9.96 -45.7,-9.34 -76.83,-7.47 -145.06,-31.74 -68.22,-24.27 -101.34,-51.04 -184.8,-63.49 -177.76,-26.51 -218.97,-0.81 -398.74,24.9 -60.94,8.71 -38.42,32.37 -51.66,80.92 -6.14,22.51 -12.85,62.13 -18.02,101.27 -8.17,-0.6 -16.3,-1.03 -24.32,-1.29z"/>
  <path class="fil0" d="M412.47 1182.43c0,39.34 -92.34,71.23 -206.24,71.23 -113.9,0 -206.24,-31.89 -206.24,-71.23l0 -756.97c0,-39.34 92.34,-71.23 206.24,-71.23 113.9,0 206.24,31.89 206.24,71.23l0 756.97zm-206.24 -805.75c101.51,0 183.79,21.84 183.79,48.78 0,26.94 -82.29,48.78 -183.79,48.78 -101.51,0 -183.79,-21.84 -183.79,-48.78 0,-26.94 82.29,-48.78 183.79,-48.78z"/>
  <path class="fil0" d="M921.29 431.81c-28.97,9.62 -58.25,18.79 -87.53,27.38 -23.07,6.76 -47.7,13.99 -71.33,18.26 -5.55,1 -11.73,2.99 -15.01,7.92 -4.9,7.38 -3.77,21.06 -2.71,29.35 2.14,16.73 6.69,33.63 10.21,50.15 3.36,15.77 4.36,32.34 6.63,48.33 2.15,15.13 5.93,35.97 16.77,47.5 13.75,14.62 37.8,11.13 55.16,6.73 55.7,-14.13 111.91,-29.11 166.92,-45.82 7.89,-2.39 16.27,2.08 18.67,9.97 2.39,7.89 -2.08,16.27 -9.97,18.67 -55.45,16.84 -112.1,31.94 -168.26,46.19 -29.22,7.41 -62.03,8.46 -84.32,-15.23 -15.94,-16.94 -21.43,-41.46 -24.6,-63.8 -2.16,-15.21 -3.09,-31.35 -6.27,-46.3 -3.71,-17.4 -8.37,-34.94 -10.63,-52.59 -2.14,-16.68 -2.2,-35.18 7.47,-49.72 8.04,-12.1 20.64,-18.28 34.62,-20.8 22.55,-4.07 46.22,-11.08 68.23,-17.53 28.95,-8.49 57.88,-17.55 86.52,-27.06 7.82,-2.6 16.32,1.66 18.92,9.48 2.6,7.82 -1.66,16.32 -9.48,18.92z"/>
 </g>
</svg>
