<?xml version="1.0" encoding="UTF-8"?>
<!DOCTYPE svg PUBLIC "-//W3C//DTD SVG 1.1//EN" "http://www.w3.org/Graphics/SVG/1.1/DTD/svg11.dtd">
<!-- Creator: CorelDRAW 2018 (64-Bit) -->
<svg xmlns="http://www.w3.org/2000/svg" xml:space="preserve" width="175.39mm" height="170mm" version="1.1" style="shape-rendering:geometricPrecision; text-rendering:geometricPrecision; image-rendering:optimizeQuality; fill-rule:evenodd; clip-rule:evenodd"
viewBox="0 0 3706.54 3592.62"
 xmlns:xlink="http://www.w3.org/1999/xlink">
 <defs>
  <style type="text/css">
   <![CDATA[
    .fil0 {fill:#FEFEFE}
   ]]>
  </style>
 </defs>
 <g id="Слой_x0020_1">
  <metadata id="CorelCorpID_0Corel-Layer"/>
  <path class="fil0" d="M2371.98 1786.2c-189.83,192.67 -405.48,390.65 -618.49,541.56 -138.81,-171.78 -232.98,-505.39 -232.98,-888.89 0,-258.27 42.72,-493.9 113.02,-672.73 171.75,-185.32 357.43,-350.22 543.68,-475.6 -44.73,160.79 -70.31,347.03 -70.31,545.57 0,405.22 106.51,759.21 265.07,950.09zm672.75 -197.09c-4.46,3.19 -9.04,6.22 -13.74,9.07 24.62,70.36 60.23,185 76.66,232.51 29.16,84.37 56.88,169.29 84.04,254.32 23.33,73.05 107.7,119.26 181.56,96.84 76.82,-23.32 119.63,-104.03 96.1,-180.74l-19.2 -62.63 -26.67 32.53c-32.08,39.11 -89.88,44.82 -129,12.75 -39.12,-32.07 -45.09,-89.77 -12.98,-128.94l243.66 -297.23 119.54 390.05c53.2,173.6 -44.09,356.69 -217.84,409.55 -83.81,25.5 -172.9,16.87 -250.25,-24.26 -2.24,-1.19 -4.45,-2.43 -6.62,-3.7 -82.93,164.75 -283.75,227.99 -446.35,141.51 -77.45,-41.19 -134.36,-110.13 -160.1,-193.99l-119.75 -390.13 368.86 110.89c48.4,14.55 76.13,65.65 61.56,114.1 -14.55,48.4 -65.79,75.93 -114.19,61.39l-40.26 -12.09 19.14 62.37c22.54,73.44 107.9,118.81 181.39,96.47 76.36,-23.21 119.31,-104.7 96.15,-180.92 -11.17,-36.75 -20.2,-75.01 -28.86,-112.43 -11.76,-50.8 -22.56,-101.87 -32.59,-153.04 -9.79,-49.95 -39.23,-172.41 -52.72,-244.39 -100.93,-7.43 -182.68,-83.8 -198.37,-182.21 -66.48,74.2 -140.62,154.62 -220.1,237.02 -139.8,-171.11 -234.77,-505.98 -234.77,-891.12 0,-231.11 34.21,-444.09 91.77,-614.47 213.66,-125.43 424.66,-193.64 612.82,-175.2 383.65,37.6 301.91,388.15 382.46,285.07 114.81,-146.93 610.93,-528 227.33,219.68 -147.48,287.45 -346.47,419.66 -384.5,408.16 -38.03,-11.5 -6.26,-148.26 1.12,-179.11 -30.1,87.62 -154.91,333.72 -195.04,382.44 -39.47,47.91 -38.28,46.34 -61.78,74.36 118.76,1.46 214.58,98.16 214.58,217.26 0,73.8 -36.8,138.99 -93.04,178.27zm-105.98 -1410.43c60.01,0 108.65,48.64 108.65,108.65 0,60 -48.64,108.65 -108.65,108.65 -60,0 -108.65,-48.64 -108.65,-108.65 0,-60 48.64,-108.65 108.65,-108.65zm-18.27 1146.11c47.52,0 86.05,38.53 86.05,86.05 0,47.52 -38.53,86.05 -86.05,86.05 -47.52,0 -86.05,-38.53 -86.05,-86.05 0,-47.52 38.53,-86.05 86.05,-86.05zm-1841.68 1303.39c-5.53,115.08 -100.58,206.69 -217.03,206.69 -20.1,0 -39.57,-2.74 -58.04,-7.85 -20.33,43.35 -41.85,86.27 -63.59,128.87 -40.58,79.51 -82.55,158.37 -125,236.89 -36.57,67.66 -11.43,160.2 56.1,197.97 33.7,18.85 72.9,23.51 110.05,12.93 37.34,-10.63 67.97,-35.07 86.82,-68.99l31.82 -57.27 -41.93 3.33c-50.31,3.99 -94.63,-33.81 -98.63,-84.13 -4,-50.3 33.55,-94.74 83.92,-98.75l383.13 -30.49 -198.2 356.57c-42.54,76.54 -112.45,132.19 -196.7,156.17 -83.75,23.83 -173.46,13.26 -249.47,-29.19 -76.51,-42.73 -132.03,-112.87 -156.02,-197.15 -0.7,-2.45 -1.34,-4.9 -1.93,-7.35 -84.63,26.11 -176.74,17.57 -255.4,-26.31 -76.61,-42.73 -132.04,-112.85 -156.05,-197.22 -23.93,-84.07 -13.65,-173.45 28.78,-249.87l198.11 -356.79 175.84 342.69c23.15,45.12 5.63,100.29 -39.53,123.47 -45.03,23.11 -100.3,5.3 -123.42,-39.71l-19.2 -37.4 -31.67 57.04c-37.33,67.23 -10.88,160.09 56.24,197.59 69.83,39.02 158.08,13.55 197.04,-56.15 18.74,-33.53 40.05,-66.56 61.01,-98.75 28.46,-43.69 57.77,-86.89 87.69,-129.59 28.65,-40.89 58.08,-82.05 88.73,-121.92 -11.52,-14.34 -21.25,-30.17 -28.87,-47.15 -12.39,-27.32 -19.3,-57.67 -19.3,-89.62 0,-81.62 45.01,-152.72 111.56,-189.86 -30.94,-372.92 270.27,-965.84 684.88,-1461.76 -39.65,153.65 -62.13,328.92 -62.13,515.01 0,394.96 101.2,741.22 253.14,935.24 -196.7,130.13 -388.53,215.01 -552.75,212.78zm-131.98 -23.77c0.66,4.29 1,8.69 1,13.16 0,47.52 -38.53,86.05 -86.05,86.05 -47.52,0 -86.05,-38.53 -86.05,-86.05 0,-37.8 24.38,-69.91 58.27,-81.46 3.51,3.22 7.1,6.35 10.8,9.39 31.7,26.11 65.84,45.49 102.02,58.91z"/>
 </g>
</svg>
