<?xml version="1.0" encoding="UTF-8"?>
<!DOCTYPE svg PUBLIC "-//W3C//DTD SVG 1.1//EN" "http://www.w3.org/Graphics/SVG/1.1/DTD/svg11.dtd">
<!-- Creator: CorelDRAW 2018 (64-Bit) -->
<svg xmlns="http://www.w3.org/2000/svg" xml:space="preserve" width="172.606mm" height="170mm" version="1.1" style="shape-rendering:geometricPrecision; text-rendering:geometricPrecision; image-rendering:optimizeQuality; fill-rule:evenodd; clip-rule:evenodd"
viewBox="0 0 1230.82 1212.23"
 xmlns:xlink="http://www.w3.org/1999/xlink">
 <defs>
  <style type="text/css">
   <![CDATA[
    .fil0 {fill:#FEFEFE}
   ]]>
  </style>
 </defs>
 <g id="Слой_x0020_1">
  <metadata id="CorelCorpID_0Corel-Layer"/>
  <path class="fil0" d="M157.43 696.56c8.52,3.31 16.01,9.06 22.43,16.81 52.9,60.08 29.57,170.31 29.92,244.43 0.17,34.18 2.11,90.05 26.01,115.8 4.21,4.54 9.01,8.07 14.37,10.62 24.05,11.45 51.97,8.18 75.95,-0.11 177.2,-61.3 246.19,-391.46 335.37,-562.66 -112.94,-14.82 -134.52,-151.9 -87.55,-237.59 69.78,-143.79 145.31,-191.65 262.73,-283.86 -6.33,41.45 -77.79,210.2 -109.48,220.53 -15.67,5.11 -32.56,-5.19 -37.5,-22.85l-2.39 -8.52c-67.92,68.81 -161.3,248.86 1.65,282.96 19.52,-34.82 49.19,-87.63 71.9,-119.81 1.32,-55.18 41.05,-81.9 84.48,-97.24 17.24,-17.1 35.05,-33.97 53.37,-50.28 -16.43,94.3 -20.95,197.77 -11.17,305.46 8.38,92.29 26.57,179.7 52.47,259.46l-0.49 0.67c-27.76,37.35 -57.48,73.11 -88.18,107.45 -33.81,37.82 -69.08,74.14 -105.58,108.69 -49.09,46.47 -101.16,90.65 -155.86,128.67 -45.49,31.62 -97.37,62.33 -149.48,78.19 -124.36,37.86 -239.75,20.24 -346.19,-66.59 -4.76,-3.88 -9.38,-8.03 -13.7,-12.52l-12.59 -13.1c-2.35,-1.13 -4.52,-2.49 -6.55,-4.04 31.25,2.59 63.4,-14.59 83.21,-40.18 30.97,-40 40.74,-57.16 39.83,-118.35 -30.07,101.13 -86.38,147.3 -134.95,128.41 -48.58,-18.9 -64.09,-117.26 -34.27,-219.55 23.62,-81.03 68.49,-140.25 110.36,-151.95 8.47,-4.44 18.94,-4.67 31.89,1.06zm42.61 270.6c5.58,-14.88 9.84,-26.41 9.84,-26.41 -2.96,8.85 -6.24,17.68 -9.84,26.41zm735.57 -793.85c25.64,-20.85 52.15,-40.26 79.36,-57.42 16.76,-10.57 34.08,-20.45 51.85,-28.81 7.29,-3.43 14.89,-6.77 22.51,-9.46 11.71,-15.27 27.77,-25.47 45.68,-29.08 42.82,-8.64 85.4,22.5 94.21,70.97 8.81,48.47 -19.84,93.97 -62.66,102.61 -7.71,1.55 -15.54,1.85 -23.27,0.89 7.23,17.17 14.45,34.89 19.98,52.48 4.13,13.17 8.22,29.3 5.38,43.1 -0.88,4.3 -2.79,9.33 -4.24,13.43 -2.86,8.03 -5.89,16 -8.96,23.93 -9.94,25.62 -20.51,50.99 -31.39,76.11 -31.45,72.62 -66.08,144.47 -104.45,212.67 -18.03,32.06 -37.13,63.76 -57.69,94.03 -21.59,-71.64 -36.88,-149.39 -44.31,-231.14 -10.84,-119.38 -3.67,-233.28 18,-334.31zm207.96 -77.68c-19.68,3.97 -33.43,24.6 -29.34,47.07 4.08,22.47 24.1,36.3 43.77,32.33 19.68,-3.97 33.42,-24.6 29.34,-47.07 -4.08,-22.47 -24.1,-36.3 -43.77,-32.33z"/>
 </g>
</svg>
