<?xml version="1.0" encoding="UTF-8"?>
<!DOCTYPE svg PUBLIC "-//W3C//DTD SVG 1.1//EN" "http://www.w3.org/Graphics/SVG/1.1/DTD/svg11.dtd">
<!-- Creator: CorelDRAW 2018 (64-Bit) -->
<svg xmlns="http://www.w3.org/2000/svg" xml:space="preserve" width="141.262mm" height="170mm" version="1.1" style="shape-rendering:geometricPrecision; text-rendering:geometricPrecision; image-rendering:optimizeQuality; fill-rule:evenodd; clip-rule:evenodd"
viewBox="0 0 2229.18 2682.68"
 xmlns:xlink="http://www.w3.org/1999/xlink">
 <defs>
  <style type="text/css">
   <![CDATA[
    .fil0 {fill:#FEFEFE}
   ]]>
  </style>
 </defs>
 <g id="Слой_x0020_1">
  <metadata id="CorelCorpID_0Corel-Layer"/>
  <path class="fil0" d="M1576.57 1814.58c33.02,-0.19 64.1,-0.38 97.12,-0.6 1.08,13.2 12.86,171.03 14.13,186.51 243.87,-52.42 440.03,-278.45 444.38,-563.94 4.66,-306.52 -215.36,-558.82 -498.81,-595.9 0.47,16.49 8.62,156.24 9.16,174.21 -32.42,2.06 -63.82,4.1 -96.96,6.18 -1.07,-26.83 -12.72,-175.88 -10.24,-200.74 4.34,-42.89 35.22,-88.7 96.28,-81.49 35.71,4.21 71.27,11.59 106.14,20.89 65.53,17.44 126.51,46.89 183.44,84.82 46.52,30.99 88.52,67.64 126.67,109.57 34.28,37.66 63.65,78.87 89.01,123.07 24.12,42.1 43.21,86.71 58.45,133.22 12.47,38.14 20.91,77.25 26.5,116.66 10.02,70.5 10.25,141.19 -1.99,211.95 -8.51,48.89 -19.88,96.62 -37.45,142.69 -20.26,53.24 -46.84,102.84 -79.19,149.18 -32.37,46.44 -69.56,88.5 -111.69,125.23 -43.07,37.47 -90.28,68.99 -141.36,93.78 -49.92,24.24 -101.74,42.56 -155.99,53.3 -63.21,12.56 -103.34,-41.8 -104.05,-87.02 -0.32,-18.39 -12.33,-179.26 -13.54,-201.57z"/>
  <path class="fil0" d="M1276.32 2353.65c-170.09,-153.37 -340.39,-306.84 -509.92,-460.84l-120.13 9.48c-5.52,1.15 -9.97,2.66 -14.48,2.92 -43.15,2.12 -86.35,4.07 -129.5,6.14 -18.03,0.85 -36.1,0.96 -54,2.77 -43.89,4.41 -81.08,-9.46 -113.87,-36.6 -10.75,-8.91 -21.43,-17.96 -32.69,-26.28 -29.92,-22.08 -64.39,-33.21 -101.37,-38.3 -22.32,-3.09 -44.45,-7.55 -66.88,-10.04 -30.27,-3.35 -57.61,-29.74 -60.25,-59.05 -3.47,-38.41 -9.56,-76.62 -15.19,-114.8 -6.78,-45.59 -14.56,-90.97 -21.27,-136.61 -5.16,-35.12 -9,-70.46 -13.98,-105.66 -5.25,-37.01 -11.19,-73.9 -16.77,-110.88 -1.74,-11.71 -3.15,-23.47 -4.95,-35.21 -4.64,-31.08 5.34,-56.41 31.93,-75.15 48.45,-34.1 97.13,-68.01 145.63,-102.17 46.9,-33.03 94.12,-65.73 140.42,-99.62 16.87,-12.36 31.75,-27.4 47.23,-41.52 55.88,-51.06 111.6,-102.25 167.42,-153.39 50.17,-45.93 100.31,-91.93 150.62,-137.78 35.62,-32.48 70.81,-65.45 107.49,-96.81 75.71,-64.84 40.06,-191.81 -63.07,-215.52 -177.43,-107.86 -553.56,-71.47 -493.81,-281.15 6.11,-17.97 40.14,-33.47 62.98,-33.97l1345.94 -3.59c9.68,13.96 52.01,60.58 3.93,94.63l-67.55 45.82c-138.99,31.97 -362.85,147.46 -497.12,187.49 -94.61,28.49 -24.55,177.1 -83.95,270.42 -2.01,3.23 -4.02,6.49 -6.46,9.34 -19.86,23.03 -39.78,46.01 -59.83,68.91 -50.51,57.71 -101.11,115.37 -151.56,173.16 -7.5,8.58 -14.57,17.56 -21.26,26.7 -13.88,18.93 -17.79,40.08 -11.91,62.28 1.6,5.91 7.14,11.57 12.26,15.69 7.39,5.9 15.96,10.42 24.17,15.34 28.08,16.7 41.82,41.7 43.36,72.88 2.81,56.84 2.36,46.84 4.96,103.67 191.6,-146.64 413.08,-152.15 676.76,-146.74 0.51,8.48 0.95,16.94 1.29,25.36 0.41,10.28 4.48,18.97 12.11,25.86 7.63,6.89 16.7,10.05 26.96,9.4 32.41,-2.04 64.81,-4.14 97.22,-6.2 19.8,-1.25 35.05,-18.01 34.45,-37.83 -0.24,-7.8 -0.54,-15.61 -0.9,-23.42 15.66,5.26 24.54,17.98 26.34,38.13 1.78,20.23 2.52,40.62 3.77,60.96 0.17,3.1 0.59,6.22 0.83,8.99 16.76,11.34 33.47,21.56 49.04,33.44 65.43,49.69 107.32,116.44 127.91,198.04 14.94,59.08 14.22,118.79 1.07,177.38 -13.94,62.41 -44.08,116.49 -87.86,161.36 -13.73,14.11 -28.36,27.57 -43.72,39.75 -7.22,5.8 -9.93,11.45 -9.32,20.56 1.59,24.11 2.64,48.27 3.77,72.41 0.55,11.17 -2.01,21.27 -9.17,29.99 -7.51,9.29 -16.7,14.07 -27.98,15.15 -0.86,-11.19 -1.74,-22.38 -2.65,-33.56 -1.57,-19.24 -17.62,-33.93 -36.92,-33.8 -32.44,0.22 -64.88,0.41 -97.32,0.6 -10.45,0.06 -19.41,3.97 -26.57,11.57 -7.16,7.6 -10.52,16.78 -9.96,27.21 0.69,12.82 1.53,25.67 2.43,38.52 -57.02,3.44 -114.07,6.8 -171.09,10.25 -39.86,2.44 -190.02,-1.34 -300.19,-2.78l432.88 437.6c6.05,-0.65 12.11,-1.25 18.17,-1.79 93.07,-8.36 186.01,-7.54 277.81,13.68 36.61,8.4 72.98,19.09 104.47,41.64 13.24,9.53 26.09,20.53 36.58,33.13 21.78,26.28 21.57,63.18 1.04,94.01 -5.91,8.85 -12.98,16.84 -19.52,25.2 -34.17,38.61 -78.03,61.57 -122.55,83.02 -57.04,27.56 -117.21,45.95 -178.48,59.88 -75.85,17.24 -152.67,27.24 -230.47,29.04 -52.99,1.24 -105.93,-0.65 -158.37,-9.5 -51.78,-8.78 -103.32,-19.46 -148.27,-50.25 -13.89,-9.52 -27.52,-21.06 -37.81,-34.56 -22.82,-29.96 -18.57,-67.41 4.72,-99.09 20.29,-27.65 45.37,-49.71 74.06,-67.28 47.33,-28.95 97.21,-50.84 148.86,-68zm-728.71 -736.29c-87.74,-124.28 -137.77,-115.3 -142.23,-221.51 -4.73,-115.29 154.51,-152.45 212.85,-65.41 28.61,42.49 22.05,61.85 31.81,108.15 7.65,35.58 18.28,68.96 45.39,93.6l25.53 -21.33c19.95,-33.49 31.42,-72.61 31.42,-114.42 0,-123.66 -100.25,-223.91 -223.91,-223.91 -123.66,0 -223.91,108.75 -223.91,223.91 0,115.15 95.5,230.2 243.05,220.92zm944.7 782.86c49.75,-2.33 91.97,36.12 94.3,85.87 2.33,49.76 -36.12,91.97 -85.87,94.3 -49.75,2.33 -91.97,-36.12 -94.3,-85.87 -2.33,-49.76 36.12,-91.97 85.87,-94.3z"/>
 </g>
</svg>
