<?xml version="1.0" encoding="UTF-8"?>
<!DOCTYPE svg PUBLIC "-//W3C//DTD SVG 1.1//EN" "http://www.w3.org/Graphics/SVG/1.1/DTD/svg11.dtd">
<!-- Creator: CorelDRAW 2018 (64-Bit) -->
<svg xmlns="http://www.w3.org/2000/svg" xml:space="preserve" width="174.052mm" height="169.134mm" version="1.1" style="shape-rendering:geometricPrecision; text-rendering:geometricPrecision; image-rendering:optimizeQuality; fill-rule:evenodd; clip-rule:evenodd"
viewBox="0 0 2655.81 2580.76"
 xmlns:xlink="http://www.w3.org/1999/xlink">
 <defs>
  <style type="text/css">
   <![CDATA[
    .fil0 {fill:#FEFEFE}
   ]]>
  </style>
 </defs>
 <g id="Слой_x0020_1">
  <metadata id="CorelCorpID_0Corel-Layer"/>
  <path class="fil0" d="M32.05 2279.02l187.23 -187.23c119.71,-119.71 140.14,-326.38 208.22,-491.37l101.32 428.59 -133.18 133.18c-38.57,38.57 -38.57,101.69 0,140.26l73.76 73.76 -167.86 172.28c-42.17,43.28 -112.64,42.73 -155.37,0l-114.12 -114.12c-42.73,-42.73 -42.73,-112.64 0,-155.37zm385.16 -95.24l583.46 -583.46c26.7,-26.7 70.4,-26.7 97.11,0l138.12 138.12c26.7,26.7 26.7,70.4 0,97.11l-499.53 499.53c13.47,6.5 28.92,11.62 41.09,14.43 52.58,12.18 104.97,1.97 152.91,-21.62 49.33,-24.27 99.32,-47.02 148.51,-71.68 61.52,-30.84 122.3,-63.96 179.9,-101.68 89.03,-58.3 195.62,-144.17 229.22,-249.32 69.13,-216.31 -20.25,-408.02 198.65,-563.69 43.93,-31.23 88.93,-59.32 137.01,-83.7 28.73,-14.57 59.13,-27.34 87.11,-43.06 57.25,-32.16 96.61,-82.8 134.1,-135.54 31.93,-44.92 62.2,-91.32 87.94,-140.1 17.14,-32.49 31.42,-65.43 46.18,-98.98 19.47,-44.25 39.83,-84.35 66.06,-125.15 34.53,-53.71 65.05,-113.51 93.67,-170.6 28.27,-56.39 55.77,-113.62 82.27,-171.14l-689.03 707.16c-251.27,-17.83 -503.39,-36.47 -746.5,-53.26 -42.77,-2.96 -90.68,-7.69 -133.15,-1.07 -33.41,5.2 -62.38,17.57 -91.29,34.83 -45.94,27.42 -89.96,65.15 -129.68,100.79 -73.16,65.63 -128.21,152.38 -96.25,252.88 1.6,5.02 3.49,10.19 5.64,15.43 139.76,-138.61 271.06,-236.15 396.74,-314.19l710.84 50.45 -464.61 476.84 -64.36 -64.36c-38.57,-38.57 -101.69,-38.57 -140.26,0l-371.88 371.88c-38.54,-176.19 -78.78,-358.61 -129.82,-516.11 -15.74,-48.59 -17.01,-98.54 -2.92,-147.74 19.31,-67.44 64.64,-124.31 116.12,-170.5 42.82,-38.41 89.65,-78.22 139.16,-107.77 35.72,-21.32 71.93,-36.3 113.18,-42.73 47.92,-7.47 98.59,-2.84 146.75,0.49 70.33,4.86 138.28,7.21 208.61,4.79 118.73,-60.99 233.89,-117.85 348.3,-191.91l764.6 -678.77c45.19,-40.12 198.45,-121.32 253,-95.35 81.1,38.61 139.54,78.06 36.47,183.84l-46.97 48.21 -42.31 84.43c-41.21,82.24 -76.88,168.06 -118.09,250.25 -29.62,59.07 -61.16,120.67 -96.89,176.25 -24.49,38.1 -43.35,75.4 -61.53,116.72 -15.36,34.9 -30.24,69.09 -48.07,102.88 -27.01,51.18 -58.67,99.85 -92.17,146.98 -43.35,60.99 -87.84,116.26 -153.95,153.39 -28.85,16.2 -59.84,29.29 -89.41,44.28 -45.37,23 -87.78,49.53 -129.23,79 -58.39,41.52 -98.33,90.55 -118.41,159.81 -15.57,53.69 -18.28,112.65 -22.57,168.19 -5.44,70.34 -13.29,136.91 -34.9,204.53 -38.51,120.51 -151.6,214.8 -253.92,281.8 -59.57,39.01 -122.36,73.29 -185.99,105.18 -49.33,24.73 -99.45,47.54 -148.91,71.88 -61.63,30.33 -129.25,42.03 -196.53,25.63 -21.75,-5.3 -48.62,-15.37 -69.3,-28.32l-39.04 39.04c-26.7,26.7 -70.4,26.7 -97.1,0l-138.12 -138.12c-26.7,-26.7 -26.7,-70.4 0,-97.1z"/>
 </g>
</svg>
