<?xml version="1.0" encoding="UTF-8"?>
<!DOCTYPE svg PUBLIC "-//W3C//DTD SVG 1.1//EN" "http://www.w3.org/Graphics/SVG/1.1/DTD/svg11.dtd">
<!-- Creator: CorelDRAW 2018 (64-Bit) -->
<svg xmlns="http://www.w3.org/2000/svg" xml:space="preserve" width="158.708mm" height="170mm" version="1.1" style="shape-rendering:geometricPrecision; text-rendering:geometricPrecision; image-rendering:optimizeQuality; fill-rule:evenodd; clip-rule:evenodd"
viewBox="0 0 1115.02 1194.35"
 xmlns:xlink="http://www.w3.org/1999/xlink">
 <defs>
  <style type="text/css">
   <![CDATA[
    .fil0 {fill:#FEFEFE}
   ]]>
  </style>
 </defs>
 <g id="Слой_x0020_1">
  <metadata id="CorelCorpID_0Corel-Layer"/>
  <path class="fil0" d="M317.29 946.72c-24.25,590.37 -746.29,-54.51 72.03,-98.28 42.17,-2.25 -18.71,69.77 -46.15,69.77 -25.57,0 -78.98,13.46 -104.23,17.32 -370.8,56.64 17.9,368.14 7.14,24.42 22.52,-7.43 47.29,-13.25 71.2,-13.23zm240.22 -554.82c9.98,0 19.8,0.71 29.41,2.06 -12.57,19.56 -19.23,42.62 -7.02,64.17 9.79,17.28 27.76,25.2 46.98,25.44 34.83,0.44 69.68,0.55 104.52,0.58 22.78,33.58 36.09,74.1 36.09,117.73 0,115.97 -94.01,209.98 -209.98,209.98 -12.06,0 -23.88,-1.03 -35.39,-2.98 16.14,-21.14 27.02,-47.91 12.99,-72.66 -9.79,-17.28 -27.76,-25.2 -46.98,-25.44 -36.85,-0.46 -73.7,-0.56 -110.55,-0.58 -19.08,-31.62 -30.06,-68.68 -30.06,-108.31 0,-115.97 94.01,-209.98 209.98,-209.98zm240.22 -144.28c24.25,-590.37 746.29,54.51 -72.03,98.28 -42.17,2.25 18.71,-69.77 46.15,-69.77 25.57,0 78.98,-13.46 104.23,-17.32 370.8,-56.64 -17.9,-368.14 -7.14,-24.42 -22.52,7.43 -47.29,13.25 -71.2,13.23zm-124.21 126.83c40.97,0 81.84,0.07 122.81,0.58 42.23,0.53 -18.7,69.76 -46.14,69.76 -34.65,0 -80.87,-0.05 -122.81,-0.58 -42.23,-0.53 18.71,-69.76 46.14,-69.76zm-232.03 445.43c-40.98,0 -81.84,-0.07 -122.81,-0.58 -42.23,-0.53 18.7,-69.76 46.14,-69.76 34.65,0 80.87,0.05 122.81,0.58 42.23,0.53 -18.71,69.76 -46.14,69.76z"/>
 </g>
</svg>
