<?xml version="1.0" encoding="UTF-8"?>
<!DOCTYPE svg PUBLIC "-//W3C//DTD SVG 1.1//EN" "http://www.w3.org/Graphics/SVG/1.1/DTD/svg11.dtd">
<!-- Creator: CorelDRAW 2018 (64-Bit) -->
<svg xmlns="http://www.w3.org/2000/svg" xml:space="preserve" width="178.613mm" height="170mm" version="1.1" style="shape-rendering:geometricPrecision; text-rendering:geometricPrecision; image-rendering:optimizeQuality; fill-rule:evenodd; clip-rule:evenodd"
viewBox="0 0 1863.14 1773.29"
 xmlns:xlink="http://www.w3.org/1999/xlink">
 <defs>
  <style type="text/css">
   <![CDATA[
    .fil0 {fill:#FEFEFE}
   ]]>
  </style>
 </defs>
 <g id="Слой_x0020_1">
  <metadata id="CorelCorpID_0Corel-Layer"/>
  <path class="fil0" d="M1208.64 208.41c5.87,25.56 9.76,51.59 12.12,77.72 15.21,8.02 29.59,17.63 42.87,28.61 21.21,17.54 39.42,38.31 54.51,61.42 4.58,7.01 8.86,14.22 12.87,21.59 58.13,46.95 104.75,101.48 138.35,164.15 -2.55,-46.03 -9.61,-91.86 -22.89,-135.37 -18.62,-61.01 -50,-118.06 -99.16,-159.18 -10.33,-8.64 -21.32,-16.47 -32.85,-23.38 -32.59,-19.53 -68.39,-31.07 -105.81,-35.57zm520.51 1151.24c-1.74,55.24 -8.96,113.05 -28.99,153.28 -17.54,35.21 -44.78,66.59 -81.98,80.75 -29.99,11.41 -63.5,9.9 -90.96,-7.53 -45.84,-29.09 -53.02,-84.95 -37.81,-133.76 17.29,-55.49 51.03,-100.63 103.59,-125.72 27.81,-13.27 63.05,-21.11 94.61,-19.24 -0.3,-14.76 -0.86,-28.52 -1.47,-40.58 -3.15,-62.34 -10.03,-124.91 -18.91,-186.68 -4.09,-28.47 -8.53,-57.26 -13.91,-85.52 -2.18,-11.42 5.25,-22.52 16.53,-24.73 11.28,-2.2 22.26,5.32 24.43,16.73 5.51,28.9 10.05,58.32 14.23,87.43 9.07,63.07 16.08,126.94 19.29,190.6 0.77,15.3 1.43,32.38 1.68,50.43 34.3,10.39 64.54,30.32 87.95,59.22 55.86,68.95 58.74,168.96 18.24,246.19 -23.75,45.28 -60.52,80.62 -104.91,104.93 -56.56,30.98 -121.76,42.35 -185.53,42.35 -36.81,0 -72.78,-8.34 -105.2,-26.2 -64.17,-35.34 -101.05,-99.74 -115.93,-170.46 -20.28,-96.42 -0.92,-202.62 30.37,-294.41 40.32,-118.31 82.36,-235.37 98.03,-360.33 26.28,-209.67 -21.77,-368.57 -203.14,-487.84 -9.63,-6.34 3.72,-23.27 -17.62,-50.9 93.03,9.14 245.83,184.31 265.55,387.4 5.06,52.12 3.1,104.76 -3.4,156.65 -16.08,128.25 -58.61,247.41 -99.97,368.78 -28.67,84.13 -47.61,183.38 -29,271.86 12.29,58.41 41.84,112.86 95.06,142.17 26.28,14.47 55.43,21.06 85.25,21.06 98.28,0 204.45,-31.18 253.58,-124.85 32.58,-62.12 31.5,-143.91 -13.65,-199.63 -15.4,-19 -34.45,-32.84 -56.03,-41.47zm-41.51 -9.89c-25.06,-2.08 -54.68,4.53 -76.84,15.11 -41.94,20.02 -67.84,56.06 -81.6,100.22 -9.25,29.7 -8.77,66.92 20.18,85.29 16.35,10.38 36.38,10.53 54.1,3.78 27.04,-10.29 46.75,-34.82 59.41,-60.24 17.79,-35.72 23.64,-91.88 24.74,-144.17zm-497.81 -969.33c32.01,73.34 37.83,162.09 32.15,239.73 -12.42,170.09 -79.17,343.95 -164.55,489.83 -85.38,145.88 -203.96,288.67 -345.39,381.45 -37.84,24.82 -78.3,46.43 -120.63,62.3 -40.27,15.1 -83.35,25.3 -126.5,25.5 -43.01,23.01 -88.61,41.76 -135.28,52.36 -56.56,12.85 -116.74,13.66 -170.86,-9.63 -8.68,-3.74 -17.12,-8.05 -25.24,-12.92 -8.12,-4.87 -15.92,-10.28 -23.33,-16.19 -46.3,-36.91 -74.38,-90.5 -90.47,-146.99 -20.38,-71.55 -22.81,-150.1 -16.97,-223.97 8.08,-102.09 32.46,-203.83 65.28,-300.54 38.6,-113.75 90.04,-223.33 150.58,-326.77 60.54,-103.44 130.78,-201.75 210.8,-290.68 68.04,-75.6 144.48,-146.13 229.07,-202.38 61.2,-40.69 130.45,-76.29 202.24,-92.59 56.56,-12.85 116.74,-13.66 170.86,9.63 8.68,3.74 17.12,8.05 25.24,12.92 8.12,4.87 15.92,10.28 23.33,16.19 46.3,36.92 74.38,90.5 90.47,146.99 16.9,59.33 21.45,123.47 19.19,185.76zm-663.36 1162.14c52.47,-16.21 103.11,-42.52 147.58,-71.7 141.98,-93.13 261.01,-236.4 346.73,-382.85 85.72,-146.45 152.66,-320.94 165.13,-491.69 3.1,-42.42 2.77,-87.43 -3.07,-131.35 -10.89,86.45 -32.66,172.14 -60.51,254.21 -38.6,113.75 -90.04,223.33 -150.58,326.77 -60.54,103.44 -130.78,201.75 -210.8,290.68 -68.04,75.6 -144.48,146.13 -229.07,202.37 -1.79,1.19 -3.6,2.38 -5.4,3.56zm-130.43 -841.66c39.35,-67.23 94.47,-135.24 159.41,-178.42 15.86,-10.54 32.88,-19.87 50.61,-26.76 30.03,-11.67 63.71,-16.79 94.15,-3.69 3.63,1.56 7.17,3.37 10.56,5.41 10.47,6.28 19.39,14.48 26.72,24.3 25.48,34.11 29.5,84.28 26.23,125.56 -6.2,78.38 -38.65,159.98 -78,227.21 -39.35,67.23 -94.47,135.24 -159.41,178.42 -15.85,10.54 -32.88,19.87 -50.61,26.75 -30.03,11.67 -63.71,16.79 -94.15,3.69 -3.63,-1.56 -7.17,-3.37 -10.56,-5.41 -10.47,-6.28 -19.39,-14.48 -26.72,-24.3 -25.48,-34.11 -29.5,-84.28 -26.23,-125.56 6.2,-78.38 38.65,-159.98 78,-227.21zm984.98 -82.11c0.26,21.41 -0.47,42.58 -1.97,63.13 -12.87,176.28 -81.21,355.22 -169.7,506.42 -88.5,151.2 -210.72,297.84 -357.3,393.99 -38.48,25.24 -79.43,47.24 -122.28,63.87 -80.37,31.18 -169.62,43.65 -251.41,10.18 -15.9,-6.5 -31.14,-14.65 -45.4,-24.29 -23.77,10.46 -48.19,19.53 -73.17,26.6 21.89,31.05 49.08,57.27 81.68,76.81 11.53,6.91 23.59,12.9 36.04,17.91 59.25,23.85 123.8,24.28 185.61,11.49 75.05,-15.54 147.26,-50.31 211.61,-91.75 78.62,-50.64 149.93,-113.92 213.4,-182.8 72.9,-79.11 136.68,-167.08 191.13,-260.11 54.45,-93.03 100.02,-191.91 133.54,-294.62 3.29,-10.08 6.47,-20.21 9.53,-30.39 10.26,-88.38 5.51,-178.67 -29.59,-261.36 -3.64,-8.58 -7.56,-16.93 -11.72,-25.09zm-839.75 998.13c78.17,-7.57 156.78,-44.25 222.09,-87.09 141.98,-93.13 261.01,-236.4 346.73,-382.85 85.72,-146.45 152.66,-320.94 165.13,-491.69 4.18,-57.19 2.13,-119.06 -11.26,-176.67 13.31,10.64 26.02,21.85 38.06,33.68 11.65,55.13 13.16,113.58 9.27,166.81 -12.42,170.1 -79.17,343.95 -164.55,489.83 -85.38,145.89 -203.96,288.67 -345.39,381.45 -37.84,24.82 -78.3,46.43 -120.62,62.3 -44.13,16.55 -91.61,27.21 -138.88,25.28 -5.49,-0.22 -9.86,-4.7 -10.01,-10.25 -0.15,-5.55 3.97,-10.27 9.43,-10.8z"/>
 </g>
</svg>
