<?xml version="1.0" encoding="UTF-8"?>
<!DOCTYPE svg PUBLIC "-//W3C//DTD SVG 1.1//EN" "http://www.w3.org/Graphics/SVG/1.1/DTD/svg11.dtd">
<!-- Creator: CorelDRAW 2018 (64-Bit) -->
<svg xmlns="http://www.w3.org/2000/svg" xml:space="preserve" width="176.133mm" height="170mm" version="1.1" style="shape-rendering:geometricPrecision; text-rendering:geometricPrecision; image-rendering:optimizeQuality; fill-rule:evenodd; clip-rule:evenodd"
viewBox="0 0 488.18 471.18"
 xmlns:xlink="http://www.w3.org/1999/xlink">
 <defs>
  <style type="text/css">
   <![CDATA[
    .fil0 {fill:white}
   ]]>
  </style>
 </defs>
 <g id="Слой_x0020_1">
  <metadata id="CorelCorpID_0Corel-Layer"/>
  <path class="fil0" d="M439.18 471.18l-0.61 -12.1 49.6 0 0 12.1 -49 0zm49 -363.03l0 12.1 -24.2 0 0 -12.1 24.2 -0zm0 59c-10.88,-3.38 -19.35,-11.95 -22.7,-22.7l22.7 0 0 22.7zm-48.4 -46.9l-72.61 0 0 -12.1 72.61 0 0 12.1zm-121.01 24.2l22.69 0c-3.38,10.87 -11.96,19.34 -22.69,22.69l0 -22.69zm24.2 -36.3l0 12.1 -24.2 0 0 -12.1 24.2 -0zm-91.81 -68.06l10.1 60.6 -26.49 8.85c-6.33,2.12 -9.75,8.96 -7.65,15.3l0.4 1.19 26.44 2.65 24.82 -8.29c5.64,-1.88 9.08,-7.59 8.11,-13.46l-10.39 -62.34 22.6 11.3 0 258.74 -48.4 -0 0 24.2 48.4 0 0 84.71 -96.81 0 0 -177.53 0 -122.51 35.32 -82.42c0.65,-1.51 0.98,-3.13 0.98,-4.77l-0 -21.34 12.56 25.13zm-36.76 -40.09l0 33.88 -24.21 56.45 -24.19 -56.45 0 -33.88 48.4 0zm-72.61 14.96l0 21.34c-0,1.64 0.33,3.26 0.98,4.77l35.32 82.42 0 122.39 0 177.65 -96.81 0 0 -84.71 48.4 0 0 -24.2 -48.4 0 0 -258.74 22.66 -11.33 -10.39 62.34c-0.97,5.87 2.47,11.57 8.11,13.46l24.82 8.29 26.39 -2.63 0.39 -1.17c2.11,-6.33 -1.32,-13.18 -7.65,-15.3l-26.49 -8.85 10.1 -60.6 12.56 -25.13zm-93.54 242.99l-35.76 -14.3 45.73 -176.48 0 145.89 -9.97 44.89zm-10.85 48.87l-37.39 -14.97 6.37 -24.59 36.56 14.62 -5.54 24.93zm281.37 164.35l0 -12.1 49.6 0 -0.6 12.1 -49 0zm101.98 -259.8c-9.91,-8.57 -24.6,-8.57 -34.51,0 -5.89,7.59 -8.41,17.27 -6.96,26.77l0 2.51 -9.7 194.22 -50.81 0 0 -242.84c24.44,-4.18 43.48,-23.45 47.61,-47.59l74.22 0c4.18,24.44 23.45,43.48 47.59,47.61l0 242.82 -50.81 0 -9.69 -193.62 0 -3.11c1.46,-9.5 -1.05,-19.17 -6.93,-26.77z"/>
 </g>
</svg>
