<?xml version="1.0" encoding="UTF-8"?>
<!DOCTYPE svg PUBLIC "-//W3C//DTD SVG 1.1//EN" "http://www.w3.org/Graphics/SVG/1.1/DTD/svg11.dtd">
<!-- Creator: CorelDRAW 2018 (64-Bit) -->
<svg xmlns="http://www.w3.org/2000/svg" xml:space="preserve" width="158.873mm" height="170mm" version="1.1" style="shape-rendering:geometricPrecision; text-rendering:geometricPrecision; image-rendering:optimizeQuality; fill-rule:evenodd; clip-rule:evenodd"
viewBox="0 0 289.48 309.75"
 xmlns:xlink="http://www.w3.org/1999/xlink">
 <defs>
  <style type="text/css">
   <![CDATA[
    .fil0 {fill:white}
   ]]>
  </style>
 </defs>
 <g id="Слой_x0020_1">
  <metadata id="CorelCorpID_0Corel-Layer"/>
  <path class="fil0" d="M288.57 147.7l-19.71 36.37c-11.38,-17.95 -14.85,-33.28 -10.28,-45.56 4.49,-12.06 15.94,-18.83 22.88,-21.95l8.01 29.89c-0.35,0.37 -0.66,0.79 -0.9,1.25zm-230.57 107.68c-8.87,5.45 -19.24,7.06 -29.19,4.53 -9.97,-2.53 -18.33,-8.89 -23.55,-17.92 -5.23,-9.06 -6.62,-19.62 -3.92,-29.73 2.71,-10.11 9.19,-18.56 18.25,-23.79l4.47 -2.58 38.5 66.68c-2.91,1.79 -4.56,2.81 -4.56,2.81zm90.98 -57.05c0.02,0.33 0.08,0.65 0.15,0.97 -25.85,15.89 -57.91,35.63 -76.3,46.95l-38.33 -66.39 91.19 -52.65c1.38,-0.8 2.39,-2.12 2.81,-3.66l32.19 -120.14 15.33 3.99 -10.43 2.8c-1.54,0.41 -2.86,1.42 -3.66,2.81 -0.8,1.38 -1.02,3.03 -0.6,4.57l29.69 110.82c-18.35,4.32 -45.08,19.27 -42.04,69.93zm45.16 -58.28l0.28 1.04 -27.19 47.09c-2.04,1.26 -4.19,2.57 -6.42,3.94 -0.45,-29.5 10.75,-47 33.33,-52.07zm17.43 149.75c-4.96,9.15 -13.13,15.73 -23.01,18.52 -9.89,2.8 -20.32,1.46 -29.35,-3.75 -18.71,-10.8 -25.15,-34.81 -14.35,-53.52l2.58 -4.47 66.69 38.5 -2.55 4.71zm8.3 -15.31l-66.41 -38.34 52.65 -91.19c0.8,-1.38 1.02,-3.03 0.6,-4.57l-32.18 -120.1 75.7 -20.28 28.07 104.77c-8.53,3.53 -24.53,12.21 -30.99,29.43 -6.22,16.59 -1.91,36.3 12.81,58.59 0.7,1.06 1.68,1.82 2.78,2.26l-43.04 79.43z"/>
 </g>
</svg>
