<?xml version="1.0" encoding="UTF-8"?>
<!DOCTYPE svg PUBLIC "-//W3C//DTD SVG 1.1//EN" "http://www.w3.org/Graphics/SVG/1.1/DTD/svg11.dtd">
<!-- Creator: CorelDRAW 2018 (64-Bit) -->
<svg xmlns="http://www.w3.org/2000/svg" xml:space="preserve" width="241.985mm" height="170mm" version="1.1" style="shape-rendering:geometricPrecision; text-rendering:geometricPrecision; image-rendering:optimizeQuality; fill-rule:evenodd; clip-rule:evenodd"
viewBox="0 0 1643.56 1154.64"
 xmlns:xlink="http://www.w3.org/1999/xlink">
 <defs>
  <style type="text/css">
   <![CDATA[
    .fil0 {fill:#FEFEFE}
   ]]>
  </style>
 </defs>
 <g id="Слой_x0020_1">
  <metadata id="CorelCorpID_0Corel-Layer"/>
  <path class="fil0" d="M1283.9 164.28c1.7,-1.7 3.31,-3.38 4.84,-5.05 48.49,-52.96 119.69,-65.41 187.91,-57.54 39.36,4.54 90.16,36.83 116.45,65.21 12.59,13.6 23.09,29.04 30.25,46.17 26.56,63.55 28.3,117.12 -2.97,179.67 -28.2,56.4 -85.12,93.9 -147.09,102.16 -13.02,1.74 -26.58,3.3 -40.41,4.65 -2.24,-18.28 -5.28,-36.31 -9.05,-54.08 16.76,-1.47 31.71,-3.03 42.28,-4.44 32.35,-4.31 81.23,-23.72 105.67,-72.6 24.44,-48.88 21.56,-86.26 1.44,-134.42 -20.13,-48.16 -84.1,-76.19 -102.79,-78.35 -18.69,-2.16 -94.88,-10.78 -141.61,40.25 -3.38,3.69 -7.09,7.41 -11.06,11.14 -10.69,-14.75 -21.97,-29.03 -33.86,-42.78zm-477.9 -164.28c318.84,0 577.32,258.47 577.32,577.32 0,318.84 -258.47,577.32 -577.32,577.32 -318.84,0 -577.32,-258.47 -577.32,-577.32 0,-318.84 258.47,-577.32 577.32,-577.32zm-627.56 505.44l-32.8 0 -3.14 0 -3.11 -0.36c-66.39,-7.69 -141.23,-48.42 -139.36,-125.03 2.21,-90.57 66.05,-129.92 149.92,-129.92l115.63 0c-10.66,17.57 -20.48,35.7 -29.42,54.34l-86.21 0c-55.35,0 -94.17,17.97 -95.6,76.91 -1.44,58.94 91.29,69.73 91.29,69.73l41.33 0c-3.62,17.85 -6.45,35.98 -8.53,54.34z"/>
 </g>
</svg>
