<svg width="20" height="20" viewBox="0 0 20 20" fill="none" xmlns="http://www.w3.org/2000/svg">
<path fill-rule="evenodd" clip-rule="evenodd" d="M7.73907 6.98066C7.73907 7.39883 7.39883 7.73907 6.98066 7.73907H2.338C1.91982 7.73907 1.57959 7.39883 1.57959 6.98066V2.338C1.57959 1.91982 1.91982 1.57959 2.338 1.57959H6.98066C7.39883 1.57959 7.73907 1.91982 7.73907 2.338V6.98066ZM6.98042 0H2.33776C1.04873 0 0 1.04873 0 2.33776V6.98042C0 8.26945 1.04873 9.31818 2.33776 9.31818H6.98042C8.26945 9.31818 9.31818 8.26945 9.31818 6.98042V2.33776C9.31818 1.04873 8.26945 0 6.98042 0Z" fill="white"/>
<path fill-rule="evenodd" clip-rule="evenodd" d="M7.73907 6.94939C7.73907 7.38482 7.38482 7.73907 6.94939 7.73907H2.36927C1.93384 7.73907 1.57959 7.38482 1.57959 6.94939V2.36927C1.57959 1.93384 1.93384 1.57959 2.36927 1.57959H6.94939C7.38482 1.57959 7.73907 1.93384 7.73907 2.36927V6.94939ZM6.94915 0H2.36903C1.06275 0 0 1.06275 0 2.36903V6.94915C0 8.25543 1.06275 9.31818 2.36903 9.31818H6.94915C8.25543 9.31818 9.31818 8.25543 9.31818 6.94915V2.36903C9.31818 1.06275 8.25543 0 6.94915 0Z" transform="translate(10.6816)" fill="white"/>
<path fill-rule="evenodd" clip-rule="evenodd" d="M7.73907 6.98066C7.73907 7.39883 7.39883 7.73907 6.98066 7.73907H2.338C1.91982 7.73907 1.57959 7.39883 1.57959 6.98066V2.338C1.57959 1.91982 1.91982 1.57959 2.338 1.57959H6.98066C7.39883 1.57959 7.73907 1.91982 7.73907 2.338V6.98066ZM6.98042 0H2.33776C1.04873 0 0 1.04873 0 2.33776V6.98042C0 8.26945 1.04873 9.31818 2.33776 9.31818H6.98042C8.26945 9.31818 9.31818 8.26945 9.31818 6.98042V2.33776C9.31818 1.04873 8.26945 0 6.98042 0Z" transform="translate(0 10.6816)" fill="white"/>
<path fill-rule="evenodd" clip-rule="evenodd" d="M7.73907 6.94939C7.73907 7.38482 7.38482 7.73907 6.94939 7.73907H2.36927C1.93384 7.73907 1.57959 7.38482 1.57959 6.94939V2.36927C1.57959 1.93384 1.93384 1.57959 2.36927 1.57959H6.94939C7.38482 1.57959 7.73907 1.93384 7.73907 2.36927V6.94939ZM6.94915 0H2.36903C1.06275 0 0 1.06275 0 2.36903V6.94915C0 8.25543 1.06275 9.31818 2.36903 9.31818H6.94915C8.25543 9.31818 9.31818 8.25543 9.31818 6.94915V2.36903C9.31818 1.06275 8.25543 0 6.94915 0Z" transform="translate(10.6816 10.6816)" fill="white"/>
</svg>
