<?xml version="1.0" encoding="UTF-8"?>
<svg width="25px" height="22px" viewBox="0 0 25 22" version="1.1" xmlns="http://www.w3.org/2000/svg" xmlns:xlink="http://www.w3.org/1999/xlink">
    <!-- Generator: Sketch 49.2 (51160) - http://www.bohemiancoding.com/sketch -->
    <title>11</title>
    <desc>Created with Sketch.</desc>
    <defs>
        <polygon id="path-1" points="8.0882353e-06 0 24.7199657 0 24.7199657 21.9999892 8.0882353e-06 21.9999892"></polygon>
    </defs>
    <g id="Symbols" stroke="none" stroke-width="1" fill="none" fill-rule="evenodd">
        <g id="хедер" transform="translate(-1255.000000, -154.000000)">
            <g id="11">
                <g transform="translate(1255.000000, 154.000000)">
                    <mask id="mask-2" fill="white">
                        <use xlink:href="#path-1"></use>
                    </mask>
                    <g id="Clip-2"></g>
                    <path d="M23.8549235,8.49802843 C23.8117324,8.28234216 23.7255118,8.06665588 23.6392373,7.85096961 C23.720551,7.72899902 23.8018647,7.56922941 23.8830706,7.44283725 C23.869698,7.4782098 23.8980608,7.51363627 23.8980608,7.54900882 C23.8980608,7.85096961 23.8980608,8.19606765 23.8549235,8.49802843 Z M23.1646735,6.85881275 C22.9921784,6.51371471 22.7764922,6.21175392 22.5608059,5.90979314 C22.7764922,5.47842059 22.90585,5.09018529 23.0353157,4.70195 C23.251002,5.09018529 23.423551,5.47842059 23.5529088,5.86665588 C23.4666882,6.21175392 23.3372225,6.51371471 23.1646735,6.85881275 Z M23.0353157,9.9646951 C22.9489873,9.74900882 22.7764922,9.49018529 22.6470804,9.27449902 C22.7764922,9.10195 22.90585,8.97253824 22.9921784,8.79998922 C23.0353157,8.97253824 23.0784529,9.18822451 23.0784529,9.36077353 C23.0784529,9.5764598 23.0784529,9.74900882 23.0353157,9.9646951 Z M22.4313941,10.9999892 C22.3019284,11.0862637 21.8705559,10.956852 21.3098255,10.6117539 C21.4391833,10.4823422 21.568649,10.3960676 21.6548696,10.2666559 C21.8274186,10.1803814 21.9568843,10.0509696 22.0431049,9.92155784 C22.3882569,10.4823422 22.5608059,10.8705775 22.4313941,10.9999892 Z M20.7489873,11.647048 C20.533301,11.647048 20.360752,11.6039108 20.1450657,11.5607735 C20.360752,11.474499 20.533301,11.3450873 20.6627667,11.2156755 C20.9215902,11.3882245 21.1372765,11.5176363 21.3529627,11.6039108 C21.1803598,11.647048 20.9646735,11.6902392 20.7489873,11.647048 Z M19.1961,11.1725382 C18.850948,11.0862637 18.5059039,10.8705775 18.2038892,10.6548912 C18.5059039,10.4823422 18.8078108,10.2666559 19.1098255,10.0078324 C19.368649,10.2235186 19.6705559,10.4823422 19.9293794,10.6548912 C19.6705559,10.8274402 19.4548696,11.0431804 19.1961,11.1725382 Z M18.9804137,12.4666559 L18.8078108,12.4666559 C18.9372765,12.3803814 19.1098255,12.2941069 19.2391833,12.2078324 C19.4548696,12.2941069 19.6705559,12.3372441 19.8862422,12.4235186 C19.5843353,12.4666559 19.2823206,12.4666559 18.9804137,12.4666559 Z M17.2980069,12.1216118 C16.9097716,11.9921461 16.5215902,11.8195971 16.1333549,11.6039108 C16.5215902,11.5176363 16.9529627,11.3450873 17.3411441,11.129401 C17.6431588,11.3450873 17.9450657,11.5607735 18.2902176,11.7333225 C17.9450657,11.9059255 17.6000216,12.0352833 17.2980069,12.1216118 Z M14.8823745,10.8705775 C14.4078647,10.5254794 13.9764922,10.1803814 13.6313402,9.87842059 C14.1921784,9.83528333 14.7529088,9.66273431 15.3137471,9.40391078 C15.5725167,9.66273431 16.0038892,10.0941069 16.5647275,10.5686167 C15.8745314,10.8274402 15.3137471,10.956852 14.8823745,10.8705775 Z M13.2862961,9.01567549 C12.941198,9.01567549 12.6823745,8.92940098 12.5098255,8.75685196 C12.1647275,8.41175392 12.1647275,7.67842059 12.5529088,6.72940098 C12.9842814,5.65096961 13.7608059,4.48626373 14.8392373,3.40783235 C16.3921784,1.85489118 18.2038892,0.819597059 19.4117863,0.819597059 C19.7568843,0.819597059 20.0157078,0.905871569 20.1882569,1.07842059 C20.533301,1.42351863 20.533301,2.19998922 20.1882569,3.14900882 C20.1019284,3.32155784 20.0157078,3.53724412 19.9293794,3.70979314 C19.8862422,3.75293039 19.8862422,3.79606765 19.8431588,3.8392049 C19.368649,4.70195 18.7215902,5.60783235 17.8588451,6.47057745 C17.0392373,7.29018529 16.0902176,7.98038137 15.2274725,8.45489118 L15.1842814,8.45489118 C14.4940853,8.79998922 13.8039431,9.01567549 13.2862961,9.01567549 Z M21.568649,5.99606765 C21.3960461,6.34116569 21.1372765,6.68626373 20.8784529,7.03136176 C20.4470804,6.55685196 20.0157078,6.12547941 19.6705559,5.78038137 C19.9293794,5.43528333 20.1882569,5.04704804 20.4039431,4.70195 C20.7059039,5.00391078 21.1372765,5.47842059 21.568649,5.99606765 Z M21.4823745,7.67842059 L22.1294333,6.77253824 C22.3451196,7.07449902 22.5176147,7.41959706 22.6901637,7.7646951 C22.5176147,8.02351863 22.3019284,8.28234216 22.1294333,8.49802843 C21.9137471,8.2392049 21.6980608,7.93724412 21.4823745,7.67842059 Z M20.360752,8.97253824 C20.533301,8.75685196 20.7059039,8.54116569 20.8784529,8.36861667 C21.1372765,8.67057745 21.3529627,8.92940098 21.5255118,9.18822451 C21.3960461,9.36077353 21.2234971,9.49018529 21.0941392,9.66273431 C20.9215902,9.83528333 20.7921245,9.9646951 20.6196294,10.1372441 C20.360752,9.92155784 20.0588451,9.70587157 19.8000216,9.49018529 C19.9725706,9.31763627 20.1882569,9.14508725 20.360752,8.97253824 Z M18.4627667,9.44704804 C18.1176686,9.70587157 17.7725167,9.92155784 17.4274725,10.1372441 C16.8666343,9.70587157 16.4352618,9.27449902 16.1333549,8.97253824 C16.478399,8.75685196 16.823551,8.54116569 17.2117863,8.2392049 C17.5568304,8.58430294 17.9882029,9.01567549 18.4627667,9.44704804 Z M17.9019824,7.63528333 C18.1176686,7.46273431 18.3333549,7.24704804 18.5490412,7.03136176 C18.7215902,6.90195 18.9372765,6.68626373 19.1098255,6.4274402 C19.541198,6.85881275 19.9293794,7.29018529 20.3176147,7.67842059 C20.1450657,7.89410686 19.9293794,8.10979314 19.7568843,8.28234216 C19.541198,8.49802843 19.3255118,8.67057745 19.1529627,8.84312647 C18.7647275,8.49802843 18.3333549,8.06665588 17.9019824,7.63528333 Z M21.0078108,3.45096961 C21.1803598,3.01959706 21.2666882,2.58822451 21.3098255,2.19998922 C21.6117324,2.58822451 21.9568843,3.01959706 22.3019284,3.49410686 C22.3451196,3.92547941 22.2587912,4.48626373 22.0000216,5.13332255 C21.5255118,4.57253824 21.0941392,4.14116569 20.8353157,3.88234216 C20.9215902,3.75293039 20.9646735,3.58038137 21.0078108,3.45096961 Z M24.4156539,5.82351863 C23.5098255,2.89018529 20.9215902,0.603910784 20.7921245,0.47449902 C20.4470804,0.172538235 19.9725706,-1.07843137e-05 19.4117863,-1.07843137e-05 C17.9450657,-1.07843137e-05 15.9608059,1.07842059 14.2353157,2.80391078 C13.0706098,3.96861667 12.2078647,5.21959706 11.7333549,6.4274402 C11.4313941,7.24704804 11.3451196,7.93724412 11.4744775,8.49802843 C11.3882569,8.54116569 11.3019824,8.58430294 11.2157078,8.67057745 L0.258791176,19.6274402 C-0.0862529412,19.9725382 -0.0862529412,20.4901853 0.258791176,20.8352833 L1.16472745,21.7843029 C1.33722255,21.9137147 1.55290882,21.9999892 1.7685951,21.9999892 C1.98428137,21.9999892 2.19996765,21.9137147 2.37257059,21.7411657 L13.3294333,10.7843029 C14.3215363,11.5176363 15.6156539,12.4666559 17.1254578,12.9411657 C17.7293794,13.1137147 18.3333549,13.2431265 18.9372765,13.2862637 L19.1529627,13.2862637 C20.5764382,13.2862637 21.9137471,12.7254794 23.0353157,11.647048 C24.1999676,10.4392049 24.7608059,9.05881275 24.7176686,7.54900882 C24.6744775,6.94508725 24.5882569,6.38430294 24.4156539,5.82351863 Z" id="Fill-1" fill="#4A4A4A" mask="url(#mask-2)"></path>
                </g>
            </g>
        </g>
    </g>
</svg>