<?xml version="1.0" encoding="UTF-8"?>
<svg width="18px" height="22px" viewBox="0 0 18 22" version="1.1" xmlns="http://www.w3.org/2000/svg" xmlns:xlink="http://www.w3.org/1999/xlink">
    <!-- Generator: Sketch 49.2 (51160) - http://www.bohemiancoding.com/sketch -->
    <title>8</title>
    <desc>Created with Sketch.</desc>
    <defs></defs>
    <g id="Symbols" stroke="none" stroke-width="1" fill="none" fill-rule="evenodd">
        <g id="хедер" transform="translate(-766.000000, -154.000000)" fill="#4A4A4A" fill-rule="nonzero">
            <g id="8">
                <g transform="translate(766.000000, 154.000000)">
                    <path d="M14.4830559,15.5288203 L15.3835402,16.4403164 L16.5839739,15.2252031 L16.5814269,17.1644688 C16.5814269,19.1199766 15.0097286,20.7109375 13.0778027,20.7109375 C11.1458768,20.7109375 9.57417855,19.1200195 9.57417855,17.1644688 L9.57417855,8.80704688 C10.6127092,8.52027344 11.3786706,7.55755859 11.3786706,6.41669531 C11.3786706,5.75385938 11.1197278,5.15148047 10.6994763,4.70636719 L10.6994763,0 L7.16201974,0 L7.16201974,4.70632422 C6.74176822,5.1514375 6.48282537,5.75381641 6.48282537,6.41665234 C6.48282537,7.55755859 7.24874437,8.52027344 8.28731746,8.80700391 L8.28731746,17.1644258 C8.28731746,19.1199336 6.71561924,20.7108945 4.7836933,20.7108945 C2.85176736,20.7108945 1.28006914,19.1199766 1.28006914,17.1635664 L1.27752216,15.2251602 L2.47795576,16.4402734 L3.37844015,15.5287773 L0,12.1090234 L0.00662214511,17.1644688 C0.00662214511,19.8308086 2.14960773,22 4.78373575,22 C6.55626326,22 8.10635461,21.0176914 8.93076923,19.5626406 C9.75518385,21.0176914 11.3052752,22 13.0778027,22 C15.7118883,22 17.8549163,19.8308086 17.8549163,17.1653281 L17.8615385,12.1090234 L14.4830559,15.5288203 Z M8.43550919,1.2890625 L9.42602928,1.2890625 L9.42602928,3.98982031 C9.26603655,3.95639063 9.10039802,3.93877344 8.93076923,3.93877344 C8.76114044,3.93877344 8.59554436,3.95639063 8.43550919,3.98982031 L8.43550919,1.2890625 Z M7.75631481,6.41665234 C7.75631481,5.76112109 8.2831574,5.22783594 8.93076923,5.22783594 C9.57838106,5.22783594 10.1052236,5.76112109 10.1052236,6.41665234 C10.1052236,7.07218359 9.57833861,7.60546875 8.93076923,7.60546875 C8.28319985,7.60546875 7.75631481,7.07218359 7.75631481,6.41665234 Z" id="Shape"></path>
                </g>
            </g>
        </g>
    </g>
</svg>