<?xml version="1.0" encoding="UTF-8"?>
<!DOCTYPE svg PUBLIC "-//W3C//DTD SVG 1.1//EN" "http://www.w3.org/Graphics/SVG/1.1/DTD/svg11.dtd">
<!-- Creator: CorelDRAW 2018 (64-Bit) -->
<svg xmlns="http://www.w3.org/2000/svg" xml:space="preserve" width="151.911mm" height="170mm" version="1.1" style="shape-rendering:geometricPrecision; text-rendering:geometricPrecision; image-rendering:optimizeQuality; fill-rule:evenodd; clip-rule:evenodd"
viewBox="0 0 1347.18 1507.6"
 xmlns:xlink="http://www.w3.org/1999/xlink">
 <defs>
  <style type="text/css">
   <![CDATA[
    .fil0 {fill:#FEFEFE}
   ]]>
  </style>
 </defs>
 <g id="Слой_x0020_1">
  <metadata id="CorelCorpID_0Corel-Layer"/>
  <path class="fil0" d="M693.95 1109.14l10.45 -178.64c0,0 -1.79,-41.22 56.62,-109.05 58.4,-67.83 320.86,-400.7 320.86,-400.7 0,0 8.9,-37.01 83.79,-17.73 74.89,19.28 90.03,24.4 90.03,24.4l-34.86 133.66c-2.61,2.05 -4.76,4.62 -6.22,7.63 -14.26,29.34 -28.56,58.67 -42.91,87.97l-3.31 4.86 43.46 -178.33 -336.93 428.77c0,0 -31.09,22.3 -38.78,112.67 -3.64,42.77 -6.52,88.9 -8.54,125.63 -13.67,-3.55 -25.66,-7.58 -33.41,-10.68 -0.78,-0.31 -1.46,-0.55 -2.26,-0.79 -32.66,-9.89 -65.31,-19.78 -97.97,-29.67zm-548.8 -196.24c0,0 21.49,-346.45 52.97,-417.42 15.29,-34.48 60.74,-107.42 110.26,-179.16l85.14 14.01c10.92,1.8 21.24,-1.74 27.72,-9.49l57.83 -69.22c9.03,-10.81 6.42,-26.18 -5.86,-34.59l-59.64 -40.85c13.5,-15.83 25.42,-28.45 34.84,-36.5 59.6,-50.87 75.21,-38.71 68.63,22.92 -6.58,61.63 -5.2,115.88 -5.2,115.88 0,0 36.25,-39.42 55.41,-136.28 19.16,-96.86 4.54,-147.38 -33.88,-141.8 -38.41,5.58 -62.6,37.67 -82.54,60.61 -19.93,22.94 -34.7,41.53 -84.21,33.29 -49.51,-8.25 -49.31,-26.2 -133.38,66.48 -84.07,92.68 -210.8,200.09 -222.6,343.42 -11.8,143.33 -21.89,202.44 16.38,265.98 38.27,63.54 47.68,67.24 47.68,67.24 0,0 -16.79,95.54 70.42,75.45zm179.06 -619.27l-66.69 -10.97 97.69 -115.1 41.8 28.63 59 40.4 -57.83 69.22 -73.97 -12.17zm-197.64 662.27c0,0 -3.28,47.91 81.07,74.02 84.34,26.11 589.27,178.93 589.27,178.93 0,0 137.17,54.82 179.92,-3.07 42.75,-57.89 332.27,-653.98 332.27,-653.98 0,0 59.64,17.5 29.64,133.74 -30,116.25 -35.83,217.61 -80.94,311 -45.1,93.39 -238.45,460.74 -238.45,460.74 0,0 -50.55,81.77 -200.39,36.84 -149.84,-44.94 -588.46,-250.87 -588.46,-250.87 0,0 -130.45,-57.05 -103.93,-287.34zm106.69 6.97l11.41 -195.12c0,0 -1.78,-41.22 56.62,-109.05 58.4,-67.83 320.85,-400.7 320.85,-400.7 0,0 8.9,-37.01 83.79,-17.73 74.88,19.28 90.03,24.4 90.03,24.4l-380.78 484.56c0,0 -31.09,22.29 -38.78,112.67 -4.43,52.05 -7.73,109.06 -9.73,148.07 -32.2,-9.8 -64.38,-19.64 -96.51,-29.59 -12.41,-3.84 -26.17,-9.49 -36.91,-17.5zm240.44 79.52l11.18 -191.17c0,0 -1.78,-41.22 56.62,-109.05 58.4,-67.83 320.85,-400.7 320.85,-400.7 0,0 8.9,-37.01 83.78,-17.73 74.89,19.28 90.03,24.4 90.03,24.4l-380.77 484.56c0,0 -31.09,22.29 -38.78,112.67 -4.05,47.55 -7.15,99.24 -9.18,137.56 -27.28,-8.27 -54.56,-16.54 -81.84,-24.81 -17.29,-5.24 -34.6,-10.48 -51.9,-15.72z"/>
 </g>
</svg>
