<?xml version="1.0" encoding="UTF-8"?>
<svg width="22px" height="18px" viewBox="0 0 22 18" version="1.1" xmlns="http://www.w3.org/2000/svg" xmlns:xlink="http://www.w3.org/1999/xlink">
    <!-- Generator: Sketch 49.2 (51160) - http://www.bohemiancoding.com/sketch -->
    <title>14</title>
    <desc>Created with Sketch.</desc>
    <defs></defs>
    <g id="Symbols" stroke="none" stroke-width="1" fill="none" fill-rule="evenodd">
        <g id="хедер" transform="translate(-1772.000000, -157.000000)" fill="#4A4A4A">
            <g id="14">
                <path d="M1779.26439,170.078123 L1786.73561,170.078123 L1786.73561,167.552129 L1779.26439,167.552129 L1779.26439,170.078123 Z M1779.26759,163.86681 C1779.33499,161.867118 1780.98276,160.260731 1783,160.260731 C1785.01724,160.260731 1786.66501,161.867019 1786.73241,163.86681 L1779.26759,163.86681 Z M1783.36977,155 L1782.63033,155 C1777.8716,155 1774,158.868881 1774,163.624393 L1774,174.369685 C1774,175.82009 1775.18081,177 1776.6322,177 C1778.08358,177 1779.26439,175.81999 1779.26439,174.369685 L1779.26439,173.763342 L1786.73561,173.763342 L1786.73561,174.369685 C1786.73561,175.82009 1787.91642,177 1789.3678,177 C1790.81919,177 1792,175.81999 1792,174.369685 L1792,163.624393 C1792,158.868881 1788.1284,155 1783.36977,155 Z" transform="translate(1783.000000, 166.000000) rotate(-90.000000) translate(-1783.000000, -166.000000) "></path>
            </g>
        </g>
    </g>
</svg>