<?xml version="1.0" encoding="UTF-8"?>
<!DOCTYPE svg PUBLIC "-//W3C//DTD SVG 1.1//EN" "http://www.w3.org/Graphics/SVG/1.1/DTD/svg11.dtd">
<!-- Creator: CorelDRAW 2018 (64-Bit) -->
<svg xmlns="http://www.w3.org/2000/svg" xml:space="preserve" width="170mm" height="166.648mm" version="1.1" style="shape-rendering:geometricPrecision; text-rendering:geometricPrecision; image-rendering:optimizeQuality; fill-rule:evenodd; clip-rule:evenodd"
viewBox="0 0 729.95 715.56"
 xmlns:xlink="http://www.w3.org/1999/xlink">
 <defs>
  <style type="text/css">
   <![CDATA[
    .fil0 {fill:#FEFEFE}
   ]]>
  </style>
 </defs>
 <g id="Слой_x0020_1">
  <metadata id="CorelCorpID_0Corel-Layer"/>
  <path class="fil0" d="M334.93 214.01c-3.52,-1.41 -10.8,-2.45 -15.14,-2.64 -13.65,-0.6 -26.34,3.16 -37.58,10.18 -16.32,10.2 -31.09,27.3 -42.97,41.62 -15.55,18.74 -31.43,40.83 -50.08,56.89 -25.31,21.81 -50.79,43 -75.19,65.74 -17.54,16.35 -49.73,46.79 -59.58,67.61 -25.31,53.47 -20.11,105.31 14,154.79 5.47,7.94 11.75,15.42 18.64,22.38 28.09,28.38 81.87,59.95 125.61,46.67 12.58,-3.82 22.46,-11.12 30.12,-20.93 23.2,-29.72 36.47,-64.74 46.1,-99.87 9.48,-34.58 15.22,-70.06 25.2,-104.43 4.22,-14.54 10,-28.77 16.97,-42.4 21.28,-41.61 63.68,-94.18 116.17,-103.61 15.84,-2.84 31.71,-1.12 45.27,7.28 6.77,4.19 12.22,9.53 16.57,15.65 -15.68,-4.05 -33.05,-1.07 -47.97,4.54 -11.85,4.46 -23.09,10.79 -33.39,18.24 -27.19,17.39 -50.07,49.96 -61.75,72.8 -6,11.74 -11,24 -14.64,36.52 -9.92,34.16 -15.63,69.53 -25.06,103.96 -10.85,39.62 -25.95,78.26 -52.11,111.77 -12.41,15.9 -28.98,27.71 -49.33,33.9 -59.57,18.09 -127.24,-16.96 -166.33,-56.46 -8.37,-8.46 -16,-17.57 -22.66,-27.22 -40.9,-59.32 -47.12,-123.41 -16.77,-187.54 12.35,-26.1 45.59,-57.92 67.43,-78.28 24.75,-23.08 50.58,-44.58 76.27,-66.71 7.8,-6.72 14.86,-14.87 21.38,-22.64 8.28,-9.87 16.21,-20 24.43,-29.91 14.74,-17.76 31.66,-36.74 51.92,-49.4 18.18,-11.37 39.13,-17.26 61.18,-16.29 9.09,0.4 20.36,2.18 28.8,5.58 9.71,3.9 14.15,14.33 9.88,23.2 -4.27,8.88 -15.68,12.93 -25.39,9.03zm186.69 132.79c24.02,21.55 12.81,72.13 -25.03,112.98 -37.84,40.85 -87.98,56.49 -112,34.94 -24.01,-21.55 -12.81,-72.13 25.03,-112.98 37.84,-40.84 87.98,-56.49 112,-34.94zm-26.83 25.54c-4.58,-0.69 -14.2,2.65 -17.62,4.1 -14.51,6.16 -27.89,16.98 -38.15,28.05 -11.71,12.64 -22.12,28.61 -26.56,44.78 -1.07,3.91 -3.24,15.4 -1.04,19.9 4.58,0.68 14.2,-2.65 17.62,-4.1 14.51,-6.16 27.89,-16.98 38.15,-28.05 11.71,-12.64 22.12,-28.61 26.56,-44.78 1.07,-3.91 3.24,-15.4 1.04,-19.9zm18.52 84.3c-4.05,34.8 -3.25,70.05 -5.97,104.94 -1.5,19.2 -9.79,37.64 -21.47,53.5 -18.35,24.92 -52.7,52.02 -87.09,53.33 -18.47,0.7 -36.62,-2.92 -52.58,-11.56 -10.47,-5.68 -20.85,-14.14 -26.97,-23.87 -5.29,-8.41 -2.1,-19.2 7.1,-24.04 9.2,-4.83 21.01,-1.92 26.3,6.49 2.7,4.3 8.64,8.65 13.21,11.13 9.51,5.15 20.35,7.09 31.33,6.67 20.9,-0.79 45.8,-22.96 56.73,-37.81 7.86,-10.67 13.99,-23.39 15,-36.35 1.7,-21.79 2.12,-43.33 3.1,-64.81 12.32,-8.03 23.48,-17.75 32.98,-28 2.86,-3.09 5.65,-6.31 8.33,-9.63zm-176.9 -231.68c-4.2,1.75 -8.7,3.64 -13.38,5.65 1.02,-2.87 1.89,-5.71 2.63,-8.51 -2.39,-0.37 -4.93,-0.62 -6.41,-0.68 -11.25,-0.49 -21.6,2.66 -30.83,8.44 -15.35,9.6 -29.23,25.91 -40.42,39.4 -16.33,19.68 -31.55,41.12 -51.3,58.13l-3.86 3.32c-2.59,6.28 -4.46,12.93 -5.44,20.09 -4.31,31.45 22.79,41.88 39.24,55.78 16.45,13.9 49.5,41.2 60.05,44.31 2.91,0.86 8.85,0.57 16.46,-0.57l0.26 -0.89c4.39,-15.13 10.39,-29.9 17.64,-44.08 22.98,-44.93 67.75,-99.12 124.02,-109.22 18.74,-3.36 37.56,-1.09 53.57,8.83 11.39,7.06 19.59,16.73 25.28,27.85 19.67,-24.13 146.25,-179.32 168.28,-205.46 23.9,-28.35 41.87,-57.04 36.94,-67.05 -4.93,-10.01 -16.22,-10.54 -28.87,-14.71 -12.65,-4.17 -30.34,-13.71 -33.76,-26.92 -3.43,-13.21 -14.06,-22.14 -35.33,-17.38 -21.27,4.76 -192.04,172.07 -192.04,172.07 0,0 -22.4,19.27 -70.36,38.56 -6.62,10.28 -19.76,15.47 -32.35,13.03zm-24.35 -58.82c-25.22,-16.92 -72.23,-0.87 -108.16,37.92 -21.37,23.07 -34.24,49.24 -37.08,71.53 2.95,-3.26 5.78,-6.6 8.55,-9.9 8.27,-9.86 16.19,-19.97 24.4,-29.87 15.61,-18.81 32.99,-38.2 54.47,-51.63 17.35,-10.85 37.06,-17.19 57.82,-18.05zm175.93 62.59l140.06 -164.85c0,0 14.03,-2.66 21.73,1.97 7.7,4.62 11.69,19.91 11.69,19.91l-162.74 151.64 -10.74 -8.66z"/>
 </g>
</svg>
