<?xml version="1.0" encoding="UTF-8"?>
<!DOCTYPE svg PUBLIC "-//W3C//DTD SVG 1.1//EN" "http://www.w3.org/Graphics/SVG/1.1/DTD/svg11.dtd">
<!-- Creator: CorelDRAW 2018 (64-Bit) -->
<svg xmlns="http://www.w3.org/2000/svg" xml:space="preserve" width="144.693mm" height="170mm" version="1.1" style="shape-rendering:geometricPrecision; text-rendering:geometricPrecision; image-rendering:optimizeQuality; fill-rule:evenodd; clip-rule:evenodd"
viewBox="0 0 1310.77 1540.02"
 xmlns:xlink="http://www.w3.org/1999/xlink">
 <defs>
  <style type="text/css">
   <![CDATA[
    .fil0 {fill:#FEFEFE}
   ]]>
  </style>
 </defs>
 <g id="Слой_x0020_1">
  <metadata id="CorelCorpID_0Corel-Layer"/>
  <path class="fil0" d="M704.9 664.4l-390.88 585.01c-0.8,1.19 -1.66,2.32 -2.58,3.37 0.98,8.99 -1.05,18.36 -6.44,26.43l-174.26 260.81 -130.74 0 214.61 -321.2c5.39,-8.07 13.27,-13.53 21.95,-16.06 0.62,-1.25 1.33,-2.48 2.13,-3.67l390.88 -585.01c7.13,-10.68 19.5,-15.89 31.49,-14.51l394.7 -590.72c6.09,-9.11 18.53,-11.59 27.64,-5.5l12.05 8.05c9.11,6.09 11.59,18.53 5.5,27.64 -128.47,192.16 -259.89,388.96 -394.7,590.72 5.86,10.55 5.77,23.97 -1.36,34.65zm317.09 116.5c-10.46,-13.78 -19.88,-28.58 -27.08,-41.93 -31.75,-58.84 -41.75,-123.62 -25.32,-188.9 12.66,-50.29 36.39,-99.34 59.43,-145.63 20.99,-42.15 43.92,-85.22 60.02,-129.48 11.61,-31.9 21.72,-70.6 13.13,-104.41 -1.23,-4.83 -2.83,-9.55 -4.82,-14.11l-18.6 -42.79 30.41 -45.49c10.13,23.31 20.26,46.62 30.4,69.93 2.97,6.83 5.38,13.9 7.21,21.12 11.13,43.77 0.61,90.02 -14.48,131.49 -16.75,46.04 -40.25,90.43 -62.07,134.25 -21.43,43.05 -44.24,89.61 -56,136.35 -13.54,53.81 -5.21,106.49 20.78,155.04 9.19,17.16 23.33,38.22 37.95,53.81l-50.95 10.74zm-67.38 37.72l19.66 -4.14 16.74 79.42 -72.85 15.35 -5.53 -26.23c-6.16,-29.25 12.73,-58.23 41.98,-64.39zm72.85 -15.35l76.28 -16.07 16.74 79.42 -76.28 16.07 -16.74 -79.42zm129.46 -27.28l17.79 -3.75c29.25,-6.16 58.23,12.73 64.39,41.98l5.53 26.23 -70.97 14.96 -16.74 -79.42zm98.92 117.65l12.91 61.27 -70.97 14.96 -12.91 -61.27 70.97 -14.96zm24.12 114.45l13.7 65.02 -70.97 14.96 -13.7 -65.02 70.97 -14.96zm24.91 118.21l4.74 22.48c6.16,29.25 -12.73,58.23 -41.98,64.39l-17.79 3.75 -15.94 -75.66 70.97 -14.96zm-108.21 101.83l-76.28 16.07 -15.94 -75.66 76.28 -16.07 15.94 75.66zm-129.46 27.28l-19.67 4.14c-29.25,6.16 -58.23,-12.73 -64.39,-41.98l-4.74 -22.48 72.85 -15.35 15.95 75.66zm-100 -113.5l-13.7 -65.02 72.85 -15.35 13.7 65.02 -72.85 15.35zm-24.91 -118.21l-12.91 -61.27 72.85 -15.35 12.91 61.27 -72.85 15.35zm150.95 91.64l-13.7 -65.02 76.28 -16.07 13.7 65.02 -76.28 16.07zm-24.91 -118.21l-12.91 -61.27 76.28 -16.07 12.91 61.27 -76.28 16.07z"/>
 </g>
</svg>
