<?xml version="1.0" encoding="UTF-8"?>
<!DOCTYPE svg PUBLIC "-//W3C//DTD SVG 1.1//EN" "http://www.w3.org/Graphics/SVG/1.1/DTD/svg11.dtd">
<!-- Creator: CorelDRAW 2018 (64-Bit) -->
<svg xmlns="http://www.w3.org/2000/svg" xml:space="preserve" width="168.28mm" height="170.165mm" version="1.1" style="shape-rendering:geometricPrecision; text-rendering:geometricPrecision; image-rendering:optimizeQuality; fill-rule:evenodd; clip-rule:evenodd"
viewBox="0 0 1247.81 1261.78"
 xmlns:xlink="http://www.w3.org/1999/xlink">
 <defs>
  <style type="text/css">
   <![CDATA[
    .fil0 {fill:#FEFEFE}
   ]]>
  </style>
 </defs>
 <g id="Слой_x0020_1">
  <metadata id="CorelCorpID_0Corel-Layer"/>
  <path class="fil0" d="M259.51 920.22l-76.47 192.2c-18.39,46.23 -14.16,139.28 75.81,148.66 89.97,9.38 111.66,-77.83 104.17,-130.37l-26.85 -188.3c-3.34,-21.53 -16.55,-44.23 -29.77,-62.69 24.71,-1.96 48.02,-16.96 66.27,-40.62 -22.9,-26.49 -38.98,-59.92 -47.34,-91.88 -14.14,-54.05 -11.08,-122.84 25.47,-168.13l4.21 -41.39 -19.6 -74.94c9.35,-3.99 18.39,-8.55 27.09,-13.64l27.33 104.52c5.07,0.08 10.14,1.7 14.78,4.34 6.39,3.63 12.76,7.28 19.13,10.95 -3.29,0.37 -6.57,0.97 -9.83,1.82 -4.91,1.28 -9.59,3.09 -14.04,5.35l-4.2 -2.4c-10.65,-6.06 -14.09,2.68 -13.25,14.77 -31.84,29.96 -44.54,89.5 -28.39,151.23 16,61.17 55.64,106.59 97.64,117.66 2.8,11.53 8.23,22.98 14.28,26.53 14,8.19 44.08,28.48 51.5,42.87l85.14 165.04c7.65,12.96 12.21,30.31 12.28,45.32 0.12,25.76 -11.31,39.9 -36.69,46.46 -17.54,4.54 -32.48,3.15 -45.25,-10.43 -13.12,-13.96 -21.61,-38.65 -21.2,-57.59l-6.02 -177.72c-9.94,-11.28 -21.64,-22.41 -34.73,-30.05l-4.46 206.8c-1.07,49.74 35.41,135.45 123,112.78 87.57,-22.66 77.41,-111.95 52.03,-158.56l-90.98 -167.04c-10.65,-19 -30.96,-35.65 -49.8,-48.33 22.46,-10.47 39.06,-32.68 47.89,-61.23 -30.71,-16.81 -57.47,-42.52 -76.47,-69.53 -32.14,-45.7 -53.32,-111.21 -34.91,-166.42l-10.53 -40.26 -52.3 -74.37c8.25,-5.5 16.15,-11.49 23.64,-17.94l66.86 95.08c4.78,-1.7 10.09,-1.95 15.37,-1.1 7.25,1.17 14.5,2.36 21.75,3.57 -2.96,1.5 -5.82,3.21 -8.57,5.14 -4.15,2.92 -7.91,6.24 -11.28,9.92l-4.78 -0.77c-12.1,-1.95 -12.27,7.43 -7.25,18.47 -19.36,39.2 -10.45,99.42 26.26,151.62 36.37,51.72 89.39,80.42 132.61,76.11 6.65,9.83 15.74,18.66 22.65,19.86 15.98,2.78 51.25,11.27 63.24,22.17l137.46 124.87c11.7,9.47 22.04,24.13 27.35,38.17 9.12,24.1 3.35,41.34 -18.13,56.36 -14.84,10.38 -29.33,14.3 -46.04,6.04 -17.17,-8.49 -33.76,-28.66 -40,-46.55l-67.77 -164.41c-13.26,-7.1 -28.11,-13.43 -43.05,-16.02l68.11 195.32c16.38,46.98 80.53,114.52 154.66,62.68 74.13,-51.84 33.39,-131.95 -6.68,-166.74l-143.63 -124.7c-16.62,-14.08 -41.47,-22.58 -63.55,-27.87 17.39,-17.66 25.18,-44.27 23.47,-74.1 -34.65,-5.01 -68.71,-19.75 -95.95,-38.42 -46.08,-31.58 -88.83,-85.56 -90.88,-143.72l-23.93 -34.03 -79.75 -54.66c7.26,-6.88 14.1,-14.2 20.47,-21.93l96.04 65.82c3.88,-3.26 8.77,-5.36 14.01,-6.4 7.2,-1.44 14.41,-2.86 21.62,-4.26 -2.25,2.44 -4.33,5.04 -6.23,7.82 -2.87,4.19 -5.23,8.61 -7.1,13.24l-4.74 0.94c-12.02,2.4 -8.9,11.25 -0.34,19.84 -4.44,43.49 24.97,96.8 77.6,132.87 52.15,35.74 111.86,44.1 150.85,24.96 9.67,6.88 21.27,11.98 28.17,10.69 15.94,-2.98 51.96,-7.35 67,-1.34l172.44 68.94c14.27,4.78 29.08,14.9 38.97,26.2 16.96,19.39 17.58,37.56 2.71,59.14 -10.28,14.91 -22.48,23.65 -41.02,21.75 -19.06,-1.95 -41.65,-15.05 -53.74,-29.63l-120.96 -130.35c-14.9,-2.02 -31.03,-2.76 -45.93,0.04l132.09 159.19c31.77,38.29 115.48,79.15 166.81,4.66 51.33,-74.48 -14.84,-135.3 -64.54,-153.89l-178.15 -66.63c-20.5,-7.38 -46.75,-6.66 -69.29,-3.9 10.12,-22.62 8.11,-50.28 -3.92,-77.63 -34.22,7.42 -71.28,5.52 -103.33,-2.45 -54.22,-13.48 -113.13,-49.12 -135.39,-102.88l-34.32 -23.52 -91.8 -22.83c6.22,-8.38 11.9,-17.17 17,-26.34l105.47 26.22c2.5,-4.41 6.34,-8.08 10.89,-10.9 6.25,-3.87 12.5,-7.71 18.77,-11.55 -1.25,3.07 -2.3,6.23 -3.11,9.5 -1.22,4.93 -1.88,9.9 -2.03,14.88l-4.12 2.54c-10.42,6.45 -4.4,13.65 6.62,18.71 11.05,42.3 57.23,81.97 119.15,97.36 61.36,15.26 120.22,2.21 150.06,-29.35 11.47,3.07 24.11,3.79 30.13,0.17 13.9,-8.36 46.11,-25.05 62.3,-24.67l185.66 4.31c15.05,-0.51 32.45,3.8 45.67,10.93 22.67,12.24 29.6,29.04 23.21,54.46 -4.42,17.57 -12.79,30.01 -30.83,34.72 -18.54,4.83 -44.28,0.46 -60.71,-8.97l-158.9 -79.84c-14.67,3.32 -30.04,8.26 -43.02,16.09l179.4 102.97c43.15,24.76 135.86,33.79 157.92,-53.95 22.06,-87.72 -61.2,-121.58 -114.27,-121.62l-190.21 -0.15c-21.78,0.25 -46.13,10.1 -66.28,20.57 3.2,-50.43 -48.1,-102.85 -121.55,-121.11 -66.5,-16.54 -130.08,0.17 -156.94,37.67l-124.91 -31.06c7.75,-23.64 11.96,-48.89 11.96,-75.12 0,-133.1 -107.89,-240.99 -240.99,-240.99 -133.1,0 -240.99,107.89 -240.99,240.99 0,133.1 107.89,240.99 240.99,240.99 26.36,0 51.72,-4.24 75.45,-12.07l-9.16 90.12c4.72,1.85 8.9,5.13 12.33,9.23 4.71,5.63 9.41,11.28 14.09,16.94 -3.22,-0.8 -6.5,-1.39 -9.85,-1.73 -5.05,-0.51 -10.07,-0.46 -15.02,0.11l-3.1 -3.71c-7.86,-9.4 -14.14,-2.42 -17.58,9.21 -40.3,16.94 -73.02,68.29 -79.47,131.77 -6.39,62.9 14.87,119.31 50.35,144.37 -1.41,11.79 -0.33,24.41 4.11,29.84 10.25,12.57 31.34,42.09 33.27,58.17l22.08 184.39c2.64,14.82 0.85,32.66 -4.34,46.76 -8.89,24.18 -24.54,33.42 -50.62,30.71 -18.02,-1.88 -31.53,-8.4 -38.75,-25.59 -7.42,-17.66 -6.74,-43.77 0.27,-61.37l56.48 -168.62c-5.37,-14.05 -12.44,-28.56 -22.04,-40.3zm-18.53 -771.92c51.19,0 92.69,41.5 92.69,92.69 0,51.19 -41.5,92.69 -92.69,92.69 -51.19,0 -92.69,-41.5 -92.69,-92.69 0,-51.19 41.5,-92.69 92.69,-92.69z"/>
 </g>
</svg>
