<svg width="56" height="14" viewBox="0 0 56 14" fill="none" xmlns="http://www.w3.org/2000/svg">
<path fill-rule="evenodd" clip-rule="evenodd" d="M6.87227 2.74477e-07C7.91255 0.00165121 8.93869 0.241083 9.87227 0.7C10.0156 0.766667 10.1589 0.841667 10.3023 0.925L9.66727 1.49L8.71727 0.49L7.11227 1.92L6.15727 0.88L3.15727 3.575L5.07227 5.69L4.31727 6.355L6.20727 8.47L5.45727 9.13L8.15727 12.13L9.75727 10.655L11.1723 12.255C10.8858 12.4771 10.5833 12.6776 10.2673 12.855C7.75866 14.2779 4.62861 13.9838 2.42893 12.1186C0.229248 10.2533 -0.57241 7.21339 0.421401 4.50596C1.41521 1.79854 3.99321 -0.000811378 6.87727 2.74477e-07H6.87227Z" transform="translate(41.4478 0.245117)" fill="#006BB2"/>
<path fill-rule="evenodd" clip-rule="evenodd" d="M0 1.47L1.635 0L3.105 1.635L1.47 3.105L0 1.47Z" transform="translate(47.07 5.21484)" fill="#006BB2"/>
<path fill-rule="evenodd" clip-rule="evenodd" d="M0 1.47L1.635 0L3.11 1.635L1.475 3.11L0 1.47Z" transform="translate(48.23 8.04004)" fill="#006BB2"/>
<path fill-rule="evenodd" clip-rule="evenodd" d="M0 1.475L1.635 0L3.105 1.64L1.47 3.11L0 1.475Z" transform="translate(45.9 2.41992)" fill="#006BB2"/>
<path fill-rule="evenodd" clip-rule="evenodd" d="M0 1.1L1.225 0L2.33 1.225L1.105 2.33L0 1.1Z" transform="translate(48.9 2)" fill="#006BB2"/>
<path fill-rule="evenodd" clip-rule="evenodd" d="M0 1.105L1.225 0L2.33 1.225L1.105 2.33L0 1.105Z" transform="translate(51.08 7.05469)" fill="#006BB2"/>
<path fill-rule="evenodd" clip-rule="evenodd" d="M0 1.105L1.23 0L2.33 1.23L1.105 2.335L0 1.105Z" transform="translate(52.155 9.53027)" fill="#006BB2"/>
<path fill-rule="evenodd" clip-rule="evenodd" d="M0 0.735L0.82 0L1.555 0.815L0.74 1.55L0 0.735Z" transform="translate(52.65 4.22559)" fill="#006BB2"/>
<path fill-rule="evenodd" clip-rule="evenodd" d="M0 0.735L0.82 0L1.555 0.815L0.74 1.555L0 0.735Z" transform="translate(51.605 1.79492)" fill="#006BB2"/>
<path fill-rule="evenodd" clip-rule="evenodd" d="M0 0.74L0.82 0L1.555 0.82L0.735 1.555L0 0.74Z" transform="translate(53.695 6.65039)" fill="#006BB2"/>
<path fill-rule="evenodd" clip-rule="evenodd" d="M0 1.105L1.225 0L2.33 1.225L1.105 2.33L0 1.105Z" transform="translate(50.03 4.46484)" fill="#006BB2"/>
<path d="M3.21 1.645H3.155L2.12 5.56H1.25L0 0H0.88L1.75 4.15H1.805L2.805 0H3.505L4.595 4.15H4.65L5.45 0H6.37L5.125 5.56H4.275L3.21 1.645Z" transform="translate(0.25 4.29004)" fill="#006BB2"/>
<path fill-rule="evenodd" clip-rule="evenodd" d="M3.25 3.75V3.15527C2.88068 3.40332 2.44955 3.54297 2.005 3.55957C1.19501 3.55957 0.809998 3.14453 0.809998 2.20508H3.36499V1.91504C3.36499 0.634766 2.78 0 1.78 0C0.605011 0 0 0.81543 0 2.05469C0 3.29492 0.540009 4.11035 1.85999 4.11035C2.34695 4.11426 2.82645 3.99023 3.25 3.75ZM2.63 1.65527H0.825012C0.915009 0.884766 1.34003 0.5 1.76501 0.5C2.19 0.5 2.59003 0.830078 2.63 1.65527Z" transform="translate(6.87 5.84473)" fill="#006BB2"/>
<path fill-rule="evenodd" clip-rule="evenodd" d="M1.875 1.96973C1.50378 1.98145 1.14059 2.08105 0.815002 2.25977V0L0 0.195312V5.69531C0.475677 5.93359 0.997955 6.06543 1.53 6.08008C2.67001 6.08008 3.375 5.36523 3.375 3.90039C3.375 2.64453 2.85001 1.96973 1.875 1.96973ZM1.535 5.53027C1.28903 5.53711 1.0441 5.49512 0.815002 5.40527L0.795013 2.83984C1.05045 2.67578 1.34644 2.58594 1.65002 2.58008C2.17502 2.58008 2.535 2.90039 2.535 3.90039C2.535 5.16992 2.11502 5.53027 1.535 5.53027Z" transform="translate(10.955 3.86523)" fill="#006BB2"/>
<path d="M2.705 4.385H2.745L4.425 0H5.4V5.56H4.55V1.53H4.48L2.88 5.565H2.38L0.78 1.625H0.71V5.56H0V0H0.95L2.705 4.385Z" transform="translate(15.19 4.29004)" fill="#006BB2"/>
<path fill-rule="evenodd" clip-rule="evenodd" d="M1.78998 0C0.755005 0 0 0.679688 0 2.05469C0 3.39453 0.715027 4.11035 1.78998 4.11035C2.86499 4.11035 3.58002 3.42969 3.58002 2.05469C3.58002 0.679688 2.82501 0 1.78998 0ZM1.79004 0.554688C2.32501 0.554688 2.755 0.995117 2.755 2.05469C2.755 3.12988 2.34503 3.55469 1.79004 3.55469C1.23499 3.55469 0.825012 3.10938 0.825012 2.05469C0.825012 1 1.255 0.554688 1.79004 0.554688Z" transform="translate(21.45 5.83496)" fill="#006BB2"/>
<path d="M0 0.58C0.603767 0.21348 1.29382 0.0133655 2 0C2.94 0 3.295 0.37 3.295 1.175V4.015H2.48V1.355C2.48 0.735 2.175 0.625 1.775 0.625C1.43924 0.642909 1.11227 0.738775 0.82 0.905V4.015H0V0.58Z" transform="translate(25.77 5.83496)" fill="#006BB2"/>
<path fill-rule="evenodd" clip-rule="evenodd" d="M3.25 3.75V3.15527C2.87921 3.4043 2.44629 3.54395 2 3.55957C1.19501 3.55957 0.809998 3.14453 0.809998 2.20508H3.36499V1.91504C3.36499 0.634766 2.78003 0 1.78003 0C0.60498 0 0 0.81543 0 2.05469C0 3.29492 0.539978 4.11035 1.85999 4.11035C2.34692 4.11426 2.82648 3.99023 3.25 3.75ZM2.62 1.65527H0.825012C0.910034 0.884766 1.33002 0.5 1.755 0.5C2.17999 0.5 2.58002 0.830078 2.62 1.65527Z" transform="translate(29.795 5.84473)" fill="#006BB2"/>
<path d="M2.805 0H3.645L2.225 3.925C1.835 5.01 1.355 5.57 0.45 5.57V4.93C0.985 4.93 1.315 4.505 1.5 3.93L0 0.005H0.865L1.865 2.89H1.91L2.805 0Z" transform="translate(33.41 5.96484)" fill="#006BB2"/>
</svg>
