<?xml version="1.0" encoding="UTF-8"?>
<!DOCTYPE svg PUBLIC "-//W3C//DTD SVG 1.1//EN" "http://www.w3.org/Graphics/SVG/1.1/DTD/svg11.dtd">
<!-- Creator: CorelDRAW 2018 (64-Bit) -->
<svg xmlns="http://www.w3.org/2000/svg" xml:space="preserve" width="176.735mm" height="173mm" version="1.1" style="shape-rendering:geometricPrecision; text-rendering:geometricPrecision; image-rendering:optimizeQuality; fill-rule:evenodd; clip-rule:evenodd"
viewBox="0 0 408.58 399.95"
 xmlns:xlink="http://www.w3.org/1999/xlink">
 <defs>
  <style type="text/css">
   <![CDATA[
    .fil0 {fill:#FEFEFE}
   ]]>
  </style>
 </defs>
 <g id="Слой_x0020_1">
  <metadata id="CorelCorpID_0Corel-Layer"/>
  <path class="fil0" d="M319.69 58.54c7.26,7.34 12.17,16.69 14.01,26.89 6.04,8.76 11.47,18.08 16.42,27.48 8.29,15.77 15.38,32.24 21.52,48.96 1.78,4.85 -0.71,10.22 -5.56,12 -4.85,1.78 -10.22,-0.71 -12,-5.56 -5.6,-15.25 -12.05,-30.42 -19.56,-44.92l0 71.82c14.07,44.01 22.12,90.69 26.08,136.69l27.32 0c-3.81,-46.48 -11.57,-93.21 -25.2,-137.83 -1.51,-4.94 1.28,-10.17 6.21,-11.68 4.93,-1.51 10.17,1.28 11.68,6.21 17.06,55.83 25.3,114.96 27.97,173.17 0.17,3.7 -1.21,7.4 -3.77,10.08 -2.58,2.7 -6.18,4.24 -9.9,4.24l-37.27 0c-7.31,0 -13.32,-5.72 -13.67,-13.02 -1.43,-29.43 -4.43,-58.95 -9.44,-88.07l0 87.33c0,4.8 -2.56,9.16 -6.58,11.55l0 8.86c0,9.48 -7.71,17.2 -17.2,17.2l-212.88 0c-9.48,0 -17.2,-7.71 -17.2,-17.2l0 -8.86c-4.01,-2.39 -6.58,-6.75 -6.58,-11.55l0 -87.33c-5.01,29.12 -8.01,58.64 -9.44,88.06 -0.35,7.3 -6.37,13.02 -13.67,13.02l-37.27 -0c-3.72,0 -7.32,-1.54 -9.9,-4.23 -2.56,-2.68 -3.95,-6.38 -3.78,-10.08 3.09,-67.35 13.64,-136.42 36.94,-199.91 6.14,-16.72 13.23,-33.19 21.52,-48.96 4.94,-9.41 10.37,-18.73 16.42,-27.49 1.84,-10.2 6.75,-19.55 14,-26.89 -2.9,-5.66 -4.41,-11.91 -4.41,-18.31 0,-22.19 18.05,-40.23 40.24,-40.23l159.16 0c22.19,0 40.23,18.04 40.23,40.23 0,6.4 -1.51,12.65 -4.41,18.31zm-273.49 298.86c0.12,-2.26 0.26,-4.52 0.4,-6.78l-27.27 -0c-0.14,2.26 -0.26,4.52 -0.38,6.78l27.25 0zm27.87 -162.17l-0 -71.82c-7.51,14.5 -13.97,29.67 -19.56,44.92 -19.16,52.2 -29.32,108.25 -33.85,163.59l27.33 0c3.96,-46 12.01,-92.67 26.08,-136.69zm177.53 -168.59c3.86,-3.4 8.31,-6.11 13.1,-7.93l-120.69 0c4.8,1.82 9.24,4.52 13.07,7.93l94.52 0zm-47.32 62.97l18.06 -24.7c-1.71,1.81 -4.12,2.94 -6.81,2.94l-22.51 0c-5.16,0 -9.35,-4.19 -9.35,-9.35l0 -13.16 -11.78 -0 2.34 3.2c3.05,4.17 2.14,10.02 -2.03,13.07 -4.17,3.05 -10.02,2.14 -13.07,-2.03l-10.35 -14.15c-0.08,-0.11 -0.16,-0.22 -0.23,-0.34 -2.89,-4.34 -7.19,-7.62 -12.13,-9.27 -3.71,-1.24 -8.39,-1.68 -12.06,-0.05 -4.96,2.2 -4.63,7.53 -3.5,12 1.65,6.52 10.7,13.4 15.95,16.99 10.05,6.88 21.64,12.59 32.78,17.47 2.93,1.28 5.87,2.52 8.84,3.72l-2.08 -2.85c-3.05,-4.17 -2.14,-10.02 2.03,-13.07 4.17,-3.05 10.02,-2.14 13.07,2.03l12.82 17.53zm19.44 -26.58l12.94 -17.69 -11.77 0 0 13.16c0,1.64 -0.42,3.19 -1.17,4.53zm-21.34 -13.88l3.81 0 0 -3.81 -3.81 0 0 3.81zm27.73 36.82c2.96,-1.2 5.91,-2.44 8.84,-3.72 11.14,-4.88 22.73,-10.6 32.78,-17.47 5.25,-3.59 14.3,-10.48 15.95,-16.99 0.76,-2.99 1.31,-7.37 -0.75,-10.01 -1.79,-2.3 -5.32,-3.02 -8.07,-3.02 -7.42,0 -14.79,4.39 -18.92,10.44 -0.06,0.08 -0.12,0.17 -0.18,0.25l-29.64 40.53zm-137.34 271.13l91.68 0 0 -69.26c0,-5.16 4.19,-9.35 9.35,-9.35 5.16,0 9.35,4.19 9.35,9.35l0 69.26 2.26 0 0 -242.84c-0.25,0.02 -0.51,0.03 -0.76,0.03 -0.25,0 -0.5,0 -0.75,0 -0.25,0 -0.5,-0.01 -0.75,-0.03l0 144.55c0,5.16 -4.19,9.35 -9.35,9.35 -5.16,0 -9.35,-4.19 -9.35,-9.35l0 -150.59c-9.36,-3.4 -18.63,-7.13 -27.69,-11.25 -10.34,-4.71 -20.83,-10.07 -30.25,-16.5l-1.81 0c-8.53,0 -16.74,-2.69 -23.58,-7.66 -5.36,5.94 -8.36,13.61 -8.36,21.7l0 262.59zm33.18 -113.16c7.32,0 13.27,5.95 13.27,13.27l0 61.22c0,7.32 -5.95,13.27 -13.27,13.27l-18.47 0c-7.32,0 -13.27,-5.95 -13.27,-13.27l0 -61.22c0,-7.32 5.95,-13.27 13.27,-13.27l18.47 0zm-5.43 69.07l0 -50.36 -7.61 0 0 50.36 7.61 0zm188.7 68.24l0 -5.44 -209.87 -0 0 5.44 209.87 0zm-85.1 -246.34c3.25,-5.61 9.32,-9.39 16.25,-9.39 10.35,0 18.76,8.42 18.76,18.76 0,10.35 -8.42,18.76 -18.76,18.76 -6.94,0 -13,-3.78 -16.25,-9.39l0 39.3c3.25,-5.61 9.32,-9.39 16.25,-9.39 10.35,0 18.76,8.42 18.76,18.76 0,10.35 -8.42,18.76 -18.76,18.76 -6.94,0 -13,-3.78 -16.25,-9.39l0 39.3c3.25,-5.61 9.32,-9.39 16.25,-9.39 10.35,0 18.76,8.42 18.76,18.76 0,10.35 -8.42,18.76 -18.76,18.76 -6.94,0 -13,-3.78 -16.25,-9.39l0 39.3c3.25,-5.61 9.32,-9.39 16.25,-9.39 10.35,0 18.76,8.42 18.76,18.76 0,10.35 -8.42,18.76 -18.76,18.76 -6.94,0 -13,-3.78 -16.25,-9.39l0 29.29 91.68 0 0 -262.59c0,-8.09 -3,-15.76 -8.36,-21.7 -6.84,4.97 -15.05,7.66 -23.58,7.66l-1.82 0c-9.41,6.43 -19.9,11.79 -30.25,16.5 -9.05,4.12 -18.33,7.85 -27.68,11.25l0 26.69zm76.96 109.03c7.32,0 13.27,5.95 13.27,13.27l0 61.22c0,7.32 -5.95,13.27 -13.27,13.27l-18.47 0c-7.32,0 -13.27,-5.95 -13.27,-13.27l0 -61.22c0,-7.32 5.95,-13.27 13.27,-13.27l18.47 0zm-5.43 69.07l0 -50.36 -7.61 0 0 50.36 7.61 0zm-55.28 -168.66c0.03,0 0.06,-0.03 0.06,-0.06 0,-0.03 -0.03,-0.06 -0.06,-0.06 -0.03,0 -0.06,0.03 -0.06,0.06 0,0.03 0.03,0.06 0.06,0.06zm0 58.05c0.03,0 0.06,-0.03 0.06,-0.06 0,-0.03 -0.03,-0.06 -0.06,-0.06 -0.03,0 -0.06,0.03 -0.06,0.06 0,0.03 0.03,0.06 0.06,0.06zm0 58.05c0.03,0 0.06,-0.03 0.06,-0.06 0,-0.03 -0.03,-0.06 -0.06,-0.06 -0.03,0 -0.06,0.03 -0.06,0.06 0,0.03 0.03,0.06 0.06,0.06zm0 58.05c0.03,0 0.06,-0.03 0.06,-0.06 0,-0.03 -0.03,-0.06 -0.06,-0.06 -0.03,0 -0.06,0.03 -0.06,0.06 0,0.03 0.03,0.06 0.06,0.06zm122 38.91l27.25 0c-0.12,-2.26 -0.25,-4.52 -0.39,-6.79l-27.26 -0c0.14,2.26 0.28,4.52 0.4,6.78z"/>
 </g>
</svg>
