<svg width="20" height="20" viewBox="0 0 20 20" fill="none" xmlns="http://www.w3.org/2000/svg">
<mask id="mask0" mask-type="alpha" maskUnits="userSpaceOnUse" x="0" y="1" width="19" height="19">
<path fill-rule="evenodd" clip-rule="evenodd" d="M0 0H18.9749V18.9745H0V0Z" transform="translate(0 1.02539)" fill="white"/>
</mask>
<g mask="url(#mask0)">
<path fill-rule="evenodd" clip-rule="evenodd" d="M17.5019 15.7863C17.4976 15.7863 17.4976 15.7906 17.5019 15.7863C17.3354 15.9649 17.1646 16.1264 16.981 16.3049C16.7035 16.5684 16.4217 16.8447 16.157 17.155C15.7257 17.6141 15.2176 17.8309 14.5516 17.8309C14.4875 17.8309 14.4192 17.8309 14.3552 17.8266C13.0871 17.7459 11.9086 17.2528 11.0248 16.832C8.60819 15.6673 6.48617 14.0139 4.7228 11.9183C3.26684 10.1714 2.29336 8.55614 1.64864 6.82196C1.25156 5.76353 1.10639 4.93892 1.17044 4.16107C1.21314 3.66375 1.40527 3.25149 1.75965 2.89865L3.21561 1.44921C3.42482 1.25372 3.64684 1.14746 3.8646 1.14746C4.13358 1.14746 4.35134 1.30894 4.48797 1.445C4.49224 1.44921 4.49651 1.45346 4.50078 1.45771C4.76122 1.70003 5.00887 1.95077 5.26931 2.21856C5.40167 2.35458 5.5383 2.4906 5.67493 2.63086L6.84055 3.79127C7.29314 4.24183 7.29314 4.65838 6.84055 5.10894C6.71673 5.23221 6.59718 5.35551 6.47336 5.47449C6.11471 5.84004 5.77313 6.18008 5.40167 6.51162C5.39314 6.52013 5.3846 6.52442 5.38033 6.53288C5.01313 6.89843 5.08145 7.25547 5.1583 7.49775C5.16257 7.51051 5.16684 7.5233 5.17111 7.53601C5.47426 8.26711 5.90123 8.95574 6.55021 9.7761L6.55448 9.7803C7.73291 11.2255 8.97538 12.3519 10.3459 13.2148C10.521 13.3253 10.7003 13.4145 10.8711 13.4995C11.0248 13.5761 11.17 13.6483 11.2939 13.7248C11.3109 13.7333 11.328 13.7461 11.345 13.7546C11.4902 13.8268 11.6268 13.8608 11.7677 13.8608C12.1221 13.8608 12.3441 13.6398 12.4167 13.5676L13.877 12.1139C14.0221 11.9693 14.2527 11.7951 14.5217 11.7951C14.7864 11.7951 15.0041 11.9608 15.1365 12.1054C15.1408 12.1096 15.1408 12.1096 15.145 12.1139L17.4976 14.4559C17.9374 14.8895 17.9374 15.3358 17.5019 15.7863ZM15.9733 11.3107C15.5591 10.8814 15.0596 10.6519 14.5302 10.6519C14.005 10.6519 13.5012 10.8771 13.0699 11.3065L11.7208 12.6454C11.6097 12.5859 11.4987 12.5306 11.392 12.4754C11.2382 12.3989 11.0931 12.3266 10.9693 12.2501C9.70543 11.451 8.55689 10.4096 7.45532 9.06219C6.92161 8.39056 6.56296 7.82524 6.30251 7.25141C6.65263 6.93262 6.97712 6.60108 7.29307 6.28228C7.41263 6.16331 7.53218 6.04 7.65173 5.92099C8.54836 5.02837 8.54836 3.87222 7.65173 2.9796L6.48611 1.8192C6.35375 1.68743 6.21712 1.55145 6.08903 1.41539C5.83285 1.15186 5.56386 0.879823 5.28633 0.62479C4.87218 0.216736 4.37689 0 3.856 0C3.3351 0 2.83128 0.216736 2.40431 0.62479C2.40004 0.62904 2.40004 0.62904 2.39577 0.633291L0.944086 2.09123C0.397569 2.63535 0.0858836 3.29839 0.017569 4.06774C-0.0849029 5.30891 0.282288 6.46506 0.564086 7.22166C1.25577 9.07915 2.28903 10.8006 3.83038 12.6454C5.70049 14.8684 7.9506 16.6239 10.5209 17.8608C11.503 18.3241 12.8137 18.8725 14.2782 18.966C14.3679 18.9702 14.4618 18.9745 14.5472 18.9745C15.5335 18.9745 16.3618 18.6217 17.0108 17.9203C17.0151 17.9118 17.0236 17.9076 17.0279 17.8991C17.2499 17.6313 17.5061 17.389 17.7751 17.1298C17.9587 16.9554 18.1466 16.7727 18.3302 16.5814C18.7528 16.1436 18.9749 15.6335 18.9749 15.1107C18.9749 14.5836 18.7486 14.0779 18.3173 13.6528L15.9733 11.3107Z" transform="translate(0 1.02539)" fill="white"/>
</g>
<path fill-rule="evenodd" clip-rule="evenodd" d="M0.466885 1.12539C1.56779 1.31029 2.56785 1.83137 3.36621 2.6298C4.16457 3.42822 4.68145 4.42836 4.87054 5.52935C4.91672 5.8067 5.15627 6 5.42939 6C5.46297 6 5.49242 5.9958 5.526 5.9916C5.83694 5.94117 6.04283 5.64701 5.99241 5.33604C5.76555 4.00393 5.13526 2.78948 4.17298 1.82717C3.21078 0.864854 1.99638 0.234516 0.664375 0.00759505C0.353475 -0.0428319 0.0635007 0.163078 0.00891773 0.469842C-0.0457072 0.776606 0.155985 1.07497 0.466885 1.12539Z" transform="translate(11 4)" fill="white"/>
<mask id="mask1" mask-type="alpha" maskUnits="userSpaceOnUse" x="11" y="0" width="9" height="9">
<path fill-rule="evenodd" clip-rule="evenodd" d="M0 0H8.94768V8.98423H0V0Z" transform="translate(11.0172 0.0078125)" fill="white"/>
</mask>
<g mask="url(#mask1)">
<path fill-rule="evenodd" clip-rule="evenodd" d="M8.93949 8.36023C8.58511 6.27223 7.60542 4.37223 6.10011 2.86023C4.5948 1.34823 2.70321 0.364233 0.62445 0.00823259C0.333742 -0.0437674 0.0589633 0.156233 0.00719337 0.448233C-0.0405942 0.744233 0.154539 1.02023 0.449229 1.07223C2.30498 1.38823 3.99746 2.27223 5.34348 3.62023C6.68949 4.97223 7.5656 6.67223 7.8802 8.53623C7.92401 8.80023 8.151 8.98423 8.40985 8.98423C8.44171 8.98423 8.46958 8.98023 8.50144 8.97623C8.79215 8.93223 8.99126 8.65223 8.93949 8.36023Z" transform="translate(11.0172 0.0078125)" fill="white"/>
</g>
</svg>
