<svg width="27" height="15" viewBox="0 0 27 15" fill="none" xmlns="http://www.w3.org/2000/svg">
<g opacity="0.8">
<mask id="mask0" mask-type="alpha" maskUnits="userSpaceOnUse" x="0" y="0" width="27" height="15">
<path fill-rule="evenodd" clip-rule="evenodd" d="M0 0H26.54V14.5165H0V0Z" fill="white"/>
</mask>
<g mask="url(#mask0)">
<path fill-rule="evenodd" clip-rule="evenodd" d="M15.4163 10.4007L18.8269 14.2753C19.0347 14.5114 19.3733 14.5825 19.6585 14.4499L20.1153 14.2376C20.9482 13.8504 21.4389 12.9725 21.3322 12.0602L20.9052 8.40938C20.8788 8.18349 20.6495 8.04051 20.435 8.11605L15.5646 9.8317C15.3276 9.91531 15.2501 10.2121 15.4163 10.4007ZM26.54 2.47595C26.54 7.06707 4.40711 12.1347 2.73119 12.1347C1.79158 12.1347 0.72551 11.9181 0.72551 11.0519C0.72551 10.7625 1.05956 10.3442 1.64574 9.83989L1.64509 9.8402L0.0914553 7.07969C-0.118913 6.706 0.0478725 6.23253 0.445973 6.07308L0.712977 5.96618C1.1969 5.77242 1.74153 5.8013 2.20221 6.04515L5.02269 7.53833C6.12085 6.88697 7.36658 6.205 8.67957 5.53356L3.18315 1.96762C2.74832 1.68552 2.75296 1.04743 3.19187 0.771668L3.64148 0.489225C4.38981 0.0190509 5.29954 -0.119764 6.15402 0.105566L15.2977 2.51745C18.1487 1.38582 20.7263 0.613469 22.2521 0.613469C22.6595 0.613469 23.0676 0.624267 23.4614 0.652412L20.7001 1.89897L20.634 2.82778L24.8964 0.868374C25.9182 1.11205 26.54 1.56683 26.54 2.47595Z" fill="#4D4D4D"/>
</g>
</g>
</svg>
