<?xml version="1.0" encoding="UTF-8"?>
<!DOCTYPE svg PUBLIC "-//W3C//DTD SVG 1.1//EN" "http://www.w3.org/Graphics/SVG/1.1/DTD/svg11.dtd">
<!-- Creator: CorelDRAW 2018 (64-Bit) -->
<svg xmlns="http://www.w3.org/2000/svg" xml:space="preserve" width="166.481mm" height="169.038mm" version="1.1" style="shape-rendering:geometricPrecision; text-rendering:geometricPrecision; image-rendering:optimizeQuality; fill-rule:evenodd; clip-rule:evenodd"
viewBox="0 0 1224.43 1243.24"
 xmlns:xlink="http://www.w3.org/1999/xlink">
 <defs>
  <style type="text/css">
   <![CDATA[
    .fil0 {fill:#FEFEFE}
   ]]>
  </style>
 </defs>
 <g id="Слой_x0020_1">
  <metadata id="CorelCorpID_0Corel-Layer"/>
  <path class="fil0" d="M91.73 1026.63l-74.57 -26.9c0,0 -33.92,-16.02 -6.37,-56.78 27.55,-40.76 134.55,-113.51 171.25,-126.09 23.72,-8.13 44.24,-2.56 65.96,6.3l-29.97 29.97c-4.34,4.34 -7.84,9.22 -10.5,14.42 -10.87,-1.99 -26.51,0.04 -48.44,12.4 -54.65,30.79 -118.74,70.88 -96.91,95.06 21.83,24.18 58.89,39.81 29.57,51.61zm768.06 -779.49c0,0 -16.78,2.42 57.67,-111.02 199.43,-303.84 471.49,-32.75 178.07,170.86 -75.61,52.47 -91.56,85.79 -117.51,31 -25.95,-54.79 -56.23,-76.42 -118.23,-90.83zm-122.74 82.36l-128.32 128.32c0,0 -15.5,11.54 -17.12,21.81 -1.62,10.27 -2.16,15.86 -14.06,29.2 -11.89,13.34 -122.74,127.06 -122.74,127.06 0,0 2.52,19.83 -1.8,50.83 -4.33,31 -6.3,63.62 36.23,62.18 42.53,-1.44 59.48,-10.45 76.42,7.93 16.94,18.38 24.87,38.57 50.1,13.34 25.23,-25.23 124.36,-123.64 124.36,-123.64 0,0 1.8,-9.73 18.02,-7.93 16.22,1.8 24.87,-21.99 35.69,-30.64 10.81,-8.65 26.67,-30.28 60.2,-21.27 33.52,9.01 97.68,23.43 162.93,18.74 65.24,-4.69 121.11,-38.21 45.78,-69.57 -75.34,-31.36 -130.85,-67.41 -178.43,-116.43 -47.58,-49.02 -105.61,-86.87 -120.03,-94.08 -14.42,-7.21 -27.22,4.15 -27.22,4.15zm-498.6 544.07l185.18 -185.18c-2.81,22.33 -3.57,46.46 10.13,65.54 13.24,18.45 34.67,24.58 56.46,23.84 13.38,-0.45 26.27,-1.93 39.55,-3.03 2.51,-0.21 10.32,-0.88 12.73,-0.02 0.46,0.16 1.61,1.37 1.91,1.69 9.04,9.81 15.9,20.28 26.46,27.16l-201.2 201.2c-11.24,11.24 -29.63,11.24 -40.87,0l-90.34 -90.34c-11.24,-11.24 -11.24,-29.63 0,-40.87zm561 -561l42.33 -42.33c2.64,1.76 5.59,3.22 8.87,4.31l1.28 0.43 1.31 0.31c51.38,11.95 75.85,26.9 98.66,75.06 7.42,15.66 17.27,31.39 32.2,39.99l-42.48 42.48c-12.63,-10.27 -24.82,-21.39 -36.58,-33.51 -23.24,-23.94 -49.18,-45.96 -75.99,-65.81 -8.92,-6.61 -19.19,-14.12 -29.59,-20.93zm-379.39 682.67c8.87,21.72 14.43,42.23 6.3,65.96 -12.58,36.7 -85.32,143.7 -126.09,171.25 -40.76,27.55 -56.78,-6.37 -56.78,-6.37l-26.9 -74.57c11.8,-29.32 27.42,7.74 51.61,29.57 24.18,21.83 64.27,-42.27 95.06,-96.91 12.36,-21.93 14.39,-37.57 12.4,-48.44 5.2,-2.66 10.08,-6.16 14.42,-10.51l29.97 -29.97z"/>
 </g>
</svg>
