<svg width="10" height="10" viewBox="0 0 10 10" fill="none" xmlns="http://www.w3.org/2000/svg">
<path fill-rule="evenodd" clip-rule="evenodd" d="M8.20875 1.07576H0.554375C0.24875 1.07576 0 0.835758 0 0.538182C0 0.241212 0.248125 0 0.554375 0H8.20875C8.51437 0 8.76313 0.241212 8.76313 0.538182C8.76313 0.835758 8.515 1.07576 8.20875 1.07576Z" transform="translate(0.323975 4.47949)" fill="white"/>
<path fill-rule="evenodd" clip-rule="evenodd" d="M0.555 8.49758C0.24875 8.49758 0 8.25697 0 7.96V0.538182C0 0.241212 0.24875 0 0.555 0C0.86125 0 1.10938 0.241212 1.10938 0.538182V7.96C1.10938 8.25758 0.861875 8.49758 0.555 8.49758Z" transform="translate(4.15039 0.768555)" fill="white"/>
</svg>
