<?xml version="1.0" encoding="UTF-8"?>
<!DOCTYPE svg PUBLIC "-//W3C//DTD SVG 1.1//EN" "http://www.w3.org/Graphics/SVG/1.1/DTD/svg11.dtd">
<!-- Creator: CorelDRAW 2018 (64-Bit) -->
<svg xmlns="http://www.w3.org/2000/svg" xml:space="preserve" width="161.894mm" height="169.579mm" version="1.1" style="shape-rendering:geometricPrecision; text-rendering:geometricPrecision; image-rendering:optimizeQuality; fill-rule:evenodd; clip-rule:evenodd"
viewBox="0 0 1153.48 1208.24"
 xmlns:xlink="http://www.w3.org/1999/xlink">
 <defs>
  <style type="text/css">
   <![CDATA[
    .fil0 {fill:#FEFEFE}
   ]]>
  </style>
 </defs>
 <g id="Слой_x0020_1">
  <metadata id="CorelCorpID_0Corel-Layer"/>
  <path class="fil0" d="M993.77 455.72c-0.22,0.8 -0.5,1.59 -0.82,2.36 2.96,-0.63 6.05,-0.5 9.19,0.41 5.55,1.61 9.68,5.21 12.03,10.49 5.56,12.49 4.66,18.04 1.53,30.3 -0.01,0.03 -0.01,0.06 -0.02,0.08 -0.08,0.89 -0.2,1.79 -0.32,2.67 -2.33,17.21 -21.03,33.28 -33.93,43.54 -10.86,8.63 -22.79,17.02 -34.64,24.27 -16.49,10.09 -34.22,19.63 -51.3,28.67 -10.28,5.44 -20.68,10.79 -31.23,15.71 -7.53,3.51 -16.99,7.88 -25.14,9.59l-5.59 3.61c3.83,5.7 7.29,11.59 10.04,17.34 0.32,0.67 0.56,1.26 0.81,1.96l9.08 26.07c0.29,0.82 0.48,1.54 0.66,2.39 0.7,3.39 1.9,6.46 3.1,9.69 4.03,10.87 5.41,19.67 5.05,31.34 -0.03,0.89 -0.08,1.78 -0.12,2.68 0.01,0.41 0.03,0.83 0.05,1.23 0.1,2.08 0.31,4.06 0.34,6.17 0.05,4.21 -0.18,8.49 -0.57,12.69 -7.06,75.58 -60.62,149.41 -108.06,206.04 -27.41,32.72 -61.6,61.93 -94.87,88.55 -19.28,15.42 -38.92,30.37 -58.56,45.33 -27.61,21.02 -54.85,42.57 -82.47,63.61 -18.67,14.23 -37.44,28.43 -56.53,42.09 -8.68,6.21 -28.47,21.04 -38.67,23.21 -7.71,1.64 -15.22,-1.39 -19.64,-7.92l-3.98 -5.88c-4.52,-6.69 -4.41,-15.07 0.29,-21.63 1.02,-1.42 2.29,-2.89 3.72,-4.36 -0.54,0.02 -1.14,0.02 -1.79,-0.01 -5.09,-0.22 -7.65,-1.81 -11.61,-4.21 -0.42,-0.26 -0.83,-0.52 -1.22,-0.8 -2.88,1.52 -5.76,3.02 -8.65,4.51 -4.66,2.41 -9.54,2.81 -14.54,1.19 -4.99,-1.62 -8.71,-4.81 -11.07,-9.49 -1.8,-3.56 -3.61,-7.45 -4.49,-11.36 -0.66,-2.9 -0.74,-5.83 -0.28,-8.6 -3.82,1.43 -7.47,2.57 -10.83,3.27 -8.13,1.71 -16.09,-1.82 -20.28,-9 -1.58,-2.71 -2.73,-5.58 -3.38,-8.53l-41.75 26.18c-6.36,3.99 -14.62,13.17 -19.75,18.76 -7.19,7.83 -14.14,16.14 -21.61,23.67 -6.88,6.93 -17.78,7.52 -25.37,1.38l-8.65 -7.01c-8.01,-6.48 -9.36,-18.21 -3.04,-26.35 3.64,-4.69 7.44,-9.31 11.23,-13.87 1.57,-1.89 3.28,-3.98 5.05,-6.08 -0.08,-1.56 -0.05,-3.2 0.02,-4.94 0.27,-7.16 4.18,-13.17 10.62,-16.31 0.96,-0.47 1.94,-0.92 2.94,-1.36 -2,-7.29 0.51,-15.13 6.73,-19.93 7.95,-6.13 17.4,-9.18 26.65,-12.69 3.47,-1.32 8.05,-3.06 11.15,-5.29l17.46 -15.6c-0.6,-0.34 -1.19,-0.72 -1.75,-1.13 -4.67,3.71 -9.47,7.13 -14.09,9.62 -7.8,4.2 -17.17,2.56 -23.08,-4.03l-7.4 -8.25c-0.93,-1.03 -1.72,-2.14 -2.39,-3.3 -0.86,0.6 -1.69,1.2 -2.45,1.81 -14.9,11.9 -28.12,25.66 -43.53,37.02 -4.81,3.55 -6.55,4.67 -12.72,5.51 -1.36,0.19 -2.66,0.22 -4.01,0.16 -0.33,-0.01 -0.65,-0.02 -0.97,-0.04 -0.27,0.26 -0.54,0.5 -0.79,0.72 -4.59,4.02 -9.74,6.6 -16.01,6.57 -12.13,-0.05 -18.99,-9.03 -22.97,-19.22 -1.27,-3.25 -1.63,-6.6 -1.14,-9.8 -1.66,-0.05 -3.4,-0.3 -5.25,-0.81 -6.94,-1.91 -10.75,-6.13 -13.98,-11.33 -1.57,-0.43 -3.08,-1.07 -4.49,-1.89 -4.98,3.49 -7.95,6.74 -14.91,7.43 -4.69,0.47 -6.26,-0.61 -10.09,-1.4 -5.86,-1.21 -10.39,-4.68 -13.09,-10.02 -2.42,-4.8 -4.23,-7.53 -4.03,-13.54 0.27,-8.43 4.76,-13.29 10.54,-18.44 5.91,-5.26 12,-10.25 18.2,-15.1 -6.83,1.03 -13.44,-1.63 -17.74,-7.24 -2.19,-2.85 -3.88,-5.96 -4.94,-9.22 -2.23,-0.41 -4.45,-1.15 -6.66,-2.29 -3.67,-1.89 -6.54,-4.51 -8.66,-7.62 -2.26,0.52 -4.7,0.71 -7.59,0.37 -7.53,-0.88 -12.3,-4.93 -17.26,-10.12 -4.99,-5.23 -6.55,-12.31 -4.25,-19.12 0.55,-2.65 1.45,-4.59 2.69,-6.41 -0.74,-3.81 -1.27,-8.53 -1.32,-12.36 -0.04,-3.18 0.65,-6.16 1.97,-8.8 -1.61,-1.14 -3.06,-2.55 -4.3,-4.22 -0.49,-0.66 -0.95,-1.33 -1.39,-2.01 -3.43,0.15 -6.91,-0.32 -10.43,-1.62 -5.78,-2.12 -10.42,-6.15 -13.62,-11.38 -4.6,-7.5 -3.55,-16.85 2.6,-23.14l6.05 -6.2c1.21,-1.24 2.38,-2.16 3.86,-3.04 0.88,-0.53 1.73,-1 2.57,-1.42 0.19,-0.66 0.39,-1.31 0.62,-1.95 -2.71,-1.08 -5.19,-2.6 -7.64,-5.05 -6.22,-6.22 -7.76,-14.75 -5.7,-23.07 0.49,-1.98 1.17,-3.6 2.23,-5.34 3.83,-6.26 6.75,-7.81 12.24,-11.23 0.86,-1.54 1.77,-2.9 2.75,-4.11 -3.71,-3.3 -5.9,-7.88 -6.17,-13.12 -0.35,-6.98 2.83,-13.15 8.72,-16.91 7.77,-4.96 15.31,-9.08 24.09,-12.01 5.16,-1.72 9.01,-2.69 13.75,-5.59 0.87,-0.53 1.74,-1.05 2.62,-1.56 -4.27,0.33 -8.36,-0.8 -12.05,-3.36 -7.99,-5.53 -10.75,-10.67 -12.57,-19.95 -1.56,-7.97 1.87,-15.7 8.83,-19.89 8.94,-5.37 15.41,-5.89 24.91,-8.15 1.42,-0.34 2.8,-0.69 4.13,-1.05 -2.26,-0.58 -4.67,-1.6 -7.4,-3.16 -4.91,-2.81 -8.11,-7.24 -9.16,-12.58 -2.26,-5.92 -1.44,-12.82 2.2,-18.03 -1.76,-5.44 -1.37,-11.56 1.98,-17.79 0.11,-0.21 0.22,-0.41 0.34,-0.62 0.41,-0.74 0.86,-1.45 1.33,-2.13 -1.65,0.29 -3.2,0.45 -4.61,0.45 -6.95,-0.01 -12.91,-3.45 -16.39,-9.47l-3.99 -6.92c-4.85,-8.41 -2.63,-19 5.2,-24.75 9.39,-6.89 22.11,-12.75 32.71,-17.61 0.9,-0.41 1.8,-0.83 2.71,-1.24 -1.4,-2.08 -2.48,-4.47 -3.18,-7.19 -1.36,-5.3 -0.69,-8.76 0.2,-13.76 1.01,-7.54 6.06,-13.46 13.38,-15.63l94.35 -28.05c8.06,-2.7 15.86,-6.16 23.98,-8.79 7.39,-2.39 15.16,-3.45 22.51,-5.77 16,-5.05 31.63,-11.59 47.27,-17.67 0.2,-0.08 0.37,-0.14 0.57,-0.21l71.92 -25.31c8.09,-3.1 15.77,-7.59 23.78,-11 16.1,-6.85 32.51,-12.93 48.8,-19.31 7.91,-3.09 16,-4.78 23.89,-7.62 6.36,-2.3 15.96,-5.37 23.26,-6.89 16.1,-7.23 38.98,-11.93 55.83,-15.24 17.9,-3.52 37.09,-6.85 55.27,-8.33 0.1,-0.01 0.19,-0.01 0.3,-0.02l31.11 -2.04c0.33,-0.02 0.62,-0.03 0.95,-0.04 20.31,-0.3 57.97,4.3 75.8,13.45 6.93,3.56 12.98,5.25 19.93,9.69 24.89,15.87 42.64,31.48 56.06,58 3.93,7.77 7.21,14.95 10.9,21.98 3.22,-4.21 6.29,-8.53 9.25,-12.64 8.4,-11.66 16.71,-23.24 26.12,-34.12 24.4,-28.24 52.81,-47.76 90.01,-54.84 9.9,-1.88 18.96,-3.1 29.09,-3.06 0.38,0 0.71,0.01 1.09,0.04l15.8 0.97c2.8,-3.5 5.68,-7.63 7.74,-10.45 6.93,-9.46 13.64,-19.09 20.32,-28.73 10.64,-15.34 21.2,-31.65 32.46,-46.49l50.14 -72.1c-2,-1.18 -4.02,-2.45 -6.1,-3.81 -8.53,-5.56 -16.9,-11.35 -25.3,-17.1l-149.04 -99.51c-5.72,-3.69 -15.28,-10.11 -22.16,-11.27 -2.97,-0.5 -6.06,-0.75 -9.06,-1.17 -5.65,-0.8 -11.19,-1.96 -16.71,-3.41l-298.68 -64.63c-3.97,8.92 -9.91,17.14 -17.46,22.42 -9.98,6.98 -22.87,9.4 -34.78,7.05 -0.05,0.05 -0.1,0.1 -0.15,0.15 -0.68,1.81 -1.58,3.6 -2.67,5.33 -3.3,5.27 -9.11,9.52 -13.94,13.41 -0.29,0.23 -0.6,0.48 -0.93,0.75 0.02,1 -0,2.03 -0.12,3.12 -0.63,6.23 -3.16,11.56 -7.11,16.36 -4.15,5.03 -10.37,9.66 -15.33,14.01 -6.45,5.65 -12.76,11.22 -20.72,14.73 -2.85,1.26 -11.28,3.94 -14.04,4.22 -1.76,0.18 -3.48,0.24 -5.15,0.16 -1.1,0.98 -2,1.95 -2.83,2.96 -0.83,2.95 -2.48,5.84 -5.11,8.43 -0.56,0.61 -1.1,1.3 -1.61,1.95 -2.46,3.07 -5.63,5.93 -9.05,8.5 3.3,45.34 -2.35,90.06 -23.11,131.21 -34.63,68.66 -104.88,123.51 -184.53,92.15 -0.76,-0.3 -1.39,-0.59 -2.1,-0.98l-22.77 -12.37c-0.51,-0.28 -0.94,-0.53 -1.42,-0.85 -0.32,-0.21 -0.65,-0.42 -0.97,-0.64 -0.33,-0.22 -0.67,-0.44 -1,-0.67 -39.77,-26.9 -60.17,-74.41 -57.57,-121.72 0.53,-9.6 0.96,-18.22 4.2,-27.4 3.05,-8.63 4.99,-15.04 9.48,-23.37 26.38,-48.97 90.84,-88.73 145.78,-93.52 21.51,-1.88 60.3,-2.04 85.74,3.16 4.32,-3.62 8.66,-6.28 15.02,-10.07 0.48,-0.29 0.97,-0.55 1.46,-0.8 1.33,-0.93 2.8,-1.7 4.36,-2.26 2.87,-1.03 5.39,-1.52 7.62,-1.56 0.5,-0.4 1.02,-0.81 1.55,-1.23 0.07,-0.26 0.14,-0.52 0.21,-0.78 0.23,-0.82 0.46,-1.5 0.79,-2.28l2.51 -5.96c0.85,-3.43 2.72,-6.65 5.06,-9.77 4.29,-5.73 11.33,-12.18 16.75,-16.86 8.73,-7.52 20.55,-16.53 32.49,-14.89 0.17,-0.15 0.33,-0.3 0.5,-0.45 5.25,-4.7 10.34,-8.92 16.23,-12.83 1.45,-0.96 2.98,-1.7 4.55,-2.22 -0.28,-3.52 -0.29,-7.05 0.12,-10.62 2.13,-18.69 14.84,-30.47 32.29,-35.79 11.5,-3.51 16.65,-2.41 27.06,1.31l236.31 53.36c23.64,6.72 48.35,10.28 72.13,16.86 34.44,9.54 60.15,7.07 91.46,28.99 8.3,5.81 17.12,10.83 25.62,16.33 0.08,0.05 0.15,0.1 0.24,0.16l136.51 91.43c-1.34,-8.95 -0.95,-17.76 3.77,-26.45 6.63,-12.22 21.69,-22.89 35.84,-22.79 4.28,0.03 8.34,0.98 12.22,2.78 0.96,0.45 5.18,3.05 6.28,3.53l4.28 0.68c5.79,0.92 10.4,4.07 13.36,9.12 4.11,7.01 8.05,13.28 9.82,21.39 3.2,14.61 -2.37,27.41 -11.12,38.86 -9.75,12.75 -19.19,25.89 -28.62,38.88 -15.04,20.72 -29.99,41.51 -44.87,62.35 -15.39,21.56 -30.73,43.17 -45.85,64.92 -5.64,8.1 -11.25,16.23 -16.76,24.42 -3.07,4.57 -6.34,9.32 -9.11,14.08 -0.14,0.24 -0.28,0.48 -0.42,0.73 0.94,4.4 -0.02,8.66 -2.06,12.64zm-64.59 8.35c18.74,0 33.93,16.54 33.93,36.95 0,20.41 -15.19,36.95 -33.93,36.95 -18.74,0 -33.93,-16.54 -33.93,-36.95 0,-20.41 15.19,-36.95 33.93,-36.95zm-618.32 -306.15c21.24,0 38.46,17.56 38.46,39.21 0,21.66 -17.22,39.21 -38.46,39.21 -21.24,0 -38.46,-17.56 -38.46,-39.21 0,-21.66 17.22,-39.21 38.46,-39.21z"/>
 </g>
</svg>
