<svg width="7" height="13" viewBox="0 0 7 13" fill="none" xmlns="http://www.w3.org/2000/svg">
<mask id="mask0" mask-type="alpha" maskUnits="userSpaceOnUse" x="0" y="0" width="7" height="13">
<path fill-rule="evenodd" clip-rule="evenodd" d="M0 0H7V11.9696H0V0Z" transform="translate(7 0.0786133) scale(-1 1)" fill="white"/>
</mask>
<g mask="url(#mask0)">
<path fill-rule="evenodd" clip-rule="evenodd" d="M6.74815 6.57737L1.46798 11.724C1.13213 12.0515 0.587527 12.0515 0.251809 11.724C-0.0839362 11.3967 -0.0839362 10.8659 0.251809 10.5387L4.92395 5.98472L0.251972 1.43094C-0.0837732 1.10354 -0.0837732 0.572809 0.251972 0.245546C0.587717 -0.0818488 1.13224 -0.0818488 1.46814 0.245546L6.74829 5.39221C6.91616 5.55592 7 5.77026 7 5.9847C7 6.19924 6.916 6.41374 6.74815 6.57737Z" transform="translate(7 0.0786133) scale(-1 1)" fill="black"/>
</g>
</svg>
