<?xml version="1.0" encoding="UTF-8"?>
<!DOCTYPE svg PUBLIC "-//W3C//DTD SVG 1.1//EN" "http://www.w3.org/Graphics/SVG/1.1/DTD/svg11.dtd">
<!-- Creator: CorelDRAW 2018 (64-Bit) -->
<svg xmlns="http://www.w3.org/2000/svg" xml:space="preserve" width="151.345mm" height="151.345mm" version="1.1" style="shape-rendering:geometricPrecision; text-rendering:geometricPrecision; image-rendering:optimizeQuality; fill-rule:evenodd; clip-rule:evenodd"
viewBox="0 0 1016.4 1016.4"
 xmlns:xlink="http://www.w3.org/1999/xlink">
 <defs>
  <style type="text/css">
   <![CDATA[
    .fil0 {fill:#FEFEFE}
   ]]>
  </style>
 </defs>
 <g id="Слой_x0020_1">
  <metadata id="CorelCorpID_0Corel-Layer"/>
  <path class="fil0" d="M345.32 232.57c114.43,-75.68 259.41,-85.86 382.07,-30.56l-32.32 32.32c-127.59,-50.62 -278.61,-24.33 -381.84,78.9 -103.23,103.23 -129.52,254.25 -78.9,381.84l-32.32 32.32c-54.95,-121.88 -45.25,-265.8 29.12,-379.89l-200.53 148.16 -30.61 -3.12c164.18,-164.18 328.36,-328.36 492.54,-492.54l-13.42 47.14 -133.81 185.42zm-202.55 603c29.29,-29.29 71.45,-37.83 108.26,-25.65 95.45,-116.95 179.19,-261.32 238.38,-320.5 59.19,-59.19 203.55,-142.93 320.5,-238.38 -12.18,-36.81 -3.63,-78.98 25.65,-108.26 41.37,-41.37 108.43,-41.37 149.8,0 41.37,41.37 41.37,108.44 0,149.8 -29.29,29.29 -71.45,37.83 -108.26,25.65 -95.45,116.95 -179.19,261.32 -238.38,320.5 -59.19,59.19 -203.55,142.93 -320.5,238.38 12.18,36.81 3.63,78.98 -25.65,108.26 -41.37,41.37 -108.43,41.37 -149.8,0 -41.37,-41.37 -41.37,-108.43 0,-149.8zm440.3 -368.53c18.65,3.63 36.46,12.67 50.91,27.12 14.45,14.45 23.49,32.25 27.12,50.91 10.66,-14.73 20.83,-29.5 30.35,-43.12 36.01,-51.52 71.19,-103.53 108.8,-153.93 12.88,-17.26 26.08,-34.44 39.7,-51.32 -1.49,-1.33 -2.95,-2.7 -4.38,-4.13 -1.43,-1.43 -2.8,-2.89 -4.13,-4.38 -16.88,13.62 -34.06,26.82 -51.32,39.7 -50.4,37.61 -102.41,72.79 -153.93,108.8 -13.62,9.52 -28.39,19.69 -43.12,30.35zm-38 194.06c-18.65,-3.63 -36.46,-12.68 -50.91,-27.12 -14.45,-14.45 -23.49,-32.26 -27.12,-50.91 -10.66,14.73 -20.83,29.5 -30.35,43.12 -36.01,51.53 -71.19,103.53 -108.8,153.93 -12.88,17.26 -26.08,34.44 -39.7,51.32 1.49,1.33 2.95,2.7 4.38,4.13 1.43,1.43 2.8,2.89 4.13,4.38 16.88,-13.62 34.06,-26.82 51.32,-39.7 50.4,-37.61 102.41,-72.79 153.93,-108.8 13.62,-9.52 28.39,-19.69 43.12,-30.35zm-0.97 -117c11.03,-11.03 28.92,-11.03 39.95,0 11.03,11.03 11.03,28.92 0,39.95 -11.03,11.03 -28.92,11.03 -39.95,0 -11.03,-11.03 -11.03,-28.92 0,-39.95zm323.57 -369.23c23.64,-23.64 61.96,-23.64 85.6,0 23.64,23.64 23.64,61.96 0,85.6 -23.64,23.64 -61.96,23.64 -85.6,0 -23.64,-23.64 -23.64,-61.96 0,-85.6zm-692.8 692.8c23.64,-23.64 61.96,-23.64 85.6,0 23.64,23.64 23.64,61.96 0,85.6 -23.64,23.64 -61.96,23.64 -85.6,0 -23.64,-23.64 -23.64,-61.96 0,-85.6zm168.32 -524.48c101.15,-101.15 254.42,-118.42 373.37,-51.83 -42.44,30.82 -85.8,60.28 -128.8,90.34 -22.03,15.39 -44.02,30.97 -65.36,47.29 -17.39,13.3 -34.96,27.45 -50.46,42.94 -15.5,15.5 -29.64,33.07 -42.94,50.46 -16.33,21.35 -31.9,43.34 -47.29,65.36 -30.05,43 -59.52,86.36 -90.34,128.8 -66.6,-118.96 -49.33,-272.22 51.83,-373.37zm493.59 68.39c66.6,118.96 49.33,272.22 -51.83,373.37 -101.15,101.15 -254.42,118.43 -373.37,51.83 42.44,-30.82 85.8,-60.28 128.8,-90.34 22.03,-15.39 44.02,-30.97 65.36,-47.29 17.39,-13.31 34.96,-27.45 50.46,-42.94 15.5,-15.5 29.64,-33.07 42.94,-50.46 16.33,-21.34 31.9,-43.34 47.29,-65.36 30.06,-43 59.52,-86.36 90.34,-128.8zm89.35 -10.83c65.9,146.17 38.83,324.03 -81.26,444.12 -120.09,120.09 -297.96,147.16 -444.12,81.26l32.32 -32.32c127.59,50.62 278.61,24.33 381.84,-78.9 103.23,-103.23 129.52,-254.25 78.9,-381.84l32.32 -32.32z"/>
 </g>
</svg>
