<?xml version="1.0" encoding="UTF-8"?>
<!DOCTYPE svg PUBLIC "-//W3C//DTD SVG 1.1//EN" "http://www.w3.org/Graphics/SVG/1.1/DTD/svg11.dtd">
<!-- Creator: CorelDRAW 2018 (64-Bit) -->
<svg xmlns="http://www.w3.org/2000/svg" xml:space="preserve" width="187.808mm" height="170mm" version="1.1" style="shape-rendering:geometricPrecision; text-rendering:geometricPrecision; image-rendering:optimizeQuality; fill-rule:evenodd; clip-rule:evenodd"
viewBox="0 0 3220.78 2915.38"
 xmlns:xlink="http://www.w3.org/1999/xlink">
 <defs>
  <style type="text/css">
   <![CDATA[
    .fil0 {fill:#FEFEFE}
   ]]>
  </style>
 </defs>
 <g id="Слой_x0020_1">
  <metadata id="CorelCorpID_0Corel-Layer"/>
  <path class="fil0" d="M564.38 1535.98c-23.1,31.2 -46.13,62.44 -69.06,93.73 -62.08,84.69 -123.86,169.97 -183.05,256.6 -21.62,31.64 -43.1,63.64 -63.17,96.22 -8,12.99 -21.33,33.61 -26.47,47.35 -25.83,76.73 -45.26,151.09 -34.02,232.51 129.7,665.43 808.28,529.09 1198.52,67.23 124.2,-146.99 427.99,-705.79 360.62,-906.4 51.61,-71.25 101.45,-137.04 149.46,-197.61 27.99,46.57 60.55,90.09 97.03,129.95l109.58 -148.08c-88.71,-108.49 -141.95,-247.11 -141.95,-398.18 0,-119.78 33.46,-231.75 91.55,-327.06 -59.44,-24.12 -150.11,-77.59 -175.18,-77.59 -111.74,0 -202.33,-90.58 -202.33,-202.33 0,-111.74 90.58,-202.33 202.33,-202.33 111.74,0 202.33,90.58 202.33,202.33 0,22.1 52.02,91.74 83.52,144.77 112.23,-103.79 262.31,-167.25 427.24,-167.25 347.64,0 629.46,281.82 629.46,629.46 0,347.64 -281.82,629.46 -629.46,629.46 -91.16,0 -177.79,-19.4 -256,-54.27l-84.67 114.43c0.49,0.35 0.97,0.7 1.45,1.04 -6.2,8.23 -11.95,15.58 -17.38,21.63l-8.06 10.38c51.22,25.9 105.56,46.53 162.32,61.14 -32.62,45.58 -67.63,92.04 -105.16,139.19 -214.15,-13.37 -300.16,166.89 -358.29,231.53 -132.96,171.26 -252.94,281.81 -387.02,454.52 -558.7,719.64 -1481.38,642.04 -1533.56,-130.52 -15.27,-110.65 6.52,-208.92 41.67,-313.35 18.28,-54.31 76.36,-136 109.3,-184.31 61.05,-89.53 124.86,-177.63 188.98,-265.1 103.37,-141.03 208.54,-281.23 315,-420.09l242.09 -315.77 -240.54 1205.06 -97.07 -458.29 0 0zm1313.84 -1401.09c37.25,0 67.44,30.19 67.44,67.44 0,37.25 -30.19,67.44 -67.44,67.44 -37.25,0 -67.44,-30.19 -67.44,-67.44 0,-37.25 30.19,-67.44 67.44,-67.44z"/>
 </g>
</svg>
