<?xml version="1.0" encoding="UTF-8"?>
<!DOCTYPE svg PUBLIC "-//W3C//DTD SVG 1.1//EN" "http://www.w3.org/Graphics/SVG/1.1/DTD/svg11.dtd">
<!-- Creator: CorelDRAW 2018 (64-Bit) -->
<svg xmlns="http://www.w3.org/2000/svg" xml:space="preserve" width="159.86mm" height="169.597mm" version="1.1" style="shape-rendering:geometricPrecision; text-rendering:geometricPrecision; image-rendering:optimizeQuality; fill-rule:evenodd; clip-rule:evenodd"
viewBox="0 0 804.79 853.81"
 xmlns:xlink="http://www.w3.org/1999/xlink">
 <defs>
  <style type="text/css">
   <![CDATA[
    .fil0 {fill:#FEFEFE}
   ]]>
  </style>
 </defs>
 <g id="Слой_x0020_1">
  <metadata id="CorelCorpID_0Corel-Layer"/>
  <path class="fil0" d="M163.12 306.94c-6.68,9.02 -13.33,18.05 -19.96,27.09 -17.94,24.48 -35.8,49.12 -52.91,74.16 -6.25,9.15 -12.46,18.39 -18.26,27.81 -2.31,3.75 -6.16,9.72 -7.65,13.69 -7.46,22.18 -13.08,43.67 -9.83,67.2 5.14,37.26 16.54,52.9 48.79,70.55 91.77,60.93 223.95,-111.06 304.01,-217.35 9.69,-12.86 133.56,-176.37 160.72,-212.02 19.77,-25.02 12.27,-88.12 38.23,-122.17 25.96,-34.05 91.49,-50.3 133.73,-19.72 42.24,30.58 45.2,96.41 19.24,130.46 -25.96,34.05 -85.08,44.2 -109.08,70.89 -27.19,35.65 -151.96,198.48 -161.79,211.24 -81.3,105.4 -212.1,278.38 -125.75,346.41 26.65,24.99 45.3,31.11 83.4,25.15 24.06,-3.77 43.55,-15.21 63.18,-28.58 3.47,-2.53 8.22,-7.85 11.24,-11.09 7.58,-8.13 14.87,-16.6 22.05,-25.07 19.66,-23.19 38.72,-46.97 57.58,-70.78 6.97,-8.8 13.92,-17.61 20.85,-26.45l0 0 -138.23 12.07 322.11 -165.44 -69.46 91.64c-30.54,40.3 -61.58,80.36 -93,120 -19.49,24.59 -39.18,49.15 -59.5,73.09 -10.97,12.92 -29.32,35.39 -43.21,44.86 -26.72,18.2 -52.81,32.27 -85.5,37.39 -55.24,8.65 -103.28,-13.97 -142.35,-50.62 -72.14,-84 -19.49,-190.92 50.51,-289.69 -76.83,93.83 -166.66,173.83 -270.02,130.78 -47.29,-25.87 -83.38,-64.16 -90.83,-118.2 -4.41,-31.98 1.88,-60.39 12.04,-90.57 5.28,-15.7 22.07,-39.31 31.59,-53.27 17.65,-25.88 36.09,-51.34 54.62,-76.62 29.88,-40.76 60.27,-81.28 91.04,-121.42l69.97 -91.27 -69.52 348.3 -28.06 -132.46 0 0zm553.97 -260.72c25.34,18.35 23.02,71.66 -8.13,89.63l-100.52 58.02 23.08 -110.3c9.29,-44.41 60.23,-55.7 85.58,-37.36z"/>
 </g>
</svg>
