<?xml version="1.0" encoding="UTF-8"?>
<svg width="20px" height="20px" viewBox="0 0 20 20" version="1.1" xmlns="http://www.w3.org/2000/svg" xmlns:xlink="http://www.w3.org/1999/xlink">
    <!-- Generator: Sketch 49.2 (51160) - http://www.bohemiancoding.com/sketch -->
    <title>13</title>
    <desc>Created with Sketch.</desc>
    <defs></defs>
    <g id="Symbols" stroke="none" stroke-width="1" fill="none" fill-rule="evenodd">
        <g id="хедер" transform="translate(-1624.000000, -156.000000)" fill="#4A4A4A">
            <g id="13">
                <g transform="translate(1624.000000, 156.000000)">
                    <path d="M5.58558559,6.66633432 C6.46125259,6.68375298 7.18643588,6.01137733 7.20720721,5.16275231 C7.20720721,4.59080136 6.30347724,3.25384262 5.58558559,2.34234234 C4.86769393,3.25418641 3.96396396,4.59129795 3.96396396,5.16275231 C3.98473529,6.01137733 4.70991858,6.68379118 5.58558559,6.66633432" id="Fill-1"></path>
                    <path d="M5.27112095,1.55805074 C5.3415071,1.47853965 5.44283652,1.43295434 5.54933621,1.43295434 C5.6558359,1.43295434 5.75712616,1.47850066 5.82755148,1.55805074 C6.03737819,1.81588659 7.8770928,4.10841076 7.8770928,5.23907479 C7.85609837,6.4990077 6.8149552,7.50445834 5.54933621,7.48702751 C4.28371722,7.50445834 3.24261322,6.4990077 3.22157963,5.23907479 C3.2216188,4.10841076 5.06129423,1.81588659 5.27112095,1.55805074 M0.678786888,12.6347757 C0.324741022,13.8197209 0.111584964,15.0419066 0.0437056099,16.2762587 L0.0437056099,16.7567568 L13.6262352,16.7567568 C13.6312096,15.72826 14.1237952,14.7625454 14.954955,14.1517256 C12.9819493,13.9905197 11.7103375,13.3426154 10.7288482,10.7372333 C9.64266105,7.85334784 11.5775948,1.76558287 12.1842396,0 L0.0286648297,0 C-0.0171625476,1.25150996 -0.111049918,5.72043077 0.710983558,8.92395935 C1.01798782,10.1434153 1.00690308,11.420779 0.678786888,12.6347757" id="Fill-3"></path>
                    <path d="M17.0795923,14.2343499 C16.9822415,14.2343499 16.8864327,14.2343113 16.7916125,14.2342342 L16.791138,14.2343499 C15.388368,14.2827295 14.2672908,15.3886364 14.2342342,16.7567568 L19.9960854,16.7567568 C19.9966785,16.7315454 20,16.7070665 20,16.681701 L20,16.2831381 C19.9987742,16.1909278 19.9359034,14.2343499 17.0795923,14.2343499" id="Fill-5"></path>
                    <path d="M0,18.3156912 C0.0010528146,19.2454196 0.746445554,19.9987793 1.66625458,19.9998435 L4.99252484,19.9998435 C5.30380702,20.0048094 5.60561388,19.8914606 5.83820792,19.6823012 C7.13788805,18.4701073 9.14073136,18.4701073 10.4404115,19.6823012 C10.6729275,19.8914606 10.9746954,20.0048094 11.2859386,19.9998435 L16.6351336,19.9998435 C18.143466,19.997124 19.4565208,18.9571604 19.8198198,17.4774775 L0,17.4774775 L0,18.3156912 Z" id="Fill-7"></path>
                </g>
            </g>
        </g>
    </g>
</svg>