<?xml version="1.0" encoding="UTF-8"?>
<!DOCTYPE svg PUBLIC "-//W3C//DTD SVG 1.1//EN" "http://www.w3.org/Graphics/SVG/1.1/DTD/svg11.dtd">
<!-- Creator: CorelDRAW 2018 (64-Bit) -->
<svg xmlns="http://www.w3.org/2000/svg" xml:space="preserve" width="170mm" height="170mm" version="1.1" style="shape-rendering:geometricPrecision; text-rendering:geometricPrecision; image-rendering:optimizeQuality; fill-rule:evenodd; clip-rule:evenodd"
viewBox="0 0 1271.88 1271.88"
 xmlns:xlink="http://www.w3.org/1999/xlink">
 <defs>
  <style type="text/css">
   <![CDATA[
    .fil0 {fill:#FEFEFE}
   ]]>
  </style>
 </defs>
 <g id="Слой_x0020_1">
  <metadata id="CorelCorpID_0Corel-Layer"/>
  <path class="fil0" d="M905.65 942.44c-5.99,32.63 -21.78,61.46 -56.17,77.39 -0.51,0.23 -0.94,0.41 -1.47,0.59 -31.62,10.76 -64.69,10.73 -92.95,-8.81 -16.21,-11.22 -26.61,-25.62 -36,-42.66 -5.5,-9.98 -8.44,-24.41 -11.06,-35.6 -3.87,-16.54 -7.27,-33.18 -10.58,-49.84 -5.3,-26.71 -10.31,-53.47 -15.03,-80.29l-10.7 -60.72 139.22 142.26c4.24,5.79 3.83,13.57 -0.99,18.88 -4.82,5.32 -12.52,6.48 -18.7,2.83l-33.7 -19.91c2.2,10.76 4.49,21.49 6.98,32.19 1.3,5.56 2.63,11.11 4.19,16.61 0.45,1.6 0.94,3.74 1.58,5.28 4.72,8.53 9.99,17.07 18.15,22.72 12.46,8.62 17.92,9.29 32.22,4.43 0.42,-0.14 0.79,-0.25 1.23,-0.36 3.64,-0.9 6.94,-2.44 9.87,-4.8 23.3,-18.74 17.32,-82.5 14.25,-108.51 -2.71,-22.92 -6.74,-45.63 -10.93,-68.31 -8.65,-46.77 -17.13,-93.6 -25.53,-140.41l-0.04 -0.26c-0.9,-5.59 -14.4,-21.47 -18.15,-26.47 -7.31,-9.76 -14.03,-20.46 -16.21,-32.65 -1.56,-8.73 -0.95,-17.78 1.42,-26.49 -37.57,29.99 -77.11,65 -117.99,106.28 -289.86,292.76 -412,909.52 -355.53,424.14 -68.1,85.1 -173.69,213.57 -252.19,174.83 -28.33,-13.21 -47.39,-44.14 -50.39,-75.28 -1.89,-19.62 2.4,-36.86 9.35,-55.03 4.07,-10.64 13.2,-22.2 20.06,-31.42 10.14,-13.63 20.65,-26.97 31.25,-40.25 16.98,-21.28 34.2,-42.38 51.63,-63.29l39.48 -47.36 -18.83 198.15c-1.69,6.97 -7.89,11.68 -15.07,11.43 -7.17,-0.25 -13.03,-5.38 -14.23,-12.45l-6.54 -38.59c-6.8,8.62 -13.52,17.3 -20.08,26.1 -3.41,4.58 -6.79,9.18 -9.98,13.92 -0.93,1.37 -2.25,3.13 -3.01,4.62 -3.47,9.11 -6.6,18.65 -5.64,28.53 1.54,15.94 12.12,29.44 28.51,32.62 29.35,5.7 74.2,-40.01 92.08,-59.14 15.76,-16.86 30.51,-34.6 45.13,-52.44 17.95,-21.91 35.96,-43.79 54,-65.64 -9.64,-50.57 87.43,-280.04 212.29,-453.32 -0.32,0 -0.64,0.01 -0.96,0.01 -51.65,0 -93.52,-41.87 -93.52,-93.52 0,-51.65 41.87,-93.52 93.52,-93.52 43.89,0 80.71,30.24 90.79,71.02 147.55,-185.36 308.87,-356.2 475.51,-198.73 17.34,-15 34.7,-29.97 52.08,-44.9 17.49,-15.03 34.88,-30.2 51.37,-46.35 18.71,-18.33 63.35,-64.23 56.96,-93.44 -3.57,-16.31 -17.31,-26.58 -33.28,-27.74 -9.9,-0.72 -19.36,2.63 -28.39,6.31 -1.46,0.79 -3.19,2.16 -4.55,3.12 -4.66,3.3 -9.18,6.79 -13.68,10.3 -8.65,6.76 -17.17,13.69 -25.63,20.69l38.73 5.63c7.1,1.03 12.37,6.77 12.79,13.93 0.42,7.17 -4.14,13.48 -11.07,15.33l-197.66 23.47 46.42 -40.58c20.5,-17.92 41.19,-35.62 62.07,-53.1 13.02,-10.9 26.12,-21.73 39.51,-32.18 9.06,-7.07 20.4,-16.46 30.94,-20.79 18,-7.38 35.14,-12.07 54.8,-10.64 31.2,2.27 62.57,20.6 76.44,48.61 41.12,78.63 -88.87,189.12 -172.27,259.07 59.37,65.79 -57.29,70.03 -244.69,199.21 12.81,2.39 26.9,10.05 41.9,25.23 0.75,0.41 1.45,0.77 2.13,1.1 6.37,7.85 10.9,17.05 12.67,26.98 2.31,12.91 -0.47,25.88 -4.05,38.27 -2.25,7.77 -7.85,23.11 -7.35,31.22 8.33,46.59 16.63,93.22 24.71,139.85 3.85,22.23 7.86,44.45 13.1,66.4 5.87,24.58 22.22,86.93 49.8,95.87 3.69,1.2 7.42,1.35 11.23,0.73 0.45,-0.07 0.83,-0.12 1.28,-0.15 15.31,-1.15 20.29,-4.37 28.83,-17.2 5.73,-8.61 7.72,-18.67 9.19,-28.73 0.08,-1.68 -0.22,-3.91 -0.35,-5.59 -0.45,-5.71 -1.13,-11.41 -1.84,-17.09 -1.32,-10.5 -2.84,-20.98 -4.44,-31.44l-24.17 31.45c-4.4,5.73 -12.06,7.5 -18.53,4.28 -6.47,-3.22 -9.68,-10.39 -7.77,-17.36l80.53 -185.92 11.03 60.65c4.87,26.8 9.47,53.65 13.76,80.55 2.68,16.8 5.27,33.61 7.38,50.49 1.44,11.48 3.67,25.98 2.02,37.34 -2.83,19.47 -7.53,36.88 -18.56,53.46 -19.01,28.58 -49.5,42.01 -82.92,44.52 -0.56,0.04 -1.05,0.05 -1.61,0.03 -35.56,-1.16 -61.3,-19.95 -79.38,-49.64zm-415.76 -498.65c26.86,0 48.63,21.77 48.63,48.63 0,26.86 -21.77,48.63 -48.63,48.63 -26.86,0 -48.63,-21.77 -48.63,-48.63 0,-26.86 21.77,-48.63 48.63,-48.63zm361.48 195.2l12.73 -57.22c1.67,-7.48 -1.99,-15.78 -6.33,-21.69 -4.33,-5.89 -15.84,-16.22 -23.94,-14.56 -7.92,1.62 -15.01,10.68 -17.98,17.7 -4.56,10.79 -3.31,21.6 3.52,31.13l32.01 44.64z"/>
 </g>
</svg>
