<?xml version="1.0" encoding="UTF-8"?>
<svg width="43px" height="42px" viewBox="0 0 43 42" version="1.1" xmlns="http://www.w3.org/2000/svg" xmlns:xlink="http://www.w3.org/1999/xlink">
    <!-- Generator: Sketch 49.2 (51160) - http://www.bohemiancoding.com/sketch -->
    <title>Group 16</title>
    <desc>Created with Sketch.</desc>
    <defs></defs>
    <g id="Page-1" stroke="none" stroke-width="1" fill="none" fill-rule="evenodd">
        <g id="00.-Главная-320" transform="translate(-198.000000, -3321.000000)">
            <g id="футер" transform="translate(0.000000, 2276.000000)">
                <g id="Group-16" transform="translate(199.000000, 1046.415190)">
                    <ellipse id="Oval-Copy-8" stroke="#FFFFFF" opacity="0" cx="20.5" cy="19.9493671" rx="20.5" ry="19.9493671"></ellipse>
                    <g id="Page-1" transform="translate(11.000000, 10.000000)" fill="#D9D9D9">
                        <path d="M18.1251176,14.4008471 C18.1251176,16.4543765 16.4544118,18.1248471 14.4008824,18.1248471 L5.48864706,18.1248471 C3.43535294,18.1250824 1.76476471,16.4543765 1.76476471,14.4008471 L1.76476471,5.48884706 C1.76476471,3.43543529 3.43535294,1.76472941 5.48864706,1.76472941 L14.4007647,1.76472941 C16.4542941,1.76472941 18.1248824,3.43543529 18.1248824,5.48884706 L18.1248824,14.4008471 L18.1251176,14.4008471 Z M14.4007647,2.35294118e-05 L5.48864706,2.35294118e-05 C2.46229412,2.35294118e-05 5.88235294e-05,2.46237647 5.88235294e-05,5.48884706 L5.88235294e-05,14.4008471 C5.88235294e-05,17.4274353 2.46229412,19.8895529 5.48864706,19.8895529 L14.4007647,19.8895529 C17.4273529,19.8895529 19.8895882,17.4273176 19.8895882,14.4008471 L19.8895882,5.48884706 C19.8898235,2.46237647 17.4273529,2.35294118e-05 14.4007647,2.35294118e-05 Z" id="Fill-1"></path>
                        <path d="M9.9448,13.3050353 C8.09197647,13.3050353 6.58444706,11.7977412 6.58444706,9.94491765 C6.58444706,8.09197647 8.09185882,6.58456471 9.9448,6.58456471 C11.7977412,6.58456471 13.3051529,8.09197647 13.3051529,9.94491765 C13.3051529,11.7977412 11.7977412,13.3050353 9.9448,13.3050353 M9.9448,4.81997647 C7.1188,4.81997647 4.81974118,7.11903529 4.81974118,9.94503529 C4.81974118,12.7709176 7.1188,15.0698588 9.9448,15.0698588 C12.7708,15.0698588 15.0698588,12.7709176 15.0698588,9.94503529 C15.0698588,7.11903529 12.7708,4.81997647 9.9448,4.81997647" id="Fill-3"></path>
                        <path d="M15.2848118,3.32364706 C14.9448118,3.32364706 14.6108118,3.46129412 14.3706941,3.70247059 C14.1294,3.94247059 13.9906941,4.27658824 13.9906941,4.61776471 C13.9906941,4.95788235 14.1295176,5.29188235 14.3706941,5.53305882 C14.6108118,5.77305882 14.9448118,5.91188235 15.2848118,5.91188235 C15.6259882,5.91188235 15.9589294,5.77305882 16.2001059,5.53305882 C16.4412824,5.29188235 16.5789294,4.95776471 16.5789294,4.61776471 C16.5789294,4.27658824 16.4412824,3.94247059 16.2001059,3.70247059 C15.9601059,3.46129412 15.6259882,3.32364706 15.2848118,3.32364706" id="Fill-5"></path>
                    </g>
                </g>
            </g>
        </g>
    </g>
</svg>