<?xml version="1.0" encoding="UTF-8"?>
<!DOCTYPE svg PUBLIC "-//W3C//DTD SVG 1.1//EN" "http://www.w3.org/Graphics/SVG/1.1/DTD/svg11.dtd">
<!-- Creator: CorelDRAW 2018 (64-Bit) -->
<svg xmlns="http://www.w3.org/2000/svg" xml:space="preserve" width="183.108mm" height="170mm" version="1.1" style="shape-rendering:geometricPrecision; text-rendering:geometricPrecision; image-rendering:optimizeQuality; fill-rule:evenodd; clip-rule:evenodd"
viewBox="0 0 2660.24 2469.8"
 xmlns:xlink="http://www.w3.org/1999/xlink">
 <defs>
  <style type="text/css">
   <![CDATA[
    .fil0 {fill:#FEFEFE}
   ]]>
  </style>
 </defs>
 <g id="Слой_x0020_1">
  <metadata id="CorelCorpID_0Corel-Layer"/>
  <path id="Fill-1" class="fil0" d="M1414.92 1686.52c-471.23,-1.09 -769.11,722.35 -906.8,762.09 -476.63,113.47 -705.45,-252.17 -295.46,-541.1 159.15,-92.13 342.75,-272.02 721.55,-649.85 36.78,-36.68 -104.22,-140.29 -122.92,-183.56 -23.86,-55.23 54.92,-108.61 92.87,-129.45 69.24,177.34 241.91,300.34 440.04,300.34 198.14,0 370.81,-123.01 440.05,-300.34 13.52,7.43 29.03,11.65 45.5,11.65l53.22 0c-325.7,284.99 -599.38,601.41 -102.04,584.98 98.92,-3.27 155.63,110.77 -366.02,145.23zm826.9 -1474.65l214.35 -195.87c24.94,-22.79 63.98,-21.03 86.77,3.91l101.3 110.85c22.79,24.94 21.03,63.98 -3.91,86.77l-210.17 192.05c-24.67,-46.96 -60.75,-90.14 -89.19,-118.89 -26.33,-26.63 -60.92,-56.26 -99.15,-78.82zm-897.61 150.56c209.51,0 382.32,157.04 407.18,359.83 16.67,2.97 31.91,6.11 45.55,9.42l0 -47.74c0,-18.05 14.77,-32.82 32.82,-32.82l89.51 0c18.05,0 32.82,14.77 32.82,32.82l0 177.51c0,18.05 -14.77,32.82 -32.82,32.82l-89.51 0c-18.05,0 -32.82,-14.77 -32.82,-32.82l0 -47.74c-13.63,3.31 -28.88,6.46 -45.55,9.42 -24.87,202.79 -197.68,359.83 -407.18,359.83 -209.51,0 -382.32,-157.04 -407.18,-359.83 -16.67,-2.96 -31.91,-6.11 -45.55,-9.42l0 47.74c0,18.05 -14.77,32.82 -32.82,32.82l-89.51 0c-18.05,0 -32.82,-14.77 -32.82,-32.82l0 -177.51c0,-18.05 14.77,-32.82 32.82,-32.82l89.51 0c18.05,0 32.82,14.77 32.82,32.82l0 47.74c13.63,-3.31 28.87,-6.46 45.55,-9.42 24.86,-202.79 197.67,-359.83 407.18,-359.83zm0 241.57c66.03,0 123.19,37.94 150.9,93.2 46.62,2.05 90.56,5.03 130.85,8.79 -30.13,-127.72 -144.83,-222.77 -281.75,-222.77 -136.92,0 -251.62,95.06 -281.75,222.77 40.29,-3.76 84.23,-6.74 130.85,-8.79 27.7,-55.27 84.87,-93.2 150.89,-93.2zm150.9 244.2c-27.7,55.26 -84.87,93.2 -150.9,93.2 -66.03,0 -123.19,-37.94 -150.89,-93.2 -46.62,-2.05 -90.56,-5.03 -130.85,-8.79 30.12,127.72 144.83,222.78 281.75,222.78 136.92,0 251.62,-95.06 281.75,-222.78 -40.29,3.76 -84.23,6.74 -130.85,8.79zm-150.9 -145.3c38.55,0 69.8,31.25 69.8,69.8 0,38.55 -31.25,69.8 -69.8,69.8 -38.55,0 -69.8,-31.25 -69.8,-69.8 0,-38.55 31.25,-69.8 69.8,-69.8zm252.87 -329.08c40.15,-23.24 74.32,-40.41 99.67,-49.45 62.43,-72.82 149.86,144.92 191.82,105.31 87.01,-82.14 24.65,-9.96 193.31,-177.22 104.72,-85.12 378.37,216.49 300.98,291.69 -50.55,48.95 -204.11,164.79 -368.73,300.87l0 -161.08c0,-52.29 -42.57,-94.85 -94.85,-94.85l-89.51 0c-16.48,0 -31.98,4.23 -45.5,11.65 -36.92,-94.56 -103.25,-173.67 -187.17,-226.92zm-252.87 391.11c-4.31,0 -7.77,3.46 -7.77,7.77 0,4.31 3.46,7.77 7.77,7.77 4.31,0 7.77,-3.46 7.77,-7.77 0,-4.31 -3.46,-7.77 -7.77,-7.77z"/>
 </g>
</svg>
