<?xml version="1.0" encoding="UTF-8"?>
<svg width="28px" height="25px" viewBox="0 0 28 25" version="1.1" xmlns="http://www.w3.org/2000/svg" xmlns:xlink="http://www.w3.org/1999/xlink">
    <!-- Generator: Sketch 49.2 (51160) - http://www.bohemiancoding.com/sketch -->
    <title>6</title>
    <desc>Created with Sketch.</desc>
    <defs></defs>
    <g id="Symbols" stroke="none" stroke-width="1" fill="none" fill-rule="evenodd">
        <g id="хедер" transform="translate(-418.000000, -154.000000)" fill="#4A4A4A" fill-rule="nonzero">
            <g id="6">
                <g transform="translate(432.000000, 166.500000) rotate(-270.000000) translate(-432.000000, -166.500000) translate(419.500000, 152.500000)">
                    <path d="M18,14.5 L6,14.5 C5.724,14.5 5.5,14.7245 5.5,15 C5.5,15.2755 5.724,15.5 6,15.5 L18,15.5 C18.276,15.5 18.5,15.2755 18.5,15 C18.5,14.7245 18.276,14.5 18,14.5 Z" id="Shape"></path>
                    <path d="M12,5 C11.053,5 10.4415,5.785 10.4415,7 L10.4415,7.5 L13.5585,7.5 L13.5585,7 C13.5585,6.2135 12.889,5 12,5 Z" id="Shape"></path>
                    <path d="M18,16.5 L6,16.5 C5.724,16.5 5.5,16.7245 5.5,17 C5.5,17.2755 5.724,17.5 6,17.5 L18,17.5 C18.276,17.5 18.5,17.2755 18.5,17 C18.5,16.7245 18.276,16.5 18,16.5 Z" id="Shape"></path>
                    <path d="M18,12.5 L6,12.5 C5.724,12.5 5.5,12.7245 5.5,13 C5.5,13.2755 5.724,13.5 6,13.5 L18,13.5 C18.276,13.5 18.5,13.2755 18.5,13 C18.5,12.7245 18.276,12.5 18,12.5 Z" id="Shape"></path>
                    <path d="M17.6765,20.5 L16.618,20.5 L16.618,21 C16.618,24.29 14.7625,26.5 12.0005,26.5 C9.2385,26.5 7.383,24.29 7.383,21 L7.383,20.5 L6.3245,20.5 L6.3245,21 C6.3245,24.86 8.871,28 12.001,28 C15.131,28 17.6775,24.86 17.6775,21 L17.6775,20.5 L17.6765,20.5 Z" id="Shape"></path>
                    <path d="M6.3235,7.5 L7.382,7.5 L7.382,7 C7.382,3.71 9.2375,1.5 11.9995,1.5 C14.7615,1.5 16.617,3.71 16.617,7 L16.617,7.5 L17.6755003,7.5 L17.6755,7 C17.6765,3.14 15.13,0 12,0 C8.87,0 6.3235,3.14 6.3235,7 L6.3235,7.5 Z" id="Shape"></path>
                    <path d="M15.6175,7.5 L15.6175,7 C15.6175,4.2665 14.1975,2.5 12,2.5 C9.8025,2.5 8.3825,4.2665 8.3825,7 L8.3825,7.5 L9.4415,7.5 L9.4415,7 C9.4415,5.2335 10.4935,4 12,4 C13.562,4 14.5585,5.777 14.5585,7 L14.5585,7.5 L15.6175,7.5 Z" id="Shape"></path>
                    <path d="M5.3235,20.3315 C5.035,20.184 4.801,19.9465 4.6565,19.657 C1.994,20.2695 0,22.654 0,25.5 L1,25.5 C1,22.973 2.8865,20.883 5.3235,20.551 L5.3235,20.3315 Z" id="Shape"></path>
                    <path d="M18,10.5 L6,10.5 C5.724,10.5 5.5,10.7245 5.5,11 C5.5,11.2755 5.724,11.5 6,11.5 L18,11.5 C18.276,11.5 18.5,11.2755 18.5,11 C18.5,10.7245 18.276,10.5 18,10.5 Z" id="Shape"></path>
                    <path d="M18,8.5 L16.6175,8.5 L14.5585,8.5 L9.4415,8.5 L7.3825,8.5 L6,8.5 C5.724,8.5 5.5,8.7245 5.5,9 C5.5,9.2755 5.724,9.5 6,9.5 L18,9.5 C18.276,9.5 18.5,9.2755 18.5,9 C18.5,8.7245 18.276,8.5 18,8.5 Z" id="Shape"></path>
                    <path d="M18.6765,7.6015 L18.6765,7.6685 C19.11,7.8895 19.4235,8.3115 19.487,8.813 C22.1015,9.655 24,12.109 24,15 L25,15 C25,11.2655 22.2535,8.169 18.6765,7.6015 Z" id="Shape"></path>
                    <path d="M4.5405,19.329 C4.5425,19.3365 4.5435,19.344 4.5455,19.351 C4.5435,19.344 4.5425,19.3365 4.5405,19.329 Z" id="Shape"></path>
                    <path d="M6,19.5 L7.3825,19.5 L9.4415,19.5 L14.5585,19.5 L16.6175,19.5 L18,19.5 C18.276,19.5 18.5,19.2755 18.5,19 C18.5,18.7245 18.276,18.5 18,18.5 L6,18.5 C5.724,18.5 5.5,18.7245 5.5,19 C5.5,19.2755 5.724,19.5 6,19.5 Z" id="Shape"></path>
                    <path d="M8.3825,20.5 L8.3825,21 C8.3825,23.7335 9.8025,25.5 12,25.5 C14.1975,25.5 15.6175,23.7335 15.6175,21 L15.6175,20.5 L14.5585,20.5 L14.5585,21 C14.5585,22.7665 13.5065,24 12,24 C10.438,24 9.4415,22.223 9.4415,21 L9.4415,20.5 L8.3825,20.5 Z" id="Shape"></path>
                    <path d="M12,23 C12.947,23 13.5585,22.215 13.5585,21 L13.5585,20.5 L10.4415,20.5 L10.4415,21 C10.4415,21.7865 11.111,23 12,23 Z" id="Shape"></path>
                </g>
            </g>
        </g>
    </g>
</svg>