<?xml version="1.0" encoding="UTF-8"?>
<!DOCTYPE svg PUBLIC "-//W3C//DTD SVG 1.1//EN" "http://www.w3.org/Graphics/SVG/1.1/DTD/svg11.dtd">
<!-- Creator: CorelDRAW 2018 (64-Bit) -->
<svg xmlns="http://www.w3.org/2000/svg" xml:space="preserve" width="263.666mm" height="166.209mm" version="1.1" style="shape-rendering:geometricPrecision; text-rendering:geometricPrecision; image-rendering:optimizeQuality; fill-rule:evenodd; clip-rule:evenodd"
viewBox="0 0 1417.96 893.84"
 xmlns:xlink="http://www.w3.org/1999/xlink">
 <defs>
  <style type="text/css">
   <![CDATA[
    .fil0 {fill:#FEFEFE}
   ]]>
  </style>
 </defs>
 <g id="Слой_x0020_1">
  <metadata id="CorelCorpID_0Corel-Layer"/>
  <path class="fil0" d="M660.61 415.61l-5.69 -226.52 150.26 1.14 47.81 243.6 -192.37 -18.21zm275.14 -318.31c31.16,10.39 46.64,48.18 34.56,84.41 -0.65,1.95 -1.37,3.86 -2.15,5.72l-17.93 -0.14c1.95,-3.45 3.56,-7.05 4.78,-10.69 7.8,-23.41 1.47,-55.4 -24.36,-64 -25.82,-8.61 -50.08,13.18 -57.88,36.59 -7.8,23.41 -1.47,55.4 24.36,64 7.33,2.44 14.54,2.44 21.28,0.64l0.25 16.35c-8.78,1.68 -17.86,1.24 -26.63,-1.68 -31.16,-10.39 -46.64,-48.18 -34.56,-84.41 12.08,-36.23 47.13,-57.18 78.29,-46.8zm-91.17 209.91l68.74 7.09c0,0 6.26,3.98 4.55,19.92 -1.21,11.3 -33.3,56.61 -51.89,82.05l-21.4 -109.06zm407.95 -83.69c0,0 4.55,-87.65 1.14,-122.94 -3.42,-35.29 -17.08,-81.96 -17.08,-81.96 0,0 29.6,26.75 50.65,69.44 21.06,42.69 22.7,58.87 21.71,71.62 -0.99,12.74 -56.42,63.84 -56.42,63.84zm-199.2 -221.54l55.15 102.22c0,0 67.64,5.27 91.03,8.82 16.44,2.49 31.6,4.97 39.15,6.23 -0.19,-5.8 -0.51,-11.53 -1.05,-17.11 -0.71,-7.33 -1.82,-14.64 -3.1,-21.89 -3.36,-18.93 -7.99,-38.61 -13.4,-57.09 -0.4,-1.38 -0.62,-2.77 -0.66,-4.14 -30.63,-17.92 -132.32,-19.68 -167.12,-17.04zm-215.66 703.93c66.68,-55.66 133.02,-111.84 198.91,-168.43 35.57,-30.55 71.03,-61.26 106.08,-92.41 14.31,-12.71 28.55,-25.51 42.61,-38.5 10.22,-9.44 20.46,-19.01 30.21,-28.93 20.45,-20.78 41.87,-40.58 62.9,-60.76 51.94,-49.82 104.17,-103.95 123.73,-175.33 1.17,-4.29 5.63,-6.82 9.91,-5.65 4.29,1.17 6.82,5.63 5.65,9.91 -28.3,103.26 -119.02,170.32 -190.7,243.14 -9.94,10.1 -20.36,19.84 -30.76,29.46 -14.13,13.06 -28.46,25.92 -42.84,38.71 -35.11,31.21 -70.65,61.98 -106.28,92.59 -66.73,57.32 -133.94,114.22 -201.48,170.58 -1.6,1.34 -3.43,1.96 -5.52,1.87l-120.07 -5.24c-4.44,-0.19 -7.9,-3.97 -7.71,-8.41 0.19,-4.44 3.97,-7.9 8.41,-7.71l116.94 5.1zm-118.19 -532.47c10.55,-30.66 45.09,-125.96 71.76,-142.15 31.87,-19.35 50.09,-30.16 141.15,-30.73 65,-0.41 93.75,-0.52 104.88,-0.56 -0.42,3.25 0.2,6.55 1.87,9.64l50.74 94.05c-12.99,-0.27 -75.74,-1.46 -117.98,-0.64 -7.86,-9.37 -18.22,-16.77 -31.04,-21.05 -8.23,-2.74 -16.96,-3.88 -25.62,-3.37 -27.75,1.64 -51.17,18.98 -64.84,42.25 -26.83,10.08 -63.44,26.36 -115.66,52.68l-15.27 -0.12zm-657.05 323.13l741.61 111.55c0,0 513.95,-385.89 552.65,-434.83 102.07,-129.09 9.48,-156.59 -103.8,-153.71 22.58,19.07 26.68,21.88 48.84,61.34 12.92,23.02 25.44,52.88 23.32,80.01 -1.09,13.9 -20.66,33.75 -30.07,43.56 -10.12,10.56 -20.74,20.95 -31.5,30.88 -4.92,4.54 -11.73,5.6 -17.79,2.75 -0.25,-0.12 -0.49,-0.24 -0.73,-0.37l-315.06 213.04 -544.48 -54.4c0,0 116.57,-67.83 255.03,-141.38l-0.9 -35.92c-256.58,121.39 -577.12,277.47 -577.12,277.47zm736.65 -322.52c13.37,-6.27 26.37,-12.05 39.06,-17.37 0.65,-5.04 1.71,-10.05 3.17,-14.94 -7.84,3.2 -15.6,6.54 -23.26,9.93 -15.98,7.06 -31.84,14.5 -47.59,22.17l28.62 0.22zm-693.28 431.4l-99.6 -23.9c-4.32,-1.04 -7,-5.41 -5.96,-9.73 1.04,-4.32 5.41,-7 9.73,-5.96l99.6 23.9c4.32,1.04 7,5.41 5.96,9.73 -1.04,4.32 -5.41,7 -9.73,5.96zm-47.8 -95.94l-18.83 55.06 72.27 17.34c8.61,2.07 13.99,10.84 11.92,19.45 -2.07,8.61 -10.84,13.99 -19.45,11.92l-58.66 -14.08 54.45 147.79c0,0 182.13,67.16 221.97,89.93 39.84,22.77 54.64,56.92 54.64,56.92 0,0 43.26,-38.7 204.9,-20.49 128.65,14.5 194.57,17.45 216.11,18.06l24.48 -161.97 -102.13 -4.46c-8.87,-0.39 -15.8,-7.95 -15.42,-16.82 0.39,-8.87 7.95,-15.8 16.82,-15.42l98.11 4.28 -20.29 -76.08 -740.9 -111.45zm757.02 372.73c63.45,-61.97 424.4,-415.57 474.21,-489.24 30.29,-44.81 59.88,-93.81 82.56,-141.19 -40.15,52.32 -93.09,96.12 -139.07,142.83 -10.05,10.21 -20.52,20 -31.04,29.72 -14.17,13.1 -28.53,25.99 -42.95,38.81 -35.15,31.25 -70.71,62.03 -106.39,92.68 -66.78,57.36 -133.98,114.25 -201.57,170.65 -3.13,2.62 -6.96,3.91 -11.04,3.73l-1.72 -0.08 -22.99 152.08zm597.04 -754.52c1.96,-22.42 -0.66,-43.82 -6.38,-62.33 3.48,30.4 -5.92,62.38 -20.28,88.72 -5.27,9.66 -11.36,18.9 -18.18,27.52 -3.79,4.8 -8.61,9.4 -13.06,13.6 -6.82,6.43 -13.89,12.65 -20.99,18.77 -20.59,17.77 -41.74,35 -62.91,52.07 -58.16,46.89 -117.25,92.77 -176.41,138.4 -92.65,71.46 -185.77,142.28 -279.3,212.56l21.3 79.88c65.54,-54.73 130.69,-109.92 195.47,-165.55 35.54,-30.53 70.96,-61.19 105.98,-92.31 14.27,-12.68 28.47,-25.44 42.49,-38.39 10.15,-9.37 20.25,-18.81 29.94,-28.66 20.51,-20.83 41.98,-40.68 63.07,-60.92 50.72,-48.65 102.44,-101.95 121.54,-171.64 2.15,-7.85 9.87,-12.78 17.73,-11.72zm-475.55 303.91l-2.13 -228.3 150.26 1.14 15.05 121.37 -163.18 105.79z"/>
 </g>
</svg>
