<?xml version="1.0" encoding="UTF-8"?>
<!DOCTYPE svg PUBLIC "-//W3C//DTD SVG 1.1//EN" "http://www.w3.org/Graphics/SVG/1.1/DTD/svg11.dtd">
<!-- Creator: CorelDRAW 2018 (64-Bit) -->
<svg xmlns="http://www.w3.org/2000/svg" xml:space="preserve" width="144.443mm" height="170mm" version="1.1" style="shape-rendering:geometricPrecision; text-rendering:geometricPrecision; image-rendering:optimizeQuality; fill-rule:evenodd; clip-rule:evenodd"
viewBox="0 0 221.55 260.75"
 xmlns:xlink="http://www.w3.org/1999/xlink">
 <defs>
  <style type="text/css">
   <![CDATA[
    .fil0 {fill:white}
   ]]>
  </style>
 </defs>
 <g id="Слой_x0020_1">
  <metadata id="CorelCorpID_0Corel-Layer"/>
  <path class="fil0" d="M130.81 29.88c-0.78,-0.64 -1.59,-1.25 -2.44,-1.82 -0.42,-0.28 -0.85,-0.56 -1.28,-0.82 -1.08,-0.66 -2.21,-1.25 -3.35,-1.77 -0.24,-0.11 -0.48,-0.21 -0.71,-0.31 -3.87,-1.64 -8,-2.47 -12.26,-2.47 -4.26,0 -8.39,0.83 -12.26,2.47 -0.24,0.1 -0.47,0.2 -0.7,0.31 -1.15,0.52 -2.28,1.12 -3.36,1.77 -0.43,0.26 -0.86,0.54 -1.29,0.83 -0.84,0.57 -1.66,1.18 -2.43,1.82 -7.29,6.02 -11.47,14.88 -11.47,24.32 0,18.89 15.27,33.65 28.09,42.71 1.03,0.73 2.23,1.09 3.42,1.09 1.2,0 2.4,-0.36 3.42,-1.09 12.81,-9.06 28.09,-23.83 28.09,-42.71 -0,-9.44 -4.18,-18.3 -11.47,-24.32zm41.97 50.88c4.78,1.8 9.2,4.67 12.78,8.29 0.11,0.11 0.22,0.23 0.32,0.36 4.75,5.65 35.65,57.91 35.67,61.95l-16.85 72.79c0.01,1.58 -0.61,3.09 -1.73,4.21 -1.11,1.12 -2.63,1.75 -4.2,1.75 -30.34,1.62 -22.74,-10.89 -22.27,24.72 0,3.27 -2.66,5.93 -5.93,5.93l-5.93 0 -0 -0 -113.67 -0c-3.27,0 -5.93,-2.66 -5.93,-5.93 0.48,-35.61 8.07,-23.1 -22.27,-24.72 -1.58,0 -3.09,-0.63 -4.2,-1.75 -1.11,-1.12 -1.73,-2.63 -1.73,-4.21l-16.85 -72.79c0.03,-4.03 30.92,-56.29 35.67,-61.95 0.1,-0.12 0.21,-0.24 0.32,-0.36 3.58,-3.62 8,-6.48 12.78,-8.29 0.03,-0.01 0.05,-0.02 0.08,-0.03 4.02,-1.5 8.22,-2.27 12.49,-2.27l0.46 0c-3.22,-7.27 -5.22,-15.37 -5.22,-24.26 0,-16.24 7.19,-31.48 19.72,-41.82 1.33,-1.1 2.74,-2.15 4.17,-3.12 0.72,-0.48 1.46,-0.96 2.2,-1.41 1.87,-1.13 3.82,-2.16 5.8,-3.06 0.4,-0.18 0.8,-0.36 1.21,-0.53 6.69,-2.83 13.79,-4.26 21.1,-4.26 7.31,0 14.41,1.43 21.1,4.26 0.4,0.17 0.81,0.35 1.21,0.53 1.99,0.9 3.94,1.93 5.81,3.06 0.74,0.45 1.48,0.92 2.2,1.41 1.44,0.97 2.84,2.02 4.17,3.12 12.53,10.34 19.72,25.59 19.72,41.82 0,8.89 -2,16.98 -5.22,24.26l0.45 0c3.5,0 9.29,1.05 12.56,2.3zm-8.13 168.13l0 -118.91 0 -0.02c0,-0.23 0.02,-0.47 0.04,-0.7l-0.04 -38.52c-1.46,-0.28 -2.94,-0.42 -4.43,-0.42l-7.16 0c-3.18,4.58 -6.76,8.72 -10.45,12.41 0.01,0.12 0.02,0.24 0.02,0.37l0 49.53c0,3.27 -2.66,5.93 -5.93,5.93 -3.27,0 -5.93,-2.65 -5.93,-5.93l0 -39.64c-0.12,0.09 -0.23,0.18 -0.35,0.26 -0.27,0.2 -0.53,0.4 -0.8,0.59 -0.2,0.15 -0.4,0.3 -0.6,0.44 -0.14,0.1 -0.27,0.2 -0.4,0.29 -4.96,3.59 -9.38,6.24 -12.42,7.94 -0.04,0.02 -0.09,0.05 -0.13,0.07 -0.16,0.09 -0.33,0.18 -0.48,0.27 -0.11,0.06 -0.22,0.12 -0.32,0.18 -0.14,0.08 -0.28,0.15 -0.41,0.22 -0.16,0.09 -0.31,0.17 -0.46,0.24 -0.06,0.03 -0.11,0.06 -0.17,0.09 -0.06,0.03 -0.12,0.06 -0.18,0.09 -0.96,0.68 -2.07,1.01 -3.18,1.01 -1.06,0 -2.14,-0.3 -3.1,-0.89 -0.09,-0.05 -0.19,-0.1 -0.29,-0.15 -0.15,-0.08 -0.3,-0.16 -0.46,-0.24 -0.08,-0.04 -0.15,-0.08 -0.23,-0.12 -0.14,-0.07 -0.28,-0.15 -0.42,-0.23 -0.04,-0.02 -0.08,-0.04 -0.12,-0.07 -3,-1.63 -7.7,-4.38 -13.05,-8.24 -0.13,-0.09 -0.26,-0.19 -0.39,-0.28 -0.23,-0.17 -0.47,-0.34 -0.7,-0.51 -0.42,-0.31 -0.85,-0.63 -1.27,-0.95l0 21.06c0,3.27 -2.66,5.93 -5.93,5.93 -3.27,0 -5.93,-2.65 -5.93,-5.93l0 -30.95c0,-0.12 0.01,-0.24 0.02,-0.37 -3.69,-3.69 -7.28,-7.83 -10.46,-12.41l-7.16 -0c-1.51,0 -3,0.14 -4.48,0.43l0 38.51c0.03,0.24 0.04,0.48 0.04,0.72l0 118.91 107.75 -0zm45.05 -96.16c-0.04,-0.05 -0.07,-0.11 -0.11,-0.18 -0.01,-0.02 -0.02,-0.03 -0.03,-0.05 -0.04,-0.06 -0.08,-0.12 -0.12,-0.18 -0.01,-0.01 -0.01,-0.02 -0.02,-0.03 -0.05,-0.07 -0.1,-0.15 -0.16,-0.24 -0.01,-0.01 -0.02,-0.03 -0.03,-0.04 -0.05,-0.07 -0.1,-0.15 -0.16,-0.23 -0.01,-0.02 -0.02,-0.03 -0.03,-0.05 -0.07,-0.1 -0.14,-0.2 -0.21,-0.3 -0,-0.01 -0.01,-0.01 -0.02,-0.02 -0.07,-0.1 -0.14,-0.2 -0.22,-0.31 -0.02,-0.03 -0.04,-0.05 -0.05,-0.07 -0.17,-0.24 -0.35,-0.49 -0.56,-0.78 -0.02,-0.03 -0.04,-0.05 -0.06,-0.08 -0.09,-0.12 -0.18,-0.25 -0.28,-0.38 -0.02,-0.03 -0.04,-0.05 -0.06,-0.08 -0.12,-0.16 -0.23,-0.32 -0.36,-0.49 -0.01,-0.02 -0.03,-0.04 -0.04,-0.05 -0.11,-0.15 -0.23,-0.31 -0.35,-0.48 -0.03,-0.03 -0.05,-0.07 -0.08,-0.1 -0.28,-0.37 -0.58,-0.77 -0.91,-1.2 -0.02,-0.03 -0.05,-0.06 -0.07,-0.09 -0.34,-0.45 -0.7,-0.93 -1.1,-1.44 -0.01,-0.01 -0.01,-0.02 -0.02,-0.03 -0.2,-0.26 -0.41,-0.53 -0.63,-0.82 -0.62,1.94 -0.95,3.99 -0.95,6.06 0,5.77 2.54,11.14 6.68,14.84l-0.06 -13.18zm-33.14 -24.74l10.55 28.63c0.82,1.04 1.26,2.33 1.26,3.66l-11.85 56.63 21.17 2.31 9.05 -39.59c-11.14,-5.09 -15.52,-16.06 -15.52,-28.55 0,-5.82 1.61,-11.51 4.6,-16.44 -12.26,-15.25 -17.09,-35.3 -18.86,-37.4 -0.13,-0.13 -0.27,-0.26 -0.41,-0.39l-0 31.16zm-35.25 65.99c-0.08,-0.38 -0.19,-0.75 -0.34,-1.11 -0.15,-0.36 -0.33,-0.71 -0.55,-1.03 -0.22,-0.33 -0.47,-0.63 -0.74,-0.9 -0.27,-0.27 -0.58,-0.52 -0.9,-0.74 -0.32,-0.21 -0.66,-0.4 -1.02,-0.55 -0.36,-0.15 -0.74,-0.27 -1.11,-0.34 -0.76,-0.15 -1.55,-0.15 -2.32,0 -0.38,0.07 -0.75,0.19 -1.11,0.34 -0.36,0.15 -0.7,0.33 -1.03,0.55 -0.33,0.21 -0.63,0.46 -0.9,0.74 -0.27,0.27 -0.52,0.58 -0.73,0.9 -0.21,0.32 -0.4,0.66 -0.55,1.03 -0.15,0.36 -0.27,0.73 -0.34,1.11 -0.08,0.38 -0.12,0.77 -0.12,1.16 0,1.56 0.63,3.09 1.74,4.19 0.27,0.27 0.57,0.52 0.9,0.74 0.32,0.21 0.66,0.4 1.03,0.55 0.36,0.15 0.73,0.27 1.11,0.34 0.38,0.08 0.77,0.12 1.16,0.12 0.39,0 0.78,-0.04 1.16,-0.12 0.37,-0.07 0.75,-0.19 1.11,-0.34 0.36,-0.15 0.7,-0.33 1.02,-0.55 0.33,-0.21 0.63,-0.46 0.9,-0.74 1.1,-1.1 1.74,-2.63 1.74,-4.19 -0,-0.39 -0.04,-0.78 -0.11,-1.16zm10.91 -26.32l-82.88 0c-3.27,0 -5.93,2.66 -5.93,5.93l0 35.21c0,17.16 13.96,31.13 31.13,31.13l32.48 0c17.16,0 31.13,-13.96 31.13,-31.13l0 -35.21c-0,-3.27 -2.66,-5.93 -5.93,-5.93zm-25.2 60.41l-32.48 0c-10.63,0 -19.27,-8.64 -19.27,-19.27l0 -7.73 42.44 -0c3.27,0 5.93,-2.66 5.93,-5.93 0,-3.27 -2.66,-5.93 -5.93,-5.93l-42.44 0 0 -9.68 71.02 0 0 29.28 0 0c0,10.62 -8.64,19.27 -19.27,19.27zm-115.16 -75.34c0.04,-0.05 0.07,-0.11 0.11,-0.18 0.01,-0.02 0.02,-0.03 0.03,-0.05 0.04,-0.06 0.08,-0.12 0.12,-0.18 0.01,-0.01 0.01,-0.02 0.02,-0.03 0.05,-0.07 0.1,-0.15 0.16,-0.24 0.01,-0.01 0.02,-0.03 0.03,-0.04 0.05,-0.07 0.1,-0.15 0.16,-0.23 0.01,-0.02 0.02,-0.03 0.03,-0.05 0.07,-0.1 0.14,-0.2 0.21,-0.3 0,-0.01 0.01,-0.01 0.02,-0.02 0.07,-0.1 0.14,-0.2 0.22,-0.31 0.02,-0.03 0.04,-0.05 0.05,-0.07 0.17,-0.24 0.35,-0.49 0.56,-0.78 0.02,-0.03 0.04,-0.05 0.06,-0.08 0.09,-0.12 0.18,-0.25 0.28,-0.38 0.02,-0.03 0.04,-0.05 0.06,-0.08 0.12,-0.16 0.23,-0.32 0.36,-0.49 0.01,-0.02 0.03,-0.04 0.04,-0.05 0.11,-0.15 0.23,-0.31 0.35,-0.48 0.03,-0.03 0.05,-0.07 0.08,-0.1 0.28,-0.37 0.58,-0.77 0.91,-1.2 0.02,-0.03 0.05,-0.06 0.07,-0.09 0.34,-0.45 0.7,-0.93 1.1,-1.44 0.01,-0.01 0.01,-0.02 0.02,-0.03 0.2,-0.26 0.41,-0.53 0.63,-0.82 0.62,1.94 0.95,3.99 0.95,6.06 0,5.77 -2.54,11.14 -6.68,14.84l0.06 -13.18zm33.14 -24.74l-10.55 28.63c-0.82,1.04 -1.26,2.33 -1.26,3.66l11.85 56.63 -21.17 2.31 -9.05 -39.59c11.14,-5.09 15.52,-16.06 15.52,-28.55 0,-5.82 -1.61,-11.51 -4.6,-16.44 12.26,-15.25 17.09,-35.3 18.86,-37.4 0.13,-0.13 0.27,-0.26 0.41,-0.39l0 31.16zm38.85 -106.46c1.04,-0.86 2.14,-1.68 3.26,-2.44 0.56,-0.38 1.14,-0.75 1.72,-1.1 1.46,-0.88 2.98,-1.69 4.52,-2.39 0.31,-0.14 0.63,-0.28 0.95,-0.41 5.22,-2.21 10.76,-3.33 16.48,-3.33 5.72,0 11.26,1.12 16.48,3.33 0.32,0.13 0.63,0.27 0.94,0.41 1.55,0.7 3.07,1.5 4.53,2.39 0.58,0.35 1.16,0.72 1.72,1.1 1.12,0.76 2.22,1.58 3.26,2.44 9.79,8.08 15.41,19.99 15.41,32.68 0,31.28 -32.28,52.04 -42.34,57.74 -10.06,-5.71 -42.34,-26.46 -42.34,-57.74 0,-12.68 5.62,-24.59 15.41,-32.68zm26.93 63.17c-8.55,-6.65 -19.65,-17.75 -19.65,-30.49 0,-5.89 2.61,-11.42 7.16,-15.18 0.48,-0.4 1,-0.78 1.51,-1.13 0.26,-0.18 0.53,-0.35 0.81,-0.52 0.67,-0.41 1.38,-0.78 2.09,-1.1 0.14,-0.06 0.28,-0.13 0.43,-0.19 2.41,-1.02 4.98,-1.53 7.64,-1.53 2.67,0 5.24,0.52 7.66,1.54 0.14,0.06 0.28,0.12 0.42,0.18 0.71,0.32 1.42,0.7 2.09,1.1 0.27,0.16 0.54,0.34 0.8,0.51 0.53,0.36 1.04,0.74 1.52,1.14 4.55,3.76 7.16,9.29 7.16,15.17 -0,12.74 -11.11,23.84 -19.65,30.49z"/>
 </g>
</svg>
