<?xml version="1.0" encoding="UTF-8"?>
<!DOCTYPE svg PUBLIC "-//W3C//DTD SVG 1.1//EN" "http://www.w3.org/Graphics/SVG/1.1/DTD/svg11.dtd">
<!-- Creator: CorelDRAW 2018 (64-Bit) -->
<svg xmlns="http://www.w3.org/2000/svg" xml:space="preserve" width="140mm" height="171.485mm" version="1.1" style="shape-rendering:geometricPrecision; text-rendering:geometricPrecision; image-rendering:optimizeQuality; fill-rule:evenodd; clip-rule:evenodd"
viewBox="0 0 880.25 1078.22"
 xmlns:xlink="http://www.w3.org/1999/xlink">
 <defs>
  <style type="text/css">
   <![CDATA[
    .fil0 {fill:#FEFEFE}
   ]]>
  </style>
 </defs>
 <g id="Слой_x0020_1">
  <metadata id="CorelCorpID_0Corel-Layer"/>
  <path class="fil0" d="M359.96 205.27c20.25,-27.08 5.12,-69.69 -32.25,-78.28 -70.69,-42.98 -287.1,-29.91 -263.29,-113.45 2.44,-7.16 15.99,-13.33 25.09,-13.53l737.9 0c3.86,5.56 20.72,24.14 1.56,37.71 -39.56,26.83 -313.78,79.16 -360.07,92.96 -25.58,7.7 -20.95,37.44 -22.73,67.38 240.28,3.24 434.07,199 434.07,440.05 0,243.07 -197.05,440.13 -440.13,440.13 -243.07,0 -440.13,-197.05 -440.13,-440.13 0,-215.7 155.17,-395.13 359.96,-432.82zm80.16 275.63c86.81,0 157.19,70.38 157.19,157.19 0,86.81 -70.38,157.19 -157.19,157.19 -86.81,0 -157.19,-70.38 -157.19,-157.19 0,-86.81 70.38,-157.19 157.19,-157.19zm0 94.31c34.72,0 62.88,28.15 62.88,62.88 0,34.72 -28.15,62.88 -62.88,62.88 -34.72,0 -62.88,-28.15 -62.88,-62.88 0,-34.72 28.15,-62.88 62.88,-62.88zm249.46 -88.95c-19.96,8.67 -29.2,32.09 -20.54,52.06 8.67,19.97 32.09,29.2 52.06,20.54 19.97,-8.67 29.2,-32.09 20.54,-52.06 -8.67,-19.96 -32.09,-29.2 -52.06,-20.54zm13.71 -57.99c26.88,-0.5 53.08,10.57 71.44,30.39l21.13 -8.75c-12.94,-24.4 -28.29,-47.33 -45.78,-68.43l-46.79 46.79zm96.03 101.87c-2.14,25.53 -14.62,49.64 -34.94,66.01 0.18,1.4 0.35,2.81 0.51,4.22l75.86 0c-2.59,-27.84 -7.99,-54.87 -15.97,-80.77l-25.45 10.54zm-70.98 83.92c-43.9,11 -90.97,-11.13 -109.55,-53.92 -18.55,-42.72 -2.67,-92.13 35.2,-116.73 -52.89,-58.08 -129.12,-94.54 -213.87,-94.54 -159.73,0 -289.23,129.49 -289.23,289.23 0,7.95 0.33,15.83 0.96,23.62 43.42,-10.03 89.53,12.08 107.88,54.33 18.37,42.31 2.97,91.19 -34.12,116.03 52.92,58.49 129.42,95.25 214.51,95.25 159.73,0 289.23,-129.49 289.23,-289.23 0,-8.09 -0.34,-16.11 -1,-24.03zm-53.31 -161.31c-38.18,16.58 -56.07,61.92 -39.49,100.11 16.58,38.19 61.92,56.07 100.11,39.49 38.18,-16.58 56.07,-61.92 39.49,-100.11 -16.58,-38.18 -61.92,-56.07 -100.11,-39.49zm-517.62 264.57c-19.97,8.67 -29.2,32.09 -20.54,52.06 8.67,19.97 32.09,29.2 52.06,20.54 19.97,-8.67 29.2,-32.09 20.54,-52.06 -8.67,-19.97 -32.09,-29.2 -52.06,-20.54zm19.57 130.54c-27.27,1.03 -53.99,-9.9 -72.72,-29.83l-19.9 8.24c12.94,24.4 28.29,47.33 45.78,68.43l46.84 -46.84zm-97.85 -101.09c2.01,-26.45 15.12,-51.44 36.56,-67.97 -0.12,-1 -0.24,-1.99 -0.36,-2.99l-75.86 -0c2.59,27.84 8,54.87 15.97,80.77l23.68 -9.81zm63.73 -62.95c-38.19,16.58 -56.07,61.92 -39.49,100.11 16.58,38.19 61.92,56.07 100.11,39.49 38.19,-16.58 56.07,-61.92 39.49,-100.11 -16.58,-38.19 -61.92,-56.07 -100.11,-39.49zm334.97 -446.36c27.84,2.59 54.87,8 80.77,15.97l-29.04 70.1c-16.74,-4.75 -34.02,-8.18 -51.74,-10.21l-0 -75.86zm150.46 44.88c24.4,12.94 47.33,28.3 68.43,45.78l-53.64 53.64c-13.75,-10.9 -28.4,-20.71 -43.82,-29.32l29.04 -70.1zm212.44 393.47c-2.59,27.84 -8,54.87 -15.97,80.77l-70.1 -29.04c4.75,-16.74 8.18,-34.02 10.21,-51.74l75.86 -0zm-44.88 150.46c-12.94,24.4 -28.3,47.33 -45.78,68.43l-53.64 -53.64c10.9,-13.75 20.71,-28.4 29.32,-43.82l70.1 29.04zm-99.13 121.78c-21.1,17.49 -44.02,32.84 -68.43,45.78l-29.04 -70.1c15.42,-8.61 30.07,-18.42 43.82,-29.32l53.64 53.64zm-138.12 74.69c-25.9,7.98 -52.93,13.38 -80.77,15.97l0 -75.86c17.71,-2.03 35,-5.46 51.74,-10.21l29.04 70.1zm-156.22 15.97c-27.84,-2.59 -54.87,-8 -80.77,-15.97l29.04 -70.1c16.74,4.75 34.02,8.18 51.74,10.21l0 75.86zm-150.46 -44.88c-24.4,-12.94 -47.33,-28.3 -68.43,-45.78l53.64 -53.64c13.75,10.9 28.4,20.71 43.82,29.32l-29.04 70.1zm-212.44 -393.47c2.59,-27.84 8,-54.87 15.97,-80.77l70.1 29.04c-4.75,16.74 -8.18,34.02 -10.21,51.74l-75.86 0zm44.88 -150.46c12.94,-24.4 28.3,-47.33 45.78,-68.43l53.64 53.64c-10.9,13.75 -20.71,28.4 -29.32,43.82l-70.1 -29.04zm99.13 -121.78c21.1,-17.49 44.02,-32.84 68.43,-45.78l29.04 70.1c-15.42,8.61 -30.07,18.42 -43.82,29.32l-53.64 -53.64zm138.12 -74.69c25.9,-7.98 52.93,-13.38 80.77,-15.97l-0 75.86c-17.71,2.03 -35,5.46 -51.74,10.21l-29.04 -70.1z"/>
 </g>
</svg>
