<svg width="20" height="20" viewBox="0 0 20 20" fill="none" xmlns="http://www.w3.org/2000/svg">
<path fill-rule="evenodd" clip-rule="evenodd" d="M18.4375 3.79583C18.4375 4.0094 18.2623 4.18316 18.0469 4.18316H1.95312C1.73773 4.18316 1.5625 4.0094 1.5625 3.79583V1.93665C1.5625 1.72307 1.73773 1.54932 1.95312 1.54932H18.0469C18.2623 1.54932 18.4375 1.72307 18.4375 1.93665V3.79583ZM18.0469 0H1.95312C0.876172 0 0 0.868781 0 1.93665V3.79583C0 4.8637 0.876172 5.73248 1.95312 5.73248H18.0469C19.1238 5.73248 20 4.8637 20 3.79583V1.93665C20 0.868781 19.1238 0 18.0469 0Z" fill="#4D4D4D"/>
<path fill-rule="evenodd" clip-rule="evenodd" d="M18.4375 3.79583C18.4375 4.0094 18.2623 4.18316 18.0469 4.18316H1.95312C1.73773 4.18316 1.5625 4.0094 1.5625 3.79583V1.93665C1.5625 1.72307 1.73773 1.54932 1.95312 1.54932H18.0469C18.2623 1.54932 18.4375 1.72307 18.4375 1.93665V3.79583ZM18.0469 0H1.95312C0.876172 0 0 0.868781 0 1.93665V3.79583C0 4.8637 0.876172 5.73248 1.95312 5.73248H18.0469C19.1238 5.73248 20 4.8637 20 3.79583V1.93665C20 0.868781 19.1238 0 18.0469 0Z" transform="translate(0 14.2676)" fill="#4D4D4D"/>
<path fill-rule="evenodd" clip-rule="evenodd" d="M18.4375 3.79583C18.4375 4.0094 18.2623 4.18316 18.0469 4.18316H1.95312C1.73773 4.18316 1.5625 4.0094 1.5625 3.79583V1.93665C1.5625 1.72307 1.73773 1.54932 1.95312 1.54932H18.0469C18.2623 1.54932 18.4375 1.72307 18.4375 1.93665V3.79583ZM18.0469 0H1.95312C0.876172 0 0 0.868781 0 1.93665V3.79583C0 4.8637 0.876172 5.73248 1.95312 5.73248H18.0469C19.1238 5.73248 20 4.8637 20 3.79583V1.93665C20 0.868781 19.1238 0 18.0469 0Z" transform="translate(0 7.13379)" fill="#4D4D4D"/>
</svg>
