<?xml version="1.0" encoding="UTF-8"?>
<!DOCTYPE svg PUBLIC "-//W3C//DTD SVG 1.1//EN" "http://www.w3.org/Graphics/SVG/1.1/DTD/svg11.dtd">
<!-- Creator: CorelDRAW 2018 (64-Bit) -->
<svg xmlns="http://www.w3.org/2000/svg" xml:space="preserve" width="146.788mm" height="170.034mm" version="1.1" style="shape-rendering:geometricPrecision; text-rendering:geometricPrecision; image-rendering:optimizeQuality; fill-rule:evenodd; clip-rule:evenodd"
viewBox="0 0 968.04 1121.34"
 xmlns:xlink="http://www.w3.org/1999/xlink">
 <defs>
  <style type="text/css">
   <![CDATA[
    .fil0 {fill:#FEFEFE}
   ]]>
  </style>
 </defs>
 <g id="Слой_x0020_1">
  <metadata id="CorelCorpID_0Corel-Layer"/>
  <path class="fil0" d="M286.45 46.68l478.4 -46.54c17.13,-1.67 34.41,10.8 38.4,27.71l163.46 693.37c0.34,1.45 12.38,88.92 -42.82,94.29l-478.4 46.54c-17.13,1.67 -34.41,-10.8 -38.4,-27.71l-70.43 -298.78 -21.8 25.77c-14.06,16.61 -39.15,18.7 -55.77,4.65l0 0c-16.61,-14.06 -18.7,-39.15 -4.65,-55.77l59.63 -70.47 -70.43 -298.78c-6.59,-27.95 -6.43,-89.5 42.82,-94.29zm58.39 972.39c12.46,9.54 19.49,20.33 19.49,31.76 0,38.94 -81.56,70.51 -182.17,70.51 -100.61,0 -182.17,-31.57 -182.17,-70.51 0,-11.42 7.03,-22.21 19.49,-31.76 0.65,41.22 73.23,74.54 162.68,74.54 89.45,0 162.03,-33.32 162.68,-74.54zm-105.95 -51.34c50.7,8.5 86.18,28.03 86.18,50.78 0,30.55 -63.98,55.31 -142.91,55.31 -78.92,0 -142.91,-24.76 -142.91,-55.31 0,-21.95 33.04,-40.92 80.93,-49.85l0 36.42c0,52.52 118.01,58 118.71,0.24l0 -0.12 0 -37.46zm-3.31 -466.59c0.28,0 0.56,0.01 0.84,0.02 -17.75,24.77 -13.75,59.91 9.88,79.91 19.72,16.69 47.59,18.15 68.76,5.61 6.07,21.23 9.51,45.43 9.51,71.5 0,89.43 -38.68,158.43 -87.24,158.43 -5.45,0 -11.64,0.23 -18.22,0.53l0 187.93c-0.38,31.41 -79.11,26.17 -79.14,0l0 -188.45 22.49 0c39.85,-15.42 69.77,-80.49 69.77,-158.44 0,-80.12 -31.6,-146.63 -73.1,-159.62 24.46,0.98 54.03,2.58 76.47,2.58zm-97.93 15.42c42.4,0 76.77,63.29 76.77,141.36 0,78.07 -34.37,141.36 -76.77,141.36 -42.4,0 -76.77,-63.29 -76.77,-141.36 0,-78.07 34.37,-141.36 76.77,-141.36zm724.3 137.64c20.58,-1.43 38.07,8.88 39.05,23.03 0.98,14.15 -14.9,26.78 -35.49,28.21 -20.58,1.43 -38.07,-8.88 -39.05,-23.03 -0.98,-14.15 14.9,-26.78 35.49,-28.21zm-164.12 18.34c20.58,-1.43 38.07,8.88 39.05,23.03 0.98,14.15 -14.9,26.78 -35.49,28.21 -20.58,1.43 -38.07,-8.88 -39.05,-23.03 -0.98,-14.15 14.9,-26.78 35.49,-28.21zm-164.12 18.34c20.58,-1.43 38.07,8.88 39.05,23.03 0.98,14.15 -14.9,26.78 -35.49,28.21 -20.58,1.43 -38.07,-8.88 -39.05,-23.03 -0.98,-14.15 14.9,-26.78 35.49,-28.21zm-167.96 -600.86l362.78 -35.29c12.99,-1.26 26.1,8.19 29.12,21.01l123.95 525.79c3.02,12.82 -5.13,24.35 -18.13,25.61l-362.78 35.29c-12.99,1.26 -26.1,-8.19 -29.12,-21.01l-123.95 -525.79c-3.02,-12.82 5.13,-24.35 18.13,-25.61zm-77.77 -27.42c-7.59,0.74 -11.6,6.83 -9.87,14.16l163.46 693.37c2.13,9.02 12.01,16.35 21.27,15.45l478.4 -46.53c7.59,-0.74 11.6,-6.83 9.87,-14.16l-163.46 -693.37c-2.13,-9.01 -12.01,-16.35 -21.27,-15.45l-478.4 46.54z"/>
 </g>
</svg>
