<?xml version="1.0" encoding="UTF-8"?>
<svg width="20px" height="24px" viewBox="0 0 20 24" version="1.1" xmlns="http://www.w3.org/2000/svg" xmlns:xlink="http://www.w3.org/1999/xlink">
    <!-- Generator: Sketch 49.2 (51160) - http://www.bohemiancoding.com/sketch -->
    <title>7</title>
    <desc>Created with Sketch.</desc>
    <defs></defs>
    <g id="Symbols" stroke="none" stroke-width="1" fill="none" fill-rule="evenodd">
        <g id="хедер" transform="translate(-579.000000, -153.000000)" fill="#4A4A4A" fill-rule="nonzero">
            <g id="7">
                <g transform="translate(589.000000, 165.000000) scale(-1, 1) translate(-589.000000, -165.000000) translate(579.000000, 153.000000)">
                    <path d="M4.69890318,12.1245899 C4.65548829,12.340757 4.79530291,12.5509415 5.01121029,12.5940347 L5.68960294,12.7300447 L5.08926372,13.331106 C4.63751546,13.782977 3.85077231,13.782977 3.39902405,13.331106 C3.17317326,13.1049836 3.04885729,12.8046398 3.04885729,12.4851799 C3.04885729,12.1652994 3.17312657,11.8650024 3.39902405,11.6392539 L6.11702953,8.91760509 C6.1373365,8.94275058 6.15605625,8.96784933 6.17598975,8.99299482 L11.9008264,6.0842505 C10.3974108,4.73176899 8.89478884,3.60466212 7.55513607,2.83253665 C6.30908206,2.11420758 5.29485423,1.76086203 4.54671765,1.77161196 C4.55428025,1.70781346 4.56543741,1.64518343 4.56543741,1.58016972 C4.56543741,1.15419203 4.3997139,0.753359824 4.09856396,0.452268284 C3.49705767,-0.150756095 2.447351,-0.150756095 1.8450511,0.452268284 C1.54427462,0.753406562 1.37855111,1.15423876 1.37855111,1.58016972 C1.37855111,2.00614741 1.54427462,2.40697961 1.8450511,2.70807115 C2.14620105,3.00958334 2.54617822,3.17550619 2.9720176,3.17550619 C3.0361596,3.17550619 3.09792078,3.16433561 3.16084903,3.15713783 C3.13736764,4.40029721 4.1272738,6.28242314 5.6266747,8.28102223 L2.83575087,11.0753032 C2.36967102,11.5407284 1.61159104,11.5407284 1.14551119,11.0753032 C0.679851492,10.6086627 0.679851492,9.84925017 1.14551119,9.3826097 L1.74585041,8.781969 L1.881697,9.46117767 C1.92473843,9.67734476 2.13387682,9.81891667 2.35057781,9.77386044 C2.56648519,9.73039333 2.70629981,9.52058273 2.66288492,9.30441564 L2.23545833,7.16387072 L0.582284697,8.81865898 C-0.194094899,9.59597246 -0.194094899,10.8615197 0.582284697,11.6392539 C0.970684568,12.0277003 1.48059945,12.2219469 1.99088778,12.2219469 C2.08808112,12.2219469 2.18448084,12.2083926 2.28088057,12.1944177 C2.26692245,12.2901388 2.25221741,12.3862806 2.25221741,12.4851799 C2.25221741,13.0180493 2.45976859,13.5185755 2.83579755,13.8950567 C3.21224666,14.271538 3.71217144,14.4793388 4.24398049,14.4793388 C4.77620969,14.4793388 5.27650794,14.271538 5.65258358,13.8950567 L7.30575721,12.2398946 L5.16736384,11.8119538 C4.951083,11.7672248 4.74152446,11.9084228 4.69890318,12.1245899 Z M3.53529078,2.1440737 C3.23451429,2.44558589 2.70989437,2.44558589 2.40874442,2.1440737 C2.25814611,1.99329423 2.17528436,1.79311182 2.17528436,1.58012298 C2.17528436,1.36713413 2.25814611,1.16690499 2.40874442,1.01617226 C2.55892259,0.865392798 2.75891118,0.782431376 2.9720176,0.782431376 C3.18475056,0.782431376 3.38473915,0.865392798 3.53529078,1.01617226 C3.68584241,1.16695173 3.76875084,1.36713413 3.76875084,1.58012298 C3.76875084,1.79311182 3.68588909,1.99334097 3.53529078,2.1440737 Z M6.0704869,4.68227257 C6.226267,4.5263051 6.47840013,4.5263051 6.63376008,4.68227257 C6.78954017,4.83824005 6.78954017,5.09067646 6.63376008,5.24622329 C6.47840013,5.40219076 6.22622031,5.40219076 6.0704869,5.24622329 C5.91470681,5.09067646 5.91470681,4.83824005 6.0704869,4.68227257 Z" id="Shape"></path>
                    <path d="M16.5111385,21.6166883 C16.4674142,21.8355166 16.6094945,22.0479101 16.8284007,22.0919123 L17.5175567,22.2295967 L16.9076925,22.8376317 C16.4492036,23.2950655 15.6499306,23.2950655 15.1910623,22.8376317 C14.7175876,22.3652465 14.7175876,21.596911 15.1910623,21.1245258 L18.8574559,17.4665692 C19.543814,16.7817905 19.3026189,15.3731517 18.1593843,13.392342 C17.7769624,12.7298011 17.3075187,12.0276581 16.7693112,11.3057851 L11.107438,14.130018 C12.3809445,15.2104381 13.6354817,16.1160795 14.7742111,16.7701039 C15.8000729,17.3595917 16.670149,17.7043704 17.3690268,17.8097392 L14.6188048,20.5536325 C14.159889,21.0110664 13.3606634,21.0110664 12.9017477,20.5536325 C12.6723136,20.3251048 12.5460252,20.021111 12.5460252,19.6972925 C12.5460252,19.373474 12.6722661,19.0694802 12.9017477,18.8409525 L13.5116119,18.2324917 L13.6496139,18.9200619 C13.6929114,19.1385116 13.9057948,19.281022 14.1255071,19.236594 C14.3448401,19.1929703 14.486873,18.9806241 14.4431961,18.7617958 L14.0085612,16.594095 L12.3295376,18.2700592 C11.9475426,18.6507967 11.7366984,19.1579105 11.7366984,19.6972925 C11.7366984,20.2367219 11.9475426,20.7437883 12.3295376,21.1245258 C12.7115327,21.5060677 13.2198161,21.7160009 13.7600628,21.7160009 C13.8604106,21.7160009 13.9579604,21.7014754 14.0550835,21.6873284 C13.965643,22.2973979 14.1493611,22.9401616 14.6188048,23.408525 C15.0007998,23.7900668 15.5087038,24 16.04933,24 C16.5899561,24 17.0978601,23.7900668 17.480282,23.408525 L19.1596849,21.7333652 L16.9873637,21.3001562 C16.7668926,21.2549711 16.5548154,21.3978601 16.5111385,21.6166883 Z" id="Shape"></path>
                    <path d="M13.4575711,7.59646842 C13.1689628,7.30414448 12.8783898,7.02115406 12.5870217,6.74380165 L6.74380165,9.74729986 C7.42476769,10.5668018 8.1675717,11.3863038 8.94194956,12.1702247 C9.46565445,12.7010509 9.99614187,13.2068139 10.5257873,13.6859504 L16.2644628,10.7798619 C15.4461622,9.72953301 14.4981984,8.65044547 13.4575711,7.59646842 Z" id="Shape"></path>
                </g>
            </g>
        </g>
    </g>
</svg>