<?xml version="1.0" encoding="UTF-8"?>
<!DOCTYPE svg PUBLIC "-//W3C//DTD SVG 1.1//EN" "http://www.w3.org/Graphics/SVG/1.1/DTD/svg11.dtd">
<!-- Creator: CorelDRAW 2018 (64-Bit) -->
<svg xmlns="http://www.w3.org/2000/svg" xml:space="preserve" width="169.987mm" height="170mm" version="1.1" style="shape-rendering:geometricPrecision; text-rendering:geometricPrecision; image-rendering:optimizeQuality; fill-rule:evenodd; clip-rule:evenodd"
viewBox="0 0 350.96 350.99"
 xmlns:xlink="http://www.w3.org/1999/xlink">
 <defs>
  <style type="text/css">
   <![CDATA[
    .fil0 {fill:#FEFEFE}
   ]]>
  </style>
 </defs>
 <g id="Слой_x0020_1">
  <metadata id="CorelCorpID_0Corel-Layer"/>
  <path class="fil0" d="M97.12 119.08c15.23,0.31 27.84,-11.75 28.2,-26.98 0,-10.26 -15.72,-34.26 -28.2,-50.61 -12.49,16.36 -28.2,40.36 -28.2,50.61 0.36,15.23 12.97,27.3 28.2,26.98zm-96.36 202.61c0.02,16.17 13.12,29.27 29.29,29.29l58.48 0c5.47,0.09 10.78,-1.89 14.87,-5.52 22.85,-21.08 58.06,-21.08 80.91,0 4.09,3.64 9.39,5.61 14.86,5.52l94.04 0c26.52,-0.05 49.6,-18.14 55.99,-43.87l-348.44 0 0 14.58zm299.56 -71.97c-1.69,0 -3.35,-0 -4.99,-0l-0.01 0c-24.32,0.86 -43.76,20.53 -44.33,44.86l99.89 0c0.01,-0.45 0.07,-0.88 0.07,-1.33l0 -7.09c-0.02,-1.64 -1.11,-36.43 -50.63,-36.43zm-288.45 -27.61c-6.2,20.83 -9.93,42.32 -11.11,64.02l0 8.45 237.72 -0c0.09,-18.08 8.71,-35.06 23.25,-45.8 -34.53,-2.83 -56.79,-14.22 -73.96,-60.02 -19.01,-50.7 14.85,-157.72 25.47,-188.75l-212.74 0c-0.8,22 -2.45,100.56 11.94,156.88 5.37,21.44 5.18,43.89 -0.56,65.23zm80.37 -194.72c1.23,-1.4 3.01,-2.2 4.87,-2.2 1.86,0 3.64,0.8 4.87,2.2 3.67,4.53 35.87,44.83 35.87,64.71 -0.37,22.15 -18.59,39.82 -40.74,39.52 -22.15,0.31 -40.37,-17.37 -40.74,-39.52 0,-19.88 32.2,-60.18 35.87,-64.71z"/>
 </g>
</svg>
