<svg width="15" height="16" viewBox="0 0 15 16" fill="none" xmlns="http://www.w3.org/2000/svg">
<g opacity="0.8">
<mask id="mask0" mask-type="alpha" maskUnits="userSpaceOnUse" x="0" y="0" width="15" height="16">
<path fill-rule="evenodd" clip-rule="evenodd" d="M0 0H14.2544V15.9651H0V0Z" fill="white"/>
</mask>
<g mask="url(#mask0)">
<path fill-rule="evenodd" clip-rule="evenodd" d="M11.2652 5.92608L6.88837 10.3029C6.78653 10.4048 6.65296 10.4558 6.51947 10.4558C6.38597 10.4558 6.25234 10.4048 6.15056 10.3029L3.44441 7.59676C3.34646 7.49895 3.2915 7.36622 3.2915 7.22786C3.2915 7.08949 3.34653 6.95676 3.44441 6.85895L3.98173 6.32163C4.18549 6.11794 4.51585 6.11787 4.71954 6.32163L6.51947 8.12156L9.99008 4.65088C10.0878 4.553 10.2205 4.49805 10.359 4.49805C10.4973 4.49805 10.63 4.553 10.7278 4.65088L11.2652 5.1882C11.469 5.39196 11.469 5.72233 11.2652 5.92608ZM14.0607 2.2344C14.032 2.02856 13.884 1.85923 13.6837 1.80358L7.26698 0.0190957C7.17557 -0.00636522 7.07895 -0.00636522 6.9874 0.0190957L0.570705 1.80358C0.370497 1.85923 0.222392 2.02849 0.193731 2.2344C0.156514 2.50202 -0.692599 8.82522 1.48521 11.9708C3.66037 15.1127 6.86921 15.9178 7.00465 15.9506C7.04493 15.9603 7.08604 15.9651 7.12723 15.9651C7.16834 15.9651 7.20938 15.9602 7.24966 15.9506C7.38531 15.9178 10.5941 15.1127 12.7692 11.9708C14.947 8.82529 14.0979 2.50209 14.0607 2.2344Z" fill="#4A4A4A"/>
</g>
</g>
</svg>
