<?xml version="1.0" encoding="UTF-8"?>
<!DOCTYPE svg PUBLIC "-//W3C//DTD SVG 1.1//EN" "http://www.w3.org/Graphics/SVG/1.1/DTD/svg11.dtd">
<!-- Creator: CorelDRAW 2018 (64-Bit) -->
<svg xmlns="http://www.w3.org/2000/svg" xml:space="preserve" width="170mm" height="170mm" version="1.1" style="shape-rendering:geometricPrecision; text-rendering:geometricPrecision; image-rendering:optimizeQuality; fill-rule:evenodd; clip-rule:evenodd"
viewBox="0 0 388.23 388.23"
 xmlns:xlink="http://www.w3.org/1999/xlink">
 <defs>
  <style type="text/css">
   <![CDATA[
    .fil0 {fill:white}
   ]]>
  </style>
 </defs>
 <g id="Слой_x0020_1">
  <metadata id="CorelCorpID_0Corel-Layer"/>
  <path class="fil0" d="M63.3 104.53c-11.8,5.11 -31.69,14.92 -39.56,22.86 0,0.01 -4.84,21.6 -8.92,43.57 -7.89,45.03 -17.64,120.52 -14.07,205.1l4.1 0 0 2.25c0,4.97 4.32,8.99 9.66,8.99l22.64 0c5.34,0 9.66,-4.02 9.66,-8.99l0 -2.25 4.18 0c0,0 -4.31,-132.81 18.66,-166.84l0 124.43 0 11.18 0 29.99c0,0 43.06,11.86 78.95,13.41l0 -307.21c0,0 -20.1,1.17 -31.94,-3.48 -1.3,-11.54 32.23,-14.66 55.07,-9.45 -0.18,-3.72 -0.26,-7.46 -0.26,-11.22 -22.33,-2.8 -67.7,-1.49 -69.88,15.22l-0.36 21.31c0,0 -18.17,3.63 -37.95,11.14zm223.41 -104.53c-3.13,2.38 -46.09,34.34 -101.18,45.37 -7.26,127.12 101.11,192.94 101.18,192.9 0.07,0.04 108.44,-65.78 101.18,-192.91 -55.09,-11.03 -101.18,-45.37 -101.18,-45.37zm32.7 85.28c-21.76,-25.85 -22.12,-59.6 -23.91,-58.53 -5.1,0 -93.17,118.54 -20.1,144.86 29.18,11.03 58.73,-5.53 64.61,-37.89 3.19,-17.4 -10.3,-35.21 -20.59,-48.44zm-43.77 70.65c-7.11,-4.17 -11.52,-12.5 -13.73,-19.85 -2.97,-11.15 0.61,-19.1 4.41,-29.66 1.23,5.39 2.83,19.12 11.1,26.91 7.84,8.58 20.75,5.39 24.2,12.31 3.36,8.25 -12.58,18.67 -25.98,10.29zm-25.08 72.07c8.84,41.24 8.9,129.38 8.57,148.05l4.16 0 0 2.25c0,4.96 4.31,8.99 9.65,8.99l22.65 0c5.35,0 9.67,-4.03 9.67,-8.99l0 -2.25 4.09 0c1.84,-43.67 -0.88,-96.86 -4.11,-133.6 -1.98,1.46 -3.99,2.88 -6.02,4.25 -1.37,0.92 -2.76,1.82 -4.18,2.66 -0.56,0.33 -1.12,0.65 -1.7,0.95 -0.57,0.29 -1.16,0.55 -1.75,0.77 -1.61,0.62 -3.25,0.91 -4.88,0.9 -1.64,0.01 -3.29,-0.29 -4.9,-0.91 -0.59,-0.22 -1.16,-0.47 -1.73,-0.76 -0.58,-0.3 -1.14,-0.62 -1.7,-0.95 -1.42,-0.84 -2.81,-1.74 -4.18,-2.66 -4.56,-3.06 -8.98,-6.4 -13.26,-9.84 -3.53,-2.85 -7,-5.81 -10.39,-8.86zm-77.69 -146.07l-11.83 -0.36 0.48 306.66c35.89,-1.55 78.95,-13.41 78.95,-13.41l0 -29.99 0 -11.17 0 -115.26c-6.37,-6.41 -12.41,-13.15 -18.04,-20.14 -27.56,-34.19 -44.78,-73.77 -49.57,-116.33z"/>
 </g>
</svg>
