<?xml version="1.0" encoding="UTF-8"?>
<!DOCTYPE svg PUBLIC "-//W3C//DTD SVG 1.1//EN" "http://www.w3.org/Graphics/SVG/1.1/DTD/svg11.dtd">
<!-- Creator: CorelDRAW 2018 (64-Bit) -->
<svg xmlns="http://www.w3.org/2000/svg" xml:space="preserve" width="182.356mm" height="169.238mm" version="1.1" style="shape-rendering:geometricPrecision; text-rendering:geometricPrecision; image-rendering:optimizeQuality; fill-rule:evenodd; clip-rule:evenodd"
viewBox="0 0 1669.88 1549.75"
 xmlns:xlink="http://www.w3.org/1999/xlink">
 <defs>
  <style type="text/css">
   <![CDATA[
    .fil0 {fill:#FEFEFE}
   ]]>
  </style>
 </defs>
 <g id="Слой_x0020_1">
  <metadata id="CorelCorpID_0Corel-Layer"/>
  <path class="fil0" d="M820.99 995.13c-18.98,-12.55 -40.89,-33.64 -48.04,-41.66l-24.82 -27.89c0.27,25.22 -10.43,50.6 -30.45,68.42 -16.1,14.33 -36.82,22.56 -58.05,23.09 -0.37,8.35 -3.63,16.41 -10.4,22.43l-306.54 272.81c-14.83,13.2 -36.68,8.49 -49.74,-4.8 -16.94,16.17 -33.78,32.53 -51.29,48.09 -25.64,22.78 -28.22,65.8 -5.53,91.51 23.68,26.83 64.4,29.25 91.15,5.5l22.19 -19.7 -18.63 -4.93c-21.49,-5.68 -34.38,-27.86 -28.71,-49.34 5.68,-21.48 27.76,-34.47 49.28,-28.79l164.36 43.42 -135 119.79c-60.14,53.36 -151.83,47.85 -205.08,-12.41 -25.67,-29.05 -38.61,-66.58 -36.27,-105.29 0.08,-1.23 0.18,-2.46 0.31,-3.68 -81.77,-2.92 -144.41,-72.26 -139.47,-153.81 2.35,-38.78 19.65,-74.39 48.7,-100.19l134.99 -119.89 23.16 168.79c3.04,22.12 -12.3,42.5 -34.44,45.54 -22.07,3.03 -42.45,-12.44 -45.48,-34.51l-2.62 -19.08 -22.1 19.63c-25.62,22.76 -28.22,65.79 -5.53,91.47 23.51,26.62 64.65,29.1 91.2,5.52l52.54 -46.65c-10.42,-14.5 -11.79,-35.46 2.42,-48.1l306.54 -272.81c7.19,-6.4 16.16,-8.59 24.96,-7.59 3.21,-20.53 13.66,-39.55 29.5,-53.65 20.09,-17.88 46.45,-25.59 71.39,-22.42l-21.32 -23.95c-11.69,-13.14 -59.94,-88.69 -46.8,-100.39l5.76 -5.12c9.33,-8.3 22.27,-10.11 33.18,-5.76 -3.38,-11.51 -0.14,-24.51 9.38,-32.98l5.76 -5.12c9.33,-8.31 22.27,-10.12 33.18,-5.77 -3.38,-11.51 -0.14,-24.51 9.38,-32.98l5.76 -5.12c9.33,-8.3 22.27,-10.12 33.18,-5.76 -3.38,-11.52 -0.14,-24.51 9.38,-32.98l5.76 -5.12c9.33,-8.3 22.27,-10.11 33.18,-5.76 -3.38,-11.51 -0.14,-24.51 9.38,-32.98l5.76 -5.12c9.33,-8.3 22.27,-10.11 33.18,-5.76 -3.38,-11.51 -0.14,-24.51 9.38,-32.98l5.76 -5.12c4.97,-4.42 36.77,30.72 71.2,13.06 4.03,-2.07 8.44,-4.76 13.1,-7.89 -13.89,33.97 -26.48,67.95 -37.77,101.51 -41.14,122.29 -71.68,258.8 -80.26,393.31zm-175.82 -82.61c-9.14,8.14 -17.51,23.42 -11.98,35.7 1.39,3.09 3.65,5.63 6.56,7.37 11.55,6.91 27.71,0.38 36.85,-7.76 9.14,-8.14 17.51,-23.42 11.98,-35.7 -1.39,-3.09 -3.65,-5.63 -6.56,-7.37 -11.55,-6.92 -27.71,-0.38 -36.85,7.76z"/>
  <path class="fil0" d="M1503.32 10.43c179.7,68.15 220.34,451.72 90.78,856.72 -129.56,405.01 -380.27,678.09 -559.97,609.94 -179.7,-68.15 -220.34,-451.72 -90.78,-856.73 129.56,-405.01 380.27,-678.09 559.97,-609.94zm-49.01 90.45c31.64,2.44 55.41,31.39 53.1,64.67 -2.32,33.28 -29.85,58.28 -61.49,55.84 -31.64,-2.44 -55.41,-31.39 -53.1,-64.67 2.32,-33.28 29.85,-58.28 61.49,-55.84z"/>
 </g>
</svg>
