<?xml version="1.0" encoding="UTF-8"?>
<svg width="57px" height="44px" viewBox="0 0 57 44" version="1.1" xmlns="http://www.w3.org/2000/svg" xmlns:xlink="http://www.w3.org/1999/xlink">
    <!-- Generator: Sketch 49.2 (51160) - http://www.bohemiancoding.com/sketch -->
    <title>2</title>
    <desc>Created with Sketch.</desc>
    <defs>
        <polygon id="path-1" points="0.000185822415 0.000382608696 56.6910181 0.000382608696 56.6910181 43.1710783 0.000185822415 43.1710783"></polygon>
    </defs>
    <g id="Page-1" stroke="none" stroke-width="1" fill="none" fill-rule="evenodd">
        <g id="00.1-Главная-Меню" transform="translate(-269.000000, -233.000000)">
            <g id="Выпадающее-меню" transform="translate(0.000000, 190.000000)">
                <g id="2" transform="translate(269.000000, 43.000000)">
                    <mask id="mask-2" fill="white">
                        <use xlink:href="#path-1"></use>
                    </mask>
                    <g id="Clip-2"></g>
                    <path d="M30.8335739,32.1876261 C30.8412261,33.1441478 32.1401826,34.4144087 33.0766174,34.3828435 C33.9269652,34.3551043 35.0680957,33.1240609 35.0585304,32.2450174 C35.0451391,31.0359739 34.1622696,30.1674522 32.9895739,30.1703217 C31.5691391,30.1731913 30.9512261,31.2483217 30.8335739,32.1876261 Z M33.1483565,39.9507565 C34.1517478,40.0291913 35.7156609,39.6226696 37.6841826,38.1371913 C40.2132261,36.2289304 40.8694,33.8672783 40.4332261,30.7872783 C40.3806174,30.4228435 40.2160957,30.2946696 39.9138348,30.5261478 C39.3246174,30.9766696 38.7459217,31.4434522 38.1854,31.9284087 C37.6669652,32.3760609 37.3771391,32.9375391 37.193487,33.6262348 C36.5430522,36.0730174 33.6715739,37.3911043 31.3912261,36.475713 C31.2544435,36.4221478 31.1004435,36.2624087 30.9980957,36.2930174 C29.9468783,36.6115391 28.9004435,36.9491913 27.8664435,37.3174522 C27.7851391,37.3471043 27.7191391,37.7641478 27.7908783,37.8215391 C29.2849652,39.0200609 30.9120087,39.9172783 33.1483565,39.9507565 Z M25.3087043,32.1311913 C25.3287913,32.5511043 25.3144435,32.9758 25.3775739,33.3890174 C25.4741826,34.0289304 25.7047043,34.1494522 26.1906174,33.7496261 C27.2007043,32.9193652 28.6326174,32.4047565 28.6106174,30.7356261 C28.6096609,30.6658 28.6584435,30.5911913 28.6957478,30.5251913 C29.9038348,28.4122348 31.4792261,27.4566696 34.0752261,27.9272783 C34.6567913,28.0324957 35.3024435,28.0162348 35.8744435,27.873713 C36.5985304,27.6948435 37.2881826,27.3524087 37.9730522,27.0386696 C38.3891391,26.8483217 38.2896609,26.5431913 37.9759217,26.3432783 C37.3436609,25.9386696 36.7286174,25.4556261 36.0341826,25.2088435 C33.6017478,24.3441478 31.2267043,24.3451043 28.9329652,25.7664957 C26.5483565,27.2462348 25.4282696,29.3859739 25.3087043,32.1311913 Z M19.3486174,29.1573652 C18.5451391,29.1573652 17.7330522,29.0884957 16.9420087,29.1831913 C16.4934,29.237713 16.0103565,29.4854522 15.6621826,29.7829304 C15.0710522,30.289887 14.5870522,30.9183217 14.0351391,31.4711913 C12.7543565,32.753887 11.4687913,34.033713 10.1660087,35.2934522 C9.20470435,36.2241478 8.2214,37.1328435 7.22853043,38.0271913 C6.73305217,38.4748435 6.18496522,38.8631913 5.67226957,39.291713 C3.92566087,40.7494522 0.123486957,39.0631043 0.0106173913,36.4479739 C-0.0572956522,34.8668435 0.180878261,33.5210174 1.48653043,32.3598 C3.45122609,30.6131913 5.21887826,28.6456261 7.10896522,26.8129304 C8.97513913,25.0022348 10.9063565,23.2594522 12.777313,21.4544957 C13.9854,20.2904087 15.1246174,19.0526696 16.319313,17.8723217 C17.6546174,16.5532783 19.1180957,15.3490174 20.3347913,13.9314522 C21.2587913,12.8534522 22.5405304,12.7281478 23.6395739,12.1341478 C24.5061826,11.6644957 25.2340957,10.9098 25.9648783,10.2182348 C27.3355739,8.92214783 28.6660957,7.58206087 30.0071391,6.25345217 C31.2525304,5.01858261 32.4874,3.77223478 33.7318348,2.53545217 C34.5066174,1.76449565 35.2919217,1.00310435 36.0686174,0.233104348 C36.4177478,-0.114113043 36.7391391,-0.050026087 37.0567043,0.271365217 C38.0591391,1.28527826 39.0759217,2.2858 40.0582696,3.3198 C40.3997478,3.67945217 40.167313,3.99606087 39.8612261,4.29353913 C38.4656609,5.64510435 37.0959217,7.02249565 35.697487,8.3711913 C34.4607043,9.56397391 33.1847043,10.7165826 31.9498348,11.9131913 C30.7120957,13.1126696 29.4887043,14.3284087 28.2920957,15.5709304 C27.9123565,15.9640609 27.5909652,16.4050174 27.5766174,17.0391913 C27.5498348,18.2013652 26.6746174,18.9206696 25.9687043,19.6878 C25.0791391,20.6529304 24.1063565,21.5415391 23.1814,22.4760609 C23.003487,22.655887 22.8839217,22.8931043 22.7375739,23.1044957 C22.9652261,23.1131043 23.1938348,23.1264957 23.421487,23.1293652 C24.301487,23.1408435 25.1862696,23.2039739 26.0586174,23.1303217 C26.4641826,23.095887 27.0218348,22.9007565 27.2112261,22.593713 C28.5704435,20.3870174 30.4452261,18.787713 32.749487,17.6638 C33.0536609,17.5155391 33.3980087,17.4342348 33.7318348,17.3653652 C35.4765304,17.0085826 37.1839217,16.5111913 39.001313,16.4978 C40.6379217,16.4853652 42.3041826,16.3801478 43.9006174,16.0444087 C46.1360087,15.5747565 48.2795739,14.8324957 50.1055739,13.3049304 C52.043487,11.6826696 53.4103565,9.71797391 54.2176609,7.35727826 C54.4156609,6.77858261 54.6595739,6.5098 55.2679217,6.64371304 C55.5290522,6.70014783 55.7920957,6.7518 56.0580087,6.78336522 C56.5936609,6.84745217 56.8251391,7.11145217 56.6127913,7.63753913 C56.1460087,8.79301739 55.7500087,9.98866957 55.1588783,11.0771913 C54.665313,11.9868435 54.0244435,12.8591913 53.2879217,13.5861478 C52.175487,14.6842348 51.0458348,15.7526696 49.6005304,16.5025826 C48.0146174,17.3242348 46.4047913,18.0320609 44.673487,18.3544087 C43.0646174,18.6547565 41.4107913,18.8192783 39.7741826,18.8355391 C38.0400087,18.853713 36.3517478,19.0928435 34.7132261,19.5663217 C33.6811391,19.8647565 32.7303565,20.455887 31.759487,20.9484957 C31.6370522,21.009713 31.6112261,21.2641478 31.5404435,21.4286696 C31.6829652,21.4506696 31.825487,21.4841478 31.9689652,21.4946696 C33.3329652,21.599887 34.7189652,21.5836261 36.0552261,21.8351913 C37.3015739,22.0704957 38.4207043,22.7151913 39.393487,23.5789304 C39.8765304,24.0074522 40.431313,24.1318 40.977487,23.6143217 C41.1955739,23.407713 41.4155739,23.1695391 41.6824435,23.0528435 C42.5538348,22.6731043 43.3343565,22.5439739 43.7772261,23.7578 C44.1062696,24.6598 44.7739217,25.4345826 45.2627043,26.2830174 C45.5238348,26.7373652 45.8040957,27.2051043 45.9322696,27.7044087 C46.0948783,28.3404957 45.9408783,28.9842348 45.1986174,29.1478 C43.7963565,29.457713 43.445313,30.2315391 43.6662696,31.6204087 C43.8231391,32.6113652 43.6012261,33.6721478 43.4912261,34.6946696 C43.3496609,36.0060609 42.7767043,37.1328435 41.8976609,38.1113652 C41.1209652,38.9760609 40.4188783,39.9163217 39.5714,40.7025826 C38.975487,41.2554522 38.2303565,41.6916261 37.4852261,42.0340609 C35.6305304,42.8872783 33.6916609,43.4487565 31.6236609,43.0288435 C30.3754,42.7744087 29.145313,42.4683217 28.0529652,41.7136261 C27.3834,41.2525826 26.4766174,41.1607565 25.9677478,40.4022348 C25.9160957,40.3247565 25.5564435,40.3725826 25.3976609,40.4634522 C24.9194,40.7379739 24.4956609,41.1148435 24.0030522,41.3587565 C23.249313,41.7327565 22.5682696,41.5051043 22.1598348,40.7867565 C21.4175739,39.4801478 20.6600087,38.1792783 19.9952261,36.8324957 C19.8536609,36.5464957 19.945487,35.9458 20.165487,35.7229304 C20.5729652,35.3116261 21.1306174,35.0160609 21.6720087,34.777887 C22.1244435,34.5789304 22.2755739,34.3646696 22.2669652,33.8500609 C22.2430522,32.4468435 22.2688783,31.0388435 22.3788783,29.6404087 C22.413313,29.2023217 22.2707913,29.2032783 21.9867043,29.2013652 C21.1076609,29.1975391 20.2276609,29.2004087 19.3486174,29.2004087 L19.3486174,29.1573652 Z" id="Fill-1" fill="#FFFFFF" mask="url(#mask-2)"></path>
                </g>
            </g>
        </g>
    </g>
</svg>