<?xml version="1.0" encoding="UTF-8"?>
<!DOCTYPE svg PUBLIC "-//W3C//DTD SVG 1.1//EN" "http://www.w3.org/Graphics/SVG/1.1/DTD/svg11.dtd">
<!-- Creator: CorelDRAW 2018 (64-Bit) -->
<svg xmlns="http://www.w3.org/2000/svg" xml:space="preserve" width="169.038mm" height="162.436mm" version="1.1" style="shape-rendering:geometricPrecision; text-rendering:geometricPrecision; image-rendering:optimizeQuality; fill-rule:evenodd; clip-rule:evenodd"
viewBox="0 0 847.07 813.99"
 xmlns:xlink="http://www.w3.org/1999/xlink">
 <defs>
  <style type="text/css">
   <![CDATA[
    .fil0 {fill:#FEFEFE}
   ]]>
  </style>
 </defs>
 <g id="Слой_x0020_1">
  <metadata id="CorelCorpID_0Corel-Layer"/>
  <path class="fil0" d="M710.25 139.9l37.82 0c8.27,0 15.03,6.77 15.03,15.03l0 402.69c0,8.27 -6.77,15.03 -15.03,15.03l-37.82 0c-8.27,0 -15.03,-6.76 -15.03,-15.03l0 -70.88 -54.89 0 0 70.88c0,8.27 -6.77,15.03 -15.03,15.03l-37.82 0c-8.27,0 -15.03,-6.76 -15.03,-15.03l0 -402.69c0,-8.27 6.76,-15.03 15.03,-15.03l37.82 0c8.27,0 15.03,6.77 15.03,15.03l0 70.88 54.89 0 0 -70.88c0,-8.27 6.76,-15.03 15.03,-15.03zm-277.72 90.52l0 61.59c0,14.02 -0.78,24.18 -2.3,30.56 -1.52,6.42 -4.67,12.38 -9.46,17.95 -4.79,5.53 -10.55,9.54 -17.32,11.95 -6.73,2.45 -14.29,3.66 -22.66,3.66 -11.02,0 -20.17,-1.28 -27.49,-3.82 -7.28,-2.57 -13.08,-6.54 -17.44,-11.91 -4.32,-5.41 -7.4,-11.1 -9.23,-17.05 -1.83,-6 -2.73,-15.49 -2.73,-28.5l0 -64.43c0,-16.97 1.48,-29.67 4.4,-38.11 2.92,-8.45 8.72,-15.22 17.44,-20.32 8.68,-5.1 19.23,-7.63 31.61,-7.63 10.12,0 19.15,1.75 27.14,5.29 7.98,3.54 13.94,7.86 17.87,12.96 3.97,5.1 6.66,10.82 8.06,17.21 1.4,6.39 2.1,16.59 2.1,30.6zm-46.02 -15.46c0,-9.81 -0.47,-15.92 -1.44,-18.41 -0.93,-2.45 -3.15,-3.7 -6.7,-3.7 -3.43,0 -5.68,1.32 -6.77,3.93 -1.13,2.61 -1.67,8.68 -1.67,18.18l0 90.01c0,10.71 0.51,17.17 1.56,19.35 1.01,2.22 3.23,3.31 6.7,3.31 3.43,0 5.65,-1.28 6.74,-3.89 1.05,-2.57 1.6,-8.37 1.6,-17.4l0 -91.37zm-84.27 15.46l0 61.59c0,14.02 -0.78,24.18 -2.3,30.56 -1.52,6.42 -4.67,12.38 -9.46,17.95 -4.79,5.53 -10.55,9.54 -17.32,11.95 -6.73,2.45 -14.29,3.66 -22.66,3.66 -11.02,0 -20.17,-1.28 -27.49,-3.82 -7.28,-2.57 -13.08,-6.54 -17.44,-11.91 -4.32,-5.41 -7.4,-11.1 -9.23,-17.05 -1.83,-6 -2.73,-15.49 -2.73,-28.5l0 -64.43c0,-16.97 1.48,-29.67 4.4,-38.11 2.92,-8.45 8.72,-15.22 17.44,-20.32 8.68,-5.1 19.23,-7.63 31.61,-7.63 10.12,0 19.15,1.75 27.14,5.29 7.98,3.54 13.94,7.86 17.87,12.96 3.97,5.1 6.66,10.82 8.06,17.21 1.4,6.39 2.1,16.59 2.1,30.6zm-46.02 -15.46c0,-9.81 -0.47,-15.92 -1.44,-18.41 -0.93,-2.45 -3.15,-3.7 -6.7,-3.7 -3.43,0 -5.68,1.32 -6.77,3.93 -1.13,2.61 -1.67,8.68 -1.67,18.18l0 90.01c0,10.71 0.51,17.17 1.56,19.35 1.01,2.22 3.23,3.31 6.7,3.31 3.43,0 5.65,-1.28 6.74,-3.89 1.05,-2.57 1.6,-8.37 1.6,-17.4l0 -91.37zm-84.27 15.46l0 61.59c0,14.02 -0.78,24.18 -2.3,30.56 -1.52,6.42 -4.67,12.38 -9.46,17.95 -4.79,5.53 -10.55,9.54 -17.32,11.95 -6.73,2.45 -14.29,3.66 -22.66,3.66 -11.02,0 -20.17,-1.28 -27.49,-3.82 -7.28,-2.57 -13.08,-6.54 -17.44,-11.91 -4.32,-5.41 -7.4,-11.1 -9.23,-17.05 -1.83,-6 -2.73,-15.49 -2.73,-28.5l0 -64.43c0,-16.97 1.48,-29.67 4.4,-38.11 2.92,-8.45 8.72,-15.22 17.44,-20.32 8.68,-5.1 19.23,-7.63 31.61,-7.63 10.12,0 19.15,1.75 27.14,5.29 7.98,3.54 13.94,7.86 17.87,12.96 3.97,5.1 6.66,10.82 8.06,17.21 1.4,6.39 2.1,16.59 2.1,30.6zm-46.02 -15.46c0,-9.81 -0.47,-15.92 -1.44,-18.41 -0.93,-2.45 -3.15,-3.7 -6.7,-3.7 -3.43,0 -5.68,1.32 -6.77,3.93 -1.13,2.61 -1.67,8.68 -1.67,18.18l0 90.01c0,10.71 0.51,17.17 1.56,19.35 1.01,2.22 3.23,3.31 6.7,3.31 3.43,0 5.65,-1.28 6.74,-3.89 1.05,-2.57 1.6,-8.37 1.6,-17.4l0 -91.37zm667.23 51.77l40.11 3.32c8.24,0.68 14.42,7.98 13.74,16.22l-42.52 513.92c-0.49,5.97 -4.46,10.86 -9.75,12.84 -1.21,0.61 -2.58,0.95 -3.99,0.95l-329.47 -0.95c-4.78,-0.01 -8.31,-3.93 -8.7,-8.7l-13.79 -170.05 -423.76 0c-8.27,0 -15.03,-6.76 -15.03,-15.03l0 -508.76c0,-8.27 6.76,-15.03 15.03,-15.03l423.76 0 0 -86.76c0,-4.79 3.91,-8.73 8.7,-8.7l152.31 0.95c4.79,0.03 8.7,3.92 8.7,8.7l0 100.18 -21.03 0c-24.86,0 -45.1,20.24 -45.1,45.1l0 402.69c0,24.86 20.24,45.1 45.1,45.1l21.03 0 0 17.48 99.06 0.83 1.52 -18.33c0.39,0.01 0.78,0.02 1.16,0.02l37.82 0c24.86,0 45.1,-20.24 45.1,-45.1l0 -290.89zm-742.92 -131.76l411.18 0c8.27,0 15.03,6.77 15.03,15.03l0 222.05c0,8.27 -6.77,15.03 -15.03,15.03l-411.18 0c-8.27,0 -15.03,-6.76 -15.03,-15.03l0 -222.05c0,-8.27 6.76,-15.03 15.03,-15.03z"/>
 </g>
</svg>
