<?xml version="1.0" encoding="UTF-8"?>
<!DOCTYPE svg PUBLIC "-//W3C//DTD SVG 1.1//EN" "http://www.w3.org/Graphics/SVG/1.1/DTD/svg11.dtd">
<!-- Creator: CorelDRAW 2018 (64-Bit) -->
<svg xmlns="http://www.w3.org/2000/svg" xml:space="preserve" width="169.721mm" height="169.738mm" version="1.1" style="shape-rendering:geometricPrecision; text-rendering:geometricPrecision; image-rendering:optimizeQuality; fill-rule:evenodd; clip-rule:evenodd"
viewBox="0 0 1268.02 1268.15"
 xmlns:xlink="http://www.w3.org/1999/xlink">
 <defs>
  <style type="text/css">
   <![CDATA[
    .fil0 {fill:#FEFEFE}
   ]]>
  </style>
 </defs>
 <g id="Слой_x0020_1">
  <metadata id="CorelCorpID_0Corel-Layer"/>
  <path class="fil0" d="M225.12 1015.52c-8.91,-24.18 3.52,-53.56 21.45,-71.44 0.95,-0.95 1.93,-1.88 2.92,-2.79 -146.48,-184.72 -131.89,-452 36.58,-619.98 116.89,-116.55 285.41,-161.94 443.54,-122.13 -19.82,-52.58 -30.94,-117.42 3.46,-161.43 2.32,-2.96 4.81,-5.78 7.47,-8.44 43.24,-43.11 114.32,-31.06 165.76,-12.08 75.97,28.03 148.88,82.74 205.65,139.67 56.77,56.93 111.26,130 139.06,206.06 18.83,51.5 30.67,122.61 -12.57,165.72 -2.66,2.66 -5.49,5.14 -8.46,7.45 -44.11,34.27 -108.92,22.96 -161.43,2.99 39.34,158.24 -6.54,326.63 -123.43,443.18 -167.84,167.34 -433.97,181.78 -618.29,36.2 -0.97,1.06 -1.96,2.09 -2.97,3.1 -2.24,2.23 -4.59,4.35 -7.05,6.34 30.53,63.52 18.05,140.54 -32.83,191.27 -65.57,65.38 -171.74,65.22 -237.11,-0.35 -108.14,-108.46 0.37,-291.23 32.19,-228.85 6.41,12.57 2.78,26.69 -1.18,39.37 -3.85,12.32 -8.07,24.08 -10.23,36.89 -6.49,38.57 9.86,68.39 36.68,95.29 33.74,33.84 88.51,33.92 122.36,0.18 33.84,-33.74 33.92,-88.51 0.18,-122.36l-12.81 -12.85 11.06 -11.03zm654.69 -606.51c9.41,10.23 18.13,20.86 26.14,31.85l-37.38 24.89c-6.35,-8.62 -13.2,-16.98 -20.55,-25.05l31.79 -31.69zm42.36 56.17c7.21,11.82 13.69,23.96 19.41,36.36l-41.53 17.13c-4.56,-9.73 -9.64,-19.28 -15.25,-28.6l37.37 -24.89zm30.52 63.39c4.73,12.96 8.7,26.13 11.88,39.46l-44.05 8.69c-2.57,-10.46 -5.69,-20.82 -9.35,-31.03l41.51 -17.12zm17.5 68.14c2.1,13.6 3.42,27.29 3.96,41.01l-44.88 -0.07c-0.48,-10.78 -1.53,-21.55 -3.12,-32.25l44.04 -8.69zm3.92 70.24c-0.57,13.72 -1.94,27.41 -4.08,41l-44.02 -8.82c1.62,-10.69 2.7,-21.45 3.22,-32.24l44.88 0.06zm-9.78 69.66c-3.22,13.32 -7.23,26.48 -12,39.42l-41.46 -17.25c3.69,-10.2 6.84,-20.54 9.44,-31l44.02 8.82zm-23.2 66.42c-5.75,12.39 -12.27,24.5 -19.51,36.3l-37.3 -25c5.63,-9.3 10.76,-18.83 15.34,-28.55l41.48 17.25zm-35.8 60.57c-8.03,10.97 -16.79,21.57 -26.23,31.77l-31.69 -31.79c7.37,-8.05 14.25,-16.39 20.62,-24.99l37.3 25zm-46.93 52.41c-10.23,9.41 -20.86,18.13 -31.85,26.14l-24.89 -37.38c8.61,-6.35 16.98,-13.2 25.05,-20.55l31.69 31.79zm-56.17 42.35c-11.82,7.21 -23.95,13.69 -36.36,19.41l-17.13 -41.53c9.73,-4.56 19.28,-9.64 28.6,-15.25l24.89 37.37zm-63.39 30.52c-12.96,4.73 -26.13,8.7 -39.46,11.88l-8.7 -44.05c10.47,-2.57 20.82,-5.69 31.03,-9.35l17.12 41.52zm-68.14 17.51c-13.6,2.1 -27.29,3.42 -41.01,3.96l0.07 -44.88c10.79,-0.48 21.55,-1.53 32.25,-3.12l8.69 44.05zm-70.24 3.91c-13.72,-0.57 -27.4,-1.94 -41,-4.08l8.82 -44.02c10.7,1.62 21.45,2.7 32.24,3.22l-0.07 44.88zm-339.45 -303.42c-2.1,-13.6 -3.42,-27.29 -3.96,-41.01l44.88 0.07c0.48,10.78 1.53,21.55 3.12,32.25l-44.04 8.69zm-3.91 -70.24c0.57,-13.72 1.94,-27.4 4.08,-40.99l44.02 8.82c-1.62,10.69 -2.7,21.46 -3.22,32.24l-44.88 -0.07zm9.78 -69.66c3.22,-13.32 7.23,-26.48 12,-39.42l41.46 17.25c-3.69,10.2 -6.84,20.55 -9.44,31l-44.03 -8.82zm23.2 -66.42c3.29,-7.09 6.84,-14.09 10.62,-20.99l23.65 -5.41 22.54 15.11c-5.63,9.3 -10.75,18.83 -15.34,28.55l-41.48 -17.25zm10.62 -20.99c2.83,-5.16 5.79,-10.26 8.89,-15.31l14.76 9.9 -23.65 5.41zm25.18 -39.58c8.03,-10.97 16.79,-21.57 26.23,-31.77l31.69 31.79c-7.37,8.05 -14.25,16.39 -20.62,24.99l-37.3 -25zm46.93 -52.41c10.23,-9.41 20.86,-18.13 31.85,-26.14l24.89 37.38c-8.61,6.35 -16.98,13.2 -25.05,20.55l-31.69 -31.79zm56.17 -42.36c11.82,-7.21 23.95,-13.69 36.36,-19.41l17.13 41.53c-9.73,4.55 -19.28,9.64 -28.6,15.25l-24.89 -37.37zm63.39 -30.52c12.96,-4.73 26.13,-8.7 39.46,-11.88l8.69 44.05c-10.46,2.57 -20.82,5.69 -31.03,9.35l-17.12 -41.52zm68.14 -17.5c13.6,-2.1 27.29,-3.42 41.01,-3.96l-0.07 44.88c-10.78,0.48 -21.55,1.53 -32.24,3.12l-8.69 -44.04zm70.24 -3.91c13.72,0.57 27.4,1.94 40.99,4.08l-8.82 44.02c-10.69,-1.62 -21.45,-2.7 -32.24,-3.22l0.07 -44.88zm69.66 9.78c13.32,3.22 26.48,7.24 39.42,12l-17.25 41.46c-10.2,-3.69 -20.54,-6.84 -31,-9.44l8.82 -44.03zm66.42 23.2c12.39,5.75 24.5,12.27 36.3,19.51l-14.92 22.26 -26.1 5.97c-4.14,-2.19 -8.32,-4.28 -12.54,-6.26l17.25 -41.48zm21.38 41.77l-10.08 15.04c-5.27,-3.19 -10.61,-6.22 -16.02,-9.07l26.1 -5.97zm39.19 -5.97c10.97,8.03 21.57,16.79 31.77,26.23l-31.79 31.69c-8.05,-7.37 -16.39,-14.25 -24.99,-20.62l25 -37.3zm13.74 -118.96c38.55,21.3 73.85,47.96 104.95,79.16 31.11,31.2 57.67,66.57 78.85,105.19 29.79,20.02 65.89,40.17 100.51,48.84 15.93,3.99 42.57,8 55.7,-5.08 8.23,-8.2 9.5,-21.54 8.92,-32.52 -1.09,-20.74 -9.1,-43.36 -17.51,-62.15 -26.42,-58.99 -72.7,-116.84 -118.07,-162.35 -45.37,-45.5 -103.09,-91.95 -162,-118.55 -18.77,-8.48 -41.37,-16.55 -62.1,-17.7 -10.98,-0.61 -24.32,0.62 -32.55,8.83 -13.13,13.09 -9.19,39.74 -5.25,55.68 8.57,34.65 28.61,70.81 48.54,100.66zm43.88 132.88c-150.62,-147.22 -392.06,-146.39 -541.65,2.77 -150.8,150.35 -151.16,394.47 -0.8,545.26 150.35,150.8 394.47,151.16 545.26,0.8 149.6,-149.16 151.14,-390.59 4.37,-541.64l-5.16 6.87 6.13 6.66c9.77,10.62 18.96,21.79 27.45,33.45l6.98 9.58 0.23 -0.15 1.74 2.85 2.19 3.01 -0.25 0.17 6.15 10.09c7.52,12.33 14.35,25.09 20.39,38.21l4.95 10.75 0.25 -0.1 1.12 3.07 1.59 3.45 -0.29 0.12 4.06 11.13c4.95,13.57 9.13,27.41 12.48,41.46l2.75 11.49 0.27 -0.05 0.51 3.31 0.86 3.61 -0.3 0.06 1.81 11.71c2.21,14.26 3.59,28.65 4.16,43.07l0.46 11.82 0.28 0 -0.15 3.51 0.14 3.55 -0.29 -0 -0.49 11.82c-0.6,14.42 -2.04,28.8 -4.28,43.06l-1.84 11.71 0.29 0.06 -0.86 3.56 -0.53 3.36 -0.27 -0.05 -2.78 11.48c-3.4,14.04 -7.62,27.87 -12.61,41.42l-4.09 11.12 0.28 0.12 -1.58 3.39 -1.15 3.12 -0.25 -0.1 -4.98 10.73c-6.08,13.1 -12.95,25.84 -20.51,38.15l-6.18 10.07 0.25 0.16 -2.15 2.94 -1.79 2.92 -0.23 -0.16 -7 9.56c-8.53,11.65 -17.75,22.78 -27.55,33.37l-8.03 8.68 0.2 0.2 -2.58 2.38 -2.41 2.61 -0.2 -0.2 -8.7 8c-10.62,9.77 -21.78,18.95 -33.45,27.45l-9.59 6.98 0.15 0.23 -2.84 1.73 -3.02 2.2 -0.17 -0.25 -10.09 6.15c-12.33,7.52 -25.09,14.35 -38.21,20.39l-10.75 4.95 0.1 0.25 -3.09 1.13 -3.43 1.58 -0.12 -0.29 -11.13 4.06c-13.57,4.95 -27.41,9.13 -41.46,12.48l-11.5 2.75 0.05 0.27 -3.31 0.51 -3.61 0.86 -0.06 -0.3 -11.71 1.81c-14.26,2.21 -28.65,3.59 -43.07,4.16l-11.82 0.46 -0 0.28 -3.51 -0.15 -3.55 0.14 0 -0.29 -11.82 -0.5c-14.42,-0.6 -28.8,-2.04 -43.06,-4.28l-18.69 -2.94 15.94 -79.53 17.11 2.59c10.07,1.53 20.21,2.55 30.38,3.03l13.76 0.66 13.79 -0.62c10.17,-0.45 20.32,-1.45 30.39,-2.94l13.76 -2.05 13.26 -3.25c9.89,-2.43 19.65,-5.37 29.23,-8.81l13.09 -4.69 12.37 -5.79c9.22,-4.32 18.21,-9.12 26.93,-14.37l11.92 -7.18 10.98 -8.1c8.2,-6.04 16.08,-12.52 23.61,-19.37l10.24 -9.32 9.28 -10.15c6.87,-7.51 13.37,-15.37 19.44,-23.55l8.2 -11.06 7.15 -11.8c5.27,-8.71 10.11,-17.68 14.44,-26.89l5.86 -12.44 4.7 -12.99c3.46,-9.58 6.44,-19.32 8.89,-29.2l3.3 -13.31 2.08 -13.71c1.53,-10.07 2.55,-20.21 3.03,-30.38l0.66 -13.79 -0.62 -13.76c-0.46,-10.17 -1.45,-20.32 -2.94,-30.39l-2.04 -13.74 -3.26 -13.29c-2.43,-9.89 -5.37,-19.65 -8.81,-29.23l-4.68 -13.07 -5.8 -12.39c-4.32,-9.22 -9.12,-18.21 -14.37,-26.93l-7.18 -11.92 -8.1 -10.99c-5.21,-7.06 -10.73,-13.88 -16.54,-20.45l-112.17 149.27c18.78,44.27 9.08,96.21 -25.59,130.78 -46.57,46.43 -121.96,46.32 -168.39,-0.25 -46.43,-46.56 -46.32,-121.96 0.25,-168.39 34.67,-34.57 86.64,-44.12 130.86,-25.2l149.6 -111.73c-6.55,-5.83 -13.35,-11.37 -20.4,-16.59l-11.05 -8.2 -11.81 -7.15c-8.71,-5.27 -17.68,-10.11 -26.89,-14.45l-12.41 -5.85 -13.01 -4.7c-9.57,-3.46 -19.32,-6.44 -29.2,-8.89l-13.31 -3.3 -13.71 -2.08c-10.07,-1.53 -20.21,-2.55 -30.38,-3.03l-13.79 -0.66 -13.76 0.62c-10.17,0.46 -20.32,1.44 -30.39,2.94l-13.75 2.04 -13.28 3.26c-9.89,2.43 -19.65,5.37 -29.23,8.81l-13.05 4.67 -12.41 5.81c-9.22,4.31 -18.21,9.11 -26.93,14.36l-11.91 7.17 -11 8.11c-8.2,6.04 -16.08,12.52 -23.61,19.37l-10.23 9.3 -9.29 10.16c-6.87,7.51 -13.37,15.37 -19.44,23.55l-8.19 11.05 -7.15 11.81c-5.27,8.71 -10.1,17.68 -14.45,26.89l-5.84 12.39 -4.71 13.03c-3.46,9.57 -6.44,19.32 -8.89,29.2l-3.29 13.26 -2.09 13.76c-1.53,10.07 -2.55,20.21 -3.03,30.38l-0.66 13.76 0.62 13.79c0.46,10.17 1.44,20.32 2.94,30.39l2.54 17.12 -79.58 15.71 -2.89 -18.69c-2.21,-14.26 -3.59,-28.65 -4.16,-43.07l-0.46 -11.82 -0.28 -0 0.15 -3.48 -0.14 -3.58 0.29 0 0.5 -11.82c0.6,-14.42 2.04,-28.8 4.28,-43.06l1.84 -11.71 -0.29 -0.06 0.85 -3.51 0.54 -3.41 0.27 0.06 2.78 -11.48c3.4,-14.04 7.62,-27.87 12.61,-41.42l4.09 -11.12 -0.29 -0.12 1.59 -3.42 1.14 -3.1 0.25 0.1 4.99 -10.73c6.09,-13.1 12.95,-25.84 20.51,-38.15l6.18 -10.07 -0.25 -0.17 2.16 -2.95 1.79 -2.91 0.23 0.15 7 -9.56c8.53,-11.65 17.75,-22.78 27.55,-33.37l8.03 -8.68 -0.2 -0.2 2.57 -2.37 2.42 -2.62 0.2 0.2 8.7 -8.01c10.62,-9.77 21.78,-18.95 33.45,-27.45l9.59 -6.98 -0.15 -0.23 2.86 -1.75 3 -2.19 0.17 0.25 10.09 -6.15c12.33,-7.52 25.09,-14.35 38.21,-20.39l10.75 -4.95 -0.1 -0.25 3.07 -1.12 3.44 -1.59 0.12 0.29 11.13 -4.06c13.57,-4.95 27.41,-9.13 41.46,-12.48l11.49 -2.75 -0.05 -0.27 3.32 -0.51 3.6 -0.86 0.06 0.3 11.71 -1.81c14.26,-2.2 28.65,-3.59 43.07,-4.16l11.82 -0.46 0 -0.28 3.47 0.14 3.59 -0.14 -0 0.29 11.82 0.5c14.42,0.6 28.8,2.04 43.06,4.28l11.71 1.84 0.06 -0.29 3.54 0.86 3.38 0.53 -0.05 0.27 11.48 2.78c14.04,3.4 27.87,7.62 41.42,12.61l11.12 4.09 0.12 -0.28 3.38 1.57 3.13 1.15 -0.11 0.25 10.73 4.98c13.1,6.09 25.84,12.95 38.15,20.51l10.07 6.18 0.17 -0.25 2.94 2.15 2.92 1.79 -0.16 0.23 9.56 7c11.65,8.53 22.78,17.75 33.38,27.55l6.65 6.15 6.88 -5.14z"/>
 </g>
</svg>
