<?xml version="1.0" encoding="UTF-8"?>
<!DOCTYPE svg PUBLIC "-//W3C//DTD SVG 1.1//EN" "http://www.w3.org/Graphics/SVG/1.1/DTD/svg11.dtd">
<!-- Creator: CorelDRAW 2018 (64-Bit) -->
<svg xmlns="http://www.w3.org/2000/svg" xml:space="preserve" width="168.214mm" height="164.591mm" version="1.1" style="shape-rendering:geometricPrecision; text-rendering:geometricPrecision; image-rendering:optimizeQuality; fill-rule:evenodd; clip-rule:evenodd"
viewBox="0 0 1245.3 1218.47"
 xmlns:xlink="http://www.w3.org/1999/xlink">
 <defs>
  <style type="text/css">
   <![CDATA[
    .fil0 {fill:#FEFEFE}
   ]]>
  </style>
 </defs>
 <g id="Слой_x0020_1">
  <metadata id="CorelCorpID_0Corel-Layer"/>
  <path class="fil0" d="M492.31 850.57c-18.5,44.08 -21.24,85.22 -6.79,117.44 36.78,75.03 136.96,62.1 198,23.1 9.5,-6.07 18.88,-17.22 26.45,-25.71 11.19,-12.54 22.02,-25.4 32.78,-38.31 17.24,-20.7 34.25,-41.59 51.04,-62.66l38.02 -47.71 -188.29 57.78c-6.42,3.03 -9.74,9.98 -8.07,16.88 1.67,6.9 7.81,11.55 14.91,11.31l38.7 -1.36c-7,8.31 -14.07,16.56 -21.29,24.67 -3.76,4.22 -7.55,8.41 -11.5,12.45 -44.05,45.15 -115.22,42.01 -131.22,-15.46 -11.38,-27.31 23.97,-79.89 38.95,-101.04 0.83,-1.17 1.67,-2.35 2.51,-3.51 196.77,-92.39 405.67,-246.94 539.32,-429.3 -101.76,-54.66 -170.83,-163.72 -170.06,-288.96 0.11,-17.28 1.55,-34.23 4.21,-50.77 -134.04,60.98 -288.85,193.58 -365.3,351.25 -56.55,116.64 -95.93,206.44 -130.98,283.95 -5.28,4.95 -10.62,9.82 -16.06,14.6 -19.46,17.11 -68.04,57.79 -96.4,49.34 -58.83,-9.88 -69.43,-80.33 -29.14,-128.87 3.6,-4.35 7.37,-8.56 11.17,-12.74 7.31,-8.04 14.77,-15.93 22.3,-23.77l2.71 38.63c0.5,7.08 5.77,12.7 12.81,13.64 7.04,0.94 13.6,-3.09 15.94,-9.8l37.7 -193.31 -43.45 42.82c-19.19,18.91 -38.18,38.02 -56.96,57.34 -11.71,12.05 -23.36,24.17 -34.66,36.62 -7.65,8.42 -17.75,18.92 -22.79,29.01 -32.37,64.8 -34.71,165.78 43.76,194.48 31.97,10.47 70.35,4.57 110.14,-15.92 -9.58,18.8 -19.43,35.67 -28.09,50.31 -55.16,-13.3 -157.82,1.89 -331.41,63.27 -3.84,1.36 -6.38,4.65 -6.71,8.7 -0.34,2.69 -0.61,4.56 0.27,7.35 0.45,1.43 1.09,2.68 1.89,3.75l-1.41 0.73c-5.52,2.88 -12.15,6.35 -16.97,10.28 -4.02,3.28 -4.92,8.99 -2.1,13.34l2.32 3.58c2.02,3.12 5.29,4.79 9,4.61 0.75,-0.04 1.57,-0.17 2.45,-0.36 -2.05,3.32 -2.81,7.31 -1.38,11.06 -1.8,2.88 -2.05,6.58 -0.69,9.68 0.71,2.82 2.53,5.1 5.23,6.46 1.5,0.76 2.81,1.24 4.03,1.48 -0.7,0.23 -1.43,0.45 -2.18,0.67 -5,1.46 -8.44,1.91 -13.06,5.02 -3.6,2.42 -5.22,6.64 -4.17,10.85 1.22,4.9 2.83,7.57 7.25,10.3 2.04,1.27 4.25,1.76 6.52,1.46 -0.45,0.29 -0.9,0.6 -1.35,0.9 -2.45,1.67 -4.48,2.29 -7.18,3.35 -4.6,1.81 -8.51,4.2 -12.52,7.06 -3.04,2.17 -4.57,5.54 -4.19,9.26 0.28,2.79 1.57,5.17 3.64,6.83 -0.49,0.68 -0.94,1.42 -1.35,2.27 -2.83,1.98 -4.35,2.88 -6.22,6.32 -0.52,0.96 -0.84,1.84 -1.04,2.91 -0.87,4.5 0.18,9 3.67,12.15 1.37,1.24 2.74,1.98 4.21,2.49 -0.11,0.35 -0.2,0.7 -0.28,1.05 -1.26,0.73 -2.33,1.45 -3.31,2.56l-3.06 3.47c-3.11,3.52 -3.41,8.54 -0.76,12.41 3.02,4.4 7.88,6.77 13.18,6.27 0.92,1.28 1.85,2.31 3.2,3.17 -0.63,1.44 -0.92,3.05 -0.81,4.74 0.13,2.04 0.54,4.54 1.04,6.55 -0.62,1 -1.04,2.06 -1.26,3.49 -1.04,3.69 -0.02,7.43 2.79,10.08 2.78,2.63 5.44,4.66 9.48,4.93 1.55,0.1 2.85,-0.06 4.04,-0.4 2.04,2.68 5.1,4.43 8.44,4.87 0.65,1.71 1.64,3.32 2.88,4.78 2.44,2.87 6.04,4.11 9.66,3.38 -3.18,2.75 -6.29,5.58 -9.3,8.55 -2.94,2.9 -5.2,5.62 -5.12,10.12 0.06,3.21 1.1,4.62 2.52,7.11 1.58,2.77 4.1,4.5 7.25,4.99 2.06,0.32 2.93,0.85 5.42,0.47 3.69,-0.56 5.19,-2.37 7.75,-4.37 0.78,0.4 1.6,0.7 2.45,0.89 1.87,2.69 4.01,4.83 7.77,5.66 1,0.22 1.93,0.31 2.82,0.29 -0.17,1.72 0.11,3.5 0.87,5.2 2.4,5.33 6.3,9.93 12.77,9.63 3.5,-0.16 6.38,-1.86 8.76,-4.35 0.88,0.02 1.79,-0.04 2.65,-0.2 3.27,-0.62 4.17,-1.26 6.64,-3.28 7.91,-6.48 14.59,-14.18 22.21,-20.93 0.39,-0.34 0.81,-0.69 1.25,-1.03 0.39,0.6 0.84,1.17 1.37,1.69l4.17 4.2c3.33,3.36 8.38,3.97 12.42,1.52 2.4,-1.45 4.86,-3.41 7.25,-5.51 0.31,0.2 0.63,0.39 0.96,0.56l-8.89 8.79c-1.59,1.27 -3.99,2.33 -5.8,3.12 -4.84,2.12 -9.8,4.01 -13.87,7.49 -3.19,2.73 -4.31,6.98 -3.05,10.81 -0.52,0.26 -1.03,0.53 -1.53,0.8 -3.35,1.85 -5.27,5.16 -5.22,8.99 0.01,0.93 0.04,1.81 0.12,2.64 -0.89,1.17 -1.74,2.33 -2.53,3.38 -1.9,2.54 -3.8,5.1 -5.61,7.7 -3.15,4.51 -2.11,10.73 2.33,13.97l4.8 3.5c4.21,3.07 10.01,2.46 13.49,-1.43 3.78,-4.22 7.26,-8.84 10.88,-13.21 2.58,-3.12 6.74,-8.24 10.02,-10.54l21.55 -15.1c0.43,1.56 1.12,3.05 2.04,4.46 2.43,3.72 6.77,5.38 11.06,4.25 1.77,-0.47 3.69,-1.17 5.69,-2.04 -0.45,3.92 1.2,7.21 3.09,10.51 1.39,2.44 3.46,4.03 6.16,4.76 2.71,0.73 5.3,0.38 7.72,-1.03 1.5,-0.87 2.99,-1.75 4.49,-2.64 0.22,0.14 0.44,0.27 0.67,0.39 2.18,1.17 3.58,1.95 6.3,1.93 0.35,-0 0.67,-0.02 0.96,-0.04 -0.72,0.82 -1.36,1.64 -1.86,2.43 -2.33,3.63 -2.16,8.1 0.44,11.55l2.28 3.03c2.53,3.36 6.62,4.77 10.69,3.69 63.18,-77.74 209.49,-254.47 191.29,-342.74 22,-7.09 44.48,-15.17 67.28,-24.19zm588.92 -778.91c25.16,0.16 45.43,20.84 45.27,46.2 -0.16,25.36 -20.68,45.79 -45.84,45.63 -25.16,-0.15 -45.43,-20.84 -45.27,-46.2 0.16,-25.36 20.68,-45.79 45.84,-45.64zm-96.17 -39.74c81.77,-26.85 168.81,-31.74 219.15,-31.92 34.53,0.05 44.61,19.79 40.07,62.27 -10.89,101.32 -52.84,200.5 -114.91,293.27 -91.27,-46.95 -153.61,-143.72 -152.92,-255.12 0.15,-23.64 3.14,-46.59 8.62,-68.51z"/>
 </g>
</svg>
