<svg width="56" height="40" viewBox="0 0 56 40" fill="none" xmlns="http://www.w3.org/2000/svg">
<path fill-rule="evenodd" clip-rule="evenodd" d="M0.0220513 0.0102564C0.0194872 0.00615385 0.0158974 0.00410256 0.0133333 0C0.00871795 0.00358974 0.00461538 0.00615385 0 0.00923077C0.00769231 0.00974359 0.014359 0.0102564 0.0220513 0.0102564Z" transform="translate(48.2051 13.3335)" fill="#6ACA00"/>
<path fill-rule="evenodd" clip-rule="evenodd" d="M0.0174359 0.0148718C0.014359 0.00923077 0.0102564 0.00512821 0.00769231 0C0.00564103 0.00051282 0.0025641 0.00051282 0 0.00051282C0.00615385 0.00512821 0.0112821 0.00974359 0.0174359 0.0148718Z" transform="translate(18.4615 32.8203)" fill="#6ACA00"/>
<mask id="mask0" mask-type="alpha" maskUnits="userSpaceOnUse" x="0" y="0" width="56" height="40">
<path fill-rule="evenodd" clip-rule="evenodd" d="M0 0H55.379V39.6154H0V0Z" transform="translate(0 0.00732422)" fill="white"/>
</mask>
<g mask="url(#mask0)">
<path fill-rule="evenodd" clip-rule="evenodd" d="M43.3445 8.99316C43.3503 8.9938 43.3555 8.99273 43.3613 8.99316C43.4541 8.62868 43.7654 8.44398 44.0291 8.26802C44.3012 8.0861 44.5087 7.76763 44.8789 7.75293C44.8472 8.19496 44.4533 8.27782 44.1859 8.48147C43.9274 8.6781 43.7548 9.02916 43.3613 8.99316C43.3601 8.99785 43.358 9.00211 43.357 9.00679L43.3508 8.99998C43.3539 9.00339 43.357 9.00679 43.357 9.00679C43.3537 9.00807 43.3497 9.00892 43.3464 9.00999C43.3595 9.11032 43.3524 9.22323 43.3991 9.30333C43.6623 9.75792 43.7378 9.75941 44.1562 9.38811C44.2288 9.32378 44.3444 9.24261 44.4172 9.26179C44.5574 9.29864 44.4545 9.41665 44.441 9.50655C44.4099 9.71446 44.3639 9.92515 44.3711 10.1331C44.3825 10.4592 44.5296 10.4822 44.7389 10.2596C44.8329 10.1599 44.9391 10.0355 45.0781 10.125C45.1878 10.1955 45.0756 10.3099 45.0513 10.4013C44.9297 10.8588 45.2324 11.0169 45.5481 11.1965C45.7829 11.3298 46.0698 11.4006 46.2148 11.6713C45.8588 11.9022 45.6487 11.5412 45.3929 11.4314C44.5622 11.0751 43.8795 10.4681 43.1612 9.92728C42.6783 9.56364 42.6901 9.52508 43.1722 9.07816C43.2151 9.03832 43.286 9.03001 43.3464 9.00999C43.3456 9.00445 43.3454 8.9987 43.3445 8.99316ZM52.1824 13.2864C51.7985 13.5782 51.3135 13.5422 50.8926 13.6082C49.5403 13.8202 48.1962 14.1005 46.8165 14.1549C46.1216 14.1823 45.4114 14.1033 44.7154 14.2948C44.4269 14.3743 44.0913 14.3421 43.7888 14.2895C42.069 13.99 40.3077 13.9772 38.6136 13.5007C38.4956 13.4672 38.352 13.4583 38.2504 13.5786C38.3446 13.6153 38.436 13.6628 38.5333 13.6866C39.3975 13.8977 40.2575 14.1325 41.1289 14.308C43.6125 14.8078 46.1279 14.7794 48.6436 14.7558C49.1997 14.7507 49.7345 14.6384 50.2778 14.5628C50.3616 14.5511 50.4748 14.5447 50.4999 14.6625C50.5049 14.6853 50.3979 14.7394 50.3381 14.7697C49.6185 15.1343 48.8191 15.2396 48.052 15.3408C47.1024 15.466 46.1308 15.7417 45.1801 15.5745C44.056 15.377 42.9135 15.5082 41.8 15.2558C41.1289 15.1039 40.4378 15.1437 39.7538 15.0234C38.4373 14.7916 37.0966 14.694 35.7633 14.5737C34.4091 14.4516 33.0988 14.7927 31.7899 15.0681C29.4075 15.5696 27.0372 16.133 24.6531 16.6257C23.5114 16.8616 22.3409 16.9506 21.199 17.186C19.8061 17.4732 18.4959 17.9978 17.3598 18.9106C17.2787 18.976 17.1708 19.0289 17.104 18.8996C17.0895 18.8719 17.1681 18.7801 17.2175 18.7328C17.9889 17.9978 18.9247 17.5417 19.8797 17.1368C20.3829 16.9235 20.9283 16.816 21.4533 16.6553C21.5354 16.6302 21.6103 16.5778 21.6885 16.538C21.5927 16.5107 21.4968 16.4594 21.401 16.4594C20.7022 16.46 20.0436 16.7063 19.3993 16.9204C17.796 17.4538 16.3589 18.2858 15.4836 19.8497C14.5449 21.5262 14.3624 23.2623 15.3668 24.9763C15.8891 25.8676 16.6531 26.5836 17.554 27.0386C18.8867 27.7122 19.9237 28.7245 20.9391 29.7879C21.4226 30.2945 21.92 30.7868 22.4139 31.2831C22.5369 31.4069 22.6682 31.5226 22.7991 31.6378C22.9385 31.7603 23.1129 31.8391 23.2727 31.7396C23.4413 31.635 23.4345 31.4252 23.3627 31.2631C23.1215 30.7165 22.9601 30.1366 22.6537 29.6166C21.7433 28.0716 20.7617 26.5795 19.6438 25.1834C19.5845 25.1092 19.5103 24.948 19.5383 24.916C19.6988 24.7333 19.765 24.9629 19.8382 25.0332C20.9739 26.1241 21.9495 27.3682 22.9854 28.5543C23.2059 28.8067 23.4007 28.9471 23.7274 29.0338C24.9886 29.3685 26.2527 29.7112 27.4369 30.2875C27.8995 30.5124 28.3488 30.7676 28.7939 31.0277C29.0837 31.1969 29.2364 31.4663 29.2252 31.8202C29.2181 32.0328 29.271 32.2684 29.1992 32.4537C28.9964 32.976 29.2121 33.7412 28.7147 34.0162C28.282 34.255 27.7816 33.7372 27.3014 33.5878C26.3535 33.2928 25.419 32.9797 24.4256 32.8141C22.5695 32.5046 20.7142 32.7228 18.8618 32.6329L18.8873 32.6576C18.8801 32.6514 18.8728 32.6452 18.8656 32.639C19.2995 33.4377 20.0985 33.8115 20.7646 34.3341C21.2519 34.7169 21.796 35.0232 22.3125 35.3677C22.3876 35.4177 22.5158 35.5238 22.505 35.5462C22.4514 35.6578 22.3262 35.6448 22.2349 35.6082C22.0127 35.5189 21.7939 35.4175 21.5821 35.3048C20.3298 34.6376 19.1827 33.8122 18.1453 32.8325C17.59 32.3078 17.0646 31.7499 16.5311 31.2009C16.4732 31.1413 16.3566 31.0339 16.5104 30.9619C16.5944 30.9227 16.7101 30.9542 16.8113 30.9538L16.7852 30.9299C16.7923 30.9346 16.7989 30.9397 16.806 30.9442C16.7551 30.8605 16.7199 30.7506 16.6466 30.7043C15.7605 30.1486 14.7914 29.7885 13.8067 29.4728C13.6189 29.4128 13.3341 29.3239 13.2211 29.4971C13.074 29.7227 13.3814 29.8269 13.5047 29.9528C13.9484 30.4053 14.3205 30.9112 14.6561 31.4484C14.7111 31.5362 14.7439 31.6536 14.6447 31.7294C14.5553 31.7978 14.4491 31.7635 14.3707 31.6892C14.0577 31.3922 13.6625 31.2829 13.2761 31.1293C11.7228 30.5109 10.4419 29.5421 9.63748 27.9959C9.59724 27.9182 9.46241 27.8102 9.42424 27.8291C9.30704 27.8864 9.3645 28.01 9.40308 28.1063C9.77542 29.0329 10.3299 29.8367 10.9744 30.5819C11.1298 30.7616 11.3766 30.8697 11.4133 31.1472C11.5952 31.1332 11.7506 31.1909 11.8634 31.3402C11.896 31.3835 11.9049 31.4459 11.9244 31.4994C11.862 31.5068 11.7838 31.5428 11.7398 31.5168C11.5973 31.4327 11.4247 31.3686 11.4005 31.1617C11.1275 31.226 10.9217 31.046 10.7441 30.9057C9.61238 30.0116 8.62541 28.9844 8.03008 27.6187C7.94503 27.4233 7.84692 27.2348 7.8604 27.0143C7.86434 26.9479 7.88031 26.8563 7.9245 26.8226C8.05165 26.7255 8.07053 26.8695 8.12052 26.9389C8.28792 27.1703 8.40491 27.4436 8.65031 27.6099C8.78576 27.3062 8.54534 27.0731 8.50075 26.8026C8.41508 26.2826 8.52668 25.8333 8.81874 25.4013C9.42714 24.5011 10.036 23.5995 10.601 22.6705C10.9648 22.0726 11.2627 21.4309 11.5652 20.7963C11.6514 20.6153 11.7137 20.3637 11.5699 20.192C11.3805 19.9658 11.1978 20.2007 11.0281 20.2812C10.0565 20.7424 9.16204 21.3415 8.25909 21.9254C8.05601 22.0568 7.84713 22.1789 7.64156 22.3065C7.57145 22.3497 7.51772 22.3331 7.49159 22.2466C7.48225 22.2157 7.4864 22.1676 7.50445 22.1433C7.58763 22.0321 7.66521 21.9111 7.76789 21.8216C8.54783 21.1431 9.06289 20.2823 9.49228 19.3392C10.2851 17.5965 11.6195 16.3173 13.0402 15.1226C13.18 15.0053 13.3323 14.9275 13.514 14.9725C13.6511 15.0063 13.7893 15.0815 13.8129 15.2296C13.8243 15.3005 13.7432 15.4149 13.6737 15.4679C12.4967 16.3669 11.562 17.4923 10.7562 18.7389C10.6836 18.8512 10.5363 18.9969 10.6444 19.1024C10.7794 19.2336 10.8615 19.0229 10.937 18.9411C11.7923 18.0149 12.6492 17.0918 13.6806 16.3641C13.9355 16.1841 14.1906 16.0035 14.4564 15.8412C14.7258 15.6765 14.9741 15.5823 15.3201 15.7621C15.6333 15.9251 16.0129 16.0702 16.4023 15.8603C16.511 15.8018 16.7139 15.7896 16.8049 15.8559C17.7701 16.5588 18.7376 16.0619 19.6443 15.7883C21.5238 15.2213 23.3548 14.4927 25.107 13.5812C25.5517 13.3498 25.9917 13.2371 26.4908 13.2495C27.5267 13.2751 28.5635 13.257 29.5998 13.2548C29.7465 13.2544 29.7803 13.2231 29.633 13.025C29.5112 12.8614 29.633 12.8861 29.6987 12.8695C30.0564 12.7787 30.3586 13.0297 30.7046 13.0456C31.5679 13.0861 32.3985 13.2896 33.2085 13.6012C33.5284 13.7241 33.8652 13.8151 34.2019 13.8718C34.4311 13.9103 34.6792 13.9533 34.9103 13.8402C34.774 13.5946 34.5168 13.7094 34.3214 13.6421C31.861 12.7945 29.9587 11.2285 28.7118 8.90103C27.9702 7.51679 27.6671 5.98471 28.02 4.41366C28.4228 2.61999 29.6079 1.70973 31.102 1.34737C32.4188 1.02784 33.7756 1.13882 35.1188 1.15097C35.2044 1.1516 35.3658 1.22062 35.3631 1.24108C35.3434 1.40276 35.2063 1.48541 35.0729 1.49543C34.5564 1.53356 34.0382 1.54655 33.5209 1.57446C33.4439 1.57851 33.3326 1.55188 33.3251 1.67927C33.324 1.69461 33.445 1.73316 33.5099 1.73423C34.3732 1.74893 35.2368 1.75681 36.1003 1.773C36.1991 1.77492 36.2968 1.81816 36.3953 1.84223C36.3277 1.99348 36.1833 1.94108 36.07 1.97282C35.9732 2.00008 35.8778 2.03289 35.7817 2.06335C35.8211 2.17327 35.9155 2.18265 36.0064 2.18307C36.32 2.18392 36.6245 2.32835 36.9172 2.32793C37.4976 2.32708 37.9067 2.52157 38.1846 3.0454C38.2448 3.15851 38.3848 3.23094 38.4956 3.31104C38.6061 3.39092 38.7578 3.50723 38.8638 3.41265C39.0351 3.2597 38.7885 3.20921 38.7358 3.1108C38.6872 3.01962 38.604 2.94826 38.5379 2.86688C38.4215 2.72394 38.3107 2.46192 38.413 2.39397C38.6657 2.22525 38.635 2.58846 38.7592 2.68943C39.4294 3.23478 40.11 3.73155 40.9835 3.17492C41.2586 2.99981 41.551 3.4593 41.8068 3.04902C41.974 2.78082 42.1487 2.51709 42.2692 2.22759C42.3768 1.96877 42.5652 1.9496 42.773 1.98027C43.694 2.11597 44.6177 2.20033 45.5487 2.19777C45.6124 2.19756 45.6759 2.24314 45.7395 2.26764C45.6927 2.3128 45.6535 2.37565 45.5979 2.40057C44.9693 2.68475 44.3387 2.96381 43.7077 3.24202C43.5822 3.29741 43.4372 3.32148 43.329 3.4003C43.2416 3.46356 43.0475 3.41862 43.0829 3.60395C43.0883 3.63185 43.2777 3.65422 43.368 3.62823C43.9942 3.4478 44.6152 3.24862 45.2421 3.07032C45.3276 3.04604 45.435 3.10419 45.5323 3.12422C45.4547 3.17832 45.3836 3.24756 45.299 3.28398C43.899 3.88408 42.5751 4.6384 41.2474 5.38441C41.0362 5.50307 40.8263 5.62492 40.6217 5.75486C40.5664 5.7898 40.4838 5.88438 40.496 5.90866C40.5481 6.0139 40.6601 6.0205 40.7528 5.97705C41.3158 5.71417 41.8719 5.43639 42.4368 5.17778C45.1697 3.92668 47.9923 2.93079 50.8586 2.05803C51.199 1.95428 51.5373 1.94555 51.8814 1.96003C51.9785 1.96429 52.0735 2.01798 52.1695 2.04887C52.0872 2.09317 52.0092 2.1492 51.9223 2.1803C51.3373 2.38971 50.7596 2.61509 50.223 2.93718C50.0695 3.02942 49.9571 3.16043 49.9415 3.35513C50.1547 3.26545 50.3732 3.20793 50.6065 3.24287C50.9581 2.80276 51.5018 2.81703 51.9652 2.64278C52.0152 2.62425 52.0893 2.67324 52.1521 2.69114C52.1175 2.73225 52.0905 2.79041 52.0467 2.81192C51.8142 2.92546 51.9055 3.18748 51.8005 3.35748C51.729 3.47315 51.5989 3.46506 51.5524 3.38709C51.362 3.06606 51.2519 3.02005 51.2114 3.45419C51.1975 3.6031 51.1208 3.76627 50.9859 3.76883C50.7515 3.7733 50.8963 3.48721 50.771 3.38624C50.7181 3.34384 50.6681 3.29783 50.6167 3.25352C50.5149 3.49126 50.7829 4.06579 50.0844 3.73922C49.7343 3.57562 49.3955 4.15526 48.9566 4.11883C48.9014 4.36061 48.693 4.42559 48.5131 4.52166C46.4633 5.61661 44.4983 6.8545 42.5973 8.20273C42.3683 8.36506 42.1879 8.72208 41.806 8.40873C41.6546 8.28432 41.5052 8.49862 41.3706 8.5981C40.8122 9.01052 40.2739 9.45638 39.6895 9.82534C38.5648 10.5356 37.4231 10.5481 36.3022 9.78444C36.1935 9.71052 36.0715 9.58398 35.9585 9.75014C35.9381 9.77954 36.0539 9.92525 36.1244 9.99917C37.1336 11.0519 38.374 11.2818 39.737 11.056C39.9737 11.0168 40.2056 10.9471 40.4386 10.8871C40.6641 10.8287 41.0269 10.5794 41.0804 10.7569C41.153 10.9966 40.7543 11.0449 40.5396 11.148C40.4792 11.177 40.4185 11.2055 40.3581 11.2343C40.4378 11.2703 40.5187 11.3385 40.5975 11.3361C40.8024 11.3297 41.0223 11.334 41.2082 11.2596C41.8682 10.9961 42.4664 11.1459 43.1089 11.384C43.7949 11.6382 44.3726 12.2059 45.1944 12.1205C45.4157 12.0973 45.662 12.3921 45.9063 12.522C46.4695 12.8224 47.0903 12.8482 47.7052 12.8948C47.9908 12.865 48.298 12.7178 48.5179 13.0392C48.5287 13.0388 48.5395 13.038 48.55 13.0375L48.5324 13.0571C49.7411 13.0612 50.95 13.0644 52.1588 13.0712C52.2247 13.0714 52.3405 13.0874 52.3477 13.1179C52.3782 13.2429 52.2486 13.2361 52.1824 13.2864ZM30.2825 18.2412C30.218 20.2023 29.5127 21.8549 28.0258 23.1237C27.9264 23.2085 27.8153 23.3344 27.6823 23.1996C27.6597 23.1768 27.7292 23.0195 27.7883 22.9556C29.1366 21.4998 29.8255 19.739 30.0754 17.7727C30.0916 17.646 30.0647 17.5045 30.1935 17.417C30.2229 17.5508 30.2646 17.6831 30.2794 17.8185C30.2941 17.9579 30.2825 18.1002 30.2825 18.2412ZM17.689 25.5175C17.7728 25.3893 17.8585 25.5192 17.9172 25.5791C19.18 26.8732 20.4991 28.1136 21.5775 29.5852C21.6578 29.6945 21.7205 29.8174 21.7785 29.9135C21.73 30.0387 21.6786 30.0669 21.6153 30.0266C21.5578 29.99 21.4975 29.9535 21.45 29.905C20.1653 28.5825 18.8903 27.2507 17.751 25.7902C17.6975 25.7216 17.6535 25.5718 17.689 25.5175ZM23.4558 27.1514C23.6782 27.138 24.0331 27.3747 24.0053 27.5547C23.9879 27.6665 23.9031 27.7127 23.7937 27.7162C23.5388 27.7242 23.3359 27.6375 23.2615 27.3698C23.2318 27.2639 23.3056 27.1827 23.4558 27.1514ZM25.1396 28.1157C25.1923 27.9715 25.3427 27.9434 25.4862 27.9898C25.5862 28.0222 25.6862 28.0752 25.6623 28.2073C25.63 28.3869 25.4895 28.392 25.3491 28.3863C25.1863 28.3711 25.0809 28.2761 25.1396 28.1157ZM26.5777 29.2221C27.4454 29.2641 28.2358 29.6173 29.0514 29.8708C29.1653 29.9061 29.2856 30.0951 29.3932 29.9392C29.4594 29.8433 29.4571 29.6599 29.4223 29.5344C29.2155 28.7893 28.8645 28.1101 28.4894 27.4419C28.4314 27.3388 28.3955 27.1381 28.6419 27.2623C29.0294 27.4576 29.3121 27.1666 29.5973 27.0145C31.4609 26.0208 33.4315 25.3161 35.4293 24.6798C35.5583 24.6387 35.6867 24.5895 35.8191 24.5688C35.8759 24.5601 35.9419 24.6146 36.0039 24.6404C35.9626 24.6836 35.929 24.746 35.879 24.7669C35.3727 24.9791 34.8688 25.1974 34.3552 25.3896C32.6412 26.0312 31.0487 26.9242 29.477 27.8607C29.4086 27.9016 29.3285 28.039 29.3486 28.095C29.3909 28.2122 29.537 28.1922 29.6218 28.1508C30.3947 27.7744 31.1589 27.3778 31.9337 27.0052C32.4601 26.7523 32.9984 26.525 33.5355 26.296C33.5828 26.2758 33.6591 26.3273 33.7219 26.3452C33.6933 26.3991 33.6775 26.473 33.6336 26.5037C33.4633 26.6209 33.2952 26.754 33.1067 26.8284C32.0019 27.2634 31.1199 28.0799 30.1006 28.6593C29.8023 28.8289 29.6137 28.9763 29.8255 29.3942C30.151 30.0359 30.1665 30.7651 30.0908 31.464C30.0344 31.9872 30.2715 32.2479 30.6449 32.4678C31.0624 32.7136 31.4889 32.9432 31.9044 33.1925C31.9741 33.2342 32.0658 33.3834 32.0488 33.4068C31.9789 33.502 31.8698 33.4603 31.7702 33.4238C31.3188 33.2587 30.8656 33.099 30.4146 32.9317C30.2497 32.8708 30.0495 32.782 29.9512 32.9658C29.8371 33.1782 30.0527 33.2457 30.2006 33.3307C31.1321 33.8659 32.0799 34.3694 33.0942 34.7169C34.0526 35.0454 34.9255 35.5187 35.688 36.1995C35.7446 36.2502 35.8861 36.3331 35.7403 36.4358C35.7027 36.4622 35.6013 36.4366 35.5556 36.4002C34.4442 35.5104 33.1212 35.1436 31.8017 34.7422C31.183 34.5539 30.5571 34.3341 30.0002 33.9709C29.861 33.8803 29.7452 33.715 29.5615 33.901C29.4961 33.967 29.3694 34.0672 29.3324 34.0446C29.2308 33.9826 29.287 33.862 29.3159 33.7602C29.4884 33.1518 29.6843 32.5474 29.6513 31.8347C29.8191 31.2324 29.5048 30.8486 28.963 30.5314C28.1841 30.0753 27.3585 29.7479 26.518 29.4479C26.4232 29.4141 26.3288 29.3789 26.2344 29.3444C26.3135 29.1995 26.4522 29.2162 26.5777 29.2221ZM26.4518 27.3465C26.497 27.2724 26.5862 27.2264 26.6706 27.1548C26.7441 27.24 26.854 27.309 26.8557 27.3808C26.8598 27.5732 26.6951 27.5312 26.5852 27.5169C26.5109 27.5073 26.3607 27.4961 26.4518 27.3465ZM18.0365 33.4676C17.7956 33.3928 17.6295 33.2132 17.4913 33.0066C17.453 32.9495 17.4907 32.8952 17.5716 32.8677C17.7046 32.8653 18.2028 33.2769 18.1889 33.3934C18.185 33.426 18.0788 33.4806 18.0365 33.4676ZM16.9607 32.3324C16.9215 32.3942 16.8614 32.3955 16.796 32.3341C16.7209 32.2643 16.6361 32.1993 16.5803 32.1151C16.3704 31.7994 15.948 31.6439 15.9213 31.1919C16.3436 31.3103 16.5295 31.7168 16.8296 31.9841C16.9018 32.0487 16.9441 32.149 16.9918 32.2208C16.9779 32.2734 16.9763 32.3077 16.9607 32.3324ZM4.90472 25.1599C4.83959 25.2076 4.80951 25.3063 4.76844 25.3883C4.77342 25.3889 4.77756 25.3885 4.78275 25.3891C4.77881 25.4015 4.77507 25.4141 4.77155 25.4266C4.86635 25.4844 5.12564 25.3007 5.041 25.6179C5.03333 25.6477 5.00242 25.6748 4.97649 25.6953C4.74438 25.8778 4.6112 26.1944 4.27848 26.2406C4.1841 25.8484 4.61473 25.8271 4.72197 25.5781C4.74272 25.5295 4.75661 25.4778 4.77155 25.4266C4.76595 25.423 4.76055 25.419 4.7562 25.4136C4.76055 25.4055 4.76429 25.3966 4.76844 25.3883C4.54669 25.3631 4.39734 25.5033 4.23305 25.6279C3.43381 26.2351 2.62794 26.8339 1.82559 27.4369C1.74033 27.5006 1.63931 27.5605 1.55385 27.4896C1.43872 27.3943 1.547 27.3015 1.61255 27.2429C2.105 26.8034 2.59226 26.3567 3.10171 25.9387C4.60602 24.7045 6.19807 23.6055 7.91914 22.7118C8.10168 22.6173 8.29252 22.5393 8.48149 22.4585C8.50659 22.4479 8.54662 22.4607 8.57504 22.4739C8.65241 22.5107 8.65407 22.5702 8.57338 22.6292C8.4624 22.7106 8.34894 22.7894 8.23153 22.8601C7.07634 23.5565 5.99416 24.3641 4.90472 25.1599ZM3.64683 26.8692C3.35498 27.1533 3.06353 27.4379 2.76317 27.7125C2.73392 27.7392 2.64493 27.7027 2.58664 27.6857C2.57441 27.6821 2.55988 27.6224 2.57067 27.6094C2.85278 27.269 3.1351 26.9271 3.52735 26.713C3.56179 26.6945 3.63625 26.7537 3.69205 26.7767C3.67733 26.8078 3.66944 26.8468 3.64683 26.8692ZM5.54587 19.0438C5.49836 19.1899 5.40709 19.3763 5.28906 19.3303C5.1171 19.263 5.15133 19.0419 5.17954 18.8738C5.19385 18.7869 5.20256 18.6365 5.35337 18.7138C5.47824 18.7779 5.56122 18.8917 5.54587 19.0438ZM6.25776 20.9377C6.22561 21.051 6.20113 21.1498 6.16919 21.2463C6.14201 21.3284 6.08041 21.3586 6.00324 21.3247C5.94723 21.3 5.8682 21.2713 5.85119 21.2242C5.81676 21.1302 5.79975 21.0207 5.80805 20.9206C5.82132 20.7594 5.79249 20.5323 6.04162 20.5476C6.28908 20.563 6.19843 20.8011 6.25776 20.9377ZM7.21906 13.7503C7.16865 13.8673 7.12571 13.9964 7.05975 14.1118C6.97325 14.2635 6.92015 14.5726 6.69156 14.4141C6.51192 14.2895 6.66563 14.0439 6.78075 13.8764C6.83738 13.7944 6.90417 13.7169 6.97781 13.6506C7.02532 13.6076 7.09315 13.5884 7.15206 13.5586C7.17322 13.6195 7.19479 13.6804 7.21906 13.7503ZM8.35098 14.1439C8.32816 13.819 8.60737 13.4784 8.87247 13.4865C8.99029 13.4946 9.0714 13.564 9.07824 13.6773C9.09608 13.9903 8.80879 14.3462 8.55841 14.3352C8.44121 14.3298 8.35866 14.2527 8.35098 14.1439ZM8.14727 11.3838C8.19518 11.384 8.27276 11.446 8.28562 11.4941C8.36258 11.7819 8.11221 12.1635 7.84504 12.1831C7.79463 12.1479 7.71166 12.1219 7.69942 12.0759C7.63408 11.8301 7.92469 11.3829 8.14727 11.3838ZM8.28898 19.2634C8.31304 19.5646 8.02616 20.1002 7.75733 20.2233C7.56836 20.31 7.41714 20.2063 7.3325 20.0454C7.12092 19.6441 7.55363 18.9877 8.01475 19.0078C8.15601 19.0137 8.26989 19.0966 8.28898 19.2634ZM8.24958 17.2133C8.15561 17.356 8.03738 17.5147 7.83928 17.4609C7.6223 17.4023 7.6781 17.1888 7.65155 17.0736C7.65591 16.7726 7.70507 16.5357 7.90732 16.364C8.0463 16.2458 8.21577 16.1735 8.37653 16.2745C8.54372 16.38 8.54019 16.5755 8.48045 16.7457C8.42258 16.9091 8.34438 17.0693 8.24958 17.2133ZM11.0962 11.9164C11.0026 11.845 11.0095 11.7391 11.0505 11.6422C11.0769 11.5807 11.1186 11.5214 11.1659 11.4744C11.3806 11.2615 11.582 10.9936 11.935 11.1934C11.9757 11.2166 12.0134 11.3227 11.9958 11.3657C11.8603 11.6959 11.6515 11.9475 11.2928 11.9982C11.2156 11.9673 11.1466 11.9545 11.0962 11.9164ZM10.4197 8.8089C10.4204 8.57649 10.7931 8.24246 11.0657 8.24268C11.1711 8.24289 11.2076 8.35963 11.2096 8.46678C11.2009 8.50001 11.1991 8.53793 11.1814 8.56583C11.0269 8.81124 10.8145 8.96291 10.5226 8.95588C10.4855 8.95503 10.4197 8.86002 10.4197 8.8089ZM10.8651 14.604C11.0899 14.5312 11.164 14.6779 11.1972 14.8611C11.1407 15.2729 10.6087 15.7929 10.2214 15.8157C10.0731 15.8244 9.96792 15.7392 9.88163 15.6236C9.80592 15.5222 9.84824 15.431 9.90611 15.3441C10.144 14.9866 10.4624 14.7348 10.8651 14.604ZM4.34465 19.7571C4.32868 17.1052 4.86178 14.5674 5.95371 12.1713C6.94524 9.99506 8.37611 8.15963 10.1893 6.62245C13.3217 3.96645 16.9522 2.49764 20.8949 1.71478C21.702 1.55437 22.4917 1.30577 23.3248 1.33602C23.3882 1.33815 23.5025 1.37266 23.5042 1.39865C23.5133 1.53371 23.3947 1.50942 23.3148 1.5205C21.333 1.79658 19.43 2.40924 17.57 3.11435C15.3056 3.97263 13.1473 5.08377 11.2403 6.63928C8.79097 8.63724 6.89711 11.0583 5.81535 14.1128C5.07855 16.1928 4.68235 18.3226 4.73504 20.5381C4.74873 21.1056 4.74645 21.6735 4.7425 22.2412C4.74188 22.3418 4.69728 22.4419 4.6726 22.5422C4.63858 22.454 4.59896 22.368 4.57096 22.2779C4.31644 21.4547 4.35481 20.6043 4.34465 19.7571ZM24.062 4.3584C24.2515 4.35947 24.3914 4.47301 24.4559 4.64599C24.5146 4.80256 24.1999 5.07097 23.9566 5.0829C23.7865 4.99791 23.5409 5.02539 23.4567 4.78957C23.3963 4.62 23.7626 4.35691 24.062 4.3584ZM21.021 7.95664C21.1536 7.9315 21.2901 7.92916 21.3276 7.92554C21.6294 7.92405 21.8317 7.92426 21.9953 8.08467C22.1667 8.25232 22.2382 8.44617 22.0358 8.61489C21.7454 8.8571 21.422 9.07992 21.0214 8.90567C20.8175 8.81705 20.5306 8.7672 20.5611 8.43744C20.5867 8.16264 20.7621 8.00564 21.021 7.95664ZM22.0526 6.01165C22.181 6.04489 22.3285 6.05128 22.3527 6.23192C22.3758 6.40213 22.2532 6.49053 22.1403 6.55103C21.858 6.70228 21.5574 6.72848 21.2704 6.56701C21.1797 6.51631 21.1698 6.39276 21.2303 6.29476C21.4288 5.97352 21.747 6.01038 22.0526 6.01165ZM21.0824 3.17511C20.976 3.13826 20.9546 3.00554 20.9943 2.91799C21.1121 2.65597 21.4299 2.54498 21.6566 2.6794C21.6995 2.70496 21.7099 2.78847 21.7352 2.84535C21.6834 3.02855 21.2811 3.24413 21.0824 3.17511ZM18.6911 4.47536C18.7749 4.2208 18.9564 4.08787 19.2207 4.17138C19.2976 4.19566 19.4136 4.33604 19.3978 4.38291C19.3094 4.64706 19.0381 4.60829 18.9087 4.7131C18.7338 4.66006 18.6577 4.5774 18.6911 4.47536ZM24.1445 11.3261C24.0551 11.3401 23.9624 11.3327 23.8703 11.3318C23.8672 11.3399 23.8626 11.3465 23.8601 11.3551C23.8501 11.3544 23.8408 11.3544 23.8309 11.354C23.7792 11.4976 23.6581 11.5242 23.5232 11.5317C22.1504 11.6058 20.8442 12.0016 19.5341 12.3874C19.1111 12.5118 18.6975 12.7105 18.237 12.6635C18.068 12.6462 17.8584 12.9493 17.7522 12.6652C17.7089 12.5489 17.9765 12.4521 18.1489 12.4057C20.017 11.9047 21.8559 11.2413 23.8309 11.354C23.8336 11.3461 23.8371 11.3395 23.8396 11.3312C23.8497 11.331 23.8599 11.3316 23.8703 11.3318C23.9064 11.2351 23.9804 11.1716 24.0758 11.1744C24.3772 11.1836 24.6838 11.0967 24.9792 11.2209C24.7205 11.4141 24.422 11.2831 24.1445 11.3261ZM17.3065 6.26792C17.531 5.99866 18.0348 5.91409 18.3198 6.08749C18.3621 6.11327 18.3702 6.19933 18.398 6.26792C18.2387 6.50374 18.0023 6.61813 17.734 6.66159C17.5689 6.68843 17.3808 6.70036 17.2708 6.54443C17.2308 6.48776 17.2549 6.32991 17.3065 6.26792ZM18.013 9.08914C18.2238 9.18905 18.2849 9.48046 18.1005 9.59209C17.8118 9.76634 17.5006 9.90119 17.2019 10.0512C17.0215 9.95381 16.8281 9.9095 16.7363 9.78573C16.6014 9.60508 16.806 9.48409 16.9146 9.37246C17.2225 9.05591 17.5737 8.88059 18.013 9.08914ZM13.5493 8.59723C13.5146 8.64218 13.4661 8.74145 13.3881 8.79833C13.1533 8.96939 12.9326 9.22204 12.5982 9.04096C12.5546 9.01711 12.5094 8.91677 12.5239 8.87246C12.6235 8.57146 13.0846 8.3088 13.4261 8.35928C13.5113 8.37185 13.6399 8.40018 13.5493 8.59723ZM14.7503 8.94957C14.8507 8.64154 15.2487 8.48603 15.725 8.55952C15.8335 8.57614 15.9146 8.62705 15.9142 8.75742C15.8883 8.81856 15.8777 8.89972 15.8327 8.93849C15.501 9.22459 14.9822 9.32428 14.7922 9.13725C14.7534 9.09912 14.7329 9.00304 14.7503 8.94957ZM14.1753 5.57508C14.2236 5.34672 14.4113 5.36312 14.5773 5.37398C14.6119 5.37633 14.6412 5.46537 14.6733 5.51522C14.5796 5.6899 14.4375 5.76957 14.2535 5.73634C14.2174 5.72973 14.1649 5.62322 14.1753 5.57508ZM14.9534 12.3079C15.0716 12.381 15.1635 12.4947 15.1274 12.657C15.1033 12.7665 15.0227 12.8162 14.9243 12.865C14.6352 13.0083 14.3305 13.032 14.0172 13.0458C13.8826 13.0332 13.7442 13.0362 13.6144 13.0038C13.4858 12.9715 13.4821 12.8302 13.5196 12.7461C13.7218 12.2919 14.5298 12.0469 14.9534 12.3079ZM22.6964 13.7631C22.5994 13.9563 22.4094 13.8515 22.2693 13.9043C21.2986 14.2715 20.2871 14.0415 19.2966 14.0866C18.5712 14.0866 17.8458 14.0881 17.1202 14.0841C17.0559 14.0837 16.9344 14.0376 16.9356 14.0298C16.9557 13.9092 17.0599 13.9267 17.141 13.9252C17.8664 13.9113 18.592 13.9009 19.3174 13.8917C20.2782 13.8796 21.2415 13.9348 22.1922 13.7158C22.349 13.6798 22.5278 13.7447 22.6964 13.7631ZM17.4075 13.6998C15.7667 13.6998 14.6279 13.7018 13.4889 13.6966C13.3779 13.696 13.2209 13.7491 13.1954 13.5622C13.1937 13.5505 13.375 13.5041 13.4733 13.4879C15.3195 13.1826 17.182 13.2497 19.0406 13.2282C20.5543 13.2107 22.0598 12.9819 23.5766 13.0488C23.8523 13.061 24.1288 13.0537 24.4042 13.0669C24.4663 13.0699 24.5258 13.1204 24.5866 13.149C24.5264 13.1777 24.464 13.2354 24.4063 13.2308C23.8805 13.1877 23.4005 13.4587 22.885 13.4655C20.8901 13.4917 18.9071 13.8517 17.4075 13.6998ZM25.5101 9.22553C25.5441 9.5031 25.016 9.83222 24.559 9.81816C24.152 9.80559 23.6768 9.48179 23.6822 9.22063C23.6886 8.91941 24.0134 8.75325 24.6013 8.75005C25.2041 8.74686 25.4686 8.88532 25.5101 9.22553ZM25.0184 1.98869C25.1543 1.79761 25.3468 1.74734 25.5602 1.75011C25.6949 1.7516 25.8413 1.75479 25.8915 1.91627C25.9073 1.96739 25.8764 2.0558 25.8376 2.09904C25.7048 2.24624 25.5169 2.18702 25.3464 2.22494C25.2503 2.20193 25.1505 2.18297 25.0541 2.15294C24.9655 2.12546 24.9612 2.06922 25.0184 1.98869ZM28.444 1.66315C28.5091 1.60819 28.6626 1.56665 28.7089 1.60435C28.8221 1.69616 28.691 1.77264 28.6352 1.83847C28.3643 2.15672 28.0598 2.44921 27.8188 2.7892C26.8534 4.15192 26.6198 5.64948 27.0411 7.27912C27.2909 8.24519 27.731 9.10815 28.2446 9.94215C28.2992 10.031 28.361 10.1196 28.3915 10.2174C28.4071 10.2674 28.3618 10.3379 28.344 10.3995C28.2886 10.3763 28.2127 10.3695 28.181 10.3275C27.1803 8.99909 26.4236 7.56458 26.3387 5.78156C26.4091 4.10697 27.1596 2.74212 28.444 1.66315ZM38.7744 1.56499C38.8818 0.604037 39.868 0.130483 40.6809 0.647282C40.7325 0.680087 40.7578 0.756989 40.7954 0.813441C40.7377 0.841773 40.6821 0.885443 40.6213 0.894603C40.5212 0.909941 40.417 0.911432 40.3154 0.903551C39.7045 0.857111 39.2598 1.09378 39.0198 1.69068C38.9866 1.77354 38.9511 1.90775 38.8488 1.84896C38.7893 1.81466 38.7638 1.65958 38.7744 1.56499ZM40.9547 2.31849C40.8973 2.54791 40.7162 2.72238 40.4737 2.77606C40.3415 2.75412 40.3081 2.69724 40.3917 2.59031C40.4936 2.45951 40.6313 2.35811 40.6604 2.17086C40.677 2.06456 40.621 1.84387 40.7861 1.89137C40.8794 1.918 40.9864 2.1911 40.9547 2.31849ZM52.6435 4.25778C52.7468 4.13976 52.8802 3.90395 53.0115 3.99427C53.1866 4.11527 52.9487 4.28824 52.9213 4.44631C52.9053 4.5394 52.8945 4.63334 52.8821 4.72729C52.8895 4.72814 52.8964 4.72814 52.9036 4.72963L52.8781 4.75562C52.8796 4.74625 52.881 4.73666 52.8821 4.72729C52.58 4.68575 52.3892 5.08006 52.0656 4.9548C51.7416 5.57619 51.1098 5.85035 50.6113 6.26277C49.8054 6.92911 48.9688 7.55264 48.2501 8.32443C48.1823 8.39707 48.0939 8.63459 47.952 8.43903C47.8692 8.32549 47.9979 8.18383 48.0895 8.07774C48.8498 7.19902 49.6982 6.42403 50.6619 5.78815C51.1164 5.48842 51.4902 5.04469 52.0611 4.9499C52.1368 4.61502 52.4452 4.48423 52.6435 4.25778ZM54.661 11.9701C54.3986 11.9403 54.1435 11.8604 53.8554 11.8951C52.3081 12.0811 50.7515 12.0201 49.1987 11.9865C48.6534 11.9748 48.1174 11.8293 47.6112 11.5969C46.9922 11.3123 46.9655 11.2437 47.2868 10.6817C47.3391 10.5905 47.3974 10.5028 47.4529 10.4133C48.6339 8.51034 50.0988 6.88922 51.9499 5.65495C52.3183 5.40912 52.6894 5.1716 52.8931 4.74939C53.8809 4.35785 54.1798 3.47315 54.3499 2.52455C54.4478 1.97814 54.1956 1.57595 53.7133 1.30882C53.2511 1.05276 52.7775 0.911315 52.2449 0.86594C51.3002 0.785417 50.4093 1.14245 49.4767 1.13499C47.3395 1.11774 45.2025 1.19847 43.0691 0.941777C42.3739 0.858058 41.7044 0.80395 41.108 0.389404C40.4934 -0.0379245 39.7966 -0.0894766 39.1212 0.11801C38.7076 0.24476 38.3099 0.232617 37.9004 0.262228C36.9643 0.32997 36.0497 0.0713573 35.1196 0.0881862C33.467 0.118223 31.8164 0.0249178 30.1607 0.214084C28.7271 0.377687 27.2751 0.278631 25.8281 0.429878C24.1532 0.604985 22.4896 0.814814 20.8268 1.0845C17.6205 1.60428 14.6574 2.73438 11.9392 4.55809C9.92769 5.90739 8.19044 7.54065 6.77927 9.54841C4.84413 12.3009 3.97332 15.4098 3.76361 18.7502C3.73478 19.2087 3.7244 19.6797 3.79327 20.1309C3.98432 21.3824 4.01211 22.6588 4.34816 23.8886C4.44067 24.2273 4.31289 24.4546 4.0005 24.677C3.29523 25.1802 2.62999 25.7464 1.97367 26.3179C1.34183 26.8682 0.730939 27.4519 0.242019 28.1421C-0.148992 28.694 -0.0641522 29.0253 0.481604 29.3672C0.627637 29.4586 0.786531 29.5431 0.950403 29.5864C2.06266 29.8795 3.20188 29.9926 4.33115 29.8169C4.9188 29.7255 5.58736 29.6639 6.01343 29.1152C6.27251 28.7816 6.45422 28.8902 6.64838 29.1678C8.17218 31.3451 10.31 32.5059 12.7849 33.1656C13.6546 33.3976 14.5433 33.4598 15.4145 33.655C15.7854 33.738 16.0059 33.8703 16.2258 34.1914C17.2675 35.7136 18.648 36.7687 20.4184 37.2581C21.1133 37.45 21.7964 37.6892 22.4907 37.8848C23.1868 38.0812 23.8888 38.2644 24.6225 38.2139C25.0579 38.1841 25.1931 37.993 24.9954 37.6002C24.5637 36.7421 23.9817 36.0021 23.2233 35.4203C22.5618 34.9127 21.9347 34.355 21.2069 33.9425C21.149 33.9097 21.1019 33.8571 21.0498 33.8137C21.0984 33.7796 21.1465 33.7165 21.1959 33.7155C22.2969 33.6952 23.4052 33.6087 24.4926 33.8352C26.2232 34.195 27.809 34.9746 29.4067 35.71C30.3192 36.1297 31.2427 36.5312 32.2332 36.6754C33.7099 36.8904 35.0003 37.4673 36.1016 38.5036C36.4312 38.8138 36.7774 39.1131 37.1477 39.3685C37.8301 39.8395 38.2691 39.6314 38.49 38.7895C38.5458 38.5763 38.5831 38.3605 38.524 38.1621C38.3027 37.4217 38.1925 36.6533 37.9187 35.9237C37.3624 34.4429 36.6034 33.0372 36.2632 31.4785C36.0794 30.6351 35.8147 29.816 36.0026 28.8855C36.2852 27.4864 36.9676 26.4249 38.032 25.5581C38.4908 25.1844 38.9063 24.7533 39.3342 24.3404C39.5435 24.1387 39.703 23.9091 39.5489 23.5914C39.4245 23.3352 39.2091 23.2864 38.949 23.2668C37.8749 23.1858 36.8027 23.31 35.7836 23.5797C34.3272 23.9653 32.8891 24.4602 31.5165 25.1073C29.6274 25.998 27.6385 26.5208 25.5995 26.8526C25.0975 26.9344 24.5762 26.9023 24.0566 26.8009C22.2278 26.4441 20.8934 25.3193 19.7162 23.937C19.0589 23.165 18.4156 22.38 17.7668 21.6003C17.5811 21.377 17.4272 21.2833 17.2049 21.5937C16.59 22.453 16.1584 23.3424 16.5469 24.4423C16.5925 24.5714 16.6419 24.7997 16.5292 24.8276C16.3289 24.8768 16.3206 24.6148 16.2691 24.4876C15.6904 23.0585 16.0324 21.7924 16.9698 20.656C17.2961 20.2602 17.3496 20.2506 17.6774 20.6445C18.3974 21.5108 19.2916 22.0707 20.362 22.321C20.9623 22.4613 21.578 22.5316 22.1857 22.6386C23.0277 22.7866 23.8946 22.8288 24.6366 23.3601C24.9336 23.5729 25.1035 23.4692 25.0545 23.1196C24.9373 22.2847 24.7621 21.4652 24.51 20.6553C24.2997 19.98 23.9072 19.5738 23.2845 19.358C23.0904 19.2905 22.8881 19.2466 22.6877 19.2008C22.5855 19.1774 22.4782 19.1529 22.4606 19.0359C22.427 18.8127 22.6162 18.858 22.7329 18.8212C22.9325 18.7579 23.1961 18.9603 23.3399 18.6659C23.1486 18.5992 22.9578 18.5317 22.7661 18.4665C22.4932 18.3734 22.2266 18.3947 21.9561 18.4931C21.5898 18.6263 21.2052 18.5819 20.8266 18.5815C20.7654 18.5813 20.7045 18.5323 20.6435 18.5057C20.687 18.4693 20.726 18.412 20.7754 18.3998C21.1417 18.3106 21.507 18.2128 21.8777 18.1501C23.94 17.8016 26.0131 17.5132 28.0414 16.9753C28.1409 16.9489 28.2612 16.8777 28.3127 16.9919C28.3365 17.0452 28.2417 17.1751 28.1762 17.2463C28.0339 17.4003 27.8845 17.5501 27.7232 17.6826C26.251 18.8928 26.5381 20.5854 26.5489 22.2002C26.5497 22.3171 26.6603 22.361 26.7582 22.2779C26.9442 22.1201 27.1175 21.946 27.3046 21.789C27.367 21.7366 27.4431 21.5845 27.5315 21.7245C27.5665 21.7799 27.5126 21.926 27.4601 22.0027C27.2627 22.2916 27.0818 22.6045 26.8339 22.842C26.4607 23.1997 26.518 23.6854 26.4109 24.1146C26.3329 24.4282 26.6501 24.604 26.9474 24.4548C27.4543 24.2005 27.7864 23.718 28.2401 23.3995C29.477 22.5314 30.1219 21.2918 30.5034 19.8428C30.767 18.8403 30.6685 17.8057 30.8635 16.8008C30.9129 16.5476 30.9054 16.312 31.2313 16.2642C32.2514 16.1149 33.2701 15.8682 34.3044 16.0968C35.025 16.2559 35.7276 16.2662 36.4476 16.0885C36.9458 15.9654 37.4928 15.8795 37.9728 15.9072C39.0631 15.97 40.1606 16.116 41.2403 16.2938C42.638 16.5243 44.0481 16.4097 45.445 16.6127C46.2173 16.7248 47.014 16.5917 47.8058 16.4873C49.9197 16.2089 51.8798 15.4812 53.7448 14.4799C54.3024 14.1806 54.8888 13.8115 55.2085 13.1771C55.5538 12.4924 55.3769 12.0512 54.661 11.9701Z" transform="translate(-0.00012207 0.00732422)" fill="#1EACF6"/>
</g>
<path fill-rule="evenodd" clip-rule="evenodd" d="M3.06171 0.988999C3.07808 3.40007 4.15926 5.24838 5.97158 6.71553C6.60262 7.22638 7.30123 7.6195 8.01705 7.98613C8.09638 8.02672 8.22796 8.0389 8.20173 8.15171C8.19333 8.18867 8.00929 8.22221 7.9243 8.19551C7.15727 7.95451 6.40158 7.65582 5.73948 7.20352C4.89691 6.62858 3.97962 6.22349 3.07409 5.78358C2.79184 5.64663 2.48922 5.51993 2.25754 5.31611C1.93877 5.03601 1.4305 4.95439 1.32725 4.43864C1.71905 4.48927 1.95829 4.8465 2.32323 4.95247C2.38954 4.9717 2.4504 5.00994 2.5142 5.03921C2.75763 5.15096 3.06654 5.41182 3.24408 5.09733C3.36999 4.87449 3.08941 4.58349 2.93957 4.35253C2.78974 4.12136 2.5016 4.15533 2.27643 4.0812C1.49849 3.82481 0.859687 3.34708 0.246696 2.82257C0.200108 2.78283 0.15436 2.68391 0.171778 2.63605C0.230538 2.47346 0.324973 2.58712 0.394226 2.63477C0.916978 2.99413 1.45778 3.30307 2.10309 3.374C2.28839 3.3943 2.50496 3.61543 2.62122 3.30051C2.73496 2.99263 2.58324 2.58883 2.31546 2.48222C2.05902 2.37988 1.78348 2.32796 1.51885 2.24464C1.01582 2.08632 0.54868 1.85258 0.142398 1.50882C0.071886 1.44921 -0.0183523 1.31845 0.00326293 1.26077C0.0509004 1.13364 0.192134 1.18214 0.267892 1.24196C0.765042 1.63573 1.38978 1.59449 1.95346 1.75217C2.3887 1.87395 2.55113 1.70901 2.64347 1.21227C2.66277 1.10822 2.64242 0.99434 2.67201 0.894778C2.7612 0.593955 2.86613 0.297832 2.96497 0C3.17482 0.273903 3.0231 0.588827 3.06108 0.882386C3.0657 0.917425 3.06171 0.953532 3.06171 0.988999Z" transform="translate(28.718 4.10254)" fill="#1EACF6"/>
<path fill-rule="evenodd" clip-rule="evenodd" d="M0.421628 0.929371C0.401015 2.8569 1.15855 4.35273 2.5551 5.49925C2.76341 5.67024 3.18499 5.78453 3.0512 6.10043C2.97628 6.27746 2.59752 5.96824 2.3787 5.84318C0.277732 4.64103 -0.415785 2.54682 0.235911 0.178758C0.253551 0.114931 0.297751 0.0595142 0.329463 0C0.359987 0.0599455 0.41489 0.118597 0.417466 0.179836C0.427376 0.429322 0.421628 0.679454 0.421628 0.929371Z" transform="translate(14.3589 21.5386)" fill="#1EACF6"/>
<path fill-rule="evenodd" clip-rule="evenodd" d="M0.0700545 0C0.121288 0.0299099 0.190933 0.0461845 0.222954 0.0934686C0.400669 0.354301 0.57138 0.621071 0.74089 0.888721C1.57263 2.20102 2.68936 3.1445 3.95338 3.90017C3.99821 3.927 4.19854 3.91292 4.04644 4.07215C4.01061 4.10954 3.91575 4.10932 3.85972 4.08843C3.2241 3.85377 2.68836 3.41721 2.15701 2.99451C1.26203 2.28217 0.552368 1.37432 0.037033 0.293381C-0.00759598 0.199693 -0.0278091 0.0859911 0.0700545 0Z" transform="translate(33.8461 8.20508)" fill="#1EACF6"/>
<path fill-rule="evenodd" clip-rule="evenodd" d="M3.07692 1.0228C2.97825 1.02066 2.84708 1.03504 2.78575 1.0141C1.83085 0.68872 0.780313 0.408238 0 0C1.33352 0.181103 2.24985 0.578747 3.07692 1.0228Z" transform="translate(15.3846 29.7437)" fill="#1EACF6"/>
<path fill-rule="evenodd" clip-rule="evenodd" d="M0.510887 0.850848C0.467325 0.90903 0.423467 0.967459 0.379608 1.02564C0.265517 0.857504 0.12268 0.697996 0.046817 0.518766C-0.0112659 0.382185 -0.00504273 0.218979 0.011256 0.0708118C0.0228134 -0.0295278 0.127125 -0.0243506 0.169799 0.093493C0.263739 0.352601 0.538447 0.55476 0.510887 0.850848Z" transform="translate(32.8205 7.17969)" fill="#1EACF6"/>
<path fill-rule="evenodd" clip-rule="evenodd" d="M0.389006 0C0.45245 0.108346 0.482745 0.160308 0.512821 0.211993C0.401519 0.31343 0.295706 0.429515 0.174965 0.508287C0.138084 0.532333 0.0594924 0.45439 0 0.423158C0.128425 0.283303 0.256849 0.143448 0.389006 0Z" transform="translate(40 6.15381)" fill="#1EACF6"/>
</svg>
