<?xml version="1.0" encoding="UTF-8"?>
<!DOCTYPE svg PUBLIC "-//W3C//DTD SVG 1.1//EN" "http://www.w3.org/Graphics/SVG/1.1/DTD/svg11.dtd">
<!-- Creator: CorelDRAW 2018 (64-Bit) -->
<svg xmlns="http://www.w3.org/2000/svg" xml:space="preserve" width="170.054mm" height="167.353mm" version="1.1" style="shape-rendering:geometricPrecision; text-rendering:geometricPrecision; image-rendering:optimizeQuality; fill-rule:evenodd; clip-rule:evenodd"
viewBox="0 0 1872.49 1842.74"
 xmlns:xlink="http://www.w3.org/1999/xlink">
 <defs>
  <style type="text/css">
   <![CDATA[
    .fil0 {fill:#FEFEFE}
   ]]>
  </style>
 </defs>
 <g id="Слой_x0020_1">
  <metadata id="CorelCorpID_0Corel-Layer"/>
  <path class="fil0" d="M170 0l1546.58 0c11.66,0 18.1,9.96 21.2,21.2l65.26 236.3c3.1,11.24 -9.54,21.2 -21.2,21.2l-1691.08 0c-11.66,0 -24.91,-10.14 -21.2,-21.2l79.24 -236.3c3.71,-11.06 9.54,-21.2 21.2,-21.2zm-57.41 367.26l1647.42 0c61.73,0 116.6,50.66 112.24,112.24l-88.57 1251c-4.36,61.58 -50.51,112.24 -112.24,112.24l-1451.64 0c-61.73,0 -106.97,-50.73 -112.24,-112.24l-107.21 -1251c-5.27,-61.51 50.51,-112.24 112.24,-112.24zm788.87 343.61c-57.94,-31.27 -61.41,-70.16 -112.74,-62.56 -61.92,101.58 112.67,67.04 112.74,279.99l0.07 92.9c-294.69,-129.88 -118.43,-135.71 -236.3,-291.13 -102.61,32.05 -17.48,60.93 -59.47,129.14 -64.38,-40.12 -83,-77.45 -148.32,-40.81 15.01,70.62 69.47,84.24 124.85,114.07 -83.41,57.41 -82.84,-9.88 -106.8,94.57 157.21,36.51 197.99,-105.36 373.44,66.09l-78.29 56.17c-43.99,27.61 -39.34,32.3 -90.17,31.93 -76.92,-0.56 -130.6,-60.3 -199.36,-14.84 13.01,68.36 29.21,57.53 109.58,71.05 -104.96,107.14 -118.51,23.87 -128.53,130.42 56.2,30.96 95.91,-8.86 143.6,-39.5l7.42 25.6c20.43,111.44 -20.41,44.34 29.21,95.91 98,-48.36 39.95,-100.88 86.02,-178.35 25.29,-42.53 123.11,-89.32 175.25,-106.8 0.55,379.33 -141.53,172.41 -129.54,364.89 88.76,5.35 38.14,-20.87 131.35,-62.02 -2.6,99.2 -28.79,151.15 48.27,171.1 44.79,-58.59 19.17,-89.67 30.99,-166.57 34.53,52.58 71.14,76.39 119.46,39.91 8.72,-117.54 -123.27,35.43 -125.16,-340.77 41.29,8.27 140,58.15 165.97,97.31 54.6,82.31 2.79,156.86 101.78,174.99 33.88,-65.74 5.82,-46.87 3.29,-124.06 67.62,34.3 112.08,87 170.14,41.54 -20.38,-82.12 -67.6,-51.61 -131.99,-119.07 93.17,-34 91.21,2.22 109.33,-75.57 -102.61,-63.89 -194.92,96.53 -367.71,-73.26 175.84,-172.79 249.43,-16.29 364.08,-73.26 -11.86,-79.88 -40.38,-39.36 -101.13,-97.96 180.33,-61.19 143.42,-148.7 34.27,-98.47 -22.48,10.34 -53.32,31.23 -79.35,44.12 9.75,-79.92 34.79,-75.09 -2.21,-135.23 -127.53,25.35 -2.56,226.92 -266.72,283.18 1.07,-91.5 -16.88,-160.43 29.03,-216.26 19.05,-23.16 50.97,-41.46 67.81,-63.11 7.22,-9.29 16.38,-19.88 19.41,-34.53 0.78,-3.78 1.16,-9.53 1.32,-13.35l-10.88 -43.33 -105.15 60.79c-0.91,-92.09 23.57,-129.43 -44.91,-167.68 -37.51,28.49 -33.39,-15.23 -33.98,172.85z"/>
 </g>
</svg>
