<?xml version="1.0" encoding="UTF-8"?>
<!DOCTYPE svg PUBLIC "-//W3C//DTD SVG 1.1//EN" "http://www.w3.org/Graphics/SVG/1.1/DTD/svg11.dtd">
<!-- Creator: CorelDRAW 2018 (64-Bit) -->
<svg xmlns="http://www.w3.org/2000/svg" xml:space="preserve" width="167.78mm" height="170mm" version="1.1" style="shape-rendering:geometricPrecision; text-rendering:geometricPrecision; image-rendering:optimizeQuality; fill-rule:evenodd; clip-rule:evenodd"
viewBox="0 0 1729.28 1752.17"
 xmlns:xlink="http://www.w3.org/1999/xlink">
 <defs>
  <style type="text/css">
   <![CDATA[
    .fil0 {fill:#FEFEFE}
   ]]>
  </style>
 </defs>
 <g id="Слой_x0020_1">
  <metadata id="CorelCorpID_0Corel-Layer"/>
  <path class="fil0" d="M1374.12 0c45.8,0 82.92,43.94 82.92,98.14 0,39.12 -19.34,72.88 -47.32,88.65 137.03,88.03 319.56,564.79 319.56,778.27 0,235.71 -161.46,426.79 -360.63,426.79 -199.17,0 -360.63,-191.08 -360.63,-426.79 0,-216.38 187.52,-703.19 325.11,-781.58 -25.05,-16.89 -41.94,-48.77 -41.94,-85.33 0,-54.2 37.13,-98.14 82.92,-98.14zm-210.63 1061.63c0,-12.13 3.62,-20.96 10.85,-26.28 7.23,-5.43 14.26,-8.08 20.85,-8.08l37.02 0c17.34,0 31.38,9.79 41.91,29.47 10.21,18.19 32.23,27.34 66.28,27.34l49.04 0c25.53,0 44.25,-4.04 56.17,-12.13 11.91,-8.09 17.87,-22.02 17.87,-41.6 0,-19.68 -5.96,-33.51 -17.87,-41.49 -12.02,-7.98 -30.74,-12.02 -56.28,-12.02l-181.27 0c-8.08,0 -15,-2.77 -20.64,-8.4 -5.75,-5.64 -8.62,-12.45 -8.62,-20.53l0 -195.53c0,-8.51 2.87,-15.53 8.62,-21.17 5.64,-5.64 12.55,-8.4 20.64,-8.4l320.95 0c8.51,0 15.53,2.77 21.17,8.4 5.64,5.64 8.4,12.66 8.4,21.17l0 29.26c0,8.51 -2.77,15.53 -8.4,20.96 -5.64,5.53 -12.66,8.3 -21.17,8.3l-232.76 0 0 77.87 104.15 0c59.25,0 104.15,11.06 134.68,33.19 30.53,22.02 45.85,58.19 45.85,108.4 0,50.21 -15.32,86.38 -45.96,108.51 -30.53,22.23 -75.32,33.3 -134.25,33.3l-70.96 0c-46.7,0 -86.06,-10.53 -118.19,-31.49 -32.02,-21.06 -48.08,-47.45 -48.08,-79.04zm-1048.05 37.81c-2.45,-3.51 -3.72,-7.13 -3.72,-10.85 0,-5.85 3.4,-11.7 10.32,-17.45l75.96 -65.42c11.06,-9.79 26.28,-14.79 45.85,-15l45.74 0c8.51,0 15.64,2.87 21.49,8.72 5.85,5.85 8.72,12.77 8.72,20.85l0 387.97c0,8.08 -2.98,15 -9.04,20.64 -6.06,5.74 -13.09,8.62 -21.17,8.62l-57.98 0c-8.08,0 -15,-2.77 -20.64,-8.3 -5.75,-5.43 -8.62,-12.23 -8.62,-20.32l0 -301.38 -35.85 26.17c-4.15,2.98 -8.94,3.83 -14.25,2.87 -5.43,-1.06 -9.79,-3.51 -13.09,-7.23l-23.72 -29.89zm285.42 222.23c-11.49,-30 -17.23,-65.96 -17.23,-107.66 0,-41.81 5.74,-77.66 17.34,-107.55 11.49,-29.89 27.77,-53.19 48.83,-70 21.06,-16.81 44.68,-29.04 70.64,-36.81 25.96,-7.66 55,-11.49 87.23,-11.49l21.7 0c32.45,0 61.59,3.83 87.45,11.49 25.85,7.77 49.36,20 70.42,36.81 21.06,16.81 37.34,40.11 48.83,70 11.6,29.89 17.34,65.74 17.34,107.55 0,41.7 -5.75,77.66 -17.34,107.66 -11.49,30.11 -27.77,53.51 -48.83,70.21 -21.06,16.7 -44.57,28.94 -70.42,36.6 -25.85,7.77 -55,11.6 -87.45,11.6l-21.7 0c-32.45,0 -61.59,-3.83 -87.45,-11.6 -25.85,-7.66 -49.36,-19.89 -70.42,-36.6 -21.06,-16.7 -37.34,-40.11 -48.94,-70.21zm217.66 -245.42c-78.3,0 -117.44,45.96 -117.44,137.87 0,91.91 39.15,137.87 117.44,137.87 78.3,0 117.44,-45.96 117.44,-137.87 0,-91.91 -39.15,-137.87 -117.44,-137.87zm-142.66 -1076.25c45.8,0 82.92,43.94 82.92,98.14 0,34.5 -15.04,64.84 -37.79,82.34 178.81,110.58 418.82,736.13 418.82,1015.57 0,307.14 -210.38,556.12 -469.91,556.12 -259.52,0 -469.91,-248.98 -469.91,-556.12 0,-283.07 246.3,-921.4 425.77,-1019.69 -19.95,-17.92 -32.83,-46.28 -32.83,-78.21 0,-54.2 37.13,-98.14 82.92,-98.14zm0 52.34c21.37,0 38.7,20.5 38.7,45.8 0,25.29 -17.32,45.8 -38.7,45.8 -21.37,0 -38.7,-20.5 -38.7,-45.8 0,-25.29 17.33,-45.8 38.7,-45.8zm898.26 0c21.37,0 38.7,20.5 38.7,45.8 0,25.29 -17.33,45.8 -38.7,45.8 -21.37,0 -38.7,-20.5 -38.7,-45.8 0,-25.29 17.32,-45.8 38.7,-45.8z"/>
 </g>
</svg>
