<?xml version="1.0" encoding="UTF-8"?>
<svg width="50px" height="49px" viewBox="0 0 50 49" version="1.1" xmlns="http://www.w3.org/2000/svg" xmlns:xlink="http://www.w3.org/1999/xlink">
    <!-- Generator: Sketch 49.2 (51160) - http://www.bohemiancoding.com/sketch -->
    <title>3</title>
    <desc>Created with Sketch.</desc>
    <defs>
        <polygon id="path-1" points="0 0.0838554357 11.6148915 0.0838554357 11.6148915 11.8923309 0 11.8923309"></polygon>
        <polygon id="path-3" points="0.260964149 0.289766794 6.77854159 0.289766794 6.77854159 5.84278919 0.260964149 5.84278919"></polygon>
    </defs>
    <g id="Page-1" stroke="none" stroke-width="1" fill="none" fill-rule="evenodd">
        <g id="00.1-Главная-Меню" transform="translate(-443.000000, -231.000000)">
            <g id="Выпадающее-меню" transform="translate(0.000000, 190.000000)">
                <g id="3" transform="translate(443.000000, 41.000000)">
                    <path d="M34.6701473,21.3290405 C34.0491356,20.7631396 33.428704,20.1972387 32.627567,19.4671656 C29.4557953,22.714062 26.3330433,25.9107785 23.1804154,29.1382411 C21.9012646,27.8239935 20.7329157,26.6237383 19.6130061,25.4730827 C22.8343775,22.2760761 26.1038984,19.0315002 29.3287504,15.8307228 C31.020362,17.5261051 32.8735352,19.3833391 34.7264184,21.2402831 C34.7078547,21.2698689 34.689001,21.2994547 34.6701473,21.3290405" id="Fill-1" fill="#1EACF6"></path>
                    <g id="Group-5" transform="translate(0.000000, 36.837510)">
                        <mask id="mask-2" fill="white">
                            <use xlink:href="#path-1"></use>
                        </mask>
                        <g id="Clip-4"></g>
                        <path d="M11.6148915,3.64633368 C9.03802645,6.23277062 6.24854972,9.03297946 3.39990138,11.8923599 C2.2724504,10.6877538 1.13107669,9.4683548 -0.000145028426,8.25997796 C2.73770159,5.63902425 5.61303515,2.88609467 8.53970878,0.0838554357 C9.35795916,1.03147117 10.4810593,2.3326662 11.6148915,3.64633368" id="Fill-3" fill="#1EACF6" mask="url(#mask-2)"></path>
                    </g>
                    <path d="M30.2136559,14.8615269 C30.8984801,14.1294234 31.6450864,13.331767 32.4410024,12.4810303 C34.2587887,14.3852535 35.9765054,16.1847662 37.6942221,17.9842789 C37.6898712,18.0011022 37.6855204,18.0179255 37.6811695,18.0344588 C37.0659589,17.5033647 36.4507483,16.9722706 35.7621534,16.3779441 C35.0303399,17.0775612 34.3484163,17.7298991 33.6000696,18.4454693 C32.4404223,17.2182388 31.3274742,16.0403179 30.2136559,14.8615269" id="Fill-6" fill="#1EACF6"></path>
                    <path d="M38.8181924,13.1812565 C38.0599838,13.8814538 37.3969138,14.4934737 36.688885,15.1472619 C35.6235062,13.9919654 34.5952547,12.8764068 33.5945585,11.7913041 C34.194106,11.2021986 34.9346212,10.4738659 35.6371389,9.78353057 C37.2475345,11.4217717 38.9574197,13.1609525 40.4248173,14.6535851 C40.1063348,14.3617879 39.5239007,13.8277932 38.8181924,13.1812565" id="Fill-8" fill="#1EACF6"></path>
                    <path d="M36.6110338,8.81764126 C37.2993387,8.06697413 38.0128785,7.28904165 38.6260587,6.6198805 C40.4458754,8.35761109 42.15315,9.98802065 43.8607147,11.6187203 C43.8099548,11.6764416 43.7591948,11.734743 43.7084349,11.7924643 C43.1077271,11.2277236 42.5070194,10.6626929 41.7891287,9.98715048 C41.0680473,10.6696543 40.3835132,11.3173512 39.612252,12.0474243 C38.6161968,10.9756642 37.6424759,9.92739877 36.6110338,8.81764126" id="Fill-10" fill="#1EACF6"></path>
                    <g id="Group-14" transform="translate(42.638357, 0.000290)">
                        <mask id="mask-4" fill="white">
                            <use xlink:href="#path-3"></use>
                        </mask>
                        <g id="Clip-13"></g>
                        <path d="M6.77854159,5.01119619 C6.18450516,4.4673396 5.59017868,3.923483 4.7234888,3.13046757 C4.13583362,4.03370461 3.56007077,4.91808795 2.95849286,5.84278919 C1.84496461,4.76435781 1.15375914,4.09519666 0.260964149,3.23053719 C1.26514097,2.306126 2.13386124,1.41101056 3.10207101,0.641489732 C4.11610976,-0.164868314 5.84629887,0.523146537 5.53129713,1.61056967 C5.04516185,3.28854856 6.20161852,3.90810999 6.77854159,5.01119619" id="Fill-12" fill="#1EACF6" mask="url(#mask-4)"></path>
                    </g>
                    <path d="M42.0773582,3.42171366 C43.1009688,4.50565611 44.0552558,5.51621418 45.0365182,6.55490776 C44.2638067,7.28962177 43.4774626,8.03767838 42.6249855,8.84838728 C41.653295,7.8561028 40.7491878,6.93256178 39.7229667,5.88458638 C40.4901671,5.08199907 41.2350331,4.30261631 42.0773582,3.42171366" id="Fill-15" fill="#1EACF6"></path>
                    <path d="M11.9298643,38.6565437 C12.2280427,39.0083826 12.5163592,39.2276656 12.8107669,39.3370171 L19.6230421,32.6367038 C19.7048381,32.5453359 19.7953359,32.4588989 19.8898944,32.3744924 L22.2953359,30.0087887 C20.856944,28.5544437 19.7173106,27.4023379 18.6591832,26.3326082 C15.4891519,29.4774046 12.3437754,32.5978362 9.19404803,35.7226186 C9.22479406,35.8015141 9.23552616,35.9094152 9.29498782,35.9697471 C10.1750203,36.8642824 11.1211858,37.7019666 11.9298643,38.6565437" id="Fill-17" fill="#1EACF6"></path>
                </g>
            </g>
        </g>
    </g>
</svg>