<?xml version="1.0" encoding="UTF-8"?>
<!DOCTYPE svg PUBLIC "-//W3C//DTD SVG 1.1//EN" "http://www.w3.org/Graphics/SVG/1.1/DTD/svg11.dtd">
<!-- Creator: CorelDRAW 2018 (64-Bit) -->
<svg xmlns="http://www.w3.org/2000/svg" xml:space="preserve" width="103.958mm" height="170mm" version="1.1" style="shape-rendering:geometricPrecision; text-rendering:geometricPrecision; image-rendering:optimizeQuality; fill-rule:evenodd; clip-rule:evenodd"
viewBox="0 0 136.94 223.93"
 xmlns:xlink="http://www.w3.org/1999/xlink">
 <defs>
  <style type="text/css">
   <![CDATA[
    .fil0 {fill:#FEFEFE}
   ]]>
  </style>
 </defs>
 <g id="Слой_x0020_1">
  <metadata id="CorelCorpID_0Corel-Layer"/>
  <path class="fil0" d="M110.12 33.31l0 -27.3c0,-3.32 -2.69,-6.01 -6.01,-6.01 -3.32,0 -6.01,2.69 -6.01,6.01l0 22.04 -60.1 -0 0 -22.04c0,-3.32 -2.69,-6.01 -6.01,-6.01 -3.32,0 -6.01,2.69 -6.01,6.01l0 27.3c-0.21,29.62 -11.09,52.62 -12.74,83.69 8.53,-6.02 23.02,-22 29.15,-33.17l4.61 0c-6.44,16.43 -18.08,29.57 -33.03,37.8l6.34 49.06c0,2.96 2.13,5.41 4.94,5.91 1.95,7.4 3.73,17.13 1.63,22.72 -2.74,7.31 -6.26,9.34 -11.62,9.9 -0.9,-0.24 -1.86,-0.38 -2.85,-0.41l-0 -0c-0.37,0 -0.74,0 -1.11,0 -11.03,0 -11.27,6.26 -11.27,6.56l0 1.28c0,0.08 0.01,0.16 0.02,0.24l0.11 0c1.14,4.14 4.91,7.03 9.23,7.04l15.61 0c0.91,0.01 1.79,-0.31 2.47,-0.92 3.79,-3.5 9.64,-3.5 13.43,0 0.68,0.6 1.56,0.93 2.47,0.92l9.71 0c2.68,-0 4.86,-2.18 4.86,-4.86l0 -2.42 -0 0 0 -1.16c-0.2,-3.6 -0.82,-7.17 -1.84,-10.63 -0.95,-3.54 -0.99,-7.27 -0.09,-10.83 1.4,-5.5 1.89,-12.27 2.02,-17.66 1.89,-0.65 3.38,-2.21 3.88,-4.23l6.19 -24.76 6.19 24.76c0.58,2.31 2.45,4.02 4.72,4.45 0.14,5.35 0.63,12.02 2.02,17.44 0.89,3.56 0.86,7.28 -0.09,10.83 -1.03,3.46 -1.65,7.02 -1.84,10.63l0 1.16 -0 0 0 2.42c0,2.68 2.18,4.86 4.86,4.86l9.71 0c0.91,0.01 1.79,-0.31 2.47,-0.92 3.79,-3.5 9.64,-3.5 13.43,0 0.68,0.6 1.56,0.93 2.47,0.92l15.61 0c4.32,-0.01 8.09,-2.9 9.23,-7.04l0.11 0c0,-0.08 0.02,-0.16 0.02,-0.24l0 -1.28c-0,-0.3 -0.25,-6.56 -11.27,-6.56 -0.38,0 -0.75,-0 -1.11,-0l-0 0c-0.99,0.03 -1.95,0.17 -2.85,0.41 -5.36,-0.56 -8.88,-2.59 -11.62,-9.9 -2.12,-5.65 -0.28,-15.52 1.69,-22.96 2.35,-0.82 4.04,-3.05 4.04,-5.68l6.34 -48.99c-14.93,-8.18 -26.58,-21.27 -33.04,-37.87l5.29 0c6.05,11.16 19.86,26.72 28.33,32.66 -3.89,-33.52 -10.01,-47.48 -12.6,-83.18zm-24.02 8.77l0 19.66c0,2.1 -1.71,3.81 -3.81,3.81l-28.76 0c-2.1,0 -3.81,-1.71 -3.81,-3.81l0 -19.66 3.4 0 0 19.66c0,0.22 0.18,0.41 0.41,0.41l28.76 0c0.22,0 0.41,-0.18 0.41,-0.41l0 -19.66 3.4 0zm-0.31 -1.11l-36.06 0c-3.32,0 -5.72,4.8 -5.72,1.48 0,-3.32 2.69,-6.01 6.01,-6.01l36.06 0c3.32,0 6.01,2.69 6.01,6.01 0,3.32 -2.98,-1.48 -6.3,-1.48z"/>
 </g>
</svg>
