<?xml version="1.0" encoding="UTF-8"?>
<!DOCTYPE svg PUBLIC "-//W3C//DTD SVG 1.1//EN" "http://www.w3.org/Graphics/SVG/1.1/DTD/svg11.dtd">
<!-- Creator: CorelDRAW 2018 (64-Bit) -->
<svg xmlns="http://www.w3.org/2000/svg" xml:space="preserve" width="215.903mm" height="169.316mm" version="1.1" style="shape-rendering:geometricPrecision; text-rendering:geometricPrecision; image-rendering:optimizeQuality; fill-rule:evenodd; clip-rule:evenodd"
viewBox="0 0 1056.62 828.63"
 xmlns:xlink="http://www.w3.org/1999/xlink">
 <defs>
  <style type="text/css">
   <![CDATA[
    .fil0 {fill:#FEFEFE}
   ]]>
  </style>
 </defs>
 <g id="Слой_x0020_1">
  <metadata id="CorelCorpID_0Corel-Layer"/>
  <path class="fil0" d="M36.23 450.56c33.44,-14.93 75.11,5.59 93.07,45.82 17.96,40.23 5.41,84.95 -28.04,99.88 -33.44,14.93 -75.11,-5.59 -93.07,-45.82 -17.96,-40.23 -5.41,-84.95 28.04,-99.88zm494.46 120.06c9.05,-8.23 23.4,-13.28 35.25,-14.36 11.42,-1.04 26.78,-5.66 38.27,-9.66l244.27 -211.87 0.39 -0.3c10.11,-7.66 25.53,-12.22 35.12,-0.83 8.67,10.3 4.09,24.11 -3.42,33.42l-0.84 1.05 -243.93 210.29c-4.09,12.45 -8.25,25.38 -11.34,37.96 -2.47,10.06 -8.36,21.93 -16.65,28.77l-53.41 54.2 -1.46 0.92c-12.07,7.6 -28.86,9.68 -40.67,0.42 -7.25,-5.68 -14.36,-12.16 -21.25,-18.27 -7.55,-6.7 -15.06,-13.44 -22.54,-20.22l-1.12 -1.02 -0.89 -1.22c-3.01,-4.11 -5.06,-9.67 -5.72,-14.67 -1.54,-11.74 3.68,-22.22 12.62,-29.65l0.16 -0.13 57.18 -44.81zm-47.83 56.39l57.49 -45.06c0,0 9.84,-9.32 26.93,-10.88 17.09,-1.55 44.54,-11.4 44.54,-11.4l246.02 -213.39c0,0 10.62,-8.03 14.76,-3.11 4.14,4.92 -3.63,14.5 -3.63,14.5l-246.02 212.1c0,0 -9.32,28.23 -12.95,42.99 -3.63,14.76 -12.17,21.24 -12.17,21.24l-52.83 53.61c0,0 -13.98,8.81 -23.57,1.29 -9.58,-7.51 -42.99,-37.81 -42.99,-37.81 0,0 -9.32,-12.69 4.4,-24.08zm-387.68 -253.02c0,0 -11.65,-6.21 -1.29,-13.21 10.36,-6.99 66.04,-40.92 84.68,-46.62 18.65,-5.7 39.11,-12.69 46.1,-17.35 6.99,-4.66 10.62,-6.73 10.62,-6.73l270.37 -167.55c0,0 9.92,-4.71 12.95,0 3.03,4.71 -5.96,14.76 -5.96,14.76l-274.51 169.37c0,0 -10.62,5.96 -13.21,15.28 -2.59,9.32 -29.52,27.45 -56.2,44.03 -26.67,16.57 -37.81,23.05 -55.68,15.54 -17.87,-7.51 -17.87,-7.51 -17.87,-7.51zm206.4 -31.34l63.19 -44.54 244.99 156.94 -60.08 45.06 -248.09 -157.45zm249.65 -170.4l52.31 -37.29 239.29 141.92 -52.31 40.4 -239.29 -145.02zm-500.61 259.07c11.91,-7.91 31.32,-20.58 55.79,-36.48l0.89 0.37c27.02,11.36 46.74,-2.6 69.3,-16.62 12.92,-8.03 26,-16.34 38.19,-25.45 8.65,-6.47 21.5,-16.44 24.49,-27.23 0.58,-2.1 4.34,-5.22 6.23,-6.33l0.21 -0.12 276.6 -170.66 1.44 -1.62c2.5,-2.8 4.92,-6.21 6.71,-9.49 3.08,-5.66 4.64,-12.03 2.98,-18.05 27.56,-17.7 44.33,-28.47 44.33,-28.47 0,0 163.15,-86.74 254.31,-90.64 50.96,-2.18 86.37,2.45 107.7,6.95 -2.57,1.13 -5.05,2.3 -7.39,3.47 -19.14,9.56 -36.48,23.22 -48.01,41.46 -5.77,9.13 -9.77,19.35 -12.52,29.76 -5.58,21.12 -7.13,48.91 -4.68,71.35 -29.67,-1.88 -96.87,-2.18 -145.94,27.26 -1.56,0.94 -3.43,2.09 -5.51,3.4l-112.93 -66.98 -78.61 56.04 108.82 65.95c-44.94,30.49 -101.68,69.42 -160.7,110.12l-107.92 -69.14 -89.53 63.11 107.46 68.2c-37.49,25.95 -73.96,51.24 -106.96,74.14l-65.21 -48.42 -64.52 -2.23 17.16 24.44c8.77,12.5 17.19,26.15 24.51,39.52 5.97,10.91 8.83,28.16 9.08,41.57 -25.28,17.58 -44.62,31.05 -55.41,38.57 15.26,-26.51 14.43,-60.86 1.96,-88.8 -8.02,-17.97 -20.77,-33.81 -37.18,-44.77 -15.3,-10.23 -33.48,-15.93 -51.97,-14.52 -1.05,0.08 -2.09,0.18 -3.14,0.31zm289.03 224.69l192.74 -149.25 17.99 11.42 85.46 -64.09 -19.39 -12.42 153.93 -119.2 21.15 12.82 77.73 -60.03 -21.47 -12.73 12.9 -9.99c0,0 41.95,-31.59 36.77,-63.19 -5.18,-31.59 -15.15,-34.45 -15.15,-34.45 0,0 -7.64,-59.3 14.63,-94.52 22.27,-35.22 67.72,-45.84 67.72,-45.84 0,0 69.54,54.13 84.56,116.28 15.02,62.15 15.02,165.22 -77.17,240.84 -84.79,69.54 -477.05,387 -539.55,437.57 16.88,-26.84 16.43,-62.55 3.54,-91.43 -8.02,-17.97 -20.77,-33.81 -37.18,-44.77 -15.3,-10.23 -33.48,-15.93 -51.97,-14.52 -4.77,0.36 -9.48,1.2 -14.06,2.5 4.11,-3.17 6.8,-4.99 6.8,-4.99zm-128.45 -110.32c0,0 1.04,-32.11 -10.88,-53.87 -11.91,-21.75 -25.38,-40.92 -25.38,-40.92l30.04 1.04 154.87 114.98 28.27 32.74 -49.59 38.4 -127.33 -92.38zm118.2 132.36c33.44,-14.93 75.11,5.59 93.07,45.82 17.96,40.23 5.41,84.95 -28.04,99.88 -33.44,14.93 -75.11,-5.59 -93.07,-45.82 -17.96,-40.23 -5.41,-84.95 28.04,-99.88z"/>
 </g>
</svg>
