<?xml version="1.0" encoding="UTF-8"?>
<!DOCTYPE svg PUBLIC "-//W3C//DTD SVG 1.1//EN" "http://www.w3.org/Graphics/SVG/1.1/DTD/svg11.dtd">
<!-- Creator: CorelDRAW 2018 (64-Bit) -->
<svg xmlns="http://www.w3.org/2000/svg" xml:space="preserve" width="203.621mm" height="170mm" version="1.1" style="shape-rendering:geometricPrecision; text-rendering:geometricPrecision; image-rendering:optimizeQuality; fill-rule:evenodd; clip-rule:evenodd"
viewBox="0 0 420.79 351.31"
 xmlns:xlink="http://www.w3.org/1999/xlink">
 <defs>
  <style type="text/css">
   <![CDATA[
    .fil0 {fill:white}
   ]]>
  </style>
 </defs>
 <g id="Слой_x0020_1">
  <metadata id="CorelCorpID_0Corel-Layer"/>
  <path class="fil0" d="M69.86 46c155.22,52.98 244.63,14.31 287.01,-5.74 0.04,-0.31 0.09,-0.61 0.15,-0.92 0.46,-2.14 1.07,-5.96 -0.18,-7.99 -4.28,-6.9 -33.69,-6.48 -40.53,-6.41 -16.24,0.18 -32.56,-6.88 -48.78,-6.05 -22.16,1.13 -44.31,2.22 -66.49,2.95 -22.87,0.75 -46.83,1.01 -69.59,3.36 -13.82,1.43 -26.81,12.23 -40.42,15.05 -4.41,0.91 -14.56,3.18 -21.17,5.75zm300 4.03c3.92,4.29 7.01,9.35 5.86,13.95 -2.7,10.8 -11.7,35.1 -0.9,43.2 10.8,8.1 -14.25,26.37 -12.94,39.28 4.65,46.11 -118.07,65.48 -117.02,71.47 0.69,3.94 94.93,-14.56 118.82,-40.88 11.15,-12.29 25.2,10.8 30.6,21.6 5.4,10.8 -12.48,36.85 -12.48,36.85 0,0 52.07,24.42 35.87,39.72 -77.71,73.39 -228.02,100.84 -324.86,50.32 -41.4,-21.6 -75.59,-38.7 -87.29,-53.09 -11.7,-14.4 -4.5,-18.9 18.9,-29.7 10.74,-4.95 79.45,20.35 82.7,16.02 3.83,-5.12 -59.46,-39.87 -69.2,-45.71 -18,-10.8 -10.8,-25.2 5.4,-36 16.2,-10.8 13.24,-25.18 8.74,-48.58 -4.5,-23.4 -23.4,-36.45 61.64,-9 2.52,0.81 -66.99,-24.7 -65.29,-43.72 0.89,-9.97 -4.8,-21.47 1.75,-34.73 -0.07,-2.82 1.1,-5.64 3.44,-7.55 6.29,-5.15 21.6,-9 29.2,-10.72 14.34,-3.25 29.69,-14.78 44.3,-16.38 24.48,-2.68 48.73,-2.56 73.34,-3.37 22.07,-0.73 44.11,-1.82 66.16,-2.94 16.47,-0.84 33.04,6.22 49.52,6.03 11.11,-0.12 23.52,-0.04 34.43,2.19 8.69,1.77 17.44,5.26 22.32,13.13 4.15,6.69 4.21,14.45 2.59,21.92 -0.68,3.12 -2.84,5.54 -5.58,6.69z"/>
 </g>
</svg>
