<?xml version="1.0" encoding="UTF-8"?>
<!DOCTYPE svg PUBLIC "-//W3C//DTD SVG 1.1//EN" "http://www.w3.org/Graphics/SVG/1.1/DTD/svg11.dtd">
<!-- Creator: CorelDRAW 2018 (64-Bit) -->
<svg xmlns="http://www.w3.org/2000/svg" xml:space="preserve" width="257.416mm" height="170.069mm" version="1.1" style="shape-rendering:geometricPrecision; text-rendering:geometricPrecision; image-rendering:optimizeQuality; fill-rule:evenodd; clip-rule:evenodd"
viewBox="0 0 1705.13 1126.54"
 xmlns:xlink="http://www.w3.org/1999/xlink">
 <defs>
  <style type="text/css">
   <![CDATA[
    .fil0 {fill:#FEFEFE}
   ]]>
  </style>
 </defs>
 <g id="Слой_x0020_1">
  <metadata id="CorelCorpID_0Corel-Layer"/>
  <path class="fil0" d="M953.42 652.1l66.96 -48.03c2.54,20.47 20.71,36.16 41.45,35.54l5.04 -0.15c22.02,-0.65 38.9,-19.66 36.89,-41.61l-3.58 -38.93c-0.33,-3.62 -1.15,-7.1 -2.39,-10.38l427.56 -306.71c0,0 3.8,-3.38 9.71,-9.13 10.51,0.94 23.61,5.49 32.32,9.72 5.45,2.65 10.74,6.09 15.72,9.52 8.71,5.99 17.06,12.6 25.89,18.37 12.58,8.22 28.96,14.54 41.04,1.12 7.34,-8.15 9.88,-27.33 11.47,-37.99 2.71,-18.15 4.46,-36.71 5.42,-55.03 1.18,-22.44 1.89,-52.68 -4.03,-74.36 -2.72,-9.99 -7.63,-26.61 -14.11,-43.12 18.9,17.94 37.81,42.37 46.2,72.95 19.63,71.51 22.43,169.65 -102.35,288.83 -124.79,119.18 -532.79,511.76 -583.27,553.82 -50.48,42.06 -215.92,134.76 -349.12,147.22 -133.2,12.46 -357.53,-16.83 -494.94,-86.93 -30.59,-15.61 -57.98,-34.21 -80.69,-54.59 26,0.03 52.03,-5.04 70.66,-12.1 12.06,-4.57 26.06,-8.12 38.51,-11.53 23.86,-6.52 47.87,-12.63 71.87,-18.61 65.68,-16.36 131.71,-31.7 197.82,-46.23 61.68,-13.56 123.73,-26.57 185.91,-37.6 79.09,-14.03 157.74,-37.95 232.56,-67.07 30.6,-11.91 62.47,-25.09 92.25,-39.72 15.9,7.37 39.47,17.37 51.64,17.37 5.48,0 10.76,-1.71 15.11,-5.09 25.9,-20.15 -5.96,-65.65 -21.47,-82.13 -5.49,-5.84 -11.53,-10.86 -18.51,-14.84 -14.25,-8.11 -30.55,-10.58 -46.6,-12.46l-0.96 -0.11zm-292.52 -199.6l97.58 0c10.57,0 19.21,8.64 19.21,19.21l0 5.05c0,10.57 -8.64,19.21 -19.21,19.21l-97.58 0c-10.57,0 -19.21,-8.64 -19.21,-19.21l0 -5.05c0,-10.57 8.64,-19.21 19.21,-19.21zm379.4 148.47l-3.58 -38.93c-0.96,-10.49 6.88,-19.33 17.43,-19.64l5.04 -0.15c10.55,-0.31 19.97,8.02 20.94,18.51l3.58 38.93c0.96,10.49 -6.88,19.33 -17.43,19.64l-5.04 0.15c-10.55,0.31 -19.97,-8.02 -20.94,-18.51zm400.59 -397.8l91.12 9.21c0,0 19.63,-0 44.17,11.92 24.54,11.92 52.58,40.66 58.89,33.65 6.31,-7.01 18.93,-110.06 8.41,-148.62 -10.52,-38.56 -26.2,-74.23 -35.71,-79.53 -9.51,-5.3 -2.15,-22.82 -7.05,-28.43 -4.91,-5.61 -23.84,7.01 -41.36,16.83 -17.53,9.81 -55.38,11.22 -93.94,28.04 -21.08,9.2 -54.94,25.52 -81.3,38.43 26.09,10.06 47.54,29.58 53.69,59.11 4.05,19.42 4.68,39.43 3.09,59.39zm-997.57 631.43c-4.3,-15.29 -8.93,-30.49 -13.83,-45.34 -3.85,-11.66 -7.96,-23.3 -12.59,-34.68 -2.98,-7.34 -6.28,-14.94 -10.1,-22.01 -8.4,-1.25 -16.81,-2.41 -25.23,-3.5 -57.53,-7.41 -115.56,-10.96 -173.56,-10.6 13.93,3.78 27.81,7.67 41.62,11.66 20.38,5.89 40.79,12.06 60.82,19.03 25.07,8.72 50.6,24.54 72.43,39.51 20.83,14.28 40.97,29.82 60.45,45.93zm-432.45 92.85c0,0 -59.01,-113.57 98.03,-200.5l9.27 -5.13 -0.25 1.02 12.87 3.13c37.28,9.05 74.64,18.97 111.48,29.61 19.92,5.76 39.88,11.79 59.47,18.6 22.67,7.88 46.41,22.81 66.16,36.34 21.6,14.8 42.43,31.03 62.53,47.81 6.87,5.74 13.77,11.58 20.51,17.55 -139.25,30.77 -275.52,65.05 -302.78,75.39 -40.66,15.42 -121.98,19.63 -137.28,-23.84zm159.82 -234.72c45.86,-25.38 94.87,-52.39 141.48,-77.53l2.41 2.57c19.33,20.59 38.32,42.31 56.09,64.22 5.51,6.79 11.15,13.86 16.57,21.1 -0.77,-0.1 -1.53,-0.2 -2.3,-0.3 -70.99,-9.14 -142.72,-12.53 -214.25,-10.06zm177.15 -96.64c91.66,-48.77 167.38,-86.04 180.28,-82.25 23.84,7.01 77.11,63.09 130.39,92.54 53.28,29.44 134.6,46.27 218.73,57.49 84.13,11.22 105.16,5.61 127.59,29.44 22.43,23.84 32.25,53.28 21.03,53.28 -11.22,0 -51.88,-19.63 -51.88,-19.63 0,0 -97.02,49.38 -223.89,85.21l-153.94 -209.38 -248.31 -6.7zm368.98 224.96c-23.02,5.78 -46.79,10.99 -70.93,15.27 -49.26,8.74 -107.29,20.52 -166.11,33.26l-0.06 -0.26c-7.06,-29.52 -15.58,-59.57 -25.08,-88.36 -4.52,-13.7 -9.76,-28.94 -15.97,-43.24 43,7.48 85.65,17.14 127.62,29 40.79,11.52 81.32,25.14 120.51,41.32 9.87,4.07 20.1,8.38 30.01,13.02zm-293.68 -112.77c50.7,8.03 100.99,19 150.36,32.94 41.39,11.69 82.52,25.51 122.32,41.87l-113.34 -154.16 -227.4 -6.14c12.41,13.92 24.55,28.18 36.18,42.52 11.01,13.58 22.37,28.07 31.89,42.97zm719.21 -398.71c-3.08,-7.42 -5.4,-16.87 -5.4,-28.48 0,-34.35 2.12,-130.39 15.44,-153.53 13.32,-23.13 33.65,-55.38 67.3,-47.67 33.65,7.71 79.92,17.53 117.78,16.83 37.86,-0.7 73.61,17.53 80.62,51.18 7.01,33.65 3.51,73.61 -11.22,124.79 -4.16,14.46 -9.89,28.75 -17.1,41.62l-58.33 41.85c-4.63,-3.86 -9.86,-7.16 -15.47,-9.82 -13.95,-6.62 -30.57,-11.74 -45.4,-16 -21.27,-6.11 -43.08,-11.15 -64.9,-14.86 -20.05,-3.41 -42.13,-6.11 -63.32,-5.89zm-98.62 51.44c0,0 -23.13,18.93 -20.33,37.16 2.8,18.23 -4.91,35.75 37.15,47.67 27.82,7.88 73.72,18.52 112.38,24.01l141.38 -101.42c-2.12,-1.39 -4.44,-2.7 -6.99,-3.91 -28.04,-13.32 -125.49,-40.66 -183.67,-33.65 -58.19,7.01 -73.61,24.54 -79.92,30.14zm-485.68 146.28l63.5 -32.68 0 2.14c0,21.68 17.67,39.35 39.35,39.35l97.58 0c21.68,0 39.35,-17.67 39.35,-39.35l0 -5.05c0,-21.68 -17.67,-39.35 -39.35,-39.35l-54.84 0 414.61 -213.37c-1.22,24.91 -1.44,48.13 -1.44,62.1 0,10.13 1.45,20.17 4.57,29.77 -0.05,0.01 -0.09,0.01 -0.14,0.02 -22.08,2.66 -45.97,7.56 -66.01,17.58 -10.17,5.08 -16.34,9.93 -24.58,17.24 -15.65,12.9 -30.41,34.37 -27.16,55.54 1.09,7.08 0.62,13.9 2.13,21.23 4.36,21.07 19.89,32.21 38.21,39.1l-258.29 166.48c-8.17,-1.75 -16.31,-3.62 -24.4,-5.63 -31.19,-7.72 -64.68,-18.06 -92.9,-33.66 -11.87,-6.56 -23.24,-14.23 -34.19,-22.21 -18.69,-13.61 -36.34,-28.43 -54.41,-42.83 -6.11,-4.87 -13.67,-10.97 -21.6,-16.43z"/>
 </g>
</svg>
