<svg width="50" height="15" viewBox="0 0 50 15" fill="none" xmlns="http://www.w3.org/2000/svg">
<g style="mix-blend-mode:luminosity">
<path d="M7.905 1.48L4.77 8.275H4.45V0H0V14H3.78C4.77741 13.9959 5.68046 13.4095 6.09 12.5L9.225 5.705H9.545V14H14V0H10.22C9.22259 0.00414258 8.31954 0.59054 7.91 1.5" transform="translate(19.91 0.394531)" fill="#63A554"/>
<path d="M10.925 1.84L9.07 8.275H8.75L6.895 1.84C6.5809 0.750481 5.58389 0.000179935 4.45 0H0V14H4.455V5.73H4.775L7.32 14H10.5L13.045 5.725H13.365V14H17.82V0H13.37C12.2361 0.000179935 11.2391 0.750481 10.925 1.84Z" transform="translate(0.179993 0.394531)" fill="#63A554"/>
<path d="M0 0V7.635H4.445V3.18H9.225C11.2475 3.18119 13.0508 1.90681 13.725 0L0 0Z" transform="translate(35.82 6.75977)" fill="#63A554"/>
<path d="M9.865 0H0C0.614398 3.31674 3.50683 5.7236 6.88 5.725H14.54C14.6032 5.41059 14.635 5.09069 14.635 4.77C14.6322 2.13674 12.4983 0.0027559 9.865 0" transform="translate(35.18 0.394531)" fill="url(#paint0_linear)"/>
</g>
<defs>
<linearGradient id="paint0_linear" x2="1" gradientUnits="userSpaceOnUse" gradientTransform="translate(0 2.865) scale(14.635 5.725)">
<stop offset="0.01" stop-color="#5EA2DD"/>
<stop offset="0.36" stop-color="#5899D5"/>
<stop offset="0.94" stop-color="#4980BF"/>
<stop offset="1" stop-color="#477DBD"/>
</linearGradient>
</defs>
</svg>
