<?xml version="1.0" encoding="UTF-8"?>
<!DOCTYPE svg PUBLIC "-//W3C//DTD SVG 1.1//EN" "http://www.w3.org/Graphics/SVG/1.1/DTD/svg11.dtd">
<!-- Creator: CorelDRAW 2018 (64-Bit) -->
<svg xmlns="http://www.w3.org/2000/svg" xml:space="preserve" width="126.966mm" height="169.6mm" version="1.1" style="shape-rendering:geometricPrecision; text-rendering:geometricPrecision; image-rendering:optimizeQuality; fill-rule:evenodd; clip-rule:evenodd"
viewBox="0 0 194.75 260.14"
 xmlns:xlink="http://www.w3.org/1999/xlink">
 <defs>
  <style type="text/css">
   <![CDATA[
    .fil0 {fill:white}
   ]]>
  </style>
 </defs>
 <g id="Слой_x0020_1">
  <metadata id="CorelCorpID_0Corel-Layer"/>
  <path class="fil0" d="M185.08 163.6l-48.76 0 -23.87 -55.69 14.24 -10.68c1.18,-0.88 1.87,-2.27 1.87,-3.74l0 -74.79 4.67 0 0 9.35c0.02,12.9 10.47,23.36 23.37,23.37l13 0 10.89 48.22 -17.85 5.03c-1.63,0.46 -2.87,1.44 -3.7,2.92 -0.83,1.48 -1.01,3.05 -0.54,4.68l11.68 40.77c0.46,1.6 1.41,2.81 2.85,3.64l12.13 6.93zm-96.43 39.13l0 -2.02c0,-1.86 1.52,-3.37 3.37,-3.37l11.63 0c1.86,0 3.37,1.52 3.37,3.37l0 2.02c0,1.86 -1.52,3.37 -3.37,3.37l-11.63 0c-1.86,0 -3.37,-1.52 -3.37,-3.37zm0 -24.85l0 -2.02c0,-1.86 1.52,-3.37 3.37,-3.37l11.63 0c1.86,0 3.37,1.52 3.37,3.37l0 2.02c0,1.86 -1.52,3.37 -3.37,3.37l-11.63 0c-1.86,0 -3.37,-1.52 -3.37,-3.37zm0 12.42l0 -2.02c0,-1.86 1.52,-3.37 3.37,-3.37l11.63 0c1.86,0 3.37,1.52 3.37,3.37l0 2.02c0,1.86 -1.52,3.37 -3.37,3.37l-11.63 0c-1.86,0 -3.37,-1.52 -3.37,-3.37zm-81.01 44.44l1.93 0.57c1.78,0.53 2.8,2.42 2.28,4.19l-3.31 11.15c-0.53,1.78 -2.42,2.8 -4.19,2.28l-1.93 -0.57c-1.78,-0.53 -2.8,-2.42 -2.28,-4.19l3.31 -11.15c0.53,-1.78 2.42,-2.8 4.19,-2.28zm23.82 7.07l1.93 0.57c1.78,0.53 2.8,2.42 2.28,4.19l-3.31 11.15c-0.53,1.78 -2.42,2.8 -4.19,2.28l-1.93 -0.57c-1.78,-0.53 -2.8,-2.42 -2.28,-4.19l3.31 -11.15c0.53,-1.78 2.42,-2.8 4.19,-2.28zm-11.91 -3.53l1.93 0.57c1.78,0.53 2.8,2.42 2.28,4.19l-3.31 11.15c-0.53,1.78 -2.42,2.8 -4.19,2.28l-1.93 -0.57c-1.78,-0.53 -2.8,-2.42 -2.28,-4.19l3.31 -11.15c0.53,-1.78 2.42,-2.8 4.19,-2.28zm123.04 -238.28l18.7 0 0 9.35 -18.7 0 0 -9.35zm0 18.7l19.63 0 5.28 23.37 -10.89 0c-7.74,0 -14.02,-6.28 -14.02,-14.02l0 -9.35zm-23.37 -18.7l14.02 0 0 9.35 -14.02 0 0 -9.35zm-42.07 0l14.02 0 0 9.35 -14.02 0 0 -9.35zm-28.05 0l18.7 0 0 9.35 -18.7 0 0 -9.35zm-0.97 18.7l19.67 0 0 9.35c0,7.74 -6.28,14.02 -14.02,14.02l-11.14 0 5.5 -23.37zm52.39 83.2c-28.07,76.87 -25.31,48.22 -35.85,72.82 -8.95,20.88 3.2,4.76 -22.63,63.63 -0.59,1.23 -1.78,2.13 -3.59,1.49l-35.92 -10.78c7.92,-54 12.83,-53.09 17.47,-66.89 1.66,0.41 3.37,0.09 4.85,-0.91l17.86 -12.16c1.37,-0.94 2.23,-2.22 2.56,-3.85l8.44 -41.56c0.34,-1.66 0.03,-3.21 -0.91,-4.62 -0.94,-1.41 -2.25,-2.29 -3.91,-2.62l-18.74 -3.72c2.05,-10.42 5.21,-23.53 10.29,-41.31l13.34 0c12.9,-0.01 23.36,-10.47 23.37,-23.37l0 -9.35 23.37 0 0 83.2zm-79.12 54.28c0,0 -1.3,-23.53 0.65,-35.29 1.95,-11.76 3.9,-22.74 3.9,-22.74l21.75 4.31 -8.44 41.56 -17.86 12.16zm173.35 5.87c0,0 -0.55,-23.56 -3.42,-35.13 -2.87,-11.57 -5.67,-22.37 -5.67,-22.37l-21.35 6.01 11.68 40.77 18.76 10.71zm-94.23 -152.71l0 -9.35 9.35 0 0 9.35 -9.35 0zm9.35 9.35l9.35 0 0 72.45 -9.35 7.01 0 -79.46zm84.14 156.84l-43.47 39.1 -40.67 -8.14 0 -33.56 84.14 0 0 2.59z"/>
 </g>
</svg>
