<?xml version="1.0" encoding="UTF-8"?>
<svg width="25px" height="24px" viewBox="0 0 25 24" version="1.1" xmlns="http://www.w3.org/2000/svg" xmlns:xlink="http://www.w3.org/1999/xlink">
    <!-- Generator: Sketch 49.2 (51160) - http://www.bohemiancoding.com/sketch -->
    <title>15</title>
    <desc>Created with Sketch.</desc>
    <defs></defs>
    <g id="Symbols" stroke="none" stroke-width="1" fill="none" fill-rule="evenodd">
        <g id="hover" transform="translate(-30.000000, -14.000000)" fill="#FFFFFF" fill-rule="nonzero">
            <g id="15" transform="translate(42.500000, 26.000000) scale(-1, 1) translate(-42.500000, -26.000000) translate(30.000000, 14.000000)">
                <path d="M24.4871762,19.7508682 L19.8164616,15.1373372 L19.5234065,15.4268315 L14.5405952,10.5045642 L12.7822645,12.2415302 L14.2479772,13.6894337 L13.6614298,14.2688542 C12.9596617,13.575613 11.8769656,13.4863606 11.0744522,13.9969704 C10.0684566,12.7308826 9.73226656,10.4431432 9.96314522,9.45714466 L12.1961057,11.6625895 L13.9544364,9.92562355 L11.6095583,7.60923705 L10.1440398,9.05651676 L9.55773531,8.47772004 L11.0234481,7.02981653 L5.74758166,1.81800689 L5.74758166,1.81843876 L4.19151876,0.281666777 C3.81224239,-0.0938169168 3.15025746,-0.0938169168 2.77015531,0.281234911 L2.4327509,0.614539669 C2.04147642,1.00105994 2.04147642,1.630433 2.4327509,2.01820088 L2.71832541,2.30035349 C1.99294964,3.04354728 0.326620683,5.06717646 0.406624292,7.91379872 C0.435235176,8.90473977 0.715029217,9.914491 1.24022595,10.9148371 C1.38862366,11.1978055 1.58263362,11.4991521 1.78820452,11.8181573 C2.82115943,13.4224924 3.45948817,14.6574379 2.29057084,15.83221 C2.21761066,15.8248203 2.14712782,15.8105207 2.07251607,15.8105207 C0.929732284,15.8105207 0,16.7289562 0,17.8579025 C0,18.8467802 0.713377655,19.6739 1.65802257,19.8639212 L1.65802257,20.7242467 L0.829035574,20.7242467 C0.599808476,20.7242467 0.414542075,20.9076938 0.414542075,21.1337038 C0.414542075,21.3601457 0.599808476,21.543161 0.829035574,21.543161 L1.65807115,21.543161 L1.65807115,22.7715805 C1.65807115,22.9975905 1.47236757,23.1810377 1.24357765,23.1810377 C1.01478773,23.1810377 0.829084149,22.9975905 0.829084149,22.7715805 C0.829084149,22.5455705 0.643817748,22.3621233 0.41459065,22.3621233 C0.185363552,22.3621233 0,22.5455225 0,22.7715805 C0,23.4492746 0.557936521,24 1.24352907,24 C1.92912163,24 2.48705815,23.4492746 2.48705815,22.7715805 L2.48705815,21.543161 L3.31609372,21.543161 C3.54532082,21.543161 3.73058722,21.3601457 3.73058722,21.1337038 C3.73058722,20.9076938 3.54532082,20.7242467 3.31609372,20.7242467 L2.48705815,20.7242467 L2.48705815,19.8639212 C3.43170306,19.673948 4.14508072,18.8467802 4.14508072,17.8579025 C4.14508072,17.117156 3.74054517,16.4730515 3.14238825,16.1135468 C4.46300641,14.4547487 3.2891344,12.623204 2.48788393,11.3788054 C2.2922224,11.0753954 2.10778178,10.7883483 1.97594827,10.5377699 C1.50918769,9.64841342 1.26009327,8.75780928 1.23561129,7.89095779 C1.16512845,5.38459814 2.67023581,3.54523188 3.30691298,2.88188536 L4.03107436,3.59724777 C3.74715142,4.07959436 3.70110198,4.72168348 3.9129391,5.45504032 C4.15333853,6.28667072 4.7009285,7.15433796 5.45447797,7.89877937 C6.20802745,8.64322078 7.08680418,9.18410924 7.92827505,9.42158768 C8.24124606,9.51002428 8.5379929,9.55345083 8.81409521,9.55345083 C8.91566628,9.55345083 9.0117969,9.5415985 9.1075875,9.52969819 C8.87214276,10.9910855 9.44499192,13.3025775 10.4816871,14.569913 C9.9357973,15.3659384 10.0174525,16.4596156 10.7308301,17.1639415 L11.8711366,18.2908244 L11.1863698,19.257581 C10.9293576,19.1474551 10.6512151,19.086418 10.3627261,19.086418 C9.80891847,19.086418 9.2883364,19.2997599 8.89745052,19.6862802 C8.50573886,20.0728005 8.29021001,20.5867213 8.29021001,21.1337518 C8.29021001,21.6807824 8.50573886,22.1950871 8.89745052,22.5812235 C9.2883364,22.9681756 9.80896705,23.1810857 10.3627261,23.1810857 C10.9165337,23.1810857 11.4371158,22.9681756 11.8280017,22.5812235 C12.2193247,22.1950391 12.4352907,21.6807344 12.4352907,21.1336559 C12.4352907,20.6054355 12.2301084,20.1111886 11.8637045,19.7291789 L12.466379,18.8786903 L13.075271,19.480184 C13.4789808,19.8794204 14.0100066,20.0788466 14.5405466,20.0788466 C15.0715238,20.0788466 15.6021124,19.8794204 16.0062593,19.480184 C16.8141161,18.6821432 16.8141161,17.3828497 16.0062593,16.5848089 L16.5928067,16.0053883 L17.7650272,17.1637975 L17.4719721,17.4532918 L22.1422495,22.0672547 C22.3623445,22.2842914 22.6545738,22.4042543 22.9654561,22.4042543 C23.2763383,22.4042543 23.5685677,22.2842914 23.7886626,22.0672547 L24.4871276,21.3768925 C24.9410643,20.9285194 24.9410643,20.1992413 24.4871762,19.7508682 Z M3.01929831,1.43964409 C2.95046703,1.37164915 2.95046703,1.2610914 3.01886113,1.19352833 L3.35670272,0.860223568 C3.40148919,0.815597391 3.4537077,0.809023428 3.48066702,0.809023428 C3.50801495,0.809023428 3.56023345,0.815597391 3.60501993,0.860223568 L5.16152001,2.39699555 L4.8684649,2.68692175 L4.57540978,2.97641608 L3.01929831,1.43964409 Z M8.15628776,8.6341036 C7.44791337,8.43429349 6.69640406,7.96749408 6.04063678,7.31969474 C5.38486949,6.6718954 4.91232844,5.92951735 4.71006067,5.2297501 C4.59688009,4.83828736 4.59109962,4.49759289 4.66780011,4.22614097 L9.17267848,8.67589866 C8.89745052,8.7516192 8.5521769,8.74586098 8.15628776,8.6341036 Z M11.24194,22.0021868 C10.7723135,22.4661071 9.95323585,22.4661071 9.48360932,22.0021868 C9.24860176,21.7704186 9.11924559,21.4621141 9.11924559,21.1337038 C9.11924559,20.8057254 9.24855318,20.4973729 9.48360932,20.2652209 C9.71822828,20.0334526 10.0303249,19.9052843 10.3627747,19.9052843 C10.4763438,19.9052843 10.5857841,19.925774 10.6923099,19.9544211 L10.0232815,20.8990565 C9.89188518,21.0841352 9.93706026,21.339656 10.1252412,21.4694558 C10.1973756,21.5194084 10.2802451,21.543161 10.3623375,21.543161 C10.492908,21.543161 10.621827,21.4825558 10.7022192,21.368735 L11.3728992,20.4224202 C11.5225598,20.6291881 11.6062552,20.8744881 11.6062552,21.1336559 C11.6062552,21.4620661 11.4765104,21.7704186 11.24194,22.0021868 Z M15.4201977,18.9012433 C14.9356585,19.3798951 14.1468433,19.3807588 13.6614298,18.9012433 L12.9493151,18.1977812 L13.6038195,17.2740194 C13.7352158,17.0885088 13.6896035,16.833036 13.5018598,16.7036201 C13.3140675,16.5742041 13.0558409,16.6184464 12.9248817,16.8043409 L12.3541213,17.6097714 L11.3170375,16.5848568 C10.8320612,16.1057732 10.8320612,15.3269745 11.3170375,14.8478909 C11.5595257,14.6083491 11.8774514,14.4887701 12.1962028,14.4887701 C12.5145657,14.4887701 12.83288,14.6083491 13.0753682,14.8478909 L15.4202463,17.1638935 C15.905174,17.6429291 15.905174,18.4221597 15.4201977,18.9012433 Z M15.4201977,16.0058202 L14.8336503,15.4268315 L14.2475401,14.8478429 L14.8340875,14.2684224 L15.1308829,14.5616115 L16.0063079,15.4268315 L15.4201977,16.0058202 Z M23.901066,20.7979039 L23.2017752,21.488266 C23.0757707,21.6135552 22.8560644,21.6135552 22.7287969,21.488266 L18.6442411,17.4533398 L19.8164616,16.2953625 L23.9010174,20.3299048 C24.0311993,20.4592727 24.0311993,20.6689198 23.901066,20.7979039 Z" id="Shape"></path>
            </g>
        </g>
    </g>
</svg>