<?xml version="1.0" encoding="UTF-8"?>
<!DOCTYPE svg PUBLIC "-//W3C//DTD SVG 1.1//EN" "http://www.w3.org/Graphics/SVG/1.1/DTD/svg11.dtd">
<!-- Creator: CorelDRAW 2018 (64-Bit) -->
<svg xmlns="http://www.w3.org/2000/svg" xml:space="preserve" width="195.503mm" height="170mm" version="1.1" style="shape-rendering:geometricPrecision; text-rendering:geometricPrecision; image-rendering:optimizeQuality; fill-rule:evenodd; clip-rule:evenodd"
viewBox="0 0 548.36 476.83"
 xmlns:xlink="http://www.w3.org/1999/xlink">
 <defs>
  <style type="text/css">
   <![CDATA[
    .fil0 {fill:white}
   ]]>
  </style>
 </defs>
 <g id="Слой_x0020_1">
  <metadata id="CorelCorpID_0Corel-Layer"/>
  <path class="fil0" d="M518.7 322.8l-51.93 10.39 -37.86 -180.67c-1.26,-5.96 -6.49,-9.94 -12.9,-9.42 -6.08,0.64 -10.68,5.77 -10.68,11.87l0 59.03 -31.11 -44.94c-2,-2.89 -4.96,-4.5 -8.44,-4.59 -3.48,-0.09 -6.51,1.37 -8.65,4.16l-38.01 49.59 -36.68 -49.46c-2.1,-2.82 -5.1,-4.33 -8.58,-4.3 -3.48,0.03 -6.46,1.59 -8.51,4.44l-34.79 48.52 -33.49 -48.37c-2.04,-2.95 -5.09,-4.57 -8.64,-4.59 -3.55,-0.02 -6.61,1.56 -8.69,4.49l-36.67 51.69 0 -65.68c0,-6.1 -4.6,-11.23 -10.68,-11.87 -0.43,-0.02 -0.83,-0.05 -1.24,-0.05 -5.58,0 -10.49,3.91 -11.66,9.46l-37.86 180.68 -51.94 -10.39 28.69 -204.98c6.7,-53.57 52.48,-93.98 106.48,-93.98l4.01 0c9.42,27.87 51.55,47.68 105.33,47.68 53.79,0 95.91,-19.81 105.33,-47.68l4.01 0c54,0 99.78,40.41 106.48,93.98 0,0.05 0.02,0.12 0.02,0.17l28.66 204.81zm-113.37 -76.22l0 28.29 -31.11 -44.94c-2,-2.89 -4.96,-4.5 -8.44,-4.59 -3.48,-0.09 -6.51,1.37 -8.65,4.16l-38.01 49.59 -36.68 -49.46c-2.1,-2.82 -5.1,-4.33 -8.58,-4.3 -3.48,0.03 -6.46,1.59 -8.51,4.44l-34.79 48.52 -33.49 -48.37c-2.04,-2.95 -5.09,-4.57 -8.64,-4.59 -3.55,-0.02 -6.61,1.56 -8.69,4.49l-36.67 51.69 0 -34.93c4,0.86 8.31,-0.67 10.85,-4.25l34.34 -48.41 33.44 48.31c2.04,2.94 5.07,4.56 8.61,4.59 3.54,0.03 6.6,-1.54 8.68,-4.44l35.08 -48.93 36.4 49.07c2.06,2.78 4.99,4.28 8.41,4.3 3.42,0.03 6.37,-1.42 8.47,-4.17l37.71 -49.21 33.77 48.78c1.6,2.31 3.94,3.79 6.48,4.34zm0 60.87l0 97.86 -262.25 0 0 -97.85c4,0.86 8.31,-0.67 10.85,-4.25l34.34 -48.41 33.44 48.31c2.04,2.94 5.07,4.56 8.61,4.59 3.54,0.03 6.6,-1.54 8.68,-4.44l35.08 -48.93 36.4 49.07c2.06,2.78 4.99,4.28 8.41,4.3 3.42,0.03 6.37,-1.42 8.47,-4.17l37.71 -49.21 33.77 48.78c1.6,2.31 3.94,3.79 6.48,4.34zm66.33 49.06l50.35 -10.07 2.41 17.24c0.86,6.39 -3.46,12.23 -9.85,13.28l-26.06 4.34c-6.56,1.1 -12.35,-3.08 -13.66,-9.54l-3.2 -15.25zm76.39 3.95l-34.38 -245.68c-8.25,-65.44 -64.16,-114.77 -130.13,-114.77l-13.97 -0c-6.58,0 -11.92,5.34 -11.92,11.92 0,16.88 -35.69,35.76 -83.44,35.76 -47.75,0 -83.44,-18.88 -83.44,-35.76 0,-6.58 -5.34,-11.92 -11.92,-11.92l-13.97 0c-65.99,0 -121.93,49.37 -130.1,114.7l-34.45 245.88c-2.53,19.19 10.47,36.74 29.59,39.91l26.06 4.34c19.19,3.17 37.14,-9.23 40.91,-28.16l22.36 -106.67 0 147.13 -0 0.09 0 0.09 0 23.75c0,19.72 16.04,35.76 35.76,35.76l238.41 0c19.72,0 35.76,-16.04 35.76,-35.76l0 -23.84 0 -147.24 22.32 106.55c3.79,19.05 21.72,31.45 40.93,28.28l26.06 -4.34c19.12,-3.17 32.09,-20.69 29.56,-40.01zm-142.71 68.69l0 11.92c0,6.58 -5.36,11.92 -11.92,11.92l-238.41 -0c-6.56,0 -11.92,-5.34 -11.92,-11.92l0 -11.92 262.25 -0zm-328.58 -72.64l-3.22 15.37c-1.26,6.34 -7.18,10.51 -13.64,9.42l-26.06 -4.34c-6.39,-1.05 -10.71,-6.89 -9.87,-13.18l2.43 -17.34 50.36 10.07z"/>
 </g>
</svg>
