<?xml version="1.0" encoding="UTF-8"?>
<!DOCTYPE svg PUBLIC "-//W3C//DTD SVG 1.1//EN" "http://www.w3.org/Graphics/SVG/1.1/DTD/svg11.dtd">
<!-- Creator: CorelDRAW 2018 (64-Bit) -->
<svg xmlns="http://www.w3.org/2000/svg" xml:space="preserve" width="167.203mm" height="170mm" version="1.1" style="shape-rendering:geometricPrecision; text-rendering:geometricPrecision; image-rendering:optimizeQuality; fill-rule:evenodd; clip-rule:evenodd"
viewBox="0 0 1229.49 1250.06"
 xmlns:xlink="http://www.w3.org/1999/xlink">
 <defs>
  <style type="text/css">
   <![CDATA[
    .fil0 {fill:#FEFEFE}
   ]]>
  </style>
 </defs>
 <g id="Слой_x0020_1">
  <metadata id="CorelCorpID_0Corel-Layer"/>
  <path class="fil0" d="M534.73 1099c0,0 87.91,-127.79 108.41,-195.55 20.5,-67.75 33.49,-59.31 16.69,-78.7 -16.8,-19.39 -7.24,-62.29 -0.81,-113.33 6.43,-51.04 33.67,-78.32 90.25,-101.97 56.57,-23.65 113.03,-50.23 133.03,-36.06 20,14.17 16.25,40.56 -0.18,48.65 -16.44,8.09 -94.9,62.78 -93.72,129.48 1.18,66.7 12.84,75.76 -15.3,109.19 -28.14,33.43 -31.78,62.75 -22.01,93.61 9.77,30.85 -15.52,44.03 -37.7,67.73 -22.18,23.7 -19.67,24.28 -24.02,70.38 -4.35,46.1 -42.15,21.97 -58.91,63.33 -16.75,41.37 -32.19,105.53 -54.85,92.59 -22.67,-12.94 -77.43,-90.5 -40.87,-149.37zm-381.68 -359.06c0,0 123.63,-93.67 190.37,-117.25 66.74,-23.58 57.72,-36.17 77.85,-20.28 20.13,15.9 62.55,4.38 113.25,-4.39 50.69,-8.76 76.7,-37.23 97.73,-94.82 21.03,-57.59 45,-115.21 29.93,-134.54 -15.07,-19.33 -41.26,-14.38 -48.6,2.41 -7.33,16.79 -58.37,97.68 -125.06,99.55 -66.69,1.88 -76.27,-9.36 -108.37,20.29 -32.1,29.64 -61.23,34.62 -92.5,26.27 -31.27,-8.35 -43.28,17.52 -65.93,40.76 -22.66,23.24 -23.35,20.76 -69.2,27.22 -45.85,6.46 -20.01,43.12 -60.57,61.75 -40.55,18.63 -103.95,36.99 -89.98,59.04 8.01,12.65 37.76,34.88 72.45,44.12 -3.34,3.05 -6.32,6.61 -8.8,10.66 -14.23,23.21 -6.95,53.56 16.26,67.79 23.21,14.23 53.56,6.95 67.8,-16.26 13.17,-21.48 7.91,-49.08 -11.35,-64.36 5.03,-2.08 9.95,-4.71 14.71,-7.98zm-30.9 22.93c13.06,8 17.15,25.08 9.15,38.13 -8,13.06 -25.08,17.15 -38.13,9.15 -13.06,-8 -17.15,-25.08 -9.15,-38.13 8,-13.06 25.08,-17.15 38.13,-9.15zm704.99 -349.04c13.06,8 17.15,25.08 9.15,38.13 -8,13.06 -25.08,17.15 -38.13,9.15 -13.06,-8 -17.15,-25.08 -9.15,-38.13 8,-13.06 25.08,-17.15 38.13,-9.15zm-175.38 115.52l26.23 -2.98 48.34 -34.74c0,0 12.34,-12.31 26.26,3.87 13.92,16.17 1.09,52.45 92.88,-6.83 91.79,-59.28 353.93,-223.21 378.81,-251.89 24.88,-28.68 -46.04,-76.63 -70.51,-82.21 -24.46,-5.58 44.02,48.95 15.24,70.43 -28.78,21.48 -278.95,153.66 -278.95,153.66 0,0 -18.02,-49.83 -61.67,-21.23 -43.64,28.6 -114.21,84.32 -137.48,86.31 -2.24,0.19 -5.07,0.72 -8.35,1.56 -7.28,22.69 -16.14,45.18 -24.27,67.43 -2.09,5.72 -4.26,11.27 -6.54,16.63zm70.49 61.82l1.78 -26.34 22.99 -35.3c0.84,1.04 1.77,2.07 2.82,3.1 12.29,12.16 28.71,12.02 44.24,7.27 5.15,-1.58 10.47,-3.66 15.82,-6.08 -2.37,5.79 -3.78,10.66 -3.92,14.32 -0.09,2.25 -0.49,5.1 -1.18,8.41 -22.34,8.31 -44.39,18.19 -66.24,27.33 -5.62,2.35 -11.06,4.77 -16.31,7.29zm44.37 -217.09c62.61,-108.43 196.05,-343.85 221.68,-368.22 27.51,-26.16 78.66,42.48 85.35,66.67 6.69,24.18 -50.92,-41.73 -71.05,-12 -17,25.1 -105.59,211.43 -132.78,268.88 -17.44,-5.58 -36.24,-1.16 -53.25,9.99 -16.92,11.09 -33.42,22.99 -49.95,34.69z"/>
 </g>
</svg>
