<?xml version="1.0" encoding="UTF-8"?>
<!DOCTYPE svg PUBLIC "-//W3C//DTD SVG 1.1//EN" "http://www.w3.org/Graphics/SVG/1.1/DTD/svg11.dtd">
<!-- Creator: CorelDRAW 2018 (64-Bit) -->
<svg xmlns="http://www.w3.org/2000/svg" xml:space="preserve" width="170.907mm" height="164.36mm" version="1.1" style="shape-rendering:geometricPrecision; text-rendering:geometricPrecision; image-rendering:optimizeQuality; fill-rule:evenodd; clip-rule:evenodd"
viewBox="0 0 1284.12 1234.93"
 xmlns:xlink="http://www.w3.org/1999/xlink">
 <defs>
  <style type="text/css">
   <![CDATA[
    .fil0 {fill:#FEFEFE}
   ]]>
  </style>
 </defs>
 <g id="Слой_x0020_1">
  <metadata id="CorelCorpID_0Corel-Layer"/>
  <path class="fil0" d="M1119.14 776.4c-4.42,24.09 -16.08,45.37 -41.47,57.13 -0.37,0.17 -0.7,0.3 -1.09,0.43 -23.35,7.94 -47.76,7.93 -68.62,-6.51 -11.97,-8.28 -19.65,-18.92 -26.58,-31.5 -4.06,-7.37 -6.23,-18.02 -8.17,-26.28 -2.86,-12.21 -5.37,-24.5 -7.81,-36.8 -3.91,-19.72 -7.61,-39.48 -11.1,-59.27l-7.9 -44.83 102.78 105.03c3.13,4.28 2.83,10.02 -0.73,13.94 -3.56,3.93 -9.24,4.79 -13.8,2.09l-24.88 -14.7c1.62,7.94 3.31,15.87 5.15,23.76 0.96,4.1 1.94,8.21 3.09,12.26 0.33,1.18 0.7,2.76 1.17,3.9 3.49,6.3 7.37,12.6 13.4,16.78 9.2,6.37 13.23,6.86 23.79,3.27 0.31,-0.11 0.58,-0.19 0.9,-0.27 2.69,-0.66 5.13,-1.8 7.29,-3.54 17.2,-13.84 12.79,-60.91 10.52,-80.11 -2,-16.92 -4.98,-33.69 -8.07,-50.44 -6.39,-34.53 -12.65,-69.1 -18.85,-103.66l-0.03 -0.19c-0.67,-4.13 -10.63,-15.85 -13.4,-19.54 -5.06,-6.76 -9.74,-14.12 -11.63,-22.44 -1.39,-5.93 -2.13,-11.42 -2.33,-16.48l-144.69 42.82c-113.95,12.63 -147.52,29.59 -202.5,111.23 11.55,3 6.18,1.88 21.08,2.19 2.17,0.04 4.69,-0.09 6.93,-0.11 37.12,-0.31 41.71,-10.49 70.56,25.7 -1.94,1.77 -3.96,3.49 -6.04,5.16 13.18,6.52 23.95,18.35 27.11,32.91 7.03,18.27 1.64,32.32 -8.83,47.78 -3.35,4.94 -10.78,14.44 -12.28,20.24 -4.78,34.61 -9.59,69.25 -14.56,103.83 -2.37,16.49 -4.62,33 -5.95,49.61 -1.49,18.6 -4.23,66.11 13.09,78.68 2.32,1.68 4.9,2.64 7.72,3.08 0.33,0.05 0.61,0.11 0.93,0.19 11.01,2.68 15.24,1.56 24.16,-5.5 5.99,-4.74 9.68,-11.35 13.01,-18.08 0.44,-1.16 0.74,-2.8 1.03,-4 0.99,-4.11 1.81,-8.27 2.61,-12.42 1.47,-7.67 2.79,-15.38 4.06,-23.09l-24.14 16.57c-4.4,3.02 -10.18,2.51 -13.99,-1.22 -3.81,-3.73 -4.42,-9.5 -1.49,-13.96l98.96 -112.18 -6.09 45.1c-2.69,19.93 -5.59,39.83 -8.72,59.7 -1.95,12.41 -3.97,24.8 -6.33,37.14 -1.61,8.39 -3.35,19.08 -7.1,26.68 -6.43,13.03 -13.7,24.18 -25.23,33.3 -19.87,15.73 -44.34,18.21 -68.38,12.35 -0.41,-0.1 -0.75,-0.2 -1.14,-0.34 -24.71,-8.93 -38.49,-27.99 -44.42,-52.96 -11.65,21.54 -29.31,38.18 -57.09,41.52 -0.41,0.05 -0.76,0.07 -1.17,0.08 -24.66,0.34 -47.87,-7.22 -63.25,-27.39 -8.82,-11.57 -12.84,-24.06 -15.55,-38.17 -1.59,-8.26 -0.36,-19.06 0.35,-27.52 1.05,-12.5 2.46,-24.96 3.94,-37.41 2.37,-19.96 4.96,-39.9 7.76,-59.8l6.34 -45.07 65.3 131.65c1.65,5.03 -0.41,10.4 -5.01,13.03 -4.6,2.63 -10.27,1.7 -13.77,-2.28l-19.12 -21.67c-0.91,8.05 -1.75,16.12 -2.44,24.19 -0.36,4.2 -0.69,8.4 -0.85,12.62 -0.05,1.22 -0.19,2.84 -0.09,4.07 1.37,7.07 3.12,14.27 7.56,20.1 6.78,8.9 10.47,10.61 21.62,10.46 0.33,-0.01 0.61,0 0.94,0.03 2.76,0.2 5.43,-0.13 8.03,-1.12 20.63,-7.85 30.98,-53.98 34.76,-72.94 3.33,-16.71 5.68,-33.58 7.91,-50.46 4.6,-34.81 9.32,-69.63 14.11,-104.41l0.03 -0.19c0.64,-4.13 -5.22,-18.36 -6.71,-22.73 -2.72,-7.99 -4.9,-16.44 -4.13,-24.94 0.32,-3.84 0.84,-7.42 1.52,-10.77 -23.61,9.08 -47.92,16.7 -68.69,25.11 -56.1,22.74 -82.99,45.01 -133.99,74.14 -156.28,89.25 -402.01,152.34 -458.53,317.21 -13.57,39.58 -23.13,68.94 -28.51,98.77 -57.36,-143.13 117.65,-305.64 159.31,-350.07 -110.3,-226.14 -74.68,-393.57 53.35,-542.09 180.61,-209.5 346.89,-139.3 557.5,-181.4 -51.07,-10.96 -63.99,-75.99 -25.04,-113.91 69.02,-72.33 142.04,10.27 165.44,44.95 38.59,-9.34 91.36,-47.16 130.07,-65.02 50.7,-23.39 183.73,-34.83 227.85,-22.12 24.74,97.61 -64.99,177.3 -126.2,239.94 -102.9,105.32 -214.69,119.27 -162.42,226.76 32.82,-12.55 48.79,-22.26 66.32,-20.56 19.2,-2.55 40.72,5.81 50.78,23.05 12.33,15.2 11.55,30.23 6.37,48.17 -1.66,5.74 -5.79,17.06 -5.43,23.05 6.15,34.4 12.28,68.82 18.24,103.25 2.84,16.41 5.8,32.81 9.67,49.02 4.33,18.15 16.4,64.18 36.77,70.78 2.72,0.88 5.48,1 8.29,0.54 0.33,-0.05 0.61,-0.09 0.94,-0.11 11.3,-0.85 14.98,-3.23 21.28,-12.7 4.23,-6.36 5.7,-13.79 6.78,-21.21 0.06,-1.24 -0.16,-2.89 -0.26,-4.13 -0.33,-4.22 -0.83,-8.42 -1.36,-12.62 -0.98,-7.75 -2.09,-15.49 -3.28,-23.21l-17.84 23.22c-3.25,4.23 -8.9,5.54 -13.68,3.16 -4.78,-2.38 -7.14,-7.67 -5.73,-12.81l59.45 -137.27 8.14 44.78c3.6,19.78 6.99,39.61 10.16,59.47 1.98,12.4 3.89,24.82 5.45,37.28 1.06,8.47 2.71,19.18 1.49,27.57 -2.09,14.38 -5.56,27.23 -13.71,39.47 -14.04,21.1 -36.55,31.02 -61.22,32.87 -0.42,0.03 -0.77,0.04 -1.19,0.02 -26.26,-0.86 -45.26,-14.73 -58.61,-36.65zm-59.6 -289.42l10.93 -3.23c5.2,1.67 10.85,7 13.31,10.36 3.21,4.36 5.91,10.5 4.68,16.02l-9.39 42.24 -23.64 -32.95c-5.04,-7.03 -5.97,-15.01 -2.6,-22.98 1.32,-3.11 3.73,-6.76 6.71,-9.45zm-318.27 296.39l21.99 -37.27c2.88,-4.87 2.2,-11.54 0.5,-16.68 -1.69,-5.12 -7.42,-15 -13.49,-15.69 -5.93,-0.67 -12.98,4.08 -16.66,8.33 -5.67,6.54 -7.25,14.41 -4.63,22.66l12.3 38.64z"/>
 </g>
</svg>
