<svg width="35" height="34" viewBox="0 0 35 34" fill="none" xmlns="http://www.w3.org/2000/svg">
<mask id="mask0" mask-type="alpha" maskUnits="userSpaceOnUse" x="0" y="0" width="35" height="34">
<path fill-rule="evenodd" clip-rule="evenodd" d="M0 0H34.7864V33.9117H0V0Z" fill="white"/>
</mask>
<g mask="url(#mask0)">
<path fill-rule="evenodd" clip-rule="evenodd" d="M23.2191 17.295C23.2192 17.111 23.2234 16.9517 23.0131 16.8328C22.8339 16.7313 22.7115 16.5311 22.5601 16.3782C22.4256 16.2422 22.1203 16.1787 21.974 16.2695C21.9408 16.2902 21.9272 16.405 21.9527 16.4482C22.2029 16.8733 22.531 17.2213 22.9771 17.4491C23.1787 17.552 23.2197 17.5299 23.2191 17.295ZM9.12122 31.8973C9.34022 31.9069 9.39777 31.8889 9.35133 31.6872C9.232 31.1687 8.72211 30.5728 8.23177 30.4723C8.13644 30.4527 7.98422 30.4714 7.93466 30.5335C7.88222 30.5994 7.88322 30.7567 7.92577 30.8416C8.14633 31.2813 8.49622 31.6052 8.91644 31.8515C8.99088 31.895 9.09311 31.8915 9.12122 31.8973ZM29.884 6.15598C29.874 6.11754 29.8733 6.01632 29.8257 5.94743C29.5838 5.59721 29.3429 5.24132 28.9567 5.02832C28.8318 4.95954 28.6995 4.88754 28.5624 4.86321C28.4735 4.84754 28.3347 4.88843 28.2838 4.95454C28.2442 5.00598 28.295 5.1391 28.3257 5.22898C28.3532 5.30932 28.4124 5.37798 28.4503 5.45532C28.686 5.93721 29.0913 6.22276 29.5742 6.40732C29.8118 6.4981 29.8837 6.43954 29.884 6.15598ZM9.16267 32.2382C9.12256 32.2302 9.00234 32.2328 8.91012 32.1834C8.28345 31.847 7.7699 31.4019 7.55367 30.6909C7.4969 30.5045 7.41178 30.4723 7.27845 30.6065C6.92312 30.9641 6.57356 31.3272 6.22034 31.6866C5.53856 32.3806 4.85701 33.0746 4.1729 33.766C3.98067 33.9604 3.78656 33.9589 3.6009 33.7694C3.52534 33.6922 3.45256 33.6114 3.38723 33.5256C3.30801 33.4217 3.3249 33.3335 3.42945 33.2437C5.05323 31.8489 6.50223 30.2752 8.01356 28.765C9.29134 27.4885 10.585 26.2278 11.8671 24.9553C12.7906 24.0388 13.7057 23.114 14.6259 22.1944C15.8179 21.0028 17.0147 19.816 18.2029 18.621C19.2546 17.5634 20.2893 16.4889 21.3458 15.4363C24.0888 12.703 26.8396 9.97783 29.5875 7.24938C29.6662 7.17116 29.7499 7.09749 29.8243 7.01516C29.8727 6.96161 29.9083 6.89661 29.9498 6.83672C29.881 6.82083 29.8129 6.79761 29.7432 6.79049C29.2591 6.74105 28.9229 6.43161 28.6108 6.11016C28.3287 5.81972 28.0466 5.52261 27.9642 5.08727C27.9241 4.87505 27.7207 4.8646 27.5511 5.03316C25.6856 6.88927 23.8188 8.74416 21.9543 10.6015C20.8437 11.708 19.7356 12.8172 18.6303 13.9292C18.5549 14.005 18.4586 14.1194 18.4662 14.2077C18.4909 14.4944 18.2875 14.6466 18.1323 14.8058C17.3781 15.5799 16.6075 16.3383 15.8389 17.0984C15.7771 17.1594 15.6778 17.2425 15.6126 17.2297C15.2645 17.1621 15.124 17.4599 14.9455 17.6278C14.2762 18.257 13.641 18.9225 12.9953 19.5767C12.9326 19.6403 12.8446 19.7165 12.8385 19.7925C12.7991 20.2858 12.3913 20.5227 12.1059 20.8278C11.4913 21.4849 10.8357 22.1036 10.1951 22.7365C10.131 22.7997 10.055 22.9009 9.98523 22.9003C9.45812 22.8959 9.23634 23.3474 8.94012 23.6359C7.26256 25.2704 5.61423 26.9352 3.96201 28.5955C3.13578 29.4258 2.32212 30.2685 1.50356 31.1063C1.11123 31.5077 1.12567 31.4808 0.644673 31.2465C0.307118 31.0819 0.225673 30.7507 0.0283399 30.4967C-0.0422157 30.4059 0.0301176 30.3122 0.123229 30.2213C0.562118 29.7928 0.980562 29.3435 1.4129 28.9082C2.46578 27.8477 3.52123 26.7897 4.5779 25.7329C5.52167 24.7894 6.46934 23.8498 7.41301 22.9062C7.70534 22.6137 7.99145 22.315 8.27767 22.0164C8.39034 21.8988 8.59356 21.8431 8.50478 21.5899C8.4789 21.5159 8.6109 21.3648 8.69812 21.2763C9.44367 20.5194 10.1901 19.7632 10.9497 19.0203C11.1237 18.8502 11.2865 18.6368 11.5888 18.649C11.6797 18.6527 11.7908 18.5585 11.866 18.4827C12.6027 17.7413 13.3339 16.9942 14.0661 16.2482C14.1145 16.1989 14.2056 16.1345 14.1968 16.095C14.1136 15.7262 14.4192 15.5685 14.606 15.3725C15.2781 14.668 15.9677 13.9796 16.6691 13.3044C16.8134 13.1655 16.9566 12.9822 17.2187 12.9909C17.324 12.9944 17.4519 12.8877 17.5387 12.8005C19.3559 10.9736 21.1667 9.14038 22.9833 7.31316C23.5678 6.72538 24.1655 6.15083 24.757 5.57027C24.7822 5.54549 27.0842 3.26994 27.2008 3.15205C27.9858 2.35805 28.7697 1.56316 29.5567 0.771161C29.7603 0.566383 29.9676 0.364272 30.1842 0.173494C30.4517 -0.0621725 30.6452 -0.0542836 30.931 0.17605C30.9879 0.221939 31.0607 0.249494 31.1129 0.299272C31.5926 0.756827 31.6052 1.00716 31.1478 1.46416C30.3315 2.27994 29.5067 3.08738 28.6859 3.89872C28.6355 3.94861 28.5852 3.99949 28.5408 4.05472C28.3046 4.34872 28.3433 4.44138 28.7017 4.56894C29.1506 4.72861 29.5252 5.00527 29.7961 5.39927C30.0093 5.70949 30.2677 6.00216 30.2335 6.42861C30.2235 6.55238 30.2906 6.49016 30.3503 6.43161C30.5072 6.27772 30.6882 6.14827 30.8441 5.99361C31.6721 5.17249 32.4922 4.34338 33.3243 3.52638C33.4255 3.42705 33.4884 3.20583 33.7153 3.31816C33.9116 3.41538 33.9501 3.48805 33.9751 3.80827C33.9776 3.83894 34.0173 3.88861 34.0443 3.89194C34.3839 3.93416 34.5093 4.23349 34.6958 4.44738C34.8463 4.62016 34.7983 4.81594 34.6321 4.98894C34.4738 5.15361 34.3238 5.15849 34.1518 5.00472C33.9884 4.85861 33.8001 4.73938 33.6445 4.58638C33.573 4.51616 33.5535 4.39327 33.5103 4.29416C33.4151 4.37383 33.3134 4.44705 33.2258 4.53427C32.5582 5.19783 31.8907 5.86149 31.2282 6.53016C28.4881 9.29683 25.7498 12.0652 23.011 14.833C22.7295 15.1175 22.4462 15.4004 22.1735 15.693C22.1446 15.724 22.157 15.8406 22.1918 15.8741C22.2557 15.9352 22.3499 15.9653 22.4326 16.0058C22.8767 16.2239 23.2016 16.5633 23.438 16.9926C23.6047 17.2954 23.5995 17.4625 23.4189 17.6447C23.226 17.8394 23.132 17.8174 22.7871 17.6453C22.2522 17.3785 21.9111 16.9429 21.6775 16.4202C21.6009 16.2489 21.5722 16.2725 21.4723 16.3739C20.4635 17.3988 19.457 18.4261 18.4422 19.4449C17.896 19.9934 17.3253 20.5177 16.7825 21.0694C15.6807 22.1889 14.6006 23.3299 13.4923 24.4432C12.3247 25.6163 11.131 26.7634 9.9559 27.9291C9.30401 28.5756 8.6689 29.2392 8.0199 29.8886C7.95112 29.9574 7.91112 29.9646 8.02923 30.0139C8.17401 30.0742 8.2999 30.1848 8.44723 30.2323C8.93178 30.3882 9.22956 30.7354 9.46056 31.1628C9.5449 31.3187 9.64601 31.4657 9.72945 31.6222C9.85401 31.8559 9.54312 32.2379 9.16267 32.2382Z" fill="white"/>
</g>
</svg>
