<?xml version="1.0" encoding="UTF-8"?>
<!DOCTYPE svg PUBLIC "-//W3C//DTD SVG 1.1//EN" "http://www.w3.org/Graphics/SVG/1.1/DTD/svg11.dtd">
<!-- Creator: CorelDRAW 2018 (64-Bit) -->
<svg xmlns="http://www.w3.org/2000/svg" xml:space="preserve" width="166.564mm" height="167.735mm" version="1.1" style="shape-rendering:geometricPrecision; text-rendering:geometricPrecision; image-rendering:optimizeQuality; fill-rule:evenodd; clip-rule:evenodd"
viewBox="0 0 712.98 718"
 xmlns:xlink="http://www.w3.org/1999/xlink">
 <defs>
  <style type="text/css">
   <![CDATA[
    .fil0 {fill:#FEFEFE}
   ]]>
  </style>
 </defs>
 <g id="Слой_x0020_1">
  <metadata id="CorelCorpID_0Corel-Layer"/>
  <path class="fil0" d="M103.29 718l5.58 0c11.62,-8.59 28.27,-26.39 39.16,-37.41l57.39 -57.38c18.03,-17.56 40.27,-41.24 57.4,-57.36 6.53,-6.14 12.99,-12.68 19.19,-19.07l57.36 -57.41c18.43,-19.26 39.26,-38.39 57.34,-57.42 3.39,-3.57 6.36,-6.25 9.87,-9.76 14.24,-14.21 5.84,-9.28 24.4,-5.75 16.71,3.18 33.95,1.6 49.48,-3.08 18.72,-5.64 34.1,-17.65 44.59,-28.83 8.31,-8.86 70.68,-69.47 73.13,-73.9 -3.04,-4.56 -91.75,-92.49 -95.36,-96.14l-71.96 -71.75c-5.1,-5.16 -19.48,-20.75 -24.17,-23.38l-74.14 73.7c-11.79,12.41 -22.84,24.38 -28.87,45.65 -10.44,36.89 0.84,48.72 0.95,64.04 -4.15,2.55 -9.3,8.8 -13.2,12.55l-38.76 38.78c-17.47,17.2 -33.82,33.99 -51.16,51.18 -33.44,33.15 -69.53,70.63 -102.87,102.88l-77.52 77.56c-11.36,11.77 -23.47,19.03 -20.73,29.74 1.46,5.7 43.53,45.78 50.61,52.97 10.71,10.88 41.12,43.09 52.29,49.56zm470.03 -444.56c-1.81,-11.22 -15.74,-33.05 -22,-41.23 -19.15,-25.04 -38.27,-44.15 -62.91,-63.21 -9.15,-7.08 -28.51,-18.73 -41.59,-22.56 1.42,3.29 84.56,85.75 94.23,95 5.7,5.46 10.24,10.57 15.98,16.07 5.32,5.1 10.91,11.7 16.29,15.93zm44.21 -28.14c-0.73,-5.21 -1.12,-10.08 2.04,-14.71 2.6,-3.81 5.89,-5.12 9.85,-6.89 10.51,-4.69 20.82,-9.79 31.38,-14.44 7.86,-3.46 15.99,-6.94 24.15,-9.61 8.14,-2.67 19.46,-5.71 25.27,3.1 2.32,3.52 3.3,7.68 2.48,11.84 -2.16,10.9 -13.15,14.09 -21.85,17.87 -8.52,3.7 -16.89,7.94 -25.38,11.76 -9.89,4.46 -29.63,13.86 -40.36,10.22l-6.6 -2.24 -0.97 -6.9zm-95.66 -240.42c2.95,4.27 4.7,8.94 4.27,14.19 -0.53,6.52 -4.19,11.18 -6.89,16.83 -3.13,6.56 -6.33,13.09 -9.63,19.57 -3.24,6.36 -6.16,12.87 -9.37,19.24 -3.11,6.18 -4.06,12.25 -10.05,16.81 -4.9,3.73 -10.74,4.26 -16.61,3.08l-6.07 -1.22 -2.25 -5.77c-2.62,-6.74 0.79,-15.76 3.27,-22.15 3.18,-8.2 7,-16.31 10.87,-24.21 3.82,-7.81 7.82,-15.55 11.95,-23.2 2.23,-4.12 5.04,-9.73 7.8,-13.46l3.39 -4.58 15.91 0 3.38 4.88zm37.46 34.94c1.9,-1.25 4.08,-2.16 6.29,-2.71 4.99,-1.24 10.34,-0.63 14.42,2.72 4.92,4.05 6.03,10.28 4.38,16.18 -1.34,4.79 -4.36,9.49 -7.29,13.45 -4.02,5.44 -8.13,10.8 -12.04,16.32 -3.92,5.53 -7.8,11.07 -11.76,16.56 -3.27,4.54 -11.32,16.41 -15.67,19.36 -2.25,1.53 -4.97,2.53 -7.65,2.96 -4.54,0.74 -9.22,-0.11 -12.85,-3.07 -4.9,-3.99 -6.11,-10.17 -4.53,-16.07 1.3,-4.81 4.33,-9.5 7.29,-13.45 4.09,-5.46 7.89,-11.13 11.91,-16.65 3.93,-5.39 7.78,-10.85 11.71,-16.25 3.23,-4.44 11.51,-16.55 15.8,-19.37zm40.06 55.83c2.14,-2.35 4.01,-4.62 6.41,-6.81 7.77,-7.1 18.7,-10.53 26.92,-1.8 1.93,2.05 3.25,4.55 3.82,7.31 1.52,7.37 -2.58,13.76 -7.46,18.8 -2.36,2.44 -4.82,4.32 -7.25,6.56l-29.72 28.87c-1.53,1.49 -2.93,3.18 -4.43,4.71 -6.76,6.91 -14.91,10.61 -24.63,7.31l-5.5 -1.86 -1.7 -5.55c-1.32,-4.32 -1.28,-8.8 0.26,-13.06 2.81,-7.77 8.03,-10.55 13.35,-15.84l0.15 -0.15 29.78 -28.49zm55.51 42.5c19.97,-11.12 38.16,14.59 12.16,31.14 -8.18,5.21 -16.25,11.02 -24.25,16.54 -5.66,3.9 -11.33,7.81 -17.06,11.6 -3.57,2.36 -8.35,5.7 -12.27,7.33 -7.51,3.12 -16.71,2.35 -21.56,-4.95 -3.4,-5.11 -3.04,-11.42 -0.09,-16.63 2.48,-4.38 6.54,-7.79 10.8,-10.37 5.68,-3.45 11,-7.62 16.5,-11.36l0.18 -0.12 35.25 -22.99 0.35 -0.19zm-327.6 229.16c-11.48,2.73 -21.38,15.03 -31.2,25.05l-42.33 42.46c-20.33,21.31 -0.64,49.21 23.54,44.18 10.31,-2.15 23.4,-17.84 30.66,-25.14 9.72,-9.78 18.8,-18.72 28.45,-28.41 4.78,-4.8 9.3,-9.1 13.87,-14.05 20.47,-22.19 -1.34,-49.23 -22.97,-44.08z"/>
 </g>
</svg>
