<svg width="20" height="20" viewBox="0 0 20 20" fill="none" xmlns="http://www.w3.org/2000/svg">
<mask id="mask0" mask-type="alpha" maskUnits="userSpaceOnUse" x="0" y="0" width="20" height="20">
<path fill-rule="evenodd" clip-rule="evenodd" d="M0 0H19.9956V20H0V0Z" fill="white"/>
</mask>
<g mask="url(#mask0)">
<path fill-rule="evenodd" clip-rule="evenodd" d="M1.19287 8.52764C1.19287 4.4833 4.48334 1.19727 8.52325 1.19727C12.5676 1.19727 15.8536 4.48773 15.8536 8.52764C15.8536 12.5676 12.5676 15.8625 8.52325 15.8625C4.48334 15.8625 1.19287 12.572 1.19287 8.52764ZM19.8226 18.98L14.9623 14.1198C16.266 12.6208 17.0554 10.6652 17.0554 8.52772C17.0554 3.82262 13.2283 0 8.52772 0C3.82262 0 0 3.82705 0 8.52772C0 13.2284 3.82705 17.0554 8.52772 17.0554C10.6652 17.0554 12.6208 16.2661 14.1197 14.9623L18.98 19.8226C19.0953 19.9379 19.2506 20 19.4013 20C19.5521 20 19.7073 19.9424 19.8226 19.8226C20.0532 19.592 20.0532 19.2106 19.8226 18.98Z" fill="black"/>
</g>
</svg>
