<svg width="11" height="20" viewBox="0 0 11 20" fill="none" xmlns="http://www.w3.org/2000/svg">
<mask id="mask0" mask-type="alpha" maskUnits="userSpaceOnUse" x="0" y="0" width="11" height="20">
<path fill-rule="evenodd" clip-rule="evenodd" d="M0 0H10.9934V19.8192H0V0Z" fill="white"/>
</mask>
<g mask="url(#mask0)">
<path fill-rule="evenodd" clip-rule="evenodd" d="M10.5795 0.00412371L7.94263 0C4.98025 0 3.06583 1.91443 3.06583 4.87753V7.12639H0.414615C0.185519 7.12639 0 7.30742 0 7.53072V10.7891C0 11.0124 0.185731 11.1932 0.414615 11.1932H3.06583V19.4151C3.06583 19.6384 3.25135 19.8192 3.48044 19.8192H6.93952C7.16862 19.8192 7.35413 19.6381 7.35413 19.4151V11.1932H10.454C10.6831 11.1932 10.8686 11.0124 10.8686 10.7891L10.8699 7.53072C10.8699 7.42351 10.8261 7.32082 10.7485 7.24495C10.6711 7.16907 10.5653 7.12639 10.4551 7.12639H7.35413V5.22C7.35413 4.30371 7.57815 3.83856 8.80296 3.83856L10.579 3.83794C10.8079 3.83794 10.9934 3.65691 10.9934 3.43381V0.408247C10.9934 0.185361 10.8081 0.00453608 10.5795 0.00412371Z" fill="#D9D9D9"/>
</g>
</svg>
