<svg width="24" height="26" viewBox="0 0 24 26" fill="none" xmlns="http://www.w3.org/2000/svg">
<path fill-rule="evenodd" clip-rule="evenodd" d="M0.761905 6.0319H15.9615L12.0419 10.098C11.7444 10.4007 11.7444 10.9292 12.0415 11.2323C12.1905 11.384 12.3851 11.4783 12.5806 11.4783C12.7756 11.4783 12.9703 11.412 13.1192 11.2602L18.0011 6.29268C18.144 6.14716 18.2244 5.95196 18.2244 5.74629C18.2244 5.54062 18.144 5.34426 18.0011 5.19874L17.7695 4.96319C17.717 4.88557 17.6507 4.81805 17.5741 4.76489L13.1196 0.227306C12.8221 -0.0757687 12.3394 -0.0757687 12.0423 0.227306C11.7448 0.530381 11.7448 0.947545 12.0423 1.25101L15.285 4.47966H0.761905C0.341333 4.47966 0 4.82737 0 5.25578C0 5.6842 0.341333 6.0319 0.761905 6.0319Z" transform="translate(0 7.55029)" fill="white"/>
<mask id="mask0" mask-type="alpha" maskUnits="userSpaceOnUse" x="7" y="0" width="17" height="26">
<path fill-rule="evenodd" clip-rule="evenodd" d="M0 0H16.7619V25.9999H0V0Z" transform="translate(7.04761)" fill="white"/>
</mask>
<g mask="url(#mask0)">
<path fill-rule="evenodd" clip-rule="evenodd" d="M16.7619 23.0046V3.70248C16.7619 1.84212 15.2731 0 13.4297 0H3.52457C1.71733 0 0 1.77576 0 3.70248V8.2971C0 8.72552 0.341333 9.07322 0.761905 9.07322C1.18248 9.07322 1.52381 8.72552 1.52381 8.2971V3.70248C1.52381 2.6357 2.56038 1.55224 3.52457 1.55224H13.4297C14.4381 1.55224 15.2381 2.69197 15.2381 3.70248V23.0046C15.2381 24.038 14.3989 24.4478 13.4297 24.4478H3.52457C2.62362 24.4478 1.52381 24.1036 1.52381 23.0046V18.3867C1.52381 17.9582 1.18248 17.6105 0.761905 17.6105C0.341333 17.6105 0 17.9582 0 18.3867V23.0046C0 24.8253 1.59276 26 3.52457 26H13.4297C15.405 26 16.7619 24.7671 16.7619 23.0046Z" transform="translate(7.04761)" fill="white"/>
</g>
</svg>
