<?xml version="1.0" encoding="UTF-8"?>
<!DOCTYPE svg PUBLIC "-//W3C//DTD SVG 1.1//EN" "http://www.w3.org/Graphics/SVG/1.1/DTD/svg11.dtd">
<!-- Creator: CorelDRAW 2018 (64-Bit) -->
<svg xmlns="http://www.w3.org/2000/svg" xml:space="preserve" width="169.571mm" height="167.641mm" version="1.1" style="shape-rendering:geometricPrecision; text-rendering:geometricPrecision; image-rendering:optimizeQuality; fill-rule:evenodd; clip-rule:evenodd"
viewBox="0 0 2680.92 2650.4"
 xmlns:xlink="http://www.w3.org/1999/xlink">
 <defs>
  <style type="text/css">
   <![CDATA[
    .fil0 {fill:#FEFEFE}
   ]]>
  </style>
 </defs>
 <g id="Слой_x0020_1">
  <metadata id="CorelCorpID_0Corel-Layer"/>
  <path class="fil0" d="M197.63 2255.15c47.36,0 90.82,16.67 124.86,44.44 28.55,-50.82 72.32,-120.02 111.35,-203.4 104.65,-223.57 208.23,-477.78 384.48,-847.04 176.03,-368.81 535.16,-680.27 846.89,-824.42 -5.96,38.6 -9.09,78.15 -9.09,118.45 0,292.07 162.65,545.44 400.76,671.44 -402.74,556.7 -1104.13,1005.17 -1654.42,1165.2 -6.71,1.95 -13.06,3.72 -19.08,5.3 7.69,21.1 11.88,43.88 11.88,67.64 0,109.15 -88.48,197.63 -197.63,197.63 -109.15,0 -197.63,-88.48 -197.63,-197.63 0,-109.15 88.48,-197.63 197.63,-197.63zm1797.31 -1780.57c58.68,0 106.25,47.94 106.25,107.09 0,59.14 -47.57,107.09 -106.25,107.09 -58.68,0 -106.25,-47.94 -106.25,-107.09 0,-59.14 47.57,-107.09 106.25,-107.09zm-224.86 -91.3c212.3,-71.16 440.32,-78.69 547.75,-77.58 -20.33,-31.06 -32.16,-68.18 -32.16,-108.07 0,-109.15 88.48,-197.63 197.63,-197.63 109.15,0 197.63,88.48 197.63,197.63 0,109.15 -88.48,197.63 -197.63,197.63 -37.68,0 -72.89,-10.54 -102.84,-28.84 -7.22,265.42 -108.84,526.65 -269.18,769.54 -213.52,-108.18 -360.31,-332.96 -360.31,-592.77 0,-55.14 6.65,-108.69 19.11,-159.91zm713.22 -288.42c56.76,0 102.77,46.01 102.77,102.77 0,56.76 -46.01,102.77 -102.77,102.77 -56.76,0 -102.77,-46.01 -102.77,-102.77 0,-56.76 46.01,-102.77 102.77,-102.77zm-2285.67 2255.15c56.76,0 102.77,46.01 102.77,102.77 0,56.76 -46.01,102.77 -102.77,102.77 -56.76,0 -102.77,-46.01 -102.77,-102.77 0,-56.76 46.01,-102.77 102.77,-102.77z"/>
 </g>
</svg>
