<?xml version="1.0" encoding="UTF-8"?>
<svg width="20px" height="28px" viewBox="0 0 20 28" version="1.1" xmlns="http://www.w3.org/2000/svg" xmlns:xlink="http://www.w3.org/1999/xlink">
    <!-- Generator: Sketch 49.2 (51160) - http://www.bohemiancoding.com/sketch -->
    <title>5</title>
    <desc>Created with Sketch.</desc>
    <defs>
        <polygon id="path-1" points="0 0.0442875817 13.0269854 0.0442875817 13.0269854 17.0983428 0 17.0983428"></polygon>
        <polygon id="path-3" points="0.0640217755 0.0472322267 8.39656896 0.0472322267 8.39656896 3.40277778 0.0640217755 3.40277778"></polygon>
        <polygon id="path-5" points="0.0651313245 0.0771895653 6.0578022 0.0771895653 6.0578022 12.3656687 0.0651313245 12.3656687"></polygon>
    </defs>
    <g id="Symbols" stroke="none" stroke-width="1" fill="none" fill-rule="evenodd">
        <g id="хедер" transform="translate(-251.000000, -152.000000)">
            <g id="5">
                <g transform="translate(261.000000, 166.000000) rotate(-360.000000) translate(-261.000000, -166.000000) translate(251.000000, 152.000000)">
                    <g id="Group-3">
                        <mask id="mask-2" fill="white">
                            <use xlink:href="#path-1"></use>
                        </mask>
                        <g id="Clip-2"></g>
                        <path d="M7.47770865,14.0561739 C7.24892035,13.8056582 7.03170456,13.5669974 6.81356297,13.3288957 C6.70767461,13.2132559 6.60317495,13.0962741 6.49288904,12.9846604 C6.42067665,12.9117425 6.38931518,12.8331208 6.38781076,12.7303423 C6.38538053,12.5463699 6.37936283,12.36072 6.35077876,12.179208 C6.23621103,11.451147 5.69924711,10.9097425 4.96069027,10.7720707 C3.82137781,10.5598035 2.8536855,11.3512763 2.83204493,12.4198819 C2.82533288,12.7590845 2.84500613,13.1023133 2.89349489,13.4382726 C2.96385568,13.9253242 3.17632675,14.3670816 3.45047924,14.7790903 C3.64177263,15.0662886 3.8797032,15.3182581 4.11531926,15.5719052 C4.57486317,16.066338 5.03116678,16.5635667 5.50135739,17.0730976 C5.45147992,17.0810381 5.41097617,17.0928928 5.37035671,17.0930046 C4.98325664,17.0943467 4.59615657,17.0936757 4.20894078,17.0937875 C4.0473887,17.0937875 3.88548945,17.0875246 3.72440027,17.0962479 C3.32989381,17.1173852 3.00308645,16.9775885 2.72094894,16.7210337 C2.62836896,16.6367084 2.53671477,16.5511528 2.43939006,16.4721956 C2.18074472,16.2620533 1.87708237,16.1478674 1.54830769,16.086916 C1.34972362,16.0501216 1.15356978,16.0008013 0.95417563,15.9691513 C0.684652144,15.9264295 0.451119129,15.6790453 0.43954663,15.4153329 C0.424386658,15.0702029 0.385965963,14.7258558 0.351479918,14.3818442 C0.310166099,13.9709538 0.259478557,13.56107 0.218627638,13.1500678 C0.187266167,12.8334564 0.16759292,12.5157265 0.137735875,12.1987795 C0.106374404,11.8655043 0.0686480599,11.5326764 0.03427774,11.199513 C0.0233995916,11.0938267 0.0156460177,10.9879168 0.0047678693,10.8823423 C-0.0239319265,10.602078 0.0761701838,10.3794099 0.321738598,10.2231731 C0.769825732,9.93809978 1.21930157,9.65492767 1.66750442,9.36985432 C2.10124166,9.09372796 2.5372934,8.82073304 2.96582301,8.53700174 C3.12216746,8.43344038 3.26150034,8.30516296 3.40604084,8.18504967 C3.92738189,7.75168003 4.44756569,7.3168565 4.96844384,6.88281583 C5.43666712,6.4926154 5.90465895,6.10196761 6.37392376,5.71277371 C6.70628591,5.4370947 7.03506059,5.15660668 7.37610211,4.89132854 C7.59227638,4.72323704 7.80810347,4.55648758 7.97891355,4.34477952 C8.07369231,4.22723849 8.17147992,4.10377008 8.22876378,3.96755221 C8.4590565,3.41977298 8.67511504,2.86617821 8.89360381,2.31381365 C8.91582301,2.25778315 8.93144588,2.19493057 8.93005718,2.13565679 C8.92635398,1.97315715 8.8342369,1.86847741 8.65115997,1.81714408 C8.40721171,1.74881147 8.16141184,1.68651808 7.91630633,1.62209978 C7.45953982,1.50187466 7.00242614,1.38254423 6.54577536,1.2614244 C6.35587066,1.2110976 6.19200408,1.10518765 6.07465895,0.96225955 C5.9104452,0.762406245 5.7696079,0.542757734 5.63617699,0.321767175 C5.53376038,0.152221786 5.61141184,0.039377923 5.81624506,0.0444106028 C6.11631995,0.0517918664 6.41616338,0.0674490922 6.71612253,0.0808695715 C6.97569367,0.0923888163 7.23526481,0.106256645 7.49495167,0.117999564 C8.05482914,0.143386638 8.61482233,0.167655338 9.1746998,0.193042411 C9.65241253,0.214627015 10.1301253,0.237218155 10.607838,0.259026434 C11.2253465,0.287209441 11.8429707,0.315392447 12.460595,0.343016267 C12.5528278,0.347154248 12.6454078,0.352634277 12.7376406,0.35084488 C12.9347202,0.346818736 13.1154826,0.507305301 12.979853,0.738137545 C12.9258094,0.829955991 12.8835698,0.92837284 12.836354,1.02388192 C12.6878788,1.32416514 12.4594377,1.51742004 12.1092539,1.58105548 C11.5817794,1.67690007 11.0577767,1.79030312 10.5323853,1.8968841 C10.481582,1.90728497 10.4321675,1.92316587 10.3819428,1.93580349 C10.1392675,1.99675483 9.99426413,2.15176137 9.94091491,2.38304096 C9.89439346,2.58445999 9.86152757,2.78889862 9.82218108,2.99199521 C9.73527161,3.4416931 9.64708918,3.89127916 9.56168414,4.34120073 C9.53136419,4.50045708 9.5068305,4.66060813 9.48102383,4.82053551 C9.43866848,5.08212302 9.36055412,5.3307374 9.20490402,5.55217531 C9.18546222,5.57979913 9.1663676,5.60820581 9.14310688,5.63269818 C8.9556324,5.83042658 8.76781076,6.0279313 8.57906331,6.22442948 C8.102855,6.71998068 7.6257209,7.21452534 7.15020694,7.71052389 C7.0796147,7.78422469 7.01237849,7.86150428 6.94861402,7.94079695 C6.81657182,8.10430312 6.7724806,8.29185432 6.81622464,8.49271416 C6.82802859,8.54639608 6.87512866,8.59929513 6.91945133,8.6384382 C6.98286862,8.6944687 7.05774268,8.73853261 7.129145,8.7858398 C7.37320899,8.9473329 7.48569367,9.17671126 7.48650374,9.45630458 C7.48881824,10.3001172 7.48650374,11.1439298 7.48615657,11.9877425 C7.48592512,12.6351688 7.48615657,13.2825951 7.48557794,13.9300214 C7.48557794,13.967375 7.48106467,14.0047287 7.47770865,14.0561739" id="Fill-1" fill="#4A4A4A" mask="url(#mask-2)"></path>
                    </g>
                    <path d="M10.0063141,9.41989313 C10.1350421,9.41019505 10.2635531,9.39410764 10.3923895,9.39171164 C10.8903835,9.38258403 11.3887027,9.37676518 11.8869136,9.371745 C12.3355636,9.3671812 12.7842136,9.3671812 13.2328637,9.36147644 C13.7684891,9.35474483 14.3043314,9.3439058 14.8399569,9.33523457 C14.8993865,9.33432181 14.9594668,9.33044258 15.0182457,9.33740238 C15.2341659,9.36307377 15.3497717,9.4902898 15.3593151,9.71882227 C15.3670149,9.90080394 15.3649544,10.0833561 15.3676656,10.26568 C15.367991,10.2937474 15.3702684,10.3219289 15.3714613,10.3465735 C15.5164565,10.4550779 15.6616686,10.5536561 15.7963612,10.6662679 C16.3608339,11.1385075 16.707868,11.753366 16.8580687,12.492474 C16.9666253,13.0270095 16.9352837,13.5610886 16.7934335,14.0804494 C16.6424737,14.6331261 16.3500975,15.1042247 15.9395128,15.4875842 C15.8104595,15.6082968 15.6742486,15.7222778 15.5318561,15.8250775 C15.4642929,15.8740243 15.4381569,15.9233134 15.4396752,16.0050055 C15.4435793,16.221672 15.4429286,16.4382245 15.4430371,16.6548911 C15.4431455,16.7550666 15.4160335,16.8440608 15.3484703,16.9194776 C15.2732073,17.0034516 15.1837376,17.0425862 15.0743134,17.0438413 C14.6953955,17.0480628 14.3166945,17.0555931 13.9378851,17.0608414 C13.299017,17.0696268 12.6601489,17.0772711 12.0212808,17.0861706 C11.4963918,17.0934726 10.9713942,17.101117 10.4466136,17.1110433 C10.3647352,17.1125265 10.3022691,17.0899357 10.2510816,17.0183981 C10.192628,16.936706 10.122679,16.8642556 10.0612973,16.7847313 C10.0384147,16.7551807 10.025401,16.7170729 10.0079408,16.6827303 C10.0051212,16.6491864 9.9995903,16.6154142 10.0000241,16.5818702 C10.0045789,16.1302819 10.0136886,15.6788076 10.0143393,15.2272192 C10.0153153,14.4937019 10.0104351,13.7602986 10.0091337,13.0267813 C10.0082662,12.5131252 10.0092422,11.9995832 10.0088084,11.4859271 C10.0083746,10.7972491 10.0072901,10.1085711 10.0063141,9.41989313" id="Fill-4" fill="#4A4A4A"></path>
                    <path d="M11.5384615,23.184912 C10.9701677,23.2354001 10.4279666,23.2836342 9.86829377,23.3333333 C9.83495938,23.1044467 9.79886629,22.8674459 9.76610663,22.6299943 C9.67529916,21.9727482 9.57702019,21.316291 9.49966142,20.6574671 C9.46046478,20.3242235 9.35310506,20.0216334 9.16459336,19.7480062 C9.0688432,19.6091641 8.94688532,19.4868884 8.8320541,19.3612318 C8.49480206,18.9922633 8.153297,18.6272393 7.81719442,18.2571439 C7.4927014,17.899896 7.1734959,17.537802 6.85095696,17.1786382 C6.70669953,17.0181584 6.56037306,16.8594817 6.41427648,16.7006923 C6.05633413,16.3121147 5.69551812,15.9260164 5.34044942,15.5348468 C5.05044025,15.2152394 4.76043107,14.8951813 4.48226136,14.5657694 C4.15386017,14.1766283 3.93914073,13.7294485 3.87672496,13.2264839 C3.84373541,12.9600694 3.83959735,12.6871184 3.85408057,12.4186753 C3.87373636,12.0556798 4.14638866,11.7701068 4.48800866,11.6897542 C4.87043455,11.5997096 5.2555042,11.781151 5.42436012,12.093095 C5.50183383,12.2363323 5.52953586,12.3890361 5.53206467,12.5485017 C5.5343636,12.6890342 5.52562769,12.8309191 5.5418351,12.969874 C5.56976702,13.2093541 5.67609222,13.4196458 5.83931577,13.5988332 C6.17978631,13.9726476 6.52600416,14.3411652 6.86532523,14.7159938 C7.28085562,15.1746687 7.68960418,15.6390911 8.10513456,16.0976532 C8.44836381,16.4765389 8.79894961,16.8490009 9.14321337,17.226985 C9.46391317,17.579049 9.78093469,17.9342684 10.0989907,18.288699 C10.2202589,18.4239348 10.34601,18.5557897 10.4586573,18.6977873 C10.8403935,19.1783253 11.0724698,19.7218606 11.1528172,20.3269282 C11.2392567,20.9792157 11.3259261,21.6315032 11.4145496,22.2834525 C11.447884,22.5284548 11.4871955,22.7726681 11.522484,23.017445 C11.5304153,23.0718774 11.5330591,23.126986 11.5384615,23.184912" id="Fill-6" fill="#4A4A4A"></path>
                    <g id="Group-10" transform="translate(6.923077, 24.111111)">
                        <mask id="mask-4" fill="white">
                            <use xlink:href="#path-3"></use>
                        </mask>
                        <g id="Clip-9"></g>
                        <path d="M8.05302002,2.08383681 C7.73113383,2.415 7.32880506,2.60190972 6.92137619,2.77569444 C6.39907903,2.99833333 5.85313593,3.13772569 5.29896312,3.23652778 C4.61288303,3.35902778 3.9212392,3.41638889 3.22449526,3.40010417 C2.74948999,3.38892361 2.27691886,3.35015625 1.81130242,3.24880208 C1.35171338,3.14878472 0.894674394,3.03138889 0.505443625,2.73704861 C0.385011591,2.64602431 0.267940991,2.53713542 0.181586934,2.41196181 C-0.0102465753,2.13402778 0.0433045311,1.80067708 0.265159115,1.52711806 C0.458383562,1.2884375 0.692177028,1.10128472 0.956223393,0.956180556 C1.597098,0.604114583 2.28085985,0.391076389 2.98919494,0.249861111 C3.50801475,0.1465625 4.03031191,0.0809375 4.55678188,0.0582118056 C5.39308325,0.0221180556 6.22428451,0.0684201389 7.03728767,0.29640625 C7.3614921,0.3871875 7.68233509,0.497899306 7.95484299,0.713246528 C8.06936354,0.803663194 8.17971128,0.907569444 8.26815174,1.02496528 C8.45233509,1.26911458 8.43494837,1.59930556 8.23813066,1.86666667 C8.18156586,1.94335069 8.11491675,2.01164931 8.05302002,2.08383681" id="Fill-8" fill="#4A4A4A" mask="url(#mask-4)"></path>
                    </g>
                    <g id="Group-13" transform="translate(13.846154, 7.000000)">
                        <mask id="mask-6" fill="white">
                            <use xlink:href="#path-5"></use>
                        </mask>
                        <g id="Clip-12"></g>
                        <path d="M0.0691098901,11.0003295 C0.365483516,11.0123172 0.644384615,11.02362 0.940538462,11.0356077 C0.944934066,11.1544579 0.949989011,11.2929452 0.955153846,11.4321174 C3.1646044,11.0641501 5.01921978,9.11870663 5.17801099,6.55937533 C5.34845055,3.81143649 3.48064835,1.45589725 0.952956044,1.00470051 C0.950428571,1.15266381 0.947901099,1.29834373 0.945263736,1.459779 C0.653395604,1.46457411 0.371197802,1.46925505 0.0728461538,1.47416432 C0.0741648352,1.23326728 0.0494395604,1.00253129 0.0821868132,0.780928848 C0.13889011,0.397776962 0.435153846,1.14169215e-05 0.980098901,0.0900909276 C1.29845055,0.142837105 1.6146044,0.224239755 1.92317582,0.321968603 C2.50394505,0.506009378 3.03845055,0.795770846 3.5333956,1.15985647 C3.9379011,1.45726728 4.29921978,1.80399918 4.62383516,2.19571376 C4.9157033,2.54792579 5.16163736,2.93005015 5.37064835,3.33740591 C5.56954945,3.7250104 5.72163736,4.13316534 5.83878022,4.55696147 C5.93471429,4.90426422 5.99416484,5.2588738 6.02779121,5.61428257 C6.0879011,6.25111845 6.06042857,6.88589929 5.92075824,7.51554251 C5.82427473,7.95052722 5.70207692,8.3737525 5.52515385,8.77996656 C5.32097802,9.24885953 5.06163736,9.68281672 4.7522967,10.0846924 C4.44240659,10.4877097 4.09141758,10.8496261 3.69768132,11.1611939 C3.29559341,11.4793835 2.85921978,11.7423152 2.39042857,11.9433672 C1.93240659,12.1398524 1.4600989,12.2822214 0.96867033,12.3559747 C0.396472527,12.4420583 0.0592197802,11.9374304 0.0716373626,11.5315588 C0.0766923077,11.3664701 0.0705384615,11.2010389 0.0691098901,11.0003295" id="Fill-11" fill="#4A4A4A" mask="url(#mask-6)"></path>
                    </g>
                    <path d="M9.99136916,10.1260425 C9.99240237,10.7883819 9.99355037,11.4507212 9.99400957,12.1130606 C9.99446877,12.6070718 9.99343557,13.1009733 9.99435397,13.5949846 C9.99573158,14.3004484 10.0008976,15.0058025 9.99986439,15.7112663 C9.99917559,16.1455836 9.98953235,16.5797912 9.98471074,17.0141085 C9.98425153,17.0463695 9.99010636,17.07885 9.99309117,17.1111111 C9.95382942,17.0846658 9.90767964,17.0639266 9.87656872,17.0305682 C9.6890996,16.8307471 9.50576329,16.6275244 9.31990137,16.4261671 C9.06573319,16.1508507 8.81225381,15.874876 8.55464162,15.6026321 C8.50091501,15.5455718 8.47646252,15.4889503 8.47703652,15.412248 C8.48025093,14.9192243 8.48025093,14.426091 8.48002133,13.9330673 C8.47979173,13.3907742 8.47784012,12.8485909 8.47738092,12.3062978 C8.47669212,11.7585181 8.47772532,11.2108482 8.47565892,10.6630685 C8.47497011,10.488376 8.46670448,10.3135737 8.46153846,10.1267009 C8.66209484,10.124616 8.83796911,10.1230798 9.01395819,10.1208852 C9.27776961,10.1175932 9.54158103,10.1126553 9.80539244,10.1111191 C9.86738468,10.1107899 9.92937692,10.1207754 9.99136916,10.1260425" id="Fill-14" fill="#4A4A4A"></path>
                </g>
            </g>
        </g>
    </g>
</svg>