<svg width="21" height="13" viewBox="0 0 21 13" fill="none" xmlns="http://www.w3.org/2000/svg">
<mask id="mask0" mask-type="alpha" maskUnits="userSpaceOnUse" x="0" y="0" width="21" height="13">
<path fill-rule="evenodd" clip-rule="evenodd" d="M0 0H21V12.0909H0V0Z" fill="white"/>
</mask>
<g mask="url(#mask0)">
<path fill-rule="evenodd" clip-rule="evenodd" d="M20.8886 10.9194C20.8632 10.8641 20.8395 10.8182 20.8175 10.7815C20.4531 10.1193 19.7569 9.30653 18.7291 8.34285L18.7074 8.32078L18.6965 8.31L18.6855 8.29887H18.6745C18.2081 7.85015 17.9127 7.54844 17.789 7.39397C17.5626 7.09972 17.5119 6.80188 17.6356 6.50009C17.723 6.27208 18.0513 5.79055 18.6197 5.05485C18.9187 4.66495 19.1555 4.35245 19.3303 4.11702C20.5914 2.4251 21.1382 1.34394 20.9705 0.873115L20.9053 0.76309C20.8616 0.69685 20.7486 0.636254 20.5666 0.58099C20.3841 0.525842 20.1509 0.516721 19.8666 0.553474L16.7177 0.575425C16.6667 0.557184 16.5939 0.558884 16.499 0.58099C16.4042 0.603095 16.3568 0.614187 16.3568 0.614187L16.3019 0.641819L16.2585 0.675015C16.222 0.696966 16.1819 0.735574 16.1382 0.79076C16.0946 0.845754 16.0582 0.910292 16.029 0.983836C15.6863 1.87389 15.2965 2.70142 14.859 3.46638C14.5893 3.92252 14.3416 4.31783 14.1154 4.65254C13.8895 4.98714 13.7 5.23366 13.547 5.39168C13.3938 5.54986 13.2556 5.67658 13.1314 5.77231C13.0075 5.86807 12.9128 5.90854 12.8473 5.89374C12.7816 5.87893 12.7197 5.86425 12.6612 5.84956C12.5592 5.78332 12.4772 5.69324 12.4154 5.57923C12.3532 5.46523 12.3114 5.32174 12.2896 5.14887C12.2678 4.97589 12.2549 4.82711 12.2513 4.70201C12.2478 4.57706 12.2494 4.40034 12.2568 4.17233C12.2644 3.9442 12.2678 3.78985 12.2678 3.70892C12.2678 3.42936 12.2732 3.12595 12.284 2.79861C12.2951 2.47128 12.304 2.21193 12.3114 2.02086C12.3189 1.8296 12.3223 1.62725 12.3223 1.41393C12.3223 1.2006 12.3095 1.0333 12.284 0.911877C12.2589 0.790606 12.2203 0.67289 12.1695 0.558768C12.1184 0.444762 12.0436 0.356572 11.9454 0.293966C11.847 0.231436 11.7247 0.181815 11.5791 0.144947C11.1927 0.0567178 10.7008 0.00898998 10.1029 0.00156995C8.7472 -0.0131155 7.87608 0.0752293 7.48975 0.266488C7.33668 0.347297 7.19817 0.457709 7.07432 0.597376C6.94308 0.759264 6.92477 0.847609 7.01952 0.862139C7.45693 0.928263 7.7666 1.08644 7.94885 1.33652L8.01452 1.46904C8.06561 1.56465 8.11662 1.73392 8.16767 1.97661C8.21864 2.21931 8.25154 2.48778 8.26601 2.78188C8.3024 3.31894 8.3024 3.77868 8.26601 4.16112C8.22952 4.54371 8.19505 4.84156 8.16216 5.05488C8.12926 5.26821 8.08009 5.44107 8.01452 5.57344C7.94885 5.70584 7.90515 5.78676 7.88324 5.81613C7.86138 5.8455 7.84315 5.86402 7.82867 5.87128C7.73393 5.90792 7.63539 5.92658 7.53341 5.92658C7.43127 5.92658 7.30743 5.87503 7.16167 5.772C7.01595 5.66897 6.86472 5.52745 6.70798 5.3472C6.55123 5.16692 6.37446 4.91499 6.17758 4.59136C5.98085 4.26774 5.77673 3.88526 5.56534 3.44393L5.39044 3.12386C5.2811 2.91795 5.13175 2.61814 4.94222 2.22468C4.75258 1.83107 4.58496 1.45033 4.43924 1.08254C4.38099 0.92807 4.29349 0.81047 4.17688 0.729545L4.12215 0.696348C4.08577 0.666977 4.02737 0.63579 3.94725 0.602554C3.86702 0.569357 3.78331 0.545551 3.69576 0.530904L0.699899 0.552855C0.39376 0.552855 0.186042 0.622843 0.0766687 0.762626L0.0328963 0.828749C0.0110293 0.865579 0 0.924398 0 1.00536C0 1.08629 0.0218671 1.18561 0.0656395 1.30321C0.502981 2.34047 0.978579 3.34082 1.49244 4.30442C2.00629 5.26802 2.45282 6.04426 2.83176 6.63234C3.21078 7.22088 3.59711 7.77634 3.99076 8.29844C4.3844 8.82075 4.64497 9.15546 4.77246 9.30251C4.9001 9.44986 5.00036 9.55997 5.07323 9.63355L5.34663 9.89827C5.52156 10.0748 5.77846 10.2863 6.11741 10.5327C6.45645 10.7792 6.83179 11.0219 7.24362 11.2612C7.65554 11.5 8.13474 11.695 8.68149 11.8457C9.22816 11.9966 9.76025 12.0572 10.2778 12.028H11.5352C11.7902 12.0058 11.9835 11.9249 12.1148 11.7852L12.1583 11.7299C12.1875 11.686 12.2149 11.6178 12.2402 11.526C12.2658 11.434 12.2785 11.3327 12.2785 11.2226C12.271 10.9063 12.2949 10.6213 12.3494 10.3676C12.4039 10.1139 12.466 9.92262 12.5355 9.79381C12.6049 9.66512 12.6833 9.55653 12.7705 9.46849C12.8579 9.38026 12.9201 9.32682 12.9567 9.30842C12.993 9.28991 13.022 9.27735 13.0438 9.26981C13.2188 9.21099 13.4246 9.268 13.6618 9.44098C13.8987 9.61384 14.1209 9.82728 14.3288 10.081C14.5366 10.3349 14.7861 10.6197 15.0777 10.936C15.3694 11.2523 15.6245 11.4875 15.843 11.6422L16.0616 11.7746C16.2076 11.8629 16.3972 11.9438 16.6304 12.0174C16.8633 12.0909 17.0674 12.1093 17.2426 12.0725L20.0415 12.0285C20.3183 12.0285 20.5337 11.9822 20.6866 11.8904C20.8397 11.7985 20.9306 11.6972 20.96 11.587C20.9892 11.4767 20.9908 11.3516 20.9655 11.2117C20.9396 11.0721 20.9141 10.9746 20.8886 10.9194Z" fill="#D9D9D9"/>
</g>
</svg>
