<?xml version="1.0" encoding="UTF-8"?>
<svg width="44px" height="45px" viewBox="0 0 44 45" version="1.1" xmlns="http://www.w3.org/2000/svg" xmlns:xlink="http://www.w3.org/1999/xlink">
    <!-- Generator: Sketch 49.2 (51160) - http://www.bohemiancoding.com/sketch -->
    <title>4</title>
    <desc>Created with Sketch.</desc>
    <defs>
        <polygon id="path-1" points="0.53034995 0.5157 35.9154 0.5157 35.9154 37.2900721 0.53034995 37.2900721"></polygon>
        <polygon id="path-3" points="0 0.773952373 39.7086958 0.773952373 39.7086958 12.5997531 0 12.5997531"></polygon>
    </defs>
    <g id="Page-1" stroke="none" stroke-width="1" fill="none" fill-rule="evenodd">
        <g id="00.1-Главная-Меню" transform="translate(-614.000000, -232.000000)">
            <g id="Выпадающее-меню" transform="translate(0.000000, 190.000000)">
                <g id="4" transform="translate(614.000000, 42.000000)">
                    <g id="Group-3" transform="translate(7.200000, 0.384660)">
                        <mask id="mask-2" fill="white">
                            <use xlink:href="#path-1"></use>
                        </mask>
                        <g id="Clip-2"></g>
                        <path d="M12.6009,33.41574 C14.2587,33.48234 15.6474,32.66154 17.1252,32.17554 C17.2512,32.13414 17.3574,32.01714 17.4582,31.91994 C18.3384,31.06944 19.2177,30.21804 20.088,29.35854 C20.2077,29.23974 20.2779,29.07054 20.3715,28.92564 C20.187,28.85994 20.0052,28.74654 19.818,28.73844 C18.5616,28.68804 17.2971,28.73754 16.0506,28.60884 C13.5999,28.35504 11.2689,27.62154 8.9424,26.81424 C7.3827,26.27244 5.9391,25.54074 4.4793,24.81264 C4.2651,24.70644 4.0365,24.63084 3.8142,24.54174 C3.7692,24.77394 3.6369,25.02954 3.6909,25.23744 C4.0077,26.45964 4.3524,27.64854 4.9698,28.79424 C6.6321,31.88754 9.3942,32.98554 12.6009,33.41574 M26.406,7.78374 C25.2198,7.78374 24.0336,7.75854 22.8492,7.79364 C22.1706,7.81344 21.4947,7.93584 20.817,8.00334 C19.8909,8.09604 19.3617,8.84214 18.6885,9.33354 C18.4185,9.52974 18.3078,10.01484 18.801,10.19934 C19.6659,10.52244 19.7262,11.23164 19.6857,11.96244 C19.656,12.49614 19.5552,13.03704 19.404,13.55094 C19.233,14.13054 19.4958,14.51934 19.8603,14.87304 C20.6433,15.63354 21.4884,16.33374 22.2219,17.13654 C22.6917,17.64864 23.0985,18.26154 23.3784,18.89694 C24.4962,21.43944 25.1325,24.10704 24.399,26.84484 C24.0822,28.03014 23.9445,29.36664 22.9896,30.33684 C22.5891,30.74364 22.9095,30.99114 23.2272,31.28724 C24.1065,32.10984 24.2343,33.54534 23.3964,34.27614 C22.7358,34.85304 21.906,35.24094 21.1347,35.68554 C19.3059,36.74034 17.2512,36.76374 15.2334,36.96444 C14.3487,37.05354 13.4541,37.35684 12.591,37.27674 C10.278,37.06074 7.9443,36.84204 5.6862,36.32814 C4.1715,35.98254 2.6973,35.26344 1.6668,33.93504 C1.1079,33.21594 1.0917,32.16744 1.6902,31.50504 C2.4471,30.66894 2.4588,30.39174 1.8738,29.46924 C1.6506,29.11824 1.4319,28.73934 1.3284,28.34244 C1.0512,27.27864 0.7839,26.20764 0.6111,25.12404 C0.3186,23.29344 0.8667,21.53664 1.5174,19.89954 C2.2527,18.04734 3.3633,16.39224 5.0481,15.13314 C6.4413,14.09184 7.8192,13.16034 9.5634,12.86334 C10.2573,12.74544 10.9323,12.51324 11.6244,12.37734 C12.0339,12.29634 12.231,12.11904 12.3084,11.69154 C12.4452,10.92924 12.4821,10.10394 13.1418,9.54684 C13.3794,9.34614 13.6782,9.06894 13.9455,9.07344 C14.9508,9.08964 15.1668,8.40654 15.3549,7.65954 C15.8247,5.79114 16.317,3.92724 16.7481,2.04984 C16.9209,1.30284 17.3268,0.79164 18.0225,0.60624 C18.7848,0.40284 19.5912,0.52344 20.1078,1.15164 C20.7261,1.90404 20.4021,2.78604 20.1771,3.61674 C19.9827,4.33224 19.7694,5.04234 19.5975,5.76234 C19.5795,5.84244 19.8117,6.08454 19.8801,6.06744 C21.9411,5.53734 24.0363,5.71644 26.1117,5.82804 C27.9882,5.92884 29.7468,5.52294 31.4478,4.86324 C32.319,4.52484 33.0768,3.89934 33.9075,3.44304 C34.2351,3.26304 34.7643,2.98314 34.9533,3.11184 C35.3637,3.39264 35.6481,3.88854 35.9055,4.34124 C35.964,4.44474 35.7552,4.80564 35.5833,4.91994 C33.9777,5.98644 32.2281,6.72714 30.402,7.35624 C29.0808,7.81164 27.7533,7.86024 26.406,7.78374" id="Fill-1" fill="#FFFFFF" mask="url(#mask-2)"></path>
                    </g>
                    <g id="Group-6" transform="translate(0.000000, 31.884660)">
                        <mask id="mask-4" fill="white">
                            <use xlink:href="#path-3"></use>
                        </mask>
                        <g id="Clip-5"></g>
                        <path d="M20.15685,8.16651 C21.87405,8.04141 24.01965,8.06121 26.09595,7.69131 C28.99575,7.17381 31.89915,6.46191 34.38945,4.78161 C35.56665,3.98781 36.52695,2.89881 36.14625,1.23561 C36.05085,0.82251 36.28125,0.65871 36.62505,0.85941 C37.76985,1.52991 38.81745,2.32641 39.32235,3.61341 C39.52305,4.12641 39.81465,4.76541 39.66975,5.22081 C39.30885,6.35211 38.94885,7.50321 37.83105,8.26461 C36.31905,9.29241 34.76295,10.14831 32.98545,10.62801 C31.75785,10.96011 30.58785,11.51541 29.35485,11.81961 C28.27935,12.08511 27.15525,12.16971 26.04825,12.27861 C20.94345,12.78171 15.84315,12.72321 10.77885,11.89251 C9.39015,11.66481 8.05095,11.10321 6.70725,10.64241 C5.66865,10.28781 4.65255,9.86931 3.63915,9.44721 C2.57805,9.00441 1.76895,8.23221 0.94905,7.43571 C-0.60435,5.92371 -0.10125,2.95011 1.37925,2.03031 C1.91655,1.69551 2.40435,1.28241 2.93895,0.94131 C3.22605,0.75861 3.41055,0.84861 3.36195,1.23921 C3.10995,3.31281 4.47435,4.28301 6.00165,5.19381 C7.95825,6.36111 10.09035,6.91191 12.29805,7.38711 C13.52475,7.65081 14.73435,7.89291 15.98085,7.96311 C17.23815,8.03511 18.49455,8.08641 20.15685,8.16651" id="Fill-4" fill="#FFFFFF" mask="url(#mask-4)"></path>
                    </g>
                </g>
            </g>
        </g>
    </g>
</svg>