<?xml version="1.0" encoding="UTF-8"?>
<!DOCTYPE svg PUBLIC "-//W3C//DTD SVG 1.1//EN" "http://www.w3.org/Graphics/SVG/1.1/DTD/svg11.dtd">
<!-- Creator: CorelDRAW 2018 (64-Bit) -->
<svg xmlns="http://www.w3.org/2000/svg" xml:space="preserve" width="169.951mm" height="169.783mm" version="1.1" style="shape-rendering:geometricPrecision; text-rendering:geometricPrecision; image-rendering:optimizeQuality; fill-rule:evenodd; clip-rule:evenodd"
viewBox="0 0 335.52 335.18"
 xmlns:xlink="http://www.w3.org/1999/xlink">
 <defs>
  <style type="text/css">
   <![CDATA[
    .fil0 {fill:#FEFEFE}
   ]]>
  </style>
 </defs>
 <g id="Слой_x0020_1">
  <metadata id="CorelCorpID_0Corel-Layer"/>
  <path class="fil0" d="M196.37 116.19l47.75 -85.77c11.48,-20.63 46.97,-46.98 77.41,-16.7 30.43,30.27 4.86,64.41 -16.7,77.41l-77.3 46.6c-16.4,9.61 -44.27,8.15 -52.83,8.04 -12.71,-0.16 5.63,-21 13.89,-21 7.7,0 24.88,-1.1 31.37,-5.21l74.44 -47.18c6.24,-3.47 12.27,-9.48 15.9,-15.62 6.23,-10.52 4.93,-19.05 -3.89,-27.82 -6.09,-6.06 -12.55,-9.07 -21.03,-6.58 -8.72,2.57 -18.12,10.65 -22.49,18.5l-45.07 71.34c-6.78,2.24 -14.23,3.99 -21.43,3.98zm-181.19 219l-15.18 -15.18 78.23 -78.23c2.1,1.18 4.56,1.73 7.09,1.77 7.11,0.09 14.22,0.13 21.34,0.16l-91.48 91.48zm84.14 -121.22c12.33,0 24.63,0.02 36.96,0.17 12.71,0.16 -5.63,21 -13.89,21 -10.43,0 -24.34,-0.02 -36.96,-0.17 -12.71,-0.16 5.63,-21 13.89,-21zm30.07 -30.01c12.33,0 24.63,0.02 36.96,0.17 12.71,0.16 -5.63,21 -13.89,21 -10.43,0 -24.34,-0.02 -36.96,-0.17 -12.71,-0.16 5.63,-21 13.89,-21zm29.59 -29.59c12.33,0 24.63,0.02 36.96,0.17 12.71,0.16 -5.63,21 -13.89,21 -10.43,0 -24.34,-0.02 -36.96,-0.17 -12.71,-0.16 5.63,-21 13.89,-21z"/>
 </g>
</svg>
