<?xml version="1.0" encoding="UTF-8"?>
<!DOCTYPE svg PUBLIC "-//W3C//DTD SVG 1.1//EN" "http://www.w3.org/Graphics/SVG/1.1/DTD/svg11.dtd">
<!-- Creator: CorelDRAW 2018 (64-Bit) -->
<svg xmlns="http://www.w3.org/2000/svg" xml:space="preserve" width="176.456mm" height="170mm" version="1.1" style="shape-rendering:geometricPrecision; text-rendering:geometricPrecision; image-rendering:optimizeQuality; fill-rule:evenodd; clip-rule:evenodd"
viewBox="0 0 2901.94 2795.77"
 xmlns:xlink="http://www.w3.org/1999/xlink">
 <defs>
  <style type="text/css">
   <![CDATA[
    .fil0 {fill:#FEFEFE}
   ]]>
  </style>
 </defs>
 <g id="Слой_x0020_1">
  <metadata id="CorelCorpID_0Corel-Layer"/>
  <path class="fil0" d="M2088.34 1036.06c11.24,-2.27 22.37,-3.79 32.68,-4.59 72.66,-5.61 143.04,17.65 204.28,55.71 165.29,102.75 330.43,205.76 495.53,308.8 23.28,12.95 46.5,33.57 60.53,55.75 4.37,6.91 8.09,14.22 11,21.87 28.06,73.68 0.83,500.8 -168.38,570.4 -549.46,225.98 -1098.91,451.97 -1648.36,677.95 -67.98,27.96 -141.76,66.67 -215.61,72.89 -95.49,8.05 -177.43,-37.85 -251.82,-92.59 -148.05,-108.94 -176.39,-128.69 -323.63,-238.72 -123.05,-122.37 -130.55,-542.8 -131.95,-583.22 -12.25,-98.8 85.98,-154.31 164.53,-183.25l19.75 -7.28c-276.03,92.59 -328.11,15.56 -336.88,-144.59 8.06,-189.99 21.76,-463.09 31.29,-652.74 4.45,-227.81 137.19,-247.31 246.58,-304.05 561.21,-186.98 1082.81,-363.14 1644.03,-550.12 320.52,-93.6 324.33,4.07 366.77,83.5 4.4,8.24 7.98,16.76 10.78,25.39 8.99,27.7 10.44,60.34 5.46,86.73 -26.01,196.36 -52.07,392.73 -78.46,588.97 -9.78,72.7 -38.1,139.46 -92.07,184.09 -12.81,10.59 -28.87,21.09 -46.03,29.09zm-136.85 121.75l612.36 461.05c-121.31,48.35 -242.63,96.69 -363.94,145.04l-325.34 -258.71 -16.63 -312.27c-91.03,34.15 -341.94,128.51 -468.18,175.85l627.99 472.82c-121.31,48.35 -242.63,96.69 -363.94,145.04l-325.34 -258.71 -17.55 -329.57c-112.32,42.11 -369.67,139.89 -486.04,183.49l643.7 484.65c-121.31,48.35 -242.63,96.69 -363.94,145.04l-325.34 -258.71 -18.48 -346.97c-454.64,170.34 337.81,-124.11 -420.14,155.12 -205.32,75.64 -86.45,165.69 -86.45,165.69 0,0 252.14,187.3 443.05,327.78 177.05,130.29 239.88,77.91 401.2,11.57 549.45,-225.98 1098.91,-451.96 1648.36,-677.95 163.36,-67.19 39.62,-133.28 39.62,-133.28 0,0 -363.81,-226.93 -497.08,-309.77 -133.28,-82.85 -226.93,-28.82 -226.93,-28.82l-110.94 41.63zm-893.31 -686.01l206.82 85.95 252.14 -79.25 -5.44 -157.81 582.76 -194.15c166.86,-55.59 138.07,82.44 138.07,82.44 0,0 -57.43,432.59 -78.71,590.82 -21.28,158.24 -129.88,177.39 -129.88,177.39 0,0 -1503.39,560.8 -1705.76,637.88 -202.37,77.09 -196.88,-77.3 -196.88,-77.3 0,0 14.75,-324.43 27.04,-568.98 11.39,-226.8 97.7,-226.42 262.47,-281.32l647.36 -215.67z"/>
 </g>
</svg>
