<?xml version="1.0" encoding="UTF-8"?>
<!DOCTYPE svg PUBLIC "-//W3C//DTD SVG 1.1//EN" "http://www.w3.org/Graphics/SVG/1.1/DTD/svg11.dtd">
<!-- Creator: CorelDRAW 2018 (64-Bit) -->
<svg xmlns="http://www.w3.org/2000/svg" xml:space="preserve" width="170mm" height="170mm" version="1.1" style="shape-rendering:geometricPrecision; text-rendering:geometricPrecision; image-rendering:optimizeQuality; fill-rule:evenodd; clip-rule:evenodd"
viewBox="0 0 1271.88 1271.88"
 xmlns:xlink="http://www.w3.org/1999/xlink">
 <defs>
  <style type="text/css">
   <![CDATA[
    .fil0 {fill:#FEFEFE}
   ]]>
  </style>
 </defs>
 <g id="Слой_x0020_1">
  <metadata id="CorelCorpID_0Corel-Layer"/>
  <path class="fil0" d="M1180.22 479.51c1.57,-3.16 3.11,-6.31 4.6,-9.46 102.72,-216.88 132.36,-462.72 -9.99,-469.78 -63.65,-3.16 -147.4,21.87 -243.13,77.13 3.29,201.79 109.48,368.26 248.51,402.11zm-923.51 523.01c69.37,51.82 68.52,170.23 -1.88,264.47 -1.23,1.65 -2.48,3.28 -3.74,4.89 -2.64,-62.08 -29.25,-119.49 -78.73,-156.45 -49.47,-36.96 -112.07,-46.2 -172.35,-31.13 1.19,-1.67 2.4,-3.33 3.63,-4.98 70.41,-94.24 183.71,-128.62 253.08,-76.8zm148.84 -13c10.95,-7.51 22.86,-14.87 35.38,-22 -4.43,-6.96 -7,-15.22 -7,-24.08 0,-24.79 20.1,-44.89 44.89,-44.89 19.43,0 35.97,12.34 42.22,29.61 19.05,-8.14 37.96,-15.45 55.78,-21.7 6.77,-4.67 14.88,-7.52 23.64,-7.87 9.17,-2.88 17.88,-5.4 25.97,-7.52 7.22,-1.89 15.19,-3.14 23.62,-3.89 -18.93,-5.27 -32.82,-22.64 -32.82,-43.25 0,-24.79 20.1,-44.89 44.89,-44.89 24.79,0 44.89,20.1 44.89,44.89 0,19.65 -12.62,36.34 -30.2,42.43 58.59,1.06 124.95,18.16 124.95,18.16 0,0 25.12,-19.5 63.07,-52.63 -0.46,-2.58 -0.7,-5.24 -0.7,-7.95 0,-24.79 20.1,-44.89 44.89,-44.89 4.26,0 8.39,0.59 12.29,1.7 7.55,-7.09 15.28,-14.46 23.16,-22.09 -10.21,-8.23 -16.75,-20.84 -16.75,-34.97 0,-24.79 20.1,-44.89 44.89,-44.89 13.89,0 26.31,6.31 34.54,16.22 7.95,-8.48 15.91,-17.15 23.84,-25.98 -24.11,-0.78 -43.42,-20.56 -43.42,-44.86 0,-24.79 20.1,-44.89 44.89,-44.89 21.9,0 40.13,15.68 44.09,36.43 13.67,-16.86 26.94,-34.1 39.53,-51.61 -6.03,3.01 -12.83,4.71 -20.03,4.71 -24.79,0 -44.89,-20.1 -44.89,-44.89 0,-24.79 20.1,-44.89 44.89,-44.89 6.55,0 12.77,1.4 18.39,3.93 -16.65,-8.1 -32.71,-17.86 -48.06,-29.14 -8.23,9.49 -20.37,15.48 -33.92,15.48 -24.79,0 -44.89,-20.1 -44.89,-44.89 0,-12.72 5.29,-24.21 13.8,-32.37 -6.42,-7.73 -12.62,-15.8 -18.6,-24.15 -3.26,0.76 -6.67,1.16 -10.16,1.16 -24.79,0 -44.89,-20.1 -44.89,-44.89 0,-11.72 4.49,-22.39 11.85,-30.38 -4.31,-9.17 -8.37,-18.56 -12.2,-28.15 -5.6,2.51 -11.81,3.91 -18.35,3.91 -24.79,0 -44.89,-20.1 -44.89,-44.89 0,-22.11 15.99,-40.49 37.04,-44.21 -3.33,-14.93 -6.11,-30.17 -8.32,-45.69 -4.68,19.8 -22.46,34.53 -43.69,34.53 -18.76,0 -34.83,-11.51 -41.54,-27.85 -32.79,25.35 -66.42,53.78 -100.66,85.36 -1.12,23.77 -20.72,42.7 -44.75,42.75 -8.49,8.39 -17.01,16.98 -25.56,25.76 6.56,7.8 10.51,17.87 10.51,28.86 0,24.79 -20.1,44.89 -44.89,44.89 -9.86,0 -18.97,-3.18 -26.38,-8.57 -6.61,7.39 -13.23,14.91 -19.85,22.53 16.17,6.79 27.53,22.77 27.53,41.41 0,24.79 -20.1,44.89 -44.89,44.89 -15.18,0 -28.59,-7.53 -36.72,-19.06 -6.78,9.42 -13.44,19.06 -19.97,28.9 23.32,1.62 41.73,21.05 41.73,44.78 0,54.81 -35.33,37.11 -63.58,26.67 -38.48,-14.22 -83.96,-37.47 -111.02,-69.15 -27.02,-31.63 -45.44,-69.04 -36.26,-111.3 5.8,-26.69 20.12,-47.72 36.66,-68.76 3.12,-3.71 9.51,-8.65 13.41,-11.8 9.79,-7.91 19.95,-15.48 30.1,-22.92 27.8,-20.38 56.24,-40.04 84.71,-59.48 10.52,-7.18 21.05,-14.35 31.61,-21.48l0 0 -22.34 154.02 209.53 -349.13 -109.36 71.31c-48.09,31.36 -95.94,63.28 -143.34,95.66 -29.4,20.08 -58.77,40.4 -87.47,61.47 -15.49,11.37 -42.39,30.33 -54.1,45.23 -22.51,28.64 -40.25,56.87 -48.13,93.14 -13.31,61.28 9.67,116.71 49.3,163.1 36.77,43.04 94.14,73.64 155.46,93.16 0.81,3.38 1.25,6.91 1.25,10.54 0,24.79 -20.1,44.89 -44.89,44.89 -13.02,0 -24.75,-5.55 -32.95,-14.4 -4.48,8.8 -8.9,17.55 -13.26,26.24 18.12,5.77 31.25,22.74 31.25,42.78 0,24.79 -20.1,44.89 -44.89,44.89 -9.69,0 -18.67,-3.07 -26.01,-8.3 -4.46,8.85 -8.86,17.52 -13.2,25.97 12.34,8 20.5,21.89 20.5,37.69 0,24.79 -20.1,44.89 -44.89,44.89 -6.75,0 -13.16,-1.49 -18.9,-4.17 -4.93,8.01 -9.81,15.49 -14.63,22.42 11.25,8.16 18.57,21.4 18.57,36.36 0,5.76 -1.09,11.27 -3.07,16.33 3.35,2.14 6.63,4.4 9.82,6.79 11.16,8.34 21.19,18.08 29.87,28.97 9.44,11.85 17.03,24.48 22.95,37.64 20.94,-11.94 43.95,-26.37 69.15,-43.65zm735.21 -441.44c6.06,-9.33 11.89,-18.71 17.44,-28.12 -14.16,-4.15 -28,-9.48 -41.45,-15.88 14.38,7.48 24.2,22.52 24.2,39.84 0,1.4 -0.07,2.79 -0.19,4.16zm-251.46 -423.81c-0.6,-6.6 -1.1,-13.24 -1.49,-19.93 -3.08,2 -6.18,4.04 -9.28,6.1 4.44,3.84 8.11,8.54 10.77,13.83zm83.32 374.76c24.79,0 44.89,20.1 44.89,44.89 0,24.79 -20.1,44.89 -44.89,44.89 -24.79,0 -44.89,-20.1 -44.89,-44.89 0,-24.79 20.1,-44.89 44.89,-44.89zm-63.59 100.25c24.79,0 44.89,20.1 44.89,44.89 0,24.79 -20.1,44.89 -44.89,44.89 -24.79,0 -44.89,-20.1 -44.89,-44.89 0,-24.79 20.1,-44.89 44.89,-44.89zm0 -199.76c24.79,0 44.89,20.1 44.89,44.89 0,24.79 -20.1,44.89 -44.89,44.89 -24.79,0 -44.89,-20.1 -44.89,-44.89 0,-24.79 20.1,-44.89 44.89,-44.89zm-59.85 299.27c24.79,0 44.89,20.1 44.89,44.89 0,24.79 -20.1,44.89 -44.89,44.89 -24.79,0 -44.89,-20.1 -44.89,-44.89 0,-24.79 20.1,-44.89 44.89,-44.89zm0 -199.76c24.79,0 44.89,20.1 44.89,44.89 0,24.79 -20.1,44.89 -44.89,44.89 -24.79,0 -44.89,-20.1 -44.89,-44.89 0,-24.79 20.1,-44.89 44.89,-44.89zm0 -199.76c24.79,0 44.89,20.1 44.89,44.89 0,24.79 -20.1,44.89 -44.89,44.89 -24.79,0 -44.89,-20.1 -44.89,-44.89 0,-24.79 20.1,-44.89 44.89,-44.89zm-63.59 499.77c24.79,0 44.89,20.1 44.89,44.89 0,24.79 -20.1,44.89 -44.89,44.89 -24.79,0 -44.89,-20.1 -44.89,-44.89 0,-24.79 20.1,-44.89 44.89,-44.89zm0 -199.76c24.79,0 44.89,20.1 44.89,44.89 0,24.79 -20.1,44.89 -44.89,44.89 -24.79,0 -44.89,-20.1 -44.89,-44.89 0,-24.79 20.1,-44.89 44.89,-44.89zm0 -199.76c24.79,0 44.89,20.1 44.89,44.89 0,24.79 -20.1,44.89 -44.89,44.89 -24.79,0 -44.89,-20.1 -44.89,-44.89 0,-24.79 20.1,-44.89 44.89,-44.89zm0 -199.76c24.79,0 44.89,20.1 44.89,44.89 0,24.79 -20.1,44.89 -44.89,44.89 -24.79,0 -44.89,-20.1 -44.89,-44.89 0,-24.79 20.1,-44.89 44.89,-44.89zm-59.85 499.02c24.79,0 44.89,20.1 44.89,44.89 0,24.79 -20.1,44.89 -44.89,44.89 -24.79,0 -44.89,-20.1 -44.89,-44.89 0,-24.79 20.1,-44.89 44.89,-44.89zm0 -199.76c24.79,0 44.89,20.1 44.89,44.89 0,24.79 -20.1,44.89 -44.89,44.89 -24.79,0 -44.89,-20.1 -44.89,-44.89 0,-24.79 20.1,-44.89 44.89,-44.89zm0 -199.76c24.79,0 44.89,20.1 44.89,44.89 0,24.79 -20.1,44.89 -44.89,44.89 -24.79,0 -44.89,-20.1 -44.89,-44.89 0,-24.79 20.1,-44.89 44.89,-44.89zm-63.59 300.01c24.79,0 44.89,20.1 44.89,44.89 0,24.79 -20.1,44.89 -44.89,44.89 -24.79,0 -44.89,-20.1 -44.89,-44.89 0,-24.79 20.1,-44.89 44.89,-44.89zm0 -199.76c24.79,0 44.89,20.1 44.89,44.89 0,24.79 -20.1,44.89 -44.89,44.89 -24.79,0 -44.89,-20.1 -44.89,-44.89 0,-24.79 20.1,-44.89 44.89,-44.89zm-59.85 299.27c24.79,0 44.89,20.1 44.89,44.89 0,24.79 -20.1,44.89 -44.89,44.89 -24.79,0 -44.89,-20.1 -44.89,-44.89 0,-24.79 20.1,-44.89 44.89,-44.89zm0 -199.76c24.79,0 44.89,20.1 44.89,44.89 0,24.79 -20.1,44.89 -44.89,44.89 -24.79,0 -44.89,-20.1 -44.89,-44.89 0,-24.79 20.1,-44.89 44.89,-44.89zm-63.59 300.01c24.79,0 44.89,20.1 44.89,44.89 0,24.79 -20.1,44.89 -44.89,44.89 -24.79,0 -44.89,-20.1 -44.89,-44.89 0,-24.79 20.1,-44.89 44.89,-44.89zm0 -199.76c24.79,0 44.89,20.1 44.89,44.89 0,24.79 -20.1,44.89 -44.89,44.89 -24.79,0 -44.89,-20.1 -44.89,-44.89 0,-24.79 20.1,-44.89 44.89,-44.89zm-59.85 99.51c24.79,0 44.89,20.1 44.89,44.89 0,24.79 -20.1,44.89 -44.89,44.89 -24.79,0 -44.89,-20.1 -44.89,-44.89 0,-24.79 20.1,-44.89 44.89,-44.89zm-63.59 100.25c24.79,0 44.89,20.1 44.89,44.89 0,24.79 -20.1,44.89 -44.89,44.89 -24.79,0 -44.89,-20.1 -44.89,-44.89 0,-24.79 20.1,-44.89 44.89,-44.89zm-59.85 99.51c24.79,0 44.89,20.1 44.89,44.89 0,24.79 -20.1,44.89 -44.89,44.89 -24.79,0 -44.89,-20.1 -44.89,-44.89 0,-24.79 20.1,-44.89 44.89,-44.89zm687.96 -811.32c24.79,0 44.89,20.1 44.89,44.89 0,24.79 -20.1,44.89 -44.89,44.89 -24.79,0 -44.89,-20.1 -44.89,-44.89 0,-24.79 20.1,-44.89 44.89,-44.89z"/>
 </g>
</svg>
