<svg width="19" height="22" viewBox="0 0 19 22" fill="none" xmlns="http://www.w3.org/2000/svg">
<mask id="mask0" mask-type="alpha" maskUnits="userSpaceOnUse" x="0" y="9" width="19" height="14">
<path fill-rule="evenodd" clip-rule="evenodd" d="M0 0H18.8874V12.8438H0V0Z" transform="translate(0 9.15625)" fill="white"/>
</mask>
<g mask="url(#mask0)">
<path fill-rule="evenodd" clip-rule="evenodd" d="M17.4801 7.36504H15.1973V8.45439C15.1973 9.02326 15.3878 9.30733 15.7802 9.30733C16.0615 9.30733 16.2251 9.15832 16.2902 8.86076C16.3008 8.80033 16.3159 8.55285 16.3159 8.10628H17.4803V8.26878C17.4803 8.62772 17.466 8.87496 17.4556 8.98619C17.4176 9.2327 17.3278 9.45659 17.1891 9.65328C16.8733 10.0996 16.4049 10.3196 15.8088 10.3196C15.2116 10.3196 14.7571 10.11 14.4272 9.69035C14.1849 9.38269 14.0608 8.89832 14.0608 8.24519V6.09272C14.0608 5.43574 14.1711 4.95522 14.4136 4.64467C14.7433 4.22409 15.1976 4.01465 15.7804 4.01465C16.3534 4.01465 16.8072 4.22409 17.1269 4.64467C17.3663 4.95522 17.4805 5.43574 17.4805 6.09272V7.36504H17.4801ZM13.1724 8.38979C13.1724 8.95818 13.1332 9.36768 13.0569 9.62816C12.9044 10.0853 12.5992 10.3188 12.1452 10.3188C11.7388 10.3188 11.3472 10.0988 10.9655 9.639V10.2346H9.82422V1.98633H10.9655V4.67998C11.3341 4.23725 11.7255 4.01337 12.1452 4.01337C12.5992 4.01337 12.9047 4.24664 13.0569 4.7067C13.1337 4.95394 13.1724 5.36031 13.1724 5.94218V8.38979ZM8.83627 10.2345H7.69405V9.56403C7.24027 10.0715 6.80944 10.319 6.38971 10.319C6.0218 10.319 5.76863 10.1736 5.65439 9.86231C5.5922 9.67646 5.55371 9.38227 5.55371 8.94846V4.08887H6.69494V8.61359C6.69494 8.87455 6.69494 9.01009 6.70531 9.04668C6.7327 9.21953 6.81931 9.30716 6.9723 9.30716C7.20128 9.30716 7.44063 9.13503 7.6938 8.78572V4.08887H8.83602L8.83627 10.2345ZM5.38734 3.14718H4.02033V10.2341H2.75054V3.14718H1.40845V1.98633H5.38734V3.14718ZM18.5608 2.06593C18.3293 1.08588 17.5076 0.362933 16.5187 0.255322C14.1775 0.000136316 11.8064 -0.00106737 9.44695 0.00013633C7.08651 -0.00106737 4.71595 0.000136316 2.37377 0.255322C1.38527 0.363173 0.564078 1.08612 0.333117 2.06593C0.00394806 3.46151 0 4.98491 0 6.4219C0 7.85888 0 9.38204 0.329169 10.7776C0.56013 11.7574 1.38132 12.4804 2.37031 12.5882C4.712 12.8437 7.08256 12.8446 9.44275 12.8437C11.8032 12.8449 14.1733 12.8437 16.5157 12.5882C17.5042 12.4804 18.3259 11.7574 18.5568 10.7776C18.8855 9.38204 18.8875 7.85888 18.8875 6.4219C18.8872 4.98467 18.8897 3.46151 18.5608 2.06593Z" transform="translate(0 9.15625)" fill="#D9D9D9"/>
</g>
<path fill-rule="evenodd" clip-rule="evenodd" d="M0.501622 0C0.167351 0 0 0.200068 0 0.599864V1H1V0.599864C0.999784 0.200068 0.832432 0 0.501622 0Z" transform="translate(15 14)" fill="#D9D9D9"/>
<path fill-rule="evenodd" clip-rule="evenodd" d="M0.534028 0C0.357639 0 0.179167 0.08079 0 0.252469V3.74417C0.178935 3.91786 0.357639 4 0.534028 4C0.843056 4 1 3.74417 1 3.22689V0.781643C1 0.265036 0.843056 0 0.534028 0Z" transform="translate(11 14)" fill="#D9D9D9"/>
<path fill-rule="evenodd" clip-rule="evenodd" d="M0.764842 6C1.14514 6 1.54129 5.76232 1.95663 5.2732V5.91879H3V0H1.95663V4.52369C1.72541 4.85956 1.50603 5.02566 1.29757 5.02566C1.15786 5.02566 1.07573 4.94077 1.05275 4.77444C1.04002 4.73934 1.04002 4.6088 1.04002 4.35759V0H0V4.68015C0 5.09815 0.0348163 5.38103 0.092397 5.5602C0.197292 5.86005 0.428731 6 0.764842 6Z" transform="translate(11 2)" fill="#D9D9D9"/>
<path fill-rule="evenodd" clip-rule="evenodd" d="M1.45004 4.75993V8H2.60757V4.75993L4 0H2.82952L2.03975 3.14163L1.21804 0H0C0.244055 0.741558 0.497935 1.48681 0.741989 2.22906C1.11332 3.34475 1.34509 4.18591 1.45004 4.75993Z" transform="translate(3)" fill="#D9D9D9"/>
<path fill-rule="evenodd" clip-rule="evenodd" d="M1.01562 1.76506C1.01562 1.22389 1.1729 0.954102 1.50027 0.954102C1.82765 0.954102 1.98449 1.22367 1.98449 1.76506V4.22537C1.98449 4.76653 1.82765 5.03723 1.50027 5.03723C1.1729 5.03723 1.01562 4.76653 1.01562 4.22537V1.76506ZM1.50022 6C2.00898 6 2.40434 5.80026 2.68479 5.40125C2.89812 5.10856 3 4.64742 3 4.02577V1.97763C3 1.35235 2.89833 0.895296 2.68479 0.599887C2.40434 0.199736 2.0092 0 1.50022 0C0.994062 0 0.598914 0.199736 0.317813 0.599887C0.1021 0.895296 0 1.35235 0 1.97763V4.02577C0 4.64742 0.1021 5.10856 0.317813 5.40125C0.598697 5.80026 0.994062 6 1.50022 6Z" transform="translate(7 2)" fill="#D9D9D9"/>
</svg>
