<svg width="24" height="24" viewBox="0 0 24 24" fill="none" xmlns="http://www.w3.org/2000/svg">
<mask id="mask0" mask-type="alpha" maskUnits="userSpaceOnUse" x="0" y="0" width="24" height="24">
<path fill-rule="evenodd" clip-rule="evenodd" d="M0 0H24V24H0V0Z" fill="white"/>
</mask>
<g mask="url(#mask0)">
<path fill-rule="evenodd" clip-rule="evenodd" d="M12 1.38135C17.8534 1.38135 22.6186 6.14646 22.6186 12C22.6186 14.679 21.6139 17.1348 19.9744 19.0047C15.4674 17.693 15.293 16.1023 15.293 16.0813V16.1162H15.2441C15.3279 16.0325 15.4116 15.9488 15.4953 15.8581C17.4139 13.7023 17.093 10.0116 17.0581 9.64879C16.8697 5.79763 14.2255 4.43018 12.0139 4.43018H11.9023H11.7907C9.57902 4.43018 6.92786 5.79763 6.74646 9.64879C6.71158 10.0046 6.39763 13.6953 8.30925 15.8581C8.42088 15.9837 8.53949 16.1023 8.65809 16.2139C8.51158 16.6186 7.77205 17.9023 4.02553 18.9976C2.37902 17.1279 1.38135 14.679 1.38135 12C1.38135 6.14646 6.14646 1.38135 12 1.38135ZM8.12103 9.78164V9.73978C8.28847 6.10489 10.9675 5.81885 11.7908 5.81885H11.8745H11.9303H12.014C12.8303 5.81885 15.5164 6.10489 15.6838 9.73978V9.78164C15.6908 9.81652 16.0327 13.1793 14.4629 14.9444C13.842 15.6421 13.0117 15.9909 11.9303 15.9979H11.9094H11.8885C10.8001 15.984 9.97684 15.6421 9.35591 14.9444C7.77917 13.1933 8.11405 9.81652 8.12103 9.78164ZM12 22.6187C9.39068 22.6187 6.99068 21.6699 5.14185 20.1001C8.25347 19.0676 9.40464 17.8118 9.83022 16.9746C10.4232 17.2327 11.086 17.3722 11.8186 17.3792H11.8674H11.9302H11.9791C12.7744 17.3653 13.493 17.2048 14.1139 16.9048C14.5116 17.742 15.6418 19.0397 18.8442 20.1001C17.0023 21.6699 14.6093 22.6187 12 22.6187ZM3.37674 20.3372C5.56046 22.5907 8.61628 24 12 24C18.614 24 24 18.614 24 12C24 5.38605 18.614 0 12 0C5.38605 0 0 5.38605 0 12C0 15.1535 1.22791 18.028 3.22326 20.1698C3.26512 20.2395 3.32093 20.2884 3.37674 20.3372Z" fill="white"/>
</g>
</svg>
