<?xml version="1.0" encoding="UTF-8"?>
<!DOCTYPE svg PUBLIC "-//W3C//DTD SVG 1.1//EN" "http://www.w3.org/Graphics/SVG/1.1/DTD/svg11.dtd">
<!-- Creator: CorelDRAW 2018 (64-Bit) -->
<svg xmlns="http://www.w3.org/2000/svg" xml:space="preserve" width="170mm" height="170mm" version="1.1" style="shape-rendering:geometricPrecision; text-rendering:geometricPrecision; image-rendering:optimizeQuality; fill-rule:evenodd; clip-rule:evenodd"
viewBox="0 0 1271.88 1271.88"
 xmlns:xlink="http://www.w3.org/1999/xlink">
 <defs>
  <style type="text/css">
   <![CDATA[
    .fil0 {fill:#FEFEFE}
   ]]>
  </style>
 </defs>
 <g id="Слой_x0020_1">
  <metadata id="CorelCorpID_0Corel-Layer"/>
  <path class="fil0" d="M1124.6 852.14l132.23 166.4 0.06 -0.04c0.21,0.31 0.41,0.64 0.64,0.93l-0.01 0.01c25.78,38.46 15.93,90.61 -22.3,116.97 -38.23,26.36 -90.48,17.02 -117.25,-20.75l-0.01 0.01c-0.11,-0.2 -0.75,-0.86 -0.54,-1l-118.24 -216.78 27.48 -8.3 114.5 209.93c17.9,25.01 52.6,31.16 78.02,13.63 25.43,-17.53 32.03,-52.19 14.98,-77.81l-133.56 -168.08 5.64 -1.7c7.76,-2.34 14.08,-7.2 18.37,-13.4zm-140.64 112.52l61.81 203.35 0.07 -0.02c0.08,0.37 0.15,0.74 0.25,1.1l-0.01 0c9.84,45.24 -18.49,90.12 -63.73,100.58 -45.24,10.46 -90.4,-17.42 -101.42,-62.39l-0.01 0c-0.03,-0.23 -0.38,-1.07 -0.14,-1.13l-30.29 -245.06 28.61 2.38 29.33 237.32c7.45,29.83 37.47,48.31 67.55,41.35 30.09,-6.96 48.97,-36.77 42.53,-66.86l-62.44 -205.41 5.87 0.49c8.08,0.67 15.74,-1.52 22,-5.71zm-147.95 -39.35l0.84 -10.14c0.54,-6.51 6.31,-11.38 12.81,-10.84l116.98 9.72c6.5,0.54 11.38,6.31 10.84,12.81l-0.84 10.14c-0.54,6.5 -6.31,11.38 -12.81,10.84l-116.98 -9.72c-6.5,-0.54 -11.38,-6.31 -10.84,-12.81zm-75.84 -101.85l55.23 37.8c7.63,5.22 17.58,4.66 24.56,-0.69 -0.97,6.48 -0.83,13.23 0.6,20l-0.01 0 0.25 2.02c3.43,-0.81 7.04,-1.1 10.74,-0.8l17.66 1.47 -0.98 -7.93 0.12 -0.03c-3.52,-15.21 5.96,-30.38 21.16,-33.9 15.2,-3.52 30.38,5.96 33.9,21.16l0.07 -0.02 7.86 25.87 30.23 2.51 -10.89 -35.84 -0.01 0c-7.5,-29.76 -50.1,-45.26 -67.52,-41.23 -17.43,4.03 -9.34,2.82 -13.53,5.01 2.41,-4.45 3.03,-9.5 2.05,-14.21l58.19 13.25c9.01,2.05 18.06,-2.12 22.59,-9.67 1.48,6.38 4.09,12.61 7.91,18.39l-0.01 0.01 0.97 1.79c2.89,-2.01 6.15,-3.62 9.7,-4.69l16.96 -5.13 -3.83 -7.01 0.1 -0.07c-8.86,-12.85 -5.62,-30.44 7.23,-39.3 12.85,-8.86 30.44,-5.62 39.3,7.22l0.06 -0.04 16.82 21.17 29.04 -8.77 -23.3 -29.32 -0.01 0.01c-17.92,-24.92 -63.22,-23.68 -77.95,-13.53 -14.73,10.15 -7.65,6.05 -10.74,9.63 1.26,-10.47 -5.62,-20.49 -16.12,-22.88l-65.26 -14.85c-11.21,-2.55 -22.48,4.53 -25.03,15.75l-9.43 41.42c-0.27,1.2 -0.44,2.41 -0.49,3.6l-40.56 -27.76c-9.49,-6.49 -22.57,-4.04 -29.06,5.45l-23.99 35.06c-6.49,9.49 -4.04,22.57 5.45,29.06zm212.38 46.47l-2.94 -9.74c-1.89,-6.25 1.68,-12.91 7.93,-14.79l112.36 -33.95c6.25,-1.89 12.91,1.68 14.79,7.93l2.94 9.74c1.89,6.25 -1.68,12.9 -7.93,14.79l-112.36 33.95c-6.25,1.89 -12.91,-1.68 -14.79,-7.93z"/>
  <path class="fil0" d="M336.67 224.45c61.98,0 112.22,50.24 112.22,112.22 0,61.98 -50.24,112.22 -112.22,112.22 -61.98,0 -112.22,-50.24 -112.22,-112.22 0,-61.98 50.24,-112.22 112.22,-112.22zm0 -224.45c185.94,0 336.67,150.73 336.67,336.67 0,185.94 -150.73,336.67 -336.67,336.67 -185.94,0 -336.67,-150.73 -336.67,-336.67 0,-185.94 150.73,-336.67 336.67,-336.67zm0 149.63c103.3,0 187.04,83.74 187.04,187.04 0,103.3 -83.74,187.04 -187.04,187.04 -103.3,0 -187.04,-83.74 -187.04,-187.04 0,-103.3 83.74,-187.04 187.04,-187.04z"/>
  <path class="fil0" d="M635.41 549.19l118.66 118.66 -24.95 24.95 107.6 37.43c-0.12,0.47 -0.24,0.93 -0.35,1.41l-2.88 12.65 -13.04 -8.92c-16.41,-11.23 -37.92,-9.59 -52.45,2.65l-18.77 -6.53 12.66 12.86c-0.59,0.75 -1.16,1.52 -1.7,2.31l-15.59 22.78 -45.7 -46.41 -31.06 31.05 -118.66 -118.66c33.31,-23.74 62.48,-52.91 86.22,-86.22z"/>
 </g>
</svg>
