<?xml version="1.0" encoding="UTF-8"?>
<!DOCTYPE svg PUBLIC "-//W3C//DTD SVG 1.1//EN" "http://www.w3.org/Graphics/SVG/1.1/DTD/svg11.dtd">
<!-- Creator: CorelDRAW 2018 (64-Bit) -->
<svg xmlns="http://www.w3.org/2000/svg" xml:space="preserve" width="162.854mm" height="170mm" version="1.1" style="shape-rendering:geometricPrecision; text-rendering:geometricPrecision; image-rendering:optimizeQuality; fill-rule:evenodd; clip-rule:evenodd"
viewBox="0 0 747.98 780.8"
 xmlns:xlink="http://www.w3.org/1999/xlink">
 <defs>
  <style type="text/css">
   <![CDATA[
    .fil0 {fill:#FEFEFE}
   ]]>
  </style>
 </defs>
 <g id="Слой_x0020_1">
  <metadata id="CorelCorpID_0Corel-Layer"/>
  <path class="fil0" d="M22.96 365.4l318.84 0c12.63,0 22.96,9.89 22.96,21.99l0 371.42c0,12.09 -10.33,21.99 -22.96,21.99l-318.84 0c-12.63,0 -22.96,-9.9 -22.96,-21.99l0 -371.42c0,-12.09 10.33,-21.99 22.96,-21.99zm371.01 -127.73l35.69 13.11 -9.5 25.87 -78.77 -28.93 8.04 -21.9 3.2 -18.84 -0.29 -19.11 -3.77 -18.73 -8.71 -21.65 77.86 -31.31 10.28 25.57 -35.28 14.19 37.27 -7.51 5.44 27.02 -37.27 7.51 38.02 -0.58 0.42 27.55 -38.02 0.58 37.48 6.37 -4.62 27.17 -37.48 -6.37zm-145.27 -38.67l-5.14 -12.78 77.86 -31.31 5.72 14.24 1.1 -0.22 1.2 5.93 2.26 5.62 -1.04 0.42 0.62 3.07 1.12 -0.02 0.09 6.06 1.2 5.93 -1.1 0.22 0.05 3.13 1.11 0.19 -1.02 5.97 0.09 6.05 -1.12 0.02 -0.52 3.09 1.06 0.39 -2.09 5.68 -1.02 5.97 -1.11 -0.19 -5.29 14.4 -78.77 -28.93 4.75 -12.93 -5.14 -12.78 5.14 12.78zm380.08 -167.69l77.86 -31.31 10.28 25.57 -77.86 31.31 -10.28 -25.57zm-96.31 38.73l77.86 -31.31 10.28 25.57 -77.86 31.31 -10.28 -25.57zm-96.31 38.73l77.86 -31.31 10.28 25.57 -77.86 31.31 -10.28 -25.57zm216.84 -5.25l82.26 -16.57 5.44 27.02 -82.26 16.57 -5.44 -27.02zm-101.76 20.5l82.26 -16.57 5.44 27.01 -82.26 16.57 -5.44 -27.01zm-101.76 20.5l82.26 -16.57 5.44 27.01 -82.26 16.57 -5.44 -27.02zm214.15 34.42l83.91 -1.27 0.42 27.55 -83.91 1.27 -0.42 -27.55zm-103.79 1.58l83.91 -1.27 0.42 27.55 -83.91 1.27 -0.42 -27.55zm-103.79 1.58l83.91 -1.27 0.42 27.55 -83.9 1.27 -0.42 -27.55zm204.27 72.93l82.73 14.06 -4.62 27.17 -82.73 -14.06 4.62 -27.17zm-102.33 -17.4l82.73 14.06 -4.62 27.17 -82.73 -14.06 4.62 -27.17zm-102.33 -17.4l82.73 14.06 -4.62 27.17 -82.73 -14.06 4.62 -27.17zm187.52 109l78.77 28.93 -9.5 25.87 -78.77 -28.93 9.5 -25.87zm-97.44 -35.78l78.77 28.93 -9.5 25.87 -78.77 -28.93 9.5 -25.87zm-97.44 -35.79l78.77 28.93 -9.5 25.87 -78.77 -28.93 9.5 -25.87zm-366.33 98.75l6.78 -9.92 193.29 0 6.61 9.92 -206.68 0zm63.06 -201.82l74.65 0 0 19.55c-16.16,0 -29.27,11.67 -29.27,26.06 0,14.39 13.1,26.06 29.27,26.06l0 36.77 -74.65 0 0 -108.44zm-69.76 129.85l214.17 0c1.31,0 2.39,1.03 2.39,2.29l0 31.73c0,1.26 -1.07,2.29 -2.39,2.29l-214.17 0c-1.31,0 -2.39,-1.03 -2.39,-2.29l0 -31.73c0,-1.26 1.07,-2.29 2.39,-2.29z"/>
 </g>
</svg>
