<?xml version="1.0" encoding="UTF-8"?>
<!DOCTYPE svg PUBLIC "-//W3C//DTD SVG 1.1//EN" "http://www.w3.org/Graphics/SVG/1.1/DTD/svg11.dtd">
<!-- Creator: CorelDRAW 2018 (64-Bit) -->
<svg xmlns="http://www.w3.org/2000/svg" xml:space="preserve" width="145.726mm" height="148.34mm" version="1.1" style="shape-rendering:geometricPrecision; text-rendering:geometricPrecision; image-rendering:optimizeQuality; fill-rule:evenodd; clip-rule:evenodd"
viewBox="0 0 1822.7 1855.4"
 xmlns:xlink="http://www.w3.org/1999/xlink">
 <defs>
  <style type="text/css">
   <![CDATA[
    .fil0 {fill:#FEFEFE}
   ]]>
  </style>
 </defs>
 <g id="Слой_x0020_1">
  <metadata id="CorelCorpID_0Corel-Layer"/>
  <path class="fil0" d="M1796 1692.51c17.4,10.13 26.7,20.72 26.7,31.63 0,72.5 -408.03,131.26 -911.35,131.26 -503.33,0 -911.35,-58.77 -911.35,-131.26 0,-10.91 9.3,-21.5 26.7,-31.63 98.28,57.21 457.05,99.63 884.65,99.63 427.61,0 786.37,-42.42 884.65,-99.63zm-884.65 -1692.51c175.38,0 582.9,59.67 582.9,137.14 0,46.37 -260.97,83.96 -582.9,83.96 -321.93,0 -582.9,-37.59 -582.9,-83.96 0,-77.47 387.67,-137.14 582.9,-137.14zm692.79 914.86c136.24,22.94 218.56,52.72 218.56,85.28 0,72.5 -408.03,131.26 -911.35,131.26 -503.33,0 -911.35,-58.77 -911.35,-131.26 0,-32.55 82.32,-62.34 218.56,-85.28 26.86,51.73 326.76,92.5 692.79,92.5 366.03,0 665.94,-40.77 692.79,-92.5zm139.51 473.14c14.8,0 26.8,42.83 26.8,95.67 0,52.84 -12,95.67 -26.8,95.67 -14.8,0 -26.8,-42.83 -26.8,-95.67 0,-52.84 12,-95.67 26.8,-95.67zm-1664.61 0c-14.8,0 -26.8,42.83 -26.8,95.67 0,52.84 12,95.67 26.8,95.67 14.8,0 26.81,-42.83 26.81,-95.67 0,-52.84 -12,-95.67 -26.81,-95.67zm505.94 45.94c-44.41,0 -80.41,48 -80.41,107.22 0,59.21 36,107.22 80.41,107.22 44.41,0 80.41,-48 80.41,-107.22 0,-59.21 -36,-107.22 -80.41,-107.22zm-289.52 -14.17c-29.61,0 -53.61,45.39 -53.61,101.38 0,55.99 24,101.38 53.61,101.38 29.61,0 53.61,-45.39 53.61,-101.38 0,-55.99 -24,-101.38 -53.61,-101.38zm615.89 22.83c59.21,0 107.22,48 107.22,107.22 0,59.21 -48,107.22 -107.22,107.22 -59.21,0 -107.22,-48 -107.22,-107.22 0,-59.21 48,-107.22 107.22,-107.22zm326.37 -8.67c44.41,0 80.41,48 80.41,107.22 0,59.21 -36,107.22 -80.41,107.22 -44.41,0 -80.41,-48 -80.41,-107.22 0,-59.21 36,-107.22 80.41,-107.22zm289.52 -14.17c29.61,0 53.61,45.39 53.61,101.38 0,55.99 -24,101.38 -53.61,101.38 -29.61,0 -53.61,-45.39 -53.61,-101.38 0,-55.99 24,-101.38 53.61,-101.38zm295.46 177.84c0,72.5 -408.03,131.26 -911.35,131.26 -503.33,0 -911.35,-58.77 -911.35,-131.26l0 -526.72c0,72.5 408.03,131.26 911.35,131.26 503.33,0 911.35,-58.77 911.35,-131.26l0 526.72zm-309.56 -840.42c59.12,14.72 92.97,31.81 92.97,50.03 0,55.26 -311.05,100.07 -694.76,100.07 -383.7,0 -694.76,-44.8 -694.76,-100.07 0,-18.23 33.85,-35.31 92.97,-50.03 120.13,29.91 344.64,50.03 601.79,50.03 257.15,0 481.66,-20.12 601.79,-50.03zm0 -200.13c59.12,14.72 92.97,31.81 92.97,50.03 0,55.27 -311.05,100.07 -694.76,100.07 -383.7,0 -694.76,-44.8 -694.76,-100.07 0,-18.23 33.85,-35.31 92.97,-50.03 120.13,29.91 344.64,50.03 601.79,50.03 257.15,0 481.66,-20.12 601.79,-50.03zm0 -200.13c59.12,14.72 92.97,31.81 92.97,50.03 0,55.27 -311.05,100.07 -694.76,100.07 -383.7,0 -694.76,-44.8 -694.76,-100.07 0,-18.23 33.85,-35.31 92.97,-50.03 120.13,29.91 344.64,50.03 601.79,50.03 257.15,0 481.66,-20.12 601.79,-50.03zm13.21 -217.3c98.48,18.67 156.97,41.95 156.97,67.2 0,61.41 -345.62,111.19 -771.97,111.19 -426.34,0 -771.96,-49.78 -771.96,-111.19 0,-25.25 58.49,-48.54 156.97,-67.2 1.75,34.23 39.48,51.09 67.53,60.64 40.95,13.94 87.95,21.92 130.7,28.07 62.17,8.95 125.24,14.44 187.91,18.26 76.15,4.64 152.56,6.66 228.85,6.66 76.29,0 152.7,-2.02 228.85,-6.66 62.68,-3.82 125.75,-9.31 187.91,-18.26 42.75,-6.16 89.76,-14.13 130.7,-28.07 28.05,-9.55 65.78,-26.41 67.53,-60.64z"/>
 </g>
</svg>
