<?xml version="1.0" encoding="UTF-8"?>
<!DOCTYPE svg PUBLIC "-//W3C//DTD SVG 1.1//EN" "http://www.w3.org/Graphics/SVG/1.1/DTD/svg11.dtd">
<!-- Creator: CorelDRAW 2018 (64-Bit) -->
<svg xmlns="http://www.w3.org/2000/svg" xml:space="preserve" width="159.441mm" height="170mm" version="1.1" style="shape-rendering:geometricPrecision; text-rendering:geometricPrecision; image-rendering:optimizeQuality; fill-rule:evenodd; clip-rule:evenodd"
viewBox="0 0 575.12 613.2"
 xmlns:xlink="http://www.w3.org/1999/xlink">
 <defs>
  <style type="text/css">
   <![CDATA[
    .fil0 {fill:#E9E9E9}
   ]]>
  </style>
 </defs>
 <g id="Слой_x0020_1">
  <metadata id="CorelCorpID_0Corel-Layer"/>
  <path class="fil0" d="M185.09 225.27c24.82,-0.1 30.72,-6.2 50.27,-11.49l0.87 -29.34 110.08 -40.75c-2.78,-15.47 -7.86,-36.93 -15.86,-48.46 -27.72,3.1 -82.59,24.03 -108.74,35.2 -46.37,19.81 -48.48,41.07 -36.62,94.84zm-87.62 326.65c3.74,19.29 12.29,46.73 22.56,61.28l52.62 -0.1 -28.19 -80.18 -47 19.01zm151.95 -142.04l50.15 -15.33 -35.68 -105.8 -46.71 16.91 32.25 104.23zm87.24 -344.93l33.16 100.37 48.83 -14.86 -33.38 -103.18c-20.93,-1.8 -38.09,6.56 -48.61,17.66zm-176.07 360.72c3.98,20.96 23.94,96.02 34.8,108.26l44.05 -18.08c-4.68,-25.93 -25.89,-90.4 -41.43,-105.63l-37.42 15.46zm116.08 -243.48l34.81 105.04 48.44 -13.93 -33.12 -106.35c-13.79,1.65 -39.57,8.07 -50.12,15.24zm-28.72 -76.39l43.27 -10.62c9.45,-45.58 1.14,-36.17 45.83,-50.7 20.09,-6.53 55.55,-14.1 68.79,-27.63l-3.65 -14.75c-46.52,-2.8 -143.89,-10.94 -162.08,44.54 -8.19,24.98 1.62,39.48 7.83,59.16zm159.96 -38.48l15.08 47.28c28.3,-2.6 74.94,-20.28 101.3,-30.11 34.71,-12.94 59.45,-33.36 47.99,-80.21l-52.61 -2.7c3.74,43.12 -28.94,33.01 -80.28,52.01 -12.01,4.44 -20.79,10.42 -31.48,13.74zm51.65 51.11c1.27,39.48 -8.75,38.16 -41.99,48.65 -19.37,6.11 -53.67,12.92 -68.34,24.12l13.25 46.08c23.17,-2.12 89.54,-26.51 109.94,-36.31 31.59,-15.17 62.39,-50.35 35.03,-92.95 -20.33,-2.1 -32.99,5.18 -47.89,10.4zm-216.13 364.75c28.81,-7.14 84.96,-23.78 108.72,-35.93 39.21,-20.05 52.3,-42.07 38.94,-93.91 -22.22,-2.51 -34.41,-0.33 -50.29,12.21 1.1,49.37 -16.03,30.57 -112.37,69.77l14.99 47.86zm-187.32 97.79c0.57,-8.6 -1.38,-12.44 -0.49,-19.21 1.19,-9.04 3.26,-10.65 8.91,-14.15l70.16 -26.06c5.86,-2.21 11.63,-4.11 17.72,-6.27 12.23,-4.34 11.68,-4.73 14.86,-9.89l-15 -42.79c-30.04,4.51 -83.76,24.77 -111.88,36.64 -18.26,7.72 -34.04,16.4 -38.85,36.38 -4.3,17.9 0.77,47.83 10.46,61.16l44.1 -15.82zm130.06 23.49c24.96,-3.08 88.35,-26 111.95,-36.74 37.8,-17.19 48.49,-49.54 28.35,-97.43l-43.73 14.73 -3.21 31.97 -112.68 40.16 19.33 47.31zm216.45 -364.5c-5.86,51.74 -9.75,27.72 -114.89,73.16l14.62 47.15c23.59,-2.04 92.8,-27.2 112.81,-36.19 46.45,-20.86 51.36,-65.98 29.52,-96.87l-42.06 12.74zm-270.59 110.16c80.63,-14.42 18.42,-42.51 65.97,-53.88 25.54,-6.11 67.55,-20.73 88.95,-33.12l-12.52 -46.45c-41.76,9.05 -137.18,34.66 -154.88,76.28 -10.64,25.02 4.24,40.75 12.49,57.18zm95.39 36.47c-1.61,-14.33 -9.21,-35.71 -17.21,-46.11 -25.93,2.12 -90.65,25.12 -112.74,35.57 -36.14,17.1 -50.93,55.13 -28.11,97.21l45.55 -13.8 2.41 -32 110.09 -40.87z"/>
 </g>
</svg>
