<?xml version="1.0" encoding="UTF-8"?>
<!DOCTYPE svg PUBLIC "-//W3C//DTD SVG 1.1//EN" "http://www.w3.org/Graphics/SVG/1.1/DTD/svg11.dtd">
<!-- Creator: CorelDRAW 2018 (64-Bit) -->
<svg xmlns="http://www.w3.org/2000/svg" xml:space="preserve" width="174.233mm" height="168.703mm" version="1.1" style="shape-rendering:geometricPrecision; text-rendering:geometricPrecision; image-rendering:optimizeQuality; fill-rule:evenodd; clip-rule:evenodd"
viewBox="0 0 1337.93 1295.46"
 xmlns:xlink="http://www.w3.org/1999/xlink">
 <defs>
  <style type="text/css">
   <![CDATA[
    .fil0 {fill:#FEFEFE}
   ]]>
  </style>
 </defs>
 <g id="Слой_x0020_1">
  <metadata id="CorelCorpID_0Corel-Layer"/>
  <path class="fil0" d="M93.14 56.25c-14.11,1.93 -41.18,11.91 -43.57,59.78 -0.36,7.12 -0.2,17.48 0.35,30.28 0.82,-0.04 1.64,-0.04 2.48,0 11.58,0.62 20.77,9.57 21.72,21.12 1.76,21.51 7.81,53.13 29.41,64.06 6.81,3.44 16.96,5.12 24.54,3.51 1.5,-0.35 2.84,-0.53 4.4,-0.58l39.84 -1.42c2.6,-22.94 22.16,-40.86 45.78,-40.86l82.33 0c21.46,0 39.57,14.79 44.65,34.7 109.01,-3.89 218.01,-7.8 327.01,-11.73 111.94,-4.04 223.88,-8.09 335.82,-12.23 30.63,-1.13 61.27,-2.21 91.92,-3.34 3.38,-22.09 22.53,-39.09 45.54,-39.09l82.33 0c19.8,0 36.74,12.59 43.24,30.18 6.44,-0.7 12.84,-1.5 19.18,-2.42 5.77,-0.84 16.8,-2.34 22.58,-4.56 2.79,-1.57 5.76,-2.52 8.79,-2.84 -2.6,-20.53 -7.49,-48.99 -15.49,-59.9 -7.31,-9.96 -31.71,-21.94 -51.88,-30.6 -0.23,1.39 -0.57,2.8 -1.05,4.22 -8.14,24.16 -44.33,22.81 -65.58,21 -165.98,4.68 -331.96,9.39 -497.94,14.12 -106.77,3.04 -213.54,6.08 -320.3,9.16 -58.07,1.67 -116.17,3.19 -174.24,5.13 -25.22,0.84 -63.05,3.77 -81.82,-16.54 -12.41,-13.43 -14.59,-34.44 -18.59,-51.66 -1.53,-6.57 -2.05,-13.13 -1.44,-19.48zm124.94 158.93l82.33 0c12.67,0 23.04,10.37 23.04,23.04l0 124.59c0,12.67 -10.37,23.04 -23.04,23.04l-82.33 0c-12.67,0 -23.04,-10.37 -23.04,-23.04l0 -124.59c0,-12.67 10.37,-23.04 23.04,-23.04zm927.28 -31.69l82.33 0c12.67,0 23.04,10.37 23.04,23.04l0 124.59c0,12.67 -10.37,23.04 -23.04,23.04l-82.33 0c-12.67,0 -23.04,-10.37 -23.04,-23.04l0 -124.59c0,-12.67 10.37,-23.04 23.04,-23.04zm-448.6 266.56l82.33 0c12.67,0 23.04,10.37 23.04,23.04l0 124.59c0,12.67 -10.37,23.04 -23.04,23.04l-82.33 0c-12.67,0 -23.04,-10.37 -23.04,-23.04l0 -124.59c0,-12.67 10.37,-23.04 23.04,-23.04zm-521.22 -422.6c0,0 -69.08,-2.44 -58.51,43.07 10.57,45.51 4.06,52.82 77.21,50.39 73.14,-2.44 993.92,-28.44 993.92,-28.44 0,0 92.65,8.26 6.5,-31.7 -86.15,-39.95 -86.96,-39.95 -86.96,-39.95 0,0 -47.14,-24.54 -116.21,-20.33 -69.08,4.21 -815.94,26.96 -815.94,26.96zm-124.38 141.87l-51.16 266.92c0,0 21.13,73.14 85.33,79.64 64.2,6.5 111.34,6.5 111.34,6.5l454.01 -28.16 0 -21.13c0,-25.38 20.69,-46.07 46.07,-46.07l82.33 0c25.38,0 46.07,20.69 46.07,46.07l0 10.31 445.88 -27.66c0,0 71.52,4.88 66.64,-53.64 -4.88,-58.51 -13.82,-198.3 -13.82,-198.3 0,0 -7.05,4.97 -50.1,9.59l0 117.72c0,25.38 -20.69,46.07 -46.07,46.07l-82.33 0c-25.38,0 -46.07,-20.69 -46.07,-46.07l0 -108.59c-178.07,6.73 -526.66,19.25 -752.8,27.32l0 112.96c0,25.38 -20.69,46.07 -46.07,46.07l-82.33 0c-25.38,0 -46.07,-20.69 -46.07,-46.07l0 -106.74 -38.73 1.38c0,0 -73.46,17.6 -82.12,-88.13zm37.21 370.01l87.98 678.71c0,0 -8.13,94.27 178.79,74.77 186.92,-19.5 765.55,-81.27 765.55,-81.27 0,0 71.52,13 95.9,-147.91 21.12,-139.41 62.9,-493.45 73.69,-585.62 -6.55,0.81 -13.12,1.11 -19.19,0.81l-445.93 27.66 0 91.2c0,25.38 -20.69,46.07 -46.07,46.07l-82.33 0c-25.38,0 -46.07,-20.69 -46.07,-46.07l0 -80.38 -452.59 28.07c-0.5,0.03 -0.93,0.04 -1.43,0.04 -35.58,0 -72.8,-2.59 -108.3,-6.08z"/>
 </g>
</svg>
