<?xml version="1.0" encoding="UTF-8"?>
<!DOCTYPE svg PUBLIC "-//W3C//DTD SVG 1.1//EN" "http://www.w3.org/Graphics/SVG/1.1/DTD/svg11.dtd">
<!-- Creator: CorelDRAW 2018 (64-Bit) -->
<svg xmlns="http://www.w3.org/2000/svg" xml:space="preserve" width="181.33mm" height="170mm" version="1.1" style="shape-rendering:geometricPrecision; text-rendering:geometricPrecision; image-rendering:optimizeQuality; fill-rule:evenodd; clip-rule:evenodd"
viewBox="0 0 354.48 332.33"
 xmlns:xlink="http://www.w3.org/1999/xlink">
 <defs>
  <style type="text/css">
   <![CDATA[
    .fil0 {fill:white}
   ]]>
  </style>
 </defs>
 <g id="Слой_x0020_1">
  <metadata id="CorelCorpID_0Corel-Layer"/>
  <path class="fil0" d="M349.54 68.33l-66.47 -44.31c-1.82,-1.22 -3.94,-1.86 -6.14,-1.86l-39.72 0 -18.9 -18.92c-2.08,-2.06 -4.9,-3.23 -7.84,-3.23l-66.47 0c-2.95,0 -5.76,1.17 -7.84,3.23l-18.9 18.92 -39.72 -0c-2.19,0 -4.32,0.64 -6.14,1.86l-66.47 44.31c-4.17,2.77 -5.94,7.98 -4.36,12.72l22.16 66.47c1,3.04 3.3,5.49 6.27,6.74 2.97,1.22 6.31,1.11 9.19,-0.33l28.27 -14.14 0 181.47c0,6.11 4.96,11.08 11.08,11.08l199.4 -0c6.11,0 11.08,-4.96 11.08,-11.08l0 -181.47 28.27 14.13c2.88,1.44 6.18,1.55 9.19,0.33 2.97,-1.24 5.25,-3.7 6.27,-6.74l22.16 -66.47c1.6,-4.74 -0.2,-9.95 -4.36,-12.72zm-200.95 -46.17l57.29 0 10.17 10.17 -38.82 31.04 -38.82 -31.04 10.17 -10.17z"/>
 </g>
</svg>
