<svg width="17" height="20" viewBox="0 0 17 20" fill="none" xmlns="http://www.w3.org/2000/svg">
<g opacity="0.8">
<path fill-rule="evenodd" clip-rule="evenodd" d="M1.45455 8.72764H13.0215C13.8247 8.72764 14.476 8.07636 14.476 7.27309V0H0V7.27309C0 8.07636 0.651273 8.72764 1.45455 8.72764Z" transform="translate(0.904053 11.167)" fill="#4D4D4D"/>
<mask id="mask0" mask-type="alpha" maskUnits="userSpaceOnUse" x="0" y="0" width="17" height="11">
<path fill-rule="evenodd" clip-rule="evenodd" d="M0 0H16.2847V10.0582H0V0Z" transform="translate(0 0.363281)" fill="white"/>
</mask>
<g mask="url(#mask0)">
<path fill-rule="evenodd" clip-rule="evenodd" d="M3.57422 1.75488C6.23495 2.85488 6.83822 5.90652 6.83822 5.90652C3.64513 4.13161 3.57422 1.75488 3.57422 1.75488ZM12.799 1.75488C12.799 1.75488 12.7278 4.13161 9.53394 5.90652C9.5343 5.90652 10.1376 2.85525 12.799 1.75488ZM0 8.10591V10.0583H16.2847V8.10591C16.2847 7.30263 15.6335 6.65136 14.8302 6.65136H10.5724C12.5945 6.65136 15.5022 4.68881 14.8651 2.60772C14.3331 0.869178 12.7364 -0.0100944 11.1047 8.74211e-05C8.80109 0.0131783 8.204 4.84263 8.204 4.84263H8.14218C8.14218 4.84263 7.54545 0.0131783 5.24145 8.74211e-05C3.60945 -0.0100944 2.01309 0.869178 1.48109 2.60772C0.843636 4.68881 3.75164 6.65136 5.77455 6.65136H1.45455C0.651273 6.65136 0 7.30263 0 8.10591Z" transform="translate(0 0.363281)" fill="#4D4D4D"/>
</g>
</g>
</svg>
