<svg width="22" height="18" viewBox="0 0 22 18" fill="none" xmlns="http://www.w3.org/2000/svg">
<mask id="mask0" mask-type="alpha" maskUnits="userSpaceOnUse" x="0" y="0" width="22" height="18">
<path fill-rule="evenodd" clip-rule="evenodd" d="M0 0H22V17.9681H0V0Z" fill="white"/>
</mask>
<g mask="url(#mask0)">
<path fill-rule="evenodd" clip-rule="evenodd" d="M22 2.12592C21.1902 2.48667 20.3214 2.73134 19.4086 2.84057C20.3407 2.27935 21.0541 1.38918 21.3923 0.331735C20.518 0.851458 19.5529 1.22884 18.5246 1.43342C17.7011 0.550157 16.5298 0 15.2307 0C12.7383 0 10.7174 2.03194 10.7174 4.53661C10.7174 4.89184 10.7573 5.2388 10.8343 5.57057C7.084 5.38117 3.75851 3.57455 1.53281 0.829337C1.14375 1.49837 0.922418 2.27794 0.922418 3.1101C0.922418 4.68452 1.71977 6.0737 2.92956 6.88645C2.18993 6.86158 1.49431 6.657 0.88532 6.31695V6.37363C0.88532 8.57143 2.44153 10.4057 4.505 10.8232C4.12694 10.9255 3.72828 10.9821 3.31585 10.9821C3.02442 10.9821 2.74259 10.9531 2.46626 10.8978C3.04089 12.7017 4.7071 14.0135 6.68124 14.0494C5.1374 15.2658 3.19075 15.9887 1.07642 15.9887C0.712124 15.9887 0.353294 15.9666 0 15.9265C1.99751 17.2162 4.36894 17.9682 6.91771 17.9682C15.2198 17.9682 19.7578 11.054 19.7578 5.05775L19.7427 4.47029C20.6294 3.8344 21.3964 3.03546 22 2.12592Z" fill="#D9D9D9"/>
</g>
</svg>
