<?xml version="1.0" encoding="UTF-8"?>
<svg width="24px" height="17px" viewBox="0 0 24 17" version="1.1" xmlns="http://www.w3.org/2000/svg" xmlns:xlink="http://www.w3.org/1999/xlink">
    <!-- Generator: Sketch 49.2 (51160) - http://www.bohemiancoding.com/sketch -->
    <title>9</title>
    <desc>Created with Sketch.</desc>
    <defs>
        <polygon id="path-1" points="0 0 23.5543767 0 23.5543767 16.5517241 0 16.5517241"></polygon>
    </defs>
    <g id="Symbols" stroke="none" stroke-width="1" fill="none" fill-rule="evenodd">
        <g id="хедер" transform="translate(-925.000000, -158.000000)">
            <g id="9">
                <g transform="translate(925.000000, 158.000000)">
                    <mask id="mask-2" fill="white">
                        <use xlink:href="#path-1"></use>
                    </mask>
                    <g id="Clip-2"></g>
                    <path d="M21.8905665,5.37425627 C21.4014461,5.9843988 20.6712494,6.26158542 19.7266987,6.28009219 C19.3501244,6.37005336 19.0839649,6.15328346 18.9124818,5.63691964 C18.6164029,4.74519202 18.173842,3.92060332 17.5479122,3.20788514 C17.3565921,2.99003637 17.3811014,2.77824587 17.5898813,2.55234708 C18.1930232,1.89954768 18.9014977,1.42700259 19.7748976,1.27388602 C20.4318124,1.15869589 21.0229865,1.42882837 21.5239926,1.82145409 C22.7086361,2.7497803 22.7854428,4.25795769 21.8905665,5.37425627 M19.0460124,7.22958086 L18.554187,7.22958086 C18.4259025,7.22958086 18.3218814,7.12426654 18.3218814,6.99430419 C18.3218814,6.86442483 18.4259025,6.75911051 18.554187,6.75911051 L19.0460124,6.75911051 C19.1742968,6.75911051 19.2783179,6.86442483 19.2783179,6.99430419 C19.2783179,7.12426654 19.1742968,7.22958086 19.0460124,7.22958086 M17.5651261,7.22958086 L16.5759833,7.22958086 C16.4476988,7.22958086 16.3436777,7.12426654 16.3436777,6.99430419 C16.3436777,6.86442483 16.4476988,6.75911051 16.5759833,6.75911051 L17.5651261,6.75911051 C17.6934106,6.75911051 17.7974316,6.86442483 17.7974316,6.99430419 C17.7974316,7.12426654 17.6934106,7.22958086 17.5651261,7.22958086 M16.1337503,3.04871031 C16.0625995,2.94049134 16.0916172,2.79442893 16.1984253,2.72247659 C16.3296607,2.63409223 16.4570435,2.53931764 16.5771309,2.44072552 C16.6768895,2.35889737 16.8232075,2.37449949 16.9040308,2.47533235 C16.9847721,2.5762482 16.9694436,2.72438536 16.8698489,2.8062965 C16.7384496,2.91401752 16.599181,3.01767204 16.4558959,3.11427241 C16.416304,3.1409122 16.3715479,3.15360967 16.3273655,3.15360967 C16.2521982,3.15360967 16.1784244,3.11676211 16.1337503,3.04871031 M15.5868404,7.22958086 L14.5977796,7.22958086 C14.4694131,7.22958086 14.3653921,7.12426654 14.3653921,6.99430419 C14.3653921,6.86442483 14.4694131,6.75911051 14.5977796,6.75911051 L15.5868404,6.75911051 C15.7152069,6.75911051 15.8192279,6.86442483 15.8192279,6.99430419 C15.8192279,7.12426654 15.7152069,7.22958086 15.5868404,7.22958086 M14.2544855,3.81553797 C14.2201396,3.69038904 14.2925199,3.56067566 14.4161321,3.52590284 C14.7413926,3.43436487 15.052964,3.32257733 15.3423212,3.19377684 C15.4599495,3.1417421 15.5968409,3.19543664 15.6485645,3.31436132 C15.7002062,3.433286 15.6469251,3.57204529 15.5294608,3.62441198 C15.2198567,3.76225838 14.8871368,3.881681 14.5405639,3.97919426 C14.5198253,3.98508655 14.4988407,3.98782522 14.478266,3.98782522 C14.3764581,3.98782522 14.2830933,3.91969043 14.2544855,3.81553797 M13.6086367,7.22958086 L12.6194939,7.22958086 C12.4912095,7.22958086 12.3871064,7.12426654 12.3871064,6.99430419 C12.3871064,6.86442483 12.4912095,6.75911051 12.6194939,6.75911051 L13.6086367,6.75911051 C13.7369212,6.75911051 13.8409423,6.86442483 13.8409423,6.99430419 C13.8409423,7.12426654 13.7369212,7.22958086 13.6086367,7.22958086 M12.2402146,4.07405184 C12.2350504,3.94433846 12.334727,3.83479165 12.4630115,3.82956328 C12.7922066,3.81603591 13.1240248,3.78383578 13.4493673,3.73370982 C13.5766681,3.71445614 13.6947882,3.80259153 13.7140513,3.93097707 C13.7333145,4.0594456 13.6460974,4.17944915 13.5192065,4.1989518 C13.17706,4.25156746 12.8279459,4.28542738 12.4817828,4.29961868 C12.4785859,4.29978466 12.4753891,4.29986765 12.4722742,4.29986765 C12.3482522,4.29986765 12.2452968,4.2006116 12.2402146,4.07405184 M11.630433,7.22958086 L10.6412902,7.22958086 C10.5129238,7.22958086 10.4089027,7.12426654 10.4089027,6.99430419 C10.4089027,6.86442483 10.5129238,6.75911051 10.6412902,6.75911051 L11.630433,6.75911051 C11.7587175,6.75911051 11.8627386,6.86442483 11.8627386,6.99430419 C11.8627386,7.12426654 11.7587175,7.22958086 11.630433,7.22958086 M10.2070084,4.0619353 C10.2070084,3.93205594 10.3110295,3.82674162 10.4393139,3.82674162 L11.455835,3.82674162 C11.5842015,3.82674162 11.6882225,3.93205594 11.6882225,4.0619353 C11.6882225,4.19189765 11.5842015,4.29721197 11.455835,4.29721197 L10.4393139,4.29721197 C10.3110295,4.29721197 10.2070084,4.19189765 10.2070084,4.0619353 M9.65214737,7.22958086 L8.66300454,7.22958086 C8.53472008,7.22958086 8.43069901,7.12426654 8.43069901,6.99430419 C8.43069901,6.86442483 8.53472008,6.75911051 8.66300454,6.75911051 L9.65214737,6.75911051 C9.78043183,6.75911051 9.8844529,6.86442483 9.8844529,6.99430419 C9.8844529,7.12426654 9.78043183,7.22958086 9.65214737,7.22958086 M8.17404813,4.0619353 C8.17404813,3.93205594 8.2780692,3.82674162 8.40635365,3.82674162 L9.4227928,3.82674162 C9.55115923,3.82674162 9.6551803,3.93205594 9.6551803,4.0619353 C9.6551803,4.19189765 9.55115923,4.29721197 9.4227928,4.29721197 L8.40635365,4.29721197 C8.2780692,4.29721197 8.17404813,4.19189765 8.17404813,4.0619353 M7.6738617,7.22958086 L6.68480084,7.22958086 C6.55643441,7.22958086 6.45241334,7.12426654 6.45241334,6.99430419 C6.45241334,6.86442483 6.55643441,6.75911051 6.68480084,6.75911051 L7.6738617,6.75911051 C7.80222813,6.75911051 7.9062492,6.86442483 7.9062492,6.99430419 C7.9062492,7.12426654 7.80222813,7.22958086 7.6738617,7.22958086 M6.1410059,4.0619353 C6.1410059,3.93205594 6.24502697,3.82674162 6.37331142,3.82674162 L7.38983254,3.82674162 C7.51819897,3.82674162 7.62222004,3.93205594 7.62222004,4.0619353 C7.62222004,4.19189765 7.51819897,4.29721197 7.38983254,4.29721197 L6.37331142,4.29721197 C6.24502697,4.29721197 6.1410059,4.19189765 6.1410059,4.0619353 M5.695658,7.22958086 L4.70651517,7.22958086 C4.57823071,7.22958086 4.47420964,7.12426654 4.47420964,6.99430419 C4.47420964,6.86442483 4.57823071,6.75911051 4.70651517,6.75911051 L5.695658,6.75911051 C5.82402443,6.75911051 5.9280455,6.86442483 5.9280455,6.99430419 C5.9280455,7.12426654 5.82402443,7.22958086 5.695658,7.22958086 M4.86504689,3.82674162 L5.35679031,3.82674162 C5.48515674,3.82674162 5.58917781,3.93205594 5.58917781,4.0619353 C5.58917781,4.19189765 5.48515674,4.29721197 5.35679031,4.29721197 L4.86504689,4.29721197 C4.73668046,4.29721197 4.63265939,4.19189765 4.63265939,4.0619353 C4.63265939,3.93205594 4.73668046,3.82674162 4.86504689,3.82674162 M3.71737233,7.22958086 L3.22562891,7.22958086 C3.09726249,7.22958086 2.99324142,7.12426654 2.99324142,6.99430419 C2.99324142,6.86442483 3.09726249,6.75911051 3.22562891,6.75911051 L3.71737233,6.75911051 C3.84573876,6.75911051 3.94975983,6.86442483 3.94975983,6.99430419 C3.94975983,7.12426654 3.84573876,7.22958086 3.71737233,7.22958086 M1.64678743,6.20963368 C1.31923172,6.14564838 1.03036627,5.63633871 1.05594119,5.30006321 C1.08356539,4.93747987 1.39751393,4.53954278 1.78335095,4.51630558 C2.45813539,4.47580646 3.1369364,4.50501894 3.8329513,4.50501894 C3.59253066,5.11507848 3.36260228,5.69866421 3.09455745,6.3788503 C2.62945457,6.32797743 2.13131742,6.30424229 1.64678743,6.20963368 M20.5123078,0.219746959 C19.1267537,0.0843902585 17.9644064,0.537930645 17.010593,1.55928866 C16.8632913,1.71713565 16.6987757,1.85855062 16.5320469,2.01722751 C16.4179434,1.93440349 16.3200701,1.88245174 16.2458865,1.80668187 C15.5835616,1.1303963 14.7559834,0.7334551 13.8854525,0.444483897 C11.7109285,-0.27769514 9.55919237,-0.104412007 7.50311632,0.85196483 C6.45503641,1.33953112 5.53188015,2.07200092 4.8278321,3.02970559 C4.63413487,3.29319887 4.41133796,3.38390694 4.09763533,3.3759399 C3.44244194,3.3593419 2.78585504,3.35203878 2.13123544,3.37859558 C1.37792288,3.4091359 0.681498129,3.63329191 0.2838573,4.3367982 C-0.456667799,5.64671246 0.317793252,7.12111292 1.84056664,7.3480076 C2.22394453,7.40518771 2.60969958,7.44560385 2.99004455,7.49315712 C2.55174615,12.6852609 6.6271753,16.1881861 10.4300512,16.5206441 C15.2209223,16.9394116 19.9166253,13.0869325 19.4537356,7.34925245 C19.6203005,7.3305797 19.7899802,7.31107705 19.959742,7.29257027 C20.3777116,7.24700876 20.8308467,7.29165738 21.2076669,7.14069856 C22.6570764,6.56018347 23.4469479,5.46886488 23.5488378,3.86624486 C23.6563836,2.17457657 22.1818911,0.382822322 20.5123078,0.219746959" id="Fill-1" fill="#4A4A4A" mask="url(#mask-2)"></path>
                </g>
            </g>
        </g>
    </g>
</svg>