<svg width="16" height="23" viewBox="0 0 16 23" fill="none" xmlns="http://www.w3.org/2000/svg">
<path fill-rule="evenodd" clip-rule="evenodd" d="M5.6758 2.83789C7.24091 2.83789 8.51371 4.11069 8.51371 5.6758C8.51371 7.24091 7.24091 8.51371 5.6758 8.51371C4.11069 8.51371 2.83789 7.24091 2.83789 5.6758C2.83789 4.11069 4.11069 2.83789 5.6758 2.83789ZM5.67582 11.3516C8.80603 11.3516 11.3516 8.80603 11.3516 5.67582C11.3516 2.5456 8.80603 0 5.67582 0C2.5456 0 0 2.5456 0 5.67582C0 8.80603 2.5456 11.3516 5.67582 11.3516Z" transform="translate(13.6749) scale(-1 1)" fill="#D9D9D9"/>
<mask id="mask0" mask-type="alpha" maskUnits="userSpaceOnUse" x="0" y="10" width="16" height="13">
<path fill-rule="evenodd" clip-rule="evenodd" d="M0 0H15.9644V12.0329H0V0Z" transform="translate(16 10.8066) scale(-1 1)" fill="white"/>
</mask>
<g mask="url(#mask0)">
<path fill-rule="evenodd" clip-rule="evenodd" d="M15.5474 0.419854C14.9897 -0.139951 14.0883 -0.139951 13.5306 0.419854C10.4725 3.48944 5.49459 3.48944 2.43514 0.419854C1.87745 -0.139951 0.975959 -0.139951 0.418306 0.419854C-0.139435 0.97966 -0.139435 1.88447 0.418306 2.44571C2.19262 4.22682 4.442 5.24187 6.76118 5.50674L2.69469 9.58864C2.13704 10.1484 2.13704 11.0533 2.69469 11.6131C3.25243 12.1729 4.15383 12.1729 4.71158 11.6131L7.98212 8.33015L11.2527 11.6131C11.5309 11.8923 11.896 12.0326 12.2611 12.0326C12.6263 12.0326 12.9914 11.8923 13.2696 11.6131C13.8272 11.0533 13.8272 10.1484 13.2696 9.58864L9.20306 5.50674C11.5223 5.24187 13.7716 4.22682 15.546 2.44571C16.1037 1.88594 16.1037 0.97966 15.5474 0.419854Z" transform="translate(16 10.8066) scale(-1 1)" fill="#D9D9D9"/>
</g>
</svg>
