<?xml version="1.0" encoding="UTF-8"?>
<!DOCTYPE svg PUBLIC "-//W3C//DTD SVG 1.1//EN" "http://www.w3.org/Graphics/SVG/1.1/DTD/svg11.dtd">
<!-- Creator: CorelDRAW 2018 (64-Bit) -->
<svg xmlns="http://www.w3.org/2000/svg" xml:space="preserve" width="170mm" height="169.018mm" version="1.1" style="shape-rendering:geometricPrecision; text-rendering:geometricPrecision; image-rendering:optimizeQuality; fill-rule:evenodd; clip-rule:evenodd"
viewBox="0 0 2182.31 2169.71"
 xmlns:xlink="http://www.w3.org/1999/xlink">
 <defs>
  <style type="text/css">
   <![CDATA[
    .fil0 {fill:#FEFEFE}
   ]]>
  </style>
 </defs>
 <g id="Слой_x0020_1">
  <metadata id="CorelCorpID_0Corel-Layer"/>
  <path class="fil0" d="M1409.24 896.26l628.75 379.87c41.79,25.25 48.14,75.76 14.12,112.25l-613.79 658.16c-34.03,36.49 -96.06,45.68 -137.86,20.43l-628.75 -379.87c-41.79,-25.25 -48.14,-75.76 -14.12,-112.25l613.8 -658.16c34.03,-36.49 96.06,-45.68 137.85,-20.43zm190.33 -402.14c78.58,55.4 56.39,146.88 -33.86,226.61 -90.25,79.73 -174.81,121.85 -205.45,101.43 -30.64,-20.42 -14.93,-116.05 33.86,-226.61 48.79,-110.56 126.87,-156.83 205.46,-101.44zm-26.23 35.96c15.33,11.18 18.49,32.96 7.05,48.64 -11.44,15.68 -33.14,19.32 -48.47,8.14 -15.33,-11.18 -18.49,-32.96 -7.05,-48.64 11.44,-15.68 33.14,-19.32 48.47,-8.14zm-1095.54 992.9c-18.46,20.14 -26.58,45.88 -18.14,58.17 8.55,12.45 30.89,6.42 50.14,-13.4 -3.58,-4.04 -7,-8.4 -10.23,-13.09l-21.77 -31.68zm-404.39 -734.72c-0.6,-0.91 -1.2,-1.83 -1.83,-2.73 -17.28,-25.15 -39.15,-37.31 -48.85,-27.14 -9.69,10.16 -3.54,38.79 13.75,63.95 2.17,3.16 4.41,6.11 6.69,8.83 -23.58,-1.51 -42.45,8.43 -43.14,23.44 -0.73,15.92 19.27,31.56 44.83,35.19 -19.33,20.32 -28.01,46.94 -19.38,59.51 8.53,12.42 30.79,6.45 50.01,-13.27 -24.79,-45.93 -25.05,-104.6 -2.08,-147.77zm3.94 151.1c-18.7,20.19 -26.97,46.17 -18.47,58.53 8.44,12.29 30.33,6.57 49.41,-12.66l-24.74 -36.01c-2.2,-3.21 -4.26,-6.5 -6.19,-9.87zm33.06 48.97c-18.46,20.14 -26.58,45.88 -18.14,58.17 8.45,12.29 30.33,6.57 49.41,-12.66l-31.27 -45.51zm33.4 48.6c-18.46,20.14 -26.58,45.88 -18.14,58.17 8.44,12.29 30.33,6.57 49.41,-12.66l-31.27 -45.51zm33.4 48.61c-18.46,20.13 -26.58,45.88 -18.14,58.17 8.45,12.29 30.33,6.57 49.41,-12.66l-31.27 -45.51zm33.4 48.6c-18.46,20.14 -26.58,45.88 -18.14,58.17 8.44,12.29 30.33,6.57 49.41,-12.66l-31.27 -45.51zm33.4 48.61c-18.46,20.13 -26.58,45.88 -18.14,58.17 8.45,12.29 30.33,6.57 49.41,-12.66l-31.27 -45.51zm33.4 48.6c-18.46,20.14 -26.58,45.88 -18.14,58.17 8.44,12.29 30.33,6.57 49.41,-12.66l-31.27 -45.51zm33.4 48.61c-18.46,20.13 -26.58,45.88 -18.14,58.17 8.45,12.29 30.33,6.57 49.41,-12.66l-31.27 -45.51zm33.4 48.6c-18.46,20.14 -26.58,45.88 -18.14,58.17 8.45,12.29 30.33,6.57 49.41,-12.66l-31.27 -45.51zm33.4 48.6c-18.46,20.14 -26.58,45.88 -18.14,58.17 8.45,12.29 30.33,6.57 49.41,-12.66l-31.27 -45.51zm33.4 48.61c-18.46,20.13 -26.58,45.88 -18.14,58.17 8.45,12.29 30.33,6.57 49.41,-12.66l-31.27 -45.51zm33.4 48.61c-18.46,20.13 -26.58,45.88 -18.14,58.17 8.44,12.29 30.33,6.57 49.41,-12.66l-31.27 -45.51zm-151.19 -923.13c-17.16,-24.41 -38.54,-36.07 -48.09,-26.05 -9.55,10.02 -3.72,37.96 13,62.85l35.09 -36.8zm-35.1 36.81c-17.16,-24.41 -38.53,-36.07 -48.09,-26.05 -9.55,10.02 -3.71,37.96 13,62.85l35.09 -36.79zm613.43 -477.42c18.6,-20.16 26.8,-46.05 18.33,-58.38 -8.64,-12.58 -31.36,-6.29 -50.75,14.03 -2.17,2.27 -4.2,4.63 -6.09,7.03 0.5,-3.83 0.86,-7.81 1.05,-11.92 1.49,-32.16 -7.82,-59.62 -20.79,-61.32 -12.54,-1.65 -23.91,21.4 -25.99,52.02 -1.92,-3.48 -4.06,-6.95 -6.4,-10.35 -17.29,-25.15 -39.15,-37.3 -48.85,-27.14 -9.69,10.17 -3.54,38.8 13.75,63.95 0.46,0.67 0.93,1.33 1.39,1.98 40.28,-23.79 90.89,-12.55 124.33,30.1zm-650.89 516.7c-17.16,-24.41 -38.54,-36.07 -48.09,-26.05 -9.55,10.01 -3.72,37.96 13,62.85l35.09 -36.79zm523.67 -545.02c-0.28,-0.43 -0.58,-0.86 -0.87,-1.28 -17.29,-25.15 -39.15,-37.31 -48.85,-27.14 -9.55,10.01 -3.72,37.96 13,62.85l18.12 -19c5.82,-6.1 12.06,-11.23 18.6,-15.42zm-561.13 584.3c-17.16,-24.41 -38.54,-36.07 -48.09,-26.05 -9.55,10.01 -3.72,37.96 13,62.85l35.09 -36.79zm522.04 -547.4c-17.16,-24.41 -38.54,-36.07 -48.09,-26.05 -9.55,10.02 -3.72,37.96 13,62.85l35.09 -36.8zm-559.5 586.68c-17.16,-24.41 -38.54,-36.07 -48.09,-26.05 -9.55,10.02 -3.71,37.96 13,62.85l35.09 -36.8zm522.05 -547.4c-17.16,-24.41 -38.54,-36.06 -48.09,-26.05 -9.55,10.02 -3.72,37.96 13,62.85l35.09 -36.8zm-559.5 586.68c-17.16,-24.41 -38.54,-36.07 -48.09,-26.05 -9.69,10.16 -3.54,38.8 13.75,63.95 0.43,0.63 0.87,1.25 1.31,1.87 4.75,-8.33 10.4,-16.03 16.94,-22.89l16.1 -16.88zm522.04 -547.4c-17.16,-24.41 -38.54,-36.06 -48.09,-26.05 -9.55,10.01 -3.71,37.96 13,62.84l35.09 -36.8zm-37.46 39.28c-17.16,-24.41 -38.54,-36.07 -48.09,-26.05 -9.55,10.02 -3.72,37.96 13,62.84l35.09 -36.79zm-37.45 39.28c-17.16,-24.41 -38.54,-36.07 -48.09,-26.05 -9.55,10.02 -3.71,37.96 13,62.85l35.09 -36.79zm-37.46 39.28c-17.16,-24.41 -38.54,-36.07 -48.09,-26.05 -9.55,10.01 -3.71,37.96 13,62.84l35.09 -36.8zm-37.46 39.28c-17.16,-24.41 -38.54,-36.07 -48.09,-26.05 -9.55,10.02 -3.72,37.96 13,62.85l35.09 -36.79zm-37.46 39.28c-17.16,-24.41 -38.54,-36.07 -48.09,-26.05 -9.55,10.02 -3.71,37.96 13,62.84l35.09 -36.79zm-37.46 39.28c-17.16,-24.41 -38.54,-36.07 -48.09,-26.05 -9.55,10.02 -3.71,37.97 13,62.85l35.09 -36.79zm-37.46 39.28c-17.16,-24.41 -38.54,-36.07 -48.09,-26.05 -9.55,10.02 -3.71,37.96 13,62.85l35.09 -36.79zm-37.46 39.28c-17.16,-24.41 -38.54,-36.07 -48.09,-26.05 -9.55,10.01 -3.71,37.96 13,62.85l35.09 -36.79zm993.38 172.13c-8.45,-12.29 -30.33,-6.57 -49.41,12.66l18.04 26.25c4.53,6.58 8.47,13.53 11.85,20.74l0.07 -0.07c19.38,-20.33 28.09,-47 19.45,-59.58zm-400.78 -583.25c-8.45,-12.3 -30.38,-6.56 -49.48,12.73 0.97,1.31 1.93,2.64 2.87,4l28.47 41.44c18.46,-20.13 26.58,-45.88 18.14,-58.17zm33.4 48.6c-8.44,-12.29 -30.33,-6.57 -49.41,12.66l31.27 45.51c18.46,-20.13 26.58,-45.88 18.14,-58.17zm33.4 48.61c-8.45,-12.29 -30.33,-6.57 -49.41,12.66l31.27 45.51c18.46,-20.14 26.58,-45.88 18.14,-58.17zm33.4 48.6c-8.44,-12.29 -30.33,-6.57 -49.41,12.66l31.27 45.51c18.46,-20.14 26.58,-45.88 18.14,-58.17zm33.4 48.61c-8.44,-12.29 -30.33,-6.57 -49.41,12.66l31.27 45.51c18.46,-20.13 26.58,-45.88 18.14,-58.17zm33.4 48.61c-8.44,-12.29 -30.33,-6.57 -49.41,12.66l31.27 45.51c18.46,-20.14 26.58,-45.88 18.14,-58.17zm33.4 48.6c-8.44,-12.29 -30.33,-6.57 -49.41,12.66l31.27 45.51c18.46,-20.14 26.58,-45.88 18.14,-58.17zm33.4 48.61c-8.44,-12.29 -30.33,-6.57 -49.41,12.66l31.27 45.51c18.46,-20.13 26.58,-45.88 18.14,-58.17zm33.4 48.61c-8.44,-12.29 -30.33,-6.57 -49.41,12.66l31.27 45.51c18.46,-20.14 26.58,-45.88 18.14,-58.17zm33.4 48.6c-8.45,-12.29 -30.33,-6.57 -49.41,12.66l31.27 45.51c18.46,-20.14 26.58,-45.88 18.14,-58.17zm33.4 48.6c-8.44,-12.29 -30.33,-6.57 -49.41,12.66l31.28 45.51c18.46,-20.14 26.58,-45.88 18.14,-58.17zm33.4 48.61c-8.44,-12.29 -30.33,-6.57 -49.41,12.66l31.27 45.51c18.46,-20.13 26.58,-45.88 18.14,-58.17zm-609.16 1096.27c-19.02,19.61 -44.25,29.22 -57.01,21.51 -12.93,-7.81 -8.22,-30.46 10.44,-50.84 4.24,3.34 8.79,6.5 13.67,9.45l32.9 19.88zm757.13 360.69c0.95,0.54 1.89,1.09 2.83,1.66 26.12,15.78 39.53,36.91 29.96,47.18 -9.58,10.27 -38.52,5.8 -64.64,-9.98 -3.28,-1.98 -6.35,-4.04 -9.21,-6.16 2.89,23.45 -5.93,42.87 -20.87,44.44 -15.85,1.67 -32.64,-17.39 -37.75,-42.69 -19.15,20.49 -45.22,30.71 -58.27,22.83 -12.9,-7.79 -8.24,-30.36 10.32,-50.7 47.3,22.06 105.88,18.88 147.63,-6.57zm-151.07 4.91c-19.06,19.85 -44.52,29.63 -57.35,21.87 -12.76,-7.71 -8.33,-29.89 9.75,-50.07l37.4 22.6c3.33,2.01 6.74,3.87 10.21,5.6zm-50.82 -30.14c-19.02,19.61 -44.25,29.22 -57.01,21.51 -12.76,-7.71 -8.33,-29.89 9.75,-50.07l47.26 28.55zm-50.48 -30.49c-19.02,19.6 -44.25,29.22 -57.01,21.51 -12.76,-7.71 -8.33,-29.89 9.75,-50.07l47.26 28.56zm-50.48 -30.5c-19.02,19.61 -44.25,29.22 -57.01,21.51 -12.76,-7.71 -8.33,-29.89 9.75,-50.07l47.26 28.55zm-50.48 -30.5c-19.02,19.61 -44.25,29.22 -57.01,21.51 -12.76,-7.71 -8.33,-29.89 9.75,-50.07l47.26 28.55zm-50.47 -30.5c-19.02,19.61 -44.25,29.22 -57.01,21.51 -12.76,-7.71 -8.33,-29.89 9.75,-50.07l47.26 28.55zm-50.48 -30.5c-19.02,19.61 -44.25,29.22 -57.01,21.51 -12.76,-7.71 -8.33,-29.89 9.75,-50.07l47.26 28.55zm-50.48 -30.5c-19.02,19.61 -44.24,29.22 -57.01,21.51 -12.76,-7.71 -8.34,-29.89 9.75,-50.07l47.26 28.55zm-50.48 -30.5c-19.02,19.61 -44.25,29.22 -57.01,21.52 -12.76,-7.71 -8.33,-29.9 9.75,-50.07l47.26 28.55zm-50.48 -30.49c-19.02,19.61 -44.24,29.22 -57.01,21.51 -12.76,-7.71 -8.34,-29.89 9.74,-50.07l47.26 28.55zm-50.47 -30.5c-19.02,19.6 -44.25,29.22 -57.01,21.51 -12.76,-7.71 -8.33,-29.89 9.75,-50.07l47.26 28.55zm-50.47 -30.5c-19.02,19.61 -44.25,29.22 -57.01,21.51 -12.76,-7.71 -8.33,-29.89 9.75,-50.07l47.26 28.55zm930.39 96.89c25.38,15.7 38.26,36.36 28.82,46.48 -9.44,10.12 -37.68,5.93 -63.5,-9.3l34.68 -37.18zm-34.69 37.19c25.38,15.7 38.26,36.36 28.82,46.48 -9.44,10.12 -37.68,5.93 -63.5,-9.3l34.68 -37.18zm440.69 -640.32c19.04,-19.74 44.4,-29.45 57.21,-21.71 13.06,7.89 8.12,30.94 -11.04,51.48 -2.14,2.3 -4.37,4.47 -6.66,6.49 3.79,-0.73 7.75,-1.32 11.84,-1.75 32.02,-3.36 59.97,4.32 62.43,17.16 2.38,12.42 -19.96,25.12 -50.41,28.98 3.59,1.72 7.17,3.64 10.71,5.78 26.12,15.78 39.54,36.9 29.96,47.18 -9.58,10.27 -38.52,5.8 -64.64,-9.98 -0.7,-0.42 -1.38,-0.85 -2.06,-1.28 21.39,-41.6 7.21,-91.47 -37.33,-122.36zm-477.71 680.02c25.38,15.7 38.26,36.36 28.82,46.48 -9.44,10.12 -37.68,5.93 -63.5,-9.3l34.68 -37.18zm513.43 -554.68c0.45,0.26 0.89,0.53 1.33,0.79 26.12,15.78 39.53,36.9 29.96,47.18 -9.44,10.12 -37.68,5.93 -63.5,-9.3l17.91 -19.2c5.75,-6.17 10.51,-12.7 14.3,-19.47zm-550.45 594.38c25.37,15.7 38.26,36.36 28.82,46.48 -9.44,10.12 -37.68,5.93 -63.5,-9.3l34.68 -37.18zm515.9 -553.19c25.37,15.7 38.26,36.36 28.82,46.48 -9.44,10.12 -37.68,5.93 -63.5,-9.3l34.68 -37.18zm-552.92 592.89c25.38,15.7 38.26,36.36 28.82,46.48 -9.44,10.12 -37.68,5.93 -63.5,-9.3l34.68 -37.18zm515.9 -553.19c25.38,15.7 38.26,36.36 28.82,46.48 -9.44,10.12 -37.68,5.93 -63.5,-9.3l34.68 -37.18zm-552.92 592.89c25.38,15.7 38.26,36.36 28.82,46.48 -9.58,10.27 -38.52,5.8 -64.64,-9.98 -0.65,-0.4 -1.3,-0.8 -1.94,-1.2 8.04,-5.23 15.39,-11.32 21.86,-18.25l15.91 -17.06zm515.9 -553.19c25.38,15.7 38.26,36.36 28.82,46.48 -9.44,10.12 -37.68,5.93 -63.5,-9.3l34.68 -37.18zm-37.02 39.69c25.38,15.7 38.26,36.36 28.82,46.48 -9.44,10.12 -37.68,5.93 -63.5,-9.3l34.68 -37.18zm-37.02 39.69c25.37,15.7 38.26,36.36 28.82,46.48 -9.44,10.12 -37.68,5.93 -63.5,-9.3l34.68 -37.18zm-37.02 39.69c25.38,15.7 38.26,36.36 28.82,46.48 -9.44,10.12 -37.68,5.93 -63.5,-9.3l34.67 -37.18zm-37.01 39.69c25.38,15.7 38.26,36.36 28.82,46.48 -9.44,10.12 -37.68,5.93 -63.5,-9.3l34.68 -37.18zm-37.02 39.69c25.38,15.7 38.26,36.36 28.82,46.48 -9.44,10.12 -37.68,5.93 -63.5,-9.3l34.67 -37.18zm-37.01 39.69c25.38,15.7 38.26,36.36 28.82,46.48 -9.44,10.12 -37.68,5.93 -63.5,-9.3l34.68 -37.18zm-37.02 39.69c25.37,15.7 38.26,36.36 28.82,46.48 -9.44,10.12 -37.68,5.93 -63.5,-9.3l34.68 -37.18zm-37.02 39.69c25.38,15.7 38.26,36.36 28.82,46.48 -9.44,10.12 -37.68,5.93 -63.5,-9.3l34.68 -37.18zm-229.99 -981.6c12.76,7.71 8.33,29.89 -9.75,50.07l-27.27 -16.47c-6.84,-4.13 -14,-7.66 -21.4,-10.61l0.07 -0.08c19.16,-20.54 45.27,-30.8 58.34,-22.91zm605.71 365.95c12.78,7.72 8.32,29.95 -9.81,50.14 -1.36,-0.89 -2.75,-1.77 -4.16,-2.63l-43.03 -26c19.02,-19.61 44.25,-29.22 57.01,-21.51zm-50.48 -30.5c12.76,7.71 8.33,29.89 -9.75,50.07l-47.26 -28.55c19.02,-19.61 44.25,-29.22 57.01,-21.51zm-50.48 -30.5c12.76,7.71 8.33,29.89 -9.75,50.07l-47.26 -28.55c19.02,-19.61 44.25,-29.22 57.01,-21.51zm-50.48 -30.49c12.76,7.71 8.34,29.89 -9.75,50.07l-47.26 -28.55c19.02,-19.61 44.25,-29.22 57.01,-21.51zm-50.48 -30.5c12.76,7.71 8.33,29.89 -9.75,50.07l-47.26 -28.55c19.02,-19.61 44.25,-29.22 57.01,-21.51zm-50.48 -30.49c12.76,7.71 8.33,29.89 -9.75,50.06l-47.26 -28.55c19.02,-19.6 44.24,-29.22 57.01,-21.51zm-50.48 -30.5c12.76,7.71 8.33,29.89 -9.74,50.07l-47.26 -28.55c19.02,-19.61 44.25,-29.22 57.01,-21.51zm-50.48 -30.5c12.76,7.71 8.33,29.89 -9.75,50.07l-47.26 -28.55c19.02,-19.6 44.25,-29.22 57.01,-21.51zm-50.48 -30.49c12.76,7.71 8.33,29.89 -9.75,50.07l-47.26 -28.55c19.02,-19.61 44.24,-29.22 57.01,-21.51zm-50.48 -30.5c12.76,7.71 8.33,29.89 -9.74,50.07l-47.26 -28.55c19.02,-19.61 44.25,-29.22 57.01,-21.51zm-50.47 -30.5c12.76,7.71 8.33,29.89 -9.75,50.07l-47.26 -28.56c19.02,-19.6 44.25,-29.22 57.01,-21.51zm-50.48 -30.5c12.76,7.71 8.33,29.89 -9.75,50.07l-47.26 -28.55c19.02,-19.61 44.25,-29.22 57.01,-21.51zm-250.58 -120.8l-416.03 -605.43c-27.65,-40.24 -78.45,-43.63 -112.88,-7.52l-621.1 651.27c-34.43,36.11 -39.98,98.57 -12.33,138.81l416.03 605.43c27.65,40.24 78.45,43.63 112.88,7.52l621.1 -651.27c34.43,-36.11 39.98,-98.57 12.33,-138.81zm-304.42 711.16c-32.7,-3.13 -76.33,-2.18 -91.71,19.7 -20.31,28.9 10.45,91.83 25.11,116.93 44.94,76.9 120.52,146.73 192.8,197.53 72.28,50.79 163.58,98.26 251.16,114.49 28.58,5.3 98.21,12.92 118.52,-15.98 11.27,-16.03 6.82,-42.53 -1.88,-67.24 -81.06,-15.89 -177.25,-58.18 -270.19,-123.5 -106,-74.5 -185.27,-163.13 -223.82,-241.92zm264.02 -282.35c-32.7,-3.13 -76.33,-2.18 -91.71,19.7 -20.31,28.9 10.45,91.83 25.11,116.93 44.94,76.9 120.53,146.73 192.8,197.53 72.28,50.8 163.58,98.26 251.16,114.49 28.58,5.3 98.21,12.92 118.52,-15.98 11.27,-16.03 6.82,-42.53 -1.88,-67.24 -81.06,-15.89 -177.25,-58.18 -270.19,-123.5 -106,-74.5 -185.27,-163.13 -223.82,-241.92zm409.98 -22.97c-72.28,-50.8 -163.59,-98.26 -251.16,-114.49 -28.58,-5.3 -98.21,-12.92 -118.52,15.98 -20.31,28.9 10.45,91.83 25.11,116.92 44.94,76.9 120.53,146.73 192.8,197.53 72.28,50.8 163.59,98.26 251.16,114.49 28.58,5.3 98.21,12.92 118.52,-15.98 20.31,-28.9 -10.45,-91.83 -25.11,-116.93 -44.94,-76.9 -120.53,-146.73 -192.8,-197.53zm-541.99 164.14c-32.7,-3.13 -76.33,-2.18 -91.71,19.7 -20.31,28.9 10.45,91.83 25.11,116.93 44.94,76.9 120.53,146.73 192.8,197.53 72.28,50.8 163.59,98.26 251.16,114.49 28.58,5.3 98.21,12.92 118.52,-15.98 11.27,-16.03 6.82,-42.53 -1.88,-67.24 -81.06,-15.89 -177.25,-58.18 -270.19,-123.5 -106,-74.5 -185.27,-163.13 -223.82,-241.92z"/>
 </g>
</svg>
