<?xml version="1.0" encoding="UTF-8"?>
<!DOCTYPE svg PUBLIC "-//W3C//DTD SVG 1.1//EN" "http://www.w3.org/Graphics/SVG/1.1/DTD/svg11.dtd">
<!-- Creator: CorelDRAW 2018 (64-Bit) -->
<svg xmlns="http://www.w3.org/2000/svg" xml:space="preserve" width="170.139mm" height="157.548mm" version="1.1" style="shape-rendering:geometricPrecision; text-rendering:geometricPrecision; image-rendering:optimizeQuality; fill-rule:evenodd; clip-rule:evenodd"
viewBox="0 0 1273.8 1179.53"
 xmlns:xlink="http://www.w3.org/1999/xlink">
 <defs>
  <style type="text/css">
   <![CDATA[
    .fil0 {fill:#FEFEFE}
   ]]>
  </style>
 </defs>
 <g id="Слой_x0020_1">
  <metadata id="CorelCorpID_0Corel-Layer"/>
  <path class="fil0" d="M91.09 499.07c0,0 -102.44,4.75 -90.04,141.04 12.39,136.29 67.86,450.06 67.86,450.06 0,0 20.6,99.41 129.95,88.53 109.35,-10.88 624.38,-55.25 624.38,-55.25 0,0 164.81,-11.09 114.1,-228.2 -50.71,-217.11 -118.85,-464.32 -118.85,-464.32 0,0 -28.52,-95.08 -142.62,-71.31 -114.1,23.77 -584.76,139.45 -584.76,139.45zm188.31 -69.1c40.94,-27.94 110.88,-75.15 141.31,-92.54 44.37,-25.35 93.5,-49.13 104.59,-68.14 11.09,-19.02 39.62,-77.65 68.14,-53.88 28.52,23.77 41.2,28.52 76.07,19.02 34.86,-9.51 68.14,-20.6 74.48,-57.05 6.34,-36.45 6.34,-88.74 34.86,-83.99 28.52,4.75 68.14,3.17 104.59,-4.75 36.45,-7.92 85.58,-14.26 122.02,-33.28 36.45,-19.02 69.73,-25.35 83.99,-44.37 14.26,-19.02 50.71,-9.51 60.22,0 9.51,9.51 44.37,41.2 58.63,53.88 14.26,12.68 65.49,95.08 65.49,123.61 0,28.52 -14.78,88.74 -24.29,109.34 -9.51,20.6 -22.18,68.14 -30.11,79.24 -7.92,11.09 -161.64,221.86 -206.01,335.96 -25.9,66.61 -47.48,117.54 -60.96,148.41 -3.51,-14.78 -7.06,-29.54 -10.64,-44.3 -31.82,-131.06 -65.85,-262.11 -101.66,-392.16 -0.05,-0.17 -0.09,-0.32 -0.14,-0.5 -2.07,-6.89 -5.22,-14.03 -9.07,-20.98 46.01,-21.71 156.64,-73.68 195.16,-89.83 49.13,-20.6 99.84,-45.96 131.53,-52.3 31.69,-6.34 57.05,-14.26 57.05,-14.26 0,0 -6.34,-88.74 -9.51,-112.51 -3.17,-23.77 -19.02,-55.46 -34.86,-61.8 -15.85,-6.34 -53.88,3.17 -90.33,20.6 -36.45,17.43 -91.91,36.45 -112.52,49.13 -20.6,12.68 -57.05,14.26 -85.57,22.19 -28.52,7.92 -38.03,9.51 -38.03,9.51 0,0 -42.79,34.86 -50.71,80.82 -7.92,45.96 9.27,57.57 -39.62,79.24 -2.46,1.09 -4.97,2.11 -7.5,3.08 -23.76,-5.67 -49.23,-5.02 -74.73,0.29 -8.34,1.74 -16.67,3.53 -25.01,5.35 -4.52,-2.32 -7.11,-5.26 -7.11,-8.72 0,-17.43 -7.68,-39.62 -34.62,-22.19 -14.86,9.61 -41.53,34.52 -62.48,54.94 -50.69,11.92 -101.33,24.04 -151.96,36.22 -36.9,8.88 -73.8,17.79 -110.7,26.74zm646.05 -19.64l63.39 240.88 49.13 -83.99 -34.86 -201.26 -77.65 44.37zm-150.51 329.25c3.34,10.36 59.43,250.02 58.96,261.83 -0.29,7.23 -61.51,-198.01 -63.2,-191.65 -15.62,35.95 -45.93,46.8 -87.96,50.8 -73.64,7.01 -147.3,14.78 -220.92,22.55 -1.18,26.01 -8.96,81.77 -53.78,86.62 -42.99,4.65 -71.5,-45.22 -83.65,-72.17 -83.32,8.75 -166.64,17.54 -249.95,26.36 -12.3,1.3 -23.4,-7.67 -24.7,-19.97 -1.3,-12.3 7.67,-23.4 19.97,-24.7 104.23,-11.03 208.47,-22.02 312.72,-32.94 98.61,-10.33 197.35,-21.07 296.05,-30.47 21.3,-2.03 47.32,-8.52 54.1,-31.76 2.62,-8.99 2.38,-21.86 -0.45,-30.89 -0.05,-0.15 -0.09,-0.28 -0.13,-0.43 -14.44,-47.89 -28.54,-95.92 -42.23,-144.03 -10.88,-38.21 -21.98,-76.97 -31.03,-115.65 -8.36,-35.71 -2.21,-70.86 21.85,-99.06 9.76,-11.43 24.57,-23.5 38.53,-29.63 11.33,-4.98 24.62,0.2 29.6,11.53 4.98,11.33 -0.2,24.62 -11.53,29.6 -7.64,3.36 -17.12,11.45 -22.43,17.66 -14.73,17.27 -17.37,37.93 -12.28,59.66 8.89,37.98 19.82,76.06 30.5,113.58 13.61,47.81 27.62,95.55 41.97,143.14z"/>
 </g>
</svg>
