<?xml version="1.0" encoding="UTF-8"?>
<svg width="53px" height="49px" viewBox="0 0 53 49" version="1.1" xmlns="http://www.w3.org/2000/svg" xmlns:xlink="http://www.w3.org/1999/xlink">
    <!-- Generator: Sketch 49.2 (51160) - http://www.bohemiancoding.com/sketch -->
    <title>1</title>
    <desc>Created with Sketch.</desc>
    <defs>
        <polygon id="path-1" points="0.000152774743 0.184368192 52.8912491 0.184368192 52.8912491 48.1118373 0.000152774743 48.1118373"></polygon>
    </defs>
    <g id="Page-1" stroke="none" stroke-width="1" fill="none" fill-rule="evenodd">
        <g id="00.1-Главная-Меню" transform="translate(-102.000000, -231.000000)">
            <g id="Выпадающее-меню" transform="translate(0.000000, 190.000000)">
                <g id="1" transform="translate(102.000000, 41.000000)">
                    <g id="Group-3" transform="translate(0.000000, 0.723312)">
                        <mask id="mask-2" fill="white">
                            <use xlink:href="#path-1"></use>
                        </mask>
                        <g id="Clip-2"></g>
                        <path d="M31.3435004,35.2211329 C31.1683007,33.9493464 30.332244,32.8364198 29.1875454,32.5196078 C28.2561728,32.261801 27.4773057,32.4497095 26.7184096,33.1250908 C25.6154684,34.1054829 25.4230211,36.1997095 26.471496,37.1555919 C26.5967683,37.2690632 26.7846768,37.3135439 26.9426289,37.3897967 C26.9871097,37.2345679 27.08061,37.0738925 27.0669935,36.9232026 C27.0243282,36.4584241 26.9435367,35.9963689 26.8727306,35.5352215 C26.7401961,34.6646696 27.1151053,33.931191 27.7378359,33.6270879 C28.8534858,33.0833333 30.2360203,34.2144154 30.0090777,35.3454975 C29.9164851,35.8048293 29.8111837,36.2623457 29.7530864,36.7262164 C29.7276688,36.9277415 29.8048293,37.1419753 29.8356935,37.3516703 C30.0308642,37.2218591 30.2959332,37.1356209 30.4066812,36.9549746 C30.7507262,36.3966957 31.0357662,35.802106 31.3435004,35.2211329 Z M28.0709877,48.100581 C27.2721496,48.100581 26.471496,48.1323529 25.6744735,48.0915033 C24.7276688,48.0433914 23.5965868,46.521968 23.8879811,45.6332607 C23.9705882,45.3818083 24.402687,45.1530501 24.7104212,45.0895062 C25.2006173,44.9878359 25.7216776,45.0259622 26.2291213,45.0196078 C26.6548656,45.0141612 26.922658,44.8580247 26.9362745,44.3914306 C26.9707698,43.1940813 27.0043573,41.9976398 27.0515614,40.8002905 C27.0724401,40.2692447 26.7465505,40.2138707 26.3435004,40.2456427 C25.4030501,40.3200799 24.4598765,40.3754539 23.5239651,40.4825708 C22.8567538,40.5579158 22.523602,40.379085 22.4555192,39.6428831 C22.3320625,38.2821351 22.0225127,36.9340959 21.9625999,35.5742556 C21.9045025,34.2770516 22.0324982,32.9680465 22.144154,31.6699346 C22.22313,30.7440087 22.432825,29.8307916 22.5444808,28.9057734 C22.6161946,28.3129993 21.5141612,26.7053377 20.961329,26.7225853 C20.6227306,26.7325708 20.1588598,27.0738925 19.988199,27.3943355 C19.327342,28.6334423 18.3079158,28.5626362 17.1850036,28.3293391 C16.7256718,28.2340232 16.2481845,28.1604938 15.7824982,28.179557 C15.4502542,28.1940813 15.0308642,28.2848584 14.810276,28.5045389 C13.3242556,29.9751271 11.9017792,31.5083515 10.4202977,32.9825708 C8.98874365,34.4077705 7.5462963,35.8229847 6.04121278,37.1683007 C5.0708061,38.0361293 2.15867829,38.2358388 0.995824256,36.7325708 C-0.026325345,35.4117647 -0.385802469,33.0960421 0.512890341,31.8006536 C0.732570806,31.4838417 1.08932462,31.265069 1.36891794,30.988199 C2.92211329,29.453159 4.4644154,27.9072259 6.02124183,26.3776325 C7.2167756,25.2029775 8.44135802,24.0564633 9.6305374,22.8754539 C10.8142702,21.6989833 11.9553377,20.481663 13.1399782,19.307008 C14.7176834,17.7429194 16.3044662,16.1879085 17.9157589,14.6601307 C18.7418301,13.875817 19.6141975,13.1368918 20.5010893,12.4215686 C20.7933914,12.1855483 21.1982571,11.9431736 21.546841,11.9486202 C22.7659768,11.9685911 23.3533043,11.1089325 24.0631808,10.359114 C24.8465868,9.53395062 25.6998911,8.77505447 26.5096224,7.97440087 C28.140886,6.36310821 29.7558097,4.73547567 31.3916122,3.12781409 C32.3375091,2.19916485 33.3179012,1.30501089 34.2665214,0.378177197 C34.537037,0.114015977 34.7648874,0.131263617 35.0163399,0.360929557 C35.3313362,0.646877269 35.6454248,0.933732752 35.9504357,1.23238925 C36.5695352,1.83787219 37.1859114,2.4469862 37.796841,3.0597313 C38.2788671,3.54266521 38.2507262,3.83405955 37.7587146,4.30882353 C36.1374365,5.87472767 34.5361293,7.46060276 32.9121278,9.02287582 C31.0974946,10.766703 29.2329339,12.4578794 27.4645969,14.2452796 C26.8727306,14.8425926 26.1446986,15.3809005 26.1283588,16.4557008 C26.1120189,17.538671 25.3513072,18.3465868 24.5034495,18.9793028 C23.9242919,19.4114016 23.6328976,19.8961511 23.7981118,20.6332607 C23.89252,21.0562818 23.8761801,21.5038126 23.9760349,21.9250182 C24.1966231,22.8609296 24.0577342,23.6198257 23.1508715,24.1454248 C22.7378359,24.3850763 22.630719,24.7990196 23.0555556,25.1249092 C24.5551924,26.2759622 25.0363108,27.8836238 25.166122,29.6637618 C25.1770153,29.8080973 25.1615832,29.9687727 25.2205882,30.0931373 C25.3267974,30.3182643 25.4783951,30.5206972 25.6109296,30.7331155 C25.7770516,30.5915033 25.9586057,30.4653232 26.1047567,30.3064633 C26.66122,29.706427 27.2403776,29.1218228 27.7314815,28.4709513 C27.8594771,28.3011983 27.800472,27.8418664 27.6561365,27.637618 C27.045207,26.7797749 27.0388526,26.8142702 27.8113653,26.075345 C28.5557371,25.3618373 29.2565359,24.6029412 29.9818446,23.8685548 C30.9232026,22.9153958 31.8809005,21.9794844 32.8095497,21.0145243 C33.9124909,19.8671024 34.9981845,18.7042484 36.0766158,17.5341322 C36.5840595,16.9831155 36.8972404,16.9331881 37.424655,17.4442629 C37.7541757,17.7628903 38.0546478,18.1132898 38.3396877,18.4727669 C38.5629993,18.7541757 38.7962963,18.852215 39.0577342,18.5735294 C39.7830428,17.7973856 40.4702251,16.9831155 41.2145969,16.2251271 C41.7084241,15.7213145 41.5323166,15.3482208 41.1165577,14.9433551 C40.0853304,13.9357298 40.0889615,13.8367829 41.1782861,12.7774147 C41.5332244,12.4333696 41.8554829,12.0103486 42.2803195,11.8024691 C42.5580973,11.6681191 43.1236383,11.719862 43.33878,11.9232026 C44.8148148,13.3184459 46.2336601,14.7763253 47.6706609,16.2133261 C48.9034132,17.4451707 50.1361656,18.677923 51.3680102,19.9115832 C51.6948076,20.2383805 52.0125272,20.5760712 52.3502179,20.8928831 C53.0827887,21.5791576 53.0728032,22.3643791 52.313907,23.0152505 C52.0706245,23.22313 51.8010167,23.4092229 51.5958606,23.6506899 C51.0502905,24.2897603 50.4438998,24.3669208 49.8474946,23.8140886 C49.6922658,23.6688453 49.6060276,23.4537037 49.4553377,23.302106 C49.105846,22.9517066 48.7708787,22.8418664 48.3678286,23.290305 C47.7941176,23.9293755 47.1586783,24.5112564 46.5604575,25.1285403 C46.151053,25.5515614 46.063907,25.944626 46.570443,26.4130356 C46.9734931,26.7852215 47.5281409,27.2681554 47.5381264,27.712963 C47.5490196,28.147785 46.9943718,28.6334423 46.6203704,29.0337691 C45.7643428,29.9460784 44.8592956,30.813907 43.9869281,31.7116921 C42.8712781,32.8582062 41.7583515,34.010167 40.6608569,35.1757444 C40.0726216,35.8011983 39.5279593,36.4656863 38.9488017,37.0993101 C38.4522513,37.6421569 37.7314815,37.6330792 37.1831881,37.0212418 C36.8927015,36.6980755 36.7265795,36.652687 36.4088598,36.9694989 C35.629085,37.7474582 34.8474946,38.5308642 34.0023602,39.2334786 C33.7291213,39.4604212 33.2588962,39.4867466 32.8712781,39.5330428 C32.0424837,39.6301743 31.2037037,39.6483297 30.3794481,39.7717865 C30.1198257,39.8108206 29.7657952,40.0286855 29.6768337,40.2529049 C29.1067538,41.6790123 29.3627451,43.1813725 29.390886,44.6583152 C29.3936093,44.7863108 29.6550472,44.9805737 29.8266158,45.0232389 C30.4084967,45.1675744 31.0139797,45.224764 31.5904139,45.3872549 C31.8019245,45.4471678 32.1287219,45.7312999 32.1105664,45.8756354 C31.9435367,47.1564996 31.5867829,48.2322077 30.0290487,48.0815178 C29.3818083,48.0197894 28.7236747,48.0715323 28.0709877,48.0715323 L28.0709877,48.100581 Z" id="Fill-1" fill="#FFFFFF" mask="url(#mask-2)"></path>
                    </g>
                    <path d="M47.6253631,13.2058824 C50.022785,13.2213145 51.6340777,14.5121641 51.9499818,16.7044299 C52.0271423,17.2336601 52.5137073,17.8001089 51.8592048,18.2676107 C51.7166848,18.369281 51.3862564,18.4273784 51.2918482,18.3411402 C50.3450436,17.4860203 49.4209332,16.6063907 48.5113471,15.7131445 C47.9757625,15.1875454 47.4710421,14.6292665 46.9645062,14.0746187 C46.5115287,13.5780683 46.5823348,13.3602033 47.2350218,13.2303922 C47.4456245,13.1895425 47.6662128,13.2040668 47.6253631,13.2058824" id="Fill-4" fill="#FFFFFF"></path>
                </g>
            </g>
        </g>
    </g>
</svg>