<svg width="17" height="22" viewBox="0 0 17 22" fill="none" xmlns="http://www.w3.org/2000/svg">
<path fill-rule="evenodd" clip-rule="evenodd" d="M14.2378 20.4219H15.4961C15.9019 20.4219 16.2305 20.7588 16.2305 21.1738C16.2305 21.5898 15.9019 21.9258 15.4961 21.9258H0.734375C0.328613 21.9258 0 21.5898 0 21.1738C0 20.7588 0.328613 20.4219 0.734375 20.4219H1.99268V18.1104C1.99268 15.7725 3.24463 13.624 5.51904 12.0596C5.80176 11.8652 5.97754 11.4453 5.97754 10.9629C5.97754 10.4814 5.80176 10.0615 5.51904 9.86621C3.24463 8.30273 1.99268 6.15332 1.99268 3.81543V1.50488H0.734375C0.328613 1.50488 0 1.16797 0 0.751953C0 0.336914 0.328613 0 0.734375 0H15.4961C15.9019 0 16.2305 0.336914 16.2305 0.751953C16.2305 1.16797 15.9019 1.50488 15.4961 1.50488H14.2378V3.81543C14.2378 6.15332 12.9854 8.30273 10.7119 9.86621C10.4287 10.0615 10.2529 10.4814 10.2529 10.9629C10.2529 11.4453 10.4287 11.8652 10.7114 12.0596C12.9854 13.624 14.2378 15.7725 14.2378 18.1104V20.4219ZM6.3374 13.3096C5.26318 14.0479 3.46143 15.6543 3.46143 18.1113V20.4219H12.7695V18.1113C12.769 15.6543 10.9673 14.0479 9.89307 13.3096C9.19873 12.832 8.78418 11.9551 8.78418 10.9629C8.78418 9.97168 9.19873 9.09473 9.89307 8.61719C10.9673 7.87891 12.769 6.27246 12.769 3.81543L12.7695 1.50488H3.46143V3.81543C3.46143 6.27246 5.26318 7.87891 6.3374 8.61719C7.03174 9.09473 7.44629 9.97168 7.44629 10.9629C7.44629 11.9551 7.03174 12.832 6.3374 13.3096Z" transform="translate(0.0634766)" fill="#1EACF6"/>
</svg>
