<?xml version="1.0" encoding="UTF-8"?>
<!DOCTYPE svg PUBLIC "-//W3C//DTD SVG 1.1//EN" "http://www.w3.org/Graphics/SVG/1.1/DTD/svg11.dtd">
<!-- Creator: CorelDRAW 2018 (64-Bit) -->
<svg xmlns="http://www.w3.org/2000/svg" xml:space="preserve" width="171.315mm" height="170mm" version="1.1" style="shape-rendering:geometricPrecision; text-rendering:geometricPrecision; image-rendering:optimizeQuality; fill-rule:evenodd; clip-rule:evenodd"
viewBox="0 0 1847.27 1833.09"
 xmlns:xlink="http://www.w3.org/1999/xlink">
 <defs>
  <style type="text/css">
   <![CDATA[
    .fil0 {fill:#FEFEFE}
   ]]>
  </style>
 </defs>
 <g id="Слой_x0020_1">
  <metadata id="CorelCorpID_0Corel-Layer"/>
  <path class="fil0" d="M1838.59 1261.56c-13.04,-166.28 -96.02,-300.55 -197.01,-333.9l-6.17 -78.64c-2.23,-28.49 -27.43,-49.97 -56,-47.74l-0 0c-28.57,2.23 -50.12,27.35 -47.88,55.84l5.75 73.31c-102.6,40.77 -170.49,192.37 -156.81,366.86l458.12 -35.72zm6.82 50.63c13.04,166.28 -48.01,311.78 -142.57,360.37l6.17 78.64c2.23,28.48 -19.24,55.84 -47.88,55.84l-0 0c-28.65,0 -53.77,-19.26 -56,-47.74l-5.75 -73.31c-107.7,-24.37 -198.4,-163.6 -212.09,-338.09l458.12 -35.72zm-333.14 -1265c44.01,-7.53 93.98,15.64 127.9,42.02 9.75,-2.65 19.5,-4.37 28.73,-4.98 76.18,-5.01 125.22,52.8 153.54,116.59 17.21,38.76 26.46,78.64 24.59,121.16 -3.08,69.8 -36.3,135.93 -69.77,195.86 -21.31,38.15 -43.93,75.64 -65.96,113.38 -25.28,43.31 -49.87,86.9 -73.1,131.33 -18.33,-11.11 -40.14,-16.82 -62.97,-15.04 -0.72,0.06 -1.43,0.12 -2.14,0.19 1.19,-2.33 2.38,-4.66 3.59,-6.99 24.91,-48.08 51.41,-95.17 78.71,-141.94 21.82,-37.39 44.25,-74.54 65.36,-112.33 27.72,-49.62 59.1,-109.44 61.66,-167.3 1.44,-32.49 -5.98,-62.63 -19.11,-92.21 -13.45,-30.3 -34.99,-66.3 -68.15,-75.98 3.84,6.61 7.25,13.42 10.12,20.4 10.43,25.38 14.45,55.68 0.54,80.62 -1.88,3.37 -4.06,6.58 -6.51,9.57 -2.45,2.99 -5.17,5.76 -8.11,8.27 -21.78,18.58 -52.3,20.64 -79.35,15.48 -16.98,-3.24 -33.66,-9.37 -49.35,-17.44 -30.94,47.55 -62.92,94.55 -96.31,140.36 -29.27,40.16 -59.93,80.02 -92.92,117.22 -10.53,11.88 -22.06,24.42 -34.26,36.49 12.02,14.45 22.17,30.46 29.17,47.48 10.43,25.37 14.45,55.68 0.54,80.62 -1.88,3.37 -4.06,6.58 -6.51,9.57 -2.45,2.99 -5.17,5.75 -8.11,8.27 -21.78,18.58 -52.3,20.64 -79.35,15.48 -29.11,-5.55 -57.3,-19.59 -81.2,-37.34 -77.86,84.38 -154.57,204.48 -207.58,296.74 18.93,18.49 35.19,40.6 45.1,64.71 10.43,25.37 14.45,55.68 0.54,80.62 -1.88,3.38 -4.06,6.58 -6.52,9.57 -2.45,2.99 -5.17,5.76 -8.11,8.27 -21.78,18.58 -52.3,20.64 -79.35,15.48 -10.35,-1.97 -20.59,-5.02 -30.55,-8.93 -18.7,55.17 -33.51,112.18 -49,166.56 -19.25,67.58 -40.08,135.3 -70.14,199 -27.39,58.04 -73.19,114.02 -116.61,161.01 -42.56,46.06 -88.76,89.53 -136.25,130.64l-100.67 0c16.83,-13.45 33.42,-27.4 49.65,-41.3 48.68,-41.71 96.19,-85.98 139.68,-133.05 38.62,-41.79 81.28,-93.14 105.65,-144.77 55.47,-117.54 77.69,-248.72 120.72,-371.35 -0.77,-0.61 -1.53,-1.22 -2.28,-1.84 -25.09,-20.45 -49.55,-49.35 -62.05,-81.19l-634.31 773.5c-62.4,69.98 -213.33,-29 -123.75,-137.84l690.87 -842.47c10.78,-13.15 27.16,-20.14 43.75,-19.38l313.21 -381.94c9.86,-12.02 25.39,-17.43 40.14,-14.98l338.72 -413.05 57.88 47.19zm-2.59 183.24c-22.55,-21.28 -43.8,-49.78 -53.21,-80.1l-265.67 323.97c1.19,3.09 2.01,6.3 2.45,9.55 34.07,0.17 69.56,15.42 97.79,34.65 12.23,-11.94 23.74,-24.54 33.72,-35.79 31.61,-35.65 61,-73.93 89.05,-112.42 33.26,-45.63 65.09,-92.47 95.87,-139.86zm35.5 -55.52c10.24,-16.28 20.36,-32.66 30.2,-49.13l1.08 -1.81c-10.13,-5.71 -20.84,-10.37 -31.45,-13.01 -6.59,-1.64 -22.84,-4.41 -28.05,1.95 -5.2,6.35 0.74,21.69 3.66,27.8 5.81,12.17 14.68,23.87 24.55,34.2zm-351.73 420.49c14.58,-13.03 29.16,-24.67 43.65,-34.63 -9.45,-5.14 -19.36,-9.31 -29.18,-11.75 -6.59,-1.64 -22.84,-4.41 -28.05,1.94 -5.2,6.35 0.74,21.69 3.66,27.79 2.71,5.68 6.09,11.26 9.93,16.65zm96.42 7.97c-2.2,1.49 -4.4,2.93 -6.61,4.31 -14.11,8.82 -28.48,19.77 -42.97,32.41 13.48,9.1 28.71,16.88 43.74,20.62 6.59,1.64 22.84,4.41 28.05,-1.95 5.2,-6.35 -0.74,-21.69 -3.66,-27.79 -4.61,-9.64 -11.13,-18.99 -18.55,-27.6zm337.16 -437.99c-9.75,16.17 -19.74,32.26 -29.83,48.25 7.84,3.88 15.91,7.03 23.94,9.03 6.59,1.64 22.84,4.41 28.05,-1.95 5.2,-6.35 -0.74,-21.69 -3.66,-27.79 -4.59,-9.62 -11.1,-18.95 -18.5,-27.54zm-751.92 889.82c7.74,-17.69 16.15,-35.1 25.41,-52.16l1.65 -3.02c-10.1,-5.69 -20.77,-10.32 -31.36,-12.96 -6.59,-1.64 -22.84,-4.41 -28.05,1.95 -5.2,6.35 0.74,21.69 3.66,27.8 6.61,13.84 17.18,27.08 28.69,38.39zm78.01 -13.37c-8.6,16.49 -16.44,33.5 -23.69,50.89 5.79,2.51 11.66,4.58 17.5,6.03 6.59,1.64 22.84,4.41 28.05,-1.95 5.2,-6.35 -0.74,-21.69 -3.66,-27.8 -4.53,-9.49 -10.92,-18.69 -18.19,-27.18zm194.38 -401.04c-11.14,-14.55 -20.53,-30.66 -26.44,-47.46l-250.21 305.12c2.04,8.07 2.14,16.47 0.37,24.5 21.44,2.69 42.87,10.59 62.34,21.13 55.8,-96.64 133.1,-216.21 213.95,-303.29z"/>
 </g>
</svg>
