<svg width="24" height="24" viewBox="0 0 24 24" fill="none" xmlns="http://www.w3.org/2000/svg">
<mask id="mask0" mask-type="alpha" maskUnits="userSpaceOnUse" x="0" y="0" width="24" height="24">
<path fill-rule="evenodd" clip-rule="evenodd" d="M0 0H24V24H0V0Z" fill="white"/>
</mask>
<g mask="url(#mask0)">
<path fill-rule="evenodd" clip-rule="evenodd" d="M22.553 10.2718L17.9704 14.2007C17.5205 14.5859 17.315 15.2228 17.4569 15.8185L18.841 21.7505C18.9144 22.0997 18.7823 22.3411 18.6943 22.4541C18.5573 22.6339 18.3519 22.7469 18.1465 22.7469C18.0194 22.7469 17.8921 22.7058 17.7552 22.6082L12.7422 19.3726C12.5026 19.2185 12.2287 19.1364 11.9451 19.1364C11.6614 19.1364 11.3827 19.2185 11.143 19.3777L6.17891 22.6185C5.86102 22.8393 5.43553 22.7417 5.21055 22.4336C5.11763 22.3052 5.01982 22.0843 5.10785 21.7608L6.49197 15.8134C6.62886 15.2228 6.42834 14.5911 5.98329 14.2059L1.46917 10.2872C1.11219 9.96363 1.21001 9.54762 1.24908 9.4295C1.28821 9.31137 1.4496 8.91591 1.91916 8.89023L7.77328 8.44854C8.35044 8.40232 8.84924 8.0274 9.06932 7.46245L11.3044 1.75648C11.4853 1.29425 11.8913 1.2583 12.0086 1.2583C12.1261 1.2583 12.532 1.29425 12.7129 1.75648L14.9479 7.46245C15.168 8.0274 15.6669 8.40232 16.244 8.44854L22.1079 8.89536C22.5677 8.92104 22.7291 9.31651 22.7682 9.43463C22.7975 9.54249 22.8953 9.95849 22.553 10.2718ZM22.1766 7.62679L16.3224 7.18511C16.2001 7.17483 16.0925 7.0978 16.0485 6.97453L13.8183 1.2737C13.5102 0.487909 12.8157 0 12.0039 0C11.192 0 10.5025 0.487909 10.1894 1.27884L7.95435 6.98481C7.90545 7.10293 7.80274 7.18511 7.68047 7.19538L1.83608 7.63706C1.04379 7.68329 0.368871 8.22769 0.109713 9.02889C-0.154434 9.84036 0.0656477 10.6929 0.691658 11.2527L5.21556 15.1765C5.30848 15.2588 5.3525 15.3923 5.32315 15.5156L3.94398 21.4423C3.78258 22.0586 3.89507 22.6955 4.25209 23.1937C4.61889 23.697 5.19111 24 5.79266 24C6.16436 24 6.52627 23.8819 6.8246 23.6713L11.7691 20.4408C11.8719 20.3741 12.0039 20.3741 12.1066 20.4408L17.1 23.661C17.413 23.8819 17.7749 24 18.1417 24C18.7042 24 19.2617 23.7175 19.6236 23.2399C20.0002 22.7468 20.1371 22.1049 20.0002 21.4629L18.6161 15.5207C18.5867 15.3923 18.6308 15.2588 18.7237 15.1765L23.3161 11.2425C23.9323 10.6878 24.1524 9.83522 23.8932 9.02375C23.6388 8.22256 22.9591 7.67302 22.1766 7.62679Z" fill="black"/>
</g>
</svg>
