<?xml version="1.0" encoding="UTF-8"?>
<!DOCTYPE svg PUBLIC "-//W3C//DTD SVG 1.1//EN" "http://www.w3.org/Graphics/SVG/1.1/DTD/svg11.dtd">
<!-- Creator: CorelDRAW 2018 (64-Bit) -->
<svg xmlns="http://www.w3.org/2000/svg" xml:space="preserve" width="165.295mm" height="170mm" version="1.1" style="shape-rendering:geometricPrecision; text-rendering:geometricPrecision; image-rendering:optimizeQuality; fill-rule:evenodd; clip-rule:evenodd"
viewBox="0 0 1207.45 1241.82"
 xmlns:xlink="http://www.w3.org/1999/xlink">
 <defs>
  <style type="text/css">
   <![CDATA[
    .fil0 {fill:#FEFEFE}
   ]]>
  </style>
 </defs>
 <g id="Слой_x0020_1">
  <metadata id="CorelCorpID_0Corel-Layer"/>
  <path class="fil0" d="M215.21 629.6c-8.55,15.07 -17.07,30.16 -25.55,45.26 -22.94,40.88 -45.72,82 -67.28,123.59 -7.87,15.19 -15.67,30.53 -22.8,46.05 -2.84,6.19 -7.64,16.05 -9.18,22.41 -7.31,35.39 -11.91,69.4 -2.53,104.87 93.38,287.89 386.73,190.85 534.75,-34.87 13.23,-20.18 329.98,-657.57 380.69,-749.83 -13.12,-16.19 -22,-36.14 -24.71,-58.35 -7.66,-62.96 37.16,-120.21 100.12,-127.87 62.96,-7.66 120.21,37.16 127.87,100.12 7.66,62.96 -37.16,120.21 -100.12,127.87 -2.82,0.34 -5.64,0.58 -8.43,0.71l-403.54 738.5c-195.02,356.9 -621.83,364.44 -686.64,24.9 -12.74,-48.21 -8.38,-92.94 1.56,-141.11 5.17,-25.06 26.5,-64.39 38.49,-87.57 22.22,-42.97 45.75,-85.45 69.45,-127.68 38.2,-68.07 77.24,-135.88 116.92,-203.16l90.25 -152.99 -41.58 547 -67.74 -197.85 0 0zm870.91 -567.94c29.38,-3.58 56.1,17.34 59.67,46.72 3.58,29.38 -17.34,56.1 -46.72,59.67 -29.38,3.58 -56.1,-17.34 -59.67,-46.72 -3.58,-29.38 17.34,-56.1 46.72,-59.67z"/>
 </g>
</svg>
