<?xml version="1.0" encoding="UTF-8"?>
<!DOCTYPE svg PUBLIC "-//W3C//DTD SVG 1.1//EN" "http://www.w3.org/Graphics/SVG/1.1/DTD/svg11.dtd">
<!-- Creator: CorelDRAW 2018 (64-Bit) -->
<svg xmlns="http://www.w3.org/2000/svg" xml:space="preserve" width="176.477mm" height="170mm" version="1.1" style="shape-rendering:geometricPrecision; text-rendering:geometricPrecision; image-rendering:optimizeQuality; fill-rule:evenodd; clip-rule:evenodd"
viewBox="0 0 359.54 346.34"
 xmlns:xlink="http://www.w3.org/1999/xlink">
 <defs>
  <style type="text/css">
   <![CDATA[
    .fil0 {fill:#FEFEFE}
   ]]>
  </style>
 </defs>
 <g id="Слой_x0020_1">
  <metadata id="CorelCorpID_0Corel-Layer"/>
  <path class="fil0" d="M0.39 287.41l2.11 54.36c0,0 0,3.92 5.01,3.92 3.22,0 16.13,0.45 16.13,0.45 0,0 2.8,-0.39 2.8,-2.01 0.01,-1.59 0.04,-14.79 0.04,-14.79 0,0 -0.24,-4.19 6.98,-3.71 6.54,0.43 7.2,4.8 7.2,4.8 0,0 0.35,9.11 0.35,11.12 0,2.01 -0.81,4.8 3.19,4.8 4,0 33.69,-0.03 33.69,-0.03 0,0 3.6,-0.8 3.6,-3.19 0,-2.39 0,-29.05 0,-29.05 0,0 -1.2,-4.39 2.4,-3.19 3.6,1.2 65.53,13.73 65.53,13.73 0,0 3.22,-0.08 3.49,3 0.25,2.9 -0.22,9.46 -0.22,9.46 0,0 0.74,1.93 3.49,2.54 3.92,0.88 17.87,2.4 17.87,2.4 0,0 4.42,-0.36 4.42,-1.97 0,-1.6 1.2,-6.79 1.2,-6.79 0,0 -0.25,-1.88 3.75,-1.48 4,0.4 8.02,-0.07 8.02,-0.07 0,0 3.21,0.81 3.21,2.41 0,1.59 1.2,7.6 1.2,7.6 0,0 0,3.71 4.27,3.42 1.65,-0.11 18.4,0.81 18.4,0.81 0,0 2.18,-0.22 2.4,-3.06 0.17,-2.18 0,-6.56 0,-6.56 0,0 0.57,-3.47 2.62,-3.47 3.92,0 20.84,-0.29 22.9,-0.07 2.05,0.22 3.92,1.97 3.92,1.97l0.77 9.45c0,0 1.34,1.56 2.94,1.97 1.6,0.4 17.66,-1.31 17.66,-1.31 0,0 2.46,-4.23 2.04,-5.01 -0.38,-0.81 3.61,-9.21 3.61,-9.21 0,0 0.39,-0.81 2.41,-1.2 1.99,-0.39 12.07,-2.8 12.07,-2.8 0,0 2.4,0.42 3.19,1.21 0.82,0.81 4.81,7.21 4.81,7.21 0,0 0,2 1.59,1.59 1.6,-0.39 16,-2.8 16,-2.8l2.41 -3.2 0.8 -8.4c0,0 0.39,-4.4 1.6,-4.4 1.2,0 10.78,-4 10.78,-4l4 0.39 4.39 7.21c0,0 1.59,0.81 2.79,0.39 1.2,-0.39 14.01,-6.4 14.01,-6.4 0,0 1.6,-3.6 1.2,-4.8 -0.39,-1.2 -3.39,-20.79 -3.39,-20.79 0,0 -2.79,-2.39 -4,-0.8 -1.2,1.59 -41.81,23.01 -84.81,27.61 -42.26,4.53 -74.22,11.8 -161.24,-14.61 -21.68,-6.57 -88.83,-11.4 -100.62,-17.61 -4.76,-2.57 -5.61,0.34 -5.01,2.96zm343.87 -46.28c-8.4,-11.61 -24.12,-18.26 -36.81,-17.8 -22.41,0.81 -22.16,11.09 -38.01,6.19 -9.78,-3.01 -14.25,-6.14 -14.25,-6.14 0,0 -3.81,34.61 -29.27,43.82 6.85,-12.17 6.24,-25.46 7.86,-38.14 2.4,-18.96 2.18,-32.05 -18.1,-35.76 -14.11,-2.58 -24.14,-3.67 -38.59,-13.3 -14.45,-9.63 -20.76,-23.48 -24.49,-53.88 -4.39,-36.01 -0.8,-98.43 -2.04,-107.54 -1.23,-9.12 -16.51,-18.58 -34.38,-18.58 -17.87,0 -32.31,11.01 -48.13,14.45 -15.81,3.43 -14.66,-0.33 -31.53,3.11 -9.63,1.97 -9.4,9.84 -9.4,35.73 0,11.15 0.67,70.46 -0.17,83.8 -0.49,7.62 -2.13,21.97 -4.63,29.63 0,0 61.47,26.59 83.06,77.61 -35.31,-43.17 -85.89,-57.55 -91.12,-57.78 -8.94,17.87 -14.27,38.58 -14.27,59.52 0,15.37 3.43,22 3.43,22 0,0 8.25,4.59 39.55,9.26 13.94,2.08 43.98,4.05 64.84,10.37 65.25,19.71 105.11,19 156.23,14.06 57.04,-5.52 88.34,-28.29 88.34,-28.29 0,0 0.61,-20.29 -8.13,-32.35zm-218.89 -217.48c4.98,0 9.03,4.03 9.03,9.01 0,4.98 -4.05,9.01 -9.03,9.01 -4.98,0 -9.03,-4.02 -9.03,-9.01 0,-4.99 4.03,-9.01 9.03,-9.01zm-0.6 39.55c4.98,0 9.03,4.03 9.03,9.01 0,4.98 -4.05,9.01 -9.03,9.01 -4.98,0 -9.03,-4.03 -9.03,-9.01 0,-4.98 4.05,-9.01 9.03,-9.01zm-7.83 46.17c0,-4.98 4.05,-9.01 9.03,-9.01 4.98,0 9.03,4.03 9.03,9.01 0,4.98 -4.05,9.03 -9.03,9.03 -4.98,0 -9.03,-4.03 -9.03,-9.03zm14.4 50.17c-4.98,0 -9.03,-4.03 -9.03,-9.01 0,-4.98 4.05,-9.01 9.03,-9.01 4.98,0 9.03,4.03 9.03,9.01 0,4.98 -4.05,9.01 -9.03,9.01zm18 32.58c-4.98,0 -9.03,-4.03 -9.03,-9.01 0,-4.98 4.05,-9.01 9.03,-9.01 4.98,0 9.03,4.03 9.03,9.01 0,4.98 -4.03,9.01 -9.03,9.01zm28.21 20.4c-4.98,0 -9.03,-4.03 -9.03,-9.01 0,-4.98 4.05,-9.01 9.03,-9.01 4.98,0 9.03,4.03 9.03,9.01 0,4.98 -4.03,9.01 -9.03,9.01zm35.31 11.36c-4.98,0 -9.01,-4.03 -9.01,-9.01 0,-4.98 4.03,-9.01 9.01,-9.01 4.98,0 9.03,4.03 9.03,9.01 0,4.98 -4.03,9.01 -9.03,9.01z"/>
 </g>
</svg>
