<?xml version="1.0" encoding="UTF-8"?>
<!DOCTYPE svg PUBLIC "-//W3C//DTD SVG 1.1//EN" "http://www.w3.org/Graphics/SVG/1.1/DTD/svg11.dtd">
<!-- Creator: CorelDRAW 2018 (64-Bit) -->
<svg xmlns="http://www.w3.org/2000/svg" xml:space="preserve" width="198.138mm" height="171.128mm" version="1.1" style="shape-rendering:geometricPrecision; text-rendering:geometricPrecision; image-rendering:optimizeQuality; fill-rule:evenodd; clip-rule:evenodd"
viewBox="0 0 580.55 501.41"
 xmlns:xlink="http://www.w3.org/1999/xlink">
 <defs>
  <style type="text/css">
   <![CDATA[
    .fil0 {fill:#FEFEFE}
   ]]>
  </style>
 </defs>
 <g id="Слой_x0020_1">
  <metadata id="CorelCorpID_0Corel-Layer"/>
  <path class="fil0" d="M23.82 438.18c0,0 4.34,32.87 33.49,6.2 29.15,-26.67 35.97,-35.35 48.37,-66.98 12.4,-31.63 12.4,-25.43 28.53,-39.07 16.12,-13.64 33.49,-36.59 55.2,-71.32 21.71,-34.73 22.95,-51.48 21.09,-94.89 -1.86,-43.41 -0.62,-111.01 79.38,-124.66 80,-13.64 138.3,-8.68 155.05,48.37 16.75,57.06 15.5,133.96 39.07,179.23 23.57,45.27 65.74,71.32 83.73,88.07 17.99,16.75 22.95,58.3 -24.81,56.44 -47.75,-1.86 -106.05,-4.96 -125.28,-25.43 -19.23,-20.47 -20.47,-25.43 -43.41,-46.51 -22.95,-21.09 -3.72,-29.77 -54.58,-30.39 -36.69,-0.45 -84.03,2.66 -107.56,4.42 5,-7 9.76,-14.37 13.93,-21.59 2.61,-4.52 5.08,-9.17 7.16,-13.96 3.79,-8.69 8.45,-17.4 13.52,-25.41 4.09,-6.45 8.96,-13.29 14.49,-18.58 2.64,-2.53 7.6,-6.68 11.56,-6.46 8.36,0.47 17.13,0.23 25.51,0.14 11.93,-0.12 23.85,-0.27 35.78,-0.17 12.31,0.1 24.83,0.38 37.08,1.56 14.29,1.37 28.64,2.35 42.98,3.04 6.27,0.3 12.57,0.57 18.85,0.7 3.23,0.07 5.91,-2.51 5.98,-5.73 0.07,-3.23 -2.51,-5.91 -5.73,-5.98 -6.18,-0.13 -12.37,-0.4 -18.54,-0.69 -14.15,-0.68 -28.32,-1.64 -42.42,-3 -12.6,-1.21 -25.45,-1.51 -38.11,-1.61 -12,-0.1 -24,0.04 -36,0.17 -8.12,0.08 -16.64,0.33 -24.73,-0.12 -21.64,-1.23 -43.52,40.34 -50.98,57.47 -1.91,4.38 -4.18,8.64 -6.56,12.78 -29.18,50.54 -56.98,120.4 -98.4,156.37 -47.13,40.93 -93.65,71.94 -112.25,32.87 -18.61,-39.07 18.61,-45.27 18.61,-45.27zm134.11 -318.15c5.48,0 9.92,6.53 9.92,14.57 0,8.05 -4.44,14.57 -9.92,14.57 -5.48,0 -9.92,-6.53 -9.92,-14.57 0,-8.05 4.44,-14.57 9.92,-14.57zm20.16 93.65c2.17,0 16.75,0 13.33,10.23 -3.41,10.23 -28.53,60.16 -39.38,71.01 -10.85,10.85 -20.62,25.76 -33.49,27.29 -12.87,1.53 -28.84,3.1 -35.04,-10.54 -6.2,-13.64 4.65,-19.23 10.85,-39.38 6.2,-20.16 17.37,-35.66 18.3,-46.2 0.93,-10.54 12.09,-10.85 12.71,-2.79 0.62,8.06 -15,36.42 -13.85,43.79 1.14,7.37 5.48,13.58 20.37,6.13 14.88,-7.44 35.97,-22.64 37.52,-32.56 1.55,-9.92 8.68,-26.98 8.68,-26.98zm-149.66 199.65c7.02,-10.3 14.4,-20.52 21.96,-30.42 3.65,-4.78 7.39,-9.53 11.29,-14.11 3.55,-4.17 7.28,-8.19 10.89,-12.3 5.08,-5.79 9.56,-11.54 13.44,-18.22 2.14,-3.68 4.04,-7.5 5.76,-11.42 3.68,1.35 7.7,1.94 11.85,2.09 -2.17,5.23 -4.63,10.33 -7.47,15.21 -4.27,7.34 -9.18,13.7 -14.76,20.06 -3.58,4.07 -7.26,8.04 -10.78,12.17 -3.77,4.42 -7.37,9.01 -10.9,13.62 -7.43,9.73 -14.68,19.79 -21.59,29.91 -1.82,2.67 -5.48,3.36 -8.14,1.54 -2.67,-1.82 -3.36,-5.48 -1.54,-8.14zm137.67 -375.65c9.81,-1.83 19.84,-2.34 27.24,0.22 4.94,1.71 9.62,4.48 13.86,7.53 7.48,5.39 15.54,13.14 21.36,20.39 2.02,2.52 1.61,6.22 -0.91,8.24 -2.52,2.02 -6.22,1.61 -8.24,-0.91 -6.79,-8.46 -19.52,-20.58 -29.91,-24.18 -10.5,-3.63 -31.52,2.11 -42.07,6.16 -5.5,7.1 -9.77,15.13 -13.16,24.29 -10.6,28.69 -9.09,85.84 -2.86,115.85 4.92,23.69 -1.98,52.26 -8.65,75.1l-0.02 0.08c-1.7,0.4 -3.24,0.46 -3.97,-0.28 -0.86,-0.87 -1.28,-2.83 -1.46,-3.99 -0.17,-3.02 5.21,-15.7 6.55,-18.97 2.43,-5.95 7.84,-18.11 7.36,-24.37 -0.36,-4.65 -2.99,-8.74 -7.47,-10.36 -0.78,-0.28 -1.58,-0.48 -2.39,-0.58 -0.05,-4.93 -0.48,-9.72 -1.42,-14.24 -6.7,-32.3 -8.07,-91.42 3.34,-122.3 7.43,-20.12 18.9,-35.61 36.78,-47.75 29.68,-20.15 70.53,-26.06 105.56,-27.36 37.35,-1.39 76.98,2.93 111.6,17.8 9.16,3.93 18.2,8.71 26.37,14.44 3.01,2.11 6.42,4.65 9.03,7.27 2.28,2.28 2.28,6.01 0,8.29 -2.28,2.28 -6.01,2.28 -8.29,0 -2.11,-2.11 -5.05,-4.26 -7.48,-5.96 -7.51,-5.27 -15.85,-9.65 -24.27,-13.26 -32.98,-14.16 -70.98,-18.18 -106.54,-16.86 -32.58,1.21 -71.76,6.58 -99.41,25.35 -0.18,0.12 -0.36,0.25 -0.55,0.37z"/>
 </g>
</svg>
