<svg width="21" height="21" viewBox="0 0 21 21" fill="none" xmlns="http://www.w3.org/2000/svg">
<mask id="mask0" mask-type="alpha" maskUnits="userSpaceOnUse" x="0" y="7" width="21" height="6">
<path fill-rule="evenodd" clip-rule="evenodd" d="M0 0H20.5214V5.8547H0V0Z" transform="translate(0 7.06396)" fill="white"/>
</mask>
<g mask="url(#mask0)">
<path fill-rule="evenodd" clip-rule="evenodd" d="M14.6495 2.92731C14.6495 3.90595 13.8547 4.70082 12.876 4.70082C11.8975 4.70082 11.1025 3.90595 11.1025 2.92731C11.1025 1.94868 11.8975 1.15381 12.876 1.15381C13.8547 1.15381 14.6495 1.94868 14.6495 2.92731ZM10.0043 2.35043H0.576923C0.25641 2.35043 0 2.60684 0 2.92735C0 3.24786 0.25641 3.50427 0.576923 3.50427H10.0043C10.2735 4.84188 11.4573 5.8547 12.8761 5.8547C14.2949 5.8547 15.4786 4.84188 15.7479 3.50427H19.9444C20.265 3.50427 20.5214 3.24786 20.5214 2.92735C20.5214 2.60684 20.265 2.35043 19.9444 2.35043H15.7479C15.4786 1.01282 14.2949 0 12.8761 0C11.4615 0 10.2735 1.00855 10.0043 2.35043Z" transform="translate(0 7.06396)" fill="#1EACF6"/>
</g>
<mask id="mask1" mask-type="alpha" maskUnits="userSpaceOnUse" x="0" y="14" width="21" height="6">
<path fill-rule="evenodd" clip-rule="evenodd" d="M0 0H20.5214V5.85469H0V0Z" transform="translate(0 14.1284)" fill="white"/>
</mask>
<g mask="url(#mask1)">
<path fill-rule="evenodd" clip-rule="evenodd" d="M9.8119 2.92731C9.8119 3.9059 9.01703 4.70082 8.0384 4.70082C7.05976 4.70082 6.26489 3.9059 6.26489 2.92731C6.26489 1.94868 7.05976 1.15381 8.0384 1.15381C9.01703 1.15381 9.8119 1.95295 9.8119 2.92731ZM5.16667 2.35043H0.576923C0.25641 2.35043 0 2.60684 0 2.92735C0 3.24786 0.25641 3.50427 0.576923 3.50427H5.16667C5.4359 4.84188 6.61966 5.8547 8.03846 5.8547C9.45726 5.8547 10.641 4.84188 10.9103 3.50427H19.9444C20.265 3.50427 20.5214 3.24786 20.5214 2.92735C20.5214 2.60684 20.265 2.35043 19.9444 2.35043H10.906C10.6368 1.01282 9.45299 0 8.03419 0C6.61539 0 5.4359 1.01282 5.16667 2.35043Z" transform="translate(0 14.1284)" fill="#1EACF6"/>
</g>
<mask id="mask2" mask-type="alpha" maskUnits="userSpaceOnUse" x="0" y="0" width="21" height="6">
<path fill-rule="evenodd" clip-rule="evenodd" d="M0 0H20.5256V5.8547H0V0Z" transform="translate(0 0.0429688)" fill="white"/>
</mask>
<g mask="url(#mask2)">
<path fill-rule="evenodd" clip-rule="evenodd" d="M9.8119 2.92731C9.8119 3.90595 9.01703 4.70082 8.0384 4.70082C7.05976 4.70082 6.26489 3.90595 6.26489 2.92731C6.26489 1.94868 7.05976 1.15381 8.0384 1.15381C9.01703 1.15381 9.8119 1.94868 9.8119 2.92731ZM5.16667 2.35043H0.576923C0.25641 2.35043 0 2.60684 0 2.92735C0 3.24786 0.25641 3.50427 0.576923 3.50427H5.16667C5.4359 4.84188 6.61966 5.8547 8.03846 5.8547C9.45726 5.8547 10.641 4.84188 10.9103 3.50427H19.9487C20.2692 3.50427 20.5256 3.24786 20.5256 2.92735C20.5256 2.60684 20.2692 2.35043 19.9487 2.35043H10.906C10.6368 1.01282 9.45299 0 8.03419 0C6.61539 0 5.4359 1.00855 5.16667 2.35043Z" transform="translate(0 0.0429688)" fill="#1EACF6"/>
</g>
</svg>
