<?xml version="1.0" encoding="UTF-8"?>
<!DOCTYPE svg PUBLIC "-//W3C//DTD SVG 1.1//EN" "http://www.w3.org/Graphics/SVG/1.1/DTD/svg11.dtd">
<!-- Creator: CorelDRAW 2018 (64-Bit) -->
<svg xmlns="http://www.w3.org/2000/svg" xml:space="preserve" width="172.714mm" height="170mm" version="1.1" style="shape-rendering:geometricPrecision; text-rendering:geometricPrecision; image-rendering:optimizeQuality; fill-rule:evenodd; clip-rule:evenodd"
viewBox="0 0 481.32 473.76"
 xmlns:xlink="http://www.w3.org/1999/xlink">
 <defs>
  <style type="text/css">
   <![CDATA[
    .fil0 {fill:white}
   ]]>
  </style>
 </defs>
 <g id="Слой_x0020_1">
  <metadata id="CorelCorpID_0Corel-Layer"/>
  <path class="fil0" d="M332.38 70.32c-24.22,0 -44.42,-17.61 -48.48,-40.7l23.94 0 0 13.94c0,5.2 4.21,9.42 9.42,9.42l30.24 0c5.2,0 9.42,-4.22 9.42,-9.42l0 -13.94 23.94 0c-4.07,23.1 -24.26,40.7 -48.48,40.7zm-124.91 125.05c-1.13,78.42 -3.96,178.37 -10.85,245.94l-50.85 0c-3.26,-35.39 -5.62,-82.86 -6.94,-113.71 -2.62,-61.57 -4.39,-133.06 -4.39,-177.89l0 -21.35 39.23 -87.76 34.72 -0c0.1,35.89 -0.03,93.3 -0.92,154.76zm-115.82 -195.38l7.88 0 108.75 0 0 21.78 -208.29 0 0 -21.78 46.46 0 45.2 0zm-33.38 473.76l-42.84 0c-0.6,-4.23 -1.17,-8.78 -1.72,-13.6l46.51 0c-0.63,5.15 -1.28,9.72 -1.95,13.6zm15.23 -324.03c0,71.04 -4.27,216.35 -11.28,291.6l-50.43 0c-10.05,-109.95 -11.57,-319.4 -11.77,-400.71l34.49 0 38.99 87.75 0 21.36zm45.43 -32.77l-29.89 0 -33.92 -76.34 97.92 -0 -34.12 76.34zm73.65 356.81l-42.9 0c-0.67,-3.92 -1.31,-8.5 -1.93,-13.6l46.73 0c-0.61,4.77 -1.24,9.32 -1.9,13.6zm257.61 -295.07l0 23.01 0 105.45 31.13 0 0 -193.29c-0.79,-30.5 -18.7,-46.67 -32.56,-56.57 -13.86,-9.9 -49.87,-21.79 -49.87,-21.79 -6.64,30.64 -33.93,53.67 -66.5,53.67 -32.44,0 -59.64,-22.84 -66.42,-53.3l-35.63 0.56 0 297.45 204.1 0 0 -17.37 0 -0.03 0 -45.17 0 -12.6 0 -114.25c2.86,2.12 12.89,4.09 15.76,5.91l0 28.32zm-220.5 -101.54l0.2 -0.23c-0.06,0.33 -0.13,0.46 -0.2,0.23zm204.73 275.56l0 18.79 -204.1 -0 0 -18.79 204.1 0z"/>
 </g>
</svg>
