<svg width="20" height="15" viewBox="0 0 20 15" fill="none" xmlns="http://www.w3.org/2000/svg">
<mask id="mask0" mask-type="alpha" maskUnits="userSpaceOnUse" x="0" y="0" width="20" height="15">
<path fill-rule="evenodd" clip-rule="evenodd" d="M0 0H19.971V14.9918H0V0Z" transform="translate(0 0.0078125)" fill="white"/>
</mask>
<g mask="url(#mask0)">
<path fill-rule="evenodd" clip-rule="evenodd" d="M18.8595 12.5828C18.8595 13.3042 18.2645 13.8912 17.533 13.8912H2.44217C1.71076 13.8912 1.11572 13.3042 1.11572 12.5828V2.41292C1.11572 1.69145 1.71076 1.10449 2.44217 1.10449H17.5289C18.2604 1.10449 18.8554 1.69145 18.8554 2.41292V12.5828H18.8595ZM17.533 0H2.44215C1.09504 0 0 1.08016 0 2.40897V12.5829C0 13.9117 1.09504 14.9918 2.44215 14.9918H17.5289C18.876 14.9918 19.971 13.9117 19.971 12.5829V2.41304C19.9752 1.08424 18.8802 0 17.533 0Z" transform="translate(0 0.0078125)" fill="white"/>
</g>
<path fill-rule="evenodd" clip-rule="evenodd" d="M10.7135 5.36848L15.7982 0.979206C16.0347 0.772165 16.0563 0.420195 15.8412 0.188309C15.6261 -0.0394364 15.2604 -0.0601405 15.0196 0.146901L8.00764 6.20493L6.63968 5.02893C6.63538 5.02479 6.63108 5.02065 6.63108 5.01651C6.60097 4.98752 6.57085 4.96268 6.53644 4.93783L0.969947 0.14276C0.729048 -0.0642813 0.363397 -0.0435772 0.148309 0.188309C-0.0667798 0.420195 -0.045271 0.772165 0.195628 0.979206L5.34055 5.40575L0.217137 10.0228C-0.0151586 10.2339 -0.0280639 10.5859 0.191326 10.8137C0.307474 10.9296 0.462338 10.9917 0.617202 10.9917C0.75916 10.9917 0.901119 10.9421 1.01296 10.8426L6.21381 6.15942L7.62479 7.37264C7.73663 7.46788 7.87429 7.51343 8.01195 7.51343C8.1496 7.51343 8.29156 7.46378 8.39911 7.3685L9.8488 6.11801L15.0196 10.8468C15.1314 10.9503 15.2777 11 15.4196 11C15.5745 11 15.725 10.9421 15.8412 10.8261C16.0606 10.6025 16.052 10.2464 15.8197 10.0352L10.7135 5.36848Z" transform="translate(2 2)" fill="white"/>
</svg>
