<?xml version="1.0" encoding="UTF-8"?>
<!DOCTYPE svg PUBLIC "-//W3C//DTD SVG 1.1//EN" "http://www.w3.org/Graphics/SVG/1.1/DTD/svg11.dtd">
<!-- Creator: CorelDRAW 2018 (64-Bit) -->
<svg xmlns="http://www.w3.org/2000/svg" xml:space="preserve" width="150.283mm" height="170mm" version="1.1" style="shape-rendering:geometricPrecision; text-rendering:geometricPrecision; image-rendering:optimizeQuality; fill-rule:evenodd; clip-rule:evenodd"
viewBox="0 0 1461.19 1652.89"
 xmlns:xlink="http://www.w3.org/1999/xlink">
 <defs>
  <style type="text/css">
   <![CDATA[
    .fil0 {fill:#FEFEFE}
   ]]>
  </style>
 </defs>
 <g id="Слой_x0020_1">
  <metadata id="CorelCorpID_0Corel-Layer"/>
  <path class="fil0" d="M467.16 200.44c-49.22,25.83 -82,-2.99 -191.7,132.47 -45.95,56.73 -83.43,127.4 -115.04,205.72 -97.64,241.94 -119.08,566.51 -123.88,834.19 -0.86,48.02 -4.73,104.48 13.19,146.49 62.01,145.42 227.97,132.8 355.02,132.09 110.87,-0.62 221.85,0.6 332.71,0.08 109.65,-0.52 219.63,-0.45 329.28,0.01 117.21,0.49 196.62,13.01 278.83,-47.14 84.09,-61.53 80.78,-145.21 78.32,-241.4 -8.39,-328.51 -35.98,-807.94 -261.09,-1057.47l-61.9 -59.03c-35.59,-28.6 -73.62,-29.65 -119.92,-45.11 -13.99,-29.36 -0.89,-92.19 -76.12,-148.78 -95.22,-71.64 -345.32,-85.46 -415.6,57.65 -17.48,35.59 -12.38,59.57 -22.11,90.23zm-467.16 -35.86l0 72.27c5.4,13.45 7.86,54.91 11.65,73.96 5.54,27.93 45.23,183.7 64.15,206.23 32.61,-98.9 34.56,-52.1 8.23,-143.96 -124.8,-435.48 119.02,-185.61 135.14,-135.7 15.67,-6.75 71.71,-53.61 89.2,-67.16 37.54,-29.1 71.11,-45.96 91.5,-61.37 -63.07,-56.78 -137.27,-84.91 -228.35,-85.63 -169.32,-1.34 -154.65,106.49 -171.53,141.37zm1461.19 80.71l0 -85.73c-6.63,-12.83 -6.92,-35.15 -18.41,-60.31 -60.3,-131.98 -302.6,-71.65 -381.54,9.39 15.11,11.93 57.37,34.67 91.58,61.57 19.27,15.15 68.98,58.39 89.05,67.09 15.33,-43.18 189.1,-226.08 169.38,-21.48 -4.81,49.93 -19.29,107.75 -33.59,154.57 -27.17,88.91 -22.53,60.98 7.66,146.58 39.51,-51.43 71.65,-262.75 75.87,-271.68zm-1110.03 688.78c-110.63,23.85 -68.3,144.71 -41.93,237.5 12.38,43.58 26.05,85.21 42.35,127.04 10.12,25.98 13.16,41.48 31.6,55.39 110.58,83.44 546.72,84.82 663.01,-7.5 47.77,-37.92 94.42,-163.51 114.91,-225.58 11.1,-33.62 30.65,-105.82 16.12,-140.68 -18.36,-44.07 -67.71,-48.92 -127.65,-48.45 -51.56,0.41 -668.32,-4.22 -698.43,2.27zm238.26 -749.2c45.49,-2.85 88.46,-5.2 134.32,-5.23 39.69,-0.02 97.22,6.6 132.75,4.11 -10.78,-68.89 -56.37,-125.39 -132.73,-128.36 -83.62,-3.25 -124.44,55.04 -134.33,129.47zm104.4 1363.85c0,-73.97 -11.74,-102.68 36.8,-102.96 49.85,-0.29 34.77,37.58 36.59,102.52 70.12,0.71 140.24,0.18 210.35,0.13 64.97,-0.05 142.07,8.75 192.29,-20.56 44.89,-26.2 72.5,-65.98 72.34,-135.26 -0.13,-61.08 4.13,-375.49 -1.82,-407.53 -9.33,-50.18 -52.71,-101.98 -90.89,-116.72 -28.49,-11 -359.06,-5.03 -418.89,-4.98 -58.43,0.05 -388.61,-5.72 -416.44,4.12 -41.11,14.53 -83.98,65.67 -93.43,114.35 -6.33,32.63 -2.22,346.79 -2.19,407.47 0.03,61.39 19.34,103.53 75.72,132.52 60.93,31.33 111.33,27.76 185.95,26.83 70.99,-0.89 142.55,0.08 213.62,0.08zm-469.37 -789.76l67.87 1.64c41.09,-389.39 458.57,-604.28 740.22,-306.94 65.97,69.64 119.18,178.67 135.44,304.83l68.66 2.4c-38.24,-390.3 -409.32,-625.67 -714.16,-464.18 -172.57,91.41 -274.08,261.4 -298.03,462.24z"/>
 </g>
</svg>
