<svg width="16" height="16" viewBox="0 0 16 16" fill="none" xmlns="http://www.w3.org/2000/svg">
<path fill-rule="evenodd" clip-rule="evenodd" d="M9.81264 9.81236C8.96971 10.6554 7.95536 11.077 6.76935 11.077C5.58354 11.077 4.56918 10.6553 3.72618 9.81236C2.88319 8.96941 2.46167 7.95515 2.46167 6.76916C2.46167 5.58333 2.88329 4.5688 3.72618 3.72596C4.56902 2.88291 5.58354 2.46143 6.76935 2.46143C7.95522 2.46143 8.96957 2.88305 9.81264 3.72596C10.6557 4.5688 11.0772 5.58333 11.0772 6.76916C11.0772 7.95515 10.6555 8.96941 9.81264 9.81236ZM15.6443 13.9039L12.3462 10.606C13.1411 9.45864 13.5387 8.17956 13.5387 6.76943C13.5387 5.85277 13.3607 4.97605 13.0048 4.13957C12.6491 3.30293 12.1683 2.5818 11.5625 1.97602C10.9568 1.37025 10.2357 0.889418 9.39928 0.533705C8.56254 0.17789 7.68593 0 6.76928 0C5.8527 0 4.97602 0.17789 4.13952 0.533705C3.30285 0.889418 2.58177 1.37025 1.976 1.97599C1.37016 2.5818 0.889407 3.30306 0.533665 4.13957C0.177888 4.97615 0 5.85277 0 6.76943C0 7.68603 0.177888 8.56242 0.533665 9.39916C0.889374 10.2356 1.37016 10.9567 1.976 11.5625C2.58177 12.1685 3.30302 12.6491 4.13952 13.005C4.97612 13.3607 5.8527 13.5386 6.76928 13.5386C8.17969 13.5386 9.45852 13.141 10.606 12.3462L13.904 15.6346C14.1348 15.8781 14.4229 16 14.7693 16C15.1026 16 15.3912 15.8782 15.6347 15.6346C15.8782 15.3911 16 15.1026 16 14.7693C16.0001 14.4298 15.8815 14.1411 15.6443 13.9039Z" fill="white"/>
</svg>
