<?xml version="1.0" encoding="UTF-8"?>
<!DOCTYPE svg PUBLIC "-//W3C//DTD SVG 1.1//EN" "http://www.w3.org/Graphics/SVG/1.1/DTD/svg11.dtd">
<!-- Creator: CorelDRAW 2018 (64-Bit) -->
<svg xmlns="http://www.w3.org/2000/svg" xml:space="preserve" width="177.116mm" height="170mm" version="1.1" style="shape-rendering:geometricPrecision; text-rendering:geometricPrecision; image-rendering:optimizeQuality; fill-rule:evenodd; clip-rule:evenodd"
viewBox="0 0 388.25 372.65"
 xmlns:xlink="http://www.w3.org/1999/xlink">
 <defs>
  <style type="text/css">
   <![CDATA[
    .fil0 {fill:white}
   ]]>
  </style>
 </defs>
 <g id="Слой_x0020_1">
  <metadata id="CorelCorpID_0Corel-Layer"/>
  <path class="fil0" d="M374.5 180.89c-9.17,-1.86 -18.37,4.24 -20.23,13.41l-9 44.42c-0.21,0.24 -0.41,0.48 -0.62,0.72 -1.01,1.18 -2.21,1.96 -3.78,1.18 -1.62,-0.81 -2.1,-2.21 -1.7,-3.95 0.08,-0.35 0.14,-0.71 0.21,-1.06 4.95,-24.5 28.64,-141.46 35.57,-175.43 0.88,-4.29 0.41,-8.29 -1.71,-12.16 -3.41,-6.21 -8.77,-9.27 -15.67,-9.21 -8.51,0.07 -14.91,5.8 -16.68,14.42 -3.63,17.77 -17.44,85.71 -20.74,101.9 -0.49,2.41 -1.83,3.5 -3.79,3.12 -1.93,-0.37 -2.77,-1.94 -2.31,-4.34 0.32,-1.65 22.24,-109.86 27.01,-133.35 1.88,-9.23 -4.26,-18.38 -13.53,-20.23 -9.48,-1.89 -18.61,4.04 -20.5,13.34 -2.72,13.36 -25.68,126.6 -26.43,130.37 -0.31,1.54 -1.03,2.71 -2.67,3.02 -2.37,0.45 -4.06,-1.52 -3.52,-4.27 1.81,-9.13 18.29,-90.07 21.42,-105.98 1.55,-7.87 -2.59,-14.63 -8.91,-18.11 -10.25,-5.64 -22.87,0.38 -25.22,11.87 -0.79,3.86 -2.02,9.92 -3.52,17.32 8.72,3.32 14.69,10.17 16.94,19.61 1.56,6.55 0.75,13.04 -2.41,19.27 -8.9,17.53 -31.11,61.43 -50.34,99.44 0.35,-0.01 0.7,-0.02 1.05,-0.02 4.26,0 8.51,1.01 12.29,2.92 6.51,3.29 11.36,8.97 13.66,16 2.3,7.02 1.76,14.48 -1.53,20.98l-0.97 1.92 -0.2 0.39 -5.66 11.18 -5.66 11.18c-1.61,3.18 -3.27,6.38 -4.88,9.47 -3.14,6.05 -6.39,12.31 -9.27,18.47 -1.44,3.08 -2.91,5.86 -4.51,8.48 -7.86,12.93 -18.61,21.64 -33.82,27.42 -1.34,0.51 -2.68,0.98 -4.03,1.45 1.64,5.61 3.29,9.81 4.42,12.37 0.57,1.3 0.73,2.75 0.44,4.14l-2.71 13.36c-0.76,3.73 1.65,7.36 5.38,8.12 0,0 32.75,1.87 43.55,4.05 11.94,2.42 47.42,14.38 47.42,14.38 3.73,0.76 7.36,-1.65 8.12,-5.38l4.5 -22.2c0.07,-0.35 0.17,-0.69 0.29,-1.03 0.17,-0.46 0.32,-0.94 0.45,-1.43 0.9,-3.43 2.64,-6.17 5.11,-8.5 16.41,-15.46 38.71,-23.26 56.94,-36.58 11.51,-8.42 18.01,-17.64 21.5,-29.89 0.74,-2.61 1.35,-5.36 1.84,-8.26 1.76,-10.39 4.2,-20.7 6.29,-31.03 4.2,-20.72 0.78,-3.85 4.98,-24.57 0.17,-0.84 0.34,-1.69 0.51,-2.53 1.86,-9.17 -4.24,-18.37 -13.41,-20.23zm-284.79 177.24c2.52,0 4.94,-1.38 6.15,-3.78l10.22 -20.21c0.16,-0.32 0.35,-0.62 0.56,-0.91 0.28,-0.4 0.55,-0.82 0.81,-1.26 1.77,-3.07 4.18,-5.25 7.18,-6.84 19.03,-10.08 41.38,-12 61.74,-19.14 0.95,-0.33 1.91,-0.68 2.85,-1.04 13.33,-5.06 22.04,-12.24 28.65,-23.12 1.41,-2.32 2.72,-4.81 3.97,-7.48 4.45,-9.55 9.54,-18.85 14.29,-28.25 9.54,-18.87 1.77,-3.5 11.32,-22.37 0.39,-0.77 0.78,-1.53 1.16,-2.3 4.22,-8.35 0.78,-18.84 -7.57,-23.07 -2.43,-1.23 -5.04,-1.81 -7.62,-1.81 -6.3,0 -12.45,3.45 -15.45,9.38l-20.46 40.44c-0.26,0.18 -0.53,0.36 -0.79,0.53 -0.73,0.49 -1.49,0.85 -2.24,0.85 -0.58,0 -1.15,-0.21 -1.72,-0.71 -1.35,-1.21 -1.44,-2.69 -0.59,-4.25 0.17,-0.32 0.32,-0.64 0.49,-0.97 6.87,-13.6 29.55,-58.46 49.77,-98.42 3.67,-7.25 7.25,-14.33 10.65,-21.04 8.61,-17.01 16,-31.6 20.39,-40.26 1.98,-3.9 2.59,-7.89 1.57,-12.18 -1.32,-5.52 -4.38,-9.42 -8.97,-11.66 -1.14,-0.56 -2.37,-1.02 -3.7,-1.37 -1.54,-0.41 -3.07,-0.61 -4.55,-0.61 -1.16,0 -2.29,0.12 -3.39,0.36 -5.01,1.07 -9.31,4.51 -11.96,9.73 -5.43,10.69 -20.95,41.32 -33.01,65.12 -6.19,12.22 -11.47,22.64 -14.01,27.63 -0.8,1.58 -1.84,2.38 -3.03,2.38 -0.46,0 -0.95,-0.12 -1.45,-0.37 -1.76,-0.86 -2.16,-2.6 -1.08,-4.79 0.35,-0.7 11.39,-22.54 24.16,-47.8 10.36,-20.48 21.85,-43.21 29.72,-58.76 3.22,-6.37 5.84,-11.54 7.52,-14.85 4.26,-8.4 0.77,-18.86 -7.68,-23.1 -2.58,-1.29 -5.31,-1.91 -7.99,-1.91 -6.3,0 -12.31,3.4 -15.32,9.34 -6.16,12.16 -58.32,115.26 -60.05,118.7 -0.66,1.32 -1.59,2.22 -3.07,2.22 -0.1,0 -0.2,-0 -0.3,-0.01 -2.4,-0.19 -3.51,-2.55 -2.26,-5.05 4.16,-8.33 41.52,-81.99 48.75,-96.51 3.58,-7.18 1.38,-14.8 -3.79,-19.82 -3.39,-3.3 -7.66,-4.86 -11.9,-4.86 -6.24,0 -12.4,3.39 -15.56,9.62 -9.16,18.05 -45.1,89.14 -53.95,106.61 -0.77,1.52 -1.86,2.31 -3.06,2.31 -0.48,0 -0.97,-0.12 -1.46,-0.38 -1.72,-0.88 -2.16,-2.54 -1.1,-4.65 3.84,-7.68 27.55,-54.24 35.32,-69.96 4.3,-8.7 0.52,-18.81 -8.17,-23.06 -2.44,-1.19 -5.02,-1.76 -7.57,-1.76 -6.26,0 -12.29,3.43 -15.41,9.43 -2.66,5.11 -82.71,164.29 -83.85,166.99 -19.36,38.27 -16.78,70.81 -15.32,80.85 0.2,1.41 -0.03,2.84 -0.67,4.11l-6.16 12.17c-1.72,3.4 -0.36,7.54 3.04,9.26 0,0 33.93,9.55 43.97,14.63 10.67,5.4 38.86,27.27 38.86,27.27 1,0.5 2.06,0.74 3.11,0.74z"/>
 </g>
</svg>
