<?xml version="1.0" encoding="UTF-8"?>
<!DOCTYPE svg PUBLIC "-//W3C//DTD SVG 1.1//EN" "http://www.w3.org/Graphics/SVG/1.1/DTD/svg11.dtd">
<!-- Creator: CorelDRAW 2018 (64-Bit) -->
<svg xmlns="http://www.w3.org/2000/svg" xml:space="preserve" width="159.417mm" height="170mm" version="1.1" style="shape-rendering:geometricPrecision; text-rendering:geometricPrecision; image-rendering:optimizeQuality; fill-rule:evenodd; clip-rule:evenodd"
viewBox="0 0 1234.36 1316.3"
 xmlns:xlink="http://www.w3.org/1999/xlink">
 <defs>
  <style type="text/css">
   <![CDATA[
    .fil0 {fill:#FEFEFE}
   ]]>
  </style>
 </defs>
 <g id="Слой_x0020_1">
  <metadata id="CorelCorpID_0Corel-Layer"/>
  <path class="fil0" d="M210.86 439.92c-8.61,11.63 -17.18,23.27 -25.73,34.92 -23.12,31.55 -46.14,63.31 -68.2,95.59 -8.06,11.79 -16.06,23.7 -23.54,35.85 -2.98,4.83 -7.94,12.53 -9.86,17.64 -9.62,28.59 -16.86,56.29 -12.67,86.62 14.38,101.19 49.48,155.74 95.72,178.02 13.54,-52.98 37.22,-109.2 71.98,-163.71 6.81,-20.24 142.07,-245.18 154.34,-263.17 22.75,-33.36 46.52,-66.17 70.4,-98.76 38.51,-52.54 77.68,-104.76 117.34,-156.5l90.19 -117.64 -89.61 448.93 -36.17 -170.73 0.01 0.01c-8.61,11.63 -17.18,23.26 -25.73,34.92 -23.12,31.55 -46.14,63.31 -68.2,95.59 -8.06,11.79 -129.68,218.21 -137.16,230.35 -2.98,4.83 -7.94,12.53 -9.86,17.65 -9.62,28.59 -46.32,99.07 -42.14,129.39 -2.27,7.99 -4.27,15.54 -6.1,22.8 122.16,-22.09 271.09,-158.47 346.74,-258.89 12.49,-16.58 303.1,-389.1 338.11,-435.05 25.48,-32.25 15.81,-113.58 49.28,-157.47 33.46,-43.89 117.92,-64.83 172.37,-25.42 54.44,39.42 58.26,124.27 24.8,168.15 -33.46,43.89 -109.66,56.97 -140.6,91.37 -35.05,45.95 -326.82,417.59 -339.49,434.04 -122,158.17 -289.67,578.67 64.81,525.13 31.01,-4.86 56.13,-19.6 81.43,-36.84 4.47,-3.26 10.59,-10.12 14.49,-14.29 9.77,-10.48 19.17,-21.4 28.42,-32.31 25.34,-29.89 49.91,-60.54 74.22,-91.23 8.98,-11.34 17.94,-22.7 26.88,-34.09l0 0 -178.17 15.56 415.17 -213.24 -89.53 118.12c-39.36,51.94 -79.37,103.58 -119.87,154.67 -25.12,31.69 -50.5,63.35 -76.69,94.21 -14.14,16.65 -37.79,45.61 -55.7,57.82 -207.11,141.08 -460.43,11.03 -435.71,-224.88 -202.46,205.5 -315.94,105.56 -303.01,-68.57 -119.4,-54.9 -188.76,-204.1 -135.87,-361.21 6.81,-20.24 28.45,-50.67 40.72,-68.66 22.75,-33.36 46.52,-66.17 70.4,-98.76 38.51,-52.54 77.68,-104.76 117.34,-156.5l90.19 -117.64 -89.61 448.93 -36.17 -170.73 0 0 0.01 0.01zm167.31 518.08c-46.46,21.72 -91.86,30.36 -134.17,28.35 5.38,64.02 64.46,34.91 134.17,-28.35zm754.7 -898.42c32.66,23.65 29.67,92.36 -10.48,115.53l-129.56 74.78 29.75 -142.17c11.97,-57.24 77.63,-71.79 110.31,-48.15l-0.01 0.01z"/>
 </g>
</svg>
