<?xml version="1.0" encoding="UTF-8"?>
<!DOCTYPE svg PUBLIC "-//W3C//DTD SVG 1.1//EN" "http://www.w3.org/Graphics/SVG/1.1/DTD/svg11.dtd">
<!-- Creator: CorelDRAW 2018 (64-Bit) -->
<svg xmlns="http://www.w3.org/2000/svg" xml:space="preserve" width="167.599mm" height="168.28mm" version="1.1" style="shape-rendering:geometricPrecision; text-rendering:geometricPrecision; image-rendering:optimizeQuality; fill-rule:evenodd; clip-rule:evenodd"
viewBox="0 0 1238.82 1243.86"
 xmlns:xlink="http://www.w3.org/1999/xlink">
 <defs>
  <style type="text/css">
   <![CDATA[
    .fil0 {fill:#FEFEFE}
   ]]>
  </style>
 </defs>
 <g id="Слой_x0020_1">
  <metadata id="CorelCorpID_0Corel-Layer"/>
  <path class="fil0" d="M162.59 1133.88c-24.86,21.36 -54.89,33.72 -91.21,24.61 -0.53,-0.13 -0.98,-0.27 -1.5,-0.46 -30.98,-11.36 -56.39,-31.91 -65.96,-64.47 -5.5,-18.69 -4.55,-36.21 -1.19,-55.14 1.97,-11.09 8.66,-24 13.6,-34.23 7.29,-15.12 15.01,-30.02 22.81,-44.88 12.51,-23.82 25.27,-47.5 38.29,-71.04l29.47 -53.31 18.69 195.76c-0.34,7.08 -5.48,12.8 -12.49,13.9 -7.01,1.09 -13.64,-2.79 -16.13,-9.43l-13.54 -36.22c-4.99,9.63 -9.9,19.31 -14.62,29.07 -2.45,5.08 -4.88,10.18 -7.09,15.36 -0.64,1.51 -1.6,3.46 -2.06,5.04 -1.67,9.49 -2.92,19.32 -0.15,28.73 4.23,14.36 8.01,18.27 22.01,23.41 0.42,0.15 0.76,0.3 1.16,0.48 3.36,1.57 6.85,2.43 10.57,2.44 29.54,0.06 64.53,-52.66 78.31,-74.55 12.15,-19.29 23.15,-39.26 34,-59.29 22.38,-41.31 44.93,-82.57 67.54,-123.76 0.04,-0.08 0.08,-0.15 0.13,-0.23 2.78,-4.86 2.25,-25.44 2.48,-31.61 0.44,-12.04 1.92,-24.43 7.81,-35.16 13.94,-25.38 48.29,-38.65 76.53,-31.32 -93.31,-113.64 -77.77,-281.48 35.27,-376 82.86,-69.28 334.75,-246.39 542.28,-328.55 -127.34,82.86 -243.15,170.08 -294.85,213.3 -113.66,95.04 -148.95,240.08 -78.82,323.97 70.14,83.88 219.14,74.84 332.8,-20.2 48.77,-40.78 163.8,-144.72 274.61,-261.46 -117.65,195.85 -355.11,420.4 -431.86,484.57 -99.08,82.84 -240.34,81.99 -337.91,5.12 5.62,16.7 5.08,35.51 -3.31,50.78 -6.24,11.36 -16.42,19.6 -26.87,26.9 -6.55,4.58 -20.38,12.89 -25.03,19.43 -22.52,40.98 -45.09,81.97 -67.82,122.82 -10.84,19.48 -21.55,39.04 -31.15,59.17 -10.75,22.53 -36.88,80.6 -21.24,104.6 2.09,3.21 4.86,5.64 8.18,7.54 0.39,0.22 0.71,0.42 1.08,0.68 12.49,8.62 18.31,9.24 32.83,4.68 9.75,-3.06 17.52,-9.56 24.9,-16.38 1.1,-1.25 2.26,-3.14 3.2,-4.51 3.2,-4.67 6.22,-9.47 9.2,-14.28 5.5,-8.89 10.84,-17.88 16.1,-26.92l-38.09 9.17c-6.94,1.67 -13.92,-1.72 -16.9,-8.21 -2.98,-6.49 -0.99,-13.99 4.81,-18.16l177.31 -92.91 -29.17 53.46c-12.89,23.62 -26.03,47.11 -39.43,70.45 -8.37,14.57 -16.82,29.1 -25.67,43.39 -6.02,9.71 -13.31,22.25 -21.62,29.95 -14.26,13.21 -28.68,23.67 -47.46,29.57 -32.36,10.16 -64.13,1.56 -91.37,-17.26 -0.46,-0.32 -0.84,-0.61 -1.26,-0.97 -12.79,-11.04 -22.15,-24.61 -27.17,-40.8 -4.63,-14.92 -5.14,-30.74 -3.02,-46.63zm1014.77 -1066.45c11.4,13.64 9.59,33.94 -4.05,45.35 -13.64,11.4 -33.94,9.59 -45.35,-4.05 -11.4,-13.64 -9.59,-33.94 4.05,-45.35 13.64,-11.41 33.94,-9.59 45.35,4.05zm-91.93 -65.48c55.92,-6.5 101.19,2.8 128.22,35.13 28.33,33.88 31.1,80.07 16.5,133.07 -21.54,24.99 -43.47,49.16 -64.8,72.18 -55.43,59.82 -113.38,117.63 -172.66,173.64 -40.03,37.82 -81.22,75.88 -123.48,111.22 -39.49,33.02 -88.44,57.9 -139.7,65.4 -38.1,5.57 -80.37,1.54 -112.56,-21.28 -7.47,-5.3 -14.21,-11.5 -20.09,-18.52 -5.88,-7.03 -10.79,-14.76 -14.67,-23.05 -16.75,-35.73 -13.24,-78.04 -1.01,-114.55 16.45,-49.12 49.61,-92.88 89.1,-125.9 42.61,-35.63 88.3,-69.47 133.29,-102.02 64.42,-46.63 130.36,-91.59 197.64,-133.99 27.07,-17.06 55.3,-34.44 84.21,-51.31zm-776.19 865.01l45.3 -36.08c1.45,-1.16 2.68,-2.54 3.72,-4.09 3.19,-4.73 4.62,-10.89 4.88,-16.52 0.33,-7.21 -2.1,-22.3 -9.36,-26.05 -7.09,-3.67 -18.17,-1.11 -24.81,2.45 -10.21,5.46 -15.96,14.55 -16.62,26.11l-3.1 54.18z"/>
 </g>
</svg>
