<?xml version="1.0" encoding="UTF-8"?>
<!DOCTYPE svg PUBLIC "-//W3C//DTD SVG 1.1//EN" "http://www.w3.org/Graphics/SVG/1.1/DTD/svg11.dtd">
<!-- Creator: CorelDRAW 2018 (64-Bit) -->
<svg xmlns="http://www.w3.org/2000/svg" xml:space="preserve" width="153.672mm" height="169.824mm" version="1.1" style="shape-rendering:geometricPrecision; text-rendering:geometricPrecision; image-rendering:optimizeQuality; fill-rule:evenodd; clip-rule:evenodd"
viewBox="0 0 267.44 295.55"
 xmlns:xlink="http://www.w3.org/1999/xlink">
 <defs>
  <style type="text/css">
   <![CDATA[
    .fil0 {fill:#FEFEFE}
   ]]>
  </style>
 </defs>
 <g id="Слой_x0020_1">
  <metadata id="CorelCorpID_0Corel-Layer"/>
  <path class="fil0" d="M2.42 110.1l14.27 -14.27c7.48,-7.48 11.41,-17.59 11.41,-28.12l0 -41.67c0,-2.75 1.88,-5.74 4.51,-6.66l46.68 -18.67c2.81,-1.35 5.87,-0.71 8.03,1.45l17.03 16.59 58.75 0 17.01 -16.56c2.19,-2.19 5.25,-2.83 8.06,-1.48l46.59 18.64c2.96,0.84 4.59,3.71 4.59,6.69l0 41.21c0,10.54 3.93,20.65 11.41,28.12l14.52 14.52c1.45,1.45 2.17,3.05 2.17,5.12l0 154.52c0,14.55 -11.47,26.02 -26.02,26.02l-215.39 0c-14.55,0 -26.02,-11.47 -26.02,-26.02l0 -154.52c0,-2.01 0.72,-3.85 2.42,-4.9zm222.41 -39.85c-0.05,-0.84 -0.07,-1.68 -0.07,-2.54l0 -1.6 -44.47 0 -2.07 4.14 46.61 0zm-0.07 -39.19l-22.36 -9.18 -14.82 29.64 37.18 0 0 -20.46zm-182.08 0l0 20.46 37.18 -0 -14.82 -29.64 -22.36 9.18zm-0.23 39.19l46.78 0 -2.07 -4.14 -44.47 0 0 1.6c0,0.85 -0.11,1.7 -0.23,2.54zm83.98 210.71l0 -136.31 -29.91 -59.81 -56.5 -0c-2.95,7.73 -7.21,14.89 -13.09,20.77l-12.35 12.35 0 151.57c0,6.52 4.92,11.44 11.44,11.44l100.4 0zm-30.17 -163.89c4.25,0 7.29,3.04 7.29,7.29l0 42.14c0,11.74 -9.6,21.34 -21.34,21.34l-28.09 -0c-11.74,0 -21.34,-9.6 -21.34,-21.34l0 -42.14c0,-4.25 3.04,-7.29 7.29,-7.29l56.19 0zm0 98.33c4.25,0 7.29,3.04 7.29,7.29l0 46.82c0,4.25 -3.04,7.29 -7.29,7.29l-56.19 0c-4.25,0 -7.29,-3.04 -7.29,-7.29l0 -46.82c0,-4.25 3.04,-7.29 7.29,-7.29l56.19 0zm-7.29 -65.02l-41.6 0 0 16.12c0,3.71 3.04,6.75 6.75,6.75l28.1 0c3.71,0 6.75,-3.04 6.75,-6.75l0 -16.12zm0 -14.59l0 -4.14 -41.6 0 0 4.14 41.6 0zm0 126.43l0 -13.51 -41.6 0 0 13.51 41.6 0zm0 -28.09l0 -4.14 -41.6 0 0 4.14 41.6 0zm-10.16 -217.47l54.91 110.27 54.91 -110.27 -1.85 -0.71 -15.63 15.2c-1.45,1.45 -3.05,2.17 -5.12,2.17l-64.62 0c-2.07,0 -3.67,-0.72 -5.1,-2.14l-15.66 -15.22 -1.85 0.71zm62.21 138.4l0 107.16 4.14 0 0 -107.16 -4.14 0zm111.84 -37.12l-12.35 -12.35c-5.96,-5.96 -10.61,-12.78 -13.2,-20.77l-56.38 0 -27.83 55.65 9.36 0c4.25,0 7.29,3.04 7.29,7.29l0 121.74c0,4.25 -3.04,7.29 -7.29,7.29l-11.44 0 0 4.14 100.4 0c6.52,0 11.44,-4.92 11.44,-11.44l0 -151.57zm-25.48 -0.88c4.25,0 7.29,3.04 7.29,7.29l0 42.14c0,11.74 -9.6,21.34 -21.34,21.34l-28.09 -0c-11.74,0 -21.34,-9.6 -21.34,-21.34l0 -42.14c0,-4.25 3.04,-7.29 7.29,-7.29l56.19 0zm0 98.33c4.25,0 7.29,3.04 7.29,7.29l0 46.82c0,4.25 -3.04,7.29 -7.29,7.29l-56.19 0c-4.25,0 -7.29,-3.04 -7.29,-7.29l0 -46.82c0,-4.25 3.04,-7.29 7.29,-7.29l56.19 0zm-7.29 -65.02l-41.6 0 0 16.12c0,3.71 3.04,6.75 6.75,6.75l28.09 0c3.71,0 6.75,-3.04 6.75,-6.75l0 -16.12zm0 -14.59l0 -4.14 -41.6 0 0 4.14 41.6 0zm0 126.43l0 -13.51 -41.6 0 0 13.51 41.6 0zm0 -28.09l0 -4.14 -41.6 0 0 4.14 41.6 0z"/>
 </g>
</svg>
