<svg width="20" height="18" viewBox="0 0 20 18" fill="none" xmlns="http://www.w3.org/2000/svg">
<path fill-rule="evenodd" clip-rule="evenodd" d="M0 0.997559C0 0.446777 0.446533 0 0.997559 0H19.0024C19.5535 0 20 0.446777 20 0.997559C20 1.54834 19.5535 1.99512 19.0024 1.99512H0.997559C0.446533 1.99512 0 1.54834 0 0.997559ZM0 16.957C0 16.4062 0.446533 15.9595 0.997559 15.9595H19.0024C19.5535 15.9595 20 16.4062 20 16.957C20 17.5078 19.5535 17.9546 19.0024 17.9546H0.997559C0.446533 17.9546 0 17.5078 0 16.957ZM0.997559 7.97998C0.446533 7.97998 0 8.42676 0 8.97754C0 9.52832 0.446533 9.9751 0.997559 9.9751H13.0024C13.5535 9.9751 14 9.52832 14 8.97754C14 8.42676 13.5535 7.97998 13.0024 7.97998H0.997559Z" fill="#1EACF6"/>
</svg>
