<?xml version="1.0" encoding="UTF-8"?>
<svg width="20px" height="20px" viewBox="0 0 20 20" version="1.1" xmlns="http://www.w3.org/2000/svg" xmlns:xlink="http://www.w3.org/1999/xlink">
    <!-- Generator: Sketch 49.2 (51160) - http://www.bohemiancoding.com/sketch -->
    <title>12</title>
    <desc>Created with Sketch.</desc>
    <defs></defs>
    <g id="Symbols" stroke="none" stroke-width="1" fill="none" fill-rule="evenodd">
        <g id="хедер" transform="translate(-1458.000000, -156.000000)" fill="#4A4A4A" fill-rule="nonzero">
            <g id="12">
                <g transform="translate(1458.000000, 156.000000)">
                    <rect id="Rectangle-path" x="3.82352941" y="11.7647059" width="2.64705882" height="1.76470588"></rect>
                    <path d="M3.82352941,14.7058824 L3.82352941,15.8823529 L4.51726774,15.8823529 C5.42046552,15.8823529 6.1832619,15.3890886 6.47058824,14.7058824 L3.82352941,14.7058824 Z" id="Shape"></path>
                    <rect id="Rectangle-path" x="13.2352941" y="11.7647059" width="2.64705882" height="1.76470588"></rect>
                    <path d="M13.2352941,14.7058824 C13.5226205,15.3890886 14.2854584,15.8823529 15.1886146,15.8823529 L15.8823529,15.8823529 L15.8823529,14.7058824 L13.2352941,14.7058824 Z" id="Shape"></path>
                    <path d="M18.4229364,7.72546875 C17.6185625,7.45816406 17.0784183,6.71238281 17.0784183,5.86957031 L17.0784183,1.95652344 C17.0784183,0.87765625 16.1944528,0 15.10783,0 L12.4803659,0 C12.3122126,0 12.1285187,0.072578125 12.0000628,0.210078125 C11.5097272,0.73515625 10.6494071,1.30433594 9.85294118,1.30433594 C8.72095554,1.30433594 7.72324861,0.226523437 7.71471111,0.217148437 C7.59797952,0.088359375 7.41546591,0 7.22547708,0 L4.59801299,0 C3.51142952,0 2.62746409,0.87765625 2.62746409,1.95652344 L2.62746409,5.86957031 C2.62746409,6.71238281 2.08735917,7.45816406 1.28337869,7.72546875 C0.515712073,7.98042969 0,8.73089844 0,9.59304688 L0,18.0434766 C-1.74719383e-16,19.1223437 0.88396543,20 1.97058824,20 C11.2483696,20 8.50893445,20 17.7352941,20 C18.8219169,20 19.7058824,19.1223437 19.7058824,18.0434766 L19.7058824,9.59304687 C19.7058824,8.73089844 19.1901309,7.98042969 18.4229364,7.72546875 Z M12.4804053,6.52175781 L13.7941176,6.52175781 C14.1567449,6.52175781 14.4509935,6.81367187 14.4509935,7.17394531 C14.4509935,7.53421875 14.1567449,7.82613281 13.7941176,7.82613281 L12.4804053,7.82613281 C12.117778,7.82613281 11.8235294,7.53421875 11.8235294,7.17394531 C11.8235294,6.81363281 12.1177387,6.52175781 12.4804053,6.52175781 Z M7.88235294,14.1304297 C7.88235294,15.9285547 6.40910345,17.3912891 4.59805233,17.3912891 L3.28433995,17.3912891 C2.92171269,17.3912891 2.62746409,17.099375 2.62746409,16.7391016 L2.62746409,11.0869531 C2.62746409,10.7266797 2.92171269,10.4347656 3.28433995,10.4347656 L7.22551642,10.4347656 C7.58814369,10.4347656 7.88239228,10.7266797 7.88239228,11.0869531 L7.88239228,14.1304297 L7.88235294,14.1304297 Z M7.22547708,7.82609375 L5.91176471,7.82609375 C5.54913744,7.82609375 5.25488885,7.53417969 5.25488885,7.17390625 C5.25488885,6.81363281 5.54913744,6.52171875 5.91176471,6.52171875 L7.22547708,6.52171875 C7.58810435,6.52171875 7.88235294,6.81363281 7.88235294,7.17390625 C7.88235294,7.53417969 7.58814369,7.82609375 7.22547708,7.82609375 Z M8.30572627,18.6956641 C8.94560582,18.1823828 9.47319957,17.5390625 9.85294118,16.8072266 C10.2326828,17.5391016 10.7602765,18.1823828 11.4001561,18.6956641 L8.30572627,18.6956641 Z M9.85207562,6.10945313 C9.2843517,5.31988281 8.38748166,3.85226563 8.03472957,2.09339844 C8.54217955,2.37613281 9.16565294,2.60871094 9.85298052,2.60871094 C10.5397966,2.60871094 11.1628373,2.37644531 11.6700512,2.09402344 C11.3161188,3.8484375 10.4190127,5.31851563 9.85207562,6.10945313 Z M17.0784183,16.7391406 C17.0784183,17.0994141 16.7841697,17.3913281 16.4215424,17.3913281 L15.10783,17.3913281 C13.2967789,17.3913281 11.8235294,15.9285938 11.8235294,14.1304688 L11.8235294,11.0869922 C11.8235294,10.7267188 12.117778,10.4348047 12.4804053,10.4348047 L16.4215817,10.4348047 C16.784209,10.4348047 17.0784576,10.7267188 17.0784576,11.0869922 L17.0784576,16.7391406 L17.0784183,16.7391406 Z" id="Shape"></path>
                </g>
            </g>
        </g>
    </g>
</svg>