<?xml version="1.0" encoding="UTF-8"?>
<svg width="23px" height="20px" viewBox="0 0 23 20" version="1.1" xmlns="http://www.w3.org/2000/svg" xmlns:xlink="http://www.w3.org/1999/xlink">
    <!-- Generator: Sketch 49.2 (51160) - http://www.bohemiancoding.com/sketch -->
    <title>10</title>
    <desc>Created with Sketch.</desc>
    <defs></defs>
    <g id="Symbols" stroke="none" stroke-width="1" fill="none" fill-rule="evenodd">
        <g id="хедер" transform="translate(-1080.000000, -155.000000)" fill="#4A4A4A" fill-rule="nonzero">
            <g id="10">
                <g transform="translate(1080.000000, 155.000000)">
                    <path d="M18.2409577,7.44779964 C18.2409577,7.3168392 18.1435681,7.20986471 18.0242466,7.20986471 L16.2687539,7.20986471 C16.1494752,7.20986471 16.0520428,7.31679227 16.0520428,7.44779964 L16.0520428,8.41150883 L18.2409577,8.41150883 L18.2409577,7.44779964 Z" id="Shape"></path>
                    <path d="M21.2186155,4.45699145 L16.7654818,4.45699145 L16.7654818,2.97134214 L16.0034002,2.97134214 L16.0034002,2.5583305 C16.0034002,1.1476753 14.8260072,0 13.3784675,0 L9.48353283,0 C8.03599312,0 6.85860011,1.1476753 6.85860011,2.5583305 L6.85860011,2.97134214 L6.09651854,2.97134214 L6.09651854,4.45699145 L1.64302767,4.45699145 C0.737299511,4.45699145 0,5.17533312 0,6.05854865 L0,8.17118001 L3.81031851,8.17118001 L3.81031851,7.27756193 C3.81031851,6.7460744 4.25344837,6.31412926 4.79869815,6.31412926 L6.63221272,6.31412926 C7.1774625,6.31412926 7.62059236,6.7460744 7.62059236,7.27756193 L7.62059236,8.17118001 L15.241274,8.17118001 L15.241274,7.27756193 C15.241274,6.7460744 15.6844039,6.31412926 16.2296537,6.31412926 L18.0631682,6.31412926 C18.608418,6.31412926 19.0515479,6.7460744 19.0515479,7.27756193 L19.0515479,8.17118001 L22.8620004,8.17118001 L22.8620004,6.05854865 C22.8620004,5.17533312 22.1247008,4.45699145 21.2186155,4.45699145 Z M12.9551186,4.45699145 L9.90683705,4.45699145 L9.90683705,2.97134214 L9.14480014,2.97134214 L9.14480014,2.39341311 C9.14480014,2.29273908 9.21146609,2.23855007 9.24004359,2.21957304 C9.26821922,2.20098773 9.34484264,2.16198906 9.44084518,2.2002478 C10.7245554,2.7172414 12.1378021,2.7172414 13.4211105,2.2002478 C13.5167558,2.16198906 13.5933346,2.20098773 13.6219121,2.21957304 C13.6504896,2.23850655 13.7171556,2.29273908 13.7171556,2.39341311 L13.7171556,2.97134214 L12.955074,2.97134214 L12.955074,4.45699145 L12.9551186,4.45699145 Z" id="Shape"></path>
                    <path d="M16.0520428,9.85587568 C16.0520428,9.98683611 16.1494324,10.0938106 16.2687539,10.0938106 L18.0242466,10.0938106 C18.1435254,10.0938106 18.2409577,9.98688305 18.2409577,9.85587568 L18.2409577,8.89216648 L16.0520428,8.89216648 L16.0520428,9.85587568 Z" id="Shape"></path>
                    <path d="M4.62104262,9.85587568 C4.62104262,9.98683611 4.71843224,10.0938106 4.83775375,10.0938106 L6.59324642,10.0938106 C6.71252519,10.0938106 6.80995755,9.98688305 6.80995755,9.85587568 L6.80995755,8.89216648 L4.62104262,8.89216648 L4.62104262,9.85587568 Z" id="Shape"></path>
                    <path d="M6.80995755,7.44779964 C6.80995755,7.3168392 6.71256794,7.20986471 6.59324642,7.20986471 L4.83775375,7.20986471 C4.71847499,7.20986471 4.62104262,7.31679227 4.62104262,7.44779964 L4.62104262,8.41150883 L6.80995755,8.41150883 L6.80995755,7.44779964 Z" id="Shape"></path>
                    <path d="M19.0516446,9.8008483 C19.0516446,10.3412688 18.6085156,10.7804739 18.0632669,10.7804739 L16.2297559,10.7804739 C15.6845072,10.7804739 15.2413782,10.3412688 15.2413782,9.8008483 L15.2413782,8.89221074 L7.62066678,8.89221074 L7.62066678,9.8008483 C7.62066678,10.3412688 7.17753778,10.7804739 6.63228907,10.7804739 L4.79877808,10.7804739 C4.25352937,10.7804739 3.81040037,10.3412688 3.81040037,9.8008483 L3.81040037,8.89221074 L0,8.89216648 L0,17.8378053 C0,18.7358655 0.737298071,19.4666347 1.64302446,19.4666347 L21.2189759,19.4666347 C22.1247023,19.4666347 22.8620004,18.7358655 22.8620004,17.8378053 L22.8620004,8.89216648 L19.0516893,8.89216648 L19.0516893,9.8008483 L19.0516446,9.8008483 Z M16.3843867,16.3154579 C16.3843867,16.8033897 15.9835434,17.2006836 15.4912523,17.2006836 L7.37070345,17.2006836 C6.87841231,17.2006836 6.477569,16.8033897 6.477569,16.3154579 L6.477569,12.7983211 C6.477569,12.3107433 6.87841231,11.9134494 7.37070345,11.9134494 L15.4912523,11.9134494 C15.9835434,11.9134494 16.3843867,12.3107433 16.3843867,12.7983211 L16.3843867,16.3154579 Z" id="Shape"></path>
                    <path d="M15.4363802,12.7374277 L7.42566421,12.7374277 C7.35426227,12.7374277 7.29638309,12.7966396 7.29638309,12.8696857 L7.29638309,16.4504308 C7.29638309,16.5234769 7.35426227,16.5826888 7.42566421,16.5826888 L15.4363361,16.5826888 C15.5073857,16.5826888 15.5656172,16.5234769 15.5656172,16.4504308 L15.5656172,12.8696857 C15.5656613,12.7966396 15.5074297,12.7374277 15.4363802,12.7374277 Z" id="Shape"></path>
                </g>
            </g>
        </g>
    </g>
</svg>