<?xml version="1.0" encoding="UTF-8"?>
<!DOCTYPE svg PUBLIC "-//W3C//DTD SVG 1.1//EN" "http://www.w3.org/Graphics/SVG/1.1/DTD/svg11.dtd">
<!-- Creator: CorelDRAW 2018 (64-Bit) -->
<svg xmlns="http://www.w3.org/2000/svg" xml:space="preserve" width="178.765mm" height="170mm" version="1.1" style="shape-rendering:geometricPrecision; text-rendering:geometricPrecision; image-rendering:optimizeQuality; fill-rule:evenodd; clip-rule:evenodd"
viewBox="0 0 1153.18 1096.64"
 xmlns:xlink="http://www.w3.org/1999/xlink">
 <defs>
  <style type="text/css">
   <![CDATA[
    .fil0 {fill:#FEFEFE}
   ]]>
  </style>
 </defs>
 <g id="Слой_x0020_1">
  <metadata id="CorelCorpID_0Corel-Layer"/>
  <path class="fil0" d="M311.73 549.36c-12.71,8.59 -25.39,17.21 -38.04,25.85 -34.26,23.4 -68.49,47.07 -101.95,71.59 -12.22,8.96 -24.44,18.07 -36.23,27.59 -4.7,3.8 -12.38,9.74 -16.14,14.2 -19.9,25.33 -37.14,50.64 -44.12,82.76 -11.05,50.86 11.12,95.89 43.64,133.96 32.58,38.13 87.31,66.1 133.62,83.22 62.95,23.28 132.7,35.58 199.79,35.77 91.45,0.27 188.23,-22.22 257.98,-84.51 12.76,-11.39 24.95,-23.41 36.63,-35.9 69.04,-73.88 122.98,-167.2 163.78,-259.37 28.26,-63.85 94.27,-160.9 20.69,-188.86 -48.29,-18.35 -57.45,-84.08 -56.07,-128.75 1.8,-58.29 20.62,-120.36 53.43,-168.7 10.64,-15.68 22.94,-30.22 36.89,-43.07l2.94 -2.7c-3.56,-16.88 -2.47,-34.95 4.11,-52.28 18.3,-48.16 72.18,-72.36 120.34,-54.06 48.16,18.3 72.36,72.18 54.06,120.34 -18.3,48.16 -72.18,72.36 -120.34,54.06 -5.81,-2.21 -11.27,-4.94 -16.35,-8.11 -5.3,5.25 -10.23,10.88 -14.8,16.78 -27.01,34.87 -42.92,81.49 -47.05,125.13 -1.64,17.32 -1.65,36.41 1.92,53.51 9.4,44.95 83.73,33.43 91.51,109 3.89,37.76 -48.95,160.39 -65.15,196.99 -44.15,99.73 -102.37,199.54 -177.07,279.48 -13.16,14.09 -26.92,27.62 -41.3,40.47 -16.31,14.56 -33.96,27.55 -52.64,38.9 -75.68,46.01 -165.94,64.24 -253.73,63.98 -125.98,-0.37 -303.01,-44.64 -388.19,-144.35 -47.69,-55.83 -75.35,-122.54 -59.33,-196.29 9.48,-43.65 30.84,-77.62 57.93,-112.09 14.09,-17.93 46.47,-40.75 65.11,-54.43 34.54,-25.36 69.9,-49.81 105.28,-73.98 57.05,-38.97 114.63,-77.39 172.51,-115.13l131.62 -85.82 -252.17 420.19 26.89 -185.37 0 0zm760.89 -489.58c18.52,7.04 27.83,27.76 20.79,46.28 -7.04,18.52 -27.76,27.83 -46.28,20.79 -18.52,-7.04 -27.83,-27.76 -20.79,-46.28 7.04,-18.52 27.76,-27.83 46.28,-20.79z"/>
 </g>
</svg>
