<?xml version="1.0" encoding="UTF-8"?>
<!DOCTYPE svg PUBLIC "-//W3C//DTD SVG 1.1//EN" "http://www.w3.org/Graphics/SVG/1.1/DTD/svg11.dtd">
<!-- Creator: CorelDRAW 2018 (64-Bit) -->
<svg xmlns="http://www.w3.org/2000/svg" xml:space="preserve" width="179.845mm" height="170mm" version="1.1" style="shape-rendering:geometricPrecision; text-rendering:geometricPrecision; image-rendering:optimizeQuality; fill-rule:evenodd; clip-rule:evenodd"
viewBox="0 0 2098.06 1983.2"
 xmlns:xlink="http://www.w3.org/1999/xlink">
 <defs>
  <style type="text/css">
   <![CDATA[
    .fil0 {fill:#FEFEFE}
   ]]>
  </style>
 </defs>
 <g id="Слой_x0020_1">
  <metadata id="CorelCorpID_0Corel-Layer"/>
  <path class="fil0" d="M295.16 921.39c-35.83,-69.62 165.37,-274.59 194.79,-340.63 -19.02,-12.47 -32.03,-22.09 -53.79,-30.08l-187.33 260.82c-37.99,70.45 -43.75,108.62 4.59,163.37 22.58,25.57 31.25,99.45 17.93,136.17 -14.43,39.77 5.65,4.3 -31.81,26.31l-64.32 430.35 -5.13 -224.41c-168.22,4.36 -144.08,-28.2 -157.51,248.89 -3.74,77.19 -17.33,197.45 -10.85,269.89 33.6,0.41 113.74,-3.86 138.24,10.02 23.7,13.43 23.47,35.94 80.74,56.79 107.59,39.18 705.05,54.37 830.81,54.32 185.09,-0.07 377.51,-12.89 561.61,-23.06 87.15,-4.81 187.72,-3.74 262.44,-30.13 56.37,-19.91 49.68,-37.7 81.09,-56.79 29.77,-18.1 100.52,-9.8 139.87,-12.14 7.12,-94.49 -10.82,-448.37 -43.8,-512.9l-124.6 -6.37 -0.75 239.97 -64.27 -419.67c-10.22,-53.32 0.06,-16.14 -34.57,-39.42 -33.28,-263.44 180.51,-101.55 -73.16,-447.84l-67.02 -92.49c-4.85,-6.62 -7.03,-10.33 -13.2,-17.1 -1.06,-1.16 -2.67,-2.86 -3.74,-3.94l-60.68 18.1c7.19,31.3 86.29,126.18 111.47,162.61 25.3,36.6 110.7,120.56 80.52,177.19 -91.77,-49.19 -310.82,-563.28 -375,-662.15 -54.67,-84.21 -127.43,-156.99 -215.74,-205.3 -122.99,-67.28 -205.72,-70.44 -329.93,-0.91 -234.15,131.06 -282.96,376.86 -423.02,623.44 -30.64,53.94 -125.28,222.76 -163.88,247.1zm700.42 681.75l106.56 -0.57 2.32 -88.42 -109.74 -2.96 0.86 91.95zm-676.51 -542.32l55.31 1.88c-17.87,225.42 -103.16,453.14 194.63,502.04 46.22,7.59 196.23,20.62 238.63,15.5l2.2 -52c-135.1,-16.46 -303.18,-0.26 -371.33,-85.19 -38.45,-47.92 -24.85,-116.16 -18.98,-180.96 5.5,-60.79 7.39,-138.28 18.97,-196.44l389.2 14.17 16.03 -47.74 100.5 3.68 -0.51 660.93 220.93 1.13 1.47 -661.33c129.33,-5.67 87.12,-11.69 98.97,19.69l10.19 23.86 384.55 -6.68c12.1,33.5 15.37,139.45 19.42,182.83 7.37,78.88 22.63,127.11 -25.22,184.99 -92.47,111.86 -276.11,49.96 -365.01,92.06l0.6 49.42c552.87,-16.6 461.52,-174.87 434.72,-518.57l54.88 -4.59c-24.92,-101.78 -20.86,-70.87 -70.47,-143.79 -158.96,-233.67 -306.03,-591.44 -383.38,-689.33 -44.63,-56.48 -156.31,-167.3 -282.01,-163.5 -114.33,3.46 -229.91,109.02 -272.35,164.64 -91.44,119.88 -213.41,451.39 -383.56,689.23 -37.75,52.76 -58.26,66.33 -68.37,144.08z"/>
 </g>
</svg>
