<?xml version="1.0" encoding="UTF-8"?>
<!DOCTYPE svg PUBLIC "-//W3C//DTD SVG 1.1//EN" "http://www.w3.org/Graphics/SVG/1.1/DTD/svg11.dtd">
<!-- Creator: CorelDRAW 2018 (64-Bit) -->
<svg xmlns="http://www.w3.org/2000/svg" xml:space="preserve" width="170mm" height="170mm" version="1.1" style="shape-rendering:geometricPrecision; text-rendering:geometricPrecision; image-rendering:optimizeQuality; fill-rule:evenodd; clip-rule:evenodd"
viewBox="0 0 2983.77 2983.77"
 xmlns:xlink="http://www.w3.org/1999/xlink">
 <defs>
  <style type="text/css">
   <![CDATA[
    .fil0 {fill:#FEFEFE}
   ]]>
  </style>
 </defs>
 <g id="Слой_x0020_1">
  <metadata id="CorelCorpID_0Corel-Layer"/>
  <path class="fil0" d="M1805.31 1114.67c-61.39,93.06 -85.4,186.19 -66.16,266.26 51.97,187.81 287.15,201.35 443.87,138.26 24.4,-9.82 50.7,-31.33 71.71,-47.52 31.05,-23.92 61.41,-48.72 91.63,-73.69 48.44,-40.02 96.44,-80.58 143.99,-121.64l107.71 -92.96 -456.46 51.31c-16.03,4.18 -26.63,18.67 -25.77,35.22 0.86,16.54 12.92,29.85 29.3,32.34l89.3 13.56c-19.62,16.03 -39.38,31.89 -59.44,47.38 -10.42,8.04 -20.92,16.03 -31.72,23.58 -120.42,84.52 -282.19,46.64 -294.1,-91.96 -14.32,-67.5 89.37,-172.79 132.8,-214.81 2.41,-2.34 4.83,-4.66 7.26,-6.98 34.59,-8.95 121.74,54.39 148.03,29.03l660.46 -637.04 -49.75 -64.55c53.62,9.19 110.77,-3.19 157.25,-39.02 88.22,-68 104.61,-194.63 36.61,-282.85 -68,-88.21 -194.63,-104.61 -282.85,-36.61 -46.48,35.83 -73.01,87.94 -77.77,142.13l-46.01 -59.69 -789.51 469.62c-17.47,10.39 30.99,103.2 19.7,119.34 -14.23,9.06 -28.59,17.94 -43.1,26.55 -51.97,30.83 -180.85,103.13 -242.2,71.55 -130.58,-47.99 -124.52,-214.02 -11.27,-307.94 10.12,-8.43 20.59,-16.45 31.1,-24.39 20.22,-15.27 40.72,-30.16 61.35,-44.86l-10.43 89.71c-1.91,16.45 7.75,31.59 23.48,36.78 15.73,5.19 32.51,-1.23 40.76,-15.59l169.69 -426.84 -118.05 79.42c-52.13,35.07 -103.89,70.7 -155.26,106.88 -32.04,22.57 -63.96,45.34 -95.22,68.99 -21.15,16.01 -48.82,35.72 -64.73,56.67 -102.12,134.57 -150.99,365.03 16.51,464.61 68.76,37.77 159.29,40.79 259.3,10.97l-86.07 103.21 21.34 28.33 -107.4 93.38c-15.11,-5.58 -31.42,-8.63 -48.44,-8.63 -61.56,0 -113.9,39.85 -133.22,95.44l-217.51 -150.73c-63.47,220.44 -109.85,399.24 -152.58,557.69 -10.38,13.47 -20.94,26.8 -31.74,39.93 -38.68,47.03 -136.02,159.71 -204.98,150.81 -140.18,-0.72 -191.34,-160.12 -116.22,-287.93 6.7,-11.46 13.87,-22.64 21.11,-33.77 13.93,-21.4 28.25,-42.53 42.76,-63.54l20.86 88.59c3.82,16.25 18.17,27.28 34.85,26.8 16.69,-0.47 30.39,-12.3 33.28,-28.74l14.5 -462.62 -84.63 115.71c-37.38,51.1 -74.21,102.6 -110.49,154.49 -22.62,32.37 -45.07,64.88 -66.58,98.01 -14.56,22.42 -34.03,50.57 -41.91,75.88 -50.65,162.51 -17.96,397.63 174.88,434.59 78.1,12.22 164.91,-15.94 249.46,-78.47 -15.13,47.23 -31.61,90.07 -46.17,127.3 -132.95,-10.03 -365.36,63.94 -744.84,271.8 -8.4,4.6 -13.03,13.19 -12.28,22.71 0.23,6.37 0.31,10.8 3.39,16.94 1.58,3.16 3.55,5.8 5.81,7.99l-2.99 2.23c-11.72,8.77 -25.78,19.32 -35.48,30.25 -8.08,9.12 -8.01,22.7 0.17,31.74l6.72 7.43c5.86,6.46 14.08,9.11 22.61,7.28 1.72,-0.37 3.59,-0.98 5.53,-1.76 -3.51,8.47 -3.75,18.02 0.97,26.17 -3.09,7.36 -2.28,16.04 2.06,22.7 2.71,6.28 7.8,10.87 14.56,13.02 3.76,1.2 6.99,1.8 9.92,1.92 -1.54,0.79 -3.14,1.59 -4.8,2.38 -11.05,5.28 -18.85,7.63 -28.4,16.58 -7.44,6.98 -9.61,17.36 -5.58,26.73 4.68,10.9 9.43,16.48 20.69,21.16 5.21,2.16 10.53,2.47 15.67,0.93 -0.94,0.86 -1.87,1.72 -2.8,2.61 -5.06,4.81 -9.52,7.01 -15.4,10.49 -10,5.93 -18.15,12.96 -26.37,21.1 -6.23,6.17 -8.51,14.58 -6.23,23.05 1.7,6.36 5.6,11.4 11.03,14.46 -0.88,1.75 -1.63,3.65 -2.28,5.77 -5.83,5.65 -9,8.32 -12.04,17.01 -0.84,2.41 -1.24,4.59 -1.33,7.14 -0.32,10.76 3.81,20.8 13.09,26.8 3.66,2.35 7.1,3.56 10.71,4.18 -0.11,0.85 -0.19,1.7 -0.24,2.55 -2.65,2.17 -4.86,4.24 -6.7,7.17l-5.79 9.2c-5.88,9.34 -4.7,21.09 2.92,29.08 8.66,9.07 20.82,12.74 32.94,9.58 2.61,2.62 5.17,4.67 8.62,6.15 -0.93,3.59 -0.98,7.43 -0.09,11.31 1.07,4.68 2.96,10.33 4.88,14.81 -1.04,2.56 -1.64,5.17 -1.61,8.57 -1.03,8.97 2.77,17.24 10.27,22.33 7.45,5.06 14.38,8.76 23.84,7.85 3.64,-0.34 6.58,-1.22 9.22,-2.46 5.75,5.46 13.51,8.34 21.41,8.11 2.16,3.72 5.06,7.08 8.5,10.01 6.75,5.74 15.56,7.26 23.67,4.19 -6.33,7.59 -12.48,15.32 -18.34,23.34 -5.74,7.84 -9.95,15 -8.06,25.41 1.35,7.42 4.28,10.29 8.53,15.54 4.71,5.83 11.2,8.9 18.7,8.83 4.91,-0.04 7.13,0.86 12.75,-0.95 8.35,-2.68 11.14,-7.46 16.32,-13.05 1.95,0.63 3.97,1.02 6.01,1.13 5.34,5.53 11.13,9.7 20.15,10.21 2.4,0.13 4.6,-0.01 6.65,-0.4 0.25,4.06 1.58,8.08 3.99,11.73 7.57,11.45 18.36,20.65 33.25,17.51 8.06,-1.7 14.1,-6.72 18.67,-13.38 2.04,-0.29 4.15,-0.76 6.08,-1.46 7.35,-2.66 9.19,-4.5 14.15,-10.12 15.91,-18.01 28.48,-38.39 43.62,-56.93 0.77,-0.95 1.62,-1.9 2.52,-2.86 1.12,1.24 2.39,2.39 3.81,3.41l11.26 8.16c9,6.53 20.93,6.06 29.39,-1.15 5.01,-4.28 9.99,-9.74 14.75,-15.52 0.8,0.36 1.62,0.67 2.45,0.93l-17.3 23.75c-3.21,3.56 -8.38,6.9 -12.28,9.43 -10.43,6.75 -21.22,12.98 -29.35,22.61 -6.37,7.53 -7.37,17.81 -2.99,26.23 -1.11,0.81 -2.19,1.62 -3.24,2.44 -7.07,5.56 -10.28,13.96 -8.72,22.82 0.38,2.16 0.77,4.18 1.28,6.07 -1.62,3.04 -3.16,6.05 -4.59,8.78 -3.46,6.61 -6.89,13.27 -10.11,19.98 -5.61,11.65 -0.85,25.69 10.69,31.52l12.46 6.31c10.94,5.53 24.16,1.93 30.76,-8.4 7.17,-11.2 13.5,-23.24 20.25,-34.74 4.82,-8.21 12.52,-21.66 19.27,-28.23l44.29 -43.15c1.58,3.45 3.75,6.66 6.4,9.57 7.03,7.7 17.73,9.94 27.26,5.69 3.93,-1.76 8.11,-4.12 12.42,-6.88 0.44,9.26 5.51,16.26 11.13,23.22 4.14,5.13 9.54,8.05 16.1,8.72 6.55,0.67 12.43,-1.11 17.52,-5.3 3.15,-2.59 6.29,-5.2 9.41,-7.82 0.56,0.23 1.13,0.45 1.71,0.66 5.49,1.9 9.05,3.17 15.35,2.1 0.81,-0.14 1.54,-0.29 2.2,-0.46 -1.36,2.19 -2.53,4.32 -3.41,6.33 -4.02,9.29 -1.94,19.61 5.37,26.62l6.43 6.16c7.14,6.84 17.16,8.57 26.18,4.52 117.22,-204.17 389.91,-669.29 314.38,-867.16 48.36,-24.74 97.44,-51.97 146.93,-81.49 -26.28,109.22 -17.11,205.69 28.57,274.97 113.61,160.15 341.1,92.37 467.98,-21.12 19.75,-17.67 37.3,-47.06 51.66,-69.6 21.22,-33.31 41.49,-67.22 61.57,-101.23 32.18,-54.53 63.76,-109.4 94.75,-164.61l70.19 -125 -414.94 205.06c-13.76,9.46 -18.84,26.83 -12.35,42.2 6.49,15.38 22.48,23.85 38.85,20.6l89.26 -17.76c-13.1,21.91 -26.39,43.71 -40.08,65.26 -7.12,11.19 -14.33,22.36 -21.97,33.21 -85.14,121.36 -251.41,140.92 -310.2,13.66 -36.7,-59.05 25.46,-194.36 52.21,-249.06 1.48,-3.04 2.98,-6.07 4.49,-9.1 156.08,-106.83 312.78,-234.06 460.51,-375.96l-200.82 -139.17c30.26,-26.19 49.44,-65.1 49.44,-108.54 0,-22.53 -5.17,-43.84 -14.35,-62.79l92.52 -80.44 14.59 19.38c53.48,-6.77 108.48,-15.61 164.63,-26.45zm902.91 -1008.82c52.93,-40.8 128.91,-30.96 169.71,21.97 40.8,52.93 30.97,128.91 -21.96,169.71 -52.93,40.8 -128.91,30.96 -169.71,-21.97 -40.8,-52.93 -30.96,-128.91 21.97,-169.71z"/>
 </g>
</svg>
