<?xml version="1.0" encoding="UTF-8"?>
<!DOCTYPE svg PUBLIC "-//W3C//DTD SVG 1.1//EN" "http://www.w3.org/Graphics/SVG/1.1/DTD/svg11.dtd">
<!-- Creator: CorelDRAW 2018 (64-Bit) -->
<svg xmlns="http://www.w3.org/2000/svg" xml:space="preserve" width="125.247mm" height="170mm" version="1.1" style="shape-rendering:geometricPrecision; text-rendering:geometricPrecision; image-rendering:optimizeQuality; fill-rule:evenodd; clip-rule:evenodd"
viewBox="0 0 714.97 970.44"
 xmlns:xlink="http://www.w3.org/1999/xlink">
 <defs>
  <style type="text/css">
   <![CDATA[
    .fil0 {fill:#FEFEFE}
   ]]>
  </style>
 </defs>
 <g id="Слой_x0020_1">
  <metadata id="CorelCorpID_0Corel-Layer"/>
  <path class="fil0" d="M500.23 919.1c-42.78,30.4 -132.75,51.34 -236.82,51.34 -145.48,0 -263.41,-40.92 -263.41,-91.39l0 -148.03c0,-2.91 0.41,-5.79 1.18,-8.64l-1.18 0 0 8.64c0,50.47 117.93,91.39 263.41,91.39 122.52,0 225.5,-29.03 254.95,-68.34l0 21.06 -17.04 8.31 -1.08 135.65zm8.01 -727.53c0,0 2.06,29.07 -16.19,51.03 -18.25,21.96 -19.86,62.88 -15.83,73.59 4.03,10.71 42.14,44.51 42.14,44.51l0 75.76 8.46 23.05 17.67 1.48 101.5 55.78 -105.73 266.46 -21.9 10.68 -0.87 109.33 64.46 -21.5 4.23 -65.87c0,0 112.37,-270.02 123.25,-293.76 10.87,-23.74 2.42,-65.87 2.42,-65.87 0,0 3.02,-10.68 -53.77,-35.61 -56.79,-24.92 -85.79,-41.54 -85.79,-41.54l-3.62 -35.61c0,0 13.9,-11.87 9.06,-40.95 -4.83,-29.08 -7.25,-51.63 -69.48,-110.97zm1.45 539.45c0,41.18 -110.26,74.57 -246.28,74.57 -136.02,0 -246.28,-33.39 -246.28,-74.57l0 -217.46c17.21,12.06 37.84,20.72 54.32,26.44 59.12,20.51 129.56,27.73 191.96,27.73 62.4,0 132.84,-7.21 191.96,-27.73 16.74,-5.81 37.77,-14.65 55.13,-27.01l0 218.04 -0.81 0zm-30.19 -383.75c-41.84,23.11 -122.92,38.77 -216.09,38.77 -136.02,0 -246.28,-33.39 -246.28,-74.57 0,0 -7.95,-207.75 112.9,-279.56l0.04 -0.03c12.07,-9.34 30.7,-17.23 53.6,-22.8 27.74,-7.72 55.49,-9.88 81.37,-8.83 57.84,0.24 107.75,13.07 131.73,31.64l0.03 0.01c0,0 83.66,40.38 100.57,117.52 0.75,3.44 1.46,6.89 2.13,10.35l-11.45 -10.92 3.11 43.87c0.36,5.12 -0.26,10.9 -1.67,16.63 -1.96,-19.01 -4.82,-37.94 -8.86,-56.39 -6.86,-31.3 -26.77,-57.72 -50.94,-78.46 -5.39,-4.63 -11.58,-9.47 -18.05,-14.01 -4.94,29.56 -69.41,52.96 -148.23,52.96 -76.38,0 -139.28,-21.97 -147.6,-50.23 -8.09,7.2 -15.43,15.22 -22.07,23.88 -5.78,7.55 -10.99,15.52 -15.69,23.76 -22.43,39.38 -34.29,86.65 -39.92,131.2 -2.76,21.84 -4.74,46.66 -3.89,68.77l0.01 0.32 0 0.32c0,5.8 8.12,12.43 12.31,15.43 13.42,9.61 31.98,16.45 47.74,21.22 52.41,15.87 114.48,21.09 169.1,21.09 54.62,0 116.69,-5.23 169.1,-21.09 11.35,-3.44 24.15,-7.95 35.44,-13.8 3.31,4.14 7.31,8.56 11.54,12.94zm-216.09 -330.2c1.41,0 2.81,0.01 4.21,0.02 12.6,0.64 25.23,2.1 37.76,4.28 20.49,3.55 40.86,8.98 60.4,16.03 7.75,2.79 15.97,5.95 23.38,9.57 0.86,0.42 1.72,0.86 2.59,1.31 2.01,2.76 3.07,5.63 3.07,8.58 0,21.98 -58.84,39.79 -131.42,39.79 -72.58,0 -131.42,-17.81 -131.42,-39.79 0,-2.7 0.89,-5.34 2.58,-7.88 1.42,-0.91 2.86,-1.8 4.32,-2.67 21.36,-12.69 44.23,-20.88 67.84,-25.36 17.16,-2.49 36.38,-3.88 56.68,-3.88zm259.1 458.96c-22.41,42.59 -129.89,74.87 -259.1,74.87 -145.48,0 -263.41,-40.92 -263.41,-91.39l0 -148.03c0,0 0,0 0,0 0,50.47 117.93,91.39 263.41,91.39 96.58,0 181,-18.04 226.85,-44.93 3.92,3.74 7.7,7.22 10.97,10.19l0 71.27 13.19 35.95 8.09 0.68z"/>
 </g>
</svg>
