<svg width="160" height="70" viewBox="0 0 160 70" fill="none" xmlns="http://www.w3.org/2000/svg">
<path fill-rule="evenodd" clip-rule="evenodd" d="M58.2193 12.9955C86.4941 6.22022 115.354 2.16592 144.963 0C145.073 0.401964 144.915 0.937074 144.774 1.46392C117.458 3.96202 91.4535 8.05282 65.9127 14.3864C63.7897 13.976 61.6702 13.5993 59.5733 13.2572C59.1212 13.1679 58.6699 13.0805 58.2195 12.9955H58.2193ZM0.000230508 31.368C15.6059 25.1324 31.1666 19.6741 47.2835 15.6779C51.8158 14.5546 55.6334 15.079 60.1913 15.8457C41.083 20.8504 22.2 27.1427 3.18493 35.0002C1.771 34.0936 0.769668 32.8308 0 31.368H0.000230508Z" transform="translate(9 33)" fill="#363942"/>
<path fill-rule="evenodd" clip-rule="evenodd" d="M42.368 12.7711C66.7444 6.4999 91.4907 2.36673 117 0C116.93 0.187075 116.859 0.370408 116.791 0.543919C92.0726 2.90784 68.2367 7.11982 44.734 13.2804C43.9462 13.106 43.1573 12.9362 42.368 12.7711ZM0 26.0052C12.2186 21.4916 24.4727 17.5862 36.8149 14.2378C37.6339 14.397 38.4572 14.567 39.2845 14.745C26.5672 18.2494 13.9363 22.3281 1.30281 26.9998C0.868389 26.6682 0.434194 26.3368 0.000229732 26.0052H0Z" transform="translate(34 36)" fill="#363942"/>
<path fill-rule="evenodd" clip-rule="evenodd" d="M2.0405 0.789021C3.2548 3.29351 3.09479 6.56992 1.03016 2.88268L0 3.12568C2.55041 6.7759 6.00228 4.73788 4.72564 0.083186C3.7762 -0.169125 2.6906 0.177206 2.0405 0.789021Z" transform="translate(50 54)" fill="#363942"/>
<path fill-rule="evenodd" clip-rule="evenodd" d="M6.09667 0C8.06387 1.23089 9.27159 2.04492 10.7597 3.90223C8.43595 8.76518 5.01405 15.7824 4.88026 21.3488C9.11448 14.5841 13.3674 7.99459 17.1255 0.896844C18.6859 2.04769 19.6939 3.62676 21 5.10736C18.6575 12.6131 16.2215 20.7716 17.4324 25.6557C15.127 25.0056 12.3594 23.8431 12.0042 21.5492C12.1405 18.987 13.6277 13.6978 14.287 11.2126C14.7197 9.98673 15.1521 8.76089 15.5846 7.5348C11.7023 13.9637 8.09314 20.2133 4.7586 27C2.45591 24.6915 0.283577 23.6676 0 21.3326C0.672351 15.0135 4.054 4.85109 6.09667 0Z" transform="translate(60 15)" fill="#363942"/>
<path fill-rule="evenodd" clip-rule="evenodd" d="M0 31.9326C7.37104 18.5589 15.008 14.2491 24.4911 0C26.3647 0.922971 26.4397 1.54393 28 3.53853C16.002 14.8522 11.1831 22.7026 6.89248 39C3.96002 37.2928 1.24432 35.5598 0 31.9326Z" transform="translate(0 15)" fill="#363942"/>
<path fill-rule="evenodd" clip-rule="evenodd" d="M11.6282 0C13.8463 1.80911 17.7556 5.79581 16.8723 8.03176C12.3904 14.6632 5.15685 31.5914 7.02166 43C-2.85609 38.4196 -0.694036 34.1788 3.70005 23.2289C4.68728 20.9016 5.67428 18.5747 6.66105 16.2475C9.20058 10.26 10.6141 6.41861 11.6282 0Z" transform="translate(17 7)" fill="#363942"/>
<path fill-rule="evenodd" clip-rule="evenodd" d="M13.9897 6.60229C13.9571 4.15408 12.4284 1.2004 10.0321 0C6.23603 2.53973 3.36645 7.12081 1.70189 11.2996C-0.864312 17.7428 -1.46209 22.7442 6.69181 27C11.338 22.3032 13.5483 15.456 15 8.53743C14.4516 7.90938 13.6771 7.28393 12.6053 7.00677C12.5085 7.00037 12.4135 6.99539 12.3211 6.99183C11.3906 13.569 10.1285 18.5538 6.96495 22.4381C5.13097 18.7577 5.87547 15.2587 7.1672 11.759C7.78317 10.0883 11.4913 1.38201 13.3768 6.68243C13.6079 6.68243 13.7588 6.60229 13.9897 6.60229Z" transform="translate(28 19)" fill="#363942"/>
<path fill-rule="evenodd" clip-rule="evenodd" d="M5.10739 36C3.34521 28.6819 5.28216 22.1442 8.89306 15.8201C11.0105 12.1119 13.3282 8.66233 17 6.04197C16.1637 3.51233 15.7372 1.99871 13.9626 0C7.4205 1.89503 -1.29349 24.4273 0.16084 30.65C0.774603 33.2764 2.54181 35.1117 5.10739 36Z" transform="translate(45 5)" fill="#363942"/>
<path fill-rule="evenodd" clip-rule="evenodd" d="M0 17C4.43101 14.3693 7.74408 11.3766 10.8725 7.10342C12.2927 5.16315 12.1511 3.03603 11.639 0C10.6013 0.18481 9.39455 -0.0820121 8.35681 0.102798C10.2845 1.61449 9.71491 3.99826 8.55466 6.15701C6.52831 9.92776 3.43777 13.2747 0.344593 15.8941C0.232005 16.2181 0.112808 16.6762 0 17Z" transform="translate(50 12)" fill="#363942"/>
<path fill-rule="evenodd" clip-rule="evenodd" d="M2.78599 1.46066C5.47393 0.72255 12.6545 -2.23202 10.6523 3.22951C8.66899 8.63829 5.09662 13.1483 0.735417 17C0.392552 16.0216 0.25682 15.0208 0.104664 14.0225C2.81861 10.8165 11.1379 -0.695765 0.000641292 4.29237C-0.016924 4.02156 0.332328 2.75987 0.314763 2.48929C1.13851 2.14649 1.96225 1.80346 2.78599 1.46066Z" transform="translate(50 27)" fill="#363942"/>
<path fill-rule="evenodd" clip-rule="evenodd" d="M0 19.1105C1.84571 12.9078 4.26264 6.94115 7.77884 0.550555C9.31991 1.03558 11.2994 1.87946 12.463 2.94714C12.3883 7.00358 12.0249 9.69349 12.7344 13.4962C14.8954 8.42192 17.1506 4.44739 20.3744 0C22.1729 0.607448 24.6862 1.99435 25.8462 3.13619C24.6983 11.3038 24.5163 18.6821 27 20.765C23.9962 20.8474 21.6456 19.9758 20.4894 18.5914C20.3944 15.7341 21.8244 9.76831 22.4546 5.98305C19.5215 10.099 16.9105 15.209 15.5934 21.6135C14.3389 21.3001 11.343 20.5968 10.4385 19.2544C10.1859 15.9138 10.2883 10.6627 10.0519 7.32081C7.5224 12.6172 5.01413 19.0213 5.75189 23C3.00187 22.0975 0.666896 21.1907 0 19.1105Z" transform="translate(80 12)" fill="#363942"/>
<path fill-rule="evenodd" clip-rule="evenodd" d="M5.02047 0C2.66978 6.58917 0.355894 12.7679 0.0221317 19.518C-0.184545 23.6943 0.995756 26.1086 6.13397 27C4.29449 23.572 7.25764 9.56769 11 3.11733C9.04023 1.42569 7.27878 0.769034 5.02047 0Z" transform="translate(107 7)" fill="#363942"/>
<path fill-rule="evenodd" clip-rule="evenodd" d="M0 11C0.466133 8.43118 0.542004 7.76113 1.00814 5.19203C14.126 1.04491 23.6119 -0.284651 39 0.0491242C37.7976 3.08191 36.9694 5.61915 35.7668 8.65222C20.7445 7.03098 13.7775 6.37091 0 11Z" transform="translate(99)" fill="#363942"/>
<path fill-rule="evenodd" clip-rule="evenodd" d="M112.744 29.4014C109.619 39.032 105.036 44.6144 95.721 45.883C87.5968 46.9898 77.3681 45.2589 68.2137 42.5351C42.7133 34.9462 21.6091 33.1969 0 51.0001C10.9311 39.4209 26.3752 31.787 42.1176 33.2893C51.0483 34.3143 59.7802 37.5957 69.3239 40.1416C78.1342 42.4916 86.6406 42.7224 95.7385 38.8568C100.4 36.8761 103.495 34.12 105.736 30.4769C108.064 30.1033 110.4 29.7448 112.744 29.4014ZM118 4.94077C116.587 12.9318 115.381 19.8043 113.875 25.523C111.85 25.772 109.829 26.0315 107.811 26.3027C109.789 21.4015 110.972 15.2862 112.426 7.78368L112.299 8.11853L112.397 7.82075C108.71 14.1843 106.521 15.9915 103.398 22.6782C100.997 20.5442 98.7714 19.645 98.4038 17.4031C98.8595 11.2765 101.303 4.76615 103.191 0C105.216 1.1077 106.244 1.60717 107.809 3.33872C105.637 8.12755 103.569 13.4144 103.411 18.0635C107.065 13.4812 110.178 8.35485 113.716 1.35061C115.329 2.39759 116.864 3.21532 118 4.94077Z" transform="translate(17 11)" fill="#363942"/>
<path fill-rule="evenodd" clip-rule="evenodd" d="M1.40761 0.363973C8.33175 -0.0111487 14.1801 -0.294565 21 0.558002C20.1888 2.19962 19.8322 3.35838 19.0208 5C12.1556 4.01441 6.93642 3.90803 0 4.02445C0.353947 2.6286 0.770115 1.54745 1.40761 0.363973Z" transform="translate(139 7)" fill="#363942"/>
<path fill-rule="evenodd" clip-rule="evenodd" d="M5.45911 0C7.89987 1.10464 8.90223 1.49753 11 3.00688C7.93483 8.20181 6.087 14.6338 6.22974 19C3.14694 17.8896 0.866847 17.0172 0 15.4164C0.550448 11.3358 3.39573 3.62938 5.45911 0Z" transform="translate(139 12)" fill="#363942"/>
<mask id="mask0" mask-type="alpha" maskUnits="userSpaceOnUse" x="28" y="60" width="12" height="10">
<path fill-rule="evenodd" clip-rule="evenodd" d="M0 0H11.9627V9.62371H0V0Z" transform="translate(28.013 60.1943)" fill="white"/>
</mask>
<g mask="url(#mask0)">
<path fill-rule="evenodd" clip-rule="evenodd" d="M5.57435 1.74461C7.14755 1.1759 8.74451 1.70534 9.14099 2.92721C9.53747 4.14933 8.58227 5.60267 7.00931 6.17237C5.43635 6.74158 3.83939 6.2114 3.44267 4.98977C3.04643 3.76667 4.00115 2.31407 5.57435 1.74461ZM4.52051 0.450291C7.72307 -0.670454 10.9732 0.372973 11.7805 2.78039C12.5864 5.18855 10.6432 8.05128 7.44203 9.1735C4.23971 10.2945 0.989871 9.25008 0.182271 6.8434C-0.623889 4.43377 1.31963 1.57202 4.52051 0.450291Z" transform="translate(28.013 60.1943)" fill="#363942"/>
</g>
<path fill-rule="evenodd" clip-rule="evenodd" d="M0.40811 0.789075C0.650955 3.29347 0.61898 6.56943 0.206077 2.88268L0 3.12566C0.510101 6.77601 1.20052 4.73775 0.945094 0.0829192C0.755192 -0.168941 0.538107 0.177626 0.40811 0.789075Z" transform="translate(88 43)" fill="#363942"/>
<path fill-rule="evenodd" clip-rule="evenodd" d="M0.433277 0.14148C0.635799 0.658768 0.557877 1.3195 0.205439 0.555341L0 0.595056C0.448146 1.35623 1.15424 0.975872 0.969979 0.0234088C0.787314 -0.0363167 0.569546 0.0237154 0.433277 0.14148Z" transform="translate(111 39)" fill="#363942"/>
<path fill-rule="evenodd" clip-rule="evenodd" d="M0.45562 0.125071C0.616685 0.658823 0.493473 1.32406 0.203681 0.53306L0 0.563125C0.383799 1.35571 1.10051 1.0051 0.9882 0.0318071C0.814099 -0.0376378 0.597131 0.0125404 0.45562 0.125071Z" transform="translate(149 36)" fill="#363942"/>
<path fill-rule="evenodd" clip-rule="evenodd" d="M0.433474 0.141515C0.63592 0.658781 0.558015 1.31955 0.205454 0.555468L0 0.59513C0.448303 1.35623 1.15418 0.975812 0.969998 0.023318C0.787324 -0.0362183 0.569727 0.0236683 0.433474 0.141515Z" transform="translate(133 36)" fill="#363942"/>
</svg>
