<svg width="33" height="26" xmlns="http://www.w3.org/2000/svg"><g fill="none"><path d="M32.79 10.435A10.05 10.05 0 1 1 22.74.47a10 10 0 0 1 10.05 9.965z" fill="#97A8B2"/><path d="M20.39 10.435A10.05 10.05 0 1 1 10.34.47a10 10 0 0 1 10.05 9.965z" fill="#34434C"/><path d="M16.54 2.595a9.915 9.915 0 0 0 0 15.69 9.915 9.915 0 0 0 0-15.69z" fill="#71808A"/><path d="M2.525 25.33h-.57v-2.635H2.5V23a1.83 1.83 0 0 1 .785-.385c.36.026.691.209.905.5.192-.31.53-.5.895-.5a1 1 0 0 1 1.05.83v1.86H5.6V23.68a.5.5 0 0 0-.595-.5.61.61 0 0 0-.67.5v1.64h-.57v-1.65a.575.575 0 0 0-.57-.5c-.67 0-.68.53-.68.53l.01 1.63zm17.345-2.7a1.835 1.835 0 0 0-.785.385v-.32h-.555v2.635h.57v-1.65s0-.53.68-.53a.565.565 0 0 1 .295.075l.185-.5a1.035 1.035 0 0 0-.39-.095zm8.035 0a1.835 1.835 0 0 0-.785.385v-.32h-.56v2.635h.57v-1.65s0-.53.68-.53a.565.565 0 0 1 .295.075l.185-.5a1.035 1.035 0 0 0-.385-.08v-.015zM8 22.62A1.35 1.35 0 0 0 6.685 24 1.39 1.39 0 0 0 8 25.415a1.5 1.5 0 0 0 .87-.35v.27h.56v-2.64h-.545v.33A1.325 1.325 0 0 0 8 22.62zm.11.535a.88.88 0 1 1-.83.88.855.855 0 0 1 .825-.88h.005zm16.255-.535a1.35 1.35 0 0 0-1.31 1.38 1.39 1.39 0 0 0 1.33 1.4 1.5 1.5 0 0 0 .87-.35v.27h.56v-2.625h-.56v.33a1.325 1.325 0 0 0-.89-.41v.005zm.11.535a.88.88 0 1 1-.83.88.855.855 0 0 1 .83-.88zm5.28-.535A1.35 1.35 0 0 0 28.45 24a1.39 1.39 0 0 0 1.33 1.4 1.5 1.5 0 0 0 .87-.35v.27h.56v-3.665h-.565v1.375a1.325 1.325 0 0 0-.89-.41zm.11.535a.88.88 0 1 1-.83.88.855.855 0 0 1 .83-.88zM11.16 25.42a2.325 2.325 0 0 1-1.12-.355l.245-.375c.275.125.57.203.87.23.235 0 .635-.075.635-.31s-.665-.32-.665-.32-1 0-1-.83c0-.5.5-.84 1.14-.84.368.052.725.16 1.06.32l-.28.43a3.5 3.5 0 0 0-.815-.22c-.24 0-.525.105-.525.31 0 .56 1.665-.045 1.665 1.085 0 .74-.68.875-1.22.875h.01zm2.145-3.485v.765h-.5v.555h.5v1.325a.855.855 0 0 0 .93.895 3.29 3.29 0 0 0 .795-.195l-.225-.575a.765.765 0 0 1-.445.17c-.45 0-.435-.295-.435-.295v-1.325h.925V22.7h-.93v-.765h-.615zm3.375.715a1.405 1.405 0 0 0 .055 2.81 2.6 2.6 0 0 0 1.035-.375l-.26-.45c-.23.16-.496.26-.775.29a.755.755 0 0 1-.775-.705h1.945s.15-1.57-1.225-1.57zm-.085.5h.07a.635.635 0 0 1 .68.64h-1.38a.615.615 0 0 1 .635-.62l-.005-.02zm5.875 1.48l.26.5a1.84 1.84 0 0 1-.88.265A1.42 1.42 0 0 1 20.35 24a1.33 1.33 0 0 1 1.425-1.375 2 2 0 0 1 .975.295l-.295.5a.855.855 0 0 0-1.5.585.815.815 0 0 0 .8.87 1.2 1.2 0 0 0 .695-.28l.02.035z" fill="#FFF"/></g></svg>