<svg width="44" height="15" fill="none" xmlns="http://www.w3.org/2000/svg"><path fill-rule="evenodd" clip-rule="evenodd" d="M30.955 9.365c0-2.138-1.768-3.067-3.18-3.81-.95-.5-1.74-.914-1.725-1.555 0-.5.475-1 1.5-1.135a6.612 6.612 0 0 1 3.455.605L31.61.6a9.425 9.425 0 0 0-3.275-.6c-3.46 0-5.9 1.84-5.92 4.5 0 1.95 1.74 3.035 3.065 3.685 1.325.65 1.82 1.09 1.815 1.685 0 .91-1.09 1.31-2.095 1.325a7.324 7.324 0 0 1-3.6-.855l-.63 2.94a10.59 10.59 0 0 0 3.895.72c3.68 0 6.085-1.815 6.1-4.635h-.01zm-14.5-9.12l-5.675 13.54H7.075L4.285 2.98a1.5 1.5 0 0 0-.83-1.19C2.355 1.265 1.195.878 0 .64L.085.246H6.04a1.63 1.63 0 0 1 1.63 1.38l1.5 7.835L12.815.245h3.64zm26.895 13.54h-3.24l-.425-2h-4.5l-.73 2H30.78l5.24-12.54a1.595 1.595 0 0 1 1.5-1h3l2.83 13.54zm-7.15-4.8L38.045 3.9l1.06 5.085H36.2zm-17.64 4.8l2.9-13.54h-3.5l-2.9 13.54h3.5z" transform="translate(.33 .4)" fill="url(#paint0_linear)"/><defs><linearGradient id="paint0_linear" x2="1" gradientUnits="userSpaceOnUse" gradientTransform="matrix(118.702 0 0 38.3356 -75.357 7)"><stop stop-color="#27235B"/><stop offset="1" stop-color="#2C4E9A"/></linearGradient></defs></svg>