<svg width="56" height="12" fill="none" xmlns="http://www.w3.org/2000/svg"><g style="mix-blend-mode:luminosity"><path fill-rule="evenodd" clip-rule="evenodd" d="M1.62 9.74L3.15 6.3h.8v3.46h.965v-9H3.47C2.055.76.86 1.7.86 3.585c0 1.345.53 2.075 1.32 2.475L.5 9.74h1.12zm1.835-8.16h.5L3.94 5.5h-.5c-.845 0-1.515-.42-1.515-1.92s.75-2 1.53-2z" fill="#DA0100"/><path fill-rule="evenodd" clip-rule="evenodd" d="M17.315 9.83c-1.305 0-2.11-1.04-2.11-3 0-2.035.565-3.5 1.91-3.5 1.055 0 1.745.79 1.745 2.94v.54h-2.64c0 1.43.4 2.185 1.18 2.185.449-.01.883-.16 1.245-.425l.225.755a2.497 2.497 0 0 1-1.555.505zM9.58 3.415V9.74h-.97V6.905H7.155V9.74h-1V3.415h1V6.1H8.61V3.415h.97zM14.61 11h-.875V9.74H11V11h-.855V8.94h.39c.575-1.345.64-3.3.64-5v-.525h2.94v5.5h.5L14.61 11zm-2.56-6.795h1.095L13.14 8.94h-1.68c.525-1.345.59-3.29.59-4.62v-.115zM17.85 6h-1.62c.065-1.13.315-1.87.88-1.87s.74.79.74 1.87zm2.99.59v3.15h-1V3.415h1V6.34l1.5-2.925h1l-1.57 3 1.795 3.35H22.5L20.84 6.59zm5.105-3.25c-1.48 0-2.245 1.25-2.245 3.24 0 2.155.8 3.25 2.195 3.285.488.008.96-.17 1.32-.5l-.225-.73a1.606 1.606 0 0 1-1.065.39c-.795 0-1.17-.905-1.17-2.5 0-1.594.5-2.384 1.205-2.384.387.021.755.176 1.04.44l.115-.916a2.01 2.01 0 0 0-1.17-.325zM30 9.74h3.85l.06 1.485h.5v-2h-.615V.775h-3.14c-.035 2.5-.075 4.535-.2 5.815-.125 1.28-.34 2.284-.78 2.65h-.265v2h.5l.09-1.5zm1.24-8.46h1.945v7.95h-2.8c.34-.416.555-1.351.655-2.65.1-1.3.16-3.031.2-5.3zm7.07 7.39c-.295.416-.77.668-1.28.68-.92 0-1.37-.94-1.395-2.67H38.5c.2-2.25-.55-3.375-1.615-3.375s-1.845 1.22-1.845 3.29c0 2.07.615 3.29 1.96 3.29a1.83 1.83 0 0 0 1.5-.715l-.19-.5zm-.36-2.456h-2.3c.05-1.585.62-2.435 1.26-2.435s1.14.755 1.04 2.435z" fill="#fff"/><path d="M42.365 6.69h-2.16v3.05h-.59V3.415h.59v2.8h2.16v-2.8h.59V9.74h-.59V6.69z" fill="#fff"/><path fill-rule="evenodd" clip-rule="evenodd" d="M44.94 3.415h-.59l.055 6.32h1a1.846 1.846 0 0 0 2-2c0-1.315-.795-1.97-2-1.97h-.465v-2.35zm0 5.86v-3.05l.445.02c.905 0 1.43.41 1.43 1.5s-.61 1.53-1.5 1.53h-.375z" fill="#fff"/><path d="M49 3.905V9.74h-.575V3.415H51.1v.5l-2.1-.01zm5.935 1.43a8.6 8.6 0 0 1 .05-.865h-.04a5.61 5.61 0 0 1-.34.815l-2.06 4.455h-.5V3.415h.55V7.81c0 .34-.025.615-.05.89h.04c.095-.287.208-.568.34-.84L55 3.415h.5V9.74h-.565V5.335z" fill="#fff"/></g></svg>