<svg width="33" height="26" fill="none" xmlns="http://www.w3.org/2000/svg"><g style="mix-blend-mode:luminosity"><path d="M32.79 10.435A10.05 10.05 0 1 1 22.74.47a10 10 0 0 1 10.05 9.965z" fill="#DF9B2F"/><path d="M20.39 10.435A10.05 10.05 0 1 1 10.34.47a10 10 0 0 1 10.05 9.965z" fill="#C50120"/><path d="M16.54 2.595a9.915 9.915 0 0 0 0 15.69 9.915 9.915 0 0 0 0-15.69z" fill="#DC5F17"/><path d="M2.525 25.33h-.57v-2.635H2.5V23a1.84 1.84 0 0 1 .785-.385c.36.027.69.21.905.5.192-.31.53-.499.895-.5a1 1 0 0 1 1.05.83v1.86H5.6V23.68a.5.5 0 0 0-.595-.5.61.61 0 0 0-.67.5v1.64h-.57v-1.65a.575.575 0 0 0-.57-.5c-.67 0-.68.53-.68.53l.01 1.63zm17.345-2.7a1.835 1.835 0 0 0-.785.385v-.32h-.555v2.635h.57v-1.65s0-.53.68-.53a.565.565 0 0 1 .295.075l.185-.5a1.035 1.035 0 0 0-.39-.095zm8.035 0a1.835 1.835 0 0 0-.785.385v-.32h-.56v2.635h.57v-1.65s0-.53.68-.53a.565.565 0 0 1 .295.075l.185-.5a1.035 1.035 0 0 0-.385-.08v-.015z" fill="#fff"/><path fill-rule="evenodd" clip-rule="evenodd" d="M6.685 24A1.35 1.35 0 0 1 8 22.62c.336.018.652.163.885.405v-.33h.545v2.64h-.56v-.27a1.5 1.5 0 0 1-.87.35A1.39 1.39 0 0 1 6.685 24zm2.273-.338a.879.879 0 0 1-.158.975l.158-.975zm-.158.975a.88.88 0 0 1-.964.215l.964-.215zm-.964.215a.88.88 0 0 1-.556-.817l.556.817zm-.556-.817a.857.857 0 0 1 .83-.88l-.83.88zM23.055 24a1.35 1.35 0 0 1 1.31-1.38 1.3 1.3 0 0 1 .89.405v-.33h.56v2.625h-.56v-.27c-.245.207-.55.33-.87.35a1.39 1.39 0 0 1-1.33-1.4zm2.268-.338a.88.88 0 0 0-.848-.508.857.857 0 0 0-.83.881.88.88 0 1 0 1.678-.373zM28.45 24a1.35 1.35 0 0 1 1.305-1.38c.338.019.657.165.89.41v-1.375h.565v3.665h-.56v-.27c-.245.207-.55.33-.87.35a1.39 1.39 0 0 1-1.33-1.4zm2.263-.337a.88.88 0 0 0-.848-.508.857.857 0 0 0-.83.881.88.88 0 1 0 1.678-.373z" fill="#fff"/><path d="M11.16 25.42a2.325 2.325 0 0 1-1.12-.355l.245-.375c.275.125.57.203.87.23.235 0 .635-.075.635-.31s-.665-.32-.665-.32-1 0-1-.83c0-.5.5-.84 1.14-.84.368.052.725.16 1.06.32l-.28.43a3.5 3.5 0 0 0-.815-.22c-.24 0-.525.105-.525.31 0 .56 1.665-.045 1.665 1.085 0 .74-.68.875-1.22.875h.01zm2.145-3.484v.765h-.5v.555h.5v1.325a.855.855 0 0 0 .93.895c.272-.032.54-.098.795-.195l-.225-.575a.765.765 0 0 1-.445.17c-.45 0-.435-.295-.435-.295v-1.325h.925V22.7h-.93v-.765h-.615z" fill="#fff"/><path fill-rule="evenodd" clip-rule="evenodd" d="M15.302 24.083a1.405 1.405 0 0 1 1.378-1.433c1.375 0 1.225 1.57 1.225 1.57H15.96c.027.406.37.718.775.706.279-.03.545-.13.775-.29l.26.449a2.573 2.573 0 0 1-1.035.375 1.405 1.405 0 0 1-1.433-1.377zm1.363-.933h-.07l.005.02a.617.617 0 0 0-.635.62h1.38a.633.633 0 0 0-.68-.64z" fill="#fff"/><path d="M22.47 24.63l.26.5a1.84 1.84 0 0 1-.88.266A1.42 1.42 0 0 1 20.35 24a1.33 1.33 0 0 1 1.425-1.375 2 2 0 0 1 .975.295l-.295.5a.855.855 0 0 0-1.5.585.815.815 0 0 0 .8.87 1.2 1.2 0 0 0 .695-.28l.02.035z" fill="#fff"/></g></svg>