<svg width="56" height="14" xmlns="http://www.w3.org/2000/svg"><g fill="#485661" fill-rule="evenodd"><path d="M48.32.245a6.825 6.825 0 0 1 3 .7c.143.067.287.142.43.225l-.635.565-.95-1-1.605 1.43-.955-1.04-3 2.695 1.915 2.115-.755.665 1.89 2.115-.75.66 2.7 3 1.6-1.475 1.415 1.6a7.34 7.34 0 0 1-.905.6A6.875 6.875 0 1 1 48.325.245h-.005z"/><path d="M47.07 6.685l1.635-1.47 1.47 1.635-1.635 1.47-1.47-1.635zm1.16 2.825l1.635-1.47 1.475 1.635-1.635 1.475-1.475-1.64zM45.9 3.895l1.635-1.475 1.47 1.64-1.635 1.47-1.47-1.635zm3-.795L50.125 2l1.105 1.225-1.225 1.105L48.9 3.1zm2.18 5.06l1.225-1.105L53.41 8.28l-1.225 1.105L51.08 8.16zm1.075 2.475l1.23-1.105 1.1 1.23-1.225 1.105-1.105-1.23zm.495-5.675l.82-.735.735.815-.815.735-.74-.815zm-1.045-2.43l.82-.735.735.815-.815.74-.74-.82zm2.09 4.86l.82-.74.735.82-.82.735-.735-.815zM50.03 5.57l1.225-1.105L52.36 5.69l-1.225 1.105L50.03 5.57z"/><path fill-rule="nonzero" d="M3.46 5.935h-.055L2.37 9.85H1.5L.25 4.29h.88L2 8.44h.055l1-4.15h.7l1.09 4.15H4.9l.8-4.15h.92L5.375 9.85h-.85zM10.12 9v.595c-.424.24-.903.364-1.39.36-1.32 0-1.86-.815-1.86-2.055 0-1.24.605-2.055 1.78-2.055 1 0 1.585.635 1.585 1.915v.29H7.68c0 .94.385 1.355 1.195 1.355A2.395 2.395 0 0 0 10.12 9zM7.695 7.5H9.5c-.04-.825-.44-1.155-.865-1.155s-.85.385-.94 1.155zm4.075-1.375a2.36 2.36 0 0 1 1.06-.29c.975 0 1.5.675 1.5 1.93 0 1.465-.705 2.18-1.845 2.18a3.635 3.635 0 0 1-1.53-.385v-5.5l.815-.195v2.26zm0 3.145c.23.09.474.132.72.125.58 0 1-.36 1-1.63 0-1-.36-1.32-.885-1.32a1.64 1.64 0 0 0-.855.26l.02 2.565zm6.125-.595h.04l1.68-4.385h.975v5.56h-.85V5.82h-.07l-1.6 4.035h-.5l-1.6-3.94h-.07V9.85h-.71V4.29h.95zm3.555-.785c0-1.375.755-2.055 1.79-2.055 1.035 0 1.79.68 1.79 2.055s-.715 2.055-1.79 2.055c-1.075 0-1.79-.715-1.79-2.055zm2.755 0c0-1.06-.43-1.5-.965-1.5-.535 0-.965.445-.965 1.5s.41 1.5.965 1.5c.555 0 .965-.425.965-1.5zm1.565-1.475a4 4 0 0 1 2-.58c.94 0 1.295.37 1.295 1.175v2.84h-.815V7.19c0-.62-.305-.73-.705-.73a2.165 2.165 0 0 0-.955.28v3.11h-.82V6.415zM33.045 9v.595c-.424.24-.903.364-1.39.36-1.32 0-1.86-.815-1.86-2.055 0-1.24.605-2.055 1.78-2.055 1 0 1.585.635 1.585 1.915v.29h-2.555c0 .94.385 1.355 1.19 1.355.446-.016.88-.156 1.25-.405zM30.62 7.5h1.795c-.04-.825-.44-1.155-.865-1.155s-.845.385-.93 1.155zm5.595-1.535h.84l-1.42 3.925c-.39 1.085-.87 1.645-1.775 1.645v-.64c.535 0 .865-.425 1.05-1l-1.5-3.925h.865l1 2.885h.045l.895-2.89z"/></g></svg>