<svg width="40" height="15" fill="none" xmlns="http://www.w3.org/2000/svg"><mask id="a" maskUnits="userSpaceOnUse" x="0" y="0" width="40" height="6"><path fill-rule="evenodd" clip-rule="evenodd" d="M0 0h39.995v5.923H0V0z" transform="translate(0 .003)" fill="#fff"/></mask><g mask="url(#a)"><path fill-rule="evenodd" clip-rule="evenodd" d="M10.945 4.254c2.114 2.226 5.553 2.226 7.667 0 .37-.39.862-.604 1.385-.604.524 0 1.015.214 1.385.604 2.114 2.226 5.554 2.226 7.668 0 .37-.39.862-.604 1.385-.604s1.015.214 1.385.604c1.024 1.078 2.386 1.672 3.834 1.672s2.81-.594 3.834-1.672a1.892 1.892 0 0 0 0-2.579 1.67 1.67 0 0 0-2.45 0c-.37.39-.861.604-1.384.604a1.898 1.898 0 0 1-1.385-.604C33.245.597 31.883.003 30.435.003s-2.81.594-3.834 1.672a1.892 1.892 0 0 1-2.77 0C22.807.597 21.446.003 19.997.003c-1.448 0-2.81.594-3.833 1.672a1.892 1.892 0 0 1-2.77 0C11.28-.55 7.84-.55 5.726 1.675a1.892 1.892 0 0 1-2.77 0 1.67 1.67 0 0 0-2.449 0 1.892 1.892 0 0 0 0 2.579c2.114 2.226 5.554 2.226 7.668 0a1.892 1.892 0 0 1 2.77 0z" fill="#4A4A4A"/></g><mask id="b" maskUnits="userSpaceOnUse" x="0" y="9" width="40" height="6"><path fill-rule="evenodd" clip-rule="evenodd" d="M0 0h39.995v5.997H0V0z" transform="translate(0 9.003)" fill="#fff"/></mask><g mask="url(#b)"><path fill-rule="evenodd" clip-rule="evenodd" d="M8.175 13.307a1.876 1.876 0 0 1 2.77 0c2.114 2.254 5.554 2.254 7.668 0 .37-.395.861-.612 1.384-.612a1.89 1.89 0 0 1 1.386.612c2.114 2.254 5.553 2.254 7.667 0 .37-.395.862-.612 1.385-.612s1.015.218 1.385.612C32.844 14.399 34.206 15 35.654 15s2.81-.601 3.834-1.693a1.933 1.933 0 0 0 0-2.611 1.657 1.657 0 0 0-2.45 0c-.37.394-.861.612-1.384.612a1.887 1.887 0 0 1-1.385-.612c-1.024-1.092-2.386-1.693-3.834-1.693s-2.81.601-3.834 1.693a1.876 1.876 0 0 1-2.77 0c-1.024-1.092-2.385-1.693-3.834-1.693-1.448 0-2.81.601-3.833 1.693a1.876 1.876 0 0 1-2.77 0c-2.114-2.254-5.554-2.254-7.668 0a1.876 1.876 0 0 1-2.77 0 1.657 1.657 0 0 0-2.449 0 1.934 1.934 0 0 0 0 2.61c2.114 2.255 5.554 2.255 7.668 0z" fill="#1EACF6"/></g></svg>