<svg width="160" height="70" fill="none" xmlns="http://www.w3.org/2000/svg"><path fill-rule="evenodd" clip-rule="evenodd" d="M67.22 45.995C95.493 39.22 124.353 35.166 153.962 33c.11.402-.048.937-.189 1.464-27.316 2.498-53.32 6.589-78.861 12.922-2.123-.41-4.243-.787-6.34-1.129-.452-.09-.903-.176-1.353-.261zM9 64.368c15.606-6.236 31.167-11.694 47.284-15.69 4.532-1.123 8.35-.599 12.907.168A441.423 441.423 0 0 0 12.185 68C10.77 67.094 9.77 65.83 9 64.368z" fill="#363942"/><path fill-rule="evenodd" clip-rule="evenodd" d="M76.368 48.771C100.744 42.5 125.491 38.367 151 36c-.07.187-.141.37-.209.544-24.718 2.364-48.554 6.576-72.057 12.736-.788-.174-1.577-.344-2.366-.509zM34 62.005a434.132 434.132 0 0 1 36.815-11.767c.819.159 1.642.329 2.47.507A467.304 467.304 0 0 0 35.302 63L34 62.005z" fill="#363942"/><path fill-rule="evenodd" clip-rule="evenodd" d="M52.04 54.789c1.215 2.505 1.055 5.78-1.01 2.094l-1.03.243c2.55 3.65 6.002 1.612 4.726-3.043-.95-.252-2.035.094-2.686.706zM66.097 15c1.967 1.23 3.175 2.045 4.663 3.902-2.324 4.863-5.746 11.88-5.88 17.447 4.234-6.765 8.487-13.354 12.246-20.452 1.56 1.15 2.568 2.73 3.874 4.21-2.343 7.506-4.779 15.665-3.568 20.549-2.305-.65-5.073-1.813-5.428-4.107.136-2.562 1.624-7.851 2.283-10.336l1.298-3.678C71.702 28.964 68.093 35.213 64.759 42c-2.303-2.308-4.475-3.332-4.759-5.667.672-6.32 4.054-16.482 6.097-21.333zM0 46.933C7.371 33.559 15.008 29.249 24.491 15c1.874.923 1.949 1.544 3.509 3.539C16.002 29.852 11.183 37.703 6.892 54 3.96 52.293 1.244 50.56 0 46.933z" fill="#363942"/><path fill-rule="evenodd" clip-rule="evenodd" d="M28.628 7c2.218 1.81 6.128 5.796 5.244 8.032-4.482 6.631-11.715 23.56-9.85 34.968-9.878-4.58-7.716-8.821-3.322-19.771l2.961-6.982C26.201 17.26 27.614 13.42 28.628 7z" fill="#363942"/><path fill-rule="evenodd" clip-rule="evenodd" d="M41.99 25.602c-.033-2.448-1.562-5.402-3.958-6.602-3.796 2.54-6.666 7.12-8.33 11.3-2.566 6.443-3.164 11.444 4.99 15.7 4.646-4.697 6.856-11.544 8.308-18.463-.548-.628-1.323-1.253-2.395-1.53a10.362 10.362 0 0 0-.284-.015c-.93 6.577-2.192 11.562-5.356 15.446-1.834-3.68-1.09-7.18.202-10.679.616-1.67 4.324-10.377 6.21-5.077.23 0 .382-.08.613-.08zM50.107 41c-1.762-7.318.175-13.856 3.786-20.18 2.118-3.708 4.435-7.158 8.107-9.778-.836-2.53-1.263-4.043-3.037-6.042C52.42 6.895 43.707 29.427 45.16 35.65c.614 2.626 2.38 4.462 4.946 5.35z" fill="#363942"/><path fill-rule="evenodd" clip-rule="evenodd" d="M50 29c4.431-2.63 7.744-5.623 10.873-9.897 1.42-1.94 1.278-4.067.766-7.103-1.038.185-2.244-.082-3.282.103 1.928 1.511 1.358 3.895.198 6.054-2.027 3.77-5.117 7.118-8.21 9.737-.113.324-.232.782-.345 1.106zm2.786-.54c2.688-.737 9.868-3.692 7.866 1.77-1.983 5.408-5.555 9.918-9.917 13.77-.342-.978-.478-1.98-.63-2.977 2.714-3.207 11.033-14.719-.104-9.73-.018-.271.331-1.533.314-1.804l2.471-1.028zM80 31.11c1.846-6.202 4.263-12.169 7.779-18.56 1.54.486 3.52 1.33 4.684 2.397-.075 4.057-.438 6.746.271 10.55 2.161-5.075 4.417-9.05 7.64-13.497 1.799.607 4.312 1.994 5.472 3.136-1.148 8.168-1.33 15.546 1.154 17.629-3.004.082-5.354-.79-6.51-2.174-.096-2.857 1.334-8.823 1.965-12.608-2.933 4.116-5.544 9.226-6.862 15.63-1.254-.313-4.25-1.016-5.154-2.359-.253-3.34-.15-8.591-.387-11.933-2.53 5.296-5.038 11.7-4.3 15.679-2.75-.903-5.085-1.81-5.752-3.89zM112.02 7c-2.35 6.59-4.664 12.768-4.998 19.518-.207 4.176.974 6.59 6.112 7.482-1.84-3.428 1.124-17.432 4.866-23.883-1.96-1.691-3.721-2.348-5.98-3.117z" fill="#363942"/><path fill-rule="evenodd" clip-rule="evenodd" d="M99 11c.466-2.569.542-3.239 1.008-5.808C113.126 1.045 122.612-.285 138 .049c-1.202 3.033-2.03 5.57-3.233 8.603C119.744 7.031 112.777 6.371 99 11zm30.744 29.401c-3.125 9.631-7.708 15.213-17.023 16.482-8.124 1.107-18.353-.624-27.507-3.348C59.714 45.946 38.609 44.197 17 62c10.931-11.58 26.375-19.213 42.118-17.71 8.93 1.024 17.662 4.306 27.206 6.852 8.81 2.35 17.317 2.58 26.415-1.285 4.661-1.98 7.756-4.737 9.997-8.38 2.328-.374 4.664-.732 7.008-1.076zM135 15.941c-1.413 7.99-2.619 14.863-4.125 20.582-2.025.249-4.046.508-6.064.78 1.978-4.901 3.161-11.017 4.615-18.52l-.127.336.098-.298c-3.687 6.363-5.876 8.17-8.999 14.857-2.401-2.134-4.627-3.033-4.994-5.275.455-6.126 2.899-12.637 4.787-17.403 2.025 1.108 3.053 1.607 4.618 3.339-2.172 4.789-4.24 10.075-4.398 14.725 3.654-4.583 6.767-9.71 10.305-16.713 1.613 1.047 3.148 1.864 4.284 3.59zm5.408-8.577c6.924-.375 12.772-.659 19.592.194-.811 1.642-1.168 2.8-1.98 4.442-6.864-.986-12.084-1.092-19.02-.976.354-1.395.77-2.477 1.408-3.66zM144.46 12c2.44 1.105 3.442 1.498 5.54 3.007-3.065 5.195-4.913 11.627-4.77 15.993-3.083-1.11-5.363-1.983-6.23-3.584.55-4.08 3.396-11.787 5.46-15.416z" fill="#363942"/><mask id="a" maskUnits="userSpaceOnUse" x="28" y="60" width="12" height="10"><path fill-rule="evenodd" clip-rule="evenodd" d="M0 0h11.963v9.624H0V0z" transform="translate(28.013 60.194)" fill="#fff"/></mask><g mask="url(#a)"><path fill-rule="evenodd" clip-rule="evenodd" d="M33.587 61.939c1.574-.569 3.17-.04 3.567 1.183.396 1.222-.559 2.675-2.132 3.245-1.573.569-3.17.039-3.566-1.183-.397-1.223.558-2.676 2.131-3.245zm-1.053-1.294c3.202-1.121 6.452-.078 7.26 2.33.805 2.408-1.138 5.27-4.339 6.393-3.202 1.12-6.452.076-7.26-2.33-.806-2.41 1.138-5.272 4.339-6.393z" fill="#363942"/></g><path fill-rule="evenodd" clip-rule="evenodd" d="M88.408 43.79c.243 2.503.211 5.78-.202 2.093l-.206.243c.51 3.65 1.2 1.612.945-3.043-.19-.252-.407.095-.537.706zm23.025-4.649c.203.518.125 1.179-.228.414l-.205.04c.448.761 1.154.38.97-.572-.183-.06-.4 0-.537.118zm38.023-3.016c.16.534.037 1.2-.252.408l-.204.03c.384.793 1.1.442.988-.531a.562.562 0 0 0-.532.093zm-16.023.017c.203.517.125 1.178-.228.413l-.205.04c.448.761 1.154.38.97-.572a.58.58 0 0 0-.537.119z" fill="#363942"/></svg>