<svg width="40" height="15" viewBox="0 0 40 15" fill="none" xmlns="http://www.w3.org/2000/svg">
<mask id="mask0" mask-type="alpha" maskUnits="userSpaceOnUse" x="0" y="0" width="40" height="6">
<path fill-rule="evenodd" clip-rule="evenodd" d="M0 0H39.9948V5.92299H0V0Z" transform="translate(0 0.00292969)" fill="white"/>
</mask>
<g mask="url(#mask0)">
<path fill-rule="evenodd" clip-rule="evenodd" d="M10.9447 4.2508C13.0586 6.47676 16.4984 6.47676 18.6123 4.2508C18.9823 3.86124 19.4741 3.64672 19.9973 3.64672C20.5206 3.64672 21.0124 3.86133 21.3824 4.2508C23.4963 6.47676 26.9361 6.47676 29.05 4.2508C29.4199 3.86124 29.9118 3.64672 30.435 3.64672C30.9582 3.64672 31.4501 3.86133 31.8201 4.2508C32.8441 5.32914 34.2057 5.92301 35.6538 5.92301C37.1021 5.92301 38.4636 5.32914 39.4877 4.2508C40.1639 3.53869 40.1638 2.38423 39.4876 1.67221C38.8113 0.960091 37.7149 0.960091 37.0387 1.67221C36.6689 2.06177 36.177 2.27628 35.6538 2.27628C35.1306 2.27628 34.6387 2.06168 34.2689 1.6723C33.2449 0.59396 31.8832 9.11681e-05 30.4351 0C28.9869 0 27.6252 0.59396 26.6012 1.67221C25.8375 2.4764 24.5948 2.47622 23.8313 1.6723C22.8073 0.59396 21.4457 9.11681e-05 19.9975 0C18.5493 0 17.1877 0.59396 16.1636 1.67221C15.3999 2.4764 14.1572 2.47631 13.3937 1.67221C11.2797 -0.553846 7.83995 -0.553846 5.72601 1.67221C4.96237 2.47631 3.71977 2.47631 2.95596 1.67221C2.27969 0.960091 1.18332 0.960091 0.507132 1.67221C-0.169058 2.38432 -0.169058 3.53878 0.507219 4.2508C2.62098 6.47676 6.06064 6.47676 8.17475 4.2508C8.93839 3.4467 10.1809 3.4467 10.9447 4.2508Z" transform="translate(0 0.00292969)" fill="#4A4A4A"/>
</g>
<mask id="mask1" mask-type="alpha" maskUnits="userSpaceOnUse" x="0" y="9" width="40" height="6">
<path fill-rule="evenodd" clip-rule="evenodd" d="M0 0H39.995V5.99702H0V0Z" transform="translate(0 9.00293)" fill="white"/>
</mask>
<g mask="url(#mask1)">
<path fill-rule="evenodd" clip-rule="evenodd" d="M8.17492 4.30394C8.93856 3.48978 10.1811 3.48978 10.9449 4.30394C13.0588 6.55772 16.4986 6.55772 18.6125 4.30394C18.9825 3.90951 19.4743 3.69231 19.9975 3.69231C20.5207 3.69231 21.0126 3.9096 21.3825 4.30394C23.4965 6.55772 26.9362 6.55772 29.0502 4.30394C29.4201 3.90951 29.912 3.69231 30.4352 3.69231C30.9584 3.69231 31.4502 3.9096 31.8203 4.30394C32.8443 5.39575 34.2058 5.99705 35.654 5.99705C37.1023 5.99705 38.4638 5.39575 39.4878 4.30394C40.1641 3.58283 40.164 2.41403 39.4877 1.69311C38.8113 0.972092 37.7149 0.972092 37.0387 1.69311C36.6689 2.08754 36.177 2.30474 35.6538 2.30474C35.1306 2.30474 34.6387 2.08745 34.2689 1.6932C33.2449 0.601385 31.8832 9.23077e-05 30.4351 0H30.435C28.9869 0 27.6252 0.601385 26.6012 1.69311C25.8375 2.50735 24.5948 2.50717 23.8313 1.6932C22.8073 0.601385 21.4457 9.23077e-05 19.9975 0H19.9974C18.5493 0 17.1877 0.601385 16.1636 1.69311C15.3999 2.50735 14.1572 2.50726 13.3937 1.69311C11.2797 -0.560769 7.83995 -0.560769 5.72601 1.69311C4.96237 2.50726 3.71977 2.50726 2.95596 1.69311C2.27969 0.972092 1.18332 0.972092 0.507132 1.69311C-0.169058 2.41412 -0.169058 3.58292 0.507219 4.30394C2.62116 6.55772 6.06081 6.55772 8.17492 4.30394Z" transform="translate(0 9.00293)" fill="#1EACF6"/>
</g>
</svg>
