<svg width="56" height="14" fill="none" xmlns="http://www.w3.org/2000/svg"><path fill-rule="evenodd" clip-rule="evenodd" d="M48.32.245a6.825 6.825 0 0 1 3 .7c.143.067.287.142.43.225l-.635.565-.95-1-1.605 1.43-.955-1.04-3 2.695 1.915 2.115-.755.665 1.89 2.115-.75.66 2.7 3 1.6-1.475 1.415 1.6a7.348 7.348 0 0 1-.905.6A6.875 6.875 0 1 1 48.325.245h-.005z" fill="#006BB2"/><path fill-rule="evenodd" clip-rule="evenodd" d="M47.07 6.685l1.635-1.47 1.47 1.635-1.635 1.47-1.47-1.635zm1.16 2.825l1.635-1.47 1.475 1.635-1.635 1.475-1.475-1.64zM45.9 3.895l1.635-1.475 1.47 1.64-1.635 1.47-1.47-1.635zm3-.795L50.125 2l1.105 1.225-1.225 1.105L48.9 3.1zm2.18 5.06l1.225-1.105L53.41 8.28l-1.225 1.105L51.08 8.16zm1.075 2.475l1.23-1.105 1.1 1.23-1.225 1.105-1.105-1.23zm.495-5.675l.82-.734.735.815-.815.735-.74-.815zm-1.045-2.43l.82-.735.735.815-.815.74-.74-.82zm2.09 4.86l.82-.74.735.82-.82.735-.735-.815zM50.03 5.57l1.225-1.105L52.36 5.69l-1.225 1.105L50.03 5.57z" fill="#006BB2"/><path d="M3.46 5.935h-.055L2.37 9.85H1.5L.25 4.29h.88L2 8.44h.055l1-4.15h.7l1.09 4.15H4.9l.8-4.15h.92L5.375 9.85h-.85L3.46 5.935z" fill="#006BB2"/><path fill-rule="evenodd" clip-rule="evenodd" d="M10.12 9.595V9c-.37.248-.8.388-1.245.404-.81 0-1.195-.415-1.195-1.354h2.555v-.29c0-1.28-.585-1.915-1.585-1.915-1.175 0-1.78.815-1.78 2.054 0 1.24.54 2.056 1.86 2.056.487.004.966-.12 1.39-.36zM9.5 7.5H7.695c.09-.77.515-1.155.94-1.155.425 0 .825.33.865 1.155zm3.33-1.665a2.358 2.358 0 0 0-1.06.29v-2.26l-.815.196v5.5c.476.238.998.37 1.53.384 1.14 0 1.845-.715 1.845-2.18 0-1.255-.525-1.93-1.5-1.93zm-.34 3.56a1.832 1.832 0 0 1-.72-.125l-.02-2.565a1.64 1.64 0 0 1 .855-.26c.525 0 .885.32.885 1.32 0 1.27-.42 1.63-1 1.63z" fill="#006BB2"/><path d="M17.895 8.675h.04l1.68-4.385h.975v5.56h-.85V5.82h-.07l-1.6 4.035h-.5l-1.6-3.94h-.07V9.85h-.71V4.29h.95l1.755 4.385z" fill="#006BB2"/><path fill-rule="evenodd" clip-rule="evenodd" d="M23.24 5.835c-1.035 0-1.79.68-1.79 2.055 0 1.34.715 2.055 1.79 2.055 1.075 0 1.79-.68 1.79-2.055s-.755-2.055-1.79-2.055zm0 .555c.535 0 .965.44.965 1.5 0 1.075-.41 1.5-.965 1.5-.555 0-.965-.446-.965-1.5 0-1.055.43-1.5.965-1.5z" fill="#006BB2"/><path d="M25.77 6.415a4 4 0 0 1 2-.58c.94 0 1.295.37 1.295 1.175v2.84h-.815V7.19c0-.62-.305-.73-.705-.73a2.165 2.165 0 0 0-.955.28v3.11h-.82V6.415z" fill="#006BB2"/><path fill-rule="evenodd" clip-rule="evenodd" d="M33.045 9.595V9c-.37.249-.804.389-1.25.404-.805 0-1.19-.415-1.19-1.354h2.555v-.29c0-1.28-.585-1.915-1.585-1.915-1.175 0-1.78.815-1.78 2.054 0 1.24.54 2.056 1.86 2.056.487.004.966-.12 1.39-.36zm-.63-2.095H30.62c.085-.77.505-1.155.93-1.155.425 0 .825.33.865 1.155z" fill="#006BB2"/><path d="M36.215 5.965h.84l-1.42 3.925c-.39 1.085-.87 1.645-1.775 1.645v-.64c.535 0 .865-.425 1.05-1l-1.5-3.925h.865l1 2.885h.045l.895-2.89z" fill="#006BB2"/></svg>