<svg width="56" height="12" xmlns="http://www.w3.org/2000/svg"><g fill="none"><path d="M3.15 6.3L1.62 9.74H.5l1.68-3.68C1.39 5.66.86 4.93.86 3.585.86 1.7 2.055.76 3.47.76h1.445v9H3.95V6.3h-.8zm.805-4.72h-.5c-.78 0-1.53.5-1.53 2S2.595 5.5 3.44 5.5h.5l.015-3.92z" fill="#34434B"/><path d="M9.58 3.415V9.74h-.97V6.905H7.155V9.74h-1V3.415h1V6.1H8.61V3.415h.97zM14.61 11h-.875V9.74H11V11h-.855V8.94h.39c.575-1.345.64-3.3.64-5v-.525h2.94v5.5h.5L14.61 11zm-1.465-6.795H12.05v.115c0 1.33-.065 3.275-.59 4.62h1.68l.005-4.735zm4.17 5.625c-1.305 0-2.11-1.04-2.11-3 0-2.035.565-3.5 1.91-3.5 1.055 0 1.745.79 1.745 2.94v.54h-2.64c0 1.43.4 2.185 1.18 2.185.449-.011.883-.16 1.245-.425l.225.755a2.5 2.5 0 0 1-1.56.505h.005zM16.23 6h1.62c0-1.08-.175-1.87-.74-1.87s-.815.74-.88 1.87zm4.61.59v3.15h-1V3.415h1V6.34l1.5-2.925h1l-1.57 3 1.795 3.35H22.5L20.84 6.59zm2.86 0c0-2 .765-3.25 2.245-3.25a2 2 0 0 1 1.17.325L27 4.58a1.675 1.675 0 0 0-1.04-.44c-.705 0-1.205.79-1.205 2.385 0 1.595.375 2.5 1.17 2.5a1.6 1.6 0 0 0 1.065-.39l.225.73c-.36.329-.832.507-1.32.5C24.5 9.83 23.7 8.735 23.7 6.58v.01zm10.15 3.15H30l-.09 1.5h-.5v-2h.265c.44-.365.655-1.37.78-2.65.125-1.28.165-3.315.2-5.815h3.14v8.45h.615v2h-.5l-.06-1.485zm-.665-8.46H31.24c-.04 2.27-.1 4-.2 5.3-.1 1.3-.315 2.235-.655 2.65h2.8V1.28zm3.845 8.07c.51-.012.985-.264 1.28-.68l.19.5a1.83 1.83 0 0 1-1.5.715c-1.345 0-1.96-1.22-1.96-3.29 0-2.07.78-3.29 1.845-3.29S38.7 4.43 38.5 6.68h-2.865c.025 1.73.475 2.67 1.395 2.67zm-1.38-3.135h2.3c.1-1.68-.4-2.435-1.04-2.435s-1.21.85-1.26 2.435zm6.715.475h-2.16v3.05h-.59V3.415h.59v2.8h2.16v-2.8h.59V9.74h-.59zm1.985-3.275h.59v2.35h.465c1.205 0 2 .655 2 1.97a1.845 1.845 0 0 1-2 2h-1l-.055-6.32zm.59 2.81v3.05h.375c.89 0 1.5-.44 1.5-1.53s-.525-1.5-1.43-1.5l-.445-.02zM49 3.905V9.74h-.575V3.415H51.1v.5zm5.935 1.43a8.6 8.6 0 0 1 .05-.865h-.04a5.61 5.61 0 0 1-.34.815l-2.06 4.455h-.5V3.415h.55V7.81c0 .34-.025.615-.05.89h.04c.095-.287.208-.568.34-.84L55 3.415h.5V9.74h-.565V5.335z" fill="#FFF"/></g></svg>