<svg width="56" height="22" xmlns="http://www.w3.org/2000/svg"><g fill="#8E9DA5"><path d="M27.34 10.15c1.1 0 1.76-.955 1.76-2.5s-.66-2.5-1.76-2.5-1.77.92-1.77 2.5.69 2.5 1.77 2.5zm3.065 3.475a.135.135 0 0 1-.205 0l-.545-.725a2.585 2.585 0 0 0-2.315-1.09c-2.225 0-3.62-1.6-3.62-4.145 0-2.545 1.395-4.165 3.62-4.165s3.61 1.6 3.61 4.155c0 1.295-.455 2.61-1.215 3.065-.135.08-.135.115 0 .16.536.18.998.532 1.315 1l.5.69a.135.135 0 0 1 0 .205l-1.145.85zM32.36 3.61h1.545a.15.15 0 0 1 .15.15v7.74a.15.15 0 0 1-.15.15H32.36a.145.145 0 0 1-.145-.145v-7.75a.15.15 0 0 1 .145-.145zm12.205 5.61a24.735 24.735 0 0 0-.5 2.305.145.145 0 0 1-.16.135h-2.1a.145.145 0 0 1-.16-.135c-.125-.66-.25-1.26-.41-1.885l-.35-1.5c-.07-.295-.16-.77-.225-1.17 0-.16-.16-.16-.18 0-.07.395-.16.865-.225 1.17l-.35 1.5c-.15.625-.275 1.225-.41 1.885a.145.145 0 0 1-.16.135h-2.08a.145.145 0 0 1-.16-.135c-.15-.77-.32-1.5-.5-2.305L35.2 3.77c-.035-.09 0-.16.125-.16h1.565a.16.16 0 0 1 .17.125l.77 3.065c.198.823.338 1.658.42 2.5 0 .15.18.16.205 0a21.13 21.13 0 0 1 .5-2.5l.83-3.065a.16.16 0 0 1 .16-.125h1.295a.16.16 0 0 1 .16.125l.84 3.065c.217.823.384 1.657.5 2.5 0 .16.18.15.195 0a16.65 16.65 0 0 1 .42-2.5l.77-3.065a.16.16 0 0 1 .17-.125h1.565c.1 0 .16.07.125.16l-1.42 5.45zm2.67-5.61h1.545a.15.15 0 0 1 .15.15v7.74a.15.15 0 0 1-.15.15h-1.545a.145.145 0 0 1-.145-.145v-7.75c0-.08.065-.145.145-.145zM20.63 21.19c.19.235-.1.5-.315.285-2.16-1.91-3.975-2.455-5.77-2.53-.965-.016-1.93.03-2.89.14l-.6.05h-.265a9.9 9.9 0 0 1-1.06.06A9.565 9.565 0 0 1 5 18a9 9 0 0 1-3.45-3.4A9.315 9.315 0 0 1 .305 9.89 9.44 9.44 0 0 1 1.55 5.16 9.265 9.265 0 0 1 9.6.455a9.68 9.68 0 0 1 4.795 1.23 9.08 9.08 0 0 1 3.46 3.41 9.315 9.315 0 0 1 1.26 4.725c0 .641-.064 1.281-.19 1.91 0 .09-.04.2-.07.325-.03.125-.05.205-.08.305a10.75 10.75 0 0 1-1.06 2.265c-.06.1-.095 0-.105-.035a4.305 4.305 0 0 0-1.935-3.22l-.055-.035a4.84 4.84 0 0 0-.58-.305 6 6 0 0 0-.855-.3c-.185-.05-.605-.03-.455-.18a8.81 8.81 0 0 1 2 0h.06c.02-.217.03-.44.03-.67A6 6 0 0 0 14 5.43a5.9 5.9 0 0 0-4.35-1.8 5.74 5.74 0 0 0-4.34 1.8 6.065 6.065 0 0 0-1.75 4.415 5.93 5.93 0 0 0 1.795 4.395 5.81 5.81 0 0 0 4.295 1.795h.24v-.06c-.095-1.235-.115-2.255.135-1.845.09.145.18.285.265.415.296.442.63.857 1 1.24l.05.05c1.195 1.21 2.37 1.5 3.62 1.815h.08l.62.155c1.5.395 3.095 1.035 4.97 3.36m-4.13-7.43c-.185-.055-.32 0-.39.11a1 1 0 0 0 .18.885c.21.33.39.5.53.5a.165.165 0 0 0 .125-.06.705.705 0 0 0 .07-.5 1.25 1.25 0 0 0-.5-.91m-2.08 1.535a.55.55 0 0 0-.44.185.895.895 0 0 0 .245 1.175 1 1 0 0 0 .64.23.68.68 0 0 0 .56-.25c.22-.295.095-.715-.325-1.07a1.065 1.065 0 0 0-.675-.27M34 13.465l-1.095 1.265v-1.265h-.725v3.185h.74v-1.31a.86.86 0 0 1 .885.635 4 4 0 0 0 .285.625l.03.05h.8l-.08-.15a4.875 4.875 0 0 1-.265-.595l-.05-.125a1.435 1.435 0 0 0-.89-.93l1.335-1.385H34zm2.575-.07A1.565 1.565 0 0 0 35 15.08a1.5 1.5 0 0 0 1.53 1.635 1.565 1.565 0 0 0 1.585-1.685 1.5 1.5 0 0 0-1.54-1.635zm.775 1.655c0 .61-.335 1.05-.8 1.05s-.8-.435-.8-1.04c0-.5.25-1.05.81-1.05s.79.68.79 1.04zm4.36.965h-.83v-2.55h-.735v2.55h-.835v-2.55h-.735v3.18h3.88v-3.18h-.745zm2.82-2.62c-.885 0-1.5.7-1.5 1.71a1.5 1.5 0 0 0 1.565 1.605 2.5 2.5 0 0 0 1.03-.195l.08-.035-.14-.59-.115.05a1.845 1.845 0 0 1-.785.145.845.845 0 0 1-.91-.825h2.075v-.12a1.935 1.935 0 0 0 0-.235 1.36 1.36 0 0 0-1.3-1.51zm.6 1.265h-1.35a.76.76 0 0 1 .72-.66.595.595 0 0 1 .44.165c.117.14.184.317.19.5v-.005zm1.515.105c0 .68-.04 1.035-.27 1.205a.575.575 0 0 1-.245.1h-.1l.08.615h.09a.965.965 0 0 0 .645-.2c.43-.28.5-.87.5-1.735v-.655h.815v2.55h.74v-3.18h-2.275l.02 1.3zM51 13.395c-.885 0-1.5.7-1.5 1.71a1.5 1.5 0 0 0 1.565 1.605 2.5 2.5 0 0 0 1.03-.195l.08-.035-.14-.59-.115.05a1.84 1.84 0 0 1-.785.145.845.845 0 0 1-.91-.825H52.3v-.115c.005-.08.005-.16 0-.24a1.36 1.36 0 0 0-1.3-1.51zm.6 1.265h-1.35a.76.76 0 0 1 .71-.66.595.595 0 0 1 .44.165.82.82 0 0 1 .205.5l-.005-.005zm3.715 1.245l-.05-.125a1.435 1.435 0 0 0-.89-.93l1.335-1.385h-.95l-1.095 1.265v-1.265h-.74v3.185h.74v-1.31a.86.86 0 0 1 .885.635 4 4 0 0 0 .285.625l.03.05h.8l-.085-.155a4.895 4.895 0 0 1-.265-.59z"/><path d="M50.45 12.58h1v1h-1z"/><path d="M51.235 12.58h1v1h-1z"/></g></svg>