<svg width="44" height="15" xmlns="http://www.w3.org/2000/svg"><path d="M16.785.645l-5.675 13.54H7.405L4.615 3.38a1.5 1.5 0 0 0-.83-1.19A14.65 14.65 0 0 0 .33 1.04L.415.645H6.37A1.63 1.63 0 0 1 8 2.025L9.5 9.86 13.145.645h3.64zm14.5 9.12c0-3.575-4.94-3.77-4.905-5.365 0-.5.475-1 1.5-1.135a6.615 6.615 0 0 1 3.455.605L31.94 1a9.41 9.41 0 0 0-3.275-.6c-3.46 0-5.9 1.84-5.92 4.5 0 1.95 1.74 3.035 3.065 3.685 1.325.65 1.82 1.09 1.815 1.685 0 .91-1.09 1.31-2.095 1.325a7.325 7.325 0 0 1-3.6-.855l-.63 2.94c1.242.482 2.563.727 3.895.72 3.68 0 6.085-1.815 6.1-4.635h-.01zm9.155 4.42h3.24L40.85.645h-3a1.595 1.595 0 0 0-1.5 1l-5.24 12.54h3.675l.73-2h4.5l.425 2zm-3.91-4.8L38.375 4.3l1.06 5.085H36.53zM21.79.645l-2.9 13.54h-3.5l2.9-13.54h3.5z" fill="#35454F"/></svg>