<svg width="50" height="15" xmlns="http://www.w3.org/2000/svg"><g fill="none"><path d="M27.815 1.875L24.68 8.67h-.32V.395h-4.45v14h3.78c.997-.004 1.9-.59 2.31-1.5L29.135 6.1h.32v8.295h4.455v-14h-3.78c-.997.004-1.9.59-2.31 1.5m-16.715.34L9.25 8.67h-.32L7.075 2.235A2.545 2.545 0 0 0 4.63.395H.18v14h4.455v-8.27h.32l2.545 8.27h3.18l2.545-8.275h.32v8.275H18v-14h-4.45c-1.134 0-2.13.75-2.445 1.84M35.82 6.76v7.635h4.445V9.94h4.78a4.77 4.77 0 0 0 4.5-3.18H35.82z" fill="#7B8C97"/><path d="M45.045.395H35.18a7 7 0 0 0 6.88 5.725h7.66A4.775 4.775 0 0 0 45.045.395" fill="#7D8D97"/></g></svg>