<svg width="56" height="22" fill="none" xmlns="http://www.w3.org/2000/svg"><g style="mix-blend-mode:luminosity"><path fill-rule="evenodd" clip-rule="evenodd" d="M30.302 13.672c.04 0 .077-.017.103-.047l1.145-.85a.137.137 0 0 0 .047-.102.134.134 0 0 0-.047-.103l-.5-.69a2.58 2.58 0 0 0-1.315-1c-.135-.045-.135-.08 0-.16.76-.455 1.215-1.77 1.215-3.065 0-2.555-1.385-4.155-3.61-4.155-2.225 0-3.62 1.62-3.62 4.165s1.395 4.145 3.62 4.145c.91-.07 1.79.343 2.315 1.09l.545.725c.026.03.063.047.102.047zM29.1 7.65c0 1.545-.66 2.5-1.76 2.5-1.08 0-1.77-.92-1.77-2.5s.67-2.5 1.77-2.5 1.76.955 1.76 2.5z" fill="#E48A20"/><path d="M32.36 3.61h1.545a.15.15 0 0 1 .15.15v7.74a.15.15 0 0 1-.15.15H32.36a.145.145 0 0 1-.145-.146v-7.75a.15.15 0 0 1 .145-.145zm12.205 5.61a24.735 24.735 0 0 0-.5 2.305.145.145 0 0 1-.16.135h-2.1a.145.145 0 0 1-.16-.135c-.125-.66-.25-1.26-.41-1.885l-.35-1.5c-.07-.295-.16-.77-.225-1.17 0-.16-.16-.16-.18 0-.07.395-.16.865-.225 1.17l-.35 1.5c-.15.625-.275 1.225-.41 1.885a.145.145 0 0 1-.16.135h-2.08a.145.145 0 0 1-.16-.135c-.15-.77-.32-1.5-.5-2.305L35.2 3.77c-.035-.09 0-.16.125-.16h1.565a.16.16 0 0 1 .17.125l.77 3.065c.198.823.338 1.658.42 2.5 0 .15.18.16.205 0 .116-.843.283-1.678.5-2.5l.83-3.065a.16.16 0 0 1 .16-.125h1.295a.16.16 0 0 1 .16.125l.84 3.065c.217.823.384 1.657.5 2.5 0 .16.18.15.195 0 .076-.843.217-1.679.42-2.5l.77-3.065a.16.16 0 0 1 .17-.125h1.565c.1 0 .16.07.125.16l-1.42 5.45zm2.67-5.61h1.545a.15.15 0 0 1 .15.15v7.74a.15.15 0 0 1-.15.15h-1.545a.145.145 0 0 1-.145-.146v-7.75c0-.08.065-.145.145-.145z" fill="#E48A20"/><path fill-rule="evenodd" clip-rule="evenodd" d="M20.63 21.19c.19.235-.1.5-.315.285-2.16-1.91-3.975-2.455-5.77-2.53a22.5 22.5 0 0 0-2.89.14l-.6.05h-.265c-.352.038-.706.059-1.06.06A9.558 9.558 0 0 1 5 17.999a9.004 9.004 0 0 1-3.45-3.4A9.315 9.315 0 0 1 .305 9.89 9.442 9.442 0 0 1 1.55 5.16 9.267 9.267 0 0 1 9.6.454a9.672 9.672 0 0 1 4.795 1.23 9.07 9.07 0 0 1 3.46 3.411 9.314 9.314 0 0 1 1.26 4.725c0 .641-.064 1.28-.19 1.91 0 .063-.02.138-.043.22l-.027.105c-.03.125-.05.205-.08.305-.264.794-.62 1.553-1.06 2.264-.06.1-.095 0-.105-.034a4.306 4.306 0 0 0-1.935-3.22l-.055-.036a4.94 4.94 0 0 0-.58-.304 6.013 6.013 0 0 0-.855-.3 1.54 1.54 0 0 0-.202-.032c-.18-.021-.36-.042-.253-.148a8.777 8.777 0 0 1 2 0h.06c.02-.217.03-.44.03-.67A5.998 5.998 0 0 0 14 5.43a5.901 5.901 0 0 0-4.35-1.8 5.741 5.741 0 0 0-4.34 1.8 6.064 6.064 0 0 0-1.75 4.415 5.93 5.93 0 0 0 1.795 4.395 5.81 5.81 0 0 0 4.295 1.795h.24v-.06c-.095-1.235-.115-2.255.135-1.846.09.146.18.285.265.415.296.443.63.858 1 1.24l.05.05c1.187 1.201 2.354 1.496 3.594 1.809l.026.007h.08l.62.155c1.5.395 3.095 1.035 4.97 3.36v.025zm-4.13-7.455c-.185-.055-.32 0-.39.11a1 1 0 0 0 .18.885c.21.33.39.5.53.5a.167.167 0 0 0 .125-.06.706.706 0 0 0 .07-.5 1.248 1.248 0 0 0-.5-.91l-.015-.025zm-2.505 1.745a.895.895 0 0 0 .245 1.175l-.245-1.175zm.245 1.175c.18.149.406.23.64.23l-.64-.23zm.64.23a.683.683 0 0 0 .56-.25l-.56.25zm.56-.25c.22-.295.095-.715-.325-1.07l.325 1.07zm-.325-1.07a1.068 1.068 0 0 0-.68-.27l.68.27z" fill="#E48A20"/><path d="M34 13.465l-1.095 1.265v-1.265h-.725v3.185h.74v-1.31a.86.86 0 0 1 .885.635 4 4 0 0 0 .285.625l.03.05h.8l-.08-.15a4.874 4.874 0 0 1-.265-.595l-.05-.125a1.435 1.435 0 0 0-.89-.93l1.335-1.385H34z" fill="#DC9435"/><path fill-rule="evenodd" clip-rule="evenodd" d="M35.417 13.891c.3-.32.72-.5 1.158-.496a1.499 1.499 0 0 1 1.54 1.635 1.565 1.565 0 0 1-1.585 1.685A1.497 1.497 0 0 1 35 15.08a1.564 1.564 0 0 1 .417-1.189zM36.55 16.1c.465 0 .8-.44.8-1.05 0-.36-.23-1.04-.79-1.04s-.81.55-.81 1.05c0 .606.335 1.04.8 1.04z" fill="#DC9435"/><path d="M41.71 16.015h-.83v-2.55h-.735v2.55h-.835v-2.55h-.735v3.18h3.88v-3.18h-.745v2.55z" fill="#DC9435"/><path fill-rule="evenodd" clip-rule="evenodd" d="M43.03 15.104c0-1.01.615-1.71 1.5-1.71a1.362 1.362 0 0 1 1.3 1.51c.005.078.005.157 0 .236v.12h-2.075a.845.845 0 0 0 .91.825c.27.009.537-.04.785-.146l.115-.05.14.59-.08.036a2.517 2.517 0 0 1-1.03.195 1.5 1.5 0 0 1-1.565-1.606zm.75-.444h1.35a.821.821 0 0 0-.19-.495.594.594 0 0 0-.44-.165.759.759 0 0 0-.72.66z" fill="#DC9435"/><path d="M46.645 14.765c0 .68-.04 1.035-.27 1.205a.575.575 0 0 1-.245.1h-.1l.08.615h.09a.965.965 0 0 0 .645-.2c.43-.28.5-.87.5-1.735v-.655h.815v2.55h.74v-3.18h-2.275l.02 1.3z" fill="#DC9435"/><path fill-rule="evenodd" clip-rule="evenodd" d="M49.5 15.104c0-1.01.615-1.71 1.5-1.71a1.362 1.362 0 0 1 1.3 1.51c.005.08.005.16 0 .24v.116h-2.075a.845.845 0 0 0 .91.825c.27.009.537-.04.785-.146l.115-.05.14.59-.08.036a2.517 2.517 0 0 1-1.03.195 1.5 1.5 0 0 1-1.565-1.606zm.75-.444h1.35a.783.783 0 0 0-.2-.495.594.594 0 0 0-.44-.165.76.76 0 0 0-.71.66z" fill="#DC9435"/><path d="M55.315 15.905l-.05-.125a1.435 1.435 0 0 0-.89-.93l1.335-1.385h-.95l-1.095 1.265v-1.265h-.74v3.185h.74v-1.31a.86.86 0 0 1 .885.635 4 4 0 0 0 .285.625l.03.05h.8l-.085-.155a4.896 4.896 0 0 1-.265-.59z" fill="#DC9435"/><path d="M50.45 12.58h.335v.5h-.335v-.5zm.785 0h.335v.5h-.335v-.5z" fill="#E48A20"/></g></svg>